<svg class="main-svg" xmlns="http://www.w3.org/2000/svg" xmlns:xlink="http://www.w3.org/1999/xlink" width="700" height="500" style="" viewBox="0 0 700 500"><rect x="0" y="0" width="700" height="500" style="fill: rgb(255, 255, 255); fill-opacity: 1;"/><defs id="defs-fb64c1"><g class="clips"><clipPath id="clipfb64c1xyplot" class="plotclip"><rect width="452" height="320"/></clipPath><clipPath class="axesclip" id="clipfb64c1x"><rect x="80" y="0" width="452" height="500"/></clipPath><clipPath class="axesclip" id="clipfb64c1y"><rect x="0" y="100" width="700" height="320"/></clipPath><clipPath class="axesclip" id="clipfb64c1xy"><rect x="80" y="100" width="452" height="320"/></clipPath></g><g class="gradients"/><g class="patterns"/></defs><g class="bglayer"/><g class="layer-below"><g class="imagelayer"/><g class="shapelayer"><g class="shape-group" data-index="0" clip-path="url(#clipfb64c1x)"><path data-index="0" fill-rule="evenodd" d="M306,420L306,100" style="opacity: 1; stroke: rgb(102, 102, 102); stroke-opacity: 1; fill: rgb(0, 0, 0); fill-opacity: 0; stroke-width: 1px;"/></g></g></g><g class="cartesianlayer"><g class="subplot xy"><g class="layer-subplot"><g class="shapelayer"/><g class="imagelayer"/></g><g class="minor-gridlayer"><g class="x"/><g class="y"/></g><g class="gridlayer"><g class="x"/><g class="y"/></g><g class="zerolinelayer"/><path class="xlines-below"/><path class="ylines-below"/><g class="overlines-below"/><g class="xaxislayer-below"/><g class="yaxislayer-below"/><g class="overaxes-below"/><g class="plot" transform="translate(80,100)" clip-path="url(#clipfb64c1xyplot)"><g class="scatterlayer mlayer"><g class="trace scatter trace8964d3" style="stroke-miterlimit: 2; opacity: 1;"><g class="fills"/><g class="errorbars"/><g class="lines"><path class="js-line" d="M15.18,118.31H36.27V113.5H57.35V201.03H78.43V141.11H99.51V152.37H120.59V150.6H141.67V194.78H162.76V175.56H183.84V113.81H204.92V191.23H226V191.23" style="vector-effect: none; fill: none; stroke: rgb(0, 200, 229); stroke-opacity: 1; stroke-width: 2px; opacity: 1;"/></g><g class="points"/><g class="text"/></g><g class="trace scatter tracef1f504" style="stroke-miterlimit: 2; opacity: 1;"><g class="fills"/><g class="errorbars"/><g class="lines"/><g class="points"><path class="point plotly-customdata" transform="translate(25.73,118.31)" d="M2.5,0A2.5,2.5 0 1,1 0,-2.5A2.5,2.5 0 0,1 2.5,0Z" style="opacity: 1; stroke-width: 0px; fill: rgb(0, 200, 229); fill-opacity: 1;"/><path class="point plotly-customdata" transform="translate(46.81,113.5)" d="M2.5,0A2.5,2.5 0 1,1 0,-2.5A2.5,2.5 0 0,1 2.5,0Z" style="opacity: 1; stroke-width: 0px; fill: rgb(0, 200, 229); fill-opacity: 1;"/><path class="point plotly-customdata" transform="translate(67.89,201.03)" d="M2.5,0A2.5,2.5 0 1,1 0,-2.5A2.5,2.5 0 0,1 2.5,0Z" style="opacity: 1; stroke-width: 0px; fill: rgb(0, 200, 229); fill-opacity: 1;"/><path class="point plotly-customdata" transform="translate(88.97,141.11)" d="M2.5,0A2.5,2.5 0 1,1 0,-2.5A2.5,2.5 0 0,1 2.5,0Z" style="opacity: 1; stroke-width: 0px; fill: rgb(0, 200, 229); fill-opacity: 1;"/><path class="point plotly-customdata" transform="translate(110.05,152.37)" d="M2.5,0A2.5,2.5 0 1,1 0,-2.5A2.5,2.5 0 0,1 2.5,0Z" style="opacity: 1; stroke-width: 0px; fill: rgb(0, 200, 229); fill-opacity: 1;"/><path class="point plotly-customdata" transform="translate(131.13,150.6)" d="M2.5,0A2.5,2.5 0 1,1 0,-2.5A2.5,2.5 0 0,1 2.5,0Z" style="opacity: 1; stroke-width: 0px; fill: rgb(0, 200, 229); fill-opacity: 1;"/><path class="point plotly-customdata" transform="translate(152.21,194.78)" d="M2.5,0A2.5,2.5 0 1,1 0,-2.5A2.5,2.5 0 0,1 2.5,0Z" style="opacity: 1; stroke-width: 0px; fill: rgb(0, 200, 229); fill-opacity: 1;"/><path class="point plotly-customdata" transform="translate(173.3,175.56)" d="M2.5,0A2.5,2.5 0 1,1 0,-2.5A2.5,2.5 0 0,1 2.5,0Z" style="opacity: 1; stroke-width: 0px; fill: rgb(0, 200, 229); fill-opacity: 1;"/><path class="point plotly-customdata" transform="translate(194.38,113.81)" d="M2.5,0A2.5,2.5 0 1,1 0,-2.5A2.5,2.5 0 0,1 2.5,0Z" style="opacity: 1; stroke-width: 0px; fill: rgb(0, 200, 229); fill-opacity: 1;"/><path class="point plotly-customdata" transform="translate(215.46,191.23)" d="M2.5,0A2.5,2.5 0 1,1 0,-2.5A2.5,2.5 0 0,1 2.5,0Z" style="opacity: 1; stroke-width: 0px; fill: rgb(0, 200, 229); fill-opacity: 1;"/></g><g class="text"/></g><g class="trace scatter trace84a32c" style="stroke-miterlimit: 2; opacity: 1;"><g class="fills"/><g class="errorbars"/><g class="lines"><path class="js-line" d="M226,225.19H247.08V184.6H268.16V94.81H289.24V135.33H310.33V162H331.41V151.64H352.49V159.83H373.57V189.26H394.65V155.26H415.73V153.78H436.82V153.78" style="vector-effect: none; fill: none; stroke: rgb(0, 200, 229); stroke-opacity: 1; stroke-width: 2px; opacity: 1;"/></g><g class="points"/><g class="text"/></g><g class="trace scatter trace878dc7" style="stroke-miterlimit: 2; opacity: 1;"><g class="fills"/><g class="errorbars"/><g class="lines"/><g class="points"><path class="point plotly-customdata" transform="translate(236.54,225.19)" d="M2.5,0A2.5,2.5 0 1,1 0,-2.5A2.5,2.5 0 0,1 2.5,0Z" style="opacity: 1; stroke-width: 0px; fill: rgb(0, 200, 229); fill-opacity: 1;"/><path class="point plotly-customdata" transform="translate(257.62,184.6)" d="M2.5,0A2.5,2.5 0 1,1 0,-2.5A2.5,2.5 0 0,1 2.5,0Z" style="opacity: 1; stroke-width: 0px; fill: rgb(0, 200, 229); fill-opacity: 1;"/><path class="point plotly-customdata" transform="translate(278.7,94.81)" d="M2.5,0A2.5,2.5 0 1,1 0,-2.5A2.5,2.5 0 0,1 2.5,0Z" style="opacity: 1; stroke-width: 0px; fill: rgb(0, 200, 229); fill-opacity: 1;"/><path class="point plotly-customdata" transform="translate(299.79,135.33)" d="M2.5,0A2.5,2.5 0 1,1 0,-2.5A2.5,2.5 0 0,1 2.5,0Z" style="opacity: 1; stroke-width: 0px; fill: rgb(0, 200, 229); fill-opacity: 1;"/><path class="point plotly-customdata" transform="translate(320.87,162)" d="M2.5,0A2.5,2.5 0 1,1 0,-2.5A2.5,2.5 0 0,1 2.5,0Z" style="opacity: 1; stroke-width: 0px; fill: rgb(0, 200, 229); fill-opacity: 1;"/><path class="point plotly-customdata" transform="translate(341.95,151.64)" d="M2.5,0A2.5,2.5 0 1,1 0,-2.5A2.5,2.5 0 0,1 2.5,0Z" style="opacity: 1; stroke-width: 0px; fill: rgb(0, 200, 229); fill-opacity: 1;"/><path class="point plotly-customdata" transform="translate(363.03,159.83)" d="M2.5,0A2.5,2.5 0 1,1 0,-2.5A2.5,2.5 0 0,1 2.5,0Z" style="opacity: 1; stroke-width: 0px; fill: rgb(0, 200, 229); fill-opacity: 1;"/><path class="point plotly-customdata" transform="translate(384.11,189.26)" d="M2.5,0A2.5,2.5 0 1,1 0,-2.5A2.5,2.5 0 0,1 2.5,0Z" style="opacity: 1; stroke-width: 0px; fill: rgb(0, 200, 229); fill-opacity: 1;"/><path class="point plotly-customdata" transform="translate(405.19,155.26)" d="M2.5,0A2.5,2.5 0 1,1 0,-2.5A2.5,2.5 0 0,1 2.5,0Z" style="opacity: 1; stroke-width: 0px; fill: rgb(0, 200, 229); fill-opacity: 1;"/><path class="point plotly-customdata" transform="translate(426.27,153.78)" d="M2.5,0A2.5,2.5 0 1,1 0,-2.5A2.5,2.5 0 0,1 2.5,0Z" style="opacity: 1; stroke-width: 0px; fill: rgb(0, 200, 229); fill-opacity: 1;"/></g><g class="text"/></g><g class="trace scatter trace3bc18d" style="stroke-miterlimit: 2; opacity: 1;"><g class="fills"/><g class="errorbars"/><g class="lines"><path class="js-line" d="M15.18,58.39L226,58.39" style="vector-effect: none; fill: none; stroke: rgb(221, 64, 64); stroke-opacity: 1; stroke-dasharray: 9px, 9px; stroke-width: 2px; opacity: 1;"/></g><g class="points"/><g class="text"/></g><g class="trace scatter trace3d8856" style="stroke-miterlimit: 2; opacity: 1;"><g class="fills"/><g class="errorbars"/><g class="lines"><path class="js-line" d="M15.18,252.07L226,252.07" style="vector-effect: none; fill: none; stroke: rgb(221, 64, 64); stroke-opacity: 1; stroke-dasharray: 9px, 9px; stroke-width: 2px; opacity: 1;"/></g><g class="points"/><g class="text"/></g><g class="trace scatter trace1d976d" style="stroke-miterlimit: 2; opacity: 1;"><g class="fills"/><g class="errorbars"/><g class="lines"><path class="js-line" d="M226,58.39L436.82,58.39" style="vector-effect: none; fill: none; stroke: rgb(221, 64, 64); stroke-opacity: 1; stroke-dasharray: 9px, 9px; stroke-width: 2px; opacity: 1;"/></g><g class="points"/><g class="text"/></g><g class="trace scatter trace147418" style="stroke-miterlimit: 2; opacity: 1;"><g class="fills"/><g class="errorbars"/><g class="lines"><path class="js-line" d="M226,252.07L436.82,252.07" style="vector-effect: none; fill: none; stroke: rgb(221, 64, 64); stroke-opacity: 1; stroke-dasharray: 9px, 9px; stroke-width: 2px; opacity: 1;"/></g><g class="points"/><g class="text"/></g><g class="trace scatter tracedeee9e" style="stroke-miterlimit: 2;"><g class="fills"><g><path class="js-fill" d="M15.18,197.12H36.27V192.3H57.35V279.84H78.43V219.91H99.51V231.18H120.59V229.41H141.67V273.58H162.76V254.37H183.84V192.62H204.92V270.04H226V270.04L226,112.43V112.43H204.92V35.01H183.84V96.75H162.76V115.97H141.67V71.79H120.59V73.57H99.51V62.3H78.43V122.23H57.35V34.69H36.27V39.51H15.18Z" style="fill: rgb(0, 200, 229); fill-opacity: 0.2; stroke-width: 0;"/></g></g><g class="errorbars"/><g class="lines"><path class="js-line" d="M15.18,39.51H36.27V34.69H57.35V122.23H78.43V62.3H99.51V73.57H120.59V71.79H141.67V115.97H162.76V96.75H183.84V35.01H204.92V112.43H226V112.43" style="vector-effect: none; fill: none; stroke: rgb(0, 0, 0); stroke-opacity: 0; stroke-width: 2px; opacity: 1;"/></g><g class="points"/><g class="text"/></g><g class="trace scatter trace0366bc" style="stroke-miterlimit: 2;"><g class="fills"/><g class="errorbars"/><g class="lines"><path class="js-line" d="M15.18,197.12H36.27V192.3H57.35V279.84H78.43V219.91H99.51V231.18H120.59V229.41H141.67V273.58H162.76V254.37H183.84V192.62H204.92V270.04H226V270.04" style="vector-effect: none; fill: none; stroke: rgb(0, 0, 0); stroke-opacity: 0; stroke-width: 2px; opacity: 1;"/></g><g class="points"/><g class="text"/></g><g class="trace scatter tracea2bf5d" style="stroke-miterlimit: 2;"><g class="fills"><g><path class="js-fill" d="M226,304H247.08V263.41H268.16V173.61H289.24V214.13H310.33V240.81H331.41V230.45H352.49V238.64H373.57V268.07H394.65V234.07H415.73V232.59H436.82V232.59L436.82,74.98V74.98H415.73V76.46H394.65V110.46H373.57V81.03H352.49V72.84H331.41V83.19H310.33V56.52H289.24V16H268.16V105.8H247.08V146.39H226Z" style="fill: rgb(0, 200, 229); fill-opacity: 0.2; stroke-width: 0;"/></g></g><g class="errorbars"/><g class="lines"><path class="js-line" d="M226,146.39H247.08V105.8H268.16V16H289.24V56.52H310.33V83.19H331.41V72.84H352.49V81.03H373.57V110.46H394.65V76.46H415.73V74.98H436.82V74.98" style="vector-effect: none; fill: none; stroke: rgb(0, 0, 0); stroke-opacity: 0; stroke-width: 2px; opacity: 1;"/></g><g class="points"/><g class="text"/></g><g class="trace scatter tracef98e43" style="stroke-miterlimit: 2;"><g class="fills"/><g class="errorbars"/><g class="lines"><path class="js-line" d="M226,304H247.08V263.41H268.16V173.61H289.24V214.13H310.33V240.81H331.41V230.45H352.49V238.64H373.57V268.07H394.65V234.07H415.73V232.59H436.82V232.59" style="vector-effect: none; fill: none; stroke: rgb(0, 0, 0); stroke-opacity: 0; stroke-width: 2px; opacity: 1;"/></g><g class="points"/><g class="text"/></g></g></g><g class="overplot"/><path class="xlines-above crisp" d="M79,420.5H533M79,99.5H533" style="fill: none; stroke-width: 1px; stroke: rgb(59, 2, 128); stroke-opacity: 1;"/><path class="ylines-above crisp" d="M79.5,100V420M532.5,100V420" style="fill: none; stroke-width: 1px; stroke: rgb(59, 2, 128); stroke-opacity: 1;"/><g class="overlines-above"/><g class="xaxislayer-above"><g class="xtick"><text text-anchor="middle" x="0" y="435.4" transform="translate(95.18,0)" style="font-family: 'Open Sans', verdana, arial, sans-serif; font-size: 12px; fill: rgb(42, 63, 95); fill-opacity: 1; white-space: pre; opacity: 1;">0</text></g><g class="xtick"><text text-anchor="middle" x="0" y="435.4" style="font-family: 'Open Sans', verdana, arial, sans-serif; font-size: 12px; fill: rgb(42, 63, 95); fill-opacity: 1; white-space: pre; opacity: 1;" transform="translate(200.59,0)">5</text></g><g class="xtick"><text text-anchor="middle" x="0" y="435.4" style="font-family: 'Open Sans', verdana, arial, sans-serif; font-size: 12px; fill: rgb(42, 63, 95); fill-opacity: 1; white-space: pre; opacity: 1;" transform="translate(306,0)">10</text></g><g class="xtick"><text text-anchor="middle" x="0" y="435.4" style="font-family: 'Open Sans', verdana, arial, sans-serif; font-size: 12px; fill: rgb(42, 63, 95); fill-opacity: 1; white-space: pre; opacity: 1;" transform="translate(411.41,0)">15</text></g><g class="xtick"><text text-anchor="middle" x="0" y="435.4" style="font-family: 'Open Sans', verdana, arial, sans-serif; font-size: 12px; fill: rgb(42, 63, 95); fill-opacity: 1; white-space: pre; opacity: 1;" transform="translate(516.8199999999999,0)">20</text></g></g><g class="yaxislayer-above"><g class="ytick"><text text-anchor="end" x="76.6" y="4.199999999999999" transform="translate(0,376.16)" style="font-family: 'Open Sans', verdana, arial, sans-serif; font-size: 12px; fill: rgb(42, 63, 95); fill-opacity: 1; white-space: pre; opacity: 1;">5.4</text></g><g class="ytick"><text text-anchor="end" x="76.6" y="4.199999999999999" style="font-family: 'Open Sans', verdana, arial, sans-serif; font-size: 12px; fill: rgb(42, 63, 95); fill-opacity: 1; white-space: pre; opacity: 1;" transform="translate(0,311.03)">5.5</text></g><g class="ytick"><text text-anchor="end" x="76.6" y="4.199999999999999" style="font-family: 'Open Sans', verdana, arial, sans-serif; font-size: 12px; fill: rgb(42, 63, 95); fill-opacity: 1; white-space: pre; opacity: 1;" transform="translate(0,245.9)">5.6</text></g><g class="ytick"><text text-anchor="end" x="76.6" y="4.199999999999999" style="font-family: 'Open Sans', verdana, arial, sans-serif; font-size: 12px; fill: rgb(42, 63, 95); fill-opacity: 1; white-space: pre; opacity: 1;" transform="translate(0,180.76999999999998)">5.7</text></g><g class="ytick"><text text-anchor="end" x="76.6" y="4.199999999999999" style="font-family: 'Open Sans', verdana, arial, sans-serif; font-size: 12px; fill: rgb(42, 63, 95); fill-opacity: 1; white-space: pre; opacity: 1;" transform="translate(0,115.64)">5.8</text></g></g><g class="overaxes-above"/></g></g><g class="polarlayer"/><g class="smithlayer"/><g class="ternarylayer"/><g class="geolayer"/><g class="funnelarealayer"/><g class="pielayer"/><g class="iciclelayer"/><g class="treemaplayer"/><g class="sunburstlayer"/><g class="glimages"/><defs id="topdefs-fb64c1"><g class="clips"/><clipPath id="legendfb64c1"><rect width="147" height="87" x="0" y="0"/></clipPath></defs><g class="layer-above"><g class="imagelayer"/><g class="shapelayer"/></g><g class="infolayer"><g class="legend" pointer-events="all" transform="translate(541.04,100)"><rect class="bg" shape-rendering="crispEdges" width="147" height="87" x="0" y="0" style="stroke: rgb(68, 68, 68); stroke-opacity: 1; fill: rgb(255, 255, 255); fill-opacity: 1; stroke-width: 0px;"/><g class="scrollbox" transform="" clip-path="url(#legendfb64c1)"><g class="groups" transform=""><g class="traces" transform="translate(0,14.5)" style="opacity: 1;"><text class="legendtext" text-anchor="start" x="40" y="4.680000000000001" style="font-family: 'Open Sans', verdana, arial, sans-serif; font-size: 12px; fill: rgb(42, 63, 95); fill-opacity: 1; white-space: pre;">Metric</text><g class="layers" style="opacity: 1;"><g class="legendfill"/><g class="legendlines"><path class="js-line" d="M5,0h30" style="fill: none; stroke: rgb(0, 200, 229); stroke-opacity: 1; stroke-width: 2px;"/></g><g class="legendsymbols"><g class="legendpoints"/></g></g><rect class="legendtoggle" x="0" y="-9.5" width="141.484375" height="19" style="fill: rgb(0, 0, 0); fill-opacity: 0;"/></g></g><g class="groups" transform="translate(0,10)"><g class="traces" transform="translate(0,33.5)" style="opacity: 1;"><text class="legendtext" text-anchor="start" x="40" y="4.680000000000001" style="font-family: 'Open Sans', verdana, arial, sans-serif; font-size: 12px; fill: rgb(42, 63, 95); fill-opacity: 1; white-space: pre;">Threshold</text><g class="layers" style="opacity: 1;"><g class="legendfill"/><g class="legendlines"><path class="js-line" d="M5,0h30" style="fill: none; stroke: rgb(221, 64, 64); stroke-opacity: 1; stroke-dasharray: 9px, 9px; stroke-width: 2px;"/></g><g class="legendsymbols"><g class="legendpoints"/></g></g><rect class="legendtoggle" x="0" y="-9.5" width="141.484375" height="19" style="fill: rgb(0, 0, 0); fill-opacity: 0;"/></g></g><g class="groups" transform="translate(0,20)"><g class="traces" transform="translate(0,52.5)" style="opacity: 1;"><text class="legendtext" text-anchor="start" x="40" y="4.680000000000001" style="font-family: 'Open Sans', verdana, arial, sans-serif; font-size: 12px; fill: rgb(42, 63, 95); fill-opacity: 1; white-space: pre;">Confidence band</text><g class="layers"><g class="legendfill"><path class="js-fill" d="M5,-2h30v6h-30z" style="stroke-width: 0; fill: rgb(0, 200, 229); fill-opacity: 0.2;"/></g><g class="legendlines"><path class="js-line" d="M5,-2h30" style="fill: none; stroke: rgb(0, 0, 0); stroke-opacity: 0; stroke-width: 2px;"/></g><g class="legendsymbols"><g class="legendpoints"/></g></g><rect class="legendtoggle" x="0" y="-9.5" width="141.484375" height="19" style="fill: rgb(0, 0, 0); fill-opacity: 0;"/></g></g></g><rect class="scrollbar" rx="20" ry="3" width="0" height="0" x="0" y="0" style="fill: rgb(128, 139, 164); fill-opacity: 1;"/></g><g class="g-gtitle"><text class="gtitle" x="35" y="50" text-anchor="start" dy="0em" style="font-family: 'Open Sans', verdana, arial, sans-serif; font-size: 17px; fill: rgb(42, 63, 95); opacity: 1; font-weight: normal; white-space: pre;">Values Median</text></g><g class="g-xtitle"><text class="xtitle" x="306" y="462.70625" text-anchor="middle" style="font-family: 'Open Sans', verdana, arial, sans-serif; font-size: 14px; fill: rgb(42, 63, 95); opacity: 1; font-weight: normal; white-space: pre;">Chunk</text></g><g class="g-ytitle"><text class="ytitle" transform="rotate(-90,33.215625,260)" x="33.215625" y="260" text-anchor="middle" style="font-family: 'Open Sans', verdana, arial, sans-serif; font-size: 14px; fill: rgb(42, 63, 95); opacity: 1; font-weight: normal; white-space: pre;">Values Median</text></g><g class="annotation" data-index="0" style="opacity: 1;"><g class="annotation-text-g" transform="rotate(0,306,88.49999999999999)"><g class="cursor-pointer" transform="translate(169,77)"><rect class="bg" x="0.5" y="0.5" width="273" height="22" style="stroke-width: 1px; stroke: rgb(0, 0, 0); stroke-opacity: 0; fill: rgb(0, 0, 0); fill-opacity: 0;"/><text class="annotation-text" text-anchor="middle" x="136.875" y="17" style="font-family: 'Open Sans', verdana, arial, sans-serif; font-size: 16px; fill: rgb(42, 63, 95); fill-opacity: 1; white-space: pre;">Values Median for <tspan style="font-weight:bold">driver_tenure</tspan></text></g></g></g><g class="annotation" data-index="1" style="opacity: 1;"><g class="annotation-text-g" transform="rotate(0,200.05,105.8)"><g class="cursor-pointer" transform="translate(168,97)"><rect class="bg" x="0.5" y="0.5" width="63" height="17" style="stroke-width: 1px; stroke: rgb(0, 0, 0); stroke-opacity: 0; fill: rgb(0, 0, 0); fill-opacity: 0;"/><text class="annotation-text" text-anchor="middle" x="32.21875" y="13" style="font-family: 'Open Sans', verdana, arial, sans-serif; font-size: 12px; fill: rgb(42, 63, 95); fill-opacity: 1; white-space: pre;">Reference</text></g></g></g><g class="annotation" data-index="2" style="opacity: 1;"><g class="annotation-text-g" transform="rotate(0,415.87,105.8)"><g class="cursor-pointer" transform="translate(384,97)"><rect class="bg" x="0.5" y="0.5" width="63" height="17" style="stroke-width: 1px; stroke: rgb(0, 0, 0); stroke-opacity: 0; fill: rgb(0, 0, 0); fill-opacity: 0;"/><text class="annotation-text" text-anchor="middle" x="32.1875" y="13" style="font-family: 'Open Sans', verdana, arial, sans-serif; font-size: 12px; fill: rgb(42, 63, 95); fill-opacity: 1; white-space: pre;">Monitored</text></g></g></g></g></svg>