<svg class="main-svg" xmlns="http://www.w3.org/2000/svg" xmlns:xlink="http://www.w3.org/1999/xlink" width="1500" height="500" style="" viewBox="0 0 1500 500"><rect x="0" y="0" width="1500" height="500" style="fill: rgb(255, 255, 255); fill-opacity: 1;"/><defs id="defs-22c907"><g class="clips"><clipPath id="clip22c907xyplot" class="plotclip"><rect width="1091.34" height="320"/></clipPath><clipPath class="axesclip" id="clip22c907x"><rect x="80" y="0" width="1091.34" height="500"/></clipPath><clipPath class="axesclip" id="clip22c907y"><rect x="0" y="100" width="1500" height="320"/></clipPath><clipPath class="axesclip" id="clip22c907xy"><rect x="80" y="100" width="1091.34" height="320"/></clipPath></g><g class="gradients"/><g class="patterns"/></defs><g class="bglayer"/><g class="layer-below"><g class="imagelayer"/><g class="shapelayer"/></g><g class="cartesianlayer"><g class="subplot xy"><g class="layer-subplot"><g class="shapelayer"/><g class="imagelayer"/></g><g class="minor-gridlayer"><g class="x"/><g class="y"/></g><g class="gridlayer"><g class="x"/><g class="y"/></g><g class="zerolinelayer"/><path class="xlines-below"/><path class="ylines-below"/><g class="overlines-below"/><g class="xaxislayer-below"/><g class="yaxislayer-below"/><g class="overaxes-below"/><g class="plot" transform="translate(80,100)" clip-path="url(#clip22c907xyplot)"><g class="scatterlayer mlayer"><g class="trace scatter tracebad25f" style="stroke-miterlimit: 2; opacity: 1;"><g class="fills"/><g class="errorbars"/><g class="lines"><path class="js-line" d="M3.58,121.77H111.81V116.22H220.04V110.86H328.27V116.18H436.51V118.52H544.74V231.13H652.97V222.33H761.2V230.35H869.44V212.47H977.67V230.34H1085.88V230.34" style="vector-effect: none; fill: none; stroke: rgb(59, 2, 128); stroke-opacity: 1; stroke-dasharray: 9px, 9px; stroke-width: 2px; opacity: 1;"/></g><g class="points"/><g class="text"/></g><g class="trace scatter trace38f58c" style="stroke-miterlimit: 2; opacity: 1;"><g class="fills"/><g class="errorbars"/><g class="lines"/><g class="points"><path class="point plotly-customdata" transform="translate(57.69,121.77)" d="M2.5,0A2.5,2.5 0 1,1 0,-2.5A2.5,2.5 0 0,1 2.5,0Z" style="opacity: 1; stroke-width: 0px; fill: rgb(59, 2, 128); fill-opacity: 1;"/><path class="point plotly-customdata" transform="translate(165.92,116.22)" d="M2.5,0A2.5,2.5 0 1,1 0,-2.5A2.5,2.5 0 0,1 2.5,0Z" style="opacity: 1; stroke-width: 0px; fill: rgb(59, 2, 128); fill-opacity: 1;"/><path class="point plotly-customdata" transform="translate(274.16,110.86)" d="M2.5,0A2.5,2.5 0 1,1 0,-2.5A2.5,2.5 0 0,1 2.5,0Z" style="opacity: 1; stroke-width: 0px; fill: rgb(59, 2, 128); fill-opacity: 1;"/><path class="point plotly-customdata" transform="translate(382.39,116.18)" d="M2.5,0A2.5,2.5 0 1,1 0,-2.5A2.5,2.5 0 0,1 2.5,0Z" style="opacity: 1; stroke-width: 0px; fill: rgb(59, 2, 128); fill-opacity: 1;"/><path class="point plotly-customdata" transform="translate(490.62,118.52)" d="M2.5,0A2.5,2.5 0 1,1 0,-2.5A2.5,2.5 0 0,1 2.5,0Z" style="opacity: 1; stroke-width: 0px; fill: rgb(59, 2, 128); fill-opacity: 1;"/><path class="point plotly-customdata" transform="translate(598.85,231.13)" d="M2.5,0A2.5,2.5 0 1,1 0,-2.5A2.5,2.5 0 0,1 2.5,0Z" style="opacity: 1; stroke-width: 0px; fill: rgb(59, 2, 128); fill-opacity: 1;"/><path class="point plotly-customdata" transform="translate(707.09,222.33)" d="M2.5,0A2.5,2.5 0 1,1 0,-2.5A2.5,2.5 0 0,1 2.5,0Z" style="opacity: 1; stroke-width: 0px; fill: rgb(59, 2, 128); fill-opacity: 1;"/><path class="point plotly-customdata" transform="translate(815.32,230.35)" d="M2.5,0A2.5,2.5 0 1,1 0,-2.5A2.5,2.5 0 0,1 2.5,0Z" style="opacity: 1; stroke-width: 0px; fill: rgb(59, 2, 128); fill-opacity: 1;"/><path class="point plotly-customdata" transform="translate(923.55,212.47)" d="M2.5,0A2.5,2.5 0 1,1 0,-2.5A2.5,2.5 0 0,1 2.5,0Z" style="opacity: 1; stroke-width: 0px; fill: rgb(59, 2, 128); fill-opacity: 1;"/><path class="point plotly-customdata" transform="translate(1031.77,230.34)" d="M2.5,0A2.5,2.5 0 1,1 0,-2.5A2.5,2.5 0 0,1 2.5,0Z" style="opacity: 1; stroke-width: 0px; fill: rgb(59, 2, 128); fill-opacity: 1;"/></g><g class="text"/></g><g class="trace scatter trace44c90c" style="stroke-miterlimit: 2;"><g class="fills"><g><path class="js-fill" d="M3.58,194.64H111.81V189.09H220.04V183.73H328.27V189.05H436.51V191.39H544.74V304H652.97V295.21H761.2V303.22H869.44V285.34H977.67V303.21H1085.88V303.21L1085.88,157.47V157.47H977.67V139.6H869.44V157.48H761.2V149.46H652.97V158.26H544.74V45.65H436.51V43.31H328.27V37.99H220.04V43.35H111.81V48.9H3.58Z" style="fill: rgb(59, 2, 128); fill-opacity: 0.2; stroke-width: 0;"/></g></g><g class="errorbars"/><g class="lines"><path class="js-line" d="M3.58,48.9H111.81V43.35H220.04V37.99H328.27V43.31H436.51V45.65H544.74V158.26H652.97V149.46H761.2V157.48H869.44V139.6H977.67V157.47H1085.88V157.47" style="vector-effect: none; fill: none; stroke: rgb(0, 0, 0); stroke-opacity: 0; stroke-width: 2px; opacity: 1;"/></g><g class="points"/><g class="text"/></g><g class="trace scatter traceb0f0c2" style="stroke-miterlimit: 2;"><g class="fills"/><g class="errorbars"/><g class="lines"><path class="js-line" d="M3.58,194.64H111.81V189.09H220.04V183.73H328.27V189.05H436.51V191.39H544.74V304H652.97V295.21H761.2V303.22H869.44V285.34H977.67V303.21H1085.88V303.21" style="vector-effect: none; fill: none; stroke: rgb(0, 0, 0); stroke-opacity: 0; stroke-width: 2px; opacity: 1;"/></g><g class="points"/><g class="text"/></g><g class="trace scatter trace7a198e" style="stroke-miterlimit: 2; opacity: 1;"><g class="fills"/><g class="errorbars"/><g class="lines"><path class="js-line" d="M3.58,90.48H111.81V100.07H220.04V19.13H328.27V133.97H436.51V104.93H544.74V236.87H652.97V257.27H761.2V250.41H869.44V196.04H977.67V270.33H1085.88V270.33" style="vector-effect: none; fill: none; stroke: rgb(0, 200, 229); stroke-opacity: 1; stroke-width: 2px; opacity: 1;"/></g><g class="points"/><g class="text"/></g><g class="trace scatter trace46e53b" style="stroke-miterlimit: 2; opacity: 1;"><g class="fills"/><g class="errorbars"/><g class="lines"/><g class="points"><path class="point plotly-customdata" transform="translate(57.69,90.48)" d="M2.5,0A2.5,2.5 0 1,1 0,-2.5A2.5,2.5 0 0,1 2.5,0Z" style="opacity: 1; stroke-width: 0px; fill: rgb(0, 200, 229); fill-opacity: 1;"/><path class="point plotly-customdata" transform="translate(165.92,100.07)" d="M2.5,0A2.5,2.5 0 1,1 0,-2.5A2.5,2.5 0 0,1 2.5,0Z" style="opacity: 1; stroke-width: 0px; fill: rgb(0, 200, 229); fill-opacity: 1;"/><path class="point plotly-customdata" transform="translate(274.16,19.13)" d="M2.5,0A2.5,2.5 0 1,1 0,-2.5A2.5,2.5 0 0,1 2.5,0Z" style="opacity: 1; stroke-width: 0px; fill: rgb(0, 200, 229); fill-opacity: 1;"/><path class="point plotly-customdata" transform="translate(382.39,133.97)" d="M2.5,0A2.5,2.5 0 1,1 0,-2.5A2.5,2.5 0 0,1 2.5,0Z" style="opacity: 1; stroke-width: 0px; fill: rgb(0, 200, 229); fill-opacity: 1;"/><path class="point plotly-customdata" transform="translate(490.62,104.93)" d="M2.5,0A2.5,2.5 0 1,1 0,-2.5A2.5,2.5 0 0,1 2.5,0Z" style="opacity: 1; stroke-width: 0px; fill: rgb(0, 200, 229); fill-opacity: 1;"/><path class="point plotly-customdata" transform="translate(598.85,236.87)" d="M2.5,0A2.5,2.5 0 1,1 0,-2.5A2.5,2.5 0 0,1 2.5,0Z" style="opacity: 1; stroke-width: 0px; fill: rgb(0, 200, 229); fill-opacity: 1;"/><path class="point plotly-customdata" transform="translate(707.09,257.27)" d="M2.5,0A2.5,2.5 0 1,1 0,-2.5A2.5,2.5 0 0,1 2.5,0Z" style="opacity: 1; stroke-width: 0px; fill: rgb(0, 200, 229); fill-opacity: 1;"/><path class="point plotly-customdata" transform="translate(815.32,250.41)" d="M2.5,0A2.5,2.5 0 1,1 0,-2.5A2.5,2.5 0 0,1 2.5,0Z" style="opacity: 1; stroke-width: 0px; fill: rgb(0, 200, 229); fill-opacity: 1;"/><path class="point plotly-customdata" transform="translate(923.55,196.04)" d="M2.5,0A2.5,2.5 0 1,1 0,-2.5A2.5,2.5 0 0,1 2.5,0Z" style="opacity: 1; stroke-width: 0px; fill: rgb(0, 200, 229); fill-opacity: 1;"/><path class="point plotly-customdata" transform="translate(1031.77,270.33)" d="M2.5,0A2.5,2.5 0 1,1 0,-2.5A2.5,2.5 0 0,1 2.5,0Z" style="opacity: 1; stroke-width: 0px; fill: rgb(0, 200, 229); fill-opacity: 1;"/></g><g class="text"/></g><g class="trace scatter trace44dad7" style="stroke-miterlimit: 2; opacity: 1;"><g class="fills"/><g class="errorbars"/><g class="lines"/><g class="points"><path class="point" transform="translate(598.85,231.13)" d="M5.2,0L0,5.2L-5.2,0L0,-5.2Z" style="opacity: 1; stroke-width: 0px; fill: rgb(221, 64, 64); fill-opacity: 1;"/><path class="point" transform="translate(707.09,222.33)" d="M5.2,0L0,5.2L-5.2,0L0,-5.2Z" style="opacity: 1; stroke-width: 0px; fill: rgb(221, 64, 64); fill-opacity: 1;"/><path class="point" transform="translate(815.32,230.35)" d="M5.2,0L0,5.2L-5.2,0L0,-5.2Z" style="opacity: 1; stroke-width: 0px; fill: rgb(221, 64, 64); fill-opacity: 1;"/><path class="point" transform="translate(923.55,212.47)" d="M5.2,0L0,5.2L-5.2,0L0,-5.2Z" style="opacity: 1; stroke-width: 0px; fill: rgb(221, 64, 64); fill-opacity: 1;"/><path class="point" transform="translate(1031.77,230.34)" d="M5.2,0L0,5.2L-5.2,0L0,-5.2Z" style="opacity: 1; stroke-width: 0px; fill: rgb(221, 64, 64); fill-opacity: 1;"/></g><g class="text"/></g><g class="trace scatter traced2cbde" style="stroke-miterlimit: 2; opacity: 1;"><g class="fills"/><g class="errorbars"/><g class="lines"/><g class="points"><path class="point" transform="translate(598.85,236.87)" d="M5.2,0L0,5.2L-5.2,0L0,-5.2Z" style="opacity: 1; stroke-width: 0px; fill: rgb(221, 64, 64); fill-opacity: 1;"/><path class="point" transform="translate(707.09,257.27)" d="M5.2,0L0,5.2L-5.2,0L0,-5.2Z" style="opacity: 1; stroke-width: 0px; fill: rgb(221, 64, 64); fill-opacity: 1;"/><path class="point" transform="translate(815.32,250.41)" d="M5.2,0L0,5.2L-5.2,0L0,-5.2Z" style="opacity: 1; stroke-width: 0px; fill: rgb(221, 64, 64); fill-opacity: 1;"/><path class="point" transform="translate(923.55,196.04)" d="M5.2,0L0,5.2L-5.2,0L0,-5.2Z" style="opacity: 1; stroke-width: 0px; fill: rgb(221, 64, 64); fill-opacity: 1;"/><path class="point" transform="translate(1031.77,270.33)" d="M5.2,0L0,5.2L-5.2,0L0,-5.2Z" style="opacity: 1; stroke-width: 0px; fill: rgb(221, 64, 64); fill-opacity: 1;"/></g><g class="text"/></g></g></g><g class="overplot"/><path class="xlines-above crisp" d="M79,420.5H1172.34M79,99.5H1172.34" style="fill: none; stroke-width: 1px; stroke: rgb(59, 2, 128); stroke-opacity: 1;"/><path class="ylines-above crisp" d="M79.5,100V420M1171.84,100V420" style="fill: none; stroke-width: 1px; stroke: rgb(59, 2, 128); stroke-opacity: 1;"/><g class="overlines-above"/><g class="xaxislayer-above"><g class="xtick"><text text-anchor="middle" x="0" y="435.4" transform="translate(88.03999999999999,0)" style="font-family: 'Open Sans', verdana, arial, sans-serif; font-size: 12px; fill: rgb(42, 63, 95); fill-opacity: 1; white-space: pre; opacity: 1;">Nov 2018</text></g><g class="xtick"><text text-anchor="middle" x="0" y="435.4" style="font-family: 'Open Sans', verdana, arial, sans-serif; font-size: 12px; fill: rgb(42, 63, 95); fill-opacity: 1; white-space: pre; opacity: 1;" transform="translate(306.12,0)">Jan 2019</text></g><g class="xtick"><text text-anchor="middle" x="0" y="435.4" style="font-family: 'Open Sans', verdana, arial, sans-serif; font-size: 12px; fill: rgb(42, 63, 95); fill-opacity: 1; white-space: pre; opacity: 1;" transform="translate(517.04,0)">Mar 2019</text></g><g class="xtick"><text text-anchor="middle" x="0" y="435.4" style="font-family: 'Open Sans', verdana, arial, sans-serif; font-size: 12px; fill: rgb(42, 63, 95); fill-opacity: 1; white-space: pre; opacity: 1;" transform="translate(735.12,0)">May 2019</text></g><g class="xtick"><text text-anchor="middle" x="0" y="435.4" style="font-family: 'Open Sans', verdana, arial, sans-serif; font-size: 12px; fill: rgb(42, 63, 95); fill-opacity: 1; white-space: pre; opacity: 1;" transform="translate(953.19,0)">Jul 2019</text></g></g><g class="yaxislayer-above"><g class="ytick"><text text-anchor="end" x="76.6" y="4.199999999999999" transform="translate(0,404.62)" style="font-family: 'Open Sans', verdana, arial, sans-serif; font-size: 12px; fill: rgb(42, 63, 95); fill-opacity: 1; white-space: pre; opacity: 1;">0.955</text></g><g class="ytick"><text text-anchor="end" x="76.6" y="4.199999999999999" style="font-family: 'Open Sans', verdana, arial, sans-serif; font-size: 12px; fill: rgb(42, 63, 95); fill-opacity: 1; white-space: pre; opacity: 1;" transform="translate(0,337.53999999999996)">0.96</text></g><g class="ytick"><text text-anchor="end" x="76.6" y="4.199999999999999" style="font-family: 'Open Sans', verdana, arial, sans-serif; font-size: 12px; fill: rgb(42, 63, 95); fill-opacity: 1; white-space: pre; opacity: 1;" transform="translate(0,270.47)">0.965</text></g><g class="ytick"><text text-anchor="end" x="76.6" y="4.199999999999999" style="font-family: 'Open Sans', verdana, arial, sans-serif; font-size: 12px; fill: rgb(42, 63, 95); fill-opacity: 1; white-space: pre; opacity: 1;" transform="translate(0,203.4)">0.97</text></g><g class="ytick"><text text-anchor="end" x="76.6" y="4.199999999999999" style="font-family: 'Open Sans', verdana, arial, sans-serif; font-size: 12px; fill: rgb(42, 63, 95); fill-opacity: 1; white-space: pre; opacity: 1;" transform="translate(0,136.32)">0.975</text></g></g><g class="overaxes-above"/></g></g><g class="polarlayer"/><g class="smithlayer"/><g class="ternarylayer"/><g class="geolayer"/><g class="funnelarealayer"/><g class="pielayer"/><g class="iciclelayer"/><g class="treemaplayer"/><g class="sunburstlayer"/><g class="glimages"/><defs id="topdefs-22c907"><g class="clips"/><clipPath id="legend22c907"><rect width="224" height="116" x="0" y="0"/></clipPath></defs><g class="layer-above"><g class="imagelayer"/><g class="shapelayer"/></g><g class="infolayer"><g class="legend" pointer-events="all" transform="translate(1264.22,100)"><rect class="bg" shape-rendering="crispEdges" style="stroke: rgb(68, 68, 68); stroke-opacity: 1; fill: rgb(255, 255, 255); fill-opacity: 1; stroke-width: 0px;" width="224" height="116" x="0" y="0"/><g class="scrollbox" transform="" clip-path="url(#legend22c907)"><g class="groups" transform=""><g class="traces" transform="translate(0,14.5)" style="opacity: 1;"><text class="legendtext" text-anchor="start" x="40" y="4.680000000000001" style="font-family: 'Open Sans', verdana, arial, sans-serif; font-size: 12px; fill: rgb(42, 63, 95); fill-opacity: 1; white-space: pre;"><tspan style="font-weight:bold">ROC AUC</tspan> (estimated ROC AUC)</text><g class="layers" style="opacity: 1;"><g class="legendfill"/><g class="legendlines"><path class="js-line" d="M5,0h30" style="fill: none; stroke: rgb(59, 2, 128); stroke-opacity: 1; stroke-dasharray: 9px, 9px; stroke-width: 2px;"/></g><g class="legendsymbols"><g class="legendpoints"/></g></g><rect class="legendtoggle" x="0" y="-9.5" width="218.03125" height="19" style="fill: rgb(0, 0, 0); fill-opacity: 0;"/></g></g><g class="groups" transform="translate(0,10)"><g class="traces" transform="translate(0,33.5)" style="opacity: 1;"><text class="legendtext" text-anchor="start" x="40" y="4.680000000000001" style="font-family: 'Open Sans', verdana, arial, sans-serif; font-size: 12px; fill: rgb(42, 63, 95); fill-opacity: 1; white-space: pre;">Confidence band</text><g class="layers"><g class="legendfill"><path class="js-fill" d="M5,-2h30v6h-30z" style="stroke-width: 0; fill: rgb(59, 2, 128); fill-opacity: 0.2;"/></g><g class="legendlines"><path class="js-line" d="M5,-2h30" style="fill: none; stroke: rgb(0, 0, 0); stroke-opacity: 0; stroke-width: 2px;"/></g><g class="legendsymbols"><g class="legendpoints"/></g></g><rect class="legendtoggle" x="0" y="-9.5" width="218.03125" height="19" style="fill: rgb(0, 0, 0); fill-opacity: 0;"/></g></g><g class="groups" transform="translate(0,20)"><g class="traces" transform="translate(0,52.5)" style="opacity: 1;"><text class="legendtext" text-anchor="start" x="40" y="4.680000000000001" style="font-family: 'Open Sans', verdana, arial, sans-serif; font-size: 12px; fill: rgb(42, 63, 95); fill-opacity: 1; white-space: pre;"><tspan style="font-weight:bold">ROC AUC</tspan> (realized ROC AUC)</text><g class="layers" style="opacity: 1;"><g class="legendfill"/><g class="legendlines"><path class="js-line" d="M5,0h30" style="fill: none; stroke: rgb(0, 200, 229); stroke-opacity: 1; stroke-width: 2px;"/></g><g class="legendsymbols"><g class="legendpoints"/></g></g><rect class="legendtoggle" x="0" y="-9.5" width="218.03125" height="19" style="fill: rgb(0, 0, 0); fill-opacity: 0;"/></g></g><g class="groups" transform="translate(0,30)"><g class="traces" transform="translate(0,71.5)" style="opacity: 1;"><text class="legendtext" text-anchor="start" x="40" y="4.680000000000001" style="font-family: 'Open Sans', verdana, arial, sans-serif; font-size: 12px; fill: rgb(42, 63, 95); fill-opacity: 1; white-space: pre;">Alert</text><g class="layers" style="opacity: 1;"><g class="legendfill"/><g class="legendlines"/><g class="legendsymbols"><g class="legendpoints"><path class="scatterpts" transform="translate(20,0)" d="M5.2,0L0,5.2L-5.2,0L0,-5.2Z" style="opacity: 1; stroke-width: 0px; fill: rgb(221, 64, 64); fill-opacity: 1;"/></g></g></g><rect class="legendtoggle" x="0" y="-9.5" width="218.03125" height="19" style="fill: rgb(0, 0, 0); fill-opacity: 0;"/></g></g></g><rect class="scrollbar" rx="20" ry="3" width="0" height="0" style="fill: rgb(128, 139, 164); fill-opacity: 1;" x="0" y="0"/></g><g class="g-gtitle"><text class="gtitle" x="75" y="50" text-anchor="start" dy="0em" style="font-family: 'Open Sans', verdana, arial, sans-serif; font-size: 17px; fill: rgb(42, 63, 95); opacity: 1; font-weight: normal; white-space: pre;"><tspan style="font-weight:bold">Estimated performance (CBPE)</tspan> vs. <tspan style="font-weight:bold">Realized performance</tspan></text></g><g class="g-xtitle"><text class="xtitle" x="625.67" y="462.70625" text-anchor="middle" style="font-family: 'Open Sans', verdana, arial, sans-serif; font-size: 14px; fill: rgb(42, 63, 95); opacity: 1; font-weight: normal; white-space: pre;">Chunk</text></g><g class="g-ytitle"><text class="ytitle" transform="rotate(-90,22.262500000000003,260)" x="22.262500000000003" y="260" text-anchor="middle" style="font-family: 'Open Sans', verdana, arial, sans-serif; font-size: 14px; fill: rgb(42, 63, 95); opacity: 1; font-weight: normal; white-space: pre;"><tspan style="font-weight:bold">ROC AUC</tspan></text></g><g class="annotation" data-index="0" style="opacity: 1;"><g class="annotation-text-g" transform="rotate(0,625.67,89.49999999999999)"><g class="cursor-pointer" transform="translate(378,79)"><rect class="bg" x="0.5" y="0.5" width="494" height="20" style="stroke-width: 1px; stroke: rgb(0, 0, 0); stroke-opacity: 0; fill: rgb(0, 0, 0); fill-opacity: 0;"/><text class="annotation-text" text-anchor="middle" x="247.359375" y="16" style="font-family: 'Open Sans', verdana, arial, sans-serif; font-size: 16px; fill: rgb(42, 63, 95); fill-opacity: 1; white-space: pre;"><tspan style="font-weight:bold">ROC AUC</tspan> (estimated ROC AUC) vs. <tspan style="font-weight:bold">ROC AUC</tspan> (realized ROC AUC)</text></g></g></g></g></svg>