<?xml version="1.0" encoding="utf-8" standalone="no"?>
<!DOCTYPE svg PUBLIC "-//W3C//DTD SVG 1.1//EN"
  "http://www.w3.org/Graphics/SVG/1.1/DTD/svg11.dtd">
<svg xmlns:xlink="http://www.w3.org/1999/xlink" width="1440pt" height="360pt" viewBox="0 0 1440 360" xmlns="http://www.w3.org/2000/svg" version="1.1">
 <metadata>
  <rdf:RDF xmlns:dc="http://purl.org/dc/elements/1.1/" xmlns:cc="http://creativecommons.org/ns#" xmlns:rdf="http://www.w3.org/1999/02/22-rdf-syntax-ns#">
   <cc:Work>
    <dc:type rdf:resource="http://purl.org/dc/dcmitype/StillImage"/>
    <dc:date>2022-11-30T17:33:50.945301</dc:date>
    <dc:format>image/svg+xml</dc:format>
    <dc:creator>
     <cc:Agent>
      <dc:title>Matplotlib v3.6.2, https://matplotlib.org/</dc:title>
     </cc:Agent>
    </dc:creator>
   </cc:Work>
  </rdf:RDF>
 </metadata>
 <defs>
  <style type="text/css">*{stroke-linejoin: round; stroke-linecap: butt}</style>
 </defs>
 <g id="figure_1">
  <g id="patch_1">
   <path d="M 0 360 
L 1440 360 
L 1440 0 
L 0 0 
z
" style="fill: #ffffff"/>
  </g>
  <g id="axes_1">
   <g id="patch_2">
    <path d="M 51.32 318.04 
L 353.1825 318.04 
L 353.1825 25.6875 
L 51.32 25.6875 
z
" style="fill: #ffffff"/>
   </g>
   <g id="PolyCollection_1">
    <defs>
     <path id="m8badd23e5d" d="M 65.041023 -104.718949 
L 65.041023 -55.24875 
L 69.855417 -62.815751 
L 74.669811 -88.015802 
L 79.484205 -96.324031 
L 84.298598 -103.48089 
L 89.112992 -120.583764 
L 93.927386 -137.550039 
L 98.74178 -140.424803 
L 103.556174 -155.364701 
L 108.370568 -149.55444 
L 113.184962 -174.614759 
L 117.999356 -168.058142 
L 122.81375 -174.591231 
L 127.628144 -178.327081 
L 132.442538 -190.744245 
L 137.256932 -192.063012 
L 142.071326 -198.020687 
L 146.88572 -188.673871 
L 151.700114 -193.642201 
L 156.514508 -195.825542 
L 161.328902 -203.767029 
L 166.143295 -195.809199 
L 170.957689 -208.894954 
L 175.772083 -205.408353 
L 180.586477 -204.874726 
L 185.400871 -223.365403 
L 190.215265 -209.84708 
L 195.029659 -224.545951 
L 199.844053 -216.084303 
L 204.658447 -209.437877 
L 209.472841 -232.571027 
L 214.287235 -216.993708 
L 219.101629 -230.130888 
L 223.916023 -231.097726 
L 228.730417 -227.281522 
L 233.544811 -227.183179 
L 238.359205 -240.413638 
L 243.173598 -225.102325 
L 247.987992 -248.559266 
L 252.802386 -231.828965 
L 257.61678 -239.610858 
L 262.431174 -234.067473 
L 267.245568 -253.90539 
L 272.059962 -233.036676 
L 276.874356 -249.227113 
L 281.68875 -240.964815 
L 286.503144 -246.903168 
L 291.317538 -255.310134 
L 296.131932 -245.090098 
L 300.946326 -252.966151 
L 305.76072 -250.86906 
L 310.575114 -257.483233 
L 315.389508 -256.982396 
L 320.203902 -251.595133 
L 325.018295 -254.480281 
L 329.832689 -261.119784 
L 334.647083 -266.058068 
L 339.461477 -265.640838 
L 339.461477 -312.7546 
L 339.461477 -312.7546 
L 334.647083 -321.02375 
L 329.832689 -306.355345 
L 325.018295 -311.057916 
L 320.203902 -308.666685 
L 315.389508 -309.539091 
L 310.575114 -315.085366 
L 305.76072 -307.619941 
L 300.946326 -305.543106 
L 296.131932 -301.106664 
L 291.317538 -303.645397 
L 286.503144 -303.869869 
L 281.68875 -292.461597 
L 276.874356 -301.534534 
L 272.059962 -291.865827 
L 267.245568 -305.499956 
L 262.431174 -289.421154 
L 257.61678 -302.826064 
L 252.802386 -287.920526 
L 247.987992 -292.275983 
L 243.173598 -275.106901 
L 238.359205 -284.093834 
L 233.544811 -286.368497 
L 228.730417 -273.097354 
L 223.916023 -288.365735 
L 219.101629 -281.738677 
L 214.287235 -269.971453 
L 209.472841 -279.676003 
L 204.658447 -264.203598 
L 199.844053 -269.585953 
L 195.029659 -273.569172 
L 190.215265 -265.250786 
L 185.400871 -276.905519 
L 180.586477 -254.480138 
L 175.772083 -258.622594 
L 170.957689 -247.627873 
L 166.143295 -244.398667 
L 161.328902 -247.852176 
L 156.514508 -235.147639 
L 151.700114 -257.993778 
L 146.88572 -231.712783 
L 142.071326 -246.378009 
L 137.256932 -238.493345 
L 132.442538 -233.809495 
L 127.628144 -221.92242 
L 122.81375 -222.075857 
L 117.999356 -220.1281 
L 113.184962 -219.94871 
L 108.370568 -203.98918 
L 103.556174 -204.865669 
L 98.74178 -183.995995 
L 93.927386 -193.093408 
L 89.112992 -194.642724 
L 84.298598 -161.978575 
L 79.484205 -149.129267 
L 74.669811 -146.280621 
L 69.855417 -117.511184 
L 65.041023 -104.718949 
z
" style="stroke: #f8dcdc; stroke-opacity: 0.5"/>
    </defs>
    <g clip-path="url(#p554dc7ee1c)">
     <use xlink:href="#m8badd23e5d" x="0" y="360" style="fill: #f8dcdc; fill-opacity: 0.5; stroke: #f8dcdc; stroke-opacity: 0.5"/>
    </g>
   </g>
   <g id="matplotlib.axis_1">
    <g id="xtick_1">
     <g id="line2d_1">
      <defs>
       <path id="m4f9812a869" d="M 0 0 
L 0 3.5 
" style="stroke: #000000; stroke-width: 0.8"/>
      </defs>
      <g>
       <use xlink:href="#m4f9812a869" x="55.412235" y="318.04" style="stroke: #000000; stroke-width: 0.8"/>
      </g>
     </g>
     <g id="text_1">
      <!-- 0 -->
      <g transform="translate(52.631766 332.213437) scale(0.1 -0.1)">
       <defs>
        <path id="Helvetica-30" d="M 1731 4475 
Q 2600 4475 2988 3759 
Q 3288 3206 3288 2244 
Q 3288 1331 3016 734 
Q 2622 -122 1728 -122 
Q 922 -122 528 578 
Q 200 1163 200 2147 
Q 200 2909 397 3456 
Q 766 4475 1731 4475 
z
M 1725 391 
Q 2163 391 2422 778 
Q 2681 1166 2681 2222 
Q 2681 2984 2493 3476 
Q 2306 3969 1766 3969 
Q 1269 3969 1039 3501 
Q 809 3034 809 2125 
Q 809 1441 956 1025 
Q 1181 391 1725 391 
z
" transform="scale(0.015625)"/>
       </defs>
       <use xlink:href="#Helvetica-30"/>
      </g>
     </g>
    </g>
    <g id="xtick_2">
     <g id="line2d_2">
      <g>
       <use xlink:href="#m4f9812a869" x="103.556174" y="318.04" style="stroke: #000000; stroke-width: 0.8"/>
      </g>
     </g>
     <g id="text_2">
      <!-- 10 -->
      <g transform="translate(97.995237 332.213437) scale(0.1 -0.1)">
       <defs>
        <path id="Helvetica-31" d="M 613 3169 
L 613 3600 
Q 1222 3659 1462 3798 
Q 1703 3938 1822 4456 
L 2266 4456 
L 2266 0 
L 1666 0 
L 1666 3169 
L 613 3169 
z
" transform="scale(0.015625)"/>
       </defs>
       <use xlink:href="#Helvetica-31"/>
       <use xlink:href="#Helvetica-30" x="55.615234"/>
      </g>
     </g>
    </g>
    <g id="xtick_3">
     <g id="line2d_3">
      <g>
       <use xlink:href="#m4f9812a869" x="151.700114" y="318.04" style="stroke: #000000; stroke-width: 0.8"/>
      </g>
     </g>
     <g id="text_3">
      <!-- 20 -->
      <g transform="translate(146.139176 332.213437) scale(0.1 -0.1)">
       <defs>
        <path id="Helvetica-32" d="M 200 0 
Q 231 578 439 1006 
Q 647 1434 1250 1784 
L 1850 2131 
Q 2253 2366 2416 2531 
Q 2672 2791 2672 3125 
Q 2672 3516 2437 3745 
Q 2203 3975 1813 3975 
Q 1234 3975 1013 3538 
Q 894 3303 881 2888 
L 309 2888 
Q 319 3472 525 3841 
Q 891 4491 1816 4491 
Q 2584 4491 2939 4075 
Q 3294 3659 3294 3150 
Q 3294 2613 2916 2231 
Q 2697 2009 2131 1694 
L 1703 1456 
Q 1397 1288 1222 1134 
Q 909 863 828 531 
L 3272 531 
L 3272 0 
L 200 0 
z
" transform="scale(0.015625)"/>
       </defs>
       <use xlink:href="#Helvetica-32"/>
       <use xlink:href="#Helvetica-30" x="55.615234"/>
      </g>
     </g>
    </g>
    <g id="xtick_4">
     <g id="line2d_4">
      <g>
       <use xlink:href="#m4f9812a869" x="199.844053" y="318.04" style="stroke: #000000; stroke-width: 0.8"/>
      </g>
     </g>
     <g id="text_4">
      <!-- 30 -->
      <g transform="translate(194.283116 332.213437) scale(0.1 -0.1)">
       <defs>
        <path id="Helvetica-33" d="M 1663 -122 
Q 869 -122 511 314 
Q 153 750 153 1375 
L 741 1375 
Q 778 941 903 744 
Q 1122 391 1694 391 
Q 2138 391 2406 628 
Q 2675 866 2675 1241 
Q 2675 1703 2392 1887 
Q 2109 2072 1606 2072 
Q 1550 2072 1492 2070 
Q 1434 2069 1375 2066 
L 1375 2563 
Q 1463 2553 1522 2550 
Q 1581 2547 1650 2547 
Q 1966 2547 2169 2647 
Q 2525 2822 2525 3272 
Q 2525 3606 2287 3787 
Q 2050 3969 1734 3969 
Q 1172 3969 956 3594 
Q 838 3388 822 3006 
L 266 3006 
Q 266 3506 466 3856 
Q 809 4481 1675 4481 
Q 2359 4481 2734 4176 
Q 3109 3872 3109 3294 
Q 3109 2881 2888 2625 
Q 2750 2466 2531 2375 
Q 2884 2278 3082 2001 
Q 3281 1725 3281 1325 
Q 3281 684 2859 281 
Q 2438 -122 1663 -122 
z
" transform="scale(0.015625)"/>
       </defs>
       <use xlink:href="#Helvetica-33"/>
       <use xlink:href="#Helvetica-30" x="55.615234"/>
      </g>
     </g>
    </g>
    <g id="xtick_5">
     <g id="line2d_5">
      <g>
       <use xlink:href="#m4f9812a869" x="247.987992" y="318.04" style="stroke: #000000; stroke-width: 0.8"/>
      </g>
     </g>
     <g id="text_5">
      <!-- 40 -->
      <g transform="translate(242.427055 332.213437) scale(0.1 -0.1)">
       <defs>
        <path id="Helvetica-34" d="M 2116 1584 
L 2116 3613 
L 681 1584 
L 2116 1584 
z
M 2125 0 
L 2125 1094 
L 163 1094 
L 163 1644 
L 2213 4488 
L 2688 4488 
L 2688 1584 
L 3347 1584 
L 3347 1094 
L 2688 1094 
L 2688 0 
L 2125 0 
z
" transform="scale(0.015625)"/>
       </defs>
       <use xlink:href="#Helvetica-34"/>
       <use xlink:href="#Helvetica-30" x="55.615234"/>
      </g>
     </g>
    </g>
    <g id="xtick_6">
     <g id="line2d_6">
      <g>
       <use xlink:href="#m4f9812a869" x="296.131932" y="318.04" style="stroke: #000000; stroke-width: 0.8"/>
      </g>
     </g>
     <g id="text_6">
      <!-- 50 -->
      <g transform="translate(290.570994 332.213437) scale(0.1 -0.1)">
       <defs>
        <path id="Helvetica-35" d="M 791 1141 
Q 847 659 1238 475 
Q 1438 381 1700 381 
Q 2200 381 2440 700 
Q 2681 1019 2681 1406 
Q 2681 1875 2395 2131 
Q 2109 2388 1709 2388 
Q 1419 2388 1211 2275 
Q 1003 2163 856 1963 
L 369 1991 
L 709 4400 
L 3034 4400 
L 3034 3856 
L 1131 3856 
L 941 2613 
Q 1097 2731 1238 2791 
Q 1488 2894 1816 2894 
Q 2431 2894 2859 2497 
Q 3288 2100 3288 1491 
Q 3288 856 2895 371 
Q 2503 -113 1644 -113 
Q 1097 -113 676 195 
Q 256 503 206 1141 
L 791 1141 
z
" transform="scale(0.015625)"/>
       </defs>
       <use xlink:href="#Helvetica-35"/>
       <use xlink:href="#Helvetica-30" x="55.615234"/>
      </g>
     </g>
    </g>
    <g id="xtick_7">
     <g id="line2d_7">
      <g>
       <use xlink:href="#m4f9812a869" x="344.275871" y="318.04" style="stroke: #000000; stroke-width: 0.8"/>
      </g>
     </g>
     <g id="text_7">
      <!-- 60 -->
      <g transform="translate(338.714934 332.213437) scale(0.1 -0.1)">
       <defs>
        <path id="Helvetica-36" d="M 1872 4494 
Q 2622 4494 2917 4105 
Q 3213 3716 3213 3303 
L 2656 3303 
Q 2606 3569 2497 3719 
Q 2294 4000 1881 4000 
Q 1409 4000 1131 3564 
Q 853 3128 822 2316 
Q 1016 2600 1309 2741 
Q 1578 2866 1909 2866 
Q 2472 2866 2890 2506 
Q 3309 2147 3309 1434 
Q 3309 825 2912 354 
Q 2516 -116 1781 -116 
Q 1153 -116 697 361 
Q 241 838 241 1966 
Q 241 2800 444 3381 
Q 834 4494 1872 4494 
z
M 1831 384 
Q 2275 384 2495 682 
Q 2716 981 2716 1388 
Q 2716 1731 2519 2042 
Q 2322 2353 1803 2353 
Q 1441 2353 1167 2112 
Q 894 1872 894 1388 
Q 894 963 1142 673 
Q 1391 384 1831 384 
z
" transform="scale(0.015625)"/>
       </defs>
       <use xlink:href="#Helvetica-36"/>
       <use xlink:href="#Helvetica-30" x="55.615234"/>
      </g>
     </g>
    </g>
    <g id="text_8">
     <!-- Number of Categories -->
     <g transform="translate(153.343437 345.666562) scale(0.1 -0.1)">
      <defs>
       <path id="Helvetica-4e" d="M 488 4591 
L 1222 4591 
L 3541 872 
L 3541 4591 
L 4131 4591 
L 4131 0 
L 3434 0 
L 1081 3716 
L 1081 0 
L 488 0 
L 488 4591 
z
M 2269 4591 
L 2269 4591 
z
" transform="scale(0.015625)"/>
       <path id="Helvetica-75" d="M 975 3347 
L 975 1125 
Q 975 869 1056 706 
Q 1206 406 1616 406 
Q 2203 406 2416 931 
Q 2531 1213 2531 1703 
L 2531 3347 
L 3094 3347 
L 3094 0 
L 2563 0 
L 2569 494 
Q 2459 303 2297 172 
Q 1975 -91 1516 -91 
Q 800 -91 541 388 
Q 400 644 400 1072 
L 400 3347 
L 975 3347 
z
M 1747 3428 
L 1747 3428 
z
" transform="scale(0.015625)"/>
       <path id="Helvetica-6d" d="M 413 3347 
L 969 3347 
L 969 2872 
Q 1169 3119 1331 3231 
Q 1609 3422 1963 3422 
Q 2363 3422 2606 3225 
Q 2744 3113 2856 2894 
Q 3044 3163 3297 3292 
Q 3550 3422 3866 3422 
Q 4541 3422 4784 2934 
Q 4916 2672 4916 2228 
L 4916 0 
L 4331 0 
L 4331 2325 
Q 4331 2659 4164 2784 
Q 3997 2909 3756 2909 
Q 3425 2909 3186 2687 
Q 2947 2466 2947 1947 
L 2947 0 
L 2375 0 
L 2375 2184 
Q 2375 2525 2294 2681 
Q 2166 2916 1816 2916 
Q 1497 2916 1236 2669 
Q 975 2422 975 1775 
L 975 0 
L 413 0 
L 413 3347 
z
" transform="scale(0.015625)"/>
       <path id="Helvetica-62" d="M 369 4606 
L 916 4606 
L 916 2941 
Q 1100 3181 1356 3307 
Q 1613 3434 1913 3434 
Q 2538 3434 2927 3004 
Q 3316 2575 3316 1738 
Q 3316 944 2931 419 
Q 2547 -106 1866 -106 
Q 1484 -106 1222 78 
Q 1066 188 888 428 
L 888 0 
L 369 0 
L 369 4606 
z
M 1831 391 
Q 2288 391 2514 753 
Q 2741 1116 2741 1709 
Q 2741 2238 2514 2584 
Q 2288 2931 1847 2931 
Q 1463 2931 1173 2647 
Q 884 2363 884 1709 
Q 884 1238 1003 944 
Q 1225 391 1831 391 
z
" transform="scale(0.015625)"/>
       <path id="Helvetica-65" d="M 1806 3422 
Q 2163 3422 2497 3255 
Q 2831 3088 3006 2822 
Q 3175 2569 3231 2231 
Q 3281 2000 3281 1494 
L 828 1494 
Q 844 984 1069 676 
Q 1294 369 1766 369 
Q 2206 369 2469 659 
Q 2619 828 2681 1050 
L 3234 1050 
Q 3213 866 3089 639 
Q 2966 413 2813 269 
Q 2556 19 2178 -69 
Q 1975 -119 1719 -119 
Q 1094 -119 659 336 
Q 225 791 225 1609 
Q 225 2416 662 2919 
Q 1100 3422 1806 3422 
z
M 2703 1941 
Q 2669 2306 2544 2525 
Q 2313 2931 1772 2931 
Q 1384 2931 1121 2651 
Q 859 2372 844 1941 
L 2703 1941 
z
M 1753 3428 
L 1753 3428 
z
" transform="scale(0.015625)"/>
       <path id="Helvetica-72" d="M 428 3347 
L 963 3347 
L 963 2769 
Q 1028 2938 1284 3180 
Q 1541 3422 1875 3422 
Q 1891 3422 1928 3419 
Q 1966 3416 2056 3406 
L 2056 2813 
Q 2006 2822 1964 2825 
Q 1922 2828 1872 2828 
Q 1447 2828 1219 2554 
Q 991 2281 991 1925 
L 991 0 
L 428 0 
L 428 3347 
z
" transform="scale(0.015625)"/>
       <path id="Helvetica-20" transform="scale(0.015625)"/>
       <path id="Helvetica-6f" d="M 1741 363 
Q 2300 363 2508 786 
Q 2716 1209 2716 1728 
Q 2716 2197 2566 2491 
Q 2328 2953 1747 2953 
Q 1231 2953 997 2559 
Q 763 2166 763 1609 
Q 763 1075 997 719 
Q 1231 363 1741 363 
z
M 1763 3444 
Q 2409 3444 2856 3012 
Q 3303 2581 3303 1744 
Q 3303 934 2909 406 
Q 2516 -122 1688 -122 
Q 997 -122 590 345 
Q 184 813 184 1600 
Q 184 2444 612 2944 
Q 1041 3444 1763 3444 
z
M 1744 3428 
L 1744 3428 
z
" transform="scale(0.015625)"/>
       <path id="Helvetica-66" d="M 553 3856 
Q 566 4206 675 4369 
Q 872 4656 1434 4656 
Q 1488 4656 1544 4653 
Q 1600 4650 1672 4644 
L 1672 4131 
Q 1584 4138 1545 4139 
Q 1506 4141 1472 4141 
Q 1216 4141 1166 4008 
Q 1116 3875 1116 3331 
L 1672 3331 
L 1672 2888 
L 1109 2888 
L 1109 0 
L 553 0 
L 553 2888 
L 88 2888 
L 88 3331 
L 553 3331 
L 553 3856 
z
" transform="scale(0.015625)"/>
       <path id="Helvetica-43" d="M 2422 4716 
Q 3294 4716 3775 4256 
Q 4256 3797 4309 3213 
L 3703 3213 
Q 3600 3656 3292 3915 
Q 2984 4175 2428 4175 
Q 1750 4175 1333 3698 
Q 916 3222 916 2238 
Q 916 1431 1292 929 
Q 1669 428 2416 428 
Q 3103 428 3463 956 
Q 3653 1234 3747 1688 
L 4353 1688 
Q 4272 963 3816 472 
Q 3269 -119 2341 -119 
Q 1541 -119 997 366 
Q 281 1006 281 2344 
Q 281 3359 819 4009 
Q 1400 4716 2422 4716 
z
M 2297 4716 
L 2297 4716 
z
" transform="scale(0.015625)"/>
       <path id="Helvetica-61" d="M 844 891 
Q 844 647 1022 506 
Q 1200 366 1444 366 
Q 1741 366 2019 503 
Q 2488 731 2488 1250 
L 2488 1703 
Q 2384 1638 2221 1594 
Q 2059 1550 1903 1531 
L 1563 1488 
Q 1256 1447 1103 1359 
Q 844 1213 844 891 
z
M 2206 2028 
Q 2400 2053 2466 2191 
Q 2503 2266 2503 2406 
Q 2503 2694 2298 2823 
Q 2094 2953 1713 2953 
Q 1272 2953 1088 2716 
Q 984 2584 953 2325 
L 428 2325 
Q 444 2944 830 3186 
Q 1216 3428 1725 3428 
Q 2316 3428 2684 3203 
Q 3050 2978 3050 2503 
L 3050 575 
Q 3050 488 3086 434 
Q 3122 381 3238 381 
Q 3275 381 3322 386 
Q 3369 391 3422 400 
L 3422 -16 
Q 3291 -53 3222 -62 
Q 3153 -72 3034 -72 
Q 2744 -72 2613 134 
Q 2544 244 2516 444 
Q 2344 219 2022 53 
Q 1700 -113 1313 -113 
Q 847 -113 551 170 
Q 256 453 256 878 
Q 256 1344 547 1600 
Q 838 1856 1309 1916 
L 2206 2028 
z
M 1741 3428 
L 1741 3428 
z
" transform="scale(0.015625)"/>
       <path id="Helvetica-74" d="M 525 4281 
L 1094 4281 
L 1094 3347 
L 1628 3347 
L 1628 2888 
L 1094 2888 
L 1094 703 
Q 1094 528 1213 469 
Q 1278 434 1431 434 
Q 1472 434 1519 436 
Q 1566 438 1628 444 
L 1628 0 
Q 1531 -28 1426 -40 
Q 1322 -53 1200 -53 
Q 806 -53 665 148 
Q 525 350 525 672 
L 525 2888 
L 72 2888 
L 72 3347 
L 525 3347 
L 525 4281 
z
" transform="scale(0.015625)"/>
       <path id="Helvetica-67" d="M 1594 3406 
Q 1988 3406 2281 3213 
Q 2441 3103 2606 2894 
L 2606 3316 
L 3125 3316 
L 3125 272 
Q 3125 -366 2938 -734 
Q 2588 -1416 1616 -1416 
Q 1075 -1416 706 -1173 
Q 338 -931 294 -416 
L 866 -416 
Q 906 -641 1028 -763 
Q 1219 -950 1628 -950 
Q 2275 -950 2475 -494 
Q 2594 -225 2584 466 
Q 2416 209 2178 84 
Q 1941 -41 1550 -41 
Q 1006 -41 598 345 
Q 191 731 191 1622 
Q 191 2463 602 2934 
Q 1013 3406 1594 3406 
z
M 2606 1688 
Q 2606 2309 2350 2609 
Q 2094 2909 1697 2909 
Q 1103 2909 884 2353 
Q 769 2056 769 1575 
Q 769 1009 998 714 
Q 1228 419 1616 419 
Q 2222 419 2469 966 
Q 2606 1275 2606 1688 
z
M 1659 3428 
L 1659 3428 
z
" transform="scale(0.015625)"/>
       <path id="Helvetica-69" d="M 413 3331 
L 984 3331 
L 984 0 
L 413 0 
L 413 3331 
z
M 413 4591 
L 984 4591 
L 984 3953 
L 413 3953 
L 413 4591 
z
" transform="scale(0.015625)"/>
       <path id="Helvetica-73" d="M 747 1050 
Q 772 769 888 619 
Q 1100 347 1625 347 
Q 1938 347 2175 483 
Q 2413 619 2413 903 
Q 2413 1119 2222 1231 
Q 2100 1300 1741 1391 
L 1294 1503 
Q 866 1609 663 1741 
Q 300 1969 300 2372 
Q 300 2847 642 3140 
Q 984 3434 1563 3434 
Q 2319 3434 2653 2991 
Q 2863 2709 2856 2384 
L 2325 2384 
Q 2309 2575 2191 2731 
Q 1997 2953 1519 2953 
Q 1200 2953 1036 2831 
Q 872 2709 872 2509 
Q 872 2291 1088 2159 
Q 1213 2081 1456 2022 
L 1828 1931 
Q 2434 1784 2641 1647 
Q 2969 1431 2969 969 
Q 2969 522 2630 197 
Q 2291 -128 1597 -128 
Q 850 -128 539 211 
Q 228 550 206 1050 
L 747 1050 
z
M 1578 3428 
L 1578 3428 
z
" transform="scale(0.015625)"/>
      </defs>
      <use xlink:href="#Helvetica-4e"/>
      <use xlink:href="#Helvetica-75" x="72.216797"/>
      <use xlink:href="#Helvetica-6d" x="127.832031"/>
      <use xlink:href="#Helvetica-62" x="211.132812"/>
      <use xlink:href="#Helvetica-65" x="266.748047"/>
      <use xlink:href="#Helvetica-72" x="322.363281"/>
      <use xlink:href="#Helvetica-20" x="355.664062"/>
      <use xlink:href="#Helvetica-6f" x="383.447266"/>
      <use xlink:href="#Helvetica-66" x="439.0625"/>
      <use xlink:href="#Helvetica-20" x="466.845703"/>
      <use xlink:href="#Helvetica-43" x="494.628906"/>
      <use xlink:href="#Helvetica-61" x="566.845703"/>
      <use xlink:href="#Helvetica-74" x="622.460938"/>
      <use xlink:href="#Helvetica-65" x="650.244141"/>
      <use xlink:href="#Helvetica-67" x="705.859375"/>
      <use xlink:href="#Helvetica-6f" x="761.474609"/>
      <use xlink:href="#Helvetica-72" x="817.089844"/>
      <use xlink:href="#Helvetica-69" x="850.390625"/>
      <use xlink:href="#Helvetica-65" x="872.607422"/>
      <use xlink:href="#Helvetica-73" x="928.222656"/>
     </g>
    </g>
   </g>
   <g id="matplotlib.axis_2">
    <g id="ytick_1">
     <g id="line2d_8">
      <defs>
       <path id="m614dae5e52" d="M 0 0 
L -3.5 0 
" style="stroke: #000000; stroke-width: 0.8"/>
      </defs>
      <g>
       <use xlink:href="#m614dae5e52" x="51.32" y="294.376379" style="stroke: #000000; stroke-width: 0.8"/>
      </g>
     </g>
     <g id="text_9">
      <!-- 0.02 -->
      <g transform="translate(24.859062 297.963097) scale(0.1 -0.1)">
       <defs>
        <path id="Helvetica-2e" d="M 547 681 
L 1200 681 
L 1200 0 
L 547 0 
L 547 681 
z
" transform="scale(0.015625)"/>
       </defs>
       <use xlink:href="#Helvetica-30"/>
       <use xlink:href="#Helvetica-2e" x="55.615234"/>
       <use xlink:href="#Helvetica-30" x="83.398438"/>
       <use xlink:href="#Helvetica-32" x="139.013672"/>
      </g>
     </g>
    </g>
    <g id="ytick_2">
     <g id="line2d_9">
      <g>
       <use xlink:href="#m614dae5e52" x="51.32" y="241.712287" style="stroke: #000000; stroke-width: 0.8"/>
      </g>
     </g>
     <g id="text_10">
      <!-- 0.04 -->
      <g transform="translate(24.859062 245.299006) scale(0.1 -0.1)">
       <use xlink:href="#Helvetica-30"/>
       <use xlink:href="#Helvetica-2e" x="55.615234"/>
       <use xlink:href="#Helvetica-30" x="83.398438"/>
       <use xlink:href="#Helvetica-34" x="139.013672"/>
      </g>
     </g>
    </g>
    <g id="ytick_3">
     <g id="line2d_10">
      <g>
       <use xlink:href="#m614dae5e52" x="51.32" y="189.048195" style="stroke: #000000; stroke-width: 0.8"/>
      </g>
     </g>
     <g id="text_11">
      <!-- 0.06 -->
      <g transform="translate(24.859062 192.634914) scale(0.1 -0.1)">
       <use xlink:href="#Helvetica-30"/>
       <use xlink:href="#Helvetica-2e" x="55.615234"/>
       <use xlink:href="#Helvetica-30" x="83.398438"/>
       <use xlink:href="#Helvetica-36" x="139.013672"/>
      </g>
     </g>
    </g>
    <g id="ytick_4">
     <g id="line2d_11">
      <g>
       <use xlink:href="#m614dae5e52" x="51.32" y="136.384104" style="stroke: #000000; stroke-width: 0.8"/>
      </g>
     </g>
     <g id="text_12">
      <!-- 0.08 -->
      <g transform="translate(24.859062 139.970822) scale(0.1 -0.1)">
       <defs>
        <path id="Helvetica-38" d="M 1741 2600 
Q 2113 2600 2322 2808 
Q 2531 3016 2531 3303 
Q 2531 3553 2331 3762 
Q 2131 3972 1722 3972 
Q 1316 3972 1134 3762 
Q 953 3553 953 3272 
Q 953 2956 1187 2778 
Q 1422 2600 1741 2600 
z
M 1775 384 
Q 2166 384 2423 595 
Q 2681 806 2681 1225 
Q 2681 1659 2415 1884 
Q 2150 2109 1734 2109 
Q 1331 2109 1076 1879 
Q 822 1650 822 1244 
Q 822 894 1055 639 
Q 1288 384 1775 384 
z
M 975 2384 
Q 741 2484 609 2619 
Q 363 2869 363 3269 
Q 363 3769 725 4128 
Q 1088 4488 1753 4488 
Q 2397 4488 2762 4148 
Q 3128 3809 3128 3356 
Q 3128 2938 2916 2678 
Q 2797 2531 2547 2391 
Q 2825 2263 2984 2097 
Q 3281 1784 3281 1284 
Q 3281 694 2884 283 
Q 2488 -128 1763 -128 
Q 1109 -128 657 226 
Q 206 581 206 1256 
Q 206 1653 400 1942 
Q 594 2231 975 2384 
z
" transform="scale(0.015625)"/>
       </defs>
       <use xlink:href="#Helvetica-30"/>
       <use xlink:href="#Helvetica-2e" x="55.615234"/>
       <use xlink:href="#Helvetica-30" x="83.398438"/>
       <use xlink:href="#Helvetica-38" x="139.013672"/>
      </g>
     </g>
    </g>
    <g id="ytick_5">
     <g id="line2d_12">
      <g>
       <use xlink:href="#m614dae5e52" x="51.32" y="83.720012" style="stroke: #000000; stroke-width: 0.8"/>
      </g>
     </g>
     <g id="text_13">
      <!-- 0.10 -->
      <g transform="translate(24.859062 87.306731) scale(0.1 -0.1)">
       <use xlink:href="#Helvetica-30"/>
       <use xlink:href="#Helvetica-2e" x="55.615234"/>
       <use xlink:href="#Helvetica-31" x="83.398438"/>
       <use xlink:href="#Helvetica-30" x="139.013672"/>
      </g>
     </g>
    </g>
    <g id="ytick_6">
     <g id="line2d_13">
      <g>
       <use xlink:href="#m614dae5e52" x="51.32" y="31.05592" style="stroke: #000000; stroke-width: 0.8"/>
      </g>
     </g>
     <g id="text_14">
      <!-- 0.12 -->
      <g transform="translate(24.859062 34.642639) scale(0.1 -0.1)">
       <use xlink:href="#Helvetica-30"/>
       <use xlink:href="#Helvetica-2e" x="55.615234"/>
       <use xlink:href="#Helvetica-31" x="83.398438"/>
       <use xlink:href="#Helvetica-32" x="139.013672"/>
      </g>
     </g>
    </g>
    <g id="text_15">
     <!-- Jensen-Shannon Distance -->
     <g transform="translate(18.774687 230.509844) rotate(-90) scale(0.1 -0.1)">
      <defs>
       <path id="Helvetica-4a" d="M 2741 1369 
Q 2741 788 2569 466 
Q 2250 -122 1356 -122 
Q 841 -122 475 158 
Q 109 438 109 1153 
L 109 1481 
L 694 1481 
L 694 1153 
Q 694 778 861 589 
Q 1028 400 1381 400 
Q 1878 400 2031 741 
Q 2125 950 2125 1531 
L 2125 4591 
L 2741 4591 
L 2741 1369 
z
" transform="scale(0.015625)"/>
       <path id="Helvetica-6e" d="M 413 3347 
L 947 3347 
L 947 2872 
Q 1184 3166 1450 3294 
Q 1716 3422 2041 3422 
Q 2753 3422 3003 2925 
Q 3141 2653 3141 2147 
L 3141 0 
L 2569 0 
L 2569 2109 
Q 2569 2416 2478 2603 
Q 2328 2916 1934 2916 
Q 1734 2916 1606 2875 
Q 1375 2806 1200 2600 
Q 1059 2434 1017 2257 
Q 975 2081 975 1753 
L 975 0 
L 413 0 
L 413 3347 
z
M 1734 3428 
L 1734 3428 
z
" transform="scale(0.015625)"/>
       <path id="Helvetica-2d" d="M 266 2072 
L 1834 2072 
L 1834 1494 
L 266 1494 
L 266 2072 
z
" transform="scale(0.015625)"/>
       <path id="Helvetica-53" d="M 894 1481 
Q 916 1091 1078 847 
Q 1388 391 2169 391 
Q 2519 391 2806 491 
Q 3363 684 3363 1184 
Q 3363 1559 3128 1719 
Q 2891 1875 2384 1991 
L 1763 2131 
Q 1153 2269 900 2434 
Q 463 2722 463 3294 
Q 463 3913 891 4309 
Q 1319 4706 2103 4706 
Q 2825 4706 3329 4357 
Q 3834 4009 3834 3244 
L 3250 3244 
Q 3203 3613 3050 3809 
Q 2766 4169 2084 4169 
Q 1534 4169 1293 3937 
Q 1053 3706 1053 3400 
Q 1053 3063 1334 2906 
Q 1519 2806 2169 2656 
L 2813 2509 
Q 3278 2403 3531 2219 
Q 3969 1897 3969 1284 
Q 3969 522 3414 194 
Q 2859 -134 2125 -134 
Q 1269 -134 784 303 
Q 300 738 309 1481 
L 894 1481 
z
M 2150 4716 
L 2150 4716 
z
" transform="scale(0.015625)"/>
       <path id="Helvetica-68" d="M 413 4606 
L 975 4606 
L 975 2894 
Q 1175 3147 1334 3250 
Q 1606 3428 2013 3428 
Q 2741 3428 3000 2919 
Q 3141 2641 3141 2147 
L 3141 0 
L 2563 0 
L 2563 2109 
Q 2563 2478 2469 2650 
Q 2316 2925 1894 2925 
Q 1544 2925 1259 2684 
Q 975 2444 975 1775 
L 975 0 
L 413 0 
L 413 4606 
z
" transform="scale(0.015625)"/>
       <path id="Helvetica-44" d="M 2250 531 
Q 2566 531 2769 597 
Q 3131 719 3363 1066 
Q 3547 1344 3628 1778 
Q 3675 2038 3675 2259 
Q 3675 3113 3336 3584 
Q 2997 4056 2244 4056 
L 1141 4056 
L 1141 531 
L 2250 531 
z
M 516 4591 
L 2375 4591 
Q 3322 4591 3844 3919 
Q 4309 3313 4309 2366 
Q 4309 1634 4034 1044 
Q 3550 0 2369 0 
L 516 0 
L 516 4591 
z
" transform="scale(0.015625)"/>
       <path id="Helvetica-63" d="M 1703 3444 
Q 2269 3444 2623 3169 
Q 2978 2894 3050 2222 
L 2503 2222 
Q 2453 2531 2275 2736 
Q 2097 2941 1703 2941 
Q 1166 2941 934 2416 
Q 784 2075 784 1575 
Q 784 1072 996 728 
Q 1209 384 1666 384 
Q 2016 384 2220 598 
Q 2425 813 2503 1184 
L 3050 1184 
Q 2956 519 2581 211 
Q 2206 -97 1622 -97 
Q 966 -97 575 383 
Q 184 863 184 1581 
Q 184 2463 612 2953 
Q 1041 3444 1703 3444 
z
M 1616 3428 
L 1616 3428 
z
" transform="scale(0.015625)"/>
      </defs>
      <use xlink:href="#Helvetica-4a"/>
      <use xlink:href="#Helvetica-65" x="50"/>
      <use xlink:href="#Helvetica-6e" x="105.615234"/>
      <use xlink:href="#Helvetica-73" x="161.230469"/>
      <use xlink:href="#Helvetica-65" x="211.230469"/>
      <use xlink:href="#Helvetica-6e" x="266.845703"/>
      <use xlink:href="#Helvetica-2d" x="322.460938"/>
      <use xlink:href="#Helvetica-53" x="355.761719"/>
      <use xlink:href="#Helvetica-68" x="422.460938"/>
      <use xlink:href="#Helvetica-61" x="478.076172"/>
      <use xlink:href="#Helvetica-6e" x="533.691406"/>
      <use xlink:href="#Helvetica-6e" x="589.306641"/>
      <use xlink:href="#Helvetica-6f" x="644.921875"/>
      <use xlink:href="#Helvetica-6e" x="700.537109"/>
      <use xlink:href="#Helvetica-20" x="756.152344"/>
      <use xlink:href="#Helvetica-44" x="783.935547"/>
      <use xlink:href="#Helvetica-69" x="856.152344"/>
      <use xlink:href="#Helvetica-73" x="878.369141"/>
      <use xlink:href="#Helvetica-74" x="928.369141"/>
      <use xlink:href="#Helvetica-61" x="956.152344"/>
      <use xlink:href="#Helvetica-6e" x="1011.767578"/>
      <use xlink:href="#Helvetica-63" x="1067.382812"/>
      <use xlink:href="#Helvetica-65" x="1117.382812"/>
     </g>
    </g>
   </g>
   <g id="line2d_14">
    <path d="M 65.041023 281.004587 
L 69.855417 268.334466 
L 74.669811 245.676972 
L 79.484205 232.372133 
L 84.298598 231.601758 
L 89.112992 205.333828 
L 93.927386 197.828009 
L 98.74178 198.724203 
L 103.556174 182.914945 
L 108.370568 187.830373 
L 113.184962 164.105967 
L 117.999356 168.997017 
L 122.81375 161.280621 
L 127.628144 160.180117 
L 132.442538 150.56713 
L 137.256932 149.478232 
L 142.071326 140.056301 
L 146.88572 149.092389 
L 151.700114 135.933547 
L 156.514508 144.47812 
L 161.328902 135.45889 
L 166.143295 140.657212 
L 170.957689 130.63875 
L 175.772083 128.008974 
L 180.586477 128.494268 
L 185.400871 112.471987 
L 190.215265 125.607253 
L 195.029659 112.78128 
L 199.844053 116.20927 
L 204.658447 126.59513 
L 209.472841 106.312207 
L 214.287235 119.370098 
L 219.101629 104.986598 
L 223.916023 104.941185 
L 228.730417 111.3943 
L 233.544811 106.531247 
L 238.359205 98.511096 
L 243.173598 111.978808 
L 247.987992 92.804775 
L 252.802386 101.483216 
L 257.61678 89.415486 
L 262.431174 99.243609 
L 267.245568 86.672128 
L 272.059962 101.40766 
L 276.874356 87.382287 
L 281.68875 94.417325 
L 286.503144 87.022724 
L 291.317538 83.152603 
L 296.131932 90.743268 
L 300.946326 81.059771 
L 305.76072 87.484724 
L 310.575114 78.202588 
L 315.389508 80.943182 
L 320.203902 82.033041 
L 325.018295 80.169073 
L 329.832689 78.257742 
L 334.647083 67.55129 
L 339.461477 72.489204 
" clip-path="url(#p554dc7ee1c)" style="fill: none; stroke: #dd4040; stroke-width: 1.5; stroke-linecap: square"/>
   </g>
   <g id="patch_3">
    <path d="M 51.32 318.04 
L 51.32 25.6875 
" style="fill: none; stroke: #000000; stroke-width: 0.8; stroke-linejoin: miter; stroke-linecap: square"/>
   </g>
   <g id="patch_4">
    <path d="M 353.1825 318.04 
L 353.1825 25.6875 
" style="fill: none; stroke: #000000; stroke-width: 0.8; stroke-linejoin: miter; stroke-linecap: square"/>
   </g>
   <g id="patch_5">
    <path d="M 51.32 318.04 
L 353.1825 318.04 
" style="fill: none; stroke: #000000; stroke-width: 0.8; stroke-linejoin: miter; stroke-linecap: square"/>
   </g>
   <g id="patch_6">
    <path d="M 51.32 25.6875 
L 353.1825 25.6875 
" style="fill: none; stroke: #000000; stroke-width: 0.8; stroke-linejoin: miter; stroke-linecap: square"/>
   </g>
   <g id="text_16">
    <!-- Jensen-Shannon Distance -->
    <g transform="translate(131.875938 19.6875) scale(0.12 -0.12)">
     <use xlink:href="#Helvetica-4a"/>
     <use xlink:href="#Helvetica-65" x="50"/>
     <use xlink:href="#Helvetica-6e" x="105.615234"/>
     <use xlink:href="#Helvetica-73" x="161.230469"/>
     <use xlink:href="#Helvetica-65" x="211.230469"/>
     <use xlink:href="#Helvetica-6e" x="266.845703"/>
     <use xlink:href="#Helvetica-2d" x="322.460938"/>
     <use xlink:href="#Helvetica-53" x="355.761719"/>
     <use xlink:href="#Helvetica-68" x="422.460938"/>
     <use xlink:href="#Helvetica-61" x="478.076172"/>
     <use xlink:href="#Helvetica-6e" x="533.691406"/>
     <use xlink:href="#Helvetica-6e" x="589.306641"/>
     <use xlink:href="#Helvetica-6f" x="644.921875"/>
     <use xlink:href="#Helvetica-6e" x="700.537109"/>
     <use xlink:href="#Helvetica-20" x="756.152344"/>
     <use xlink:href="#Helvetica-44" x="783.935547"/>
     <use xlink:href="#Helvetica-69" x="856.152344"/>
     <use xlink:href="#Helvetica-73" x="878.369141"/>
     <use xlink:href="#Helvetica-74" x="928.369141"/>
     <use xlink:href="#Helvetica-61" x="956.152344"/>
     <use xlink:href="#Helvetica-6e" x="1011.767578"/>
     <use xlink:href="#Helvetica-63" x="1067.382812"/>
     <use xlink:href="#Helvetica-65" x="1117.382812"/>
    </g>
   </g>
   <g id="legend_1">
    <g id="patch_7">
     <path d="M 267.490313 47.945312 
L 346.1825 47.945312 
Q 348.1825 47.945312 348.1825 45.945312 
L 348.1825 32.6875 
Q 348.1825 30.6875 346.1825 30.6875 
L 267.490313 30.6875 
Q 265.490313 30.6875 265.490313 32.6875 
L 265.490313 45.945312 
Q 265.490313 47.945312 267.490313 47.945312 
z
" style="fill: #ffffff; opacity: 0.8; stroke: #cccccc; stroke-linejoin: miter"/>
    </g>
    <g id="patch_8">
     <path d="M 269.490313 41.860937 
L 289.490313 41.860937 
L 289.490313 34.860937 
L 269.490313 34.860937 
z
" style="fill: #f8dcdc; fill-opacity: 0.5; stroke: #f8dcdc; stroke-opacity: 0.5; stroke-linejoin: miter"/>
    </g>
    <g id="text_17">
     <!-- 99.99% CI -->
     <g transform="translate(297.490313 41.860937) scale(0.1 -0.1)">
      <defs>
       <path id="Helvetica-39" d="M 850 1081 
Q 875 616 1209 438 
Q 1381 344 1597 344 
Q 2000 344 2284 680 
Q 2569 1016 2688 2044 
Q 2500 1747 2223 1626 
Q 1947 1506 1628 1506 
Q 981 1506 604 1909 
Q 228 2313 228 2947 
Q 228 3556 600 4018 
Q 972 4481 1697 4481 
Q 2675 4481 3047 3600 
Q 3253 3116 3253 2388 
Q 3253 1566 3006 931 
Q 2597 -125 1619 -125 
Q 963 -125 622 219 
Q 281 563 281 1081 
L 850 1081 
z
M 1703 2000 
Q 2038 2000 2314 2220 
Q 2591 2441 2591 2991 
Q 2591 3484 2342 3726 
Q 2094 3969 1709 3969 
Q 1297 3969 1055 3692 
Q 813 3416 813 2953 
Q 813 2516 1025 2258 
Q 1238 2000 1703 2000 
z
" transform="scale(0.015625)"/>
       <path id="Helvetica-25" d="M 4363 2175 
Q 4813 2175 5131 1856 
Q 5450 1538 5450 1088 
Q 5450 638 5131 319 
Q 4813 0 4363 0 
Q 3909 0 3590 319 
Q 3272 638 3272 1088 
Q 3272 1538 3590 1856 
Q 3909 2175 4363 2175 
z
M 3909 4456 
L 4256 4456 
L 1753 -119 
L 1406 -119 
L 3909 4456 
z
M 1294 2606 
Q 1563 2606 1752 2795 
Q 1941 2984 1941 3250 
Q 1941 3516 1752 3705 
Q 1563 3894 1294 3894 
Q 1028 3894 839 3706 
Q 650 3519 650 3250 
Q 650 2984 839 2795 
Q 1028 2606 1294 2606 
z
M 1294 4341 
Q 1747 4341 2065 4020 
Q 2384 3700 2384 3250 
Q 2384 2800 2065 2481 
Q 1747 2163 1294 2163 
Q 844 2163 525 2481 
Q 206 2800 206 3250 
Q 206 3700 525 4020 
Q 844 4341 1294 4341 
z
M 4363 444 
Q 4628 444 4817 633 
Q 5006 822 5006 1088 
Q 5006 1353 4817 1542 
Q 4628 1731 4363 1731 
Q 4094 1731 3905 1542 
Q 3716 1353 3716 1088 
Q 3716 822 3905 633 
Q 4094 444 4363 444 
z
" transform="scale(0.015625)"/>
       <path id="Helvetica-49" d="M 628 4591 
L 1256 4591 
L 1256 0 
L 628 0 
L 628 4591 
z
" transform="scale(0.015625)"/>
      </defs>
      <use xlink:href="#Helvetica-39"/>
      <use xlink:href="#Helvetica-39" x="55.615234"/>
      <use xlink:href="#Helvetica-2e" x="111.230469"/>
      <use xlink:href="#Helvetica-39" x="139.013672"/>
      <use xlink:href="#Helvetica-39" x="194.628906"/>
      <use xlink:href="#Helvetica-25" x="250.244141"/>
      <use xlink:href="#Helvetica-20" x="339.160156"/>
      <use xlink:href="#Helvetica-43" x="366.943359"/>
      <use xlink:href="#Helvetica-49" x="439.160156"/>
     </g>
    </g>
   </g>
  </g>
  <g id="axes_2">
   <g id="patch_9">
    <path d="M 409.9925 318.04 
L 711.855 318.04 
L 711.855 25.6875 
L 409.9925 25.6875 
z
" style="fill: #ffffff"/>
   </g>
   <g id="PolyCollection_2">
    <defs>
     <path id="m5381b4d7b7" d="M 423.713523 -101.91029 
L 423.713523 -55.24875 
L 428.527917 -62.391586 
L 433.342311 -86.174082 
L 438.156705 -94.022657 
L 442.971098 -100.796811 
L 447.785492 -117.359605 
L 452.599886 -134.347922 
L 457.41428 -140.432976 
L 462.228674 -154.758357 
L 467.043068 -150.949283 
L 471.857462 -177.615746 
L 476.671856 -169.21675 
L 481.48625 -176.380375 
L 486.300644 -181.137457 
L 491.115038 -192.419793 
L 495.929432 -193.022112 
L 500.743826 -199.802344 
L 505.55822 -191.059551 
L 510.372614 -194.364752 
L 515.187008 -200.043637 
L 520.001402 -204.808378 
L 524.815795 -196.145404 
L 529.630189 -209.270128 
L 534.444583 -205.428516 
L 539.258977 -204.607506 
L 544.073371 -226.196724 
L 548.887765 -210.527371 
L 553.702159 -226.699711 
L 558.516553 -218.859738 
L 563.330947 -210.68522 
L 568.145341 -234.425379 
L 572.959735 -222.587556 
L 577.774129 -231.531278 
L 582.588523 -233.776411 
L 587.402917 -228.272996 
L 592.217311 -229.115018 
L 597.031705 -242.538156 
L 601.846098 -226.176582 
L 606.660492 -250.208808 
L 611.474886 -235.964356 
L 616.28928 -241.752041 
L 621.103674 -237.499175 
L 625.918068 -257.79035 
L 630.732462 -234.110363 
L 635.546856 -252.730265 
L 640.36125 -242.518567 
L 645.175644 -249.696253 
L 649.990038 -257.006108 
L 654.804432 -245.183064 
L 659.618826 -253.79635 
L 664.43322 -254.29471 
L 669.247614 -260.557131 
L 674.062008 -258.429002 
L 678.876402 -252.556319 
L 683.690795 -255.81106 
L 688.505189 -263.612424 
L 693.319583 -267.735502 
L 698.133977 -266.508114 
L 698.133977 -315.239808 
L 698.133977 -315.239808 
L 693.319583 -321.02375 
L 688.505189 -311.865038 
L 683.690795 -313.294193 
L 678.876402 -309.689371 
L 674.062008 -315.331535 
L 669.247614 -314.045986 
L 664.43322 -311.74693 
L 659.618826 -307.519341 
L 654.804432 -305.043566 
L 649.990038 -307.473811 
L 645.175644 -305.529045 
L 640.36125 -294.948572 
L 635.546856 -304.387286 
L 630.732462 -296.238384 
L 625.918068 -306.646764 
L 621.103674 -293.676229 
L 616.28928 -302.986628 
L 611.474886 -290.44723 
L 606.660492 -292.565734 
L 601.846098 -276.173347 
L 597.031705 -287.323164 
L 592.217311 -289.545429 
L 587.402917 -273.413187 
L 582.588523 -293.078405 
L 577.774129 -281.23401 
L 572.959735 -274.875385 
L 568.145341 -280.010432 
L 563.330947 -265.33292 
L 558.516553 -273.15697 
L 553.702159 -273.165616 
L 548.887765 -266.432134 
L 544.073371 -278.498558 
L 539.258977 -257.667819 
L 534.444583 -261.607182 
L 529.630189 -247.301159 
L 524.815795 -246.433681 
L 520.001402 -251.99034 
L 515.187008 -236.56542 
L 510.372614 -258.164349 
L 505.55822 -239.500124 
L 500.743826 -245.293746 
L 495.929432 -241.485279 
L 491.115038 -234.447269 
L 486.300644 -222.391634 
L 481.48625 -226.910608 
L 476.671856 -219.026108 
L 471.857462 -222.189674 
L 467.043068 -205.675601 
L 462.228674 -202.284824 
L 457.41428 -183.269295 
L 452.599886 -192.723308 
L 447.785492 -192.038641 
L 442.971098 -156.237088 
L 438.156705 -143.894746 
L 433.342311 -141.257607 
L 428.527917 -113.984708 
L 423.713523 -101.91029 
z
" style="stroke: #f8dcdc; stroke-opacity: 0.5"/>
    </defs>
    <g clip-path="url(#pe36c0cf4e4)">
     <use xlink:href="#m5381b4d7b7" x="0" y="360" style="fill: #f8dcdc; fill-opacity: 0.5; stroke: #f8dcdc; stroke-opacity: 0.5"/>
    </g>
   </g>
   <g id="matplotlib.axis_3">
    <g id="xtick_8">
     <g id="line2d_15">
      <g>
       <use xlink:href="#m4f9812a869" x="414.084735" y="318.04" style="stroke: #000000; stroke-width: 0.8"/>
      </g>
     </g>
     <g id="text_18">
      <!-- 0 -->
      <g transform="translate(411.304266 332.213437) scale(0.1 -0.1)">
       <use xlink:href="#Helvetica-30"/>
      </g>
     </g>
    </g>
    <g id="xtick_9">
     <g id="line2d_16">
      <g>
       <use xlink:href="#m4f9812a869" x="462.228674" y="318.04" style="stroke: #000000; stroke-width: 0.8"/>
      </g>
     </g>
     <g id="text_19">
      <!-- 10 -->
      <g transform="translate(456.667737 332.213437) scale(0.1 -0.1)">
       <use xlink:href="#Helvetica-31"/>
       <use xlink:href="#Helvetica-30" x="55.615234"/>
      </g>
     </g>
    </g>
    <g id="xtick_10">
     <g id="line2d_17">
      <g>
       <use xlink:href="#m4f9812a869" x="510.372614" y="318.04" style="stroke: #000000; stroke-width: 0.8"/>
      </g>
     </g>
     <g id="text_20">
      <!-- 20 -->
      <g transform="translate(504.811676 332.213437) scale(0.1 -0.1)">
       <use xlink:href="#Helvetica-32"/>
       <use xlink:href="#Helvetica-30" x="55.615234"/>
      </g>
     </g>
    </g>
    <g id="xtick_11">
     <g id="line2d_18">
      <g>
       <use xlink:href="#m4f9812a869" x="558.516553" y="318.04" style="stroke: #000000; stroke-width: 0.8"/>
      </g>
     </g>
     <g id="text_21">
      <!-- 30 -->
      <g transform="translate(552.955616 332.213437) scale(0.1 -0.1)">
       <use xlink:href="#Helvetica-33"/>
       <use xlink:href="#Helvetica-30" x="55.615234"/>
      </g>
     </g>
    </g>
    <g id="xtick_12">
     <g id="line2d_19">
      <g>
       <use xlink:href="#m4f9812a869" x="606.660492" y="318.04" style="stroke: #000000; stroke-width: 0.8"/>
      </g>
     </g>
     <g id="text_22">
      <!-- 40 -->
      <g transform="translate(601.099555 332.213437) scale(0.1 -0.1)">
       <use xlink:href="#Helvetica-34"/>
       <use xlink:href="#Helvetica-30" x="55.615234"/>
      </g>
     </g>
    </g>
    <g id="xtick_13">
     <g id="line2d_20">
      <g>
       <use xlink:href="#m4f9812a869" x="654.804432" y="318.04" style="stroke: #000000; stroke-width: 0.8"/>
      </g>
     </g>
     <g id="text_23">
      <!-- 50 -->
      <g transform="translate(649.243494 332.213437) scale(0.1 -0.1)">
       <use xlink:href="#Helvetica-35"/>
       <use xlink:href="#Helvetica-30" x="55.615234"/>
      </g>
     </g>
    </g>
    <g id="xtick_14">
     <g id="line2d_21">
      <g>
       <use xlink:href="#m4f9812a869" x="702.948371" y="318.04" style="stroke: #000000; stroke-width: 0.8"/>
      </g>
     </g>
     <g id="text_24">
      <!-- 60 -->
      <g transform="translate(697.387434 332.213437) scale(0.1 -0.1)">
       <use xlink:href="#Helvetica-36"/>
       <use xlink:href="#Helvetica-30" x="55.615234"/>
      </g>
     </g>
    </g>
    <g id="text_25">
     <!-- Number of Categories -->
     <g transform="translate(512.015937 345.666562) scale(0.1 -0.1)">
      <use xlink:href="#Helvetica-4e"/>
      <use xlink:href="#Helvetica-75" x="72.216797"/>
      <use xlink:href="#Helvetica-6d" x="127.832031"/>
      <use xlink:href="#Helvetica-62" x="211.132812"/>
      <use xlink:href="#Helvetica-65" x="266.748047"/>
      <use xlink:href="#Helvetica-72" x="322.363281"/>
      <use xlink:href="#Helvetica-20" x="355.664062"/>
      <use xlink:href="#Helvetica-6f" x="383.447266"/>
      <use xlink:href="#Helvetica-66" x="439.0625"/>
      <use xlink:href="#Helvetica-20" x="466.845703"/>
      <use xlink:href="#Helvetica-43" x="494.628906"/>
      <use xlink:href="#Helvetica-61" x="566.845703"/>
      <use xlink:href="#Helvetica-74" x="622.460938"/>
      <use xlink:href="#Helvetica-65" x="650.244141"/>
      <use xlink:href="#Helvetica-67" x="705.859375"/>
      <use xlink:href="#Helvetica-6f" x="761.474609"/>
      <use xlink:href="#Helvetica-72" x="817.089844"/>
      <use xlink:href="#Helvetica-69" x="850.390625"/>
      <use xlink:href="#Helvetica-65" x="872.607422"/>
      <use xlink:href="#Helvetica-73" x="928.222656"/>
     </g>
    </g>
   </g>
   <g id="matplotlib.axis_4">
    <g id="ytick_7">
     <g id="line2d_22">
      <g>
       <use xlink:href="#m614dae5e52" x="409.9925" y="284.980844" style="stroke: #000000; stroke-width: 0.8"/>
      </g>
     </g>
     <g id="text_26">
      <!-- 0.02 -->
      <g transform="translate(383.531562 288.567563) scale(0.1 -0.1)">
       <use xlink:href="#Helvetica-30"/>
       <use xlink:href="#Helvetica-2e" x="55.615234"/>
       <use xlink:href="#Helvetica-30" x="83.398438"/>
       <use xlink:href="#Helvetica-32" x="139.013672"/>
      </g>
     </g>
    </g>
    <g id="ytick_8">
     <g id="line2d_23">
      <g>
       <use xlink:href="#m614dae5e52" x="409.9925" y="225.333857" style="stroke: #000000; stroke-width: 0.8"/>
      </g>
     </g>
     <g id="text_27">
      <!-- 0.04 -->
      <g transform="translate(383.531562 228.920575) scale(0.1 -0.1)">
       <use xlink:href="#Helvetica-30"/>
       <use xlink:href="#Helvetica-2e" x="55.615234"/>
       <use xlink:href="#Helvetica-30" x="83.398438"/>
       <use xlink:href="#Helvetica-34" x="139.013672"/>
      </g>
     </g>
    </g>
    <g id="ytick_9">
     <g id="line2d_24">
      <g>
       <use xlink:href="#m614dae5e52" x="409.9925" y="165.686869" style="stroke: #000000; stroke-width: 0.8"/>
      </g>
     </g>
     <g id="text_28">
      <!-- 0.06 -->
      <g transform="translate(383.531562 169.273588) scale(0.1 -0.1)">
       <use xlink:href="#Helvetica-30"/>
       <use xlink:href="#Helvetica-2e" x="55.615234"/>
       <use xlink:href="#Helvetica-30" x="83.398438"/>
       <use xlink:href="#Helvetica-36" x="139.013672"/>
      </g>
     </g>
    </g>
    <g id="ytick_10">
     <g id="line2d_25">
      <g>
       <use xlink:href="#m614dae5e52" x="409.9925" y="106.039882" style="stroke: #000000; stroke-width: 0.8"/>
      </g>
     </g>
     <g id="text_29">
      <!-- 0.08 -->
      <g transform="translate(383.531562 109.626601) scale(0.1 -0.1)">
       <use xlink:href="#Helvetica-30"/>
       <use xlink:href="#Helvetica-2e" x="55.615234"/>
       <use xlink:href="#Helvetica-30" x="83.398438"/>
       <use xlink:href="#Helvetica-38" x="139.013672"/>
      </g>
     </g>
    </g>
    <g id="ytick_11">
     <g id="line2d_26">
      <g>
       <use xlink:href="#m614dae5e52" x="409.9925" y="46.392894" style="stroke: #000000; stroke-width: 0.8"/>
      </g>
     </g>
     <g id="text_30">
      <!-- 0.10 -->
      <g transform="translate(383.531562 49.979613) scale(0.1 -0.1)">
       <use xlink:href="#Helvetica-30"/>
       <use xlink:href="#Helvetica-2e" x="55.615234"/>
       <use xlink:href="#Helvetica-31" x="83.398438"/>
       <use xlink:href="#Helvetica-30" x="139.013672"/>
      </g>
     </g>
    </g>
    <g id="text_31">
     <!-- Hellinger Distance -->
     <g transform="translate(377.319062 212.435625) rotate(-90) scale(0.1 -0.1)">
      <defs>
       <path id="Helvetica-48" d="M 503 4591 
L 1131 4591 
L 1131 2694 
L 3519 2694 
L 3519 4591 
L 4147 4591 
L 4147 0 
L 3519 0 
L 3519 2147 
L 1131 2147 
L 1131 0 
L 503 0 
L 503 4591 
z
" transform="scale(0.015625)"/>
       <path id="Helvetica-6c" d="M 428 4591 
L 991 4591 
L 991 0 
L 428 0 
L 428 4591 
z
" transform="scale(0.015625)"/>
      </defs>
      <use xlink:href="#Helvetica-48"/>
      <use xlink:href="#Helvetica-65" x="72.216797"/>
      <use xlink:href="#Helvetica-6c" x="127.832031"/>
      <use xlink:href="#Helvetica-6c" x="150.048828"/>
      <use xlink:href="#Helvetica-69" x="172.265625"/>
      <use xlink:href="#Helvetica-6e" x="194.482422"/>
      <use xlink:href="#Helvetica-67" x="250.097656"/>
      <use xlink:href="#Helvetica-65" x="305.712891"/>
      <use xlink:href="#Helvetica-72" x="361.328125"/>
      <use xlink:href="#Helvetica-20" x="394.628906"/>
      <use xlink:href="#Helvetica-44" x="422.412109"/>
      <use xlink:href="#Helvetica-69" x="494.628906"/>
      <use xlink:href="#Helvetica-73" x="516.845703"/>
      <use xlink:href="#Helvetica-74" x="566.845703"/>
      <use xlink:href="#Helvetica-61" x="594.628906"/>
      <use xlink:href="#Helvetica-6e" x="650.244141"/>
      <use xlink:href="#Helvetica-63" x="705.859375"/>
      <use xlink:href="#Helvetica-65" x="755.859375"/>
     </g>
    </g>
   </g>
   <g id="line2d_27">
    <path d="M 423.713523 282.352435 
L 428.527917 270.396864 
L 433.342311 248.980686 
L 438.156705 236.393486 
L 442.971098 235.614065 
L 447.785492 209.60673 
L 452.599886 198.618075 
L 457.41428 198.570258 
L 462.228674 183.755165 
L 467.043068 187.712446 
L 471.857462 161.937536 
L 476.671856 168.479974 
L 481.48625 159.08071 
L 486.300644 159.352599 
L 491.115038 149.5014 
L 495.929432 149.382305 
L 500.743826 139.233914 
L 505.55822 145.86076 
L 510.372614 136.587456 
L 515.187008 142.747207 
L 520.001402 133.113525 
L 524.815795 140.13532 
L 529.630189 130.192366 
L 534.444583 126.852901 
L 539.258977 126.189072 
L 544.073371 111.206285 
L 548.887765 125.348065 
L 553.702159 111.547858 
L 558.516553 114.963201 
L 563.330947 126.173428 
L 568.145341 104.999095 
L 572.959735 115.522698 
L 577.774129 104.50553 
L 582.588523 102.141489 
L 587.402917 110.794588 
L 592.217311 105.518849 
L 597.031705 95.953452 
L 601.846098 111.149544 
L 606.660492 91.561573 
L 611.474886 98.882774 
L 616.28928 89.177053 
L 621.103674 96.453418 
L 625.918068 84.083472 
L 630.732462 100.200998 
L 635.546856 85.472298 
L 640.36125 93.164669 
L 645.175644 84.737334 
L 649.990038 79.905231 
L 654.804432 89.714222 
L 659.618826 79.66944 
L 664.43322 84.70054 
L 669.247614 76.507319 
L 674.062008 78.122939 
L 678.876402 80.778795 
L 683.690795 78.134114 
L 688.505189 76.409945 
L 693.319583 66.519404 
L 698.133977 70.854061 
" clip-path="url(#pe36c0cf4e4)" style="fill: none; stroke: #dd4040; stroke-width: 1.5; stroke-linecap: square"/>
   </g>
   <g id="patch_10">
    <path d="M 409.9925 318.04 
L 409.9925 25.6875 
" style="fill: none; stroke: #000000; stroke-width: 0.8; stroke-linejoin: miter; stroke-linecap: square"/>
   </g>
   <g id="patch_11">
    <path d="M 711.855 318.04 
L 711.855 25.6875 
" style="fill: none; stroke: #000000; stroke-width: 0.8; stroke-linejoin: miter; stroke-linecap: square"/>
   </g>
   <g id="patch_12">
    <path d="M 409.9925 318.04 
L 711.855 318.04 
" style="fill: none; stroke: #000000; stroke-width: 0.8; stroke-linejoin: miter; stroke-linecap: square"/>
   </g>
   <g id="patch_13">
    <path d="M 409.9925 25.6875 
L 711.855 25.6875 
" style="fill: none; stroke: #000000; stroke-width: 0.8; stroke-linejoin: miter; stroke-linecap: square"/>
   </g>
   <g id="text_32">
    <!-- Hellinger Distance -->
    <g transform="translate(512.2375 19.6875) scale(0.12 -0.12)">
     <use xlink:href="#Helvetica-48"/>
     <use xlink:href="#Helvetica-65" x="72.216797"/>
     <use xlink:href="#Helvetica-6c" x="127.832031"/>
     <use xlink:href="#Helvetica-6c" x="150.048828"/>
     <use xlink:href="#Helvetica-69" x="172.265625"/>
     <use xlink:href="#Helvetica-6e" x="194.482422"/>
     <use xlink:href="#Helvetica-67" x="250.097656"/>
     <use xlink:href="#Helvetica-65" x="305.712891"/>
     <use xlink:href="#Helvetica-72" x="361.328125"/>
     <use xlink:href="#Helvetica-20" x="394.628906"/>
     <use xlink:href="#Helvetica-44" x="422.412109"/>
     <use xlink:href="#Helvetica-69" x="494.628906"/>
     <use xlink:href="#Helvetica-73" x="516.845703"/>
     <use xlink:href="#Helvetica-74" x="566.845703"/>
     <use xlink:href="#Helvetica-61" x="594.628906"/>
     <use xlink:href="#Helvetica-6e" x="650.244141"/>
     <use xlink:href="#Helvetica-63" x="705.859375"/>
     <use xlink:href="#Helvetica-65" x="755.859375"/>
    </g>
   </g>
   <g id="legend_2">
    <g id="patch_14">
     <path d="M 626.162812 47.945312 
L 704.855 47.945312 
Q 706.855 47.945312 706.855 45.945312 
L 706.855 32.6875 
Q 706.855 30.6875 704.855 30.6875 
L 626.162812 30.6875 
Q 624.162812 30.6875 624.162812 32.6875 
L 624.162812 45.945312 
Q 624.162812 47.945312 626.162812 47.945312 
z
" style="fill: #ffffff; opacity: 0.8; stroke: #cccccc; stroke-linejoin: miter"/>
    </g>
    <g id="patch_15">
     <path d="M 628.162812 41.860937 
L 648.162812 41.860937 
L 648.162812 34.860937 
L 628.162812 34.860937 
z
" style="fill: #f8dcdc; fill-opacity: 0.5; stroke: #f8dcdc; stroke-opacity: 0.5; stroke-linejoin: miter"/>
    </g>
    <g id="text_33">
     <!-- 99.99% CI -->
     <g transform="translate(656.162812 41.860937) scale(0.1 -0.1)">
      <use xlink:href="#Helvetica-39"/>
      <use xlink:href="#Helvetica-39" x="55.615234"/>
      <use xlink:href="#Helvetica-2e" x="111.230469"/>
      <use xlink:href="#Helvetica-39" x="139.013672"/>
      <use xlink:href="#Helvetica-39" x="194.628906"/>
      <use xlink:href="#Helvetica-25" x="250.244141"/>
      <use xlink:href="#Helvetica-20" x="339.160156"/>
      <use xlink:href="#Helvetica-43" x="366.943359"/>
      <use xlink:href="#Helvetica-49" x="439.160156"/>
     </g>
    </g>
   </g>
  </g>
  <g id="axes_3">
   <g id="patch_16">
    <path d="M 768.665 318.04 
L 1070.5275 318.04 
L 1070.5275 25.6875 
L 768.665 25.6875 
z
" style="fill: #ffffff"/>
   </g>
   <g id="PolyCollection_3">
    <defs>
     <path id="m2992c5d612" d="M 782.386023 -264.853599 
L 782.386023 -65.651778 
L 787.200417 -55.24875 
L 792.014811 -101.265562 
L 796.829205 -75.385373 
L 801.643598 -96.563573 
L 806.457992 -126.158656 
L 811.272386 -81.532493 
L 816.08678 -100.054332 
L 820.901174 -101.420006 
L 825.715568 -107.952474 
L 830.529962 -105.030868 
L 835.344356 -90.951764 
L 840.15875 -116.004493 
L 844.973144 -109.558416 
L 849.787538 -120.518456 
L 854.601932 -109.187923 
L 859.416326 -129.354858 
L 864.23072 -80.971057 
L 869.045114 -132.447241 
L 873.859508 -74.28303 
L 878.673902 -139.848875 
L 883.488295 -92.857024 
L 888.302689 -123.561765 
L 893.117083 -115.925824 
L 897.931477 -119.344744 
L 902.745871 -113.206404 
L 907.560265 -111.809637 
L 912.374659 -124.257905 
L 917.189053 -99.856973 
L 922.003447 -95.899914 
L 926.817841 -90.553187 
L 931.632235 -88.532989 
L 936.446629 -107.302192 
L 941.261023 -75.784508 
L 946.075417 -120.947314 
L 950.889811 -80.57134 
L 955.704205 -124.513635 
L 960.518598 -75.080867 
L 965.332992 -113.509034 
L 970.147386 -92.440637 
L 974.96178 -109.907024 
L 979.776174 -82.466134 
L 984.590568 -104.391372 
L 989.404962 -70.712518 
L 994.219356 -100.789179 
L 999.03375 -92.209872 
L 1003.848144 -91.463117 
L 1008.662538 -99.632737 
L 1013.476932 -98.036847 
L 1018.291326 -90.30741 
L 1023.10572 -97.172844 
L 1027.920114 -93.499744 
L 1032.734508 -89.267943 
L 1037.548902 -89.580469 
L 1042.363295 -84.409118 
L 1047.177689 -101.114049 
L 1051.992083 -94.306312 
L 1056.806477 -108.411574 
L 1056.806477 -227.877126 
L 1056.806477 -227.877126 
L 1051.992083 -184.802033 
L 1047.177689 -207.585013 
L 1042.363295 -197.139518 
L 1037.548902 -203.498913 
L 1032.734508 -188.242135 
L 1027.920114 -207.213086 
L 1023.10572 -208.471018 
L 1018.291326 -197.626949 
L 1013.476932 -196.352166 
L 1008.662538 -205.956846 
L 1003.848144 -199.329859 
L 999.03375 -211.307409 
L 994.219356 -216.973411 
L 989.404962 -196.526169 
L 984.590568 -224.863491 
L 979.776174 -189.960904 
L 974.96178 -248.088059 
L 970.147386 -204.879025 
L 965.332992 -236.030537 
L 960.518598 -195.453186 
L 955.704205 -224.218174 
L 950.889811 -203.146834 
L 946.075417 -230.334487 
L 941.261023 -221.064751 
L 936.446629 -215.466033 
L 931.632235 -212.481261 
L 926.817841 -215.821088 
L 922.003447 -202.136619 
L 917.189053 -226.49974 
L 912.374659 -245.021545 
L 907.560265 -246.010204 
L 902.745871 -247.101557 
L 897.931477 -272.477803 
L 893.117083 -224.882833 
L 888.302689 -240.346669 
L 883.488295 -185.889076 
L 878.673902 -238.056211 
L 873.859508 -217.042395 
L 869.045114 -252.155143 
L 864.23072 -211.158059 
L 859.416326 -247.656631 
L 854.601932 -237.79097 
L 849.787538 -301.666594 
L 844.973144 -227.165353 
L 840.15875 -260.992695 
L 835.344356 -233.309841 
L 830.529962 -239.871507 
L 825.715568 -249.711395 
L 820.901174 -252.286834 
L 816.08678 -263.841745 
L 811.272386 -233.536824 
L 806.457992 -321.02375 
L 801.643598 -270.146591 
L 796.829205 -258.680651 
L 792.014811 -296.011765 
L 787.200417 -254.429093 
L 782.386023 -264.853599 
z
" style="stroke: #f8dcdc; stroke-opacity: 0.5"/>
    </defs>
    <g clip-path="url(#p627ffcbffb)">
     <use xlink:href="#m2992c5d612" x="0" y="360" style="fill: #f8dcdc; fill-opacity: 0.5; stroke: #f8dcdc; stroke-opacity: 0.5"/>
    </g>
   </g>
   <g id="matplotlib.axis_5">
    <g id="xtick_15">
     <g id="line2d_28">
      <g>
       <use xlink:href="#m4f9812a869" x="772.757235" y="318.04" style="stroke: #000000; stroke-width: 0.8"/>
      </g>
     </g>
     <g id="text_34">
      <!-- 0 -->
      <g transform="translate(769.976766 332.213437) scale(0.1 -0.1)">
       <use xlink:href="#Helvetica-30"/>
      </g>
     </g>
    </g>
    <g id="xtick_16">
     <g id="line2d_29">
      <g>
       <use xlink:href="#m4f9812a869" x="820.901174" y="318.04" style="stroke: #000000; stroke-width: 0.8"/>
      </g>
     </g>
     <g id="text_35">
      <!-- 10 -->
      <g transform="translate(815.340237 332.213437) scale(0.1 -0.1)">
       <use xlink:href="#Helvetica-31"/>
       <use xlink:href="#Helvetica-30" x="55.615234"/>
      </g>
     </g>
    </g>
    <g id="xtick_17">
     <g id="line2d_30">
      <g>
       <use xlink:href="#m4f9812a869" x="869.045114" y="318.04" style="stroke: #000000; stroke-width: 0.8"/>
      </g>
     </g>
     <g id="text_36">
      <!-- 20 -->
      <g transform="translate(863.484176 332.213437) scale(0.1 -0.1)">
       <use xlink:href="#Helvetica-32"/>
       <use xlink:href="#Helvetica-30" x="55.615234"/>
      </g>
     </g>
    </g>
    <g id="xtick_18">
     <g id="line2d_31">
      <g>
       <use xlink:href="#m4f9812a869" x="917.189053" y="318.04" style="stroke: #000000; stroke-width: 0.8"/>
      </g>
     </g>
     <g id="text_37">
      <!-- 30 -->
      <g transform="translate(911.628116 332.213437) scale(0.1 -0.1)">
       <use xlink:href="#Helvetica-33"/>
       <use xlink:href="#Helvetica-30" x="55.615234"/>
      </g>
     </g>
    </g>
    <g id="xtick_19">
     <g id="line2d_32">
      <g>
       <use xlink:href="#m4f9812a869" x="965.332992" y="318.04" style="stroke: #000000; stroke-width: 0.8"/>
      </g>
     </g>
     <g id="text_38">
      <!-- 40 -->
      <g transform="translate(959.772055 332.213437) scale(0.1 -0.1)">
       <use xlink:href="#Helvetica-34"/>
       <use xlink:href="#Helvetica-30" x="55.615234"/>
      </g>
     </g>
    </g>
    <g id="xtick_20">
     <g id="line2d_33">
      <g>
       <use xlink:href="#m4f9812a869" x="1013.476932" y="318.04" style="stroke: #000000; stroke-width: 0.8"/>
      </g>
     </g>
     <g id="text_39">
      <!-- 50 -->
      <g transform="translate(1007.915994 332.213437) scale(0.1 -0.1)">
       <use xlink:href="#Helvetica-35"/>
       <use xlink:href="#Helvetica-30" x="55.615234"/>
      </g>
     </g>
    </g>
    <g id="xtick_21">
     <g id="line2d_34">
      <g>
       <use xlink:href="#m4f9812a869" x="1061.620871" y="318.04" style="stroke: #000000; stroke-width: 0.8"/>
      </g>
     </g>
     <g id="text_40">
      <!-- 60 -->
      <g transform="translate(1056.059934 332.213437) scale(0.1 -0.1)">
       <use xlink:href="#Helvetica-36"/>
       <use xlink:href="#Helvetica-30" x="55.615234"/>
      </g>
     </g>
    </g>
    <g id="text_41">
     <!-- Number of Categories -->
     <g transform="translate(870.688437 345.666562) scale(0.1 -0.1)">
      <use xlink:href="#Helvetica-4e"/>
      <use xlink:href="#Helvetica-75" x="72.216797"/>
      <use xlink:href="#Helvetica-6d" x="127.832031"/>
      <use xlink:href="#Helvetica-62" x="211.132812"/>
      <use xlink:href="#Helvetica-65" x="266.748047"/>
      <use xlink:href="#Helvetica-72" x="322.363281"/>
      <use xlink:href="#Helvetica-20" x="355.664062"/>
      <use xlink:href="#Helvetica-6f" x="383.447266"/>
      <use xlink:href="#Helvetica-66" x="439.0625"/>
      <use xlink:href="#Helvetica-20" x="466.845703"/>
      <use xlink:href="#Helvetica-43" x="494.628906"/>
      <use xlink:href="#Helvetica-61" x="566.845703"/>
      <use xlink:href="#Helvetica-74" x="622.460938"/>
      <use xlink:href="#Helvetica-65" x="650.244141"/>
      <use xlink:href="#Helvetica-67" x="705.859375"/>
      <use xlink:href="#Helvetica-6f" x="761.474609"/>
      <use xlink:href="#Helvetica-72" x="817.089844"/>
      <use xlink:href="#Helvetica-69" x="850.390625"/>
      <use xlink:href="#Helvetica-65" x="872.607422"/>
      <use xlink:href="#Helvetica-73" x="928.222656"/>
     </g>
    </g>
   </g>
   <g id="matplotlib.axis_6">
    <g id="ytick_12">
     <g id="line2d_35">
      <g>
       <use xlink:href="#m614dae5e52" x="768.665" y="311.498252" style="stroke: #000000; stroke-width: 0.8"/>
      </g>
     </g>
     <g id="text_42">
      <!-- 0.015 -->
      <g transform="translate(736.643125 315.084971) scale(0.1 -0.1)">
       <use xlink:href="#Helvetica-30"/>
       <use xlink:href="#Helvetica-2e" x="55.615234"/>
       <use xlink:href="#Helvetica-30" x="83.398438"/>
       <use xlink:href="#Helvetica-31" x="139.013672"/>
       <use xlink:href="#Helvetica-35" x="194.628906"/>
      </g>
     </g>
    </g>
    <g id="ytick_13">
     <g id="line2d_36">
      <g>
       <use xlink:href="#m614dae5e52" x="768.665" y="256.421202" style="stroke: #000000; stroke-width: 0.8"/>
      </g>
     </g>
     <g id="text_43">
      <!-- 0.020 -->
      <g transform="translate(736.643125 260.00792) scale(0.1 -0.1)">
       <use xlink:href="#Helvetica-30"/>
       <use xlink:href="#Helvetica-2e" x="55.615234"/>
       <use xlink:href="#Helvetica-30" x="83.398438"/>
       <use xlink:href="#Helvetica-32" x="139.013672"/>
       <use xlink:href="#Helvetica-30" x="194.628906"/>
      </g>
     </g>
    </g>
    <g id="ytick_14">
     <g id="line2d_37">
      <g>
       <use xlink:href="#m614dae5e52" x="768.665" y="201.344151" style="stroke: #000000; stroke-width: 0.8"/>
      </g>
     </g>
     <g id="text_44">
      <!-- 0.025 -->
      <g transform="translate(736.643125 204.93087) scale(0.1 -0.1)">
       <use xlink:href="#Helvetica-30"/>
       <use xlink:href="#Helvetica-2e" x="55.615234"/>
       <use xlink:href="#Helvetica-30" x="83.398438"/>
       <use xlink:href="#Helvetica-32" x="139.013672"/>
       <use xlink:href="#Helvetica-35" x="194.628906"/>
      </g>
     </g>
    </g>
    <g id="ytick_15">
     <g id="line2d_38">
      <g>
       <use xlink:href="#m614dae5e52" x="768.665" y="146.267101" style="stroke: #000000; stroke-width: 0.8"/>
      </g>
     </g>
     <g id="text_45">
      <!-- 0.030 -->
      <g transform="translate(736.643125 149.85382) scale(0.1 -0.1)">
       <use xlink:href="#Helvetica-30"/>
       <use xlink:href="#Helvetica-2e" x="55.615234"/>
       <use xlink:href="#Helvetica-30" x="83.398438"/>
       <use xlink:href="#Helvetica-33" x="139.013672"/>
       <use xlink:href="#Helvetica-30" x="194.628906"/>
      </g>
     </g>
    </g>
    <g id="ytick_16">
     <g id="line2d_39">
      <g>
       <use xlink:href="#m614dae5e52" x="768.665" y="91.19005" style="stroke: #000000; stroke-width: 0.8"/>
      </g>
     </g>
     <g id="text_46">
      <!-- 0.035 -->
      <g transform="translate(736.643125 94.776769) scale(0.1 -0.1)">
       <use xlink:href="#Helvetica-30"/>
       <use xlink:href="#Helvetica-2e" x="55.615234"/>
       <use xlink:href="#Helvetica-30" x="83.398438"/>
       <use xlink:href="#Helvetica-33" x="139.013672"/>
       <use xlink:href="#Helvetica-35" x="194.628906"/>
      </g>
     </g>
    </g>
    <g id="ytick_17">
     <g id="line2d_40">
      <g>
       <use xlink:href="#m614dae5e52" x="768.665" y="36.113" style="stroke: #000000; stroke-width: 0.8"/>
      </g>
     </g>
     <g id="text_47">
      <!-- 0.040 -->
      <g transform="translate(736.643125 39.699719) scale(0.1 -0.1)">
       <use xlink:href="#Helvetica-30"/>
       <use xlink:href="#Helvetica-2e" x="55.615234"/>
       <use xlink:href="#Helvetica-30" x="83.398438"/>
       <use xlink:href="#Helvetica-34" x="139.013672"/>
       <use xlink:href="#Helvetica-30" x="194.628906"/>
      </g>
     </g>
    </g>
    <g id="text_48">
     <!-- L-Infinity Distance -->
     <g transform="translate(730.499375 211.600469) rotate(-90) scale(0.1 -0.1)">
      <defs>
       <path id="Helvetica-4c" d="M 488 4591 
L 1109 4591 
L 1109 547 
L 3434 547 
L 3434 0 
L 488 0 
L 488 4591 
z
" transform="scale(0.015625)"/>
       <path id="Helvetica-79" d="M 2503 3347 
L 3125 3347 
Q 3006 3025 2597 1878 
Q 2291 1016 2084 472 
Q 1597 -809 1397 -1090 
Q 1197 -1372 709 -1372 
Q 591 -1372 527 -1362 
Q 463 -1353 369 -1328 
L 369 -816 
Q 516 -856 581 -865 
Q 647 -875 697 -875 
Q 853 -875 926 -823 
Q 1000 -772 1050 -697 
Q 1066 -672 1162 -440 
Q 1259 -209 1303 -97 
L 66 3347 
L 703 3347 
L 1600 622 
L 2503 3347 
z
M 1597 3428 
L 1597 3428 
z
" transform="scale(0.015625)"/>
      </defs>
      <use xlink:href="#Helvetica-4c"/>
      <use xlink:href="#Helvetica-2d" x="55.615234"/>
      <use xlink:href="#Helvetica-49" x="88.916016"/>
      <use xlink:href="#Helvetica-6e" x="116.699219"/>
      <use xlink:href="#Helvetica-66" x="172.314453"/>
      <use xlink:href="#Helvetica-69" x="200.097656"/>
      <use xlink:href="#Helvetica-6e" x="222.314453"/>
      <use xlink:href="#Helvetica-69" x="277.929688"/>
      <use xlink:href="#Helvetica-74" x="300.146484"/>
      <use xlink:href="#Helvetica-79" x="327.929688"/>
      <use xlink:href="#Helvetica-20" x="377.929688"/>
      <use xlink:href="#Helvetica-44" x="405.712891"/>
      <use xlink:href="#Helvetica-69" x="477.929688"/>
      <use xlink:href="#Helvetica-73" x="500.146484"/>
      <use xlink:href="#Helvetica-74" x="550.146484"/>
      <use xlink:href="#Helvetica-61" x="577.929688"/>
      <use xlink:href="#Helvetica-6e" x="633.544922"/>
      <use xlink:href="#Helvetica-63" x="689.160156"/>
      <use xlink:href="#Helvetica-65" x="739.160156"/>
     </g>
    </g>
   </g>
   <g id="line2d_41">
    <path d="M 782.386023 196.387217 
L 787.200417 203.437079 
L 792.014811 173.254856 
L 796.829205 184.710882 
L 801.643598 182.177338 
L 806.457992 144.064019 
L 811.272386 197.488758 
L 816.08678 184.38042 
L 820.901174 182.838262 
L 825.715568 184.049957 
L 830.529962 197.26845 
L 835.344356 202.886309 
L 840.15875 174.136088 
L 844.973144 192.862285 
L 849.787538 153.977888 
L 854.601932 183.278879 
L 859.416326 180.63518 
L 864.23072 208.173706 
L 869.045114 168.958846 
L 873.859508 211.918945 
L 878.673902 172.593931 
L 883.488295 209.054938 
L 888.302689 178.542252 
L 893.117083 186.473348 
L 897.931477 173.144701 
L 902.745871 179.864102 
L 907.560265 190.879512 
L 912.374659 176.669633 
L 917.189053 209.605709 
L 922.003447 206.190932 
L 926.817841 215.223568 
L 931.632235 210.046325 
L 936.446629 204.869082 
L 941.261023 212.359561 
L 946.075417 196.387217 
L 950.889811 217.206342 
L 955.704205 190.438895 
L 960.518598 228.001444 
L 965.332992 197.929374 
L 970.147386 215.333722 
L 974.96178 191.209974 
L 979.776174 226.01867 
L 984.590568 196.497371 
L 989.404962 230.424834 
L 994.219356 199.69184 
L 999.03375 221.282043 
L 1003.848144 217.206342 
L 1008.662538 215.774338 
L 1013.476932 219.29927 
L 1018.291326 221.502352 
L 1023.10572 211.698637 
L 1027.920114 211.588483 
L 1032.734508 224.917129 
L 1037.548902 218.087575 
L 1042.363295 220.951581 
L 1047.177689 208.614322 
L 1051.992083 221.061735 
L 1056.806477 196.607525 
" clip-path="url(#p627ffcbffb)" style="fill: none; stroke: #dd4040; stroke-width: 1.5; stroke-linecap: square"/>
   </g>
   <g id="patch_17">
    <path d="M 768.665 318.04 
L 768.665 25.6875 
" style="fill: none; stroke: #000000; stroke-width: 0.8; stroke-linejoin: miter; stroke-linecap: square"/>
   </g>
   <g id="patch_18">
    <path d="M 1070.5275 318.04 
L 1070.5275 25.6875 
" style="fill: none; stroke: #000000; stroke-width: 0.8; stroke-linejoin: miter; stroke-linecap: square"/>
   </g>
   <g id="patch_19">
    <path d="M 768.665 318.04 
L 1070.5275 318.04 
" style="fill: none; stroke: #000000; stroke-width: 0.8; stroke-linejoin: miter; stroke-linecap: square"/>
   </g>
   <g id="patch_20">
    <path d="M 768.665 25.6875 
L 1070.5275 25.6875 
" style="fill: none; stroke: #000000; stroke-width: 0.8; stroke-linejoin: miter; stroke-linecap: square"/>
   </g>
   <g id="text_49">
    <!-- L-Infinity Distance -->
    <g transform="translate(871.912187 19.6875) scale(0.12 -0.12)">
     <use xlink:href="#Helvetica-4c"/>
     <use xlink:href="#Helvetica-2d" x="55.615234"/>
     <use xlink:href="#Helvetica-49" x="88.916016"/>
     <use xlink:href="#Helvetica-6e" x="116.699219"/>
     <use xlink:href="#Helvetica-66" x="172.314453"/>
     <use xlink:href="#Helvetica-69" x="200.097656"/>
     <use xlink:href="#Helvetica-6e" x="222.314453"/>
     <use xlink:href="#Helvetica-69" x="277.929688"/>
     <use xlink:href="#Helvetica-74" x="300.146484"/>
     <use xlink:href="#Helvetica-79" x="327.929688"/>
     <use xlink:href="#Helvetica-20" x="377.929688"/>
     <use xlink:href="#Helvetica-44" x="405.712891"/>
     <use xlink:href="#Helvetica-69" x="477.929688"/>
     <use xlink:href="#Helvetica-73" x="500.146484"/>
     <use xlink:href="#Helvetica-74" x="550.146484"/>
     <use xlink:href="#Helvetica-61" x="577.929688"/>
     <use xlink:href="#Helvetica-6e" x="633.544922"/>
     <use xlink:href="#Helvetica-63" x="689.160156"/>
     <use xlink:href="#Helvetica-65" x="739.160156"/>
    </g>
   </g>
   <g id="legend_3">
    <g id="patch_21">
     <path d="M 984.835312 47.945312 
L 1063.5275 47.945312 
Q 1065.5275 47.945312 1065.5275 45.945312 
L 1065.5275 32.6875 
Q 1065.5275 30.6875 1063.5275 30.6875 
L 984.835312 30.6875 
Q 982.835312 30.6875 982.835312 32.6875 
L 982.835312 45.945312 
Q 982.835312 47.945312 984.835312 47.945312 
z
" style="fill: #ffffff; opacity: 0.8; stroke: #cccccc; stroke-linejoin: miter"/>
    </g>
    <g id="patch_22">
     <path d="M 986.835312 41.860937 
L 1006.835312 41.860937 
L 1006.835312 34.860937 
L 986.835312 34.860937 
z
" style="fill: #f8dcdc; fill-opacity: 0.5; stroke: #f8dcdc; stroke-opacity: 0.5; stroke-linejoin: miter"/>
    </g>
    <g id="text_50">
     <!-- 99.99% CI -->
     <g transform="translate(1014.835312 41.860937) scale(0.1 -0.1)">
      <use xlink:href="#Helvetica-39"/>
      <use xlink:href="#Helvetica-39" x="55.615234"/>
      <use xlink:href="#Helvetica-2e" x="111.230469"/>
      <use xlink:href="#Helvetica-39" x="139.013672"/>
      <use xlink:href="#Helvetica-39" x="194.628906"/>
      <use xlink:href="#Helvetica-25" x="250.244141"/>
      <use xlink:href="#Helvetica-20" x="339.160156"/>
      <use xlink:href="#Helvetica-43" x="366.943359"/>
      <use xlink:href="#Helvetica-49" x="439.160156"/>
     </g>
    </g>
   </g>
  </g>
  <g id="axes_4">
   <g id="patch_23">
    <path d="M 1127.3375 318.04 
L 1429.2 318.04 
L 1429.2 25.6875 
L 1127.3375 25.6875 
z
" style="fill: #ffffff"/>
   </g>
   <g id="PolyCollection_4">
    <defs>
     <path id="me15f204108" d="M 1141.058523 -73.565537 
L 1141.058523 -55.24875 
L 1145.872917 -58.422596 
L 1150.687311 -66.076278 
L 1155.501705 -71.585082 
L 1160.316098 -73.298658 
L 1165.130492 -84.119592 
L 1169.944886 -90.713684 
L 1174.75928 -90.065842 
L 1179.573674 -100.134202 
L 1184.388068 -98.040768 
L 1189.202462 -111.003724 
L 1194.016856 -108.610113 
L 1198.83125 -117.281466 
L 1203.645644 -119.59235 
L 1208.460038 -125.067298 
L 1213.274432 -131.60057 
L 1218.088826 -136.50611 
L 1222.90322 -128.806392 
L 1227.717614 -132.881804 
L 1232.532008 -132.288046 
L 1237.346402 -142.089272 
L 1242.160795 -133.980909 
L 1246.975189 -152.92319 
L 1251.789583 -147.663893 
L 1256.603977 -148.95598 
L 1261.418371 -163.746213 
L 1266.232765 -146.013173 
L 1271.047159 -167.168198 
L 1275.861553 -157.532803 
L 1280.675947 -148.409098 
L 1285.490341 -182.845479 
L 1290.304735 -146.721007 
L 1295.119129 -178.356609 
L 1299.933523 -170.31366 
L 1304.747917 -171.175288 
L 1309.562311 -174.230416 
L 1314.376705 -184.750785 
L 1319.191098 -177.668894 
L 1324.005492 -194.602289 
L 1328.819886 -170.672297 
L 1333.63428 -201.169686 
L 1338.448674 -171.414473 
L 1343.263068 -211.669239 
L 1348.077462 -170.493155 
L 1352.891856 -195.98674 
L 1357.70625 -187.301344 
L 1362.520644 -192.680972 
L 1367.335038 -212.029323 
L 1372.149432 -194.698539 
L 1376.963826 -196.536156 
L 1381.77822 -196.960835 
L 1386.592614 -202.964111 
L 1391.407008 -207.194311 
L 1396.221402 -203.490455 
L 1401.035795 -208.023437 
L 1405.850189 -215.787524 
L 1410.664583 -219.816931 
L 1415.478977 -214.397734 
L 1415.478977 -294.705383 
L 1415.478977 -294.705383 
L 1410.664583 -319.970733 
L 1405.850189 -296.552423 
L 1401.035795 -307.67851 
L 1396.221402 -308.001668 
L 1391.407008 -288.079228 
L 1386.592614 -313.904772 
L 1381.77822 -296.88864 
L 1376.963826 -290.980498 
L 1372.149432 -279.551281 
L 1367.335038 -317.185164 
L 1362.520644 -278.959833 
L 1357.70625 -274.946923 
L 1352.891856 -278.937626 
L 1348.077462 -246.371586 
L 1343.263068 -321.02375 
L 1338.448674 -259.56939 
L 1333.63428 -286.069416 
L 1328.819886 -265.855891 
L 1324.005492 -268.065056 
L 1319.191098 -244.482395 
L 1314.376705 -267.298882 
L 1309.562311 -244.261627 
L 1304.747917 -245.963973 
L 1299.933523 -258.636824 
L 1295.119129 -254.98016 
L 1290.304735 -215.149134 
L 1285.490341 -270.242535 
L 1280.675947 -210.557157 
L 1275.861553 -219.32118 
L 1271.047159 -260.036275 
L 1266.232765 -215.395714 
L 1261.418371 -230.105827 
L 1256.603977 -229.289104 
L 1251.789583 -200.066009 
L 1246.975189 -213.849834 
L 1242.160795 -194.263879 
L 1237.346402 -218.319564 
L 1232.532008 -184.642487 
L 1227.717614 -201.935657 
L 1222.90322 -186.005567 
L 1218.088826 -201.198092 
L 1213.274432 -171.848235 
L 1208.460038 -176.008194 
L 1203.645644 -160.538211 
L 1198.83125 -190.638864 
L 1194.016856 -171.290614 
L 1189.202462 -159.611292 
L 1184.388068 -133.689968 
L 1179.573674 -143.449355 
L 1174.75928 -123.564531 
L 1169.944886 -130.458599 
L 1165.130492 -132.510524 
L 1160.316098 -113.722419 
L 1155.501705 -99.529546 
L 1150.687311 -97.66168 
L 1145.872917 -82.332693 
L 1141.058523 -73.565537 
z
" style="stroke: #f8dcdc; stroke-opacity: 0.5"/>
    </defs>
    <g clip-path="url(#p6bc1db2c36)">
     <use xlink:href="#me15f204108" x="0" y="360" style="fill: #f8dcdc; fill-opacity: 0.5; stroke: #f8dcdc; stroke-opacity: 0.5"/>
    </g>
   </g>
   <g id="matplotlib.axis_7">
    <g id="xtick_22">
     <g id="line2d_42">
      <g>
       <use xlink:href="#m4f9812a869" x="1131.429735" y="318.04" style="stroke: #000000; stroke-width: 0.8"/>
      </g>
     </g>
     <g id="text_51">
      <!-- 0 -->
      <g transform="translate(1128.649266 332.213437) scale(0.1 -0.1)">
       <use xlink:href="#Helvetica-30"/>
      </g>
     </g>
    </g>
    <g id="xtick_23">
     <g id="line2d_43">
      <g>
       <use xlink:href="#m4f9812a869" x="1179.573674" y="318.04" style="stroke: #000000; stroke-width: 0.8"/>
      </g>
     </g>
     <g id="text_52">
      <!-- 10 -->
      <g transform="translate(1174.012737 332.213437) scale(0.1 -0.1)">
       <use xlink:href="#Helvetica-31"/>
       <use xlink:href="#Helvetica-30" x="55.615234"/>
      </g>
     </g>
    </g>
    <g id="xtick_24">
     <g id="line2d_44">
      <g>
       <use xlink:href="#m4f9812a869" x="1227.717614" y="318.04" style="stroke: #000000; stroke-width: 0.8"/>
      </g>
     </g>
     <g id="text_53">
      <!-- 20 -->
      <g transform="translate(1222.156676 332.213437) scale(0.1 -0.1)">
       <use xlink:href="#Helvetica-32"/>
       <use xlink:href="#Helvetica-30" x="55.615234"/>
      </g>
     </g>
    </g>
    <g id="xtick_25">
     <g id="line2d_45">
      <g>
       <use xlink:href="#m4f9812a869" x="1275.861553" y="318.04" style="stroke: #000000; stroke-width: 0.8"/>
      </g>
     </g>
     <g id="text_54">
      <!-- 30 -->
      <g transform="translate(1270.300616 332.213437) scale(0.1 -0.1)">
       <use xlink:href="#Helvetica-33"/>
       <use xlink:href="#Helvetica-30" x="55.615234"/>
      </g>
     </g>
    </g>
    <g id="xtick_26">
     <g id="line2d_46">
      <g>
       <use xlink:href="#m4f9812a869" x="1324.005492" y="318.04" style="stroke: #000000; stroke-width: 0.8"/>
      </g>
     </g>
     <g id="text_55">
      <!-- 40 -->
      <g transform="translate(1318.444555 332.213437) scale(0.1 -0.1)">
       <use xlink:href="#Helvetica-34"/>
       <use xlink:href="#Helvetica-30" x="55.615234"/>
      </g>
     </g>
    </g>
    <g id="xtick_27">
     <g id="line2d_47">
      <g>
       <use xlink:href="#m4f9812a869" x="1372.149432" y="318.04" style="stroke: #000000; stroke-width: 0.8"/>
      </g>
     </g>
     <g id="text_56">
      <!-- 50 -->
      <g transform="translate(1366.588494 332.213437) scale(0.1 -0.1)">
       <use xlink:href="#Helvetica-35"/>
       <use xlink:href="#Helvetica-30" x="55.615234"/>
      </g>
     </g>
    </g>
    <g id="xtick_28">
     <g id="line2d_48">
      <g>
       <use xlink:href="#m4f9812a869" x="1420.293371" y="318.04" style="stroke: #000000; stroke-width: 0.8"/>
      </g>
     </g>
     <g id="text_57">
      <!-- 60 -->
      <g transform="translate(1414.732434 332.213437) scale(0.1 -0.1)">
       <use xlink:href="#Helvetica-36"/>
       <use xlink:href="#Helvetica-30" x="55.615234"/>
      </g>
     </g>
    </g>
    <g id="text_58">
     <!-- Number of Categories -->
     <g transform="translate(1229.360938 345.666562) scale(0.1 -0.1)">
      <use xlink:href="#Helvetica-4e"/>
      <use xlink:href="#Helvetica-75" x="72.216797"/>
      <use xlink:href="#Helvetica-6d" x="127.832031"/>
      <use xlink:href="#Helvetica-62" x="211.132812"/>
      <use xlink:href="#Helvetica-65" x="266.748047"/>
      <use xlink:href="#Helvetica-72" x="322.363281"/>
      <use xlink:href="#Helvetica-20" x="355.664062"/>
      <use xlink:href="#Helvetica-6f" x="383.447266"/>
      <use xlink:href="#Helvetica-66" x="439.0625"/>
      <use xlink:href="#Helvetica-20" x="466.845703"/>
      <use xlink:href="#Helvetica-43" x="494.628906"/>
      <use xlink:href="#Helvetica-61" x="566.845703"/>
      <use xlink:href="#Helvetica-74" x="622.460938"/>
      <use xlink:href="#Helvetica-65" x="650.244141"/>
      <use xlink:href="#Helvetica-67" x="705.859375"/>
      <use xlink:href="#Helvetica-6f" x="761.474609"/>
      <use xlink:href="#Helvetica-72" x="817.089844"/>
      <use xlink:href="#Helvetica-69" x="850.390625"/>
      <use xlink:href="#Helvetica-65" x="872.607422"/>
      <use xlink:href="#Helvetica-73" x="928.222656"/>
     </g>
    </g>
   </g>
   <g id="matplotlib.axis_8">
    <g id="ytick_18">
     <g id="line2d_49">
      <g>
       <use xlink:href="#m614dae5e52" x="1127.3375" y="311.587212" style="stroke: #000000; stroke-width: 0.8"/>
      </g>
     </g>
     <g id="text_59">
      <!-- 0 -->
      <g transform="translate(1114.776563 315.173931) scale(0.1 -0.1)">
       <use xlink:href="#Helvetica-30"/>
      </g>
     </g>
    </g>
    <g id="ytick_19">
     <g id="line2d_50">
      <g>
       <use xlink:href="#m614dae5e52" x="1127.3375" y="273.685728" style="stroke: #000000; stroke-width: 0.8"/>
      </g>
     </g>
     <g id="text_60">
      <!-- 5 -->
      <g transform="translate(1114.776563 277.272447) scale(0.1 -0.1)">
       <use xlink:href="#Helvetica-35"/>
      </g>
     </g>
    </g>
    <g id="ytick_20">
     <g id="line2d_51">
      <g>
       <use xlink:href="#m614dae5e52" x="1127.3375" y="235.784244" style="stroke: #000000; stroke-width: 0.8"/>
      </g>
     </g>
     <g id="text_61">
      <!-- 10 -->
      <g transform="translate(1109.215625 239.370963) scale(0.1 -0.1)">
       <use xlink:href="#Helvetica-31"/>
       <use xlink:href="#Helvetica-30" x="55.615234"/>
      </g>
     </g>
    </g>
    <g id="ytick_21">
     <g id="line2d_52">
      <g>
       <use xlink:href="#m614dae5e52" x="1127.3375" y="197.88276" style="stroke: #000000; stroke-width: 0.8"/>
      </g>
     </g>
     <g id="text_62">
      <!-- 15 -->
      <g transform="translate(1109.215625 201.469479) scale(0.1 -0.1)">
       <use xlink:href="#Helvetica-31"/>
       <use xlink:href="#Helvetica-35" x="55.615234"/>
      </g>
     </g>
    </g>
    <g id="ytick_22">
     <g id="line2d_53">
      <g>
       <use xlink:href="#m614dae5e52" x="1127.3375" y="159.981276" style="stroke: #000000; stroke-width: 0.8"/>
      </g>
     </g>
     <g id="text_63">
      <!-- 20 -->
      <g transform="translate(1109.215625 163.567995) scale(0.1 -0.1)">
       <use xlink:href="#Helvetica-32"/>
       <use xlink:href="#Helvetica-30" x="55.615234"/>
      </g>
     </g>
    </g>
    <g id="ytick_23">
     <g id="line2d_54">
      <g>
       <use xlink:href="#m614dae5e52" x="1127.3375" y="122.079792" style="stroke: #000000; stroke-width: 0.8"/>
      </g>
     </g>
     <g id="text_64">
      <!-- 25 -->
      <g transform="translate(1109.215625 125.66651) scale(0.1 -0.1)">
       <use xlink:href="#Helvetica-32"/>
       <use xlink:href="#Helvetica-35" x="55.615234"/>
      </g>
     </g>
    </g>
    <g id="ytick_24">
     <g id="line2d_55">
      <g>
       <use xlink:href="#m614dae5e52" x="1127.3375" y="84.178308" style="stroke: #000000; stroke-width: 0.8"/>
      </g>
     </g>
     <g id="text_65">
      <!-- 30 -->
      <g transform="translate(1109.215625 87.765026) scale(0.1 -0.1)">
       <use xlink:href="#Helvetica-33"/>
       <use xlink:href="#Helvetica-30" x="55.615234"/>
      </g>
     </g>
    </g>
    <g id="ytick_25">
     <g id="line2d_56">
      <g>
       <use xlink:href="#m614dae5e52" x="1127.3375" y="46.276824" style="stroke: #000000; stroke-width: 0.8"/>
      </g>
     </g>
     <g id="text_66">
      <!-- 35 -->
      <g transform="translate(1109.215625 49.863542) scale(0.1 -0.1)">
       <use xlink:href="#Helvetica-33"/>
       <use xlink:href="#Helvetica-35" x="55.615234"/>
      </g>
     </g>
    </g>
    <g id="text_67">
     <!-- Chi-Squared Statistic -->
     <g transform="translate(1103.13125 218.827031) rotate(-90) scale(0.1 -0.1)">
      <defs>
       <path id="Helvetica-71" d="M 775 1628 
Q 775 1194 897 900 
Q 1113 378 1669 378 
Q 2256 378 2478 928 
Q 2600 1231 2600 1703 
Q 2600 2138 2466 2428 
Q 2238 2925 1663 2925 
Q 1297 2925 1036 2608 
Q 775 2291 775 1628 
z
M 1606 3422 
Q 2022 3422 2306 3213 
Q 2463 3100 2606 2881 
L 2606 3347 
L 3141 3347 
L 3141 -1334 
L 2575 -1334 
L 2575 384 
Q 2434 159 2186 26 
Q 1938 -106 1566 -106 
Q 1031 -106 609 312 
Q 188 731 188 1588 
Q 188 2391 583 2906 
Q 978 3422 1606 3422 
z
" transform="scale(0.015625)"/>
       <path id="Helvetica-64" d="M 769 1634 
Q 769 1097 997 734 
Q 1225 372 1728 372 
Q 2119 372 2370 708 
Q 2622 1044 2622 1672 
Q 2622 2306 2362 2611 
Q 2103 2916 1722 2916 
Q 1297 2916 1033 2591 
Q 769 2266 769 1634 
z
M 1616 3406 
Q 2000 3406 2259 3244 
Q 2409 3150 2600 2916 
L 2600 4606 
L 3141 4606 
L 3141 0 
L 2634 0 
L 2634 466 
Q 2438 156 2169 18 
Q 1900 -119 1553 -119 
Q 994 -119 584 351 
Q 175 822 175 1603 
Q 175 2334 548 2870 
Q 922 3406 1616 3406 
z
" transform="scale(0.015625)"/>
      </defs>
      <use xlink:href="#Helvetica-43"/>
      <use xlink:href="#Helvetica-68" x="72.216797"/>
      <use xlink:href="#Helvetica-69" x="127.832031"/>
      <use xlink:href="#Helvetica-2d" x="150.048828"/>
      <use xlink:href="#Helvetica-53" x="183.349609"/>
      <use xlink:href="#Helvetica-71" x="250.048828"/>
      <use xlink:href="#Helvetica-75" x="305.664062"/>
      <use xlink:href="#Helvetica-61" x="361.279297"/>
      <use xlink:href="#Helvetica-72" x="416.894531"/>
      <use xlink:href="#Helvetica-65" x="450.195312"/>
      <use xlink:href="#Helvetica-64" x="505.810547"/>
      <use xlink:href="#Helvetica-20" x="561.425781"/>
      <use xlink:href="#Helvetica-53" x="589.208984"/>
      <use xlink:href="#Helvetica-74" x="655.908203"/>
      <use xlink:href="#Helvetica-61" x="683.691406"/>
      <use xlink:href="#Helvetica-74" x="739.306641"/>
      <use xlink:href="#Helvetica-69" x="767.089844"/>
      <use xlink:href="#Helvetica-73" x="789.306641"/>
      <use xlink:href="#Helvetica-74" x="839.306641"/>
      <use xlink:href="#Helvetica-69" x="867.089844"/>
      <use xlink:href="#Helvetica-63" x="889.306641"/>
     </g>
    </g>
   </g>
   <g id="line2d_57">
    <path d="M 1141.058523 297.288309 
L 1145.872917 291.03953 
L 1150.687311 280.817798 
L 1155.501705 273.383103 
L 1160.316098 270.426608 
L 1165.130492 254.914864 
L 1169.944886 253.444107 
L 1174.75928 252.975932 
L 1179.573674 241.156416 
L 1184.388068 246.148189 
L 1189.202462 225.575563 
L 1194.016856 226.481717 
L 1198.83125 216.923481 
L 1203.645644 220.47601 
L 1208.460038 214.061021 
L 1213.274432 209.895691 
L 1218.088826 189.952326 
L 1222.90322 210.939032 
L 1227.717614 188.948696 
L 1232.532008 200.798736 
L 1237.346402 192.954842 
L 1242.160795 196.83663 
L 1246.975189 183.779044 
L 1251.789583 186.192887 
L 1256.603977 179.323057 
L 1261.418371 167.392961 
L 1266.232765 182.231864 
L 1271.047159 159.311283 
L 1275.861553 166.387306 
L 1280.675947 182.596774 
L 1285.490341 145.813456 
L 1290.304735 177.689293 
L 1295.119129 149.50251 
L 1299.933523 149.686328 
L 1304.747917 157.810684 
L 1309.562311 154.030675 
L 1314.376705 143.675258 
L 1319.191098 158.731823 
L 1324.005492 136.877073 
L 1328.819886 145.711308 
L 1333.63428 131.424931 
L 1338.448674 143.273431 
L 1343.263068 112.918386 
L 1348.077462 150.400402 
L 1352.891856 129.950499 
L 1357.70625 138.855024 
L 1362.520644 129.316646 
L 1367.335038 106.547261 
L 1372.149432 128.334616 
L 1376.963826 122.708026 
L 1381.77822 116.734631 
L 1386.592614 117.330128 
L 1391.407008 117.013615 
L 1396.221402 118.56826 
L 1401.035795 116.630641 
L 1405.850189 107.294651 
L 1410.664583 96.240943 
L 1415.478977 108.492498 
" clip-path="url(#p6bc1db2c36)" style="fill: none; stroke: #dd4040; stroke-width: 1.5; stroke-linecap: square"/>
   </g>
   <g id="patch_24">
    <path d="M 1127.3375 318.04 
L 1127.3375 25.6875 
" style="fill: none; stroke: #000000; stroke-width: 0.8; stroke-linejoin: miter; stroke-linecap: square"/>
   </g>
   <g id="patch_25">
    <path d="M 1429.2 318.04 
L 1429.2 25.6875 
" style="fill: none; stroke: #000000; stroke-width: 0.8; stroke-linejoin: miter; stroke-linecap: square"/>
   </g>
   <g id="patch_26">
    <path d="M 1127.3375 318.04 
L 1429.2 318.04 
" style="fill: none; stroke: #000000; stroke-width: 0.8; stroke-linejoin: miter; stroke-linecap: square"/>
   </g>
   <g id="patch_27">
    <path d="M 1127.3375 25.6875 
L 1429.2 25.6875 
" style="fill: none; stroke: #000000; stroke-width: 0.8; stroke-linejoin: miter; stroke-linecap: square"/>
   </g>
   <g id="text_68">
    <!-- Chi-Squared Statistic -->
    <g transform="translate(1221.912813 19.6875) scale(0.12 -0.12)">
     <use xlink:href="#Helvetica-43"/>
     <use xlink:href="#Helvetica-68" x="72.216797"/>
     <use xlink:href="#Helvetica-69" x="127.832031"/>
     <use xlink:href="#Helvetica-2d" x="150.048828"/>
     <use xlink:href="#Helvetica-53" x="183.349609"/>
     <use xlink:href="#Helvetica-71" x="250.048828"/>
     <use xlink:href="#Helvetica-75" x="305.664062"/>
     <use xlink:href="#Helvetica-61" x="361.279297"/>
     <use xlink:href="#Helvetica-72" x="416.894531"/>
     <use xlink:href="#Helvetica-65" x="450.195312"/>
     <use xlink:href="#Helvetica-64" x="505.810547"/>
     <use xlink:href="#Helvetica-20" x="561.425781"/>
     <use xlink:href="#Helvetica-53" x="589.208984"/>
     <use xlink:href="#Helvetica-74" x="655.908203"/>
     <use xlink:href="#Helvetica-61" x="683.691406"/>
     <use xlink:href="#Helvetica-74" x="739.306641"/>
     <use xlink:href="#Helvetica-69" x="767.089844"/>
     <use xlink:href="#Helvetica-73" x="789.306641"/>
     <use xlink:href="#Helvetica-74" x="839.306641"/>
     <use xlink:href="#Helvetica-69" x="867.089844"/>
     <use xlink:href="#Helvetica-63" x="889.306641"/>
    </g>
   </g>
   <g id="legend_4">
    <g id="patch_28">
     <path d="M 1343.507812 47.945312 
L 1422.2 47.945312 
Q 1424.2 47.945312 1424.2 45.945312 
L 1424.2 32.6875 
Q 1424.2 30.6875 1422.2 30.6875 
L 1343.507812 30.6875 
Q 1341.507812 30.6875 1341.507812 32.6875 
L 1341.507812 45.945312 
Q 1341.507812 47.945312 1343.507812 47.945312 
z
" style="fill: #ffffff; opacity: 0.8; stroke: #cccccc; stroke-linejoin: miter"/>
    </g>
    <g id="patch_29">
     <path d="M 1345.507812 41.860937 
L 1365.507812 41.860937 
L 1365.507812 34.860937 
L 1345.507812 34.860937 
z
" style="fill: #f8dcdc; fill-opacity: 0.5; stroke: #f8dcdc; stroke-opacity: 0.5; stroke-linejoin: miter"/>
    </g>
    <g id="text_69">
     <!-- 99.99% CI -->
     <g transform="translate(1373.507812 41.860937) scale(0.1 -0.1)">
      <use xlink:href="#Helvetica-39"/>
      <use xlink:href="#Helvetica-39" x="55.615234"/>
      <use xlink:href="#Helvetica-2e" x="111.230469"/>
      <use xlink:href="#Helvetica-39" x="139.013672"/>
      <use xlink:href="#Helvetica-39" x="194.628906"/>
      <use xlink:href="#Helvetica-25" x="250.244141"/>
      <use xlink:href="#Helvetica-20" x="339.160156"/>
      <use xlink:href="#Helvetica-43" x="366.943359"/>
      <use xlink:href="#Helvetica-49" x="439.160156"/>
     </g>
    </g>
   </g>
  </g>
 </g>
 <defs>
  <clipPath id="p554dc7ee1c">
   <rect x="51.32" y="25.6875" width="301.8625" height="292.3525"/>
  </clipPath>
  <clipPath id="pe36c0cf4e4">
   <rect x="409.9925" y="25.6875" width="301.8625" height="292.3525"/>
  </clipPath>
  <clipPath id="p627ffcbffb">
   <rect x="768.665" y="25.6875" width="301.8625" height="292.3525"/>
  </clipPath>
  <clipPath id="p6bc1db2c36">
   <rect x="1127.3375" y="25.6875" width="301.8625" height="292.3525"/>
  </clipPath>
 </defs>
</svg>
