<?xml version="1.0" encoding="utf-8" standalone="no"?>
<!DOCTYPE svg PUBLIC "-//W3C//DTD SVG 1.1//EN"
  "http://www.w3.org/Graphics/SVG/1.1/DTD/svg11.dtd">
<svg xmlns:xlink="http://www.w3.org/1999/xlink" width="864pt" height="216pt" viewBox="0 0 864 216" xmlns="http://www.w3.org/2000/svg" version="1.1">
 <metadata>
  <rdf:RDF xmlns:dc="http://purl.org/dc/elements/1.1/" xmlns:cc="http://creativecommons.org/ns#" xmlns:rdf="http://www.w3.org/1999/02/22-rdf-syntax-ns#">
   <cc:Work>
    <dc:type rdf:resource="http://purl.org/dc/dcmitype/StillImage"/>
    <dc:date>2022-12-09T17:37:49.440551</dc:date>
    <dc:format>image/svg+xml</dc:format>
    <dc:creator>
     <cc:Agent>
      <dc:title>Matplotlib v3.5.3, https://matplotlib.org/</dc:title>
     </cc:Agent>
    </dc:creator>
   </cc:Work>
  </rdf:RDF>
 </metadata>
 <defs>
  <style type="text/css">*{stroke-linejoin: round; stroke-linecap: butt}</style>
 </defs>
 <g id="figure_1">
  <g id="patch_1">
   <path d="M 0 216 
L 864 216 
L 864 0 
L 0 0 
z
" style="fill: #ffffff"/>
  </g>
  <g id="axes_1">
   <g id="patch_2">
    <path d="M 56.9 174.04 
L 216.289986 174.04 
L 216.289986 25.6875 
L 56.9 25.6875 
z
" style="fill: #ffffff"/>
   </g>
   <g id="PolyCollection_1">
    <defs>
     <path id="me3319d5ae6" d="M 64.144999 -110.55616 
L 64.144999 -48.703295 
L 66.687104 -53.052588 
L 69.229209 -57.38875 
L 71.771315 -60.143076 
L 74.31342 -65.527462 
L 76.855525 -68.609516 
L 79.39763 -73.009034 
L 81.939735 -77.399177 
L 84.48184 -81.501729 
L 87.023945 -80.133139 
L 89.56605 -86.967345 
L 92.108155 -88.966758 
L 94.65026 -86.997901 
L 97.192365 -89.42763 
L 99.73447 -92.345569 
L 102.276575 -90.971837 
L 104.81868 -92.743727 
L 107.360785 -93.756923 
L 109.90289 -94.217545 
L 112.444995 -96.682239 
L 114.9871 -96.577396 
L 117.529205 -97.799835 
L 120.07131 -98.569263 
L 122.613415 -100.108027 
L 125.155521 -99.135667 
L 127.697626 -101.531341 
L 130.239731 -101.902308 
L 132.781836 -101.148714 
L 135.323941 -102.944687 
L 137.866046 -103.034903 
L 140.408151 -103.055838 
L 142.950256 -104.409134 
L 145.492361 -106.430514 
L 148.034466 -107.277973 
L 150.576571 -105.858139 
L 153.118676 -108.088198 
L 155.660781 -106.766787 
L 158.202886 -108.235848 
L 160.744991 -108.448653 
L 163.287096 -107.539862 
L 165.829201 -108.812249 
L 168.371306 -109.139902 
L 170.913411 -111.274128 
L 173.455516 -110.052342 
L 175.997621 -112.733939 
L 178.539727 -109.63811 
L 181.081832 -111.933263 
L 183.623937 -111.354478 
L 186.166042 -113.360709 
L 188.708147 -113.477742 
L 191.250252 -113.331458 
L 193.792357 -112.90963 
L 196.334462 -115.842674 
L 198.876567 -113.466077 
L 201.418672 -116.902123 
L 203.960777 -114.647686 
L 206.502882 -117.71613 
L 209.044987 -114.912533 
L 209.044987 -183.569205 
L 209.044987 -183.569205 
L 206.502882 -181.35155 
L 203.960777 -182.430827 
L 201.418672 -179.170537 
L 198.876567 -180.300214 
L 196.334462 -178.395062 
L 193.792357 -181.760285 
L 191.250252 -178.96839 
L 188.708147 -179.749438 
L 186.166042 -179.175162 
L 183.623937 -177.738305 
L 181.081832 -180.069759 
L 178.539727 -176.687125 
L 175.997621 -177.073608 
L 173.455516 -174.588347 
L 170.913411 -177.048078 
L 168.371306 -177.273219 
L 165.829201 -174.731724 
L 163.287096 -177.108586 
L 160.744991 -174.287064 
L 158.202886 -171.471569 
L 155.660781 -171.295386 
L 153.118676 -172.510781 
L 150.576571 -170.985439 
L 148.034466 -171.042312 
L 145.492361 -169.715191 
L 142.950256 -169.104796 
L 140.408151 -168.344834 
L 137.866046 -167.885017 
L 135.323941 -167.491846 
L 132.781836 -167.922118 
L 130.239731 -168.464621 
L 127.697626 -164.611359 
L 125.155521 -166.342792 
L 122.613415 -162.964281 
L 120.07131 -163.977377 
L 117.529205 -162.185055 
L 114.9871 -161.304128 
L 112.444995 -161.640547 
L 109.90289 -160.909341 
L 107.360785 -160.083701 
L 104.81868 -161.060468 
L 102.276575 -155.791952 
L 99.73447 -155.053956 
L 97.192365 -154.004584 
L 94.65026 -151.202489 
L 92.108155 -151.979882 
L 89.56605 -150.104411 
L 87.023945 -148.31219 
L 84.48184 -144.635576 
L 81.939735 -145.120815 
L 79.39763 -140.129547 
L 76.855525 -139.062467 
L 74.31342 -134.104631 
L 71.771315 -130.386815 
L 69.229209 -126.166655 
L 66.687104 -119.441662 
L 64.144999 -110.55616 
z
" style="stroke: #f8dcdc; stroke-opacity: 0.5"/>
    </defs>
    <g clip-path="url(#p9dad788ed7)">
     <use xlink:href="#me3319d5ae6" x="0" y="216" style="fill: #f8dcdc; fill-opacity: 0.5; stroke: #f8dcdc; stroke-opacity: 0.5"/>
    </g>
   </g>
   <g id="matplotlib.axis_1">
    <g id="xtick_1">
     <g id="line2d_1">
      <defs>
       <path id="mf6ae2c54b0" d="M 0 0 
L 0 3.5 
" style="stroke: #000000; stroke-width: 0.8"/>
      </defs>
      <g>
       <use xlink:href="#mf6ae2c54b0" x="59.060789" y="174.04" style="stroke: #000000; stroke-width: 0.8"/>
      </g>
     </g>
     <g id="text_1">
      <!-- 0 -->
      <g transform="translate(56.280321 188.213437)scale(0.1 -0.1)">
       <defs>
        <path id="Helvetica-30" d="M 1731 4475 
Q 2600 4475 2988 3759 
Q 3288 3206 3288 2244 
Q 3288 1331 3016 734 
Q 2622 -122 1728 -122 
Q 922 -122 528 578 
Q 200 1163 200 2147 
Q 200 2909 397 3456 
Q 766 4475 1731 4475 
z
M 1725 391 
Q 2163 391 2422 778 
Q 2681 1166 2681 2222 
Q 2681 2984 2493 3476 
Q 2306 3969 1766 3969 
Q 1269 3969 1039 3501 
Q 809 3034 809 2125 
Q 809 1441 956 1025 
Q 1181 391 1725 391 
z
" transform="scale(0.015625)"/>
       </defs>
       <use xlink:href="#Helvetica-30"/>
      </g>
     </g>
    </g>
    <g id="xtick_2">
     <g id="line2d_2">
      <g>
       <use xlink:href="#mf6ae2c54b0" x="109.90289" y="174.04" style="stroke: #000000; stroke-width: 0.8"/>
      </g>
     </g>
     <g id="text_2">
      <!-- 20 -->
      <g transform="translate(104.341953 188.213437)scale(0.1 -0.1)">
       <defs>
        <path id="Helvetica-32" d="M 200 0 
Q 231 578 439 1006 
Q 647 1434 1250 1784 
L 1850 2131 
Q 2253 2366 2416 2531 
Q 2672 2791 2672 3125 
Q 2672 3516 2437 3745 
Q 2203 3975 1813 3975 
Q 1234 3975 1013 3538 
Q 894 3303 881 2888 
L 309 2888 
Q 319 3472 525 3841 
Q 891 4491 1816 4491 
Q 2584 4491 2939 4075 
Q 3294 3659 3294 3150 
Q 3294 2613 2916 2231 
Q 2697 2009 2131 1694 
L 1703 1456 
Q 1397 1288 1222 1134 
Q 909 863 828 531 
L 3272 531 
L 3272 0 
L 200 0 
z
" transform="scale(0.015625)"/>
       </defs>
       <use xlink:href="#Helvetica-32"/>
       <use xlink:href="#Helvetica-30" x="55.615234"/>
      </g>
     </g>
    </g>
    <g id="xtick_3">
     <g id="line2d_3">
      <g>
       <use xlink:href="#mf6ae2c54b0" x="160.744991" y="174.04" style="stroke: #000000; stroke-width: 0.8"/>
      </g>
     </g>
     <g id="text_3">
      <!-- 40 -->
      <g transform="translate(155.184054 188.213437)scale(0.1 -0.1)">
       <defs>
        <path id="Helvetica-34" d="M 2116 1584 
L 2116 3613 
L 681 1584 
L 2116 1584 
z
M 2125 0 
L 2125 1094 
L 163 1094 
L 163 1644 
L 2213 4488 
L 2688 4488 
L 2688 1584 
L 3347 1584 
L 3347 1094 
L 2688 1094 
L 2688 0 
L 2125 0 
z
" transform="scale(0.015625)"/>
       </defs>
       <use xlink:href="#Helvetica-34"/>
       <use xlink:href="#Helvetica-30" x="55.615234"/>
      </g>
     </g>
    </g>
    <g id="xtick_4">
     <g id="line2d_4">
      <g>
       <use xlink:href="#mf6ae2c54b0" x="211.587092" y="174.04" style="stroke: #000000; stroke-width: 0.8"/>
      </g>
     </g>
     <g id="text_4">
      <!-- 60 -->
      <g transform="translate(206.026155 188.213437)scale(0.1 -0.1)">
       <defs>
        <path id="Helvetica-36" d="M 1872 4494 
Q 2622 4494 2917 4105 
Q 3213 3716 3213 3303 
L 2656 3303 
Q 2606 3569 2497 3719 
Q 2294 4000 1881 4000 
Q 1409 4000 1131 3564 
Q 853 3128 822 2316 
Q 1016 2600 1309 2741 
Q 1578 2866 1909 2866 
Q 2472 2866 2890 2506 
Q 3309 2147 3309 1434 
Q 3309 825 2912 354 
Q 2516 -116 1781 -116 
Q 1153 -116 697 361 
Q 241 838 241 1966 
Q 241 2800 444 3381 
Q 834 4494 1872 4494 
z
M 1831 384 
Q 2275 384 2495 682 
Q 2716 981 2716 1388 
Q 2716 1731 2519 2042 
Q 2322 2353 1803 2353 
Q 1441 2353 1167 2112 
Q 894 1872 894 1388 
Q 894 963 1142 673 
Q 1391 384 1831 384 
z
" transform="scale(0.015625)"/>
       </defs>
       <use xlink:href="#Helvetica-36"/>
       <use xlink:href="#Helvetica-30" x="55.615234"/>
      </g>
     </g>
    </g>
    <g id="text_5">
     <!-- Number of Categories -->
     <g transform="translate(87.687181 201.666562)scale(0.1 -0.1)">
      <defs>
       <path id="Helvetica-4e" d="M 488 4591 
L 1222 4591 
L 3541 872 
L 3541 4591 
L 4131 4591 
L 4131 0 
L 3434 0 
L 1081 3716 
L 1081 0 
L 488 0 
L 488 4591 
z
M 2269 4591 
L 2269 4591 
z
" transform="scale(0.015625)"/>
       <path id="Helvetica-75" d="M 975 3347 
L 975 1125 
Q 975 869 1056 706 
Q 1206 406 1616 406 
Q 2203 406 2416 931 
Q 2531 1213 2531 1703 
L 2531 3347 
L 3094 3347 
L 3094 0 
L 2563 0 
L 2569 494 
Q 2459 303 2297 172 
Q 1975 -91 1516 -91 
Q 800 -91 541 388 
Q 400 644 400 1072 
L 400 3347 
L 975 3347 
z
M 1747 3428 
L 1747 3428 
z
" transform="scale(0.015625)"/>
       <path id="Helvetica-6d" d="M 413 3347 
L 969 3347 
L 969 2872 
Q 1169 3119 1331 3231 
Q 1609 3422 1963 3422 
Q 2363 3422 2606 3225 
Q 2744 3113 2856 2894 
Q 3044 3163 3297 3292 
Q 3550 3422 3866 3422 
Q 4541 3422 4784 2934 
Q 4916 2672 4916 2228 
L 4916 0 
L 4331 0 
L 4331 2325 
Q 4331 2659 4164 2784 
Q 3997 2909 3756 2909 
Q 3425 2909 3186 2687 
Q 2947 2466 2947 1947 
L 2947 0 
L 2375 0 
L 2375 2184 
Q 2375 2525 2294 2681 
Q 2166 2916 1816 2916 
Q 1497 2916 1236 2669 
Q 975 2422 975 1775 
L 975 0 
L 413 0 
L 413 3347 
z
" transform="scale(0.015625)"/>
       <path id="Helvetica-62" d="M 369 4606 
L 916 4606 
L 916 2941 
Q 1100 3181 1356 3307 
Q 1613 3434 1913 3434 
Q 2538 3434 2927 3004 
Q 3316 2575 3316 1738 
Q 3316 944 2931 419 
Q 2547 -106 1866 -106 
Q 1484 -106 1222 78 
Q 1066 188 888 428 
L 888 0 
L 369 0 
L 369 4606 
z
M 1831 391 
Q 2288 391 2514 753 
Q 2741 1116 2741 1709 
Q 2741 2238 2514 2584 
Q 2288 2931 1847 2931 
Q 1463 2931 1173 2647 
Q 884 2363 884 1709 
Q 884 1238 1003 944 
Q 1225 391 1831 391 
z
" transform="scale(0.015625)"/>
       <path id="Helvetica-65" d="M 1806 3422 
Q 2163 3422 2497 3255 
Q 2831 3088 3006 2822 
Q 3175 2569 3231 2231 
Q 3281 2000 3281 1494 
L 828 1494 
Q 844 984 1069 676 
Q 1294 369 1766 369 
Q 2206 369 2469 659 
Q 2619 828 2681 1050 
L 3234 1050 
Q 3213 866 3089 639 
Q 2966 413 2813 269 
Q 2556 19 2178 -69 
Q 1975 -119 1719 -119 
Q 1094 -119 659 336 
Q 225 791 225 1609 
Q 225 2416 662 2919 
Q 1100 3422 1806 3422 
z
M 2703 1941 
Q 2669 2306 2544 2525 
Q 2313 2931 1772 2931 
Q 1384 2931 1121 2651 
Q 859 2372 844 1941 
L 2703 1941 
z
M 1753 3428 
L 1753 3428 
z
" transform="scale(0.015625)"/>
       <path id="Helvetica-72" d="M 428 3347 
L 963 3347 
L 963 2769 
Q 1028 2938 1284 3180 
Q 1541 3422 1875 3422 
Q 1891 3422 1928 3419 
Q 1966 3416 2056 3406 
L 2056 2813 
Q 2006 2822 1964 2825 
Q 1922 2828 1872 2828 
Q 1447 2828 1219 2554 
Q 991 2281 991 1925 
L 991 0 
L 428 0 
L 428 3347 
z
" transform="scale(0.015625)"/>
       <path id="Helvetica-20" transform="scale(0.015625)"/>
       <path id="Helvetica-6f" d="M 1741 363 
Q 2300 363 2508 786 
Q 2716 1209 2716 1728 
Q 2716 2197 2566 2491 
Q 2328 2953 1747 2953 
Q 1231 2953 997 2559 
Q 763 2166 763 1609 
Q 763 1075 997 719 
Q 1231 363 1741 363 
z
M 1763 3444 
Q 2409 3444 2856 3012 
Q 3303 2581 3303 1744 
Q 3303 934 2909 406 
Q 2516 -122 1688 -122 
Q 997 -122 590 345 
Q 184 813 184 1600 
Q 184 2444 612 2944 
Q 1041 3444 1763 3444 
z
M 1744 3428 
L 1744 3428 
z
" transform="scale(0.015625)"/>
       <path id="Helvetica-66" d="M 553 3856 
Q 566 4206 675 4369 
Q 872 4656 1434 4656 
Q 1488 4656 1544 4653 
Q 1600 4650 1672 4644 
L 1672 4131 
Q 1584 4138 1545 4139 
Q 1506 4141 1472 4141 
Q 1216 4141 1166 4008 
Q 1116 3875 1116 3331 
L 1672 3331 
L 1672 2888 
L 1109 2888 
L 1109 0 
L 553 0 
L 553 2888 
L 88 2888 
L 88 3331 
L 553 3331 
L 553 3856 
z
" transform="scale(0.015625)"/>
       <path id="Helvetica-43" d="M 2422 4716 
Q 3294 4716 3775 4256 
Q 4256 3797 4309 3213 
L 3703 3213 
Q 3600 3656 3292 3915 
Q 2984 4175 2428 4175 
Q 1750 4175 1333 3698 
Q 916 3222 916 2238 
Q 916 1431 1292 929 
Q 1669 428 2416 428 
Q 3103 428 3463 956 
Q 3653 1234 3747 1688 
L 4353 1688 
Q 4272 963 3816 472 
Q 3269 -119 2341 -119 
Q 1541 -119 997 366 
Q 281 1006 281 2344 
Q 281 3359 819 4009 
Q 1400 4716 2422 4716 
z
M 2297 4716 
L 2297 4716 
z
" transform="scale(0.015625)"/>
       <path id="Helvetica-61" d="M 844 891 
Q 844 647 1022 506 
Q 1200 366 1444 366 
Q 1741 366 2019 503 
Q 2488 731 2488 1250 
L 2488 1703 
Q 2384 1638 2221 1594 
Q 2059 1550 1903 1531 
L 1563 1488 
Q 1256 1447 1103 1359 
Q 844 1213 844 891 
z
M 2206 2028 
Q 2400 2053 2466 2191 
Q 2503 2266 2503 2406 
Q 2503 2694 2298 2823 
Q 2094 2953 1713 2953 
Q 1272 2953 1088 2716 
Q 984 2584 953 2325 
L 428 2325 
Q 444 2944 830 3186 
Q 1216 3428 1725 3428 
Q 2316 3428 2684 3203 
Q 3050 2978 3050 2503 
L 3050 575 
Q 3050 488 3086 434 
Q 3122 381 3238 381 
Q 3275 381 3322 386 
Q 3369 391 3422 400 
L 3422 -16 
Q 3291 -53 3222 -62 
Q 3153 -72 3034 -72 
Q 2744 -72 2613 134 
Q 2544 244 2516 444 
Q 2344 219 2022 53 
Q 1700 -113 1313 -113 
Q 847 -113 551 170 
Q 256 453 256 878 
Q 256 1344 547 1600 
Q 838 1856 1309 1916 
L 2206 2028 
z
M 1741 3428 
L 1741 3428 
z
" transform="scale(0.015625)"/>
       <path id="Helvetica-74" d="M 525 4281 
L 1094 4281 
L 1094 3347 
L 1628 3347 
L 1628 2888 
L 1094 2888 
L 1094 703 
Q 1094 528 1213 469 
Q 1278 434 1431 434 
Q 1472 434 1519 436 
Q 1566 438 1628 444 
L 1628 0 
Q 1531 -28 1426 -40 
Q 1322 -53 1200 -53 
Q 806 -53 665 148 
Q 525 350 525 672 
L 525 2888 
L 72 2888 
L 72 3347 
L 525 3347 
L 525 4281 
z
" transform="scale(0.015625)"/>
       <path id="Helvetica-67" d="M 1594 3406 
Q 1988 3406 2281 3213 
Q 2441 3103 2606 2894 
L 2606 3316 
L 3125 3316 
L 3125 272 
Q 3125 -366 2938 -734 
Q 2588 -1416 1616 -1416 
Q 1075 -1416 706 -1173 
Q 338 -931 294 -416 
L 866 -416 
Q 906 -641 1028 -763 
Q 1219 -950 1628 -950 
Q 2275 -950 2475 -494 
Q 2594 -225 2584 466 
Q 2416 209 2178 84 
Q 1941 -41 1550 -41 
Q 1006 -41 598 345 
Q 191 731 191 1622 
Q 191 2463 602 2934 
Q 1013 3406 1594 3406 
z
M 2606 1688 
Q 2606 2309 2350 2609 
Q 2094 2909 1697 2909 
Q 1103 2909 884 2353 
Q 769 2056 769 1575 
Q 769 1009 998 714 
Q 1228 419 1616 419 
Q 2222 419 2469 966 
Q 2606 1275 2606 1688 
z
M 1659 3428 
L 1659 3428 
z
" transform="scale(0.015625)"/>
       <path id="Helvetica-69" d="M 413 3331 
L 984 3331 
L 984 0 
L 413 0 
L 413 3331 
z
M 413 4591 
L 984 4591 
L 984 3953 
L 413 3953 
L 413 4591 
z
" transform="scale(0.015625)"/>
       <path id="Helvetica-73" d="M 747 1050 
Q 772 769 888 619 
Q 1100 347 1625 347 
Q 1938 347 2175 483 
Q 2413 619 2413 903 
Q 2413 1119 2222 1231 
Q 2100 1300 1741 1391 
L 1294 1503 
Q 866 1609 663 1741 
Q 300 1969 300 2372 
Q 300 2847 642 3140 
Q 984 3434 1563 3434 
Q 2319 3434 2653 2991 
Q 2863 2709 2856 2384 
L 2325 2384 
Q 2309 2575 2191 2731 
Q 1997 2953 1519 2953 
Q 1200 2953 1036 2831 
Q 872 2709 872 2509 
Q 872 2291 1088 2159 
Q 1213 2081 1456 2022 
L 1828 1931 
Q 2434 1784 2641 1647 
Q 2969 1431 2969 969 
Q 2969 522 2630 197 
Q 2291 -128 1597 -128 
Q 850 -128 539 211 
Q 228 550 206 1050 
L 747 1050 
z
M 1578 3428 
L 1578 3428 
z
" transform="scale(0.015625)"/>
      </defs>
      <use xlink:href="#Helvetica-4e"/>
      <use xlink:href="#Helvetica-75" x="72.216797"/>
      <use xlink:href="#Helvetica-6d" x="127.832031"/>
      <use xlink:href="#Helvetica-62" x="211.132812"/>
      <use xlink:href="#Helvetica-65" x="266.748047"/>
      <use xlink:href="#Helvetica-72" x="322.363281"/>
      <use xlink:href="#Helvetica-20" x="355.664062"/>
      <use xlink:href="#Helvetica-6f" x="383.447266"/>
      <use xlink:href="#Helvetica-66" x="439.0625"/>
      <use xlink:href="#Helvetica-20" x="466.845703"/>
      <use xlink:href="#Helvetica-43" x="494.628906"/>
      <use xlink:href="#Helvetica-61" x="566.845703"/>
      <use xlink:href="#Helvetica-74" x="622.460938"/>
      <use xlink:href="#Helvetica-65" x="650.244141"/>
      <use xlink:href="#Helvetica-67" x="705.859375"/>
      <use xlink:href="#Helvetica-6f" x="761.474609"/>
      <use xlink:href="#Helvetica-72" x="817.089844"/>
      <use xlink:href="#Helvetica-69" x="850.390625"/>
      <use xlink:href="#Helvetica-65" x="872.607422"/>
      <use xlink:href="#Helvetica-73" x="928.222656"/>
     </g>
    </g>
   </g>
   <g id="matplotlib.axis_2">
    <g id="ytick_1">
     <g id="line2d_5">
      <defs>
       <path id="mb9fd55cf1e" d="M 0 0 
L -3.5 0 
" style="stroke: #000000; stroke-width: 0.8"/>
      </defs>
      <g>
       <use xlink:href="#mb9fd55cf1e" x="56.9" y="156.682219" style="stroke: #000000; stroke-width: 0.8"/>
      </g>
     </g>
     <g id="text_6">
      <!-- 0.000 -->
      <g transform="translate(24.878125 160.268938)scale(0.1 -0.1)">
       <defs>
        <path id="Helvetica-2e" d="M 547 681 
L 1200 681 
L 1200 0 
L 547 0 
L 547 681 
z
" transform="scale(0.015625)"/>
       </defs>
       <use xlink:href="#Helvetica-30"/>
       <use xlink:href="#Helvetica-2e" x="55.615234"/>
       <use xlink:href="#Helvetica-30" x="83.398438"/>
       <use xlink:href="#Helvetica-30" x="139.013672"/>
       <use xlink:href="#Helvetica-30" x="194.628906"/>
      </g>
     </g>
    </g>
    <g id="ytick_2">
     <g id="line2d_6">
      <g>
       <use xlink:href="#mb9fd55cf1e" x="56.9" y="135.213434" style="stroke: #000000; stroke-width: 0.8"/>
      </g>
     </g>
     <g id="text_7">
      <!-- 0.025 -->
      <g transform="translate(24.878125 138.800153)scale(0.1 -0.1)">
       <defs>
        <path id="Helvetica-35" d="M 791 1141 
Q 847 659 1238 475 
Q 1438 381 1700 381 
Q 2200 381 2440 700 
Q 2681 1019 2681 1406 
Q 2681 1875 2395 2131 
Q 2109 2388 1709 2388 
Q 1419 2388 1211 2275 
Q 1003 2163 856 1963 
L 369 1991 
L 709 4400 
L 3034 4400 
L 3034 3856 
L 1131 3856 
L 941 2613 
Q 1097 2731 1238 2791 
Q 1488 2894 1816 2894 
Q 2431 2894 2859 2497 
Q 3288 2100 3288 1491 
Q 3288 856 2895 371 
Q 2503 -113 1644 -113 
Q 1097 -113 676 195 
Q 256 503 206 1141 
L 791 1141 
z
" transform="scale(0.015625)"/>
       </defs>
       <use xlink:href="#Helvetica-30"/>
       <use xlink:href="#Helvetica-2e" x="55.615234"/>
       <use xlink:href="#Helvetica-30" x="83.398438"/>
       <use xlink:href="#Helvetica-32" x="139.013672"/>
       <use xlink:href="#Helvetica-35" x="194.628906"/>
      </g>
     </g>
    </g>
    <g id="ytick_3">
     <g id="line2d_7">
      <g>
       <use xlink:href="#mb9fd55cf1e" x="56.9" y="113.744649" style="stroke: #000000; stroke-width: 0.8"/>
      </g>
     </g>
     <g id="text_8">
      <!-- 0.050 -->
      <g transform="translate(24.878125 117.331368)scale(0.1 -0.1)">
       <use xlink:href="#Helvetica-30"/>
       <use xlink:href="#Helvetica-2e" x="55.615234"/>
       <use xlink:href="#Helvetica-30" x="83.398438"/>
       <use xlink:href="#Helvetica-35" x="139.013672"/>
       <use xlink:href="#Helvetica-30" x="194.628906"/>
      </g>
     </g>
    </g>
    <g id="ytick_4">
     <g id="line2d_8">
      <g>
       <use xlink:href="#mb9fd55cf1e" x="56.9" y="92.275864" style="stroke: #000000; stroke-width: 0.8"/>
      </g>
     </g>
     <g id="text_9">
      <!-- 0.075 -->
      <g transform="translate(24.878125 95.862583)scale(0.1 -0.1)">
       <defs>
        <path id="Helvetica-37" d="M 3347 4400 
L 3347 3909 
Q 3131 3700 2773 3181 
Q 2416 2663 2141 2063 
Q 1869 1478 1728 997 
Q 1638 688 1494 0 
L 872 0 
Q 1084 1281 1809 2550 
Q 2238 3294 2709 3834 
L 234 3834 
L 234 4400 
L 3347 4400 
z
" transform="scale(0.015625)"/>
       </defs>
       <use xlink:href="#Helvetica-30"/>
       <use xlink:href="#Helvetica-2e" x="55.615234"/>
       <use xlink:href="#Helvetica-30" x="83.398438"/>
       <use xlink:href="#Helvetica-37" x="139.013672"/>
       <use xlink:href="#Helvetica-35" x="194.628906"/>
      </g>
     </g>
    </g>
    <g id="ytick_5">
     <g id="line2d_9">
      <g>
       <use xlink:href="#mb9fd55cf1e" x="56.9" y="70.807079" style="stroke: #000000; stroke-width: 0.8"/>
      </g>
     </g>
     <g id="text_10">
      <!-- 0.100 -->
      <g transform="translate(24.878125 74.393798)scale(0.1 -0.1)">
       <defs>
        <path id="Helvetica-31" d="M 613 3169 
L 613 3600 
Q 1222 3659 1462 3798 
Q 1703 3938 1822 4456 
L 2266 4456 
L 2266 0 
L 1666 0 
L 1666 3169 
L 613 3169 
z
" transform="scale(0.015625)"/>
       </defs>
       <use xlink:href="#Helvetica-30"/>
       <use xlink:href="#Helvetica-2e" x="55.615234"/>
       <use xlink:href="#Helvetica-31" x="83.398438"/>
       <use xlink:href="#Helvetica-30" x="139.013672"/>
       <use xlink:href="#Helvetica-30" x="194.628906"/>
      </g>
     </g>
    </g>
    <g id="ytick_6">
     <g id="line2d_10">
      <g>
       <use xlink:href="#mb9fd55cf1e" x="56.9" y="49.338294" style="stroke: #000000; stroke-width: 0.8"/>
      </g>
     </g>
     <g id="text_11">
      <!-- 0.125 -->
      <g transform="translate(24.878125 52.925013)scale(0.1 -0.1)">
       <use xlink:href="#Helvetica-30"/>
       <use xlink:href="#Helvetica-2e" x="55.615234"/>
       <use xlink:href="#Helvetica-31" x="83.398438"/>
       <use xlink:href="#Helvetica-32" x="139.013672"/>
       <use xlink:href="#Helvetica-35" x="194.628906"/>
      </g>
     </g>
    </g>
    <g id="ytick_7">
     <g id="line2d_11">
      <g>
       <use xlink:href="#mb9fd55cf1e" x="56.9" y="27.869509" style="stroke: #000000; stroke-width: 0.8"/>
      </g>
     </g>
     <g id="text_12">
      <!-- 0.150 -->
      <g transform="translate(24.878125 31.456228)scale(0.1 -0.1)">
       <use xlink:href="#Helvetica-30"/>
       <use xlink:href="#Helvetica-2e" x="55.615234"/>
       <use xlink:href="#Helvetica-31" x="83.398438"/>
       <use xlink:href="#Helvetica-35" x="139.013672"/>
       <use xlink:href="#Helvetica-30" x="194.628906"/>
      </g>
     </g>
    </g>
    <g id="text_13">
     <!-- Jensen-Shannon Distance -->
     <g transform="translate(18.79375 158.509844)rotate(-90)scale(0.1 -0.1)">
      <defs>
       <path id="Helvetica-4a" d="M 2741 1369 
Q 2741 788 2569 466 
Q 2250 -122 1356 -122 
Q 841 -122 475 158 
Q 109 438 109 1153 
L 109 1481 
L 694 1481 
L 694 1153 
Q 694 778 861 589 
Q 1028 400 1381 400 
Q 1878 400 2031 741 
Q 2125 950 2125 1531 
L 2125 4591 
L 2741 4591 
L 2741 1369 
z
" transform="scale(0.015625)"/>
       <path id="Helvetica-6e" d="M 413 3347 
L 947 3347 
L 947 2872 
Q 1184 3166 1450 3294 
Q 1716 3422 2041 3422 
Q 2753 3422 3003 2925 
Q 3141 2653 3141 2147 
L 3141 0 
L 2569 0 
L 2569 2109 
Q 2569 2416 2478 2603 
Q 2328 2916 1934 2916 
Q 1734 2916 1606 2875 
Q 1375 2806 1200 2600 
Q 1059 2434 1017 2257 
Q 975 2081 975 1753 
L 975 0 
L 413 0 
L 413 3347 
z
M 1734 3428 
L 1734 3428 
z
" transform="scale(0.015625)"/>
       <path id="Helvetica-2d" d="M 266 2072 
L 1834 2072 
L 1834 1494 
L 266 1494 
L 266 2072 
z
" transform="scale(0.015625)"/>
       <path id="Helvetica-53" d="M 894 1481 
Q 916 1091 1078 847 
Q 1388 391 2169 391 
Q 2519 391 2806 491 
Q 3363 684 3363 1184 
Q 3363 1559 3128 1719 
Q 2891 1875 2384 1991 
L 1763 2131 
Q 1153 2269 900 2434 
Q 463 2722 463 3294 
Q 463 3913 891 4309 
Q 1319 4706 2103 4706 
Q 2825 4706 3329 4357 
Q 3834 4009 3834 3244 
L 3250 3244 
Q 3203 3613 3050 3809 
Q 2766 4169 2084 4169 
Q 1534 4169 1293 3937 
Q 1053 3706 1053 3400 
Q 1053 3063 1334 2906 
Q 1519 2806 2169 2656 
L 2813 2509 
Q 3278 2403 3531 2219 
Q 3969 1897 3969 1284 
Q 3969 522 3414 194 
Q 2859 -134 2125 -134 
Q 1269 -134 784 303 
Q 300 738 309 1481 
L 894 1481 
z
M 2150 4716 
L 2150 4716 
z
" transform="scale(0.015625)"/>
       <path id="Helvetica-68" d="M 413 4606 
L 975 4606 
L 975 2894 
Q 1175 3147 1334 3250 
Q 1606 3428 2013 3428 
Q 2741 3428 3000 2919 
Q 3141 2641 3141 2147 
L 3141 0 
L 2563 0 
L 2563 2109 
Q 2563 2478 2469 2650 
Q 2316 2925 1894 2925 
Q 1544 2925 1259 2684 
Q 975 2444 975 1775 
L 975 0 
L 413 0 
L 413 4606 
z
" transform="scale(0.015625)"/>
       <path id="Helvetica-44" d="M 2250 531 
Q 2566 531 2769 597 
Q 3131 719 3363 1066 
Q 3547 1344 3628 1778 
Q 3675 2038 3675 2259 
Q 3675 3113 3336 3584 
Q 2997 4056 2244 4056 
L 1141 4056 
L 1141 531 
L 2250 531 
z
M 516 4591 
L 2375 4591 
Q 3322 4591 3844 3919 
Q 4309 3313 4309 2366 
Q 4309 1634 4034 1044 
Q 3550 0 2369 0 
L 516 0 
L 516 4591 
z
" transform="scale(0.015625)"/>
       <path id="Helvetica-63" d="M 1703 3444 
Q 2269 3444 2623 3169 
Q 2978 2894 3050 2222 
L 2503 2222 
Q 2453 2531 2275 2736 
Q 2097 2941 1703 2941 
Q 1166 2941 934 2416 
Q 784 2075 784 1575 
Q 784 1072 996 728 
Q 1209 384 1666 384 
Q 2016 384 2220 598 
Q 2425 813 2503 1184 
L 3050 1184 
Q 2956 519 2581 211 
Q 2206 -97 1622 -97 
Q 966 -97 575 383 
Q 184 863 184 1581 
Q 184 2463 612 2953 
Q 1041 3444 1703 3444 
z
M 1616 3428 
L 1616 3428 
z
" transform="scale(0.015625)"/>
      </defs>
      <use xlink:href="#Helvetica-4a"/>
      <use xlink:href="#Helvetica-65" x="50"/>
      <use xlink:href="#Helvetica-6e" x="105.615234"/>
      <use xlink:href="#Helvetica-73" x="161.230469"/>
      <use xlink:href="#Helvetica-65" x="211.230469"/>
      <use xlink:href="#Helvetica-6e" x="266.845703"/>
      <use xlink:href="#Helvetica-2d" x="322.460938"/>
      <use xlink:href="#Helvetica-53" x="355.761719"/>
      <use xlink:href="#Helvetica-68" x="422.460938"/>
      <use xlink:href="#Helvetica-61" x="478.076172"/>
      <use xlink:href="#Helvetica-6e" x="533.691406"/>
      <use xlink:href="#Helvetica-6e" x="589.306641"/>
      <use xlink:href="#Helvetica-6f" x="644.921875"/>
      <use xlink:href="#Helvetica-6e" x="700.537109"/>
      <use xlink:href="#Helvetica-20" x="756.152344"/>
      <use xlink:href="#Helvetica-44" x="783.935547"/>
      <use xlink:href="#Helvetica-69" x="856.152344"/>
      <use xlink:href="#Helvetica-73" x="878.369141"/>
      <use xlink:href="#Helvetica-74" x="928.369141"/>
      <use xlink:href="#Helvetica-61" x="956.152344"/>
      <use xlink:href="#Helvetica-6e" x="1011.767578"/>
      <use xlink:href="#Helvetica-63" x="1067.382812"/>
      <use xlink:href="#Helvetica-65" x="1117.382812"/>
     </g>
    </g>
   </g>
   <g id="line2d_12">
    <path d="M 64.144999 136.370272 
L 66.687104 129.752875 
L 69.229209 124.222297 
L 71.771315 120.735055 
L 74.31342 116.183954 
L 76.855525 112.164008 
L 79.39763 109.430709 
L 81.939735 104.740004 
L 84.48184 102.931347 
L 87.023945 101.777335 
L 89.56605 97.464122 
L 92.108155 95.52668 
L 94.65026 96.899805 
L 97.192365 94.283893 
L 99.73447 92.300237 
L 102.276575 92.618105 
L 104.81868 89.097902 
L 107.360785 89.079688 
L 109.90289 88.436557 
L 112.444995 86.838607 
L 114.9871 87.059238 
L 117.529205 86.007555 
L 120.07131 84.72668 
L 122.613415 84.463846 
L 125.155521 83.260771 
L 127.697626 82.92865 
L 130.239731 80.816536 
L 132.781836 81.464584 
L 135.323941 80.781733 
L 137.866046 80.54004 
L 140.408151 80.299664 
L 142.950256 79.243035 
L 145.492361 77.927147 
L 148.034466 76.839858 
L 150.576571 77.578211 
L 153.118676 75.700511 
L 155.660781 76.968914 
L 158.202886 76.146292 
L 160.744991 74.632142 
L 163.287096 73.675776 
L 165.829201 74.228014 
L 168.371306 72.793439 
L 170.913411 71.838897 
L 173.455516 73.679655 
L 175.997621 71.096226 
L 178.539727 72.837383 
L 181.081832 69.998489 
L 183.623937 71.453609 
L 186.166042 69.732065 
L 188.708147 69.38641 
L 191.250252 69.850076 
L 193.792357 68.665043 
L 196.334462 68.881132 
L 198.876567 69.116854 
L 201.418672 67.96367 
L 203.960777 67.460743 
L 206.502882 66.46616 
L 209.044987 66.759131 
" clip-path="url(#p9dad788ed7)" style="fill: none; stroke: #dd4040; stroke-width: 1.5; stroke-linecap: square"/>
   </g>
   <g id="patch_3">
    <path d="M 56.9 174.04 
L 56.9 25.6875 
" style="fill: none; stroke: #000000; stroke-width: 0.8; stroke-linejoin: miter; stroke-linecap: square"/>
   </g>
   <g id="patch_4">
    <path d="M 216.289986 174.04 
L 216.289986 25.6875 
" style="fill: none; stroke: #000000; stroke-width: 0.8; stroke-linejoin: miter; stroke-linecap: square"/>
   </g>
   <g id="patch_5">
    <path d="M 56.9 174.04 
L 216.289986 174.04 
" style="fill: none; stroke: #000000; stroke-width: 0.8; stroke-linejoin: miter; stroke-linecap: square"/>
   </g>
   <g id="patch_6">
    <path d="M 56.9 25.6875 
L 216.289986 25.6875 
" style="fill: none; stroke: #000000; stroke-width: 0.8; stroke-linejoin: miter; stroke-linecap: square"/>
   </g>
   <g id="text_14">
    <!-- Jensen-Shannon Distance -->
    <g transform="translate(66.219681 19.6875)scale(0.12 -0.12)">
     <use xlink:href="#Helvetica-4a"/>
     <use xlink:href="#Helvetica-65" x="50"/>
     <use xlink:href="#Helvetica-6e" x="105.615234"/>
     <use xlink:href="#Helvetica-73" x="161.230469"/>
     <use xlink:href="#Helvetica-65" x="211.230469"/>
     <use xlink:href="#Helvetica-6e" x="266.845703"/>
     <use xlink:href="#Helvetica-2d" x="322.460938"/>
     <use xlink:href="#Helvetica-53" x="355.761719"/>
     <use xlink:href="#Helvetica-68" x="422.460938"/>
     <use xlink:href="#Helvetica-61" x="478.076172"/>
     <use xlink:href="#Helvetica-6e" x="533.691406"/>
     <use xlink:href="#Helvetica-6e" x="589.306641"/>
     <use xlink:href="#Helvetica-6f" x="644.921875"/>
     <use xlink:href="#Helvetica-6e" x="700.537109"/>
     <use xlink:href="#Helvetica-20" x="756.152344"/>
     <use xlink:href="#Helvetica-44" x="783.935547"/>
     <use xlink:href="#Helvetica-69" x="856.152344"/>
     <use xlink:href="#Helvetica-73" x="878.369141"/>
     <use xlink:href="#Helvetica-74" x="928.369141"/>
     <use xlink:href="#Helvetica-61" x="956.152344"/>
     <use xlink:href="#Helvetica-6e" x="1011.767578"/>
     <use xlink:href="#Helvetica-63" x="1067.382812"/>
     <use xlink:href="#Helvetica-65" x="1117.382812"/>
    </g>
   </g>
   <g id="legend_1">
    <g id="patch_7">
     <path d="M 140.332174 47.945312 
L 209.289986 47.945312 
Q 211.289986 47.945312 211.289986 45.945312 
L 211.289986 32.6875 
Q 211.289986 30.6875 209.289986 30.6875 
L 140.332174 30.6875 
Q 138.332174 30.6875 138.332174 32.6875 
L 138.332174 45.945312 
Q 138.332174 47.945312 140.332174 47.945312 
z
" style="fill: #ffffff; opacity: 0.8; stroke: #cccccc; stroke-linejoin: miter"/>
    </g>
    <g id="patch_8">
     <path d="M 142.332174 41.860938 
L 162.332174 41.860938 
L 162.332174 34.860938 
L 142.332174 34.860938 
z
" style="fill: #f8dcdc; fill-opacity: 0.5; stroke: #f8dcdc; stroke-opacity: 0.5; stroke-linejoin: miter"/>
    </g>
    <g id="text_15">
     <!-- +/- 3 SD -->
     <g transform="translate(170.332174 41.860938)scale(0.1 -0.1)">
      <defs>
       <path id="Helvetica-2b" d="M 288 1369 
L 288 1894 
L 1650 1894 
L 1650 3266 
L 2184 3266 
L 2184 1894 
L 3547 1894 
L 3547 1369 
L 2184 1369 
L 2184 0 
L 1650 0 
L 1650 1369 
L 288 1369 
z
" transform="scale(0.015625)"/>
       <path id="Helvetica-2f" d="M 1456 4591 
L 1931 4591 
L 475 0 
L 0 0 
L 1456 4591 
z
" transform="scale(0.015625)"/>
       <path id="Helvetica-33" d="M 1663 -122 
Q 869 -122 511 314 
Q 153 750 153 1375 
L 741 1375 
Q 778 941 903 744 
Q 1122 391 1694 391 
Q 2138 391 2406 628 
Q 2675 866 2675 1241 
Q 2675 1703 2392 1887 
Q 2109 2072 1606 2072 
Q 1550 2072 1492 2070 
Q 1434 2069 1375 2066 
L 1375 2563 
Q 1463 2553 1522 2550 
Q 1581 2547 1650 2547 
Q 1966 2547 2169 2647 
Q 2525 2822 2525 3272 
Q 2525 3606 2287 3787 
Q 2050 3969 1734 3969 
Q 1172 3969 956 3594 
Q 838 3388 822 3006 
L 266 3006 
Q 266 3506 466 3856 
Q 809 4481 1675 4481 
Q 2359 4481 2734 4176 
Q 3109 3872 3109 3294 
Q 3109 2881 2888 2625 
Q 2750 2466 2531 2375 
Q 2884 2278 3082 2001 
Q 3281 1725 3281 1325 
Q 3281 684 2859 281 
Q 2438 -122 1663 -122 
z
" transform="scale(0.015625)"/>
      </defs>
      <use xlink:href="#Helvetica-2b"/>
      <use xlink:href="#Helvetica-2f" x="58.398438"/>
      <use xlink:href="#Helvetica-2d" x="86.181641"/>
      <use xlink:href="#Helvetica-20" x="119.482422"/>
      <use xlink:href="#Helvetica-33" x="147.265625"/>
      <use xlink:href="#Helvetica-20" x="202.880859"/>
      <use xlink:href="#Helvetica-53" x="230.664062"/>
      <use xlink:href="#Helvetica-44" x="297.363281"/>
     </g>
    </g>
   </g>
  </g>
  <g id="axes_2">
   <g id="patch_9">
    <path d="M 268.805 174.04 
L 428.194986 174.04 
L 428.194986 25.6875 
L 268.805 25.6875 
z
" style="fill: #ffffff"/>
   </g>
   <g id="PolyCollection_2">
    <defs>
     <path id="ma8259f7d83" d="M 276.049999 -107.409112 
L 276.049999 -48.703295 
L 278.592104 -52.821118 
L 281.134209 -56.912941 
L 283.676315 -59.478349 
L 286.21842 -64.525262 
L 288.760525 -65.869352 
L 291.30263 -69.722977 
L 293.844735 -76.551429 
L 296.38684 -80.862443 
L 298.928945 -78.454503 
L 301.47105 -86.884944 
L 304.013155 -89.198788 
L 306.55526 -85.624395 
L 309.097365 -89.220645 
L 311.63947 -91.817001 
L 314.181575 -90.08601 
L 316.72368 -92.476459 
L 319.265785 -93.069941 
L 321.80789 -93.390125 
L 324.349995 -96.624652 
L 326.8921 -95.8855 
L 329.434205 -96.50765 
L 331.97631 -98.238353 
L 334.518415 -99.823962 
L 337.060521 -98.316431 
L 339.602626 -100.99194 
L 342.144731 -101.664758 
L 344.686836 -100.554713 
L 347.228941 -102.426522 
L 349.771046 -102.258578 
L 352.313151 -102.321107 
L 354.855256 -103.968412 
L 357.397361 -105.931091 
L 359.939466 -106.73644 
L 362.481571 -105.01121 
L 365.023676 -107.402802 
L 367.565781 -106.185536 
L 370.107886 -107.471203 
L 372.649991 -107.835841 
L 375.192096 -106.858396 
L 377.734201 -107.850901 
L 380.276306 -108.504701 
L 382.818411 -110.782274 
L 385.360516 -109.434559 
L 387.902621 -111.956341 
L 390.444727 -108.892629 
L 392.986832 -110.946396 
L 395.528937 -110.722265 
L 398.071042 -112.495692 
L 400.613147 -113.291676 
L 403.155252 -112.29461 
L 405.697357 -112.247266 
L 408.239462 -115.091971 
L 410.781567 -112.434739 
L 413.323672 -116.45305 
L 415.865777 -113.616965 
L 418.407882 -117.066534 
L 420.949987 -114.477792 
L 420.949987 -183.569205 
L 420.949987 -183.569205 
L 418.407882 -181.358061 
L 415.865777 -183.14395 
L 413.323672 -179.576126 
L 410.781567 -180.563455 
L 408.239462 -178.710513 
L 405.697357 -181.872199 
L 403.155252 -179.235671 
L 400.613147 -179.686376 
L 398.071042 -178.895761 
L 395.528937 -178.123273 
L 392.986832 -180.782381 
L 390.444727 -176.37308 
L 387.902621 -177.607 
L 385.360516 -174.478133 
L 382.818411 -176.824483 
L 380.276306 -177.52023 
L 377.734201 -174.576834 
L 375.192096 -177.450213 
L 372.649991 -174.517171 
L 370.107886 -171.054805 
L 367.565781 -171.255001 
L 365.023676 -171.731671 
L 362.481571 -171.187665 
L 359.939466 -170.869265 
L 357.397361 -169.022242 
L 354.855256 -169.079148 
L 352.313151 -167.972612 
L 349.771046 -167.620386 
L 347.228941 -167.108907 
L 344.686836 -167.001285 
L 342.144731 -167.539053 
L 339.602626 -164.298921 
L 337.060521 -165.740396 
L 334.518415 -162.818176 
L 331.97631 -162.997641 
L 329.434205 -162.005801 
L 326.8921 -161.649876 
L 324.349995 -160.423652 
L 321.80789 -160.245923 
L 319.265785 -160.083786 
L 316.72368 -159.497799 
L 314.181575 -155.427033 
L 311.63947 -155.125214 
L 309.097365 -152.498972 
L 306.55526 -151.176418 
L 304.013155 -149.994356 
L 301.47105 -149.048781 
L 298.928945 -148.327383 
L 296.38684 -143.034874 
L 293.844735 -143.668796 
L 291.30263 -140.571754 
L 288.760525 -137.022476 
L 286.21842 -130.046461 
L 283.676315 -126.375076 
L 281.134209 -122.283953 
L 278.592104 -115.857993 
L 276.049999 -107.409112 
z
" style="stroke: #f8dcdc; stroke-opacity: 0.5"/>
    </defs>
    <g clip-path="url(#p3a250c6a11)">
     <use xlink:href="#ma8259f7d83" x="0" y="216" style="fill: #f8dcdc; fill-opacity: 0.5; stroke: #f8dcdc; stroke-opacity: 0.5"/>
    </g>
   </g>
   <g id="matplotlib.axis_3">
    <g id="xtick_5">
     <g id="line2d_13">
      <g>
       <use xlink:href="#mf6ae2c54b0" x="270.965789" y="174.04" style="stroke: #000000; stroke-width: 0.8"/>
      </g>
     </g>
     <g id="text_16">
      <!-- 0 -->
      <g transform="translate(268.185321 188.213437)scale(0.1 -0.1)">
       <use xlink:href="#Helvetica-30"/>
      </g>
     </g>
    </g>
    <g id="xtick_6">
     <g id="line2d_14">
      <g>
       <use xlink:href="#mf6ae2c54b0" x="321.80789" y="174.04" style="stroke: #000000; stroke-width: 0.8"/>
      </g>
     </g>
     <g id="text_17">
      <!-- 20 -->
      <g transform="translate(316.246953 188.213437)scale(0.1 -0.1)">
       <use xlink:href="#Helvetica-32"/>
       <use xlink:href="#Helvetica-30" x="55.615234"/>
      </g>
     </g>
    </g>
    <g id="xtick_7">
     <g id="line2d_15">
      <g>
       <use xlink:href="#mf6ae2c54b0" x="372.649991" y="174.04" style="stroke: #000000; stroke-width: 0.8"/>
      </g>
     </g>
     <g id="text_18">
      <!-- 40 -->
      <g transform="translate(367.089054 188.213437)scale(0.1 -0.1)">
       <use xlink:href="#Helvetica-34"/>
       <use xlink:href="#Helvetica-30" x="55.615234"/>
      </g>
     </g>
    </g>
    <g id="xtick_8">
     <g id="line2d_16">
      <g>
       <use xlink:href="#mf6ae2c54b0" x="423.492092" y="174.04" style="stroke: #000000; stroke-width: 0.8"/>
      </g>
     </g>
     <g id="text_19">
      <!-- 60 -->
      <g transform="translate(417.931155 188.213437)scale(0.1 -0.1)">
       <use xlink:href="#Helvetica-36"/>
       <use xlink:href="#Helvetica-30" x="55.615234"/>
      </g>
     </g>
    </g>
    <g id="text_20">
     <!-- Number of Categories -->
     <g transform="translate(299.592181 201.666562)scale(0.1 -0.1)">
      <use xlink:href="#Helvetica-4e"/>
      <use xlink:href="#Helvetica-75" x="72.216797"/>
      <use xlink:href="#Helvetica-6d" x="127.832031"/>
      <use xlink:href="#Helvetica-62" x="211.132812"/>
      <use xlink:href="#Helvetica-65" x="266.748047"/>
      <use xlink:href="#Helvetica-72" x="322.363281"/>
      <use xlink:href="#Helvetica-20" x="355.664062"/>
      <use xlink:href="#Helvetica-6f" x="383.447266"/>
      <use xlink:href="#Helvetica-66" x="439.0625"/>
      <use xlink:href="#Helvetica-20" x="466.845703"/>
      <use xlink:href="#Helvetica-43" x="494.628906"/>
      <use xlink:href="#Helvetica-61" x="566.845703"/>
      <use xlink:href="#Helvetica-74" x="622.460938"/>
      <use xlink:href="#Helvetica-65" x="650.244141"/>
      <use xlink:href="#Helvetica-67" x="705.859375"/>
      <use xlink:href="#Helvetica-6f" x="761.474609"/>
      <use xlink:href="#Helvetica-72" x="817.089844"/>
      <use xlink:href="#Helvetica-69" x="850.390625"/>
      <use xlink:href="#Helvetica-65" x="872.607422"/>
      <use xlink:href="#Helvetica-73" x="928.222656"/>
     </g>
    </g>
   </g>
   <g id="matplotlib.axis_4">
    <g id="ytick_8">
     <g id="line2d_17">
      <g>
       <use xlink:href="#mb9fd55cf1e" x="268.805" y="157.219408" style="stroke: #000000; stroke-width: 0.8"/>
      </g>
     </g>
     <g id="text_21">
      <!-- 0.000 -->
      <g transform="translate(236.783125 160.806127)scale(0.1 -0.1)">
       <use xlink:href="#Helvetica-30"/>
       <use xlink:href="#Helvetica-2e" x="55.615234"/>
       <use xlink:href="#Helvetica-30" x="83.398438"/>
       <use xlink:href="#Helvetica-30" x="139.013672"/>
       <use xlink:href="#Helvetica-30" x="194.628906"/>
      </g>
     </g>
    </g>
    <g id="ytick_9">
     <g id="line2d_18">
      <g>
       <use xlink:href="#mb9fd55cf1e" x="268.805" y="132.751129" style="stroke: #000000; stroke-width: 0.8"/>
      </g>
     </g>
     <g id="text_22">
      <!-- 0.025 -->
      <g transform="translate(236.783125 136.337847)scale(0.1 -0.1)">
       <use xlink:href="#Helvetica-30"/>
       <use xlink:href="#Helvetica-2e" x="55.615234"/>
       <use xlink:href="#Helvetica-30" x="83.398438"/>
       <use xlink:href="#Helvetica-32" x="139.013672"/>
       <use xlink:href="#Helvetica-35" x="194.628906"/>
      </g>
     </g>
    </g>
    <g id="ytick_10">
     <g id="line2d_19">
      <g>
       <use xlink:href="#mb9fd55cf1e" x="268.805" y="108.282849" style="stroke: #000000; stroke-width: 0.8"/>
      </g>
     </g>
     <g id="text_23">
      <!-- 0.050 -->
      <g transform="translate(236.783125 111.869568)scale(0.1 -0.1)">
       <use xlink:href="#Helvetica-30"/>
       <use xlink:href="#Helvetica-2e" x="55.615234"/>
       <use xlink:href="#Helvetica-30" x="83.398438"/>
       <use xlink:href="#Helvetica-35" x="139.013672"/>
       <use xlink:href="#Helvetica-30" x="194.628906"/>
      </g>
     </g>
    </g>
    <g id="ytick_11">
     <g id="line2d_20">
      <g>
       <use xlink:href="#mb9fd55cf1e" x="268.805" y="83.814569" style="stroke: #000000; stroke-width: 0.8"/>
      </g>
     </g>
     <g id="text_24">
      <!-- 0.075 -->
      <g transform="translate(236.783125 87.401288)scale(0.1 -0.1)">
       <use xlink:href="#Helvetica-30"/>
       <use xlink:href="#Helvetica-2e" x="55.615234"/>
       <use xlink:href="#Helvetica-30" x="83.398438"/>
       <use xlink:href="#Helvetica-37" x="139.013672"/>
       <use xlink:href="#Helvetica-35" x="194.628906"/>
      </g>
     </g>
    </g>
    <g id="ytick_12">
     <g id="line2d_21">
      <g>
       <use xlink:href="#mb9fd55cf1e" x="268.805" y="59.34629" style="stroke: #000000; stroke-width: 0.8"/>
      </g>
     </g>
     <g id="text_25">
      <!-- 0.100 -->
      <g transform="translate(236.783125 62.933008)scale(0.1 -0.1)">
       <use xlink:href="#Helvetica-30"/>
       <use xlink:href="#Helvetica-2e" x="55.615234"/>
       <use xlink:href="#Helvetica-31" x="83.398438"/>
       <use xlink:href="#Helvetica-30" x="139.013672"/>
       <use xlink:href="#Helvetica-30" x="194.628906"/>
      </g>
     </g>
    </g>
    <g id="ytick_13">
     <g id="line2d_22">
      <g>
       <use xlink:href="#mb9fd55cf1e" x="268.805" y="34.87801" style="stroke: #000000; stroke-width: 0.8"/>
      </g>
     </g>
     <g id="text_26">
      <!-- 0.125 -->
      <g transform="translate(236.783125 38.464729)scale(0.1 -0.1)">
       <use xlink:href="#Helvetica-30"/>
       <use xlink:href="#Helvetica-2e" x="55.615234"/>
       <use xlink:href="#Helvetica-31" x="83.398438"/>
       <use xlink:href="#Helvetica-32" x="139.013672"/>
       <use xlink:href="#Helvetica-35" x="194.628906"/>
      </g>
     </g>
    </g>
    <g id="text_27">
     <!-- Hellinger Distance -->
     <g transform="translate(230.570625 140.435625)rotate(-90)scale(0.1 -0.1)">
      <defs>
       <path id="Helvetica-48" d="M 503 4591 
L 1131 4591 
L 1131 2694 
L 3519 2694 
L 3519 4591 
L 4147 4591 
L 4147 0 
L 3519 0 
L 3519 2147 
L 1131 2147 
L 1131 0 
L 503 0 
L 503 4591 
z
" transform="scale(0.015625)"/>
       <path id="Helvetica-6c" d="M 428 4591 
L 991 4591 
L 991 0 
L 428 0 
L 428 4591 
z
" transform="scale(0.015625)"/>
      </defs>
      <use xlink:href="#Helvetica-48"/>
      <use xlink:href="#Helvetica-65" x="72.216797"/>
      <use xlink:href="#Helvetica-6c" x="127.832031"/>
      <use xlink:href="#Helvetica-6c" x="150.048828"/>
      <use xlink:href="#Helvetica-69" x="172.265625"/>
      <use xlink:href="#Helvetica-6e" x="194.482422"/>
      <use xlink:href="#Helvetica-67" x="250.097656"/>
      <use xlink:href="#Helvetica-65" x="305.712891"/>
      <use xlink:href="#Helvetica-72" x="361.328125"/>
      <use xlink:href="#Helvetica-20" x="394.628906"/>
      <use xlink:href="#Helvetica-44" x="422.412109"/>
      <use xlink:href="#Helvetica-69" x="494.628906"/>
      <use xlink:href="#Helvetica-73" x="516.845703"/>
      <use xlink:href="#Helvetica-74" x="566.845703"/>
      <use xlink:href="#Helvetica-61" x="594.628906"/>
      <use xlink:href="#Helvetica-6e" x="650.244141"/>
      <use xlink:href="#Helvetica-63" x="705.859375"/>
      <use xlink:href="#Helvetica-65" x="755.859375"/>
     </g>
    </g>
   </g>
   <g id="line2d_23">
    <path d="M 276.049999 137.943796 
L 278.592104 131.660445 
L 281.134209 126.401553 
L 283.676315 123.073287 
L 286.21842 118.714139 
L 288.760525 114.554086 
L 291.30263 110.852634 
L 293.844735 105.889887 
L 296.38684 104.051341 
L 298.928945 102.609057 
L 301.47105 98.033137 
L 304.013155 96.403428 
L 306.55526 97.599593 
L 309.097365 95.140191 
L 311.63947 92.528893 
L 314.181575 93.243478 
L 316.72368 90.012871 
L 319.265785 89.423136 
L 321.80789 89.181976 
L 324.349995 87.475848 
L 326.8921 87.232312 
L 329.434205 86.743274 
L 331.97631 85.382003 
L 334.518415 84.678931 
L 337.060521 83.971586 
L 339.602626 83.354569 
L 342.144731 81.398094 
L 344.686836 82.222001 
L 347.228941 81.232286 
L 349.771046 81.060518 
L 352.313151 80.85314 
L 354.855256 79.47622 
L 357.397361 78.523334 
L 359.939466 77.197147 
L 362.481571 77.900562 
L 365.023676 76.432764 
L 367.565781 77.279732 
L 370.107886 76.736996 
L 372.649991 74.823494 
L 375.192096 73.845695 
L 377.734201 74.786133 
L 380.276306 72.987534 
L 382.818411 72.196621 
L 385.360516 74.043654 
L 387.902621 71.218329 
L 390.444727 73.367146 
L 392.986832 70.135611 
L 395.528937 71.577231 
L 398.071042 70.304273 
L 400.613147 69.510974 
L 403.155252 70.23486 
L 405.697357 68.940268 
L 408.239462 69.098758 
L 410.781567 69.500903 
L 413.323672 67.985412 
L 415.865777 67.619542 
L 418.407882 66.787703 
L 420.949987 66.976502 
" clip-path="url(#p3a250c6a11)" style="fill: none; stroke: #dd4040; stroke-width: 1.5; stroke-linecap: square"/>
   </g>
   <g id="patch_10">
    <path d="M 268.805 174.04 
L 268.805 25.6875 
" style="fill: none; stroke: #000000; stroke-width: 0.8; stroke-linejoin: miter; stroke-linecap: square"/>
   </g>
   <g id="patch_11">
    <path d="M 428.194986 174.04 
L 428.194986 25.6875 
" style="fill: none; stroke: #000000; stroke-width: 0.8; stroke-linejoin: miter; stroke-linecap: square"/>
   </g>
   <g id="patch_12">
    <path d="M 268.805 174.04 
L 428.194986 174.04 
" style="fill: none; stroke: #000000; stroke-width: 0.8; stroke-linejoin: miter; stroke-linecap: square"/>
   </g>
   <g id="patch_13">
    <path d="M 268.805 25.6875 
L 428.194986 25.6875 
" style="fill: none; stroke: #000000; stroke-width: 0.8; stroke-linejoin: miter; stroke-linecap: square"/>
   </g>
   <g id="text_28">
    <!-- Hellinger Distance -->
    <g transform="translate(299.813743 19.6875)scale(0.12 -0.12)">
     <use xlink:href="#Helvetica-48"/>
     <use xlink:href="#Helvetica-65" x="72.216797"/>
     <use xlink:href="#Helvetica-6c" x="127.832031"/>
     <use xlink:href="#Helvetica-6c" x="150.048828"/>
     <use xlink:href="#Helvetica-69" x="172.265625"/>
     <use xlink:href="#Helvetica-6e" x="194.482422"/>
     <use xlink:href="#Helvetica-67" x="250.097656"/>
     <use xlink:href="#Helvetica-65" x="305.712891"/>
     <use xlink:href="#Helvetica-72" x="361.328125"/>
     <use xlink:href="#Helvetica-20" x="394.628906"/>
     <use xlink:href="#Helvetica-44" x="422.412109"/>
     <use xlink:href="#Helvetica-69" x="494.628906"/>
     <use xlink:href="#Helvetica-73" x="516.845703"/>
     <use xlink:href="#Helvetica-74" x="566.845703"/>
     <use xlink:href="#Helvetica-61" x="594.628906"/>
     <use xlink:href="#Helvetica-6e" x="650.244141"/>
     <use xlink:href="#Helvetica-63" x="705.859375"/>
     <use xlink:href="#Helvetica-65" x="755.859375"/>
    </g>
   </g>
   <g id="legend_2">
    <g id="patch_14">
     <path d="M 352.237174 47.945312 
L 421.194986 47.945312 
Q 423.194986 47.945312 423.194986 45.945312 
L 423.194986 32.6875 
Q 423.194986 30.6875 421.194986 30.6875 
L 352.237174 30.6875 
Q 350.237174 30.6875 350.237174 32.6875 
L 350.237174 45.945312 
Q 350.237174 47.945312 352.237174 47.945312 
z
" style="fill: #ffffff; opacity: 0.8; stroke: #cccccc; stroke-linejoin: miter"/>
    </g>
    <g id="patch_15">
     <path d="M 354.237174 41.860938 
L 374.237174 41.860938 
L 374.237174 34.860938 
L 354.237174 34.860938 
z
" style="fill: #f8dcdc; fill-opacity: 0.5; stroke: #f8dcdc; stroke-opacity: 0.5; stroke-linejoin: miter"/>
    </g>
    <g id="text_29">
     <!-- +/- 3 SD -->
     <g transform="translate(382.237174 41.860938)scale(0.1 -0.1)">
      <use xlink:href="#Helvetica-2b"/>
      <use xlink:href="#Helvetica-2f" x="58.398438"/>
      <use xlink:href="#Helvetica-2d" x="86.181641"/>
      <use xlink:href="#Helvetica-20" x="119.482422"/>
      <use xlink:href="#Helvetica-33" x="147.265625"/>
      <use xlink:href="#Helvetica-20" x="202.880859"/>
      <use xlink:href="#Helvetica-53" x="230.664062"/>
      <use xlink:href="#Helvetica-44" x="297.363281"/>
     </g>
    </g>
   </g>
  </g>
  <g id="axes_3">
   <g id="patch_16">
    <path d="M 480.71 174.04 
L 640.099986 174.04 
L 640.099986 25.6875 
L 480.71 25.6875 
z
" style="fill: #ffffff"/>
   </g>
   <g id="PolyCollection_3">
    <defs>
     <path id="m181f248c94" d="M 487.954999 -180.199925 
L 487.954999 -48.703295 
L 490.497104 -54.923785 
L 493.039209 -60.699413 
L 495.581315 -59.113799 
L 498.12342 -65.862491 
L 500.665525 -65.747781 
L 503.20763 -67.458739 
L 505.749735 -67.249965 
L 508.29184 -70.860169 
L 510.833945 -66.945177 
L 513.37605 -72.552656 
L 515.918155 -70.780774 
L 518.46026 -75.308948 
L 521.002365 -72.627709 
L 523.54447 -73.729726 
L 526.086575 -73.527124 
L 528.62868 -74.819806 
L 531.170785 -76.429857 
L 533.71289 -75.269512 
L 536.254995 -75.661035 
L 538.7971 -74.762803 
L 541.339205 -76.16906 
L 543.88131 -75.645552 
L 546.423415 -77.347944 
L 548.965521 -75.036535 
L 551.507626 -79.42562 
L 554.049731 -75.170171 
L 556.591836 -78.073398 
L 559.133941 -76.284159 
L 561.676046 -78.373323 
L 564.218151 -77.077115 
L 566.760256 -79.005793 
L 569.302361 -78.410795 
L 571.844466 -80.125905 
L 574.386571 -77.080415 
L 576.928676 -80.820064 
L 579.470781 -76.693037 
L 582.012886 -81.51173 
L 584.554991 -79.130593 
L 587.097096 -79.005744 
L 589.639201 -79.21993 
L 592.181306 -79.881381 
L 594.723411 -79.015824 
L 597.265516 -79.833432 
L 599.807621 -79.231093 
L 602.349727 -79.606727 
L 604.891832 -80.31052 
L 607.433937 -80.264871 
L 609.976042 -79.355481 
L 612.518147 -79.886964 
L 615.060252 -78.321628 
L 617.602357 -79.943282 
L 620.144462 -78.806828 
L 622.686567 -80.688227 
L 625.228672 -79.125147 
L 627.770777 -80.75448 
L 630.312882 -79.794263 
L 632.854987 -80.783092 
L 632.854987 -146.300001 
L 632.854987 -146.300001 
L 630.312882 -148.304298 
L 627.770777 -146.657916 
L 625.228672 -149.126355 
L 622.686567 -147.158189 
L 620.144462 -150.227287 
L 617.602357 -148.51903 
L 615.060252 -151.999391 
L 612.518147 -148.616682 
L 609.976042 -151.243861 
L 607.433937 -147.307355 
L 604.891832 -152.162684 
L 602.349727 -148.551082 
L 599.807621 -152.262467 
L 597.265516 -149.743552 
L 594.723411 -153.50285 
L 592.181306 -151.121668 
L 589.639201 -152.822011 
L 587.097096 -151.907745 
L 584.554991 -153.346745 
L 582.012886 -149.996987 
L 579.470781 -156.36575 
L 576.928676 -151.462999 
L 574.386571 -155.723472 
L 571.844466 -152.294942 
L 569.302361 -155.383759 
L 566.760256 -154.008903 
L 564.218151 -156.339911 
L 561.676046 -154.977567 
L 559.133941 -159.227185 
L 556.591836 -156.859252 
L 554.049731 -161.505447 
L 551.507626 -155.272797 
L 548.965521 -161.107237 
L 546.423415 -156.770402 
L 543.88131 -161.586714 
L 541.339205 -158.762212 
L 538.7971 -162.211807 
L 536.254995 -161.513361 
L 533.71289 -161.772612 
L 531.170785 -160.773474 
L 528.62868 -164.530201 
L 526.086575 -163.349659 
L 523.54447 -166.255465 
L 521.002365 -164.571489 
L 518.46026 -163.476145 
L 515.918155 -167.453182 
L 513.37605 -166.897933 
L 510.833945 -172.224333 
L 508.29184 -168.846699 
L 505.749735 -174.305964 
L 503.20763 -171.238171 
L 500.665525 -176.250435 
L 498.12342 -175.712728 
L 495.581315 -179.270342 
L 493.039209 -178.628549 
L 490.497104 -183.569205 
L 487.954999 -180.199925 
z
" style="stroke: #f8dcdc; stroke-opacity: 0.5"/>
    </defs>
    <g clip-path="url(#pa4a056939e)">
     <use xlink:href="#m181f248c94" x="0" y="216" style="fill: #f8dcdc; fill-opacity: 0.5; stroke: #f8dcdc; stroke-opacity: 0.5"/>
    </g>
   </g>
   <g id="matplotlib.axis_5">
    <g id="xtick_9">
     <g id="line2d_24">
      <g>
       <use xlink:href="#mf6ae2c54b0" x="482.870789" y="174.04" style="stroke: #000000; stroke-width: 0.8"/>
      </g>
     </g>
     <g id="text_30">
      <!-- 0 -->
      <g transform="translate(480.090321 188.213437)scale(0.1 -0.1)">
       <use xlink:href="#Helvetica-30"/>
      </g>
     </g>
    </g>
    <g id="xtick_10">
     <g id="line2d_25">
      <g>
       <use xlink:href="#mf6ae2c54b0" x="533.71289" y="174.04" style="stroke: #000000; stroke-width: 0.8"/>
      </g>
     </g>
     <g id="text_31">
      <!-- 20 -->
      <g transform="translate(528.151953 188.213437)scale(0.1 -0.1)">
       <use xlink:href="#Helvetica-32"/>
       <use xlink:href="#Helvetica-30" x="55.615234"/>
      </g>
     </g>
    </g>
    <g id="xtick_11">
     <g id="line2d_26">
      <g>
       <use xlink:href="#mf6ae2c54b0" x="584.554991" y="174.04" style="stroke: #000000; stroke-width: 0.8"/>
      </g>
     </g>
     <g id="text_32">
      <!-- 40 -->
      <g transform="translate(578.994054 188.213437)scale(0.1 -0.1)">
       <use xlink:href="#Helvetica-34"/>
       <use xlink:href="#Helvetica-30" x="55.615234"/>
      </g>
     </g>
    </g>
    <g id="xtick_12">
     <g id="line2d_27">
      <g>
       <use xlink:href="#mf6ae2c54b0" x="635.397092" y="174.04" style="stroke: #000000; stroke-width: 0.8"/>
      </g>
     </g>
     <g id="text_33">
      <!-- 60 -->
      <g transform="translate(629.836155 188.213437)scale(0.1 -0.1)">
       <use xlink:href="#Helvetica-36"/>
       <use xlink:href="#Helvetica-30" x="55.615234"/>
      </g>
     </g>
    </g>
    <g id="text_34">
     <!-- Number of Categories -->
     <g transform="translate(511.497181 201.666562)scale(0.1 -0.1)">
      <use xlink:href="#Helvetica-4e"/>
      <use xlink:href="#Helvetica-75" x="72.216797"/>
      <use xlink:href="#Helvetica-6d" x="127.832031"/>
      <use xlink:href="#Helvetica-62" x="211.132812"/>
      <use xlink:href="#Helvetica-65" x="266.748047"/>
      <use xlink:href="#Helvetica-72" x="322.363281"/>
      <use xlink:href="#Helvetica-20" x="355.664062"/>
      <use xlink:href="#Helvetica-6f" x="383.447266"/>
      <use xlink:href="#Helvetica-66" x="439.0625"/>
      <use xlink:href="#Helvetica-20" x="466.845703"/>
      <use xlink:href="#Helvetica-43" x="494.628906"/>
      <use xlink:href="#Helvetica-61" x="566.845703"/>
      <use xlink:href="#Helvetica-74" x="622.460938"/>
      <use xlink:href="#Helvetica-65" x="650.244141"/>
      <use xlink:href="#Helvetica-67" x="705.859375"/>
      <use xlink:href="#Helvetica-6f" x="761.474609"/>
      <use xlink:href="#Helvetica-72" x="817.089844"/>
      <use xlink:href="#Helvetica-69" x="850.390625"/>
      <use xlink:href="#Helvetica-65" x="872.607422"/>
      <use xlink:href="#Helvetica-73" x="928.222656"/>
     </g>
    </g>
   </g>
   <g id="matplotlib.axis_6">
    <g id="ytick_14">
     <g id="line2d_28">
      <g>
       <use xlink:href="#mb9fd55cf1e" x="480.71" y="143.250799" style="stroke: #000000; stroke-width: 0.8"/>
      </g>
     </g>
     <g id="text_35">
      <!-- 0.00 -->
      <g transform="translate(454.249062 146.837518)scale(0.1 -0.1)">
       <use xlink:href="#Helvetica-30"/>
       <use xlink:href="#Helvetica-2e" x="55.615234"/>
       <use xlink:href="#Helvetica-30" x="83.398438"/>
       <use xlink:href="#Helvetica-30" x="139.013672"/>
      </g>
     </g>
    </g>
    <g id="ytick_15">
     <g id="line2d_29">
      <g>
       <use xlink:href="#mb9fd55cf1e" x="480.71" y="108.804787" style="stroke: #000000; stroke-width: 0.8"/>
      </g>
     </g>
     <g id="text_36">
      <!-- 0.02 -->
      <g transform="translate(454.249062 112.391506)scale(0.1 -0.1)">
       <use xlink:href="#Helvetica-30"/>
       <use xlink:href="#Helvetica-2e" x="55.615234"/>
       <use xlink:href="#Helvetica-30" x="83.398438"/>
       <use xlink:href="#Helvetica-32" x="139.013672"/>
      </g>
     </g>
    </g>
    <g id="ytick_16">
     <g id="line2d_30">
      <g>
       <use xlink:href="#mb9fd55cf1e" x="480.71" y="74.358775" style="stroke: #000000; stroke-width: 0.8"/>
      </g>
     </g>
     <g id="text_37">
      <!-- 0.04 -->
      <g transform="translate(454.249062 77.945493)scale(0.1 -0.1)">
       <use xlink:href="#Helvetica-30"/>
       <use xlink:href="#Helvetica-2e" x="55.615234"/>
       <use xlink:href="#Helvetica-30" x="83.398438"/>
       <use xlink:href="#Helvetica-34" x="139.013672"/>
      </g>
     </g>
    </g>
    <g id="ytick_17">
     <g id="line2d_31">
      <g>
       <use xlink:href="#mb9fd55cf1e" x="480.71" y="39.912762" style="stroke: #000000; stroke-width: 0.8"/>
      </g>
     </g>
     <g id="text_38">
      <!-- 0.06 -->
      <g transform="translate(454.249062 43.499481)scale(0.1 -0.1)">
       <use xlink:href="#Helvetica-30"/>
       <use xlink:href="#Helvetica-2e" x="55.615234"/>
       <use xlink:href="#Helvetica-30" x="83.398438"/>
       <use xlink:href="#Helvetica-36" x="139.013672"/>
      </g>
     </g>
    </g>
    <g id="text_39">
     <!-- L-Infinity Distance -->
     <g transform="translate(448.105312 139.600469)rotate(-90)scale(0.1 -0.1)">
      <defs>
       <path id="Helvetica-4c" d="M 488 4591 
L 1109 4591 
L 1109 547 
L 3434 547 
L 3434 0 
L 488 0 
L 488 4591 
z
" transform="scale(0.015625)"/>
       <path id="Helvetica-49" d="M 628 4591 
L 1256 4591 
L 1256 0 
L 628 0 
L 628 4591 
z
" transform="scale(0.015625)"/>
       <path id="Helvetica-79" d="M 2503 3347 
L 3125 3347 
Q 3006 3025 2597 1878 
Q 2291 1016 2084 472 
Q 1597 -809 1397 -1090 
Q 1197 -1372 709 -1372 
Q 591 -1372 527 -1362 
Q 463 -1353 369 -1328 
L 369 -816 
Q 516 -856 581 -865 
Q 647 -875 697 -875 
Q 853 -875 926 -823 
Q 1000 -772 1050 -697 
Q 1066 -672 1162 -440 
Q 1259 -209 1303 -97 
L 66 3347 
L 703 3347 
L 1600 622 
L 2503 3347 
z
M 1597 3428 
L 1597 3428 
z
" transform="scale(0.015625)"/>
      </defs>
      <use xlink:href="#Helvetica-4c"/>
      <use xlink:href="#Helvetica-2d" x="55.615234"/>
      <use xlink:href="#Helvetica-49" x="88.916016"/>
      <use xlink:href="#Helvetica-6e" x="116.699219"/>
      <use xlink:href="#Helvetica-66" x="172.314453"/>
      <use xlink:href="#Helvetica-69" x="200.097656"/>
      <use xlink:href="#Helvetica-6e" x="222.314453"/>
      <use xlink:href="#Helvetica-69" x="277.929688"/>
      <use xlink:href="#Helvetica-74" x="300.146484"/>
      <use xlink:href="#Helvetica-79" x="327.929688"/>
      <use xlink:href="#Helvetica-20" x="377.929688"/>
      <use xlink:href="#Helvetica-44" x="405.712891"/>
      <use xlink:href="#Helvetica-69" x="477.929688"/>
      <use xlink:href="#Helvetica-73" x="500.146484"/>
      <use xlink:href="#Helvetica-74" x="550.146484"/>
      <use xlink:href="#Helvetica-61" x="577.929688"/>
      <use xlink:href="#Helvetica-6e" x="633.544922"/>
      <use xlink:href="#Helvetica-63" x="689.160156"/>
      <use xlink:href="#Helvetica-65" x="739.160156"/>
     </g>
    </g>
   </g>
   <g id="line2d_32">
    <path d="M 487.954999 101.54839 
L 490.497104 96.753505 
L 493.039209 96.336019 
L 495.581315 96.80793 
L 498.12342 95.21239 
L 500.665525 95.000892 
L 503.20763 96.651545 
L 505.749735 95.222035 
L 508.29184 96.146566 
L 510.833945 96.415245 
L 513.37605 96.274705 
L 515.918155 96.883022 
L 518.46026 96.607454 
L 521.002365 97.400401 
L 523.54447 96.007404 
L 526.086575 97.561608 
L 528.62868 96.324997 
L 531.170785 97.398334 
L 533.71289 97.478938 
L 536.254995 97.412802 
L 538.7971 97.512695 
L 541.339205 98.534364 
L 543.88131 97.383867 
L 546.423415 98.940827 
L 548.965521 97.928114 
L 551.507626 98.650791 
L 554.049731 97.662191 
L 556.591836 98.533675 
L 559.133941 98.244328 
L 561.676046 99.324555 
L 564.218151 99.291487 
L 566.760256 99.492652 
L 569.302361 99.102723 
L 571.844466 99.789577 
L 574.386571 99.598057 
L 576.928676 99.858469 
L 579.470781 99.470606 
L 582.012886 100.245642 
L 584.554991 99.761331 
L 587.097096 100.543255 
L 589.639201 99.97903 
L 592.181306 100.498475 
L 594.723411 99.740663 
L 597.265516 101.211508 
L 599.807621 100.25322 
L 602.349727 101.921096 
L 604.891832 99.763398 
L 607.433937 102.213887 
L 609.976042 100.700329 
L 612.518147 101.748177 
L 615.060252 100.839491 
L 617.602357 101.768844 
L 620.144462 101.482942 
L 622.686567 102.076792 
L 625.228672 101.874249 
L 627.770777 102.293802 
L 630.312882 101.950719 
L 632.854987 102.458454 
" clip-path="url(#pa4a056939e)" style="fill: none; stroke: #dd4040; stroke-width: 1.5; stroke-linecap: square"/>
   </g>
   <g id="patch_17">
    <path d="M 480.71 174.04 
L 480.71 25.6875 
" style="fill: none; stroke: #000000; stroke-width: 0.8; stroke-linejoin: miter; stroke-linecap: square"/>
   </g>
   <g id="patch_18">
    <path d="M 640.099986 174.04 
L 640.099986 25.6875 
" style="fill: none; stroke: #000000; stroke-width: 0.8; stroke-linejoin: miter; stroke-linecap: square"/>
   </g>
   <g id="patch_19">
    <path d="M 480.71 174.04 
L 640.099986 174.04 
" style="fill: none; stroke: #000000; stroke-width: 0.8; stroke-linejoin: miter; stroke-linecap: square"/>
   </g>
   <g id="patch_20">
    <path d="M 480.71 25.6875 
L 640.099986 25.6875 
" style="fill: none; stroke: #000000; stroke-width: 0.8; stroke-linejoin: miter; stroke-linecap: square"/>
   </g>
   <g id="text_40">
    <!-- L-Infinity Distance -->
    <g transform="translate(512.720931 19.6875)scale(0.12 -0.12)">
     <use xlink:href="#Helvetica-4c"/>
     <use xlink:href="#Helvetica-2d" x="55.615234"/>
     <use xlink:href="#Helvetica-49" x="88.916016"/>
     <use xlink:href="#Helvetica-6e" x="116.699219"/>
     <use xlink:href="#Helvetica-66" x="172.314453"/>
     <use xlink:href="#Helvetica-69" x="200.097656"/>
     <use xlink:href="#Helvetica-6e" x="222.314453"/>
     <use xlink:href="#Helvetica-69" x="277.929688"/>
     <use xlink:href="#Helvetica-74" x="300.146484"/>
     <use xlink:href="#Helvetica-79" x="327.929688"/>
     <use xlink:href="#Helvetica-20" x="377.929688"/>
     <use xlink:href="#Helvetica-44" x="405.712891"/>
     <use xlink:href="#Helvetica-69" x="477.929688"/>
     <use xlink:href="#Helvetica-73" x="500.146484"/>
     <use xlink:href="#Helvetica-74" x="550.146484"/>
     <use xlink:href="#Helvetica-61" x="577.929688"/>
     <use xlink:href="#Helvetica-6e" x="633.544922"/>
     <use xlink:href="#Helvetica-63" x="689.160156"/>
     <use xlink:href="#Helvetica-65" x="739.160156"/>
    </g>
   </g>
   <g id="legend_3">
    <g id="patch_21">
     <path d="M 564.142174 47.945312 
L 633.099986 47.945312 
Q 635.099986 47.945312 635.099986 45.945312 
L 635.099986 32.6875 
Q 635.099986 30.6875 633.099986 30.6875 
L 564.142174 30.6875 
Q 562.142174 30.6875 562.142174 32.6875 
L 562.142174 45.945312 
Q 562.142174 47.945312 564.142174 47.945312 
z
" style="fill: #ffffff; opacity: 0.8; stroke: #cccccc; stroke-linejoin: miter"/>
    </g>
    <g id="patch_22">
     <path d="M 566.142174 41.860938 
L 586.142174 41.860938 
L 586.142174 34.860938 
L 566.142174 34.860938 
z
" style="fill: #f8dcdc; fill-opacity: 0.5; stroke: #f8dcdc; stroke-opacity: 0.5; stroke-linejoin: miter"/>
    </g>
    <g id="text_41">
     <!-- +/- 3 SD -->
     <g transform="translate(594.142174 41.860938)scale(0.1 -0.1)">
      <use xlink:href="#Helvetica-2b"/>
      <use xlink:href="#Helvetica-2f" x="58.398438"/>
      <use xlink:href="#Helvetica-2d" x="86.181641"/>
      <use xlink:href="#Helvetica-20" x="119.482422"/>
      <use xlink:href="#Helvetica-33" x="147.265625"/>
      <use xlink:href="#Helvetica-20" x="202.880859"/>
      <use xlink:href="#Helvetica-53" x="230.664062"/>
      <use xlink:href="#Helvetica-44" x="297.363281"/>
     </g>
    </g>
   </g>
  </g>
  <g id="axes_4">
   <g id="patch_23">
    <path d="M 692.615 174.04 
L 852.004986 174.04 
L 852.004986 25.6875 
L 692.615 25.6875 
z
" style="fill: #ffffff"/>
   </g>
   <g id="PolyCollection_4">
    <defs>
     <path id="ma14bbc6f16" d="M 699.859999 -74.167265 
L 699.859999 -50.78128 
L 702.402104 -49.309018 
L 704.944209 -49.608107 
L 707.486315 -48.703295 
L 710.02842 -48.773085 
L 712.570525 -50.740655 
L 715.11263 -51.464088 
L 717.654735 -49.825371 
L 720.19684 -52.091522 
L 722.738945 -51.238964 
L 725.28105 -52.576092 
L 727.823155 -52.205071 
L 730.36526 -53.130116 
L 732.907365 -52.168496 
L 735.44947 -54.983848 
L 737.991575 -52.387948 
L 740.53368 -50.743992 
L 743.075785 -56.097133 
L 745.61789 -52.796982 
L 748.159995 -54.578094 
L 750.7021 -56.052005 
L 753.244205 -54.847006 
L 755.78631 -56.387174 
L 758.328415 -55.926776 
L 760.870521 -54.777133 
L 763.412626 -59.675655 
L 765.954731 -55.841445 
L 768.496836 -57.556448 
L 771.038941 -58.336004 
L 773.581046 -56.394385 
L 776.123151 -56.181872 
L 778.665256 -58.749658 
L 781.207361 -59.33637 
L 783.749466 -60.170876 
L 786.291571 -59.130027 
L 788.833676 -59.60928 
L 791.375781 -60.097408 
L 793.917886 -60.716885 
L 796.459991 -56.466504 
L 799.002096 -61.710675 
L 801.544201 -61.105042 
L 804.086306 -56.819655 
L 806.628411 -59.968399 
L 809.170516 -62.187549 
L 811.712621 -61.395775 
L 814.254727 -60.846069 
L 816.796832 -60.537897 
L 819.338937 -59.384011 
L 821.881042 -64.117373 
L 824.423147 -60.621358 
L 826.965252 -61.671282 
L 829.507357 -63.113086 
L 832.049462 -64.869197 
L 834.591567 -64.782854 
L 837.133672 -63.973958 
L 839.675777 -61.774534 
L 842.217882 -66.392194 
L 844.759987 -63.852466 
L 844.759987 -178.292545 
L 844.759987 -178.292545 
L 842.217882 -175.994194 
L 839.675777 -183.569205 
L 837.133672 -174.299033 
L 834.591567 -170.904742 
L 832.049462 -171.006863 
L 829.507357 -173.489819 
L 826.965252 -174.985238 
L 824.423147 -175.616908 
L 821.881042 -169.526509 
L 819.338937 -171.677209 
L 816.796832 -175.202637 
L 814.254727 -164.848175 
L 811.712621 -168.827986 
L 809.170516 -160.562638 
L 806.628411 -169.885579 
L 804.086306 -171.149081 
L 801.544201 -161.928538 
L 799.002096 -157.126001 
L 796.459991 -168.974402 
L 793.917886 -157.108357 
L 791.375781 -152.699196 
L 788.833676 -161.587562 
L 786.291571 -152.076329 
L 783.749466 -153.296042 
L 781.207361 -155.669122 
L 778.665256 -147.734973 
L 776.123151 -152.502722 
L 773.581046 -150.846626 
L 771.038941 -145.310053 
L 768.496836 -146.988981 
L 765.954731 -149.354691 
L 763.412626 -138.115455 
L 760.870521 -145.88379 
L 758.328415 -140.00051 
L 755.78631 -139.325676 
L 753.244205 -140.001436 
L 750.7021 -131.015872 
L 748.159995 -136.880682 
L 745.61789 -137.591881 
L 743.075785 -127.630364 
L 740.53368 -137.946827 
L 737.991575 -127.578302 
L 735.44947 -121.983911 
L 732.907365 -124.171644 
L 730.36526 -117.649172 
L 727.823155 -121.681286 
L 725.28105 -116.182922 
L 722.738945 -110.315644 
L 720.19684 -108.173511 
L 717.654735 -108.379341 
L 715.11263 -99.789625 
L 712.570525 -98.015902 
L 710.02842 -96.117836 
L 707.486315 -90.219705 
L 704.944209 -85.334622 
L 702.402104 -80.707055 
L 699.859999 -74.167265 
z
" style="stroke: #f8dcdc; stroke-opacity: 0.5"/>
    </defs>
    <g clip-path="url(#pac26e3e31c)">
     <use xlink:href="#ma14bbc6f16" x="0" y="216" style="fill: #f8dcdc; fill-opacity: 0.5; stroke: #f8dcdc; stroke-opacity: 0.5"/>
    </g>
   </g>
   <g id="matplotlib.axis_7">
    <g id="xtick_13">
     <g id="line2d_33">
      <g>
       <use xlink:href="#mf6ae2c54b0" x="694.775789" y="174.04" style="stroke: #000000; stroke-width: 0.8"/>
      </g>
     </g>
     <g id="text_42">
      <!-- 0 -->
      <g transform="translate(691.995321 188.213437)scale(0.1 -0.1)">
       <use xlink:href="#Helvetica-30"/>
      </g>
     </g>
    </g>
    <g id="xtick_14">
     <g id="line2d_34">
      <g>
       <use xlink:href="#mf6ae2c54b0" x="745.61789" y="174.04" style="stroke: #000000; stroke-width: 0.8"/>
      </g>
     </g>
     <g id="text_43">
      <!-- 20 -->
      <g transform="translate(740.056953 188.213437)scale(0.1 -0.1)">
       <use xlink:href="#Helvetica-32"/>
       <use xlink:href="#Helvetica-30" x="55.615234"/>
      </g>
     </g>
    </g>
    <g id="xtick_15">
     <g id="line2d_35">
      <g>
       <use xlink:href="#mf6ae2c54b0" x="796.459991" y="174.04" style="stroke: #000000; stroke-width: 0.8"/>
      </g>
     </g>
     <g id="text_44">
      <!-- 40 -->
      <g transform="translate(790.899054 188.213437)scale(0.1 -0.1)">
       <use xlink:href="#Helvetica-34"/>
       <use xlink:href="#Helvetica-30" x="55.615234"/>
      </g>
     </g>
    </g>
    <g id="xtick_16">
     <g id="line2d_36">
      <g>
       <use xlink:href="#mf6ae2c54b0" x="847.302092" y="174.04" style="stroke: #000000; stroke-width: 0.8"/>
      </g>
     </g>
     <g id="text_45">
      <!-- 60 -->
      <g transform="translate(841.741155 188.213437)scale(0.1 -0.1)">
       <use xlink:href="#Helvetica-36"/>
       <use xlink:href="#Helvetica-30" x="55.615234"/>
      </g>
     </g>
    </g>
    <g id="text_46">
     <!-- Number of Categories -->
     <g transform="translate(723.402181 201.666562)scale(0.1 -0.1)">
      <use xlink:href="#Helvetica-4e"/>
      <use xlink:href="#Helvetica-75" x="72.216797"/>
      <use xlink:href="#Helvetica-6d" x="127.832031"/>
      <use xlink:href="#Helvetica-62" x="211.132812"/>
      <use xlink:href="#Helvetica-65" x="266.748047"/>
      <use xlink:href="#Helvetica-72" x="322.363281"/>
      <use xlink:href="#Helvetica-20" x="355.664062"/>
      <use xlink:href="#Helvetica-6f" x="383.447266"/>
      <use xlink:href="#Helvetica-66" x="439.0625"/>
      <use xlink:href="#Helvetica-20" x="466.845703"/>
      <use xlink:href="#Helvetica-43" x="494.628906"/>
      <use xlink:href="#Helvetica-61" x="566.845703"/>
      <use xlink:href="#Helvetica-74" x="622.460938"/>
      <use xlink:href="#Helvetica-65" x="650.244141"/>
      <use xlink:href="#Helvetica-67" x="705.859375"/>
      <use xlink:href="#Helvetica-6f" x="761.474609"/>
      <use xlink:href="#Helvetica-72" x="817.089844"/>
      <use xlink:href="#Helvetica-69" x="850.390625"/>
      <use xlink:href="#Helvetica-65" x="872.607422"/>
      <use xlink:href="#Helvetica-73" x="928.222656"/>
     </g>
    </g>
   </g>
   <g id="matplotlib.axis_8">
    <g id="ytick_18">
     <g id="line2d_37">
      <g>
       <use xlink:href="#mb9fd55cf1e" x="692.615" y="157.6235" style="stroke: #000000; stroke-width: 0.8"/>
      </g>
     </g>
     <g id="text_47">
      <!-- 0 -->
      <g transform="translate(680.054062 161.210219)scale(0.1 -0.1)">
       <use xlink:href="#Helvetica-30"/>
      </g>
     </g>
    </g>
    <g id="ytick_19">
     <g id="line2d_38">
      <g>
       <use xlink:href="#mb9fd55cf1e" x="692.615" y="134.493259" style="stroke: #000000; stroke-width: 0.8"/>
      </g>
     </g>
     <g id="text_48">
      <!-- 10 -->
      <g transform="translate(674.493125 138.079978)scale(0.1 -0.1)">
       <use xlink:href="#Helvetica-31"/>
       <use xlink:href="#Helvetica-30" x="55.615234"/>
      </g>
     </g>
    </g>
    <g id="ytick_20">
     <g id="line2d_39">
      <g>
       <use xlink:href="#mb9fd55cf1e" x="692.615" y="111.363018" style="stroke: #000000; stroke-width: 0.8"/>
      </g>
     </g>
     <g id="text_49">
      <!-- 20 -->
      <g transform="translate(674.493125 114.949737)scale(0.1 -0.1)">
       <use xlink:href="#Helvetica-32"/>
       <use xlink:href="#Helvetica-30" x="55.615234"/>
      </g>
     </g>
    </g>
    <g id="ytick_21">
     <g id="line2d_40">
      <g>
       <use xlink:href="#mb9fd55cf1e" x="692.615" y="88.232777" style="stroke: #000000; stroke-width: 0.8"/>
      </g>
     </g>
     <g id="text_50">
      <!-- 30 -->
      <g transform="translate(674.493125 91.819496)scale(0.1 -0.1)">
       <use xlink:href="#Helvetica-33"/>
       <use xlink:href="#Helvetica-30" x="55.615234"/>
      </g>
     </g>
    </g>
    <g id="ytick_22">
     <g id="line2d_41">
      <g>
       <use xlink:href="#mb9fd55cf1e" x="692.615" y="65.102536" style="stroke: #000000; stroke-width: 0.8"/>
      </g>
     </g>
     <g id="text_51">
      <!-- 40 -->
      <g transform="translate(674.493125 68.689255)scale(0.1 -0.1)">
       <use xlink:href="#Helvetica-34"/>
       <use xlink:href="#Helvetica-30" x="55.615234"/>
      </g>
     </g>
    </g>
    <g id="ytick_23">
     <g id="line2d_42">
      <g>
       <use xlink:href="#mb9fd55cf1e" x="692.615" y="41.972295" style="stroke: #000000; stroke-width: 0.8"/>
      </g>
     </g>
     <g id="text_52">
      <!-- 50 -->
      <g transform="translate(674.493125 45.559013)scale(0.1 -0.1)">
       <use xlink:href="#Helvetica-35"/>
       <use xlink:href="#Helvetica-30" x="55.615234"/>
      </g>
     </g>
    </g>
    <g id="text_53">
     <!-- Chi-Squared Statistic -->
     <g transform="translate(668.40875 146.827031)rotate(-90)scale(0.1 -0.1)">
      <defs>
       <path id="Helvetica-71" d="M 775 1628 
Q 775 1194 897 900 
Q 1113 378 1669 378 
Q 2256 378 2478 928 
Q 2600 1231 2600 1703 
Q 2600 2138 2466 2428 
Q 2238 2925 1663 2925 
Q 1297 2925 1036 2608 
Q 775 2291 775 1628 
z
M 1606 3422 
Q 2022 3422 2306 3213 
Q 2463 3100 2606 2881 
L 2606 3347 
L 3141 3347 
L 3141 -1334 
L 2575 -1334 
L 2575 384 
Q 2434 159 2186 26 
Q 1938 -106 1566 -106 
Q 1031 -106 609 312 
Q 188 731 188 1588 
Q 188 2391 583 2906 
Q 978 3422 1606 3422 
z
" transform="scale(0.015625)"/>
       <path id="Helvetica-64" d="M 769 1634 
Q 769 1097 997 734 
Q 1225 372 1728 372 
Q 2119 372 2370 708 
Q 2622 1044 2622 1672 
Q 2622 2306 2362 2611 
Q 2103 2916 1722 2916 
Q 1297 2916 1033 2591 
Q 769 2266 769 1634 
z
M 1616 3406 
Q 2000 3406 2259 3244 
Q 2409 3150 2600 2916 
L 2600 4606 
L 3141 4606 
L 3141 0 
L 2634 0 
L 2634 466 
Q 2438 156 2169 18 
Q 1900 -119 1553 -119 
Q 994 -119 584 351 
Q 175 822 175 1603 
Q 175 2334 548 2870 
Q 922 3406 1616 3406 
z
" transform="scale(0.015625)"/>
      </defs>
      <use xlink:href="#Helvetica-43"/>
      <use xlink:href="#Helvetica-68" x="72.216797"/>
      <use xlink:href="#Helvetica-69" x="127.832031"/>
      <use xlink:href="#Helvetica-2d" x="150.048828"/>
      <use xlink:href="#Helvetica-53" x="183.349609"/>
      <use xlink:href="#Helvetica-71" x="250.048828"/>
      <use xlink:href="#Helvetica-75" x="305.664062"/>
      <use xlink:href="#Helvetica-61" x="361.279297"/>
      <use xlink:href="#Helvetica-72" x="416.894531"/>
      <use xlink:href="#Helvetica-65" x="450.195312"/>
      <use xlink:href="#Helvetica-64" x="505.810547"/>
      <use xlink:href="#Helvetica-20" x="561.425781"/>
      <use xlink:href="#Helvetica-53" x="589.208984"/>
      <use xlink:href="#Helvetica-74" x="655.908203"/>
      <use xlink:href="#Helvetica-61" x="683.691406"/>
      <use xlink:href="#Helvetica-74" x="739.306641"/>
      <use xlink:href="#Helvetica-69" x="767.089844"/>
      <use xlink:href="#Helvetica-73" x="789.306641"/>
      <use xlink:href="#Helvetica-74" x="839.306641"/>
      <use xlink:href="#Helvetica-69" x="867.089844"/>
      <use xlink:href="#Helvetica-63" x="889.306641"/>
     </g>
    </g>
   </g>
   <g id="line2d_43">
    <path d="M 699.859999 153.525728 
L 702.402104 150.991964 
L 704.944209 148.528635 
L 707.486315 146.5385 
L 710.02842 143.55454 
L 712.570525 141.621721 
L 715.11263 140.373143 
L 717.654735 136.897644 
L 720.19684 135.867483 
L 722.738945 135.222696 
L 725.28105 131.620493 
L 727.823155 129.056822 
L 730.36526 130.610356 
L 732.907365 127.82993 
L 735.44947 127.516121 
L 737.991575 126.016875 
L 740.53368 121.65459 
L 743.075785 124.136251 
L 745.61789 120.805569 
L 748.159995 120.270612 
L 750.7021 122.466061 
L 753.244205 118.575779 
L 755.78631 118.143575 
L 758.328415 118.036357 
L 760.870521 115.669538 
L 763.412626 117.104445 
L 765.954731 113.401932 
L 768.496836 113.727285 
L 771.038941 114.176971 
L 773.581046 112.379495 
L 776.123151 111.657703 
L 778.665256 112.757684 
L 781.207361 108.497254 
L 783.749466 109.266541 
L 786.291571 110.396822 
L 788.833676 105.401579 
L 791.375781 109.601698 
L 793.917886 107.087379 
L 796.459991 103.279547 
L 799.002096 106.581662 
L 801.544201 104.48321 
L 804.086306 102.015632 
L 806.628411 101.073011 
L 809.170516 104.624907 
L 811.712621 100.888119 
L 814.254727 103.152878 
L 816.796832 98.129733 
L 819.338937 100.46939 
L 821.881042 99.178059 
L 824.423147 97.880867 
L 826.965252 97.67174 
L 829.507357 97.698548 
L 832.049462 98.06197 
L 834.591567 98.156202 
L 837.133672 96.863504 
L 839.675777 93.328131 
L 842.217882 94.806806 
L 844.759987 94.927495 
" clip-path="url(#pac26e3e31c)" style="fill: none; stroke: #dd4040; stroke-width: 1.5; stroke-linecap: square"/>
   </g>
   <g id="patch_24">
    <path d="M 692.615 174.04 
L 692.615 25.6875 
" style="fill: none; stroke: #000000; stroke-width: 0.8; stroke-linejoin: miter; stroke-linecap: square"/>
   </g>
   <g id="patch_25">
    <path d="M 852.004986 174.04 
L 852.004986 25.6875 
" style="fill: none; stroke: #000000; stroke-width: 0.8; stroke-linejoin: miter; stroke-linecap: square"/>
   </g>
   <g id="patch_26">
    <path d="M 692.615 174.04 
L 852.004986 174.04 
" style="fill: none; stroke: #000000; stroke-width: 0.8; stroke-linejoin: miter; stroke-linecap: square"/>
   </g>
   <g id="patch_27">
    <path d="M 692.615 25.6875 
L 852.004986 25.6875 
" style="fill: none; stroke: #000000; stroke-width: 0.8; stroke-linejoin: miter; stroke-linecap: square"/>
   </g>
   <g id="text_54">
    <!-- Chi-Squared Statistic -->
    <g transform="translate(715.954056 19.6875)scale(0.12 -0.12)">
     <use xlink:href="#Helvetica-43"/>
     <use xlink:href="#Helvetica-68" x="72.216797"/>
     <use xlink:href="#Helvetica-69" x="127.832031"/>
     <use xlink:href="#Helvetica-2d" x="150.048828"/>
     <use xlink:href="#Helvetica-53" x="183.349609"/>
     <use xlink:href="#Helvetica-71" x="250.048828"/>
     <use xlink:href="#Helvetica-75" x="305.664062"/>
     <use xlink:href="#Helvetica-61" x="361.279297"/>
     <use xlink:href="#Helvetica-72" x="416.894531"/>
     <use xlink:href="#Helvetica-65" x="450.195312"/>
     <use xlink:href="#Helvetica-64" x="505.810547"/>
     <use xlink:href="#Helvetica-20" x="561.425781"/>
     <use xlink:href="#Helvetica-53" x="589.208984"/>
     <use xlink:href="#Helvetica-74" x="655.908203"/>
     <use xlink:href="#Helvetica-61" x="683.691406"/>
     <use xlink:href="#Helvetica-74" x="739.306641"/>
     <use xlink:href="#Helvetica-69" x="767.089844"/>
     <use xlink:href="#Helvetica-73" x="789.306641"/>
     <use xlink:href="#Helvetica-74" x="839.306641"/>
     <use xlink:href="#Helvetica-69" x="867.089844"/>
     <use xlink:href="#Helvetica-63" x="889.306641"/>
    </g>
   </g>
   <g id="legend_4">
    <g id="patch_28">
     <path d="M 776.047174 47.945312 
L 845.004986 47.945312 
Q 847.004986 47.945312 847.004986 45.945312 
L 847.004986 32.6875 
Q 847.004986 30.6875 845.004986 30.6875 
L 776.047174 30.6875 
Q 774.047174 30.6875 774.047174 32.6875 
L 774.047174 45.945312 
Q 774.047174 47.945312 776.047174 47.945312 
z
" style="fill: #ffffff; opacity: 0.8; stroke: #cccccc; stroke-linejoin: miter"/>
    </g>
    <g id="patch_29">
     <path d="M 778.047174 41.860938 
L 798.047174 41.860938 
L 798.047174 34.860938 
L 778.047174 34.860938 
z
" style="fill: #f8dcdc; fill-opacity: 0.5; stroke: #f8dcdc; stroke-opacity: 0.5; stroke-linejoin: miter"/>
    </g>
    <g id="text_55">
     <!-- +/- 3 SD -->
     <g transform="translate(806.047174 41.860938)scale(0.1 -0.1)">
      <use xlink:href="#Helvetica-2b"/>
      <use xlink:href="#Helvetica-2f" x="58.398438"/>
      <use xlink:href="#Helvetica-2d" x="86.181641"/>
      <use xlink:href="#Helvetica-20" x="119.482422"/>
      <use xlink:href="#Helvetica-33" x="147.265625"/>
      <use xlink:href="#Helvetica-20" x="202.880859"/>
      <use xlink:href="#Helvetica-53" x="230.664062"/>
      <use xlink:href="#Helvetica-44" x="297.363281"/>
     </g>
    </g>
   </g>
  </g>
 </g>
 <defs>
  <clipPath id="p9dad788ed7">
   <rect x="56.9" y="25.6875" width="159.389986" height="148.3525"/>
  </clipPath>
  <clipPath id="p3a250c6a11">
   <rect x="268.805" y="25.6875" width="159.389986" height="148.3525"/>
  </clipPath>
  <clipPath id="pa4a056939e">
   <rect x="480.71" y="25.6875" width="159.389986" height="148.3525"/>
  </clipPath>
  <clipPath id="pac26e3e31c">
   <rect x="692.615" y="25.6875" width="159.389986" height="148.3525"/>
  </clipPath>
 </defs>
</svg>
