<?xml version="1.0" encoding="utf-8" standalone="no"?>
<!DOCTYPE svg PUBLIC "-//W3C//DTD SVG 1.1//EN"
  "http://www.w3.org/Graphics/SVG/1.1/DTD/svg11.dtd">
<svg xmlns:xlink="http://www.w3.org/1999/xlink" width="864pt" height="216pt" viewBox="0 0 864 216" xmlns="http://www.w3.org/2000/svg" version="1.1">
 <metadata>
  <rdf:RDF xmlns:dc="http://purl.org/dc/elements/1.1/" xmlns:cc="http://creativecommons.org/ns#" xmlns:rdf="http://www.w3.org/1999/02/22-rdf-syntax-ns#">
   <cc:Work>
    <dc:type rdf:resource="http://purl.org/dc/dcmitype/StillImage"/>
    <dc:date>2023-03-27T17:57:00.698267</dc:date>
    <dc:format>image/svg+xml</dc:format>
    <dc:creator>
     <cc:Agent>
      <dc:title>Matplotlib v3.6.2, https://matplotlib.org/</dc:title>
     </cc:Agent>
    </dc:creator>
   </cc:Work>
  </rdf:RDF>
 </metadata>
 <defs>
  <style type="text/css">*{stroke-linejoin: round; stroke-linecap: butt}</style>
 </defs>
 <g id="figure_1">
  <g id="patch_1">
   <path d="M 0 216
L 864 216
L 864 0
L 0 0
z
" style="fill: #ffffff"/>
  </g>
  <g id="axes_1">
   <g id="patch_2">
    <path d="M 51.23 174.04
L 213.2325 174.04
L 213.2325 25.6875
L 51.23 25.6875
z
" style="fill: #ffffff"/>
   </g>
   <g id="PolyCollection_1">
    <defs>
     <path id="m9a1cb39679" d="M 58.59375 -183.569205
L 58.59375 -76.76078
L 60.112049 -68.222292
L 61.630348 -66.614438
L 63.148647 -64.450073
L 64.666946 -63.158411
L 66.185245 -62.616049
L 67.703544 -62.291634
L 69.221843 -60.53341
L 70.740142 -60.540625
L 72.258441 -59.280449
L 73.77674 -60.248506
L 75.295039 -58.018737
L 76.813338 -57.556887
L 78.331637 -58.48637
L 79.849936 -55.642087
L 81.368235 -56.309385
L 82.886534 -55.58595
L 84.404832 -56.685152
L 85.923131 -55.301675
L 87.44143 -54.191639
L 88.959729 -54.501357
L 90.478028 -53.679738
L 91.996327 -53.08388
L 93.514626 -53.638702
L 95.032925 -53.257652
L 96.551224 -53.257409
L 98.069523 -52.287074
L 99.587822 -51.961133
L 101.106121 -51.963592
L 102.62442 -52.43641
L 104.142719 -51.313371
L 105.661018 -50.907906
L 107.179317 -51.889506
L 108.697616 -51.529402
L 110.215915 -51.85776
L 111.734214 -51.615713
L 113.252513 -51.633131
L 114.770812 -51.26342
L 116.289111 -50.536321
L 117.80741 -51.719022
L 119.325709 -50.731241
L 120.844008 -51.011347
L 122.362307 -50.637279
L 123.880606 -50.950984
L 125.398905 -50.618124
L 126.917204 -50.1815
L 128.435503 -50.453153
L 129.953802 -49.849517
L 131.472101 -50.208664
L 132.990399 -50.756063
L 134.508698 -49.856562
L 136.026997 -49.831269
L 137.545296 -50.099018
L 139.063595 -50.714922
L 140.581894 -49.327374
L 142.100193 -50.608755
L 143.618492 -49.891086
L 145.136791 -49.555583
L 146.65509 -49.600335
L 148.173389 -49.860003
L 149.691688 -50.649927
L 151.209987 -49.872986
L 152.728286 -50.523222
L 154.246585 -50.08617
L 155.764884 -49.640599
L 157.283183 -49.17193
L 158.801482 -49.977127
L 160.319781 -49.43422
L 161.83808 -48.975243
L 163.356379 -49.158548
L 164.874678 -49.561201
L 166.392977 -49.630824
L 167.911276 -50.279295
L 169.429575 -49.504839
L 170.947874 -49.687485
L 172.466173 -49.272473
L 173.984472 -49.453923
L 175.502771 -49.297802
L 177.02107 -49.075669
L 178.539369 -49.504428
L 180.057668 -49.00367
L 181.575966 -48.980404
L 183.094265 -48.925181
L 184.612564 -49.42372
L 186.130863 -49.648213
L 187.649162 -49.856832
L 189.167461 -49.489727
L 190.68576 -48.703295
L 192.204059 -49.78986
L 193.722358 -49.993528
L 195.240657 -48.950983
L 196.758956 -49.835862
L 198.277255 -49.121649
L 199.795554 -48.737425
L 201.313853 -49.049686
L 202.832152 -48.927929
L 204.350451 -49.566563
L 205.86875 -49.2825
L 205.86875 -68.327237
L 205.86875 -68.327237
L 204.350451 -68.7837
L 202.832152 -69.008408
L 201.313853 -68.977033
L 199.795554 -69.537701
L 198.277255 -69.411788
L 196.758956 -69.197448
L 195.240657 -70.027354
L 193.722358 -69.000046
L 192.204059 -69.327013
L 190.68576 -70.105113
L 189.167461 -69.692143
L 187.649162 -69.769308
L 186.130863 -69.757277
L 184.612564 -70.403874
L 183.094265 -70.931832
L 181.575966 -70.684334
L 180.057668 -71.580056
L 178.539369 -70.938889
L 177.02107 -71.175158
L 175.502771 -71.193748
L 173.984472 -70.629816
L 172.466173 -72.043124
L 170.947874 -71.543173
L 169.429575 -72.171753
L 167.911276 -71.552644
L 166.392977 -72.340981
L 164.874678 -72.169403
L 163.356379 -73.09276
L 161.83808 -72.845928
L 160.319781 -72.422193
L 158.801482 -72.635161
L 157.283183 -73.679887
L 155.764884 -73.486156
L 154.246585 -72.864728
L 152.728286 -72.782486
L 151.209987 -73.865434
L 149.691688 -73.638132
L 148.173389 -74.442567
L 146.65509 -75.062131
L 145.136791 -75.055407
L 143.618492 -74.741406
L 142.100193 -74.711546
L 140.581894 -76.513355
L 139.063595 -74.563305
L 137.545296 -76.826253
L 136.026997 -76.737552
L 134.508698 -77.053438
L 132.990399 -76.599838
L 131.472101 -77.386819
L 129.953802 -77.419088
L 128.435503 -77.9526
L 126.917204 -78.539693
L 125.398905 -78.916028
L 123.880606 -78.859239
L 122.362307 -78.795848
L 120.844008 -78.976095
L 119.325709 -79.651603
L 117.80741 -79.420876
L 116.289111 -81.60665
L 114.770812 -79.961442
L 113.252513 -80.956537
L 111.734214 -82.009645
L 110.215915 -81.710749
L 108.697616 -83.109457
L 107.179317 -82.388092
L 105.661018 -83.764219
L 104.142719 -84.189906
L 102.62442 -84.618576
L 101.106121 -85.445947
L 99.587822 -86.275289
L 98.069523 -86.641011
L 96.551224 -87.036709
L 95.032925 -86.549085
L 93.514626 -88.163619
L 91.996327 -89.682886
L 90.478028 -90.757171
L 88.959729 -90.221169
L 87.44143 -92.51507
L 85.923131 -92.143331
L 84.404832 -93.045215
L 82.886534 -95.718311
L 81.368235 -96.380096
L 79.849936 -97.741962
L 78.331637 -98.044104
L 76.813338 -100.863488
L 75.295039 -102.685695
L 73.77674 -102.992117
L 72.258441 -107.081402
L 70.740142 -109.471676
L 69.221843 -113.28279
L 67.703544 -115.702846
L 66.185245 -121.428485
L 64.666946 -127.793069
L 63.148647 -136.123907
L 61.630348 -144.19996
L 60.112049 -161.14557
L 58.59375 -183.569205
z
" style="stroke: #f8dcdc; stroke-opacity: 0.5"/>
    </defs>
    <g clip-path="url(#p1640ad9881)">
     <use xlink:href="#m9a1cb39679" x="0" y="216" style="fill: #f8dcdc; fill-opacity: 0.5; stroke: #f8dcdc; stroke-opacity: 0.5"/>
    </g>
   </g>
   <g id="matplotlib.axis_1">
    <g id="xtick_1">
     <g id="line2d_1">
      <defs>
       <path id="m49847ccd4d" d="M 0 0
L 0 3.5
" style="stroke: #000000; stroke-width: 0.8"/>
      </defs>
      <g>
       <use xlink:href="#m49847ccd4d" x="55.557152" y="174.04" style="stroke: #000000; stroke-width: 0.8"/>
      </g>
     </g>
     <g id="text_1">
      <!-- 0 -->
      <g transform="translate(52.776683 188.213437) scale(0.1 -0.1)">
       <defs>
        <path id="Helvetica-30" d="M 1731 4475
Q 2600 4475 2988 3759
Q 3288 3206 3288 2244
Q 3288 1331 3016 734
Q 2622 -122 1728 -122
Q 922 -122 528 578
Q 200 1163 200 2147
Q 200 2909 397 3456
Q 766 4475 1731 4475
z
M 1725 391
Q 2163 391 2422 778
Q 2681 1166 2681 2222
Q 2681 2984 2493 3476
Q 2306 3969 1766 3969
Q 1269 3969 1039 3501
Q 809 3034 809 2125
Q 809 1441 956 1025
Q 1181 391 1725 391
z
" transform="scale(0.015625)"/>
       </defs>
       <use xlink:href="#Helvetica-30"/>
      </g>
     </g>
    </g>
    <g id="xtick_2">
     <g id="line2d_2">
      <g>
       <use xlink:href="#m49847ccd4d" x="116.289111" y="174.04" style="stroke: #000000; stroke-width: 0.8"/>
      </g>
     </g>
     <g id="text_2">
      <!-- 2000 -->
      <g transform="translate(105.167236 188.213437) scale(0.1 -0.1)">
       <defs>
        <path id="Helvetica-32" d="M 200 0
Q 231 578 439 1006
Q 647 1434 1250 1784
L 1850 2131
Q 2253 2366 2416 2531
Q 2672 2791 2672 3125
Q 2672 3516 2437 3745
Q 2203 3975 1813 3975
Q 1234 3975 1013 3538
Q 894 3303 881 2888
L 309 2888
Q 319 3472 525 3841
Q 891 4491 1816 4491
Q 2584 4491 2939 4075
Q 3294 3659 3294 3150
Q 3294 2613 2916 2231
Q 2697 2009 2131 1694
L 1703 1456
Q 1397 1288 1222 1134
Q 909 863 828 531
L 3272 531
L 3272 0
L 200 0
z
" transform="scale(0.015625)"/>
       </defs>
       <use xlink:href="#Helvetica-32"/>
       <use xlink:href="#Helvetica-30" x="55.615234"/>
       <use xlink:href="#Helvetica-30" x="111.230469"/>
       <use xlink:href="#Helvetica-30" x="166.845703"/>
      </g>
     </g>
    </g>
    <g id="xtick_3">
     <g id="line2d_3">
      <g>
       <use xlink:href="#m49847ccd4d" x="177.02107" y="174.04" style="stroke: #000000; stroke-width: 0.8"/>
      </g>
     </g>
     <g id="text_3">
      <!-- 4000 -->
      <g transform="translate(165.899195 188.213437) scale(0.1 -0.1)">
       <defs>
        <path id="Helvetica-34" d="M 2116 1584
L 2116 3613
L 681 1584
L 2116 1584
z
M 2125 0
L 2125 1094
L 163 1094
L 163 1644
L 2213 4488
L 2688 4488
L 2688 1584
L 3347 1584
L 3347 1094
L 2688 1094
L 2688 0
L 2125 0
z
" transform="scale(0.015625)"/>
       </defs>
       <use xlink:href="#Helvetica-34"/>
       <use xlink:href="#Helvetica-30" x="55.615234"/>
       <use xlink:href="#Helvetica-30" x="111.230469"/>
       <use xlink:href="#Helvetica-30" x="166.845703"/>
      </g>
     </g>
    </g>
    <g id="text_4">
     <!-- Analysis Sample Size -->
     <g transform="translate(84.15625 201.666562) scale(0.1 -0.1)">
      <defs>
       <path id="Helvetica-41" d="M 2844 1881
L 2147 3909
L 1406 1881
L 2844 1881
z
M 1822 4591
L 2525 4591
L 4191 0
L 3509 0
L 3044 1375
L 1228 1375
L 731 0
L 94 0
L 1822 4591
z
" transform="scale(0.015625)"/>
       <path id="Helvetica-6e" d="M 413 3347
L 947 3347
L 947 2872
Q 1184 3166 1450 3294
Q 1716 3422 2041 3422
Q 2753 3422 3003 2925
Q 3141 2653 3141 2147
L 3141 0
L 2569 0
L 2569 2109
Q 2569 2416 2478 2603
Q 2328 2916 1934 2916
Q 1734 2916 1606 2875
Q 1375 2806 1200 2600
Q 1059 2434 1017 2257
Q 975 2081 975 1753
L 975 0
L 413 0
L 413 3347
z
M 1734 3428
L 1734 3428
z
" transform="scale(0.015625)"/>
       <path id="Helvetica-61" d="M 844 891
Q 844 647 1022 506
Q 1200 366 1444 366
Q 1741 366 2019 503
Q 2488 731 2488 1250
L 2488 1703
Q 2384 1638 2221 1594
Q 2059 1550 1903 1531
L 1563 1488
Q 1256 1447 1103 1359
Q 844 1213 844 891
z
M 2206 2028
Q 2400 2053 2466 2191
Q 2503 2266 2503 2406
Q 2503 2694 2298 2823
Q 2094 2953 1713 2953
Q 1272 2953 1088 2716
Q 984 2584 953 2325
L 428 2325
Q 444 2944 830 3186
Q 1216 3428 1725 3428
Q 2316 3428 2684 3203
Q 3050 2978 3050 2503
L 3050 575
Q 3050 488 3086 434
Q 3122 381 3238 381
Q 3275 381 3322 386
Q 3369 391 3422 400
L 3422 -16
Q 3291 -53 3222 -62
Q 3153 -72 3034 -72
Q 2744 -72 2613 134
Q 2544 244 2516 444
Q 2344 219 2022 53
Q 1700 -113 1313 -113
Q 847 -113 551 170
Q 256 453 256 878
Q 256 1344 547 1600
Q 838 1856 1309 1916
L 2206 2028
z
M 1741 3428
L 1741 3428
z
" transform="scale(0.015625)"/>
       <path id="Helvetica-6c" d="M 428 4591
L 991 4591
L 991 0
L 428 0
L 428 4591
z
" transform="scale(0.015625)"/>
       <path id="Helvetica-79" d="M 2503 3347
L 3125 3347
Q 3006 3025 2597 1878
Q 2291 1016 2084 472
Q 1597 -809 1397 -1090
Q 1197 -1372 709 -1372
Q 591 -1372 527 -1362
Q 463 -1353 369 -1328
L 369 -816
Q 516 -856 581 -865
Q 647 -875 697 -875
Q 853 -875 926 -823
Q 1000 -772 1050 -697
Q 1066 -672 1162 -440
Q 1259 -209 1303 -97
L 66 3347
L 703 3347
L 1600 622
L 2503 3347
z
M 1597 3428
L 1597 3428
z
" transform="scale(0.015625)"/>
       <path id="Helvetica-73" d="M 747 1050
Q 772 769 888 619
Q 1100 347 1625 347
Q 1938 347 2175 483
Q 2413 619 2413 903
Q 2413 1119 2222 1231
Q 2100 1300 1741 1391
L 1294 1503
Q 866 1609 663 1741
Q 300 1969 300 2372
Q 300 2847 642 3140
Q 984 3434 1563 3434
Q 2319 3434 2653 2991
Q 2863 2709 2856 2384
L 2325 2384
Q 2309 2575 2191 2731
Q 1997 2953 1519 2953
Q 1200 2953 1036 2831
Q 872 2709 872 2509
Q 872 2291 1088 2159
Q 1213 2081 1456 2022
L 1828 1931
Q 2434 1784 2641 1647
Q 2969 1431 2969 969
Q 2969 522 2630 197
Q 2291 -128 1597 -128
Q 850 -128 539 211
Q 228 550 206 1050
L 747 1050
z
M 1578 3428
L 1578 3428
z
" transform="scale(0.015625)"/>
       <path id="Helvetica-69" d="M 413 3331
L 984 3331
L 984 0
L 413 0
L 413 3331
z
M 413 4591
L 984 4591
L 984 3953
L 413 3953
L 413 4591
z
" transform="scale(0.015625)"/>
       <path id="Helvetica-20" transform="scale(0.015625)"/>
       <path id="Helvetica-53" d="M 894 1481
Q 916 1091 1078 847
Q 1388 391 2169 391
Q 2519 391 2806 491
Q 3363 684 3363 1184
Q 3363 1559 3128 1719
Q 2891 1875 2384 1991
L 1763 2131
Q 1153 2269 900 2434
Q 463 2722 463 3294
Q 463 3913 891 4309
Q 1319 4706 2103 4706
Q 2825 4706 3329 4357
Q 3834 4009 3834 3244
L 3250 3244
Q 3203 3613 3050 3809
Q 2766 4169 2084 4169
Q 1534 4169 1293 3937
Q 1053 3706 1053 3400
Q 1053 3063 1334 2906
Q 1519 2806 2169 2656
L 2813 2509
Q 3278 2403 3531 2219
Q 3969 1897 3969 1284
Q 3969 522 3414 194
Q 2859 -134 2125 -134
Q 1269 -134 784 303
Q 300 738 309 1481
L 894 1481
z
M 2150 4716
L 2150 4716
z
" transform="scale(0.015625)"/>
       <path id="Helvetica-6d" d="M 413 3347
L 969 3347
L 969 2872
Q 1169 3119 1331 3231
Q 1609 3422 1963 3422
Q 2363 3422 2606 3225
Q 2744 3113 2856 2894
Q 3044 3163 3297 3292
Q 3550 3422 3866 3422
Q 4541 3422 4784 2934
Q 4916 2672 4916 2228
L 4916 0
L 4331 0
L 4331 2325
Q 4331 2659 4164 2784
Q 3997 2909 3756 2909
Q 3425 2909 3186 2687
Q 2947 2466 2947 1947
L 2947 0
L 2375 0
L 2375 2184
Q 2375 2525 2294 2681
Q 2166 2916 1816 2916
Q 1497 2916 1236 2669
Q 975 2422 975 1775
L 975 0
L 413 0
L 413 3347
z
" transform="scale(0.015625)"/>
       <path id="Helvetica-70" d="M 1825 378
Q 2219 378 2480 708
Q 2741 1038 2741 1694
Q 2741 2094 2625 2381
Q 2406 2934 1825 2934
Q 1241 2934 1025 2350
Q 909 2038 909 1556
Q 909 1169 1025 897
Q 1244 378 1825 378
z
M 369 3331
L 916 3331
L 916 2888
Q 1084 3116 1284 3241
Q 1569 3428 1953 3428
Q 2522 3428 2919 2992
Q 3316 2556 3316 1747
Q 3316 653 2744 184
Q 2381 -113 1900 -113
Q 1522 -113 1266 53
Q 1116 147 931 375
L 931 -1334
L 369 -1334
L 369 3331
z
" transform="scale(0.015625)"/>
       <path id="Helvetica-65" d="M 1806 3422
Q 2163 3422 2497 3255
Q 2831 3088 3006 2822
Q 3175 2569 3231 2231
Q 3281 2000 3281 1494
L 828 1494
Q 844 984 1069 676
Q 1294 369 1766 369
Q 2206 369 2469 659
Q 2619 828 2681 1050
L 3234 1050
Q 3213 866 3089 639
Q 2966 413 2813 269
Q 2556 19 2178 -69
Q 1975 -119 1719 -119
Q 1094 -119 659 336
Q 225 791 225 1609
Q 225 2416 662 2919
Q 1100 3422 1806 3422
z
M 2703 1941
Q 2669 2306 2544 2525
Q 2313 2931 1772 2931
Q 1384 2931 1121 2651
Q 859 2372 844 1941
L 2703 1941
z
M 1753 3428
L 1753 3428
z
" transform="scale(0.015625)"/>
       <path id="Helvetica-7a" d="M 163 444
L 2147 2844
L 309 2844
L 309 3347
L 2903 3347
L 2903 2888
L 931 503
L 2963 503
L 2963 0
L 163 0
L 163 444
z
M 1609 3428
L 1609 3428
z
" transform="scale(0.015625)"/>
      </defs>
      <use xlink:href="#Helvetica-41"/>
      <use xlink:href="#Helvetica-6e" x="66.699219"/>
      <use xlink:href="#Helvetica-61" x="122.314453"/>
      <use xlink:href="#Helvetica-6c" x="177.929688"/>
      <use xlink:href="#Helvetica-79" x="200.146484"/>
      <use xlink:href="#Helvetica-73" x="250.146484"/>
      <use xlink:href="#Helvetica-69" x="300.146484"/>
      <use xlink:href="#Helvetica-73" x="322.363281"/>
      <use xlink:href="#Helvetica-20" x="372.363281"/>
      <use xlink:href="#Helvetica-53" x="400.146484"/>
      <use xlink:href="#Helvetica-61" x="466.845703"/>
      <use xlink:href="#Helvetica-6d" x="522.460938"/>
      <use xlink:href="#Helvetica-70" x="605.761719"/>
      <use xlink:href="#Helvetica-6c" x="661.376953"/>
      <use xlink:href="#Helvetica-65" x="683.59375"/>
      <use xlink:href="#Helvetica-20" x="739.208984"/>
      <use xlink:href="#Helvetica-53" x="766.992188"/>
      <use xlink:href="#Helvetica-69" x="833.691406"/>
      <use xlink:href="#Helvetica-7a" x="855.908203"/>
      <use xlink:href="#Helvetica-65" x="905.908203"/>
     </g>
    </g>
   </g>
   <g id="matplotlib.axis_2">
    <g id="ytick_1">
     <g id="line2d_4">
      <defs>
       <path id="mfa2532177a" d="M 0 0
L -3.5 0
" style="stroke: #000000; stroke-width: 0.8"/>
      </defs>
      <g>
       <use xlink:href="#mfa2532177a" x="51.23" y="171.620879" style="stroke: #000000; stroke-width: 0.8"/>
      </g>
     </g>
     <g id="text_5">
      <!-- 0.00 -->
      <g transform="translate(24.769063 175.207598) scale(0.1 -0.1)">
       <defs>
        <path id="Helvetica-2e" d="M 547 681
L 1200 681
L 1200 0
L 547 0
L 547 681
z
" transform="scale(0.015625)"/>
       </defs>
       <use xlink:href="#Helvetica-30"/>
       <use xlink:href="#Helvetica-2e" x="55.615234"/>
       <use xlink:href="#Helvetica-30" x="83.398438"/>
       <use xlink:href="#Helvetica-30" x="139.013672"/>
      </g>
     </g>
    </g>
    <g id="ytick_2">
     <g id="line2d_5">
      <g>
       <use xlink:href="#mfa2532177a" x="51.23" y="138.929493" style="stroke: #000000; stroke-width: 0.8"/>
      </g>
     </g>
     <g id="text_6">
      <!-- 0.05 -->
      <g transform="translate(24.769063 142.516211) scale(0.1 -0.1)">
       <defs>
        <path id="Helvetica-35" d="M 791 1141
Q 847 659 1238 475
Q 1438 381 1700 381
Q 2200 381 2440 700
Q 2681 1019 2681 1406
Q 2681 1875 2395 2131
Q 2109 2388 1709 2388
Q 1419 2388 1211 2275
Q 1003 2163 856 1963
L 369 1991
L 709 4400
L 3034 4400
L 3034 3856
L 1131 3856
L 941 2613
Q 1097 2731 1238 2791
Q 1488 2894 1816 2894
Q 2431 2894 2859 2497
Q 3288 2100 3288 1491
Q 3288 856 2895 371
Q 2503 -113 1644 -113
Q 1097 -113 676 195
Q 256 503 206 1141
L 791 1141
z
" transform="scale(0.015625)"/>
       </defs>
       <use xlink:href="#Helvetica-30"/>
       <use xlink:href="#Helvetica-2e" x="55.615234"/>
       <use xlink:href="#Helvetica-30" x="83.398438"/>
       <use xlink:href="#Helvetica-35" x="139.013672"/>
      </g>
     </g>
    </g>
    <g id="ytick_3">
     <g id="line2d_6">
      <g>
       <use xlink:href="#mfa2532177a" x="51.23" y="106.238106" style="stroke: #000000; stroke-width: 0.8"/>
      </g>
     </g>
     <g id="text_7">
      <!-- 0.10 -->
      <g transform="translate(24.769063 109.824825) scale(0.1 -0.1)">
       <defs>
        <path id="Helvetica-31" d="M 613 3169
L 613 3600
Q 1222 3659 1462 3798
Q 1703 3938 1822 4456
L 2266 4456
L 2266 0
L 1666 0
L 1666 3169
L 613 3169
z
" transform="scale(0.015625)"/>
       </defs>
       <use xlink:href="#Helvetica-30"/>
       <use xlink:href="#Helvetica-2e" x="55.615234"/>
       <use xlink:href="#Helvetica-31" x="83.398438"/>
       <use xlink:href="#Helvetica-30" x="139.013672"/>
      </g>
     </g>
    </g>
    <g id="ytick_4">
     <g id="line2d_7">
      <g>
       <use xlink:href="#mfa2532177a" x="51.23" y="73.546719" style="stroke: #000000; stroke-width: 0.8"/>
      </g>
     </g>
     <g id="text_8">
      <!-- 0.15 -->
      <g transform="translate(24.769063 77.133438) scale(0.1 -0.1)">
       <use xlink:href="#Helvetica-30"/>
       <use xlink:href="#Helvetica-2e" x="55.615234"/>
       <use xlink:href="#Helvetica-31" x="83.398438"/>
       <use xlink:href="#Helvetica-35" x="139.013672"/>
      </g>
     </g>
    </g>
    <g id="ytick_5">
     <g id="line2d_8">
      <g>
       <use xlink:href="#mfa2532177a" x="51.23" y="40.855333" style="stroke: #000000; stroke-width: 0.8"/>
      </g>
     </g>
     <g id="text_9">
      <!-- 0.20 -->
      <g transform="translate(24.769063 44.442051) scale(0.1 -0.1)">
       <use xlink:href="#Helvetica-30"/>
       <use xlink:href="#Helvetica-2e" x="55.615234"/>
       <use xlink:href="#Helvetica-32" x="83.398438"/>
       <use xlink:href="#Helvetica-30" x="139.013672"/>
      </g>
     </g>
    </g>
    <g id="text_10">
     <!-- Jensen-Shannon Distance -->
     <g transform="translate(18.684688 158.509844) rotate(-90) scale(0.1 -0.1)">
      <defs>
       <path id="Helvetica-4a" d="M 2741 1369
Q 2741 788 2569 466
Q 2250 -122 1356 -122
Q 841 -122 475 158
Q 109 438 109 1153
L 109 1481
L 694 1481
L 694 1153
Q 694 778 861 589
Q 1028 400 1381 400
Q 1878 400 2031 741
Q 2125 950 2125 1531
L 2125 4591
L 2741 4591
L 2741 1369
z
" transform="scale(0.015625)"/>
       <path id="Helvetica-2d" d="M 266 2072
L 1834 2072
L 1834 1494
L 266 1494
L 266 2072
z
" transform="scale(0.015625)"/>
       <path id="Helvetica-68" d="M 413 4606
L 975 4606
L 975 2894
Q 1175 3147 1334 3250
Q 1606 3428 2013 3428
Q 2741 3428 3000 2919
Q 3141 2641 3141 2147
L 3141 0
L 2563 0
L 2563 2109
Q 2563 2478 2469 2650
Q 2316 2925 1894 2925
Q 1544 2925 1259 2684
Q 975 2444 975 1775
L 975 0
L 413 0
L 413 4606
z
" transform="scale(0.015625)"/>
       <path id="Helvetica-6f" d="M 1741 363
Q 2300 363 2508 786
Q 2716 1209 2716 1728
Q 2716 2197 2566 2491
Q 2328 2953 1747 2953
Q 1231 2953 997 2559
Q 763 2166 763 1609
Q 763 1075 997 719
Q 1231 363 1741 363
z
M 1763 3444
Q 2409 3444 2856 3012
Q 3303 2581 3303 1744
Q 3303 934 2909 406
Q 2516 -122 1688 -122
Q 997 -122 590 345
Q 184 813 184 1600
Q 184 2444 612 2944
Q 1041 3444 1763 3444
z
M 1744 3428
L 1744 3428
z
" transform="scale(0.015625)"/>
       <path id="Helvetica-44" d="M 2250 531
Q 2566 531 2769 597
Q 3131 719 3363 1066
Q 3547 1344 3628 1778
Q 3675 2038 3675 2259
Q 3675 3113 3336 3584
Q 2997 4056 2244 4056
L 1141 4056
L 1141 531
L 2250 531
z
M 516 4591
L 2375 4591
Q 3322 4591 3844 3919
Q 4309 3313 4309 2366
Q 4309 1634 4034 1044
Q 3550 0 2369 0
L 516 0
L 516 4591
z
" transform="scale(0.015625)"/>
       <path id="Helvetica-74" d="M 525 4281
L 1094 4281
L 1094 3347
L 1628 3347
L 1628 2888
L 1094 2888
L 1094 703
Q 1094 528 1213 469
Q 1278 434 1431 434
Q 1472 434 1519 436
Q 1566 438 1628 444
L 1628 0
Q 1531 -28 1426 -40
Q 1322 -53 1200 -53
Q 806 -53 665 148
Q 525 350 525 672
L 525 2888
L 72 2888
L 72 3347
L 525 3347
L 525 4281
z
" transform="scale(0.015625)"/>
       <path id="Helvetica-63" d="M 1703 3444
Q 2269 3444 2623 3169
Q 2978 2894 3050 2222
L 2503 2222
Q 2453 2531 2275 2736
Q 2097 2941 1703 2941
Q 1166 2941 934 2416
Q 784 2075 784 1575
Q 784 1072 996 728
Q 1209 384 1666 384
Q 2016 384 2220 598
Q 2425 813 2503 1184
L 3050 1184
Q 2956 519 2581 211
Q 2206 -97 1622 -97
Q 966 -97 575 383
Q 184 863 184 1581
Q 184 2463 612 2953
Q 1041 3444 1703 3444
z
M 1616 3428
L 1616 3428
z
" transform="scale(0.015625)"/>
      </defs>
      <use xlink:href="#Helvetica-4a"/>
      <use xlink:href="#Helvetica-65" x="50"/>
      <use xlink:href="#Helvetica-6e" x="105.615234"/>
      <use xlink:href="#Helvetica-73" x="161.230469"/>
      <use xlink:href="#Helvetica-65" x="211.230469"/>
      <use xlink:href="#Helvetica-6e" x="266.845703"/>
      <use xlink:href="#Helvetica-2d" x="322.460938"/>
      <use xlink:href="#Helvetica-53" x="355.761719"/>
      <use xlink:href="#Helvetica-68" x="422.460938"/>
      <use xlink:href="#Helvetica-61" x="478.076172"/>
      <use xlink:href="#Helvetica-6e" x="533.691406"/>
      <use xlink:href="#Helvetica-6e" x="589.306641"/>
      <use xlink:href="#Helvetica-6f" x="644.921875"/>
      <use xlink:href="#Helvetica-6e" x="700.537109"/>
      <use xlink:href="#Helvetica-20" x="756.152344"/>
      <use xlink:href="#Helvetica-44" x="783.935547"/>
      <use xlink:href="#Helvetica-69" x="856.152344"/>
      <use xlink:href="#Helvetica-73" x="878.369141"/>
      <use xlink:href="#Helvetica-74" x="928.369141"/>
      <use xlink:href="#Helvetica-61" x="956.152344"/>
      <use xlink:href="#Helvetica-6e" x="1011.767578"/>
      <use xlink:href="#Helvetica-63" x="1067.382812"/>
      <use xlink:href="#Helvetica-65" x="1117.382812"/>
     </g>
    </g>
   </g>
   <g id="line2d_9">
    <path d="M 58.59375 85.835008
L 60.112049 101.316069
L 61.630348 110.592801
L 63.148647 115.71301
L 64.666946 120.52426
L 66.185245 123.977733
L 67.703544 127.00276
L 69.221843 129.0919
L 70.740142 130.993849
L 72.258441 132.819075
L 73.77674 134.379689
L 75.295039 135.647784
L 76.813338 136.789813
L 78.331637 137.734763
L 79.849936 139.307976
L 81.368235 139.65526
L 82.886534 140.347869
L 84.404832 141.134817
L 85.923131 142.277497
L 87.44143 142.646646
L 88.959729 143.638737
L 90.478028 143.781546
L 91.996327 144.616617
L 93.514626 145.09884
L 95.032925 146.096631
L 96.551224 145.852941
L 98.069523 146.535958
L 99.587822 146.881789
L 101.106121 147.29523
L 102.62442 147.472507
L 104.142719 148.248362
L 105.661018 148.663938
L 107.179317 148.861201
L 108.697616 148.680571
L 110.215915 149.215746
L 111.734214 149.187321
L 113.252513 149.705166
L 114.770812 150.387569
L 116.289111 149.928514
L 117.80741 150.430051
L 119.325709 150.808578
L 120.844008 151.006279
L 122.362307 151.283437
L 123.880606 151.094888
L 125.398905 151.232924
L 126.917204 151.639403
L 128.435503 151.797124
L 129.953802 152.365698
L 131.472101 152.202258
L 132.990399 152.32205
L 134.508698 152.545
L 136.026997 152.715589
L 137.545296 152.537364
L 139.063595 153.360886
L 140.581894 153.079635
L 142.100193 153.33985
L 143.618492 153.683754
L 145.136791 153.694505
L 146.65509 153.668767
L 148.173389 153.848715
L 149.691688 153.85597
L 151.209987 154.13079
L 152.728286 154.347146
L 154.246585 154.524551
L 155.764884 154.436622
L 157.283183 154.574091
L 158.801482 154.693856
L 160.319781 155.071794
L 161.83808 155.089415
L 163.356379 154.874346
L 164.874678 155.134698
L 166.392977 155.014097
L 167.911276 155.08403
L 169.429575 155.161704
L 170.947874 155.384671
L 172.466173 155.342202
L 173.984472 155.958131
L 175.502771 155.754225
L 177.02107 155.874587
L 178.539369 155.778342
L 180.057668 155.708137
L 181.575966 156.167631
L 183.094265 156.071494
L 184.612564 156.086203
L 186.130863 156.297255
L 187.649162 156.18693
L 189.167461 156.409065
L 190.68576 156.595796
L 192.204059 156.441564
L 193.722358 156.503213
L 195.240657 156.510831
L 196.758956 156.483345
L 198.277255 156.733281
L 199.795554 156.862437
L 201.313853 156.986641
L 202.832152 157.031831
L 204.350451 156.824868
L 205.86875 157.195131
" clip-path="url(#p1640ad9881)" style="fill: none; stroke: #dd4040; stroke-width: 1.5; stroke-linecap: square"/>
   </g>
   <g id="patch_3">
    <path d="M 51.23 174.04
L 51.23 25.6875
" style="fill: none; stroke: #000000; stroke-width: 0.8; stroke-linejoin: miter; stroke-linecap: square"/>
   </g>
   <g id="patch_4">
    <path d="M 213.2325 174.04
L 213.2325 25.6875
" style="fill: none; stroke: #000000; stroke-width: 0.8; stroke-linejoin: miter; stroke-linecap: square"/>
   </g>
   <g id="patch_5">
    <path d="M 51.23 174.04
L 213.2325 174.04
" style="fill: none; stroke: #000000; stroke-width: 0.8; stroke-linejoin: miter; stroke-linecap: square"/>
   </g>
   <g id="patch_6">
    <path d="M 51.23 25.6875
L 213.2325 25.6875
" style="fill: none; stroke: #000000; stroke-width: 0.8; stroke-linejoin: miter; stroke-linecap: square"/>
   </g>
   <g id="text_11">
    <!-- Jensen-Shannon Distance -->
    <g transform="translate(61.855938 19.6875) scale(0.12 -0.12)">
     <use xlink:href="#Helvetica-4a"/>
     <use xlink:href="#Helvetica-65" x="50"/>
     <use xlink:href="#Helvetica-6e" x="105.615234"/>
     <use xlink:href="#Helvetica-73" x="161.230469"/>
     <use xlink:href="#Helvetica-65" x="211.230469"/>
     <use xlink:href="#Helvetica-6e" x="266.845703"/>
     <use xlink:href="#Helvetica-2d" x="322.460938"/>
     <use xlink:href="#Helvetica-53" x="355.761719"/>
     <use xlink:href="#Helvetica-68" x="422.460938"/>
     <use xlink:href="#Helvetica-61" x="478.076172"/>
     <use xlink:href="#Helvetica-6e" x="533.691406"/>
     <use xlink:href="#Helvetica-6e" x="589.306641"/>
     <use xlink:href="#Helvetica-6f" x="644.921875"/>
     <use xlink:href="#Helvetica-6e" x="700.537109"/>
     <use xlink:href="#Helvetica-20" x="756.152344"/>
     <use xlink:href="#Helvetica-44" x="783.935547"/>
     <use xlink:href="#Helvetica-69" x="856.152344"/>
     <use xlink:href="#Helvetica-73" x="878.369141"/>
     <use xlink:href="#Helvetica-74" x="928.369141"/>
     <use xlink:href="#Helvetica-61" x="956.152344"/>
     <use xlink:href="#Helvetica-6e" x="1011.767578"/>
     <use xlink:href="#Helvetica-63" x="1067.382812"/>
     <use xlink:href="#Helvetica-65" x="1117.382812"/>
    </g>
   </g>
   <g id="legend_1">
    <g id="patch_7">
     <path d="M 137.274688 47.945312
L 206.2325 47.945312
Q 208.2325 47.945312 208.2325 45.945312
L 208.2325 32.6875
Q 208.2325 30.6875 206.2325 30.6875
L 137.274688 30.6875
Q 135.274688 30.6875 135.274688 32.6875
L 135.274688 45.945312
Q 135.274688 47.945312 137.274688 47.945312
z
" style="fill: #ffffff; opacity: 0.8; stroke: #cccccc; stroke-linejoin: miter"/>
    </g>
    <g id="patch_8">
     <path d="M 139.274688 41.860938
L 159.274688 41.860938
L 159.274688 34.860938
L 139.274688 34.860938
z
" style="fill: #f8dcdc; fill-opacity: 0.5; stroke: #f8dcdc; stroke-opacity: 0.5; stroke-linejoin: miter"/>
    </g>
    <g id="text_12">
     <!-- +/- 3 SD -->
     <g transform="translate(167.274688 41.860938) scale(0.1 -0.1)">
      <defs>
       <path id="Helvetica-2b" d="M 288 1369
L 288 1894
L 1650 1894
L 1650 3266
L 2184 3266
L 2184 1894
L 3547 1894
L 3547 1369
L 2184 1369
L 2184 0
L 1650 0
L 1650 1369
L 288 1369
z
" transform="scale(0.015625)"/>
       <path id="Helvetica-2f" d="M 1456 4591
L 1931 4591
L 475 0
L 0 0
L 1456 4591
z
" transform="scale(0.015625)"/>
       <path id="Helvetica-33" d="M 1663 -122
Q 869 -122 511 314
Q 153 750 153 1375
L 741 1375
Q 778 941 903 744
Q 1122 391 1694 391
Q 2138 391 2406 628
Q 2675 866 2675 1241
Q 2675 1703 2392 1887
Q 2109 2072 1606 2072
Q 1550 2072 1492 2070
Q 1434 2069 1375 2066
L 1375 2563
Q 1463 2553 1522 2550
Q 1581 2547 1650 2547
Q 1966 2547 2169 2647
Q 2525 2822 2525 3272
Q 2525 3606 2287 3787
Q 2050 3969 1734 3969
Q 1172 3969 956 3594
Q 838 3388 822 3006
L 266 3006
Q 266 3506 466 3856
Q 809 4481 1675 4481
Q 2359 4481 2734 4176
Q 3109 3872 3109 3294
Q 3109 2881 2888 2625
Q 2750 2466 2531 2375
Q 2884 2278 3082 2001
Q 3281 1725 3281 1325
Q 3281 684 2859 281
Q 2438 -122 1663 -122
z
" transform="scale(0.015625)"/>
      </defs>
      <use xlink:href="#Helvetica-2b"/>
      <use xlink:href="#Helvetica-2f" x="58.398438"/>
      <use xlink:href="#Helvetica-2d" x="86.181641"/>
      <use xlink:href="#Helvetica-20" x="119.482422"/>
      <use xlink:href="#Helvetica-33" x="147.265625"/>
      <use xlink:href="#Helvetica-20" x="202.880859"/>
      <use xlink:href="#Helvetica-53" x="230.664062"/>
      <use xlink:href="#Helvetica-44" x="297.363281"/>
     </g>
    </g>
   </g>
  </g>
  <g id="axes_2">
   <g id="patch_9">
    <path d="M 264.5525 174.04
L 426.555 174.04
L 426.555 25.6875
L 264.5525 25.6875
z
" style="fill: #ffffff"/>
   </g>
   <g id="PolyCollection_2">
    <defs>
     <path id="m3d5626adbc" d="M 271.91625 -183.569205
L 271.91625 -75.811202
L 273.434549 -66.496884
L 274.952848 -65.384251
L 276.471147 -63.195076
L 277.989446 -62.439534
L 279.507745 -62.421513
L 281.026044 -62.899763
L 282.544343 -60.966848
L 284.062642 -61.534552
L 285.580941 -59.915583
L 287.09924 -61.040115
L 288.617539 -58.431273
L 290.135838 -58.065371
L 291.654137 -59.030072
L 293.172436 -55.933566
L 294.690735 -56.402306
L 296.209034 -55.750729
L 297.727332 -56.558922
L 299.245631 -55.090771
L 300.76393 -54.119358
L 302.282229 -54.208782
L 303.800528 -53.437097
L 305.318827 -52.640339
L 306.837126 -53.178163
L 308.355425 -52.76477
L 309.873724 -52.605293
L 311.392023 -51.69949
L 312.910322 -51.313145
L 314.428621 -51.437688
L 315.94692 -51.776156
L 317.465219 -50.651881
L 318.983518 -50.391622
L 320.501817 -50.996223
L 322.020116 -50.872739
L 323.538415 -51.113731
L 325.056714 -50.824301
L 326.575013 -50.816273
L 328.093312 -50.475018
L 329.611611 -49.864148
L 331.12991 -51.047772
L 332.648209 -50.0866
L 334.166508 -50.317148
L 335.684807 -49.845329
L 337.203106 -50.167467
L 338.721405 -49.887729
L 340.239704 -49.659873
L 341.758003 -49.768593
L 343.276302 -49.276233
L 344.794601 -49.612302
L 346.312899 -50.095127
L 347.831198 -49.110997
L 349.349497 -49.283328
L 350.867796 -49.477845
L 352.386095 -50.149372
L 353.904394 -48.932219
L 355.422693 -50.191989
L 356.940992 -49.504613
L 358.459291 -49.030732
L 359.97759 -49.18255
L 361.495889 -49.549754
L 363.014188 -49.991324
L 364.532487 -49.487046
L 366.050786 -50.221728
L 367.569085 -49.549379
L 369.087384 -49.287503
L 370.605683 -48.82297
L 372.123982 -49.783764
L 373.642281 -49.213917
L 375.16058 -48.778933
L 376.678879 -48.941609
L 378.197178 -49.561575
L 379.715477 -49.190007
L 381.233776 -50.03281
L 382.752075 -49.324361
L 384.270374 -49.561159
L 385.788673 -49.160273
L 387.306972 -49.305239
L 388.825271 -49.114695
L 390.34357 -49.099465
L 391.861869 -49.543016
L 393.380168 -48.913221
L 394.898466 -48.845665
L 396.416765 -48.879205
L 397.935064 -49.452501
L 399.453363 -49.375859
L 400.971662 -49.845394
L 402.489961 -49.490473
L 404.00826 -48.773323
L 405.526559 -50.04673
L 407.044858 -50.116717
L 408.563157 -49.018666
L 410.081456 -49.758248
L 411.599755 -49.29524
L 413.118054 -48.703295
L 414.636353 -49.192245
L 416.154652 -49.176559
L 417.672951 -49.587794
L 419.19125 -49.606297
L 419.19125 -67.404809
L 419.19125 -67.404809
L 417.672951 -68.20342
L 416.154652 -68.180493
L 414.636353 -68.279239
L 413.118054 -69.050083
L 411.599755 -68.64246
L 410.081456 -68.713238
L 408.563157 -69.3649
L 407.044858 -68.238486
L 405.526559 -68.369722
L 404.00826 -69.472322
L 402.489961 -69.088009
L 400.971662 -69.161271
L 399.453363 -69.514765
L 397.935064 -69.723084
L 396.416765 -70.387748
L 394.898466 -70.270905
L 393.380168 -71.069199
L 391.861869 -70.232501
L 390.34357 -70.525146
L 388.825271 -70.789696
L 387.306972 -70.167454
L 385.788673 -71.520792
L 384.270374 -70.998573
L 382.752075 -71.711831
L 381.233776 -71.143195
L 379.715477 -72.183883
L 378.197178 -71.414473
L 376.678879 -72.692191
L 375.16058 -72.433075
L 373.642281 -72.036958
L 372.123982 -72.116155
L 370.605683 -73.418642
L 369.087384 -73.215388
L 367.569085 -72.821116
L 366.050786 -72.383523
L 364.532487 -73.603129
L 363.014188 -73.736286
L 361.495889 -74.000024
L 359.97759 -74.860944
L 358.459291 -74.966754
L 356.940992 -74.392965
L 355.422693 -74.46373
L 353.904394 -76.261786
L 352.386095 -74.483956
L 350.867796 -76.808412
L 349.349497 -76.607374
L 347.831198 -77.327341
L 346.312899 -76.655906
L 344.794601 -77.274434
L 343.276302 -77.428591
L 341.758003 -78.008426
L 340.239704 -78.455543
L 338.721405 -79.000044
L 337.203106 -79.152863
L 335.684807 -79.121766
L 334.166508 -79.12578
L 332.648209 -79.737855
L 331.12991 -79.518618
L 329.611611 -81.860163
L 328.093312 -80.364772
L 326.575013 -81.189156
L 325.056714 -82.274884
L 323.538415 -81.974088
L 322.020116 -83.384591
L 320.501817 -82.759373
L 318.983518 -83.779108
L 317.465219 -84.297576
L 315.94692 -84.961057
L 314.428621 -85.548286
L 312.910322 -86.420906
L 311.392023 -86.528666
L 309.873724 -87.282822
L 308.355425 -86.741172
L 306.837126 -88.206547
L 305.318827 -89.704207
L 303.800528 -90.554255
L 302.282229 -90.17172
L 300.76393 -92.110716
L 299.245631 -92.005768
L 297.727332 -92.584549
L 296.209034 -95.004013
L 294.690735 -95.651255
L 293.172436 -96.956878
L 291.654137 -96.968529
L 290.135838 -99.622815
L 288.617539 -101.620602
L 287.09924 -101.313099
L 285.580941 -105.548959
L 284.062642 -107.471848
L 282.544343 -111.70614
L 281.026044 -113.588141
L 279.507745 -120.147217
L 277.989446 -127.010836
L 276.471147 -136.165293
L 274.952848 -143.742253
L 273.434549 -161.863916
L 271.91625 -183.569205
z
" style="stroke: #f8dcdc; stroke-opacity: 0.5"/>
    </defs>
    <g clip-path="url(#p45351b33ca)">
     <use xlink:href="#m3d5626adbc" x="0" y="216" style="fill: #f8dcdc; fill-opacity: 0.5; stroke: #f8dcdc; stroke-opacity: 0.5"/>
    </g>
   </g>
   <g id="matplotlib.axis_3">
    <g id="xtick_4">
     <g id="line2d_10">
      <g>
       <use xlink:href="#m49847ccd4d" x="268.879652" y="174.04" style="stroke: #000000; stroke-width: 0.8"/>
      </g>
     </g>
     <g id="text_13">
      <!-- 0 -->
      <g transform="translate(266.099183 188.213437) scale(0.1 -0.1)">
       <use xlink:href="#Helvetica-30"/>
      </g>
     </g>
    </g>
    <g id="xtick_5">
     <g id="line2d_11">
      <g>
       <use xlink:href="#m49847ccd4d" x="329.611611" y="174.04" style="stroke: #000000; stroke-width: 0.8"/>
      </g>
     </g>
     <g id="text_14">
      <!-- 2000 -->
      <g transform="translate(318.489736 188.213437) scale(0.1 -0.1)">
       <use xlink:href="#Helvetica-32"/>
       <use xlink:href="#Helvetica-30" x="55.615234"/>
       <use xlink:href="#Helvetica-30" x="111.230469"/>
       <use xlink:href="#Helvetica-30" x="166.845703"/>
      </g>
     </g>
    </g>
    <g id="xtick_6">
     <g id="line2d_12">
      <g>
       <use xlink:href="#m49847ccd4d" x="390.34357" y="174.04" style="stroke: #000000; stroke-width: 0.8"/>
      </g>
     </g>
     <g id="text_15">
      <!-- 4000 -->
      <g transform="translate(379.221695 188.213437) scale(0.1 -0.1)">
       <use xlink:href="#Helvetica-34"/>
       <use xlink:href="#Helvetica-30" x="55.615234"/>
       <use xlink:href="#Helvetica-30" x="111.230469"/>
       <use xlink:href="#Helvetica-30" x="166.845703"/>
      </g>
     </g>
    </g>
    <g id="text_16">
     <!-- Analysis Sample Size -->
     <g transform="translate(297.47875 201.666562) scale(0.1 -0.1)">
      <use xlink:href="#Helvetica-41"/>
      <use xlink:href="#Helvetica-6e" x="66.699219"/>
      <use xlink:href="#Helvetica-61" x="122.314453"/>
      <use xlink:href="#Helvetica-6c" x="177.929688"/>
      <use xlink:href="#Helvetica-79" x="200.146484"/>
      <use xlink:href="#Helvetica-73" x="250.146484"/>
      <use xlink:href="#Helvetica-69" x="300.146484"/>
      <use xlink:href="#Helvetica-73" x="322.363281"/>
      <use xlink:href="#Helvetica-20" x="372.363281"/>
      <use xlink:href="#Helvetica-53" x="400.146484"/>
      <use xlink:href="#Helvetica-61" x="466.845703"/>
      <use xlink:href="#Helvetica-6d" x="522.460938"/>
      <use xlink:href="#Helvetica-70" x="605.761719"/>
      <use xlink:href="#Helvetica-6c" x="661.376953"/>
      <use xlink:href="#Helvetica-65" x="683.59375"/>
      <use xlink:href="#Helvetica-20" x="739.208984"/>
      <use xlink:href="#Helvetica-53" x="766.992188"/>
      <use xlink:href="#Helvetica-69" x="833.691406"/>
      <use xlink:href="#Helvetica-7a" x="855.908203"/>
      <use xlink:href="#Helvetica-65" x="905.908203"/>
     </g>
    </g>
   </g>
   <g id="matplotlib.axis_4">
    <g id="ytick_6">
     <g id="line2d_13">
      <g>
       <use xlink:href="#mfa2532177a" x="264.5525" y="170.881318" style="stroke: #000000; stroke-width: 0.8"/>
      </g>
     </g>
     <g id="text_17">
      <!-- 0.00 -->
      <g transform="translate(238.091562 174.468036) scale(0.1 -0.1)">
       <use xlink:href="#Helvetica-30"/>
       <use xlink:href="#Helvetica-2e" x="55.615234"/>
       <use xlink:href="#Helvetica-30" x="83.398438"/>
       <use xlink:href="#Helvetica-30" x="139.013672"/>
      </g>
     </g>
    </g>
    <g id="ytick_7">
     <g id="line2d_14">
      <g>
       <use xlink:href="#mfa2532177a" x="264.5525" y="134.537727" style="stroke: #000000; stroke-width: 0.8"/>
      </g>
     </g>
     <g id="text_18">
      <!-- 0.05 -->
      <g transform="translate(238.091562 138.124446) scale(0.1 -0.1)">
       <use xlink:href="#Helvetica-30"/>
       <use xlink:href="#Helvetica-2e" x="55.615234"/>
       <use xlink:href="#Helvetica-30" x="83.398438"/>
       <use xlink:href="#Helvetica-35" x="139.013672"/>
      </g>
     </g>
    </g>
    <g id="ytick_8">
     <g id="line2d_15">
      <g>
       <use xlink:href="#mfa2532177a" x="264.5525" y="98.194137" style="stroke: #000000; stroke-width: 0.8"/>
      </g>
     </g>
     <g id="text_19">
      <!-- 0.10 -->
      <g transform="translate(238.091562 101.780855) scale(0.1 -0.1)">
       <use xlink:href="#Helvetica-30"/>
       <use xlink:href="#Helvetica-2e" x="55.615234"/>
       <use xlink:href="#Helvetica-31" x="83.398438"/>
       <use xlink:href="#Helvetica-30" x="139.013672"/>
      </g>
     </g>
    </g>
    <g id="ytick_9">
     <g id="line2d_16">
      <g>
       <use xlink:href="#mfa2532177a" x="264.5525" y="61.850546" style="stroke: #000000; stroke-width: 0.8"/>
      </g>
     </g>
     <g id="text_20">
      <!-- 0.15 -->
      <g transform="translate(238.091562 65.437265) scale(0.1 -0.1)">
       <use xlink:href="#Helvetica-30"/>
       <use xlink:href="#Helvetica-2e" x="55.615234"/>
       <use xlink:href="#Helvetica-31" x="83.398438"/>
       <use xlink:href="#Helvetica-35" x="139.013672"/>
      </g>
     </g>
    </g>
    <g id="text_21">
     <!-- Hellinger Distance -->
     <g transform="translate(231.879062 140.435625) rotate(-90) scale(0.1 -0.1)">
      <defs>
       <path id="Helvetica-48" d="M 503 4591
L 1131 4591
L 1131 2694
L 3519 2694
L 3519 4591
L 4147 4591
L 4147 0
L 3519 0
L 3519 2147
L 1131 2147
L 1131 0
L 503 0
L 503 4591
z
" transform="scale(0.015625)"/>
       <path id="Helvetica-67" d="M 1594 3406
Q 1988 3406 2281 3213
Q 2441 3103 2606 2894
L 2606 3316
L 3125 3316
L 3125 272
Q 3125 -366 2938 -734
Q 2588 -1416 1616 -1416
Q 1075 -1416 706 -1173
Q 338 -931 294 -416
L 866 -416
Q 906 -641 1028 -763
Q 1219 -950 1628 -950
Q 2275 -950 2475 -494
Q 2594 -225 2584 466
Q 2416 209 2178 84
Q 1941 -41 1550 -41
Q 1006 -41 598 345
Q 191 731 191 1622
Q 191 2463 602 2934
Q 1013 3406 1594 3406
z
M 2606 1688
Q 2606 2309 2350 2609
Q 2094 2909 1697 2909
Q 1103 2909 884 2353
Q 769 2056 769 1575
Q 769 1009 998 714
Q 1228 419 1616 419
Q 2222 419 2469 966
Q 2606 1275 2606 1688
z
M 1659 3428
L 1659 3428
z
" transform="scale(0.015625)"/>
       <path id="Helvetica-72" d="M 428 3347
L 963 3347
L 963 2769
Q 1028 2938 1284 3180
Q 1541 3422 1875 3422
Q 1891 3422 1928 3419
Q 1966 3416 2056 3406
L 2056 2813
Q 2006 2822 1964 2825
Q 1922 2828 1872 2828
Q 1447 2828 1219 2554
Q 991 2281 991 1925
L 991 0
L 428 0
L 428 3347
z
" transform="scale(0.015625)"/>
      </defs>
      <use xlink:href="#Helvetica-48"/>
      <use xlink:href="#Helvetica-65" x="72.216797"/>
      <use xlink:href="#Helvetica-6c" x="127.832031"/>
      <use xlink:href="#Helvetica-6c" x="150.048828"/>
      <use xlink:href="#Helvetica-69" x="172.265625"/>
      <use xlink:href="#Helvetica-6e" x="194.482422"/>
      <use xlink:href="#Helvetica-67" x="250.097656"/>
      <use xlink:href="#Helvetica-65" x="305.712891"/>
      <use xlink:href="#Helvetica-72" x="361.328125"/>
      <use xlink:href="#Helvetica-20" x="394.628906"/>
      <use xlink:href="#Helvetica-44" x="422.412109"/>
      <use xlink:href="#Helvetica-69" x="494.628906"/>
      <use xlink:href="#Helvetica-73" x="516.845703"/>
      <use xlink:href="#Helvetica-74" x="566.845703"/>
      <use xlink:href="#Helvetica-61" x="594.628906"/>
      <use xlink:href="#Helvetica-6e" x="650.244141"/>
      <use xlink:href="#Helvetica-63" x="705.859375"/>
      <use xlink:href="#Helvetica-65" x="755.859375"/>
     </g>
    </g>
   </g>
   <g id="line2d_17">
    <path d="M 271.91625 86.309797
L 273.434549 101.8196
L 274.952848 111.436748
L 276.471147 116.319815
L 277.989446 121.274815
L 279.507745 124.715635
L 281.026044 127.756048
L 282.544343 129.663506
L 284.062642 131.4968
L 285.580941 133.267729
L 287.09924 134.823393
L 288.617539 135.974063
L 290.135838 137.155907
L 291.654137 138.000699
L 293.172436 139.554778
L 294.690735 139.97322
L 296.209034 140.622629
L 297.727332 141.428264
L 299.245631 142.451731
L 300.76393 142.884963
L 302.282229 143.809749
L 303.800528 144.004324
L 305.318827 144.827727
L 306.837126 145.307645
L 308.355425 146.247029
L 309.873724 146.055943
L 311.392023 146.885922
L 312.910322 147.132975
L 314.428621 147.507013
L 315.94692 147.631393
L 317.465219 148.525271
L 318.983518 148.914635
L 320.501817 149.122202
L 322.020116 148.871335
L 323.538415 149.456091
L 325.056714 149.450408
L 326.575013 149.997286
L 328.093312 150.580105
L 329.611611 150.137845
L 331.12991 150.716805
L 332.648209 151.087772
L 334.166508 151.278536
L 335.684807 151.516453
L 337.203106 151.339835
L 338.721405 151.556114
L 340.239704 151.942292
L 341.758003 152.11149
L 343.276302 152.647588
L 344.794601 152.556632
L 346.312899 152.624484
L 347.831198 152.780831
L 349.349497 153.054649
L 350.867796 152.856871
L 352.386095 153.683336
L 353.904394 153.402998
L 355.422693 153.672141
L 356.940992 154.051211
L 358.459291 154.001257
L 359.97759 153.978253
L 361.495889 154.225111
L 363.014188 154.136195
L 364.532487 154.454913
L 366.050786 154.697374
L 367.569085 154.814752
L 369.087384 154.748555
L 370.605683 154.879194
L 372.123982 155.050041
L 373.642281 155.374562
L 375.16058 155.393996
L 376.678879 155.1831
L 378.197178 155.511976
L 379.715477 155.313055
L 381.233776 155.411998
L 382.752075 155.481904
L 384.270374 155.720134
L 385.788673 155.659467
L 387.306972 156.263654
L 388.825271 156.047804
L 390.34357 156.187694
L 391.861869 156.112242
L 393.380168 156.00879
L 394.898466 156.441715
L 396.416765 156.366524
L 397.935064 156.412208
L 399.453363 156.554688
L 400.971662 156.496668
L 402.489961 156.710759
L 404.00826 156.877178
L 405.526559 156.791774
L 407.044858 156.822399
L 408.563157 156.808217
L 410.081456 156.764257
L 411.599755 157.03115
L 413.118054 157.123311
L 414.636353 157.264258
L 416.154652 157.321474
L 417.672951 157.104393
L 419.19125 157.494447
" clip-path="url(#p45351b33ca)" style="fill: none; stroke: #dd4040; stroke-width: 1.5; stroke-linecap: square"/>
   </g>
   <g id="patch_10">
    <path d="M 264.5525 174.04
L 264.5525 25.6875
" style="fill: none; stroke: #000000; stroke-width: 0.8; stroke-linejoin: miter; stroke-linecap: square"/>
   </g>
   <g id="patch_11">
    <path d="M 426.555 174.04
L 426.555 25.6875
" style="fill: none; stroke: #000000; stroke-width: 0.8; stroke-linejoin: miter; stroke-linecap: square"/>
   </g>
   <g id="patch_12">
    <path d="M 264.5525 174.04
L 426.555 174.04
" style="fill: none; stroke: #000000; stroke-width: 0.8; stroke-linejoin: miter; stroke-linecap: square"/>
   </g>
   <g id="patch_13">
    <path d="M 264.5525 25.6875
L 426.555 25.6875
" style="fill: none; stroke: #000000; stroke-width: 0.8; stroke-linejoin: miter; stroke-linecap: square"/>
   </g>
   <g id="text_22">
    <!-- Hellinger Distance -->
    <g transform="translate(296.8675 19.6875) scale(0.12 -0.12)">
     <use xlink:href="#Helvetica-48"/>
     <use xlink:href="#Helvetica-65" x="72.216797"/>
     <use xlink:href="#Helvetica-6c" x="127.832031"/>
     <use xlink:href="#Helvetica-6c" x="150.048828"/>
     <use xlink:href="#Helvetica-69" x="172.265625"/>
     <use xlink:href="#Helvetica-6e" x="194.482422"/>
     <use xlink:href="#Helvetica-67" x="250.097656"/>
     <use xlink:href="#Helvetica-65" x="305.712891"/>
     <use xlink:href="#Helvetica-72" x="361.328125"/>
     <use xlink:href="#Helvetica-20" x="394.628906"/>
     <use xlink:href="#Helvetica-44" x="422.412109"/>
     <use xlink:href="#Helvetica-69" x="494.628906"/>
     <use xlink:href="#Helvetica-73" x="516.845703"/>
     <use xlink:href="#Helvetica-74" x="566.845703"/>
     <use xlink:href="#Helvetica-61" x="594.628906"/>
     <use xlink:href="#Helvetica-6e" x="650.244141"/>
     <use xlink:href="#Helvetica-63" x="705.859375"/>
     <use xlink:href="#Helvetica-65" x="755.859375"/>
    </g>
   </g>
   <g id="legend_2">
    <g id="patch_14">
     <path d="M 350.597188 47.945312
L 419.555 47.945312
Q 421.555 47.945312 421.555 45.945312
L 421.555 32.6875
Q 421.555 30.6875 419.555 30.6875
L 350.597188 30.6875
Q 348.597188 30.6875 348.597188 32.6875
L 348.597188 45.945312
Q 348.597188 47.945312 350.597188 47.945312
z
" style="fill: #ffffff; opacity: 0.8; stroke: #cccccc; stroke-linejoin: miter"/>
    </g>
    <g id="patch_15">
     <path d="M 352.597188 41.860938
L 372.597188 41.860938
L 372.597188 34.860938
L 352.597188 34.860938
z
" style="fill: #f8dcdc; fill-opacity: 0.5; stroke: #f8dcdc; stroke-opacity: 0.5; stroke-linejoin: miter"/>
    </g>
    <g id="text_23">
     <!-- +/- 3 SD -->
     <g transform="translate(380.597188 41.860938) scale(0.1 -0.1)">
      <use xlink:href="#Helvetica-2b"/>
      <use xlink:href="#Helvetica-2f" x="58.398438"/>
      <use xlink:href="#Helvetica-2d" x="86.181641"/>
      <use xlink:href="#Helvetica-20" x="119.482422"/>
      <use xlink:href="#Helvetica-33" x="147.265625"/>
      <use xlink:href="#Helvetica-20" x="202.880859"/>
      <use xlink:href="#Helvetica-53" x="230.664062"/>
      <use xlink:href="#Helvetica-44" x="297.363281"/>
     </g>
    </g>
   </g>
  </g>
  <g id="axes_3">
   <g id="patch_16">
    <path d="M 477.875 174.04
L 639.8775 174.04
L 639.8775 25.6875
L 477.875 25.6875
z
" style="fill: #ffffff"/>
   </g>
   <g id="PolyCollection_3">
    <defs>
     <path id="m79200332da" d="M 485.23875 -183.569205
L 485.23875 -48.703295
L 486.757049 -50.305945
L 488.275348 -52.737548
L 489.793647 -52.003917
L 491.311946 -52.703931
L 492.830245 -53.952635
L 494.348544 -52.535695
L 495.866843 -54.1861
L 497.385142 -53.537658
L 498.903441 -53.798457
L 500.42174 -54.507962
L 501.940039 -52.614644
L 503.458338 -54.282392
L 504.976637 -53.803073
L 506.494936 -52.619254
L 508.013235 -53.726637
L 509.531534 -53.248978
L 511.049832 -53.590576
L 512.568131 -53.679673
L 514.08643 -53.156618
L 515.604729 -54.041731
L 517.123028 -54.182975
L 518.641327 -53.593753
L 520.159626 -54.181306
L 521.677925 -54.787993
L 523.196224 -54.696742
L 524.714523 -54.237153
L 526.232822 -53.816229
L 527.751121 -53.956003
L 529.26942 -54.647258
L 530.787719 -54.431681
L 532.306018 -52.954127
L 533.824317 -55.130774
L 535.342616 -54.696538
L 536.860915 -54.225878
L 538.379214 -54.582637
L 539.897513 -54.052523
L 541.415812 -54.286863
L 542.934111 -54.368636
L 544.45241 -54.730325
L 545.970709 -54.025876
L 547.489008 -54.172569
L 549.007307 -54.597604
L 550.525606 -54.558129
L 552.043905 -54.651085
L 553.562204 -54.572787
L 555.080503 -54.302989
L 556.598802 -54.564033
L 558.117101 -54.934314
L 559.635399 -54.965694
L 561.153698 -55.135826
L 562.671997 -54.065581
L 564.190296 -54.585603
L 565.708595 -55.23303
L 567.226894 -53.917599
L 568.745193 -55.000669
L 570.263492 -55.069332
L 571.781791 -53.992973
L 573.30009 -54.098179
L 574.818389 -54.949596
L 576.336688 -54.636786
L 577.854987 -54.840702
L 579.373286 -55.226039
L 580.891585 -55.080392
L 582.409884 -54.525575
L 583.928183 -54.981832
L 585.446482 -55.305623
L 586.964781 -54.069776
L 588.48308 -54.462282
L 590.001379 -54.330522
L 591.519678 -54.773752
L 593.037977 -55.103854
L 594.556276 -55.432204
L 596.074575 -54.611443
L 597.592874 -55.095401
L 599.111173 -54.816147
L 600.629472 -55.116895
L 602.147771 -54.976089
L 603.66607 -54.094865
L 605.184369 -55.118066
L 606.702668 -55.142709
L 608.220966 -55.311933
L 609.739265 -54.659447
L 611.257564 -54.865989
L 612.775863 -55.196878
L 614.294162 -55.123862
L 615.812461 -55.16744
L 617.33076 -54.178765
L 618.849059 -54.931694
L 620.367358 -54.856504
L 621.885657 -55.080446
L 623.403956 -54.919226
L 624.922255 -55.704745
L 626.440554 -55.068742
L 627.958853 -55.168253
L 629.477152 -55.153871
L 630.995451 -55.358786
L 632.51375 -54.988334
L 632.51375 -76.710567
L 632.51375 -76.710567
L 630.995451 -77.375671
L 629.477152 -77.137994
L 627.958853 -77.196798
L 626.440554 -77.245993
L 624.922255 -76.527396
L 623.403956 -77.921461
L 621.885657 -77.391977
L 620.367358 -78.177379
L 618.849059 -77.848263
L 617.33076 -78.090907
L 615.812461 -77.70387
L 614.294162 -77.89848
L 612.775863 -76.997673
L 611.257564 -78.531907
L 609.739265 -78.898759
L 608.220966 -77.82008
L 606.702668 -78.440284
L 605.184369 -78.749696
L 603.66607 -79.165277
L 602.147771 -78.596609
L 600.629472 -78.364505
L 599.111173 -79.548249
L 597.592874 -79.258658
L 596.074575 -80.060507
L 594.556276 -79.182471
L 593.037977 -79.608407
L 591.519678 -80.433712
L 590.001379 -80.29419
L 588.48308 -80.06084
L 586.964781 -80.220099
L 585.446482 -79.812193
L 583.928183 -80.405524
L 582.409884 -80.580754
L 580.891585 -79.980554
L 579.373286 -80.371919
L 577.854987 -81.363936
L 576.336688 -81.556742
L 574.818389 -81.35975
L 573.30009 -81.795257
L 571.781791 -82.629913
L 570.263492 -81.026254
L 568.745193 -81.886941
L 567.226894 -83.372661
L 565.708595 -81.745153
L 564.190296 -83.160131
L 562.671997 -83.916877
L 561.153698 -82.314508
L 559.635399 -82.890532
L 558.117101 -83.508653
L 556.598802 -83.908214
L 555.080503 -84.395679
L 553.562204 -83.80282
L 552.043905 -84.759529
L 550.525606 -84.96273
L 549.007307 -84.854788
L 547.489008 -85.560198
L 545.970709 -86.069531
L 544.45241 -85.86443
L 542.934111 -86.693921
L 541.415812 -85.691148
L 539.897513 -87.322196
L 538.379214 -87.535595
L 536.860915 -87.838941
L 535.342616 -86.927961
L 533.824317 -87.372631
L 532.306018 -89.941473
L 530.787719 -88.348089
L 529.26942 -88.522837
L 527.751121 -89.649533
L 526.232822 -90.73354
L 524.714523 -91.733847
L 523.196224 -92.614016
L 521.677925 -90.212263
L 520.159626 -92.876104
L 518.641327 -93.6495
L 517.123028 -95.328458
L 515.604729 -94.935969
L 514.08643 -97.01622
L 512.568131 -96.578522
L 511.049832 -98.956281
L 509.531534 -100.320484
L 508.013235 -100.410063
L 506.494936 -101.473867
L 504.976637 -102.443158
L 503.458338 -103.247419
L 501.940039 -106.112488
L 500.42174 -106.613651
L 498.903441 -107.823146
L 497.385142 -113.107114
L 495.866843 -114.355032
L 494.348544 -118.488296
L 492.830245 -121.644995
L 491.311946 -127.532011
L 489.793647 -135.010764
L 488.275348 -141.4424
L 486.757049 -159.87365
L 485.23875 -183.569205
z
" style="stroke: #f8dcdc; stroke-opacity: 0.5"/>
    </defs>
    <g clip-path="url(#p4b8a25f9be)">
     <use xlink:href="#m79200332da" x="0" y="216" style="fill: #f8dcdc; fill-opacity: 0.5; stroke: #f8dcdc; stroke-opacity: 0.5"/>
    </g>
   </g>
   <g id="matplotlib.axis_5">
    <g id="xtick_7">
     <g id="line2d_18">
      <g>
       <use xlink:href="#m49847ccd4d" x="482.202152" y="174.04" style="stroke: #000000; stroke-width: 0.8"/>
      </g>
     </g>
     <g id="text_24">
      <!-- 0 -->
      <g transform="translate(479.421683 188.213437) scale(0.1 -0.1)">
       <use xlink:href="#Helvetica-30"/>
      </g>
     </g>
    </g>
    <g id="xtick_8">
     <g id="line2d_19">
      <g>
       <use xlink:href="#m49847ccd4d" x="542.934111" y="174.04" style="stroke: #000000; stroke-width: 0.8"/>
      </g>
     </g>
     <g id="text_25">
      <!-- 2000 -->
      <g transform="translate(531.812236 188.213437) scale(0.1 -0.1)">
       <use xlink:href="#Helvetica-32"/>
       <use xlink:href="#Helvetica-30" x="55.615234"/>
       <use xlink:href="#Helvetica-30" x="111.230469"/>
       <use xlink:href="#Helvetica-30" x="166.845703"/>
      </g>
     </g>
    </g>
    <g id="xtick_9">
     <g id="line2d_20">
      <g>
       <use xlink:href="#m49847ccd4d" x="603.66607" y="174.04" style="stroke: #000000; stroke-width: 0.8"/>
      </g>
     </g>
     <g id="text_26">
      <!-- 4000 -->
      <g transform="translate(592.544195 188.213437) scale(0.1 -0.1)">
       <use xlink:href="#Helvetica-34"/>
       <use xlink:href="#Helvetica-30" x="55.615234"/>
       <use xlink:href="#Helvetica-30" x="111.230469"/>
       <use xlink:href="#Helvetica-30" x="166.845703"/>
      </g>
     </g>
    </g>
    <g id="text_27">
     <!-- Analysis Sample Size -->
     <g transform="translate(510.80125 201.666562) scale(0.1 -0.1)">
      <use xlink:href="#Helvetica-41"/>
      <use xlink:href="#Helvetica-6e" x="66.699219"/>
      <use xlink:href="#Helvetica-61" x="122.314453"/>
      <use xlink:href="#Helvetica-6c" x="177.929688"/>
      <use xlink:href="#Helvetica-79" x="200.146484"/>
      <use xlink:href="#Helvetica-73" x="250.146484"/>
      <use xlink:href="#Helvetica-69" x="300.146484"/>
      <use xlink:href="#Helvetica-73" x="322.363281"/>
      <use xlink:href="#Helvetica-20" x="372.363281"/>
      <use xlink:href="#Helvetica-53" x="400.146484"/>
      <use xlink:href="#Helvetica-61" x="466.845703"/>
      <use xlink:href="#Helvetica-6d" x="522.460938"/>
      <use xlink:href="#Helvetica-70" x="605.761719"/>
      <use xlink:href="#Helvetica-6c" x="661.376953"/>
      <use xlink:href="#Helvetica-65" x="683.59375"/>
      <use xlink:href="#Helvetica-20" x="739.208984"/>
      <use xlink:href="#Helvetica-53" x="766.992188"/>
      <use xlink:href="#Helvetica-69" x="833.691406"/>
      <use xlink:href="#Helvetica-7a" x="855.908203"/>
      <use xlink:href="#Helvetica-65" x="905.908203"/>
     </g>
    </g>
   </g>
   <g id="matplotlib.axis_6">
    <g id="ytick_10">
     <g id="line2d_21">
      <g>
       <use xlink:href="#mfa2532177a" x="477.875" y="160.077418" style="stroke: #000000; stroke-width: 0.8"/>
      </g>
     </g>
     <g id="text_28">
      <!-- 0.000 -->
      <g transform="translate(445.853125 163.664137) scale(0.1 -0.1)">
       <use xlink:href="#Helvetica-30"/>
       <use xlink:href="#Helvetica-2e" x="55.615234"/>
       <use xlink:href="#Helvetica-30" x="83.398438"/>
       <use xlink:href="#Helvetica-30" x="139.013672"/>
       <use xlink:href="#Helvetica-30" x="194.628906"/>
      </g>
     </g>
    </g>
    <g id="ytick_11">
     <g id="line2d_22">
      <g>
       <use xlink:href="#mfa2532177a" x="477.875" y="135.008612" style="stroke: #000000; stroke-width: 0.8"/>
      </g>
     </g>
     <g id="text_29">
      <!-- 0.025 -->
      <g transform="translate(445.853125 138.595331) scale(0.1 -0.1)">
       <use xlink:href="#Helvetica-30"/>
       <use xlink:href="#Helvetica-2e" x="55.615234"/>
       <use xlink:href="#Helvetica-30" x="83.398438"/>
       <use xlink:href="#Helvetica-32" x="139.013672"/>
       <use xlink:href="#Helvetica-35" x="194.628906"/>
      </g>
     </g>
    </g>
    <g id="ytick_12">
     <g id="line2d_23">
      <g>
       <use xlink:href="#mfa2532177a" x="477.875" y="109.939806" style="stroke: #000000; stroke-width: 0.8"/>
      </g>
     </g>
     <g id="text_30">
      <!-- 0.050 -->
      <g transform="translate(445.853125 113.526524) scale(0.1 -0.1)">
       <use xlink:href="#Helvetica-30"/>
       <use xlink:href="#Helvetica-2e" x="55.615234"/>
       <use xlink:href="#Helvetica-30" x="83.398438"/>
       <use xlink:href="#Helvetica-35" x="139.013672"/>
       <use xlink:href="#Helvetica-30" x="194.628906"/>
      </g>
     </g>
    </g>
    <g id="ytick_13">
     <g id="line2d_24">
      <g>
       <use xlink:href="#mfa2532177a" x="477.875" y="84.870999" style="stroke: #000000; stroke-width: 0.8"/>
      </g>
     </g>
     <g id="text_31">
      <!-- 0.075 -->
      <g transform="translate(445.853125 88.457718) scale(0.1 -0.1)">
       <defs>
        <path id="Helvetica-37" d="M 3347 4400
L 3347 3909
Q 3131 3700 2773 3181
Q 2416 2663 2141 2063
Q 1869 1478 1728 997
Q 1638 688 1494 0
L 872 0
Q 1084 1281 1809 2550
Q 2238 3294 2709 3834
L 234 3834
L 234 4400
L 3347 4400
z
" transform="scale(0.015625)"/>
       </defs>
       <use xlink:href="#Helvetica-30"/>
       <use xlink:href="#Helvetica-2e" x="55.615234"/>
       <use xlink:href="#Helvetica-30" x="83.398438"/>
       <use xlink:href="#Helvetica-37" x="139.013672"/>
       <use xlink:href="#Helvetica-35" x="194.628906"/>
      </g>
     </g>
    </g>
    <g id="ytick_14">
     <g id="line2d_25">
      <g>
       <use xlink:href="#mfa2532177a" x="477.875" y="59.802193" style="stroke: #000000; stroke-width: 0.8"/>
      </g>
     </g>
     <g id="text_32">
      <!-- 0.100 -->
      <g transform="translate(445.853125 63.388912) scale(0.1 -0.1)">
       <use xlink:href="#Helvetica-30"/>
       <use xlink:href="#Helvetica-2e" x="55.615234"/>
       <use xlink:href="#Helvetica-31" x="83.398438"/>
       <use xlink:href="#Helvetica-30" x="139.013672"/>
       <use xlink:href="#Helvetica-30" x="194.628906"/>
      </g>
     </g>
    </g>
    <g id="ytick_15">
     <g id="line2d_26">
      <g>
       <use xlink:href="#mfa2532177a" x="477.875" y="34.733387" style="stroke: #000000; stroke-width: 0.8"/>
      </g>
     </g>
     <g id="text_33">
      <!-- 0.125 -->
      <g transform="translate(445.853125 38.320106) scale(0.1 -0.1)">
       <use xlink:href="#Helvetica-30"/>
       <use xlink:href="#Helvetica-2e" x="55.615234"/>
       <use xlink:href="#Helvetica-31" x="83.398438"/>
       <use xlink:href="#Helvetica-32" x="139.013672"/>
       <use xlink:href="#Helvetica-35" x="194.628906"/>
      </g>
     </g>
    </g>
    <g id="text_34">
     <!-- L-Infinity Distance -->
     <g transform="translate(439.709375 139.600469) rotate(-90) scale(0.1 -0.1)">
      <defs>
       <path id="Helvetica-4c" d="M 488 4591
L 1109 4591
L 1109 547
L 3434 547
L 3434 0
L 488 0
L 488 4591
z
" transform="scale(0.015625)"/>
       <path id="Helvetica-49" d="M 628 4591
L 1256 4591
L 1256 0
L 628 0
L 628 4591
z
" transform="scale(0.015625)"/>
       <path id="Helvetica-66" d="M 553 3856
Q 566 4206 675 4369
Q 872 4656 1434 4656
Q 1488 4656 1544 4653
Q 1600 4650 1672 4644
L 1672 4131
Q 1584 4138 1545 4139
Q 1506 4141 1472 4141
Q 1216 4141 1166 4008
Q 1116 3875 1116 3331
L 1672 3331
L 1672 2888
L 1109 2888
L 1109 0
L 553 0
L 553 2888
L 88 2888
L 88 3331
L 553 3331
L 553 3856
z
" transform="scale(0.015625)"/>
      </defs>
      <use xlink:href="#Helvetica-4c"/>
      <use xlink:href="#Helvetica-2d" x="55.615234"/>
      <use xlink:href="#Helvetica-49" x="88.916016"/>
      <use xlink:href="#Helvetica-6e" x="116.699219"/>
      <use xlink:href="#Helvetica-66" x="172.314453"/>
      <use xlink:href="#Helvetica-69" x="200.097656"/>
      <use xlink:href="#Helvetica-6e" x="222.314453"/>
      <use xlink:href="#Helvetica-69" x="277.929688"/>
      <use xlink:href="#Helvetica-74" x="300.146484"/>
      <use xlink:href="#Helvetica-79" x="327.929688"/>
      <use xlink:href="#Helvetica-20" x="377.929688"/>
      <use xlink:href="#Helvetica-44" x="405.712891"/>
      <use xlink:href="#Helvetica-69" x="477.929688"/>
      <use xlink:href="#Helvetica-73" x="500.146484"/>
      <use xlink:href="#Helvetica-74" x="550.146484"/>
      <use xlink:href="#Helvetica-61" x="577.929688"/>
      <use xlink:href="#Helvetica-6e" x="633.544922"/>
      <use xlink:href="#Helvetica-63" x="689.160156"/>
      <use xlink:href="#Helvetica-65" x="739.160156"/>
     </g>
    </g>
   </g>
   <g id="line2d_27">
    <path d="M 485.23875 99.86375
L 486.757049 110.910202
L 488.275348 118.910026
L 489.793647 122.492659
L 491.311946 125.882029
L 492.830245 128.201185
L 494.348544 130.488004
L 495.866843 131.729434
L 497.385142 132.677614
L 498.903441 135.189199
L 500.42174 135.439194
L 501.940039 136.636434
L 503.458338 137.235094
L 504.976637 137.876884
L 506.494936 138.953439
L 508.013235 138.93165
L 509.531534 139.215269
L 511.049832 139.726572
L 512.568131 140.870902
L 514.08643 140.913581
L 515.604729 141.51115
L 517.123028 141.244283
L 518.641327 142.378373
L 520.159626 142.471295
L 521.677925 143.499872
L 523.196224 142.344621
L 524.714523 143.0145
L 526.232822 143.725115
L 527.751121 144.197232
L 529.26942 144.414952
L 530.787719 144.610115
L 532.306018 144.5522
L 533.824317 144.748297
L 535.342616 145.187751
L 536.860915 144.967591
L 538.379214 144.940884
L 539.897513 145.312641
L 541.415812 146.010995
L 542.934111 145.468722
L 544.45241 145.702622
L 545.970709 145.952297
L 547.489008 146.133616
L 549.007307 146.273804
L 550.525606 146.239571
L 552.043905 146.294693
L 553.562204 146.812196
L 555.080503 146.650666
L 556.598802 146.763877
L 558.117101 146.778517
L 559.635399 147.071887
L 561.153698 147.274833
L 562.671997 147.008771
L 564.190296 147.127133
L 565.708595 147.510909
L 567.226894 147.35487
L 568.745193 147.556195
L 570.263492 147.952207
L 571.781791 147.688557
L 573.30009 148.053282
L 574.818389 147.845327
L 576.336688 147.903236
L 577.854987 147.897681
L 579.373286 148.201021
L 580.891585 148.469527
L 582.409884 148.446835
L 583.928183 148.306322
L 585.446482 148.441092
L 586.964781 148.855063
L 588.48308 148.738439
L 590.001379 148.687644
L 591.519678 148.396268
L 593.037977 148.643869
L 594.556276 148.692662
L 596.074575 148.664025
L 597.592874 148.82297
L 599.111173 148.817802
L 600.629472 149.2593
L 602.147771 149.213651
L 603.66607 149.369929
L 605.184369 149.066119
L 606.702668 149.208503
L 608.220966 149.433993
L 609.739265 149.220897
L 611.257564 149.301052
L 612.775863 149.902724
L 614.294162 149.488829
L 615.812461 149.564345
L 617.33076 149.865164
L 618.849059 149.610022
L 620.367358 149.483059
L 621.885657 149.763789
L 623.403956 149.579657
L 624.922255 149.88393
L 626.440554 149.842632
L 627.958853 149.817474
L 629.477152 149.854067
L 630.995451 149.632771
L 632.51375 150.15055
" clip-path="url(#p4b8a25f9be)" style="fill: none; stroke: #dd4040; stroke-width: 1.5; stroke-linecap: square"/>
   </g>
   <g id="patch_17">
    <path d="M 477.875 174.04
L 477.875 25.6875
" style="fill: none; stroke: #000000; stroke-width: 0.8; stroke-linejoin: miter; stroke-linecap: square"/>
   </g>
   <g id="patch_18">
    <path d="M 639.8775 174.04
L 639.8775 25.6875
" style="fill: none; stroke: #000000; stroke-width: 0.8; stroke-linejoin: miter; stroke-linecap: square"/>
   </g>
   <g id="patch_19">
    <path d="M 477.875 174.04
L 639.8775 174.04
" style="fill: none; stroke: #000000; stroke-width: 0.8; stroke-linejoin: miter; stroke-linecap: square"/>
   </g>
   <g id="patch_20">
    <path d="M 477.875 25.6875
L 639.8775 25.6875
" style="fill: none; stroke: #000000; stroke-width: 0.8; stroke-linejoin: miter; stroke-linecap: square"/>
   </g>
   <g id="text_35">
    <!-- L-Infinity Distance -->
    <g transform="translate(511.192188 19.6875) scale(0.12 -0.12)">
     <use xlink:href="#Helvetica-4c"/>
     <use xlink:href="#Helvetica-2d" x="55.615234"/>
     <use xlink:href="#Helvetica-49" x="88.916016"/>
     <use xlink:href="#Helvetica-6e" x="116.699219"/>
     <use xlink:href="#Helvetica-66" x="172.314453"/>
     <use xlink:href="#Helvetica-69" x="200.097656"/>
     <use xlink:href="#Helvetica-6e" x="222.314453"/>
     <use xlink:href="#Helvetica-69" x="277.929688"/>
     <use xlink:href="#Helvetica-74" x="300.146484"/>
     <use xlink:href="#Helvetica-79" x="327.929688"/>
     <use xlink:href="#Helvetica-20" x="377.929688"/>
     <use xlink:href="#Helvetica-44" x="405.712891"/>
     <use xlink:href="#Helvetica-69" x="477.929688"/>
     <use xlink:href="#Helvetica-73" x="500.146484"/>
     <use xlink:href="#Helvetica-74" x="550.146484"/>
     <use xlink:href="#Helvetica-61" x="577.929688"/>
     <use xlink:href="#Helvetica-6e" x="633.544922"/>
     <use xlink:href="#Helvetica-63" x="689.160156"/>
     <use xlink:href="#Helvetica-65" x="739.160156"/>
    </g>
   </g>
   <g id="legend_3">
    <g id="patch_21">
     <path d="M 563.919688 47.945312
L 632.8775 47.945312
Q 634.8775 47.945312 634.8775 45.945312
L 634.8775 32.6875
Q 634.8775 30.6875 632.8775 30.6875
L 563.919688 30.6875
Q 561.919688 30.6875 561.919688 32.6875
L 561.919688 45.945312
Q 561.919688 47.945312 563.919688 47.945312
z
" style="fill: #ffffff; opacity: 0.8; stroke: #cccccc; stroke-linejoin: miter"/>
    </g>
    <g id="patch_22">
     <path d="M 565.919688 41.860938
L 585.919688 41.860938
L 585.919688 34.860938
L 565.919688 34.860938
z
" style="fill: #f8dcdc; fill-opacity: 0.5; stroke: #f8dcdc; stroke-opacity: 0.5; stroke-linejoin: miter"/>
    </g>
    <g id="text_36">
     <!-- +/- 3 SD -->
     <g transform="translate(593.919688 41.860938) scale(0.1 -0.1)">
      <use xlink:href="#Helvetica-2b"/>
      <use xlink:href="#Helvetica-2f" x="58.398438"/>
      <use xlink:href="#Helvetica-2d" x="86.181641"/>
      <use xlink:href="#Helvetica-20" x="119.482422"/>
      <use xlink:href="#Helvetica-33" x="147.265625"/>
      <use xlink:href="#Helvetica-20" x="202.880859"/>
      <use xlink:href="#Helvetica-53" x="230.664062"/>
      <use xlink:href="#Helvetica-44" x="297.363281"/>
     </g>
    </g>
   </g>
  </g>
  <g id="axes_4">
   <g id="patch_23">
    <path d="M 691.1975 174.04
L 853.2 174.04
L 853.2 25.6875
L 691.1975 25.6875
z
" style="fill: #ffffff"/>
   </g>
   <g id="PolyCollection_4">
    <defs>
     <path id="mcd3fe3f399" d="M 698.56125 -183.569205
L 698.56125 -48.703295
L 700.079549 -48.722623
L 701.597848 -54.81835
L 703.116147 -53.572219
L 704.634446 -57.9632
L 706.152745 -55.932818
L 707.671044 -57.744214
L 709.189343 -57.058354
L 710.707642 -56.390016
L 712.225941 -58.448131
L 713.74424 -60.796997
L 715.262539 -60.197908
L 716.780838 -60.541138
L 718.299137 -62.612579
L 719.817436 -57.765326
L 721.335735 -60.967591
L 722.854034 -60.008716
L 724.372332 -63.590724
L 725.890631 -61.878763
L 727.40893 -61.468479
L 728.927229 -62.208309
L 730.445528 -58.722429
L 731.963827 -60.239672
L 733.482126 -62.079045
L 735.000425 -63.417939
L 736.518724 -63.209112
L 738.037023 -60.723245
L 739.555322 -59.272681
L 741.073621 -59.598036
L 742.59192 -62.72489
L 744.110219 -60.558
L 745.628518 -57.505714
L 747.146817 -65.176774
L 748.665116 -59.938285
L 750.183415 -62.222697
L 751.701714 -63.39344
L 753.220013 -62.56739
L 754.738312 -62.464433
L 756.256611 -58.08242
L 757.77491 -63.136972
L 759.293209 -61.656027
L 760.811508 -60.708574
L 762.329807 -61.875605
L 763.848106 -63.398703
L 765.366405 -61.982309
L 766.884704 -60.050103
L 768.403003 -61.579852
L 769.921302 -59.203368
L 771.439601 -60.680205
L 772.957899 -65.248681
L 774.476198 -61.985419
L 775.994497 -60.838791
L 777.512796 -61.676621
L 779.031095 -65.859961
L 780.549394 -59.418371
L 782.067693 -64.286224
L 783.585992 -60.907207
L 785.104291 -60.608617
L 786.62259 -60.322024
L 788.140889 -62.357844
L 789.659188 -66.899526
L 791.177487 -61.911157
L 792.695786 -65.412271
L 794.214085 -65.504671
L 795.732384 -61.967814
L 797.250683 -60.53164
L 798.768982 -62.083525
L 800.287281 -61.861109
L 801.80558 -60.191568
L 803.323879 -59.256176
L 804.842178 -60.188998
L 806.360477 -62.626106
L 807.878776 -64.38411
L 809.397075 -60.275712
L 810.915374 -63.701391
L 812.433673 -60.614812
L 813.951972 -63.357801
L 815.470271 -60.701178
L 816.98857 -60.970126
L 818.506869 -61.079127
L 820.025168 -58.143767
L 821.543466 -59.962213
L 823.061765 -60.752471
L 824.580064 -60.939599
L 826.098363 -65.177093
L 827.616662 -64.093587
L 829.134961 -62.931089
L 830.65326 -59.689109
L 832.171559 -63.6004
L 833.689858 -66.124041
L 835.208157 -62.166071
L 836.726456 -65.261211
L 838.244755 -60.034979
L 839.763054 -61.243661
L 841.281353 -61.267067
L 842.799652 -60.708291
L 844.317951 -62.908097
L 845.83625 -62.515847
L 845.83625 -167.493174
L 845.83625 -167.493174
L 844.317951 -169.853938
L 842.799652 -169.94927
L 841.281353 -169.056319
L 839.763054 -169.647789
L 838.244755 -171.783365
L 836.726456 -167.818263
L 835.208157 -170.655504
L 833.689858 -165.744932
L 832.171559 -168.993088
L 830.65326 -170.284713
L 829.134961 -168.220021
L 827.616662 -168.537981
L 826.098363 -164.663792
L 824.580064 -172.006576
L 823.061765 -171.590803
L 821.543466 -170.103906
L 820.025168 -175.786928
L 818.506869 -171.732181
L 816.98857 -170.289513
L 815.470271 -170.489308
L 813.951972 -165.157444
L 812.433673 -173.484994
L 810.915374 -169.005761
L 809.397075 -173.607098
L 807.878776 -168.882257
L 806.360477 -170.298571
L 804.842178 -172.272764
L 803.323879 -173.700364
L 801.80558 -170.30358
L 800.287281 -167.333608
L 798.768982 -170.345374
L 797.250683 -171.499247
L 795.732384 -170.358557
L 794.214085 -164.279502
L 792.695786 -165.708189
L 791.177487 -170.610175
L 789.659188 -165.665043
L 788.140889 -170.850465
L 786.62259 -172.839218
L 785.104291 -171.150677
L 783.585992 -170.525239
L 782.067693 -168.281146
L 780.549394 -175.071653
L 779.031095 -164.181185
L 777.512796 -174.145281
L 775.994497 -172.618629
L 774.476198 -169.913708
L 772.957899 -167.83356
L 771.439601 -173.289467
L 769.921302 -171.148153
L 768.403003 -172.512307
L 766.884704 -173.883759
L 765.366405 -173.443867
L 763.848106 -170.633526
L 762.329807 -168.926053
L 760.811508 -171.350547
L 759.293209 -170.6753
L 757.77491 -170.123876
L 756.256611 -176.834584
L 754.738312 -166.492135
L 753.220013 -170.860811
L 751.701714 -171.900321
L 750.183415 -170.040367
L 748.665116 -173.76188
L 747.146817 -165.781109
L 745.628518 -173.627722
L 744.110219 -171.336129
L 742.59192 -169.652431
L 741.073621 -173.440826
L 739.555322 -174.082199
L 738.037023 -173.509984
L 736.518724 -170.624505
L 735.000425 -165.158053
L 733.482126 -170.7374
L 731.963827 -173.137583
L 730.445528 -176.231621
L 728.927229 -168.885908
L 727.40893 -173.493362
L 725.890631 -170.43556
L 724.372332 -171.667499
L 722.854034 -175.253839
L 721.335735 -173.998337
L 719.817436 -174.053271
L 718.299137 -171.837421
L 716.780838 -173.389894
L 715.262539 -172.7896
L 713.74424 -172.825608
L 712.225941 -174.686814
L 710.707642 -177.477686
L 709.189343 -176.032313
L 707.671044 -175.691184
L 706.152745 -177.539165
L 704.634446 -174.764157
L 703.116147 -178.908923
L 701.597848 -177.772772
L 700.079549 -182.597847
L 698.56125 -183.569205
z
" style="stroke: #f8dcdc; stroke-opacity: 0.5"/>
    </defs>
    <g clip-path="url(#p547dba66c9)">
     <use xlink:href="#mcd3fe3f399" x="0" y="216" style="fill: #f8dcdc; fill-opacity: 0.5; stroke: #f8dcdc; stroke-opacity: 0.5"/>
    </g>
   </g>
   <g id="matplotlib.axis_7">
    <g id="xtick_10">
     <g id="line2d_28">
      <g>
       <use xlink:href="#m49847ccd4d" x="695.524652" y="174.04" style="stroke: #000000; stroke-width: 0.8"/>
      </g>
     </g>
     <g id="text_37">
      <!-- 0 -->
      <g transform="translate(692.744183 188.213437) scale(0.1 -0.1)">
       <use xlink:href="#Helvetica-30"/>
      </g>
     </g>
    </g>
    <g id="xtick_11">
     <g id="line2d_29">
      <g>
       <use xlink:href="#m49847ccd4d" x="756.256611" y="174.04" style="stroke: #000000; stroke-width: 0.8"/>
      </g>
     </g>
     <g id="text_38">
      <!-- 2000 -->
      <g transform="translate(745.134736 188.213437) scale(0.1 -0.1)">
       <use xlink:href="#Helvetica-32"/>
       <use xlink:href="#Helvetica-30" x="55.615234"/>
       <use xlink:href="#Helvetica-30" x="111.230469"/>
       <use xlink:href="#Helvetica-30" x="166.845703"/>
      </g>
     </g>
    </g>
    <g id="xtick_12">
     <g id="line2d_30">
      <g>
       <use xlink:href="#m49847ccd4d" x="816.98857" y="174.04" style="stroke: #000000; stroke-width: 0.8"/>
      </g>
     </g>
     <g id="text_39">
      <!-- 4000 -->
      <g transform="translate(805.866695 188.213437) scale(0.1 -0.1)">
       <use xlink:href="#Helvetica-34"/>
       <use xlink:href="#Helvetica-30" x="55.615234"/>
       <use xlink:href="#Helvetica-30" x="111.230469"/>
       <use xlink:href="#Helvetica-30" x="166.845703"/>
      </g>
     </g>
    </g>
    <g id="text_40">
     <!-- Analysis Sample Size -->
     <g transform="translate(724.12375 201.666562) scale(0.1 -0.1)">
      <use xlink:href="#Helvetica-41"/>
      <use xlink:href="#Helvetica-6e" x="66.699219"/>
      <use xlink:href="#Helvetica-61" x="122.314453"/>
      <use xlink:href="#Helvetica-6c" x="177.929688"/>
      <use xlink:href="#Helvetica-79" x="200.146484"/>
      <use xlink:href="#Helvetica-73" x="250.146484"/>
      <use xlink:href="#Helvetica-69" x="300.146484"/>
      <use xlink:href="#Helvetica-73" x="322.363281"/>
      <use xlink:href="#Helvetica-20" x="372.363281"/>
      <use xlink:href="#Helvetica-53" x="400.146484"/>
      <use xlink:href="#Helvetica-61" x="466.845703"/>
      <use xlink:href="#Helvetica-6d" x="522.460938"/>
      <use xlink:href="#Helvetica-70" x="605.761719"/>
      <use xlink:href="#Helvetica-6c" x="661.376953"/>
      <use xlink:href="#Helvetica-65" x="683.59375"/>
      <use xlink:href="#Helvetica-20" x="739.208984"/>
      <use xlink:href="#Helvetica-53" x="766.992188"/>
      <use xlink:href="#Helvetica-69" x="833.691406"/>
      <use xlink:href="#Helvetica-7a" x="855.908203"/>
      <use xlink:href="#Helvetica-65" x="905.908203"/>
     </g>
    </g>
   </g>
   <g id="matplotlib.axis_8">
    <g id="ytick_16">
     <g id="line2d_31">
      <g>
       <use xlink:href="#mfa2532177a" x="691.1975" y="164.48212" style="stroke: #000000; stroke-width: 0.8"/>
      </g>
     </g>
     <g id="text_41">
      <!-- 5 -->
      <g transform="translate(672.795937 168.068839) scale(0.1 -0.1)">
       <defs>
        <path id="Helvetica-2212" d="M 3547 1894
L 3547 1369
L 288 1369
L 288 1894
L 3547 1894
z
" transform="scale(0.015625)"/>
       </defs>
       <use xlink:href="#Helvetica-2212"/>
       <use xlink:href="#Helvetica-35" x="58.398438"/>
      </g>
     </g>
    </g>
    <g id="ytick_17">
     <g id="line2d_32">
      <g>
       <use xlink:href="#mfa2532177a" x="691.1975" y="141.927171" style="stroke: #000000; stroke-width: 0.8"/>
      </g>
     </g>
     <g id="text_42">
      <!-- 0 -->
      <g transform="translate(678.636562 145.51389) scale(0.1 -0.1)">
       <use xlink:href="#Helvetica-30"/>
      </g>
     </g>
    </g>
    <g id="ytick_18">
     <g id="line2d_33">
      <g>
       <use xlink:href="#mfa2532177a" x="691.1975" y="119.372222" style="stroke: #000000; stroke-width: 0.8"/>
      </g>
     </g>
     <g id="text_43">
      <!-- 5 -->
      <g transform="translate(678.636562 122.958941) scale(0.1 -0.1)">
       <use xlink:href="#Helvetica-35"/>
      </g>
     </g>
    </g>
    <g id="ytick_19">
     <g id="line2d_34">
      <g>
       <use xlink:href="#mfa2532177a" x="691.1975" y="96.817273" style="stroke: #000000; stroke-width: 0.8"/>
      </g>
     </g>
     <g id="text_44">
      <!-- 10 -->
      <g transform="translate(673.075625 100.403992) scale(0.1 -0.1)">
       <use xlink:href="#Helvetica-31"/>
       <use xlink:href="#Helvetica-30" x="55.615234"/>
      </g>
     </g>
    </g>
    <g id="ytick_20">
     <g id="line2d_35">
      <g>
       <use xlink:href="#mfa2532177a" x="691.1975" y="74.262324" style="stroke: #000000; stroke-width: 0.8"/>
      </g>
     </g>
     <g id="text_45">
      <!-- 15 -->
      <g transform="translate(673.075625 77.849042) scale(0.1 -0.1)">
       <use xlink:href="#Helvetica-31"/>
       <use xlink:href="#Helvetica-35" x="55.615234"/>
      </g>
     </g>
    </g>
    <g id="ytick_21">
     <g id="line2d_36">
      <g>
       <use xlink:href="#mfa2532177a" x="691.1975" y="51.707374" style="stroke: #000000; stroke-width: 0.8"/>
      </g>
     </g>
     <g id="text_46">
      <!-- 20 -->
      <g transform="translate(673.075625 55.294093) scale(0.1 -0.1)">
       <use xlink:href="#Helvetica-32"/>
       <use xlink:href="#Helvetica-30" x="55.615234"/>
      </g>
     </g>
    </g>
    <g id="ytick_22">
     <g id="line2d_37">
      <g>
       <use xlink:href="#mfa2532177a" x="691.1975" y="29.152425" style="stroke: #000000; stroke-width: 0.8"/>
      </g>
     </g>
     <g id="text_47">
      <!-- 25 -->
      <g transform="translate(673.075625 32.739144) scale(0.1 -0.1)">
       <use xlink:href="#Helvetica-32"/>
       <use xlink:href="#Helvetica-35" x="55.615234"/>
      </g>
     </g>
    </g>
    <g id="text_48">
     <!-- Chi-Squared Statistic -->
     <g transform="translate(666.711562 146.827031) rotate(-90) scale(0.1 -0.1)">
      <defs>
       <path id="Helvetica-43" d="M 2422 4716
Q 3294 4716 3775 4256
Q 4256 3797 4309 3213
L 3703 3213
Q 3600 3656 3292 3915
Q 2984 4175 2428 4175
Q 1750 4175 1333 3698
Q 916 3222 916 2238
Q 916 1431 1292 929
Q 1669 428 2416 428
Q 3103 428 3463 956
Q 3653 1234 3747 1688
L 4353 1688
Q 4272 963 3816 472
Q 3269 -119 2341 -119
Q 1541 -119 997 366
Q 281 1006 281 2344
Q 281 3359 819 4009
Q 1400 4716 2422 4716
z
M 2297 4716
L 2297 4716
z
" transform="scale(0.015625)"/>
       <path id="Helvetica-71" d="M 775 1628
Q 775 1194 897 900
Q 1113 378 1669 378
Q 2256 378 2478 928
Q 2600 1231 2600 1703
Q 2600 2138 2466 2428
Q 2238 2925 1663 2925
Q 1297 2925 1036 2608
Q 775 2291 775 1628
z
M 1606 3422
Q 2022 3422 2306 3213
Q 2463 3100 2606 2881
L 2606 3347
L 3141 3347
L 3141 -1334
L 2575 -1334
L 2575 384
Q 2434 159 2186 26
Q 1938 -106 1566 -106
Q 1031 -106 609 312
Q 188 731 188 1588
Q 188 2391 583 2906
Q 978 3422 1606 3422
z
" transform="scale(0.015625)"/>
       <path id="Helvetica-75" d="M 975 3347
L 975 1125
Q 975 869 1056 706
Q 1206 406 1616 406
Q 2203 406 2416 931
Q 2531 1213 2531 1703
L 2531 3347
L 3094 3347
L 3094 0
L 2563 0
L 2569 494
Q 2459 303 2297 172
Q 1975 -91 1516 -91
Q 800 -91 541 388
Q 400 644 400 1072
L 400 3347
L 975 3347
z
M 1747 3428
L 1747 3428
z
" transform="scale(0.015625)"/>
       <path id="Helvetica-64" d="M 769 1634
Q 769 1097 997 734
Q 1225 372 1728 372
Q 2119 372 2370 708
Q 2622 1044 2622 1672
Q 2622 2306 2362 2611
Q 2103 2916 1722 2916
Q 1297 2916 1033 2591
Q 769 2266 769 1634
z
M 1616 3406
Q 2000 3406 2259 3244
Q 2409 3150 2600 2916
L 2600 4606
L 3141 4606
L 3141 0
L 2634 0
L 2634 466
Q 2438 156 2169 18
Q 1900 -119 1553 -119
Q 994 -119 584 351
Q 175 822 175 1603
Q 175 2334 548 2870
Q 922 3406 1616 3406
z
" transform="scale(0.015625)"/>
      </defs>
      <use xlink:href="#Helvetica-43"/>
      <use xlink:href="#Helvetica-68" x="72.216797"/>
      <use xlink:href="#Helvetica-69" x="127.832031"/>
      <use xlink:href="#Helvetica-2d" x="150.048828"/>
      <use xlink:href="#Helvetica-53" x="183.349609"/>
      <use xlink:href="#Helvetica-71" x="250.048828"/>
      <use xlink:href="#Helvetica-75" x="305.664062"/>
      <use xlink:href="#Helvetica-61" x="361.279297"/>
      <use xlink:href="#Helvetica-72" x="416.894531"/>
      <use xlink:href="#Helvetica-65" x="450.195312"/>
      <use xlink:href="#Helvetica-64" x="505.810547"/>
      <use xlink:href="#Helvetica-20" x="561.425781"/>
      <use xlink:href="#Helvetica-53" x="589.208984"/>
      <use xlink:href="#Helvetica-74" x="655.908203"/>
      <use xlink:href="#Helvetica-61" x="683.691406"/>
      <use xlink:href="#Helvetica-74" x="739.306641"/>
      <use xlink:href="#Helvetica-69" x="767.089844"/>
      <use xlink:href="#Helvetica-73" x="789.306641"/>
      <use xlink:href="#Helvetica-74" x="839.306641"/>
      <use xlink:href="#Helvetica-69" x="867.089844"/>
      <use xlink:href="#Helvetica-63" x="889.306641"/>
     </g>
    </g>
   </g>
   <g id="line2d_38">
    <path d="M 698.56125 99.86375
L 700.079549 100.339765
L 701.597848 99.704439
L 703.116147 99.759429
L 704.634446 99.636321
L 706.152745 99.264008
L 707.671044 99.282301
L 709.189343 99.454666
L 710.707642 99.066149
L 712.225941 99.432528
L 713.74424 99.188698
L 715.262539 99.506246
L 716.780838 99.034484
L 718.299137 98.775
L 719.817436 100.090701
L 721.335735 98.517036
L 722.854034 98.368722
L 724.372332 98.370889
L 725.890631 99.842838
L 727.40893 98.519079
L 728.927229 100.452892
L 730.445528 98.522975
L 731.963827 99.311372
L 733.482126 99.591778
L 735.000425 101.712004
L 736.518724 99.083191
L 738.037023 98.883385
L 739.555322 99.32256
L 741.073621 99.480569
L 742.59192 99.81134
L 744.110219 100.052936
L 745.628518 100.433282
L 747.146817 100.521059
L 748.665116 99.149918
L 750.183415 99.868468
L 751.701714 98.35312
L 753.220013 99.2859
L 754.738312 101.521716
L 756.256611 98.541498
L 757.77491 99.369576
L 759.293209 99.834336
L 760.811508 99.97044
L 762.329807 100.599171
L 763.848106 98.983886
L 765.366405 98.286912
L 766.884704 99.033069
L 768.403003 98.953921
L 769.921302 100.82424
L 771.439601 99.015164
L 772.957899 99.458879
L 774.476198 100.050436
L 775.994497 99.27129
L 777.512796 98.089049
L 779.031095 100.979427
L 780.549394 98.754988
L 782.067693 99.716315
L 783.585992 100.283777
L 785.104291 100.120353
L 786.62259 99.419379
L 788.140889 99.395845
L 789.659188 99.717715
L 791.177487 99.739334
L 792.695786 100.43977
L 794.214085 101.107913
L 795.732384 99.836814
L 797.250683 99.984556
L 798.768982 99.785551
L 800.287281 101.402641
L 801.80558 100.752426
L 803.323879 99.52173
L 804.842178 99.769119
L 806.360477 99.537661
L 807.878776 99.366816
L 809.397075 99.058595
L 810.915374 99.646424
L 812.433673 98.950097
L 813.951972 101.742377
L 815.470271 100.404757
L 816.98857 100.370181
L 818.506869 99.594346
L 820.025168 99.034653
L 821.543466 100.966941
L 823.061765 99.828363
L 824.580064 99.526913
L 826.098363 101.079558
L 827.616662 99.684216
L 829.134961 100.424445
L 830.65326 101.013089
L 832.171559 99.703256
L 833.689858 100.065514
L 835.208157 99.589213
L 836.726456 99.460263
L 838.244755 100.090828
L 839.763054 100.554275
L 841.281353 100.838307
L 842.799652 100.671219
L 844.317951 99.618982
L 845.83625 100.995489
" clip-path="url(#p547dba66c9)" style="fill: none; stroke: #dd4040; stroke-width: 1.5; stroke-linecap: square"/>
   </g>
   <g id="patch_24">
    <path d="M 691.1975 174.04
L 691.1975 25.6875
" style="fill: none; stroke: #000000; stroke-width: 0.8; stroke-linejoin: miter; stroke-linecap: square"/>
   </g>
   <g id="patch_25">
    <path d="M 853.2 174.04
L 853.2 25.6875
" style="fill: none; stroke: #000000; stroke-width: 0.8; stroke-linejoin: miter; stroke-linecap: square"/>
   </g>
   <g id="patch_26">
    <path d="M 691.1975 174.04
L 853.2 174.04
" style="fill: none; stroke: #000000; stroke-width: 0.8; stroke-linejoin: miter; stroke-linecap: square"/>
   </g>
   <g id="patch_27">
    <path d="M 691.1975 25.6875
L 853.2 25.6875
" style="fill: none; stroke: #000000; stroke-width: 0.8; stroke-linejoin: miter; stroke-linecap: square"/>
   </g>
   <g id="text_49">
    <!-- Chi-Squared Statistic -->
    <g transform="translate(715.842812 19.6875) scale(0.12 -0.12)">
     <use xlink:href="#Helvetica-43"/>
     <use xlink:href="#Helvetica-68" x="72.216797"/>
     <use xlink:href="#Helvetica-69" x="127.832031"/>
     <use xlink:href="#Helvetica-2d" x="150.048828"/>
     <use xlink:href="#Helvetica-53" x="183.349609"/>
     <use xlink:href="#Helvetica-71" x="250.048828"/>
     <use xlink:href="#Helvetica-75" x="305.664062"/>
     <use xlink:href="#Helvetica-61" x="361.279297"/>
     <use xlink:href="#Helvetica-72" x="416.894531"/>
     <use xlink:href="#Helvetica-65" x="450.195312"/>
     <use xlink:href="#Helvetica-64" x="505.810547"/>
     <use xlink:href="#Helvetica-20" x="561.425781"/>
     <use xlink:href="#Helvetica-53" x="589.208984"/>
     <use xlink:href="#Helvetica-74" x="655.908203"/>
     <use xlink:href="#Helvetica-61" x="683.691406"/>
     <use xlink:href="#Helvetica-74" x="739.306641"/>
     <use xlink:href="#Helvetica-69" x="767.089844"/>
     <use xlink:href="#Helvetica-73" x="789.306641"/>
     <use xlink:href="#Helvetica-74" x="839.306641"/>
     <use xlink:href="#Helvetica-69" x="867.089844"/>
     <use xlink:href="#Helvetica-63" x="889.306641"/>
    </g>
   </g>
   <g id="legend_4">
    <g id="patch_28">
     <path d="M 777.242187 47.945312
L 846.2 47.945312
Q 848.2 47.945312 848.2 45.945312
L 848.2 32.6875
Q 848.2 30.6875 846.2 30.6875
L 777.242187 30.6875
Q 775.242187 30.6875 775.242187 32.6875
L 775.242187 45.945312
Q 775.242187 47.945312 777.242187 47.945312
z
" style="fill: #ffffff; opacity: 0.8; stroke: #cccccc; stroke-linejoin: miter"/>
    </g>
    <g id="patch_29">
     <path d="M 779.242187 41.860938
L 799.242187 41.860938
L 799.242187 34.860938
L 779.242187 34.860938
z
" style="fill: #f8dcdc; fill-opacity: 0.5; stroke: #f8dcdc; stroke-opacity: 0.5; stroke-linejoin: miter"/>
    </g>
    <g id="text_50">
     <!-- +/- 3 SD -->
     <g transform="translate(807.242187 41.860938) scale(0.1 -0.1)">
      <use xlink:href="#Helvetica-2b"/>
      <use xlink:href="#Helvetica-2f" x="58.398438"/>
      <use xlink:href="#Helvetica-2d" x="86.181641"/>
      <use xlink:href="#Helvetica-20" x="119.482422"/>
      <use xlink:href="#Helvetica-33" x="147.265625"/>
      <use xlink:href="#Helvetica-20" x="202.880859"/>
      <use xlink:href="#Helvetica-53" x="230.664062"/>
      <use xlink:href="#Helvetica-44" x="297.363281"/>
     </g>
    </g>
   </g>
  </g>
 </g>
 <defs>
  <clipPath id="p1640ad9881">
   <rect x="51.23" y="25.6875" width="162.0025" height="148.3525"/>
  </clipPath>
  <clipPath id="p45351b33ca">
   <rect x="264.5525" y="25.6875" width="162.0025" height="148.3525"/>
  </clipPath>
  <clipPath id="p4b8a25f9be">
   <rect x="477.875" y="25.6875" width="162.0025" height="148.3525"/>
  </clipPath>
  <clipPath id="p547dba66c9">
   <rect x="691.1975" y="25.6875" width="162.0025" height="148.3525"/>
  </clipPath>
 </defs>
</svg>
