<?xml version="1.0" encoding="utf-8" standalone="no"?>
<!DOCTYPE svg PUBLIC "-//W3C//DTD SVG 1.1//EN"
  "http://www.w3.org/Graphics/SVG/1.1/DTD/svg11.dtd">
<svg xmlns:xlink="http://www.w3.org/1999/xlink" width="864pt" height="216pt" viewBox="0 0 864 216" xmlns="http://www.w3.org/2000/svg" version="1.1">
 <metadata>
  <rdf:RDF xmlns:dc="http://purl.org/dc/elements/1.1/" xmlns:cc="http://creativecommons.org/ns#" xmlns:rdf="http://www.w3.org/1999/02/22-rdf-syntax-ns#">
   <cc:Work>
    <dc:type rdf:resource="http://purl.org/dc/dcmitype/StillImage"/>
    <dc:date>2022-12-06T22:22:49.541703</dc:date>
    <dc:format>image/svg+xml</dc:format>
    <dc:creator>
     <cc:Agent>
      <dc:title>Matplotlib v3.6.2, https://matplotlib.org/</dc:title>
     </cc:Agent>
    </dc:creator>
   </cc:Work>
  </rdf:RDF>
 </metadata>
 <defs>
  <style type="text/css">*{stroke-linejoin: round; stroke-linecap: butt}</style>
 </defs>
 <g id="figure_1">
  <g id="patch_1">
   <path d="M 0 216
L 864 216
L 864 0
L 0 0
z
" style="fill: #ffffff"/>
  </g>
  <g id="axes_1">
   <g id="patch_2">
    <path d="M 51.32 174.04
L 213.3 174.04
L 213.3 25.6875
L 51.32 25.6875
z
" style="fill: #ffffff"/>
   </g>
   <g id="PolyCollection_1">
    <defs>
     <path id="m72bae87a71" d="M 58.682727 -183.569205
L 58.682727 -172.590388
L 60.200815 -147.164163
L 61.718903 -130.982392
L 63.236992 -122.825153
L 64.75508 -110.592705
L 66.273168 -107.579688
L 67.791256 -99.846319
L 69.309344 -97.937749
L 70.827432 -96.612575
L 72.34552 -90.834332
L 73.863608 -86.867757
L 75.381696 -87.470687
L 76.899784 -83.675798
L 78.417873 -82.626799
L 79.935961 -80.485191
L 81.454049 -80.531259
L 82.972137 -78.796076
L 84.490225 -76.237629
L 86.008313 -76.802455
L 87.526401 -74.299543
L 89.044489 -73.072763
L 90.562577 -72.714564
L 92.080665 -71.016345
L 93.598754 -70.314255
L 95.116842 -68.316083
L 96.63493 -67.478949
L 98.153018 -67.529505
L 99.671106 -66.804474
L 101.189194 -67.040228
L 102.707282 -66.883744
L 104.22537 -64.316342
L 105.743458 -65.139288
L 107.261546 -63.668447
L 108.779634 -64.244609
L 110.297723 -62.027924
L 111.815811 -62.877599
L 113.333899 -63.074548
L 114.851987 -61.986825
L 116.370075 -62.166749
L 117.888163 -60.112427
L 119.406251 -59.834964
L 120.924339 -59.579139
L 122.442427 -59.518246
L 123.960515 -58.789046
L 125.478604 -60.656427
L 126.996692 -57.68946
L 128.51478 -57.631571
L 130.032868 -59.076495
L 131.550956 -57.900139
L 133.069044 -57.170801
L 134.587132 -57.264186
L 136.10522 -55.701691
L 137.623308 -56.120842
L 139.141396 -55.747278
L 140.659485 -57.559327
L 142.177573 -54.927558
L 143.695661 -55.295034
L 145.213749 -54.963529
L 146.731837 -54.604503
L 148.249925 -55.717869
L 149.768013 -55.000144
L 151.286101 -54.852884
L 152.804189 -53.80372
L 154.322277 -54.148462
L 155.840366 -54.079593
L 157.358454 -52.04994
L 158.876542 -53.523773
L 160.39463 -52.304483
L 161.912718 -53.304362
L 163.430806 -52.478924
L 164.948894 -52.86611
L 166.466982 -52.074935
L 167.98507 -53.437558
L 169.503158 -52.288641
L 171.021246 -52.665947
L 172.539335 -51.835952
L 174.057423 -51.269646
L 175.575511 -50.743715
L 177.093599 -51.210288
L 178.611687 -50.57727
L 180.129775 -51.505396
L 181.647863 -51.259981
L 183.165951 -51.028842
L 184.684039 -50.676299
L 186.202127 -50.823241
L 187.720216 -50.793343
L 189.238304 -49.848142
L 190.756392 -49.76643
L 192.27448 -50.82466
L 193.792568 -50.04987
L 195.310656 -50.363996
L 196.828744 -50.368063
L 198.346832 -49.436787
L 199.86492 -50.708468
L 201.383008 -48.904759
L 202.901097 -49.098102
L 204.419185 -50.281446
L 205.937273 -48.703295
L 205.937273 -50.858169
L 205.937273 -50.858169
L 204.419185 -52.621072
L 202.901097 -51.437189
L 201.383008 -51.334247
L 199.86492 -53.259232
L 198.346832 -51.827831
L 196.828744 -52.724587
L 195.310656 -52.547067
L 193.792568 -52.303705
L 192.27448 -52.948091
L 190.756392 -52.515094
L 189.238304 -52.299908
L 187.720216 -53.374365
L 186.202127 -53.213936
L 184.684039 -53.245929
L 183.165951 -53.501813
L 181.647863 -53.772858
L 180.129775 -54.214103
L 178.611687 -53.082989
L 177.093599 -53.88458
L 175.575511 -53.45756
L 174.057423 -54.038661
L 172.539335 -54.500899
L 171.021246 -55.322034
L 169.503158 -54.713612
L 167.98507 -55.830465
L 166.466982 -54.580511
L 164.948894 -55.596569
L 163.430806 -55.326721
L 161.912718 -56.097053
L 160.39463 -54.80433
L 158.876542 -56.238081
L 157.358454 -54.816323
L 155.840366 -56.935499
L 154.322277 -56.920686
L 152.804189 -56.339585
L 151.286101 -57.876437
L 149.768013 -57.784808
L 148.249925 -58.729802
L 146.731837 -57.378277
L 145.213749 -57.8707
L 143.695661 -58.544794
L 142.177573 -57.610021
L 140.659485 -60.550544
L 139.141396 -58.537337
L 137.623308 -59.533261
L 136.10522 -58.755663
L 134.587132 -60.425823
L 133.069044 -60.435184
L 131.550956 -60.675303
L 130.032868 -62.42647
L 128.51478 -60.999832
L 126.996692 -61.200748
L 125.478604 -63.735234
L 123.960515 -62.093707
L 122.442427 -62.678534
L 120.924339 -62.762208
L 119.406251 -63.492031
L 117.888163 -63.505801
L 116.370075 -65.820533
L 114.851987 -65.326385
L 113.333899 -66.486512
L 111.815811 -67.000433
L 110.297723 -65.639017
L 108.779634 -68.386146
L 107.261546 -67.350446
L 105.743458 -69.131214
L 104.22537 -68.157538
L 102.707282 -70.901598
L 101.189194 -70.955113
L 99.671106 -70.957698
L 98.153018 -71.85238
L 96.63493 -71.704179
L 95.116842 -72.506605
L 93.598754 -74.926054
L 92.080665 -75.272802
L 90.562577 -76.882753
L 89.044489 -76.99016
L 87.526401 -78.779765
L 86.008313 -80.997731
L 84.490225 -80.636149
L 82.972137 -83.117431
L 81.454049 -85.037897
L 79.935961 -85.451098
L 78.417873 -86.903209
L 76.899784 -89.115902
L 75.381696 -92.484078
L 73.863608 -91.456948
L 72.34552 -96.648245
L 70.827432 -102.225434
L 69.309344 -103.158565
L 67.791256 -105.500683
L 66.273168 -114.292667
L 64.75508 -117.421031
L 63.236992 -131.52706
L 61.718903 -139.351557
L 60.200815 -157.927861
L 58.682727 -183.569205
z
" style="stroke: #f8dcdc; stroke-opacity: 0.5"/>
    </defs>
    <g clip-path="url(#ped7d37cee2)">
     <use xlink:href="#m72bae87a71" x="0" y="216" style="fill: #f8dcdc; fill-opacity: 0.5; stroke: #f8dcdc; stroke-opacity: 0.5"/>
    </g>
   </g>
   <g id="matplotlib.axis_1">
    <g id="xtick_1">
     <g id="line2d_1">
      <defs>
       <path id="ma2a763936f" d="M 0 0
L 0 3.5
" style="stroke: #000000; stroke-width: 0.8"/>
      </defs>
      <g>
       <use xlink:href="#ma2a763936f" x="55.646551" y="174.04" style="stroke: #000000; stroke-width: 0.8"/>
      </g>
     </g>
     <g id="text_1">
      <!-- 0 -->
      <g transform="translate(52.866082 188.213437) scale(0.1 -0.1)">
       <defs>
        <path id="Helvetica-30" d="M 1731 4475
Q 2600 4475 2988 3759
Q 3288 3206 3288 2244
Q 3288 1331 3016 734
Q 2622 -122 1728 -122
Q 922 -122 528 578
Q 200 1163 200 2147
Q 200 2909 397 3456
Q 766 4475 1731 4475
z
M 1725 391
Q 2163 391 2422 778
Q 2681 1166 2681 2222
Q 2681 2984 2493 3476
Q 2306 3969 1766 3969
Q 1269 3969 1039 3501
Q 809 3034 809 2125
Q 809 1441 956 1025
Q 1181 391 1725 391
z
" transform="scale(0.015625)"/>
       </defs>
       <use xlink:href="#Helvetica-30"/>
      </g>
     </g>
    </g>
    <g id="xtick_2">
     <g id="line2d_2">
      <g>
       <use xlink:href="#ma2a763936f" x="116.370075" y="174.04" style="stroke: #000000; stroke-width: 0.8"/>
      </g>
     </g>
     <g id="text_2">
      <!-- 2000 -->
      <g transform="translate(105.2482 188.213437) scale(0.1 -0.1)">
       <defs>
        <path id="Helvetica-32" d="M 200 0
Q 231 578 439 1006
Q 647 1434 1250 1784
L 1850 2131
Q 2253 2366 2416 2531
Q 2672 2791 2672 3125
Q 2672 3516 2437 3745
Q 2203 3975 1813 3975
Q 1234 3975 1013 3538
Q 894 3303 881 2888
L 309 2888
Q 319 3472 525 3841
Q 891 4491 1816 4491
Q 2584 4491 2939 4075
Q 3294 3659 3294 3150
Q 3294 2613 2916 2231
Q 2697 2009 2131 1694
L 1703 1456
Q 1397 1288 1222 1134
Q 909 863 828 531
L 3272 531
L 3272 0
L 200 0
z
" transform="scale(0.015625)"/>
       </defs>
       <use xlink:href="#Helvetica-32"/>
       <use xlink:href="#Helvetica-30" x="55.615234"/>
       <use xlink:href="#Helvetica-30" x="111.230469"/>
       <use xlink:href="#Helvetica-30" x="166.845703"/>
      </g>
     </g>
    </g>
    <g id="xtick_3">
     <g id="line2d_3">
      <g>
       <use xlink:href="#ma2a763936f" x="177.093599" y="174.04" style="stroke: #000000; stroke-width: 0.8"/>
      </g>
     </g>
     <g id="text_3">
      <!-- 4000 -->
      <g transform="translate(165.971724 188.213437) scale(0.1 -0.1)">
       <defs>
        <path id="Helvetica-34" d="M 2116 1584
L 2116 3613
L 681 1584
L 2116 1584
z
M 2125 0
L 2125 1094
L 163 1094
L 163 1644
L 2213 4488
L 2688 4488
L 2688 1584
L 3347 1584
L 3347 1094
L 2688 1094
L 2688 0
L 2125 0
z
" transform="scale(0.015625)"/>
       </defs>
       <use xlink:href="#Helvetica-34"/>
       <use xlink:href="#Helvetica-30" x="55.615234"/>
       <use xlink:href="#Helvetica-30" x="111.230469"/>
       <use xlink:href="#Helvetica-30" x="166.845703"/>
      </g>
     </g>
    </g>
    <g id="text_4">
     <!-- Analysis Sample Size -->
     <g transform="translate(84.235 201.666562) scale(0.1 -0.1)">
      <defs>
       <path id="Helvetica-41" d="M 2844 1881
L 2147 3909
L 1406 1881
L 2844 1881
z
M 1822 4591
L 2525 4591
L 4191 0
L 3509 0
L 3044 1375
L 1228 1375
L 731 0
L 94 0
L 1822 4591
z
" transform="scale(0.015625)"/>
       <path id="Helvetica-6e" d="M 413 3347
L 947 3347
L 947 2872
Q 1184 3166 1450 3294
Q 1716 3422 2041 3422
Q 2753 3422 3003 2925
Q 3141 2653 3141 2147
L 3141 0
L 2569 0
L 2569 2109
Q 2569 2416 2478 2603
Q 2328 2916 1934 2916
Q 1734 2916 1606 2875
Q 1375 2806 1200 2600
Q 1059 2434 1017 2257
Q 975 2081 975 1753
L 975 0
L 413 0
L 413 3347
z
M 1734 3428
L 1734 3428
z
" transform="scale(0.015625)"/>
       <path id="Helvetica-61" d="M 844 891
Q 844 647 1022 506
Q 1200 366 1444 366
Q 1741 366 2019 503
Q 2488 731 2488 1250
L 2488 1703
Q 2384 1638 2221 1594
Q 2059 1550 1903 1531
L 1563 1488
Q 1256 1447 1103 1359
Q 844 1213 844 891
z
M 2206 2028
Q 2400 2053 2466 2191
Q 2503 2266 2503 2406
Q 2503 2694 2298 2823
Q 2094 2953 1713 2953
Q 1272 2953 1088 2716
Q 984 2584 953 2325
L 428 2325
Q 444 2944 830 3186
Q 1216 3428 1725 3428
Q 2316 3428 2684 3203
Q 3050 2978 3050 2503
L 3050 575
Q 3050 488 3086 434
Q 3122 381 3238 381
Q 3275 381 3322 386
Q 3369 391 3422 400
L 3422 -16
Q 3291 -53 3222 -62
Q 3153 -72 3034 -72
Q 2744 -72 2613 134
Q 2544 244 2516 444
Q 2344 219 2022 53
Q 1700 -113 1313 -113
Q 847 -113 551 170
Q 256 453 256 878
Q 256 1344 547 1600
Q 838 1856 1309 1916
L 2206 2028
z
M 1741 3428
L 1741 3428
z
" transform="scale(0.015625)"/>
       <path id="Helvetica-6c" d="M 428 4591
L 991 4591
L 991 0
L 428 0
L 428 4591
z
" transform="scale(0.015625)"/>
       <path id="Helvetica-79" d="M 2503 3347
L 3125 3347
Q 3006 3025 2597 1878
Q 2291 1016 2084 472
Q 1597 -809 1397 -1090
Q 1197 -1372 709 -1372
Q 591 -1372 527 -1362
Q 463 -1353 369 -1328
L 369 -816
Q 516 -856 581 -865
Q 647 -875 697 -875
Q 853 -875 926 -823
Q 1000 -772 1050 -697
Q 1066 -672 1162 -440
Q 1259 -209 1303 -97
L 66 3347
L 703 3347
L 1600 622
L 2503 3347
z
M 1597 3428
L 1597 3428
z
" transform="scale(0.015625)"/>
       <path id="Helvetica-73" d="M 747 1050
Q 772 769 888 619
Q 1100 347 1625 347
Q 1938 347 2175 483
Q 2413 619 2413 903
Q 2413 1119 2222 1231
Q 2100 1300 1741 1391
L 1294 1503
Q 866 1609 663 1741
Q 300 1969 300 2372
Q 300 2847 642 3140
Q 984 3434 1563 3434
Q 2319 3434 2653 2991
Q 2863 2709 2856 2384
L 2325 2384
Q 2309 2575 2191 2731
Q 1997 2953 1519 2953
Q 1200 2953 1036 2831
Q 872 2709 872 2509
Q 872 2291 1088 2159
Q 1213 2081 1456 2022
L 1828 1931
Q 2434 1784 2641 1647
Q 2969 1431 2969 969
Q 2969 522 2630 197
Q 2291 -128 1597 -128
Q 850 -128 539 211
Q 228 550 206 1050
L 747 1050
z
M 1578 3428
L 1578 3428
z
" transform="scale(0.015625)"/>
       <path id="Helvetica-69" d="M 413 3331
L 984 3331
L 984 0
L 413 0
L 413 3331
z
M 413 4591
L 984 4591
L 984 3953
L 413 3953
L 413 4591
z
" transform="scale(0.015625)"/>
       <path id="Helvetica-20" transform="scale(0.015625)"/>
       <path id="Helvetica-53" d="M 894 1481
Q 916 1091 1078 847
Q 1388 391 2169 391
Q 2519 391 2806 491
Q 3363 684 3363 1184
Q 3363 1559 3128 1719
Q 2891 1875 2384 1991
L 1763 2131
Q 1153 2269 900 2434
Q 463 2722 463 3294
Q 463 3913 891 4309
Q 1319 4706 2103 4706
Q 2825 4706 3329 4357
Q 3834 4009 3834 3244
L 3250 3244
Q 3203 3613 3050 3809
Q 2766 4169 2084 4169
Q 1534 4169 1293 3937
Q 1053 3706 1053 3400
Q 1053 3063 1334 2906
Q 1519 2806 2169 2656
L 2813 2509
Q 3278 2403 3531 2219
Q 3969 1897 3969 1284
Q 3969 522 3414 194
Q 2859 -134 2125 -134
Q 1269 -134 784 303
Q 300 738 309 1481
L 894 1481
z
M 2150 4716
L 2150 4716
z
" transform="scale(0.015625)"/>
       <path id="Helvetica-6d" d="M 413 3347
L 969 3347
L 969 2872
Q 1169 3119 1331 3231
Q 1609 3422 1963 3422
Q 2363 3422 2606 3225
Q 2744 3113 2856 2894
Q 3044 3163 3297 3292
Q 3550 3422 3866 3422
Q 4541 3422 4784 2934
Q 4916 2672 4916 2228
L 4916 0
L 4331 0
L 4331 2325
Q 4331 2659 4164 2784
Q 3997 2909 3756 2909
Q 3425 2909 3186 2687
Q 2947 2466 2947 1947
L 2947 0
L 2375 0
L 2375 2184
Q 2375 2525 2294 2681
Q 2166 2916 1816 2916
Q 1497 2916 1236 2669
Q 975 2422 975 1775
L 975 0
L 413 0
L 413 3347
z
" transform="scale(0.015625)"/>
       <path id="Helvetica-70" d="M 1825 378
Q 2219 378 2480 708
Q 2741 1038 2741 1694
Q 2741 2094 2625 2381
Q 2406 2934 1825 2934
Q 1241 2934 1025 2350
Q 909 2038 909 1556
Q 909 1169 1025 897
Q 1244 378 1825 378
z
M 369 3331
L 916 3331
L 916 2888
Q 1084 3116 1284 3241
Q 1569 3428 1953 3428
Q 2522 3428 2919 2992
Q 3316 2556 3316 1747
Q 3316 653 2744 184
Q 2381 -113 1900 -113
Q 1522 -113 1266 53
Q 1116 147 931 375
L 931 -1334
L 369 -1334
L 369 3331
z
" transform="scale(0.015625)"/>
       <path id="Helvetica-65" d="M 1806 3422
Q 2163 3422 2497 3255
Q 2831 3088 3006 2822
Q 3175 2569 3231 2231
Q 3281 2000 3281 1494
L 828 1494
Q 844 984 1069 676
Q 1294 369 1766 369
Q 2206 369 2469 659
Q 2619 828 2681 1050
L 3234 1050
Q 3213 866 3089 639
Q 2966 413 2813 269
Q 2556 19 2178 -69
Q 1975 -119 1719 -119
Q 1094 -119 659 336
Q 225 791 225 1609
Q 225 2416 662 2919
Q 1100 3422 1806 3422
z
M 2703 1941
Q 2669 2306 2544 2525
Q 2313 2931 1772 2931
Q 1384 2931 1121 2651
Q 859 2372 844 1941
L 2703 1941
z
M 1753 3428
L 1753 3428
z
" transform="scale(0.015625)"/>
       <path id="Helvetica-7a" d="M 163 444
L 2147 2844
L 309 2844
L 309 3347
L 2903 3347
L 2903 2888
L 931 503
L 2963 503
L 2963 0
L 163 0
L 163 444
z
M 1609 3428
L 1609 3428
z
" transform="scale(0.015625)"/>
      </defs>
      <use xlink:href="#Helvetica-41"/>
      <use xlink:href="#Helvetica-6e" x="66.699219"/>
      <use xlink:href="#Helvetica-61" x="122.314453"/>
      <use xlink:href="#Helvetica-6c" x="177.929688"/>
      <use xlink:href="#Helvetica-79" x="200.146484"/>
      <use xlink:href="#Helvetica-73" x="250.146484"/>
      <use xlink:href="#Helvetica-69" x="300.146484"/>
      <use xlink:href="#Helvetica-73" x="322.363281"/>
      <use xlink:href="#Helvetica-20" x="372.363281"/>
      <use xlink:href="#Helvetica-53" x="400.146484"/>
      <use xlink:href="#Helvetica-61" x="466.845703"/>
      <use xlink:href="#Helvetica-6d" x="522.460938"/>
      <use xlink:href="#Helvetica-70" x="605.761719"/>
      <use xlink:href="#Helvetica-6c" x="661.376953"/>
      <use xlink:href="#Helvetica-65" x="683.59375"/>
      <use xlink:href="#Helvetica-20" x="739.208984"/>
      <use xlink:href="#Helvetica-53" x="766.992188"/>
      <use xlink:href="#Helvetica-69" x="833.691406"/>
      <use xlink:href="#Helvetica-7a" x="855.908203"/>
      <use xlink:href="#Helvetica-65" x="905.908203"/>
     </g>
    </g>
   </g>
   <g id="matplotlib.axis_2">
    <g id="ytick_1">
     <g id="line2d_4">
      <defs>
       <path id="m6e51a74636" d="M 0 0
L -3.5 0
" style="stroke: #000000; stroke-width: 0.8"/>
      </defs>
      <g>
       <use xlink:href="#m6e51a74636" x="51.32" y="168.401114" style="stroke: #000000; stroke-width: 0.8"/>
      </g>
     </g>
     <g id="text_5">
      <!-- 0.02 -->
      <g transform="translate(24.859063 171.987832) scale(0.1 -0.1)">
       <defs>
        <path id="Helvetica-2e" d="M 547 681
L 1200 681
L 1200 0
L 547 0
L 547 681
z
" transform="scale(0.015625)"/>
       </defs>
       <use xlink:href="#Helvetica-30"/>
       <use xlink:href="#Helvetica-2e" x="55.615234"/>
       <use xlink:href="#Helvetica-30" x="83.398438"/>
       <use xlink:href="#Helvetica-32" x="139.013672"/>
      </g>
     </g>
    </g>
    <g id="ytick_2">
     <g id="line2d_5">
      <g>
       <use xlink:href="#m6e51a74636" x="51.32" y="144.582459" style="stroke: #000000; stroke-width: 0.8"/>
      </g>
     </g>
     <g id="text_6">
      <!-- 0.04 -->
      <g transform="translate(24.859063 148.169177) scale(0.1 -0.1)">
       <use xlink:href="#Helvetica-30"/>
       <use xlink:href="#Helvetica-2e" x="55.615234"/>
       <use xlink:href="#Helvetica-30" x="83.398438"/>
       <use xlink:href="#Helvetica-34" x="139.013672"/>
      </g>
     </g>
    </g>
    <g id="ytick_3">
     <g id="line2d_6">
      <g>
       <use xlink:href="#m6e51a74636" x="51.32" y="120.763803" style="stroke: #000000; stroke-width: 0.8"/>
      </g>
     </g>
     <g id="text_7">
      <!-- 0.06 -->
      <g transform="translate(24.859063 124.350522) scale(0.1 -0.1)">
       <defs>
        <path id="Helvetica-36" d="M 1872 4494
Q 2622 4494 2917 4105
Q 3213 3716 3213 3303
L 2656 3303
Q 2606 3569 2497 3719
Q 2294 4000 1881 4000
Q 1409 4000 1131 3564
Q 853 3128 822 2316
Q 1016 2600 1309 2741
Q 1578 2866 1909 2866
Q 2472 2866 2890 2506
Q 3309 2147 3309 1434
Q 3309 825 2912 354
Q 2516 -116 1781 -116
Q 1153 -116 697 361
Q 241 838 241 1966
Q 241 2800 444 3381
Q 834 4494 1872 4494
z
M 1831 384
Q 2275 384 2495 682
Q 2716 981 2716 1388
Q 2716 1731 2519 2042
Q 2322 2353 1803 2353
Q 1441 2353 1167 2112
Q 894 1872 894 1388
Q 894 963 1142 673
Q 1391 384 1831 384
z
" transform="scale(0.015625)"/>
       </defs>
       <use xlink:href="#Helvetica-30"/>
       <use xlink:href="#Helvetica-2e" x="55.615234"/>
       <use xlink:href="#Helvetica-30" x="83.398438"/>
       <use xlink:href="#Helvetica-36" x="139.013672"/>
      </g>
     </g>
    </g>
    <g id="ytick_4">
     <g id="line2d_7">
      <g>
       <use xlink:href="#m6e51a74636" x="51.32" y="96.945148" style="stroke: #000000; stroke-width: 0.8"/>
      </g>
     </g>
     <g id="text_8">
      <!-- 0.08 -->
      <g transform="translate(24.859063 100.531867) scale(0.1 -0.1)">
       <defs>
        <path id="Helvetica-38" d="M 1741 2600
Q 2113 2600 2322 2808
Q 2531 3016 2531 3303
Q 2531 3553 2331 3762
Q 2131 3972 1722 3972
Q 1316 3972 1134 3762
Q 953 3553 953 3272
Q 953 2956 1187 2778
Q 1422 2600 1741 2600
z
M 1775 384
Q 2166 384 2423 595
Q 2681 806 2681 1225
Q 2681 1659 2415 1884
Q 2150 2109 1734 2109
Q 1331 2109 1076 1879
Q 822 1650 822 1244
Q 822 894 1055 639
Q 1288 384 1775 384
z
M 975 2384
Q 741 2484 609 2619
Q 363 2869 363 3269
Q 363 3769 725 4128
Q 1088 4488 1753 4488
Q 2397 4488 2762 4148
Q 3128 3809 3128 3356
Q 3128 2938 2916 2678
Q 2797 2531 2547 2391
Q 2825 2263 2984 2097
Q 3281 1784 3281 1284
Q 3281 694 2884 283
Q 2488 -128 1763 -128
Q 1109 -128 657 226
Q 206 581 206 1256
Q 206 1653 400 1942
Q 594 2231 975 2384
z
" transform="scale(0.015625)"/>
       </defs>
       <use xlink:href="#Helvetica-30"/>
       <use xlink:href="#Helvetica-2e" x="55.615234"/>
       <use xlink:href="#Helvetica-30" x="83.398438"/>
       <use xlink:href="#Helvetica-38" x="139.013672"/>
      </g>
     </g>
    </g>
    <g id="ytick_5">
     <g id="line2d_8">
      <g>
       <use xlink:href="#m6e51a74636" x="51.32" y="73.126493" style="stroke: #000000; stroke-width: 0.8"/>
      </g>
     </g>
     <g id="text_9">
      <!-- 0.10 -->
      <g transform="translate(24.859063 76.713212) scale(0.1 -0.1)">
       <defs>
        <path id="Helvetica-31" d="M 613 3169
L 613 3600
Q 1222 3659 1462 3798
Q 1703 3938 1822 4456
L 2266 4456
L 2266 0
L 1666 0
L 1666 3169
L 613 3169
z
" transform="scale(0.015625)"/>
       </defs>
       <use xlink:href="#Helvetica-30"/>
       <use xlink:href="#Helvetica-2e" x="55.615234"/>
       <use xlink:href="#Helvetica-31" x="83.398438"/>
       <use xlink:href="#Helvetica-30" x="139.013672"/>
      </g>
     </g>
    </g>
    <g id="ytick_6">
     <g id="line2d_9">
      <g>
       <use xlink:href="#m6e51a74636" x="51.32" y="49.307838" style="stroke: #000000; stroke-width: 0.8"/>
      </g>
     </g>
     <g id="text_10">
      <!-- 0.12 -->
      <g transform="translate(24.859063 52.894557) scale(0.1 -0.1)">
       <use xlink:href="#Helvetica-30"/>
       <use xlink:href="#Helvetica-2e" x="55.615234"/>
       <use xlink:href="#Helvetica-31" x="83.398438"/>
       <use xlink:href="#Helvetica-32" x="139.013672"/>
      </g>
     </g>
    </g>
    <g id="text_11">
     <!-- Jensen-Shannon Distance -->
     <g transform="translate(18.774687 158.509844) rotate(-90) scale(0.1 -0.1)">
      <defs>
       <path id="Helvetica-4a" d="M 2741 1369
Q 2741 788 2569 466
Q 2250 -122 1356 -122
Q 841 -122 475 158
Q 109 438 109 1153
L 109 1481
L 694 1481
L 694 1153
Q 694 778 861 589
Q 1028 400 1381 400
Q 1878 400 2031 741
Q 2125 950 2125 1531
L 2125 4591
L 2741 4591
L 2741 1369
z
" transform="scale(0.015625)"/>
       <path id="Helvetica-2d" d="M 266 2072
L 1834 2072
L 1834 1494
L 266 1494
L 266 2072
z
" transform="scale(0.015625)"/>
       <path id="Helvetica-68" d="M 413 4606
L 975 4606
L 975 2894
Q 1175 3147 1334 3250
Q 1606 3428 2013 3428
Q 2741 3428 3000 2919
Q 3141 2641 3141 2147
L 3141 0
L 2563 0
L 2563 2109
Q 2563 2478 2469 2650
Q 2316 2925 1894 2925
Q 1544 2925 1259 2684
Q 975 2444 975 1775
L 975 0
L 413 0
L 413 4606
z
" transform="scale(0.015625)"/>
       <path id="Helvetica-6f" d="M 1741 363
Q 2300 363 2508 786
Q 2716 1209 2716 1728
Q 2716 2197 2566 2491
Q 2328 2953 1747 2953
Q 1231 2953 997 2559
Q 763 2166 763 1609
Q 763 1075 997 719
Q 1231 363 1741 363
z
M 1763 3444
Q 2409 3444 2856 3012
Q 3303 2581 3303 1744
Q 3303 934 2909 406
Q 2516 -122 1688 -122
Q 997 -122 590 345
Q 184 813 184 1600
Q 184 2444 612 2944
Q 1041 3444 1763 3444
z
M 1744 3428
L 1744 3428
z
" transform="scale(0.015625)"/>
       <path id="Helvetica-44" d="M 2250 531
Q 2566 531 2769 597
Q 3131 719 3363 1066
Q 3547 1344 3628 1778
Q 3675 2038 3675 2259
Q 3675 3113 3336 3584
Q 2997 4056 2244 4056
L 1141 4056
L 1141 531
L 2250 531
z
M 516 4591
L 2375 4591
Q 3322 4591 3844 3919
Q 4309 3313 4309 2366
Q 4309 1634 4034 1044
Q 3550 0 2369 0
L 516 0
L 516 4591
z
" transform="scale(0.015625)"/>
       <path id="Helvetica-74" d="M 525 4281
L 1094 4281
L 1094 3347
L 1628 3347
L 1628 2888
L 1094 2888
L 1094 703
Q 1094 528 1213 469
Q 1278 434 1431 434
Q 1472 434 1519 436
Q 1566 438 1628 444
L 1628 0
Q 1531 -28 1426 -40
Q 1322 -53 1200 -53
Q 806 -53 665 148
Q 525 350 525 672
L 525 2888
L 72 2888
L 72 3347
L 525 3347
L 525 4281
z
" transform="scale(0.015625)"/>
       <path id="Helvetica-63" d="M 1703 3444
Q 2269 3444 2623 3169
Q 2978 2894 3050 2222
L 2503 2222
Q 2453 2531 2275 2736
Q 2097 2941 1703 2941
Q 1166 2941 934 2416
Q 784 2075 784 1575
Q 784 1072 996 728
Q 1209 384 1666 384
Q 2016 384 2220 598
Q 2425 813 2503 1184
L 3050 1184
Q 2956 519 2581 211
Q 2206 -97 1622 -97
Q 966 -97 575 383
Q 184 863 184 1581
Q 184 2463 612 2953
Q 1041 3444 1703 3444
z
M 1616 3428
L 1616 3428
z
" transform="scale(0.015625)"/>
      </defs>
      <use xlink:href="#Helvetica-4a"/>
      <use xlink:href="#Helvetica-65" x="50"/>
      <use xlink:href="#Helvetica-6e" x="105.615234"/>
      <use xlink:href="#Helvetica-73" x="161.230469"/>
      <use xlink:href="#Helvetica-65" x="211.230469"/>
      <use xlink:href="#Helvetica-6e" x="266.845703"/>
      <use xlink:href="#Helvetica-2d" x="322.460938"/>
      <use xlink:href="#Helvetica-53" x="355.761719"/>
      <use xlink:href="#Helvetica-68" x="422.460938"/>
      <use xlink:href="#Helvetica-61" x="478.076172"/>
      <use xlink:href="#Helvetica-6e" x="533.691406"/>
      <use xlink:href="#Helvetica-6e" x="589.306641"/>
      <use xlink:href="#Helvetica-6f" x="644.921875"/>
      <use xlink:href="#Helvetica-6e" x="700.537109"/>
      <use xlink:href="#Helvetica-20" x="756.152344"/>
      <use xlink:href="#Helvetica-44" x="783.935547"/>
      <use xlink:href="#Helvetica-69" x="856.152344"/>
      <use xlink:href="#Helvetica-73" x="878.369141"/>
      <use xlink:href="#Helvetica-74" x="928.369141"/>
      <use xlink:href="#Helvetica-61" x="956.152344"/>
      <use xlink:href="#Helvetica-6e" x="1011.767578"/>
      <use xlink:href="#Helvetica-63" x="1067.382812"/>
      <use xlink:href="#Helvetica-65" x="1117.382812"/>
     </g>
    </g>
   </g>
   <g id="line2d_10">
    <path d="M 58.682727 37.902222
L 60.200815 63.572412
L 61.718903 80.859165
L 63.236992 89.038526
L 64.75508 102.026027
L 66.273168 105.22733
L 67.791256 113.420119
L 69.309344 115.470864
L 70.827432 116.656485
L 72.34552 122.361994
L 73.863608 126.841377
L 75.381696 126.035755
L 76.899784 129.709996
L 78.417873 131.292802
L 79.935961 133.020621
L 81.454049 133.215107
L 82.972137 134.989734
L 84.490225 137.582877
L 86.008313 137.08633
L 87.526401 139.409386
L 89.044489 141.018343
L 90.562577 141.243301
L 92.080665 142.821863
L 93.598754 143.443611
L 95.116842 145.64227
L 96.63493 146.339373
L 98.153018 146.357713
L 99.671106 147.142704
L 101.189194 147.06969
L 102.707282 147.105195
L 104.22537 149.745863
L 105.743458 148.815077
L 107.261546 150.562012
L 108.779634 149.695981
L 110.297723 152.228697
L 111.815811 151.037546
L 113.333899 151.247008
L 114.851987 152.360223
L 116.370075 152.036367
L 117.888163 154.185566
L 119.406251 154.337607
L 120.924339 154.85643
L 122.442427 154.932686
L 123.960515 155.562072
L 125.478604 153.84367
L 126.996692 156.578292
L 128.51478 156.70296
L 130.032868 155.28628
L 131.550956 156.729804
L 133.069044 157.185
L 134.587132 157.129263
L 136.10522 158.788689
L 137.623308 158.229131
L 139.141396 158.868371
L 140.659485 156.947142
L 142.177573 159.80858
L 143.695661 159.093146
L 145.213749 159.579565
L 146.731837 160.012686
L 148.249925 158.817481
L 149.768013 159.612949
L 151.286101 159.687185
L 152.804189 160.926439
L 154.322277 160.519862
L 155.840366 160.475682
L 157.358454 162.533312
L 158.876542 161.18748
L 160.39463 162.441659
L 161.912718 161.330705
L 163.430806 162.153996
L 164.948894 161.887014
L 166.466982 162.720486
L 167.98507 161.436854
L 169.503158 162.536404
L 171.021246 161.972345
L 172.539335 162.88301
L 174.057423 163.414556
L 175.575511 163.948059
L 177.093599 163.485504
L 178.611687 164.199796
L 180.129775 163.186595
L 181.647863 163.513756
L 183.165951 163.728104
L 184.684039 164.065936
L 186.202127 164.005662
L 187.720216 163.952081
L 189.238304 164.94218
L 190.756392 164.890932
L 192.27448 164.136776
L 193.792568 164.801258
L 195.310656 164.567334
L 196.828744 164.525197
L 198.346832 165.380394
L 199.86492 164.070384
L 201.383008 165.907034
L 202.901097 165.753412
L 204.419185 164.583245
L 205.937273 166.267866
" clip-path="url(#ped7d37cee2)" style="fill: none; stroke: #dd4040; stroke-width: 1.5; stroke-linecap: square"/>
   </g>
   <g id="patch_3">
    <path d="M 51.32 174.04
L 51.32 25.6875
" style="fill: none; stroke: #000000; stroke-width: 0.8; stroke-linejoin: miter; stroke-linecap: square"/>
   </g>
   <g id="patch_4">
    <path d="M 213.3 174.04
L 213.3 25.6875
" style="fill: none; stroke: #000000; stroke-width: 0.8; stroke-linejoin: miter; stroke-linecap: square"/>
   </g>
   <g id="patch_5">
    <path d="M 51.32 174.04
L 213.3 174.04
" style="fill: none; stroke: #000000; stroke-width: 0.8; stroke-linejoin: miter; stroke-linecap: square"/>
   </g>
   <g id="patch_6">
    <path d="M 51.32 25.6875
L 213.3 25.6875
" style="fill: none; stroke: #000000; stroke-width: 0.8; stroke-linejoin: miter; stroke-linecap: square"/>
   </g>
   <g id="text_12">
    <!-- Jensen-Shannon Distance -->
    <g transform="translate(61.934687 19.6875) scale(0.12 -0.12)">
     <use xlink:href="#Helvetica-4a"/>
     <use xlink:href="#Helvetica-65" x="50"/>
     <use xlink:href="#Helvetica-6e" x="105.615234"/>
     <use xlink:href="#Helvetica-73" x="161.230469"/>
     <use xlink:href="#Helvetica-65" x="211.230469"/>
     <use xlink:href="#Helvetica-6e" x="266.845703"/>
     <use xlink:href="#Helvetica-2d" x="322.460938"/>
     <use xlink:href="#Helvetica-53" x="355.761719"/>
     <use xlink:href="#Helvetica-68" x="422.460938"/>
     <use xlink:href="#Helvetica-61" x="478.076172"/>
     <use xlink:href="#Helvetica-6e" x="533.691406"/>
     <use xlink:href="#Helvetica-6e" x="589.306641"/>
     <use xlink:href="#Helvetica-6f" x="644.921875"/>
     <use xlink:href="#Helvetica-6e" x="700.537109"/>
     <use xlink:href="#Helvetica-20" x="756.152344"/>
     <use xlink:href="#Helvetica-44" x="783.935547"/>
     <use xlink:href="#Helvetica-69" x="856.152344"/>
     <use xlink:href="#Helvetica-73" x="878.369141"/>
     <use xlink:href="#Helvetica-74" x="928.369141"/>
     <use xlink:href="#Helvetica-61" x="956.152344"/>
     <use xlink:href="#Helvetica-6e" x="1011.767578"/>
     <use xlink:href="#Helvetica-63" x="1067.382812"/>
     <use xlink:href="#Helvetica-65" x="1117.382812"/>
    </g>
   </g>
   <g id="legend_1">
    <g id="patch_7">
     <path d="M 141.507812 47.945312
L 206.3 47.945312
Q 208.3 47.945312 208.3 45.945312
L 208.3 32.6875
Q 208.3 30.6875 206.3 30.6875
L 141.507812 30.6875
Q 139.507812 30.6875 139.507812 32.6875
L 139.507812 45.945312
Q 139.507812 47.945312 141.507812 47.945312
z
" style="fill: #ffffff; opacity: 0.8; stroke: #cccccc; stroke-linejoin: miter"/>
    </g>
    <g id="patch_8">
     <path d="M 143.507812 41.860938
L 163.507812 41.860938
L 163.507812 34.860938
L 143.507812 34.860938
z
" style="fill: #f8dcdc; fill-opacity: 0.5; stroke: #f8dcdc; stroke-opacity: 0.5; stroke-linejoin: miter"/>
    </g>
    <g id="text_13">
     <!-- 95% CI -->
     <g transform="translate(171.507812 41.860938) scale(0.1 -0.1)">
      <defs>
       <path id="Helvetica-39" d="M 850 1081
Q 875 616 1209 438
Q 1381 344 1597 344
Q 2000 344 2284 680
Q 2569 1016 2688 2044
Q 2500 1747 2223 1626
Q 1947 1506 1628 1506
Q 981 1506 604 1909
Q 228 2313 228 2947
Q 228 3556 600 4018
Q 972 4481 1697 4481
Q 2675 4481 3047 3600
Q 3253 3116 3253 2388
Q 3253 1566 3006 931
Q 2597 -125 1619 -125
Q 963 -125 622 219
Q 281 563 281 1081
L 850 1081
z
M 1703 2000
Q 2038 2000 2314 2220
Q 2591 2441 2591 2991
Q 2591 3484 2342 3726
Q 2094 3969 1709 3969
Q 1297 3969 1055 3692
Q 813 3416 813 2953
Q 813 2516 1025 2258
Q 1238 2000 1703 2000
z
" transform="scale(0.015625)"/>
       <path id="Helvetica-35" d="M 791 1141
Q 847 659 1238 475
Q 1438 381 1700 381
Q 2200 381 2440 700
Q 2681 1019 2681 1406
Q 2681 1875 2395 2131
Q 2109 2388 1709 2388
Q 1419 2388 1211 2275
Q 1003 2163 856 1963
L 369 1991
L 709 4400
L 3034 4400
L 3034 3856
L 1131 3856
L 941 2613
Q 1097 2731 1238 2791
Q 1488 2894 1816 2894
Q 2431 2894 2859 2497
Q 3288 2100 3288 1491
Q 3288 856 2895 371
Q 2503 -113 1644 -113
Q 1097 -113 676 195
Q 256 503 206 1141
L 791 1141
z
" transform="scale(0.015625)"/>
       <path id="Helvetica-25" d="M 4363 2175
Q 4813 2175 5131 1856
Q 5450 1538 5450 1088
Q 5450 638 5131 319
Q 4813 0 4363 0
Q 3909 0 3590 319
Q 3272 638 3272 1088
Q 3272 1538 3590 1856
Q 3909 2175 4363 2175
z
M 3909 4456
L 4256 4456
L 1753 -119
L 1406 -119
L 3909 4456
z
M 1294 2606
Q 1563 2606 1752 2795
Q 1941 2984 1941 3250
Q 1941 3516 1752 3705
Q 1563 3894 1294 3894
Q 1028 3894 839 3706
Q 650 3519 650 3250
Q 650 2984 839 2795
Q 1028 2606 1294 2606
z
M 1294 4341
Q 1747 4341 2065 4020
Q 2384 3700 2384 3250
Q 2384 2800 2065 2481
Q 1747 2163 1294 2163
Q 844 2163 525 2481
Q 206 2800 206 3250
Q 206 3700 525 4020
Q 844 4341 1294 4341
z
M 4363 444
Q 4628 444 4817 633
Q 5006 822 5006 1088
Q 5006 1353 4817 1542
Q 4628 1731 4363 1731
Q 4094 1731 3905 1542
Q 3716 1353 3716 1088
Q 3716 822 3905 633
Q 4094 444 4363 444
z
" transform="scale(0.015625)"/>
       <path id="Helvetica-43" d="M 2422 4716
Q 3294 4716 3775 4256
Q 4256 3797 4309 3213
L 3703 3213
Q 3600 3656 3292 3915
Q 2984 4175 2428 4175
Q 1750 4175 1333 3698
Q 916 3222 916 2238
Q 916 1431 1292 929
Q 1669 428 2416 428
Q 3103 428 3463 956
Q 3653 1234 3747 1688
L 4353 1688
Q 4272 963 3816 472
Q 3269 -119 2341 -119
Q 1541 -119 997 366
Q 281 1006 281 2344
Q 281 3359 819 4009
Q 1400 4716 2422 4716
z
M 2297 4716
L 2297 4716
z
" transform="scale(0.015625)"/>
       <path id="Helvetica-49" d="M 628 4591
L 1256 4591
L 1256 0
L 628 0
L 628 4591
z
" transform="scale(0.015625)"/>
      </defs>
      <use xlink:href="#Helvetica-39"/>
      <use xlink:href="#Helvetica-35" x="55.615234"/>
      <use xlink:href="#Helvetica-25" x="111.230469"/>
      <use xlink:href="#Helvetica-20" x="200.146484"/>
      <use xlink:href="#Helvetica-43" x="227.929688"/>
      <use xlink:href="#Helvetica-49" x="300.146484"/>
     </g>
    </g>
   </g>
  </g>
  <g id="axes_2">
   <g id="patch_9">
    <path d="M 264.62 174.04
L 426.6 174.04
L 426.6 25.6875
L 264.62 25.6875
z
" style="fill: #ffffff"/>
   </g>
   <g id="PolyCollection_2">
    <defs>
     <path id="mf7ece64831" d="M 271.982727 -183.569205
L 271.982727 -172.454062
L 273.500815 -147.11246
L 275.018903 -129.14352
L 276.536992 -121.975968
L 278.05508 -109.654256
L 279.573168 -106.524402
L 281.091256 -99.246598
L 282.609344 -97.078474
L 284.127432 -96.352662
L 285.64552 -90.63588
L 287.163608 -86.702068
L 288.681696 -87.599424
L 290.199784 -83.708672
L 291.717873 -82.639556
L 293.235961 -80.421835
L 294.754049 -80.280834
L 296.272137 -78.510797
L 297.790225 -75.908831
L 299.308313 -76.736443
L 300.826401 -74.357828
L 302.344489 -73.125642
L 303.862577 -72.962265
L 305.380665 -70.917957
L 306.898754 -70.344993
L 308.416842 -68.637367
L 309.93493 -67.373915
L 311.453018 -67.335551
L 312.971106 -66.821276
L 314.489194 -67.201884
L 316.007282 -66.650789
L 317.52537 -64.18187
L 319.043458 -65.202102
L 320.561546 -63.541585
L 322.079634 -64.180424
L 323.597723 -61.787823
L 325.115811 -62.779591
L 326.633899 -62.937777
L 328.151987 -62.089583
L 329.670075 -62.270975
L 331.188163 -60.075505
L 332.706251 -59.783723
L 334.224339 -59.509554
L 335.742427 -59.47596
L 337.260515 -58.806105
L 338.778604 -60.486621
L 340.296692 -57.434601
L 341.81478 -57.498542
L 343.332868 -59.075478
L 344.850956 -57.572661
L 346.369044 -57.020043
L 347.887132 -57.229083
L 349.40522 -55.49332
L 350.923308 -55.965847
L 352.441396 -55.498318
L 353.959485 -57.118265
L 355.477573 -54.669036
L 356.995661 -55.022651
L 358.513749 -54.817552
L 360.031837 -54.319776
L 361.549925 -55.424617
L 363.068013 -54.953549
L 364.586101 -54.584629
L 366.104189 -53.617911
L 367.622277 -54.112378
L 369.140366 -53.926979
L 370.658454 -51.952578
L 372.176542 -53.343161
L 373.69463 -52.255116
L 375.212718 -53.042136
L 376.730806 -52.449779
L 378.248894 -52.622714
L 379.766982 -51.968713
L 381.28507 -53.294266
L 382.803158 -52.178785
L 384.321246 -52.519122
L 385.839335 -51.747842
L 387.357423 -51.235119
L 388.875511 -50.640267
L 390.393599 -51.144631
L 391.911687 -50.498183
L 393.429775 -51.428523
L 394.947863 -51.369836
L 396.465951 -50.849774
L 397.984039 -50.585435
L 399.502127 -50.792489
L 401.020216 -50.682192
L 402.538304 -49.893448
L 404.056392 -49.838552
L 405.57448 -50.680251
L 407.092568 -50.019095
L 408.610656 -50.286715
L 410.128744 -50.387108
L 411.646832 -49.535465
L 413.16492 -50.710391
L 414.683008 -48.948869
L 416.201097 -49.063014
L 417.719185 -50.259685
L 419.237273 -48.703295
L 419.237273 -50.693755
L 419.237273 -50.693755
L 417.719185 -52.570564
L 416.201097 -51.235629
L 414.683008 -51.277492
L 413.16492 -53.297514
L 411.646832 -51.886107
L 410.128744 -52.739352
L 408.610656 -52.376482
L 407.092568 -52.196178
L 405.57448 -52.65182
L 404.056392 -52.571317
L 402.538304 -52.319043
L 401.020216 -53.156299
L 399.502127 -53.171753
L 397.984039 -53.030229
L 396.465951 -53.140299
L 394.947863 -53.983397
L 393.429775 -54.060402
L 391.911687 -52.863057
L 390.393599 -53.748099
L 388.875511 -53.208655
L 387.357423 -53.987565
L 385.839335 -54.327538
L 384.321246 -55.100564
L 382.803158 -54.636139
L 381.28507 -55.707051
L 379.766982 -54.462826
L 378.248894 -55.238536
L 376.730806 -55.378423
L 375.212718 -55.725733
L 373.69463 -54.754342
L 372.176542 -55.985917
L 370.658454 -54.65334
L 369.140366 -56.72642
L 367.622277 -56.964192
L 366.104189 -56.152505
L 364.586101 -57.581673
L 363.068013 -57.88495
L 361.549925 -58.35403
L 360.031837 -57.00549
L 358.513749 -57.811219
L 356.995661 -58.183932
L 355.477573 -57.31712
L 353.959485 -60.050234
L 352.441396 -58.272442
L 350.923308 -59.400988
L 349.40522 -58.562959
L 347.887132 -60.577157
L 346.369044 -60.297457
L 344.850956 -60.347923
L 343.332868 -62.529745
L 341.81478 -60.955907
L 340.296692 -60.987022
L 338.778604 -63.728344
L 337.260515 -62.172045
L 335.742427 -62.782397
L 334.224339 -62.840815
L 332.706251 -63.537139
L 331.188163 -63.578077
L 329.670075 -66.108202
L 328.151987 -65.580533
L 326.633899 -66.425196
L 325.115811 -66.962639
L 323.597723 -65.404381
L 322.079634 -68.385652
L 320.561546 -67.315163
L 319.043458 -69.256181
L 317.52537 -68.10764
L 316.007282 -70.684886
L 314.489194 -71.128442
L 312.971106 -71.082632
L 311.453018 -71.697627
L 309.93493 -71.692244
L 308.416842 -72.86708
L 306.898754 -74.916213
L 305.380665 -75.17709
L 303.862577 -77.162938
L 302.344489 -76.999799
L 300.826401 -78.774613
L 299.308313 -80.884013
L 297.790225 -80.320623
L 296.272137 -82.727498
L 294.754049 -84.637817
L 293.235961 -85.246048
L 291.717873 -86.783607
L 290.199784 -88.882085
L 288.681696 -92.19106
L 287.163608 -90.964868
L 285.64552 -96.121246
L 284.127432 -101.637061
L 282.609344 -101.851725
L 281.091256 -104.404818
L 279.573168 -112.933597
L 278.05508 -116.475895
L 276.536992 -130.772654
L 275.018903 -137.305822
L 273.500815 -158.058448
L 271.982727 -183.569205
z
" style="stroke: #f8dcdc; stroke-opacity: 0.5"/>
    </defs>
    <g clip-path="url(#p26de5e5826)">
     <use xlink:href="#mf7ece64831" x="0" y="216" style="fill: #f8dcdc; fill-opacity: 0.5; stroke: #f8dcdc; stroke-opacity: 0.5"/>
    </g>
   </g>
   <g id="matplotlib.axis_3">
    <g id="xtick_4">
     <g id="line2d_11">
      <g>
       <use xlink:href="#ma2a763936f" x="268.946551" y="174.04" style="stroke: #000000; stroke-width: 0.8"/>
      </g>
     </g>
     <g id="text_14">
      <!-- 0 -->
      <g transform="translate(266.166082 188.213437) scale(0.1 -0.1)">
       <use xlink:href="#Helvetica-30"/>
      </g>
     </g>
    </g>
    <g id="xtick_5">
     <g id="line2d_12">
      <g>
       <use xlink:href="#ma2a763936f" x="329.670075" y="174.04" style="stroke: #000000; stroke-width: 0.8"/>
      </g>
     </g>
     <g id="text_15">
      <!-- 2000 -->
      <g transform="translate(318.5482 188.213437) scale(0.1 -0.1)">
       <use xlink:href="#Helvetica-32"/>
       <use xlink:href="#Helvetica-30" x="55.615234"/>
       <use xlink:href="#Helvetica-30" x="111.230469"/>
       <use xlink:href="#Helvetica-30" x="166.845703"/>
      </g>
     </g>
    </g>
    <g id="xtick_6">
     <g id="line2d_13">
      <g>
       <use xlink:href="#ma2a763936f" x="390.393599" y="174.04" style="stroke: #000000; stroke-width: 0.8"/>
      </g>
     </g>
     <g id="text_16">
      <!-- 4000 -->
      <g transform="translate(379.271724 188.213437) scale(0.1 -0.1)">
       <use xlink:href="#Helvetica-34"/>
       <use xlink:href="#Helvetica-30" x="55.615234"/>
       <use xlink:href="#Helvetica-30" x="111.230469"/>
       <use xlink:href="#Helvetica-30" x="166.845703"/>
      </g>
     </g>
    </g>
    <g id="text_17">
     <!-- Analysis Sample Size -->
     <g transform="translate(297.535 201.666562) scale(0.1 -0.1)">
      <use xlink:href="#Helvetica-41"/>
      <use xlink:href="#Helvetica-6e" x="66.699219"/>
      <use xlink:href="#Helvetica-61" x="122.314453"/>
      <use xlink:href="#Helvetica-6c" x="177.929688"/>
      <use xlink:href="#Helvetica-79" x="200.146484"/>
      <use xlink:href="#Helvetica-73" x="250.146484"/>
      <use xlink:href="#Helvetica-69" x="300.146484"/>
      <use xlink:href="#Helvetica-73" x="322.363281"/>
      <use xlink:href="#Helvetica-20" x="372.363281"/>
      <use xlink:href="#Helvetica-53" x="400.146484"/>
      <use xlink:href="#Helvetica-61" x="466.845703"/>
      <use xlink:href="#Helvetica-6d" x="522.460938"/>
      <use xlink:href="#Helvetica-70" x="605.761719"/>
      <use xlink:href="#Helvetica-6c" x="661.376953"/>
      <use xlink:href="#Helvetica-65" x="683.59375"/>
      <use xlink:href="#Helvetica-20" x="739.208984"/>
      <use xlink:href="#Helvetica-53" x="766.992188"/>
      <use xlink:href="#Helvetica-69" x="833.691406"/>
      <use xlink:href="#Helvetica-7a" x="855.908203"/>
      <use xlink:href="#Helvetica-65" x="905.908203"/>
     </g>
    </g>
   </g>
   <g id="matplotlib.axis_4">
    <g id="ytick_7">
     <g id="line2d_14">
      <g>
       <use xlink:href="#m6e51a74636" x="264.62" y="163.942043" style="stroke: #000000; stroke-width: 0.8"/>
      </g>
     </g>
     <g id="text_18">
      <!-- 0.02 -->
      <g transform="translate(238.159062 167.528762) scale(0.1 -0.1)">
       <use xlink:href="#Helvetica-30"/>
       <use xlink:href="#Helvetica-2e" x="55.615234"/>
       <use xlink:href="#Helvetica-30" x="83.398438"/>
       <use xlink:href="#Helvetica-32" x="139.013672"/>
      </g>
     </g>
    </g>
    <g id="ytick_8">
     <g id="line2d_15">
      <g>
       <use xlink:href="#m6e51a74636" x="264.62" y="137.528583" style="stroke: #000000; stroke-width: 0.8"/>
      </g>
     </g>
     <g id="text_19">
      <!-- 0.04 -->
      <g transform="translate(238.159062 141.115301) scale(0.1 -0.1)">
       <use xlink:href="#Helvetica-30"/>
       <use xlink:href="#Helvetica-2e" x="55.615234"/>
       <use xlink:href="#Helvetica-30" x="83.398438"/>
       <use xlink:href="#Helvetica-34" x="139.013672"/>
      </g>
     </g>
    </g>
    <g id="ytick_9">
     <g id="line2d_16">
      <g>
       <use xlink:href="#m6e51a74636" x="264.62" y="111.115122" style="stroke: #000000; stroke-width: 0.8"/>
      </g>
     </g>
     <g id="text_20">
      <!-- 0.06 -->
      <g transform="translate(238.159062 114.701841) scale(0.1 -0.1)">
       <use xlink:href="#Helvetica-30"/>
       <use xlink:href="#Helvetica-2e" x="55.615234"/>
       <use xlink:href="#Helvetica-30" x="83.398438"/>
       <use xlink:href="#Helvetica-36" x="139.013672"/>
      </g>
     </g>
    </g>
    <g id="ytick_10">
     <g id="line2d_17">
      <g>
       <use xlink:href="#m6e51a74636" x="264.62" y="84.701661" style="stroke: #000000; stroke-width: 0.8"/>
      </g>
     </g>
     <g id="text_21">
      <!-- 0.08 -->
      <g transform="translate(238.159062 88.28838) scale(0.1 -0.1)">
       <use xlink:href="#Helvetica-30"/>
       <use xlink:href="#Helvetica-2e" x="55.615234"/>
       <use xlink:href="#Helvetica-30" x="83.398438"/>
       <use xlink:href="#Helvetica-38" x="139.013672"/>
      </g>
     </g>
    </g>
    <g id="ytick_11">
     <g id="line2d_18">
      <g>
       <use xlink:href="#m6e51a74636" x="264.62" y="58.288201" style="stroke: #000000; stroke-width: 0.8"/>
      </g>
     </g>
     <g id="text_22">
      <!-- 0.10 -->
      <g transform="translate(238.159062 61.87492) scale(0.1 -0.1)">
       <use xlink:href="#Helvetica-30"/>
       <use xlink:href="#Helvetica-2e" x="55.615234"/>
       <use xlink:href="#Helvetica-31" x="83.398438"/>
       <use xlink:href="#Helvetica-30" x="139.013672"/>
      </g>
     </g>
    </g>
    <g id="ytick_12">
     <g id="line2d_19">
      <g>
       <use xlink:href="#m6e51a74636" x="264.62" y="31.87474" style="stroke: #000000; stroke-width: 0.8"/>
      </g>
     </g>
     <g id="text_23">
      <!-- 0.12 -->
      <g transform="translate(238.159062 35.461459) scale(0.1 -0.1)">
       <use xlink:href="#Helvetica-30"/>
       <use xlink:href="#Helvetica-2e" x="55.615234"/>
       <use xlink:href="#Helvetica-31" x="83.398438"/>
       <use xlink:href="#Helvetica-32" x="139.013672"/>
      </g>
     </g>
    </g>
    <g id="text_24">
     <!-- Hellinger Distance -->
     <g transform="translate(231.946562 140.435625) rotate(-90) scale(0.1 -0.1)">
      <defs>
       <path id="Helvetica-48" d="M 503 4591
L 1131 4591
L 1131 2694
L 3519 2694
L 3519 4591
L 4147 4591
L 4147 0
L 3519 0
L 3519 2147
L 1131 2147
L 1131 0
L 503 0
L 503 4591
z
" transform="scale(0.015625)"/>
       <path id="Helvetica-67" d="M 1594 3406
Q 1988 3406 2281 3213
Q 2441 3103 2606 2894
L 2606 3316
L 3125 3316
L 3125 272
Q 3125 -366 2938 -734
Q 2588 -1416 1616 -1416
Q 1075 -1416 706 -1173
Q 338 -931 294 -416
L 866 -416
Q 906 -641 1028 -763
Q 1219 -950 1628 -950
Q 2275 -950 2475 -494
Q 2594 -225 2584 466
Q 2416 209 2178 84
Q 1941 -41 1550 -41
Q 1006 -41 598 345
Q 191 731 191 1622
Q 191 2463 602 2934
Q 1013 3406 1594 3406
z
M 2606 1688
Q 2606 2309 2350 2609
Q 2094 2909 1697 2909
Q 1103 2909 884 2353
Q 769 2056 769 1575
Q 769 1009 998 714
Q 1228 419 1616 419
Q 2222 419 2469 966
Q 2606 1275 2606 1688
z
M 1659 3428
L 1659 3428
z
" transform="scale(0.015625)"/>
       <path id="Helvetica-72" d="M 428 3347
L 963 3347
L 963 2769
Q 1028 2938 1284 3180
Q 1541 3422 1875 3422
Q 1891 3422 1928 3419
Q 1966 3416 2056 3406
L 2056 2813
Q 2006 2822 1964 2825
Q 1922 2828 1872 2828
Q 1447 2828 1219 2554
Q 991 2281 991 1925
L 991 0
L 428 0
L 428 3347
z
" transform="scale(0.015625)"/>
      </defs>
      <use xlink:href="#Helvetica-48"/>
      <use xlink:href="#Helvetica-65" x="72.216797"/>
      <use xlink:href="#Helvetica-6c" x="127.832031"/>
      <use xlink:href="#Helvetica-6c" x="150.048828"/>
      <use xlink:href="#Helvetica-69" x="172.265625"/>
      <use xlink:href="#Helvetica-6e" x="194.482422"/>
      <use xlink:href="#Helvetica-67" x="250.097656"/>
      <use xlink:href="#Helvetica-65" x="305.712891"/>
      <use xlink:href="#Helvetica-72" x="361.328125"/>
      <use xlink:href="#Helvetica-20" x="394.628906"/>
      <use xlink:href="#Helvetica-44" x="422.412109"/>
      <use xlink:href="#Helvetica-69" x="494.628906"/>
      <use xlink:href="#Helvetica-73" x="516.845703"/>
      <use xlink:href="#Helvetica-74" x="566.845703"/>
      <use xlink:href="#Helvetica-61" x="594.628906"/>
      <use xlink:href="#Helvetica-6e" x="650.244141"/>
      <use xlink:href="#Helvetica-63" x="705.859375"/>
      <use xlink:href="#Helvetica-65" x="755.859375"/>
     </g>
    </g>
   </g>
   <g id="line2d_20">
    <path d="M 271.982727 38.0371
L 273.500815 63.49989
L 275.018903 82.841127
L 276.536992 89.812019
L 278.05508 102.989088
L 279.573168 106.48439
L 281.091256 114.293288
L 282.609344 116.523322
L 284.127432 117.101329
L 285.64552 122.712603
L 287.163608 127.132535
L 288.681696 126.114724
L 290.199784 129.814814
L 291.717873 131.342932
L 293.235961 133.107114
L 294.754049 133.533778
L 296.272137 135.309091
L 297.790225 137.914723
L 299.308313 137.13198
L 300.826401 139.366305
L 302.344489 140.9484
L 303.862577 140.958963
L 305.380665 142.880626
L 306.898754 143.375612
L 308.416842 145.297347
L 309.93493 146.397895
L 311.453018 146.509137
L 312.971106 147.066709
L 314.489194 146.838032
L 316.007282 147.315572
L 317.52537 149.842196
L 319.043458 148.738067
L 320.561546 150.642887
L 322.079634 149.725652
L 323.597723 152.468187
L 325.115811 151.126506
L 326.633899 151.3476
L 328.151987 152.205514
L 329.670075 151.862823
L 331.188163 154.180101
L 332.706251 154.330302
L 334.224339 154.879566
L 335.742427 154.910935
L 337.260515 155.523919
L 338.778604 153.965122
L 340.296692 156.829387
L 341.81478 156.830612
L 343.332868 155.248225
L 344.850956 157.072634
L 346.369044 157.354992
L 347.887132 157.096246
L 349.40522 159.016164
L 350.923308 158.377635
L 352.441396 159.149251
L 353.959485 157.439481
L 355.477573 160.09756
L 356.995661 159.42456
L 358.513749 159.716512
L 360.031837 160.34417
L 361.549925 159.148734
L 363.068013 159.649339
L 364.586101 159.973177
L 366.104189 161.128733
L 367.622277 160.550791
L 369.140366 160.673182
L 370.658454 162.690818
L 372.176542 161.410452
L 373.69463 162.514372
L 375.212718 161.651125
L 376.730806 162.168958
L 378.248894 162.180624
L 379.766982 162.853127
L 381.28507 161.572342
L 382.803158 162.64656
L 384.321246 162.170432
L 385.839335 163.016085
L 387.357423 163.479377
L 388.875511 164.121837
L 390.393599 163.599655
L 391.911687 164.340535
L 393.429775 163.312649
L 394.947863 163.381082
L 396.465951 163.998137
L 397.984039 164.225025
L 399.502127 164.065822
L 401.020216 164.12351
L 402.538304 164.949531
L 404.056392 164.837079
L 405.57448 164.354845
L 407.092568 164.897903
L 408.610656 164.691503
L 410.128744 164.539302
L 411.646832 165.331198
L 413.16492 164.084748
L 414.683008 165.924828
L 416.201097 165.872646
L 417.719185 164.649227
L 419.237273 166.349114
" clip-path="url(#p26de5e5826)" style="fill: none; stroke: #dd4040; stroke-width: 1.5; stroke-linecap: square"/>
   </g>
   <g id="patch_10">
    <path d="M 264.62 174.04
L 264.62 25.6875
" style="fill: none; stroke: #000000; stroke-width: 0.8; stroke-linejoin: miter; stroke-linecap: square"/>
   </g>
   <g id="patch_11">
    <path d="M 426.6 174.04
L 426.6 25.6875
" style="fill: none; stroke: #000000; stroke-width: 0.8; stroke-linejoin: miter; stroke-linecap: square"/>
   </g>
   <g id="patch_12">
    <path d="M 264.62 174.04
L 426.6 174.04
" style="fill: none; stroke: #000000; stroke-width: 0.8; stroke-linejoin: miter; stroke-linecap: square"/>
   </g>
   <g id="patch_13">
    <path d="M 264.62 25.6875
L 426.6 25.6875
" style="fill: none; stroke: #000000; stroke-width: 0.8; stroke-linejoin: miter; stroke-linecap: square"/>
   </g>
   <g id="text_25">
    <!-- Hellinger Distance -->
    <g transform="translate(296.92375 19.6875) scale(0.12 -0.12)">
     <use xlink:href="#Helvetica-48"/>
     <use xlink:href="#Helvetica-65" x="72.216797"/>
     <use xlink:href="#Helvetica-6c" x="127.832031"/>
     <use xlink:href="#Helvetica-6c" x="150.048828"/>
     <use xlink:href="#Helvetica-69" x="172.265625"/>
     <use xlink:href="#Helvetica-6e" x="194.482422"/>
     <use xlink:href="#Helvetica-67" x="250.097656"/>
     <use xlink:href="#Helvetica-65" x="305.712891"/>
     <use xlink:href="#Helvetica-72" x="361.328125"/>
     <use xlink:href="#Helvetica-20" x="394.628906"/>
     <use xlink:href="#Helvetica-44" x="422.412109"/>
     <use xlink:href="#Helvetica-69" x="494.628906"/>
     <use xlink:href="#Helvetica-73" x="516.845703"/>
     <use xlink:href="#Helvetica-74" x="566.845703"/>
     <use xlink:href="#Helvetica-61" x="594.628906"/>
     <use xlink:href="#Helvetica-6e" x="650.244141"/>
     <use xlink:href="#Helvetica-63" x="705.859375"/>
     <use xlink:href="#Helvetica-65" x="755.859375"/>
    </g>
   </g>
   <g id="legend_2">
    <g id="patch_14">
     <path d="M 354.807812 47.945312
L 419.6 47.945312
Q 421.6 47.945312 421.6 45.945312
L 421.6 32.6875
Q 421.6 30.6875 419.6 30.6875
L 354.807812 30.6875
Q 352.807812 30.6875 352.807812 32.6875
L 352.807812 45.945312
Q 352.807812 47.945312 354.807812 47.945312
z
" style="fill: #ffffff; opacity: 0.8; stroke: #cccccc; stroke-linejoin: miter"/>
    </g>
    <g id="patch_15">
     <path d="M 356.807812 41.860938
L 376.807812 41.860938
L 376.807812 34.860938
L 356.807812 34.860938
z
" style="fill: #f8dcdc; fill-opacity: 0.5; stroke: #f8dcdc; stroke-opacity: 0.5; stroke-linejoin: miter"/>
    </g>
    <g id="text_26">
     <!-- 95% CI -->
     <g transform="translate(384.807812 41.860938) scale(0.1 -0.1)">
      <use xlink:href="#Helvetica-39"/>
      <use xlink:href="#Helvetica-35" x="55.615234"/>
      <use xlink:href="#Helvetica-25" x="111.230469"/>
      <use xlink:href="#Helvetica-20" x="200.146484"/>
      <use xlink:href="#Helvetica-43" x="227.929688"/>
      <use xlink:href="#Helvetica-49" x="300.146484"/>
     </g>
    </g>
   </g>
  </g>
  <g id="axes_3">
   <g id="patch_16">
    <path d="M 477.92 174.04
L 639.9 174.04
L 639.9 25.6875
L 477.92 25.6875
z
" style="fill: #ffffff"/>
   </g>
   <g id="PolyCollection_3">
    <defs>
     <path id="m72fa506bc9" d="M 485.282727 -183.569205
L 485.282727 -162.784425
L 486.800815 -133.311103
L 488.318903 -119.14453
L 489.836992 -113.248911
L 491.35508 -100.076118
L 492.873168 -97.749106
L 494.391256 -90.151721
L 495.909344 -91.364565
L 497.427432 -88.254399
L 498.94552 -80.582134
L 500.463608 -76.800705
L 501.981696 -77.342915
L 503.499784 -74.599633
L 505.017873 -76.414927
L 506.535961 -76.067183
L 508.054049 -74.470772
L 509.572137 -72.358705
L 511.090225 -71.716159
L 512.608313 -71.104817
L 514.126401 -68.415348
L 515.644489 -66.889942
L 517.162577 -67.868037
L 518.680665 -67.059579
L 520.198754 -67.625649
L 521.716842 -64.233515
L 523.23493 -64.527724
L 524.753018 -64.836635
L 526.271106 -62.430105
L 527.789194 -63.239063
L 529.307282 -65.088264
L 530.82537 -62.381117
L 532.343458 -61.93403
L 533.861546 -61.243822
L 535.379634 -61.509795
L 536.897723 -59.276938
L 538.415811 -60.937066
L 539.933899 -59.479157
L 541.451987 -59.649593
L 542.970075 -60.120702
L 544.488163 -58.7324
L 546.006251 -58.109595
L 547.524339 -59.00416
L 549.042427 -60.059924
L 550.560515 -57.797368
L 552.078604 -58.499292
L 553.596692 -56.440672
L 555.11478 -56.168192
L 556.632868 -57.149653
L 558.150956 -56.989941
L 559.669044 -55.77253
L 561.187132 -57.143271
L 562.70522 -54.449106
L 564.223308 -55.717941
L 565.741396 -55.979276
L 567.259485 -57.146126
L 568.777573 -54.162233
L 570.295661 -53.852846
L 571.813749 -55.73182
L 573.331837 -53.502173
L 574.849925 -56.151666
L 576.368013 -53.827263
L 577.886101 -53.391783
L 579.404189 -53.596684
L 580.922277 -52.75666
L 582.440366 -54.104566
L 583.958454 -51.6924
L 585.476542 -53.679072
L 586.99463 -51.569264
L 588.512718 -54.112128
L 590.030806 -51.989791
L 591.548894 -53.478455
L 593.066982 -52.919353
L 594.58507 -53.209412
L 596.103158 -51.878424
L 597.621246 -52.761727
L 599.139335 -51.985415
L 600.657423 -51.166367
L 602.175511 -50.842129
L 603.693599 -50.724513
L 605.211687 -50.988577
L 606.729775 -51.344156
L 608.247863 -52.188772
L 609.765951 -50.796754
L 611.284039 -50.533744
L 612.802127 -50.020999
L 614.320216 -51.782598
L 615.838304 -50.904032
L 617.356392 -49.808471
L 618.87448 -50.114083
L 620.392568 -50.349348
L 621.910656 -49.653634
L 623.428744 -49.82854
L 624.946832 -48.703295
L 626.46492 -50.157014
L 627.983008 -49.133051
L 629.501097 -50.238139
L 631.019185 -50.414019
L 632.537273 -48.735787
L 632.537273 -51.968873
L 632.537273 -51.968873
L 631.019185 -53.904836
L 629.501097 -53.985102
L 627.983008 -52.262114
L 626.46492 -53.607152
L 624.946832 -51.524416
L 623.428744 -53.454311
L 621.910656 -52.97925
L 620.392568 -54.271814
L 618.87448 -53.771851
L 617.356392 -53.386366
L 615.838304 -54.578698
L 614.320216 -56.062783
L 612.802127 -53.63249
L 611.284039 -54.517158
L 609.765951 -54.14019
L 608.247863 -55.686783
L 606.729775 -55.210842
L 605.211687 -54.806727
L 603.693599 -54.567045
L 602.175511 -54.434328
L 600.657423 -54.811486
L 599.139335 -55.711988
L 597.621246 -56.937811
L 596.103158 -56.235638
L 594.58507 -56.884505
L 593.066982 -56.863099
L 591.548894 -57.545585
L 590.030806 -55.671624
L 588.512718 -58.551009
L 586.99463 -55.438496
L 585.476542 -57.883012
L 583.958454 -55.548411
L 582.440366 -58.532977
L 580.922277 -56.802154
L 579.404189 -57.533909
L 577.886101 -57.674873
L 576.368013 -57.924929
L 574.849925 -60.130813
L 573.331837 -57.746187
L 571.813749 -60.410077
L 570.295661 -58.33626
L 568.777573 -58.183637
L 567.259485 -61.794064
L 565.741396 -60.089964
L 564.223308 -59.928527
L 562.70522 -58.914196
L 561.187132 -61.180513
L 559.669044 -60.319502
L 558.150956 -61.648326
L 556.632868 -61.917711
L 555.11478 -60.536972
L 553.596692 -60.92037
L 552.078604 -63.042261
L 550.560515 -62.822272
L 549.042427 -65.373635
L 547.524339 -64.274913
L 546.006251 -62.917456
L 544.488163 -63.630919
L 542.970075 -65.147082
L 541.451987 -64.809251
L 539.933899 -64.820214
L 538.415811 -66.516794
L 536.897723 -64.714978
L 535.379634 -66.566371
L 533.861546 -66.817101
L 532.343458 -67.766466
L 530.82537 -66.788619
L 529.307282 -70.531843
L 527.789194 -68.637062
L 526.271106 -68.280936
L 524.753018 -70.313048
L 523.23493 -70.208896
L 521.716842 -70.013655
L 520.198754 -73.746658
L 518.680665 -73.242953
L 517.162577 -73.675732
L 515.644489 -72.986633
L 514.126401 -74.468182
L 512.608313 -77.296606
L 511.090225 -78.403791
L 509.572137 -78.628606
L 508.054049 -81.399087
L 506.535961 -83.096449
L 505.017873 -83.674755
L 503.499784 -81.478709
L 501.981696 -85.354149
L 500.463608 -84.685232
L 498.94552 -88.482704
L 497.427432 -97.814873
L 495.909344 -100.345697
L 494.391256 -99.850874
L 492.873168 -107.481238
L 491.35508 -110.999111
L 489.836992 -125.686697
L 488.318903 -132.972267
L 486.800815 -150.309503
L 485.282727 -183.569205
z
" style="stroke: #f8dcdc; stroke-opacity: 0.5"/>
    </defs>
    <g clip-path="url(#p218971d82d)">
     <use xlink:href="#m72fa506bc9" x="0" y="216" style="fill: #f8dcdc; fill-opacity: 0.5; stroke: #f8dcdc; stroke-opacity: 0.5"/>
    </g>
   </g>
   <g id="matplotlib.axis_5">
    <g id="xtick_7">
     <g id="line2d_21">
      <g>
       <use xlink:href="#ma2a763936f" x="482.246551" y="174.04" style="stroke: #000000; stroke-width: 0.8"/>
      </g>
     </g>
     <g id="text_27">
      <!-- 0 -->
      <g transform="translate(479.466082 188.213437) scale(0.1 -0.1)">
       <use xlink:href="#Helvetica-30"/>
      </g>
     </g>
    </g>
    <g id="xtick_8">
     <g id="line2d_22">
      <g>
       <use xlink:href="#ma2a763936f" x="542.970075" y="174.04" style="stroke: #000000; stroke-width: 0.8"/>
      </g>
     </g>
     <g id="text_28">
      <!-- 2000 -->
      <g transform="translate(531.8482 188.213437) scale(0.1 -0.1)">
       <use xlink:href="#Helvetica-32"/>
       <use xlink:href="#Helvetica-30" x="55.615234"/>
       <use xlink:href="#Helvetica-30" x="111.230469"/>
       <use xlink:href="#Helvetica-30" x="166.845703"/>
      </g>
     </g>
    </g>
    <g id="xtick_9">
     <g id="line2d_23">
      <g>
       <use xlink:href="#ma2a763936f" x="603.693599" y="174.04" style="stroke: #000000; stroke-width: 0.8"/>
      </g>
     </g>
     <g id="text_29">
      <!-- 4000 -->
      <g transform="translate(592.571724 188.213437) scale(0.1 -0.1)">
       <use xlink:href="#Helvetica-34"/>
       <use xlink:href="#Helvetica-30" x="55.615234"/>
       <use xlink:href="#Helvetica-30" x="111.230469"/>
       <use xlink:href="#Helvetica-30" x="166.845703"/>
      </g>
     </g>
    </g>
    <g id="text_30">
     <!-- Analysis Sample Size -->
     <g transform="translate(510.835 201.666562) scale(0.1 -0.1)">
      <use xlink:href="#Helvetica-41"/>
      <use xlink:href="#Helvetica-6e" x="66.699219"/>
      <use xlink:href="#Helvetica-61" x="122.314453"/>
      <use xlink:href="#Helvetica-6c" x="177.929688"/>
      <use xlink:href="#Helvetica-79" x="200.146484"/>
      <use xlink:href="#Helvetica-73" x="250.146484"/>
      <use xlink:href="#Helvetica-69" x="300.146484"/>
      <use xlink:href="#Helvetica-73" x="322.363281"/>
      <use xlink:href="#Helvetica-20" x="372.363281"/>
      <use xlink:href="#Helvetica-53" x="400.146484"/>
      <use xlink:href="#Helvetica-61" x="466.845703"/>
      <use xlink:href="#Helvetica-6d" x="522.460938"/>
      <use xlink:href="#Helvetica-70" x="605.761719"/>
      <use xlink:href="#Helvetica-6c" x="661.376953"/>
      <use xlink:href="#Helvetica-65" x="683.59375"/>
      <use xlink:href="#Helvetica-20" x="739.208984"/>
      <use xlink:href="#Helvetica-53" x="766.992188"/>
      <use xlink:href="#Helvetica-69" x="833.691406"/>
      <use xlink:href="#Helvetica-7a" x="855.908203"/>
      <use xlink:href="#Helvetica-65" x="905.908203"/>
     </g>
    </g>
   </g>
   <g id="matplotlib.axis_6">
    <g id="ytick_13">
     <g id="line2d_24">
      <g>
       <use xlink:href="#m6e51a74636" x="477.92" y="164.879635" style="stroke: #000000; stroke-width: 0.8"/>
      </g>
     </g>
     <g id="text_31">
      <!-- 0.01 -->
      <g transform="translate(451.459063 168.466353) scale(0.1 -0.1)">
       <use xlink:href="#Helvetica-30"/>
       <use xlink:href="#Helvetica-2e" x="55.615234"/>
       <use xlink:href="#Helvetica-30" x="83.398438"/>
       <use xlink:href="#Helvetica-31" x="139.013672"/>
      </g>
     </g>
    </g>
    <g id="ytick_14">
     <g id="line2d_25">
      <g>
       <use xlink:href="#m6e51a74636" x="477.92" y="140.833851" style="stroke: #000000; stroke-width: 0.8"/>
      </g>
     </g>
     <g id="text_32">
      <!-- 0.02 -->
      <g transform="translate(451.459063 144.420569) scale(0.1 -0.1)">
       <use xlink:href="#Helvetica-30"/>
       <use xlink:href="#Helvetica-2e" x="55.615234"/>
       <use xlink:href="#Helvetica-30" x="83.398438"/>
       <use xlink:href="#Helvetica-32" x="139.013672"/>
      </g>
     </g>
    </g>
    <g id="ytick_15">
     <g id="line2d_26">
      <g>
       <use xlink:href="#m6e51a74636" x="477.92" y="116.788067" style="stroke: #000000; stroke-width: 0.8"/>
      </g>
     </g>
     <g id="text_33">
      <!-- 0.03 -->
      <g transform="translate(451.459063 120.374785) scale(0.1 -0.1)">
       <defs>
        <path id="Helvetica-33" d="M 1663 -122
Q 869 -122 511 314
Q 153 750 153 1375
L 741 1375
Q 778 941 903 744
Q 1122 391 1694 391
Q 2138 391 2406 628
Q 2675 866 2675 1241
Q 2675 1703 2392 1887
Q 2109 2072 1606 2072
Q 1550 2072 1492 2070
Q 1434 2069 1375 2066
L 1375 2563
Q 1463 2553 1522 2550
Q 1581 2547 1650 2547
Q 1966 2547 2169 2647
Q 2525 2822 2525 3272
Q 2525 3606 2287 3787
Q 2050 3969 1734 3969
Q 1172 3969 956 3594
Q 838 3388 822 3006
L 266 3006
Q 266 3506 466 3856
Q 809 4481 1675 4481
Q 2359 4481 2734 4176
Q 3109 3872 3109 3294
Q 3109 2881 2888 2625
Q 2750 2466 2531 2375
Q 2884 2278 3082 2001
Q 3281 1725 3281 1325
Q 3281 684 2859 281
Q 2438 -122 1663 -122
z
" transform="scale(0.015625)"/>
       </defs>
       <use xlink:href="#Helvetica-30"/>
       <use xlink:href="#Helvetica-2e" x="55.615234"/>
       <use xlink:href="#Helvetica-30" x="83.398438"/>
       <use xlink:href="#Helvetica-33" x="139.013672"/>
      </g>
     </g>
    </g>
    <g id="ytick_16">
     <g id="line2d_27">
      <g>
       <use xlink:href="#m6e51a74636" x="477.92" y="92.742283" style="stroke: #000000; stroke-width: 0.8"/>
      </g>
     </g>
     <g id="text_34">
      <!-- 0.04 -->
      <g transform="translate(451.459063 96.329001) scale(0.1 -0.1)">
       <use xlink:href="#Helvetica-30"/>
       <use xlink:href="#Helvetica-2e" x="55.615234"/>
       <use xlink:href="#Helvetica-30" x="83.398438"/>
       <use xlink:href="#Helvetica-34" x="139.013672"/>
      </g>
     </g>
    </g>
    <g id="ytick_17">
     <g id="line2d_28">
      <g>
       <use xlink:href="#m6e51a74636" x="477.92" y="68.696499" style="stroke: #000000; stroke-width: 0.8"/>
      </g>
     </g>
     <g id="text_35">
      <!-- 0.05 -->
      <g transform="translate(451.459063 72.283217) scale(0.1 -0.1)">
       <use xlink:href="#Helvetica-30"/>
       <use xlink:href="#Helvetica-2e" x="55.615234"/>
       <use xlink:href="#Helvetica-30" x="83.398438"/>
       <use xlink:href="#Helvetica-35" x="139.013672"/>
      </g>
     </g>
    </g>
    <g id="ytick_18">
     <g id="line2d_29">
      <g>
       <use xlink:href="#m6e51a74636" x="477.92" y="44.650715" style="stroke: #000000; stroke-width: 0.8"/>
      </g>
     </g>
     <g id="text_36">
      <!-- 0.06 -->
      <g transform="translate(451.459063 48.237433) scale(0.1 -0.1)">
       <use xlink:href="#Helvetica-30"/>
       <use xlink:href="#Helvetica-2e" x="55.615234"/>
       <use xlink:href="#Helvetica-30" x="83.398438"/>
       <use xlink:href="#Helvetica-36" x="139.013672"/>
      </g>
     </g>
    </g>
    <g id="text_37">
     <!-- L-Infinity Distance -->
     <g transform="translate(445.315313 139.600469) rotate(-90) scale(0.1 -0.1)">
      <defs>
       <path id="Helvetica-4c" d="M 488 4591
L 1109 4591
L 1109 547
L 3434 547
L 3434 0
L 488 0
L 488 4591
z
" transform="scale(0.015625)"/>
       <path id="Helvetica-66" d="M 553 3856
Q 566 4206 675 4369
Q 872 4656 1434 4656
Q 1488 4656 1544 4653
Q 1600 4650 1672 4644
L 1672 4131
Q 1584 4138 1545 4139
Q 1506 4141 1472 4141
Q 1216 4141 1166 4008
Q 1116 3875 1116 3331
L 1672 3331
L 1672 2888
L 1109 2888
L 1109 0
L 553 0
L 553 2888
L 88 2888
L 88 3331
L 553 3331
L 553 3856
z
" transform="scale(0.015625)"/>
      </defs>
      <use xlink:href="#Helvetica-4c"/>
      <use xlink:href="#Helvetica-2d" x="55.615234"/>
      <use xlink:href="#Helvetica-49" x="88.916016"/>
      <use xlink:href="#Helvetica-6e" x="116.699219"/>
      <use xlink:href="#Helvetica-66" x="172.314453"/>
      <use xlink:href="#Helvetica-69" x="200.097656"/>
      <use xlink:href="#Helvetica-6e" x="222.314453"/>
      <use xlink:href="#Helvetica-69" x="277.929688"/>
      <use xlink:href="#Helvetica-74" x="300.146484"/>
      <use xlink:href="#Helvetica-79" x="327.929688"/>
      <use xlink:href="#Helvetica-20" x="377.929688"/>
      <use xlink:href="#Helvetica-44" x="405.712891"/>
      <use xlink:href="#Helvetica-69" x="477.929688"/>
      <use xlink:href="#Helvetica-73" x="500.146484"/>
      <use xlink:href="#Helvetica-74" x="550.146484"/>
      <use xlink:href="#Helvetica-61" x="577.929688"/>
      <use xlink:href="#Helvetica-6e" x="633.544922"/>
      <use xlink:href="#Helvetica-63" x="689.160156"/>
      <use xlink:href="#Helvetica-65" x="739.160156"/>
     </g>
    </g>
   </g>
   <g id="line2d_30">
    <path d="M 485.282727 43.554227
L 486.800815 74.550846
L 488.318903 90.568544
L 489.836992 96.938272
L 491.35508 110.714102
L 492.873168 113.665893
L 494.391256 121.315888
L 495.909344 120.437949
L 497.427432 123.201077
L 498.94552 131.66257
L 500.463608 135.449198
L 501.981696 134.929686
L 503.499784 138.180914
L 505.017873 136.273167
L 506.535961 136.510419
L 508.054049 138.342
L 509.572137 140.563736
L 511.090225 141.203017
L 512.608313 141.976025
L 514.126401 144.654382
L 515.644489 146.256393
L 517.162577 145.456391
L 518.680665 146.0069
L 520.198754 145.611748
L 521.716842 149.02107
L 523.23493 148.765664
L 524.753018 148.549799
L 526.271106 150.865752
L 527.789194 150.254187
L 529.307282 148.286182
L 530.82537 151.492745
L 532.343458 151.41538
L 533.861546 152.081478
L 535.379634 152.008613
L 536.897723 154.184871
L 538.415811 152.380246
L 539.933899 153.982085
L 541.451987 154.005453
L 542.970075 153.441055
L 544.488163 154.963212
L 546.006251 155.544031
L 547.524339 154.501586
L 549.042427 153.620743
L 550.560515 155.858725
L 552.078604 155.250134
L 553.596692 157.342918
L 555.11478 157.73443
L 556.632868 156.604008
L 558.150956 156.814679
L 559.669044 158.081373
L 561.187132 156.92122
L 562.70522 159.441975
L 564.223308 158.308545
L 565.741396 158.018279
L 567.259485 156.603419
L 568.777573 159.878407
L 570.295661 159.932753
L 571.813749 158.08238
L 573.331837 160.480859
L 574.849925 157.95366
L 576.368013 160.252372
L 577.886101 160.583607
L 579.404189 160.490978
L 580.922277 161.270917
L 582.440366 159.783604
L 583.958454 162.494831
L 585.476542 160.316876
L 586.99463 162.598944
L 588.512718 159.790516
L 590.030806 162.3193
L 591.548894 160.565554
L 593.066982 161.188673
L 594.58507 161.098338
L 596.103158 162.131201
L 597.621246 161.160385
L 599.139335 162.2588
L 600.657423 163.093279
L 602.175511 163.454328
L 603.693599 163.405628
L 605.211687 163.26447
L 606.729775 162.884128
L 608.247863 162.165764
L 609.765951 163.589865
L 611.284039 163.609593
L 612.802127 164.328203
L 614.320216 162.180481
L 615.838304 163.298078
L 617.356392 164.523244
L 618.87448 164.157994
L 620.392568 163.739177
L 621.910656 164.767978
L 623.428744 164.418731
L 624.946832 165.933965
L 626.46492 164.213693
L 627.983008 165.328088
L 629.501097 163.98181
L 631.019185 163.874128
L 632.537273 165.732993
" clip-path="url(#p218971d82d)" style="fill: none; stroke: #dd4040; stroke-width: 1.5; stroke-linecap: square"/>
   </g>
   <g id="patch_17">
    <path d="M 477.92 174.04
L 477.92 25.6875
" style="fill: none; stroke: #000000; stroke-width: 0.8; stroke-linejoin: miter; stroke-linecap: square"/>
   </g>
   <g id="patch_18">
    <path d="M 639.9 174.04
L 639.9 25.6875
" style="fill: none; stroke: #000000; stroke-width: 0.8; stroke-linejoin: miter; stroke-linecap: square"/>
   </g>
   <g id="patch_19">
    <path d="M 477.92 174.04
L 639.9 174.04
" style="fill: none; stroke: #000000; stroke-width: 0.8; stroke-linejoin: miter; stroke-linecap: square"/>
   </g>
   <g id="patch_20">
    <path d="M 477.92 25.6875
L 639.9 25.6875
" style="fill: none; stroke: #000000; stroke-width: 0.8; stroke-linejoin: miter; stroke-linecap: square"/>
   </g>
   <g id="text_38">
    <!-- L-Infinity Distance -->
    <g transform="translate(511.225937 19.6875) scale(0.12 -0.12)">
     <use xlink:href="#Helvetica-4c"/>
     <use xlink:href="#Helvetica-2d" x="55.615234"/>
     <use xlink:href="#Helvetica-49" x="88.916016"/>
     <use xlink:href="#Helvetica-6e" x="116.699219"/>
     <use xlink:href="#Helvetica-66" x="172.314453"/>
     <use xlink:href="#Helvetica-69" x="200.097656"/>
     <use xlink:href="#Helvetica-6e" x="222.314453"/>
     <use xlink:href="#Helvetica-69" x="277.929688"/>
     <use xlink:href="#Helvetica-74" x="300.146484"/>
     <use xlink:href="#Helvetica-79" x="327.929688"/>
     <use xlink:href="#Helvetica-20" x="377.929688"/>
     <use xlink:href="#Helvetica-44" x="405.712891"/>
     <use xlink:href="#Helvetica-69" x="477.929688"/>
     <use xlink:href="#Helvetica-73" x="500.146484"/>
     <use xlink:href="#Helvetica-74" x="550.146484"/>
     <use xlink:href="#Helvetica-61" x="577.929688"/>
     <use xlink:href="#Helvetica-6e" x="633.544922"/>
     <use xlink:href="#Helvetica-63" x="689.160156"/>
     <use xlink:href="#Helvetica-65" x="739.160156"/>
    </g>
   </g>
   <g id="legend_3">
    <g id="patch_21">
     <path d="M 568.107812 47.945312
L 632.9 47.945312
Q 634.9 47.945312 634.9 45.945312
L 634.9 32.6875
Q 634.9 30.6875 632.9 30.6875
L 568.107812 30.6875
Q 566.107812 30.6875 566.107812 32.6875
L 566.107812 45.945312
Q 566.107812 47.945312 568.107812 47.945312
z
" style="fill: #ffffff; opacity: 0.8; stroke: #cccccc; stroke-linejoin: miter"/>
    </g>
    <g id="patch_22">
     <path d="M 570.107812 41.860938
L 590.107812 41.860938
L 590.107812 34.860938
L 570.107812 34.860938
z
" style="fill: #f8dcdc; fill-opacity: 0.5; stroke: #f8dcdc; stroke-opacity: 0.5; stroke-linejoin: miter"/>
    </g>
    <g id="text_39">
     <!-- 95% CI -->
     <g transform="translate(598.107812 41.860938) scale(0.1 -0.1)">
      <use xlink:href="#Helvetica-39"/>
      <use xlink:href="#Helvetica-35" x="55.615234"/>
      <use xlink:href="#Helvetica-25" x="111.230469"/>
      <use xlink:href="#Helvetica-20" x="200.146484"/>
      <use xlink:href="#Helvetica-43" x="227.929688"/>
      <use xlink:href="#Helvetica-49" x="300.146484"/>
     </g>
    </g>
   </g>
  </g>
  <g id="axes_4">
   <g id="patch_23">
    <path d="M 691.22 174.04
L 853.2 174.04
L 853.2 25.6875
L 691.22 25.6875
z
" style="fill: #ffffff"/>
   </g>
   <g id="PolyCollection_4">
    <defs>
     <path id="m60d7ebe537" d="M 698.582727 -104.262353
L 698.582727 -48.703295
L 700.100815 -66.721675
L 701.618903 -78.064759
L 703.136992 -86.088044
L 704.65508 -58.22168
L 706.173168 -87.114165
L 707.691256 -61.211907
L 709.209344 -74.91991
L 710.727432 -88.18185
L 712.24552 -71.731124
L 713.763608 -58.144878
L 715.281696 -78.817244
L 716.799784 -75.602979
L 718.317873 -71.256059
L 719.835961 -78.935288
L 721.354049 -100.528548
L 722.872137 -95.392677
L 724.390225 -82.897134
L 725.908313 -98.205874
L 727.426401 -87.851929
L 728.944489 -77.719179
L 730.462577 -81.972182
L 731.980665 -84.43399
L 733.498754 -82.056954
L 735.016842 -60.067836
L 736.53493 -74.815211
L 738.053018 -87.070079
L 739.571106 -76.765975
L 741.089194 -81.359103
L 742.607282 -99.783045
L 744.12537 -72.966408
L 745.643458 -92.92677
L 747.161546 -76.532952
L 748.679634 -95.76086
L 750.197723 -68.705987
L 751.715811 -95.051209
L 753.233899 -98.092457
L 754.751987 -81.069124
L 756.270075 -91.789565
L 757.788163 -66.674335
L 759.306251 -73.443365
L 760.824339 -73.642438
L 762.342427 -76.900777
L 763.860515 -70.143387
L 765.378604 -109.889749
L 766.896692 -72.993981
L 768.41478 -74.776803
L 769.932868 -98.457922
L 771.450956 -89.507508
L 772.969044 -81.613372
L 774.487132 -81.035126
L 776.00522 -63.37459
L 777.523308 -77.165974
L 779.041396 -75.035795
L 780.559485 -121.701693
L 782.077573 -66.856504
L 783.595661 -85.112481
L 785.113749 -74.825181
L 786.631837 -76.149437
L 788.149925 -103.735682
L 789.668013 -83.024921
L 791.186101 -95.428727
L 792.704189 -73.709426
L 794.222277 -78.746888
L 795.740366 -90.727968
L 797.258454 -51.721487
L 798.776542 -83.876269
L 800.29463 -57.730389
L 801.812718 -89.151611
L 803.330806 -66.400039
L 804.848894 -85.600286
L 806.366982 -65.639287
L 807.88507 -96.404479
L 809.403158 -75.391884
L 810.921246 -93.136526
L 812.439335 -76.279308
L 813.957423 -66.772474
L 815.475511 -63.828508
L 816.993599 -75.453638
L 818.511687 -62.383291
L 820.029775 -81.470387
L 821.547863 -75.120877
L 823.065951 -86.399567
L 824.584039 -76.298346
L 826.102127 -76.73358
L 827.620216 -88.117428
L 829.138304 -61.399426
L 830.656392 -61.658636
L 832.17448 -87.211214
L 833.692568 -74.640586
L 835.210656 -84.40577
L 836.728744 -82.152128
L 838.246832 -64.392626
L 839.76492 -100.100851
L 841.283008 -61.731936
L 842.801097 -67.930893
L 844.319185 -95.654831
L 845.837273 -61.53509
L 845.837273 -119.395786
L 845.837273 -119.395786
L 844.319185 -154.971259
L 842.801097 -128.087302
L 841.283008 -119.00788
L 839.76492 -163.831236
L 838.246832 -120.666665
L 836.728744 -140.640465
L 835.210656 -138.420352
L 833.692568 -127.105733
L 832.17448 -141.703799
L 830.656392 -127.286849
L 829.138304 -118.770213
L 827.620216 -154.581423
L 826.102127 -134.914919
L 824.584039 -143.22951
L 823.065951 -149.266599
L 821.547863 -132.759597
L 820.029775 -150.320103
L 818.511687 -124.72585
L 816.993599 -136.776769
L 815.475511 -129.729474
L 813.957423 -127.899212
L 812.439335 -141.241126
L 810.921246 -151.068996
L 809.403158 -130.936339
L 807.88507 -153.308126
L 806.366982 -122.019055
L 804.848894 -150.403172
L 803.330806 -125.527703
L 801.812718 -153.445104
L 800.29463 -109.343777
L 798.776542 -145.429088
L 797.258454 -106.568444
L 795.740366 -154.653279
L 794.222277 -135.928226
L 792.704189 -125.039747
L 791.186101 -160.679792
L 789.668013 -135.480043
L 788.149925 -170.947912
L 786.631837 -135.991088
L 785.113749 -133.042449
L 783.595661 -154.876854
L 782.077573 -123.107643
L 780.559485 -183.569205
L 779.041396 -133.254078
L 777.523308 -143.551052
L 776.00522 -122.834331
L 774.487132 -137.266741
L 772.969044 -146.709471
L 771.450956 -144.771607
L 769.932868 -168.780523
L 768.41478 -135.436392
L 766.896692 -138.171404
L 765.378604 -165.984161
L 763.860515 -131.291198
L 762.342427 -132.423356
L 760.824339 -131.326534
L 759.306251 -137.431897
L 757.788163 -125.644241
L 756.270075 -153.247581
L 754.751987 -137.090369
L 753.233899 -157.475671
L 751.715811 -164.069833
L 750.197723 -130.395017
L 748.679634 -170.497773
L 747.161546 -138.528176
L 745.643458 -159.137281
L 744.12537 -132.776
L 742.607282 -166.944807
L 741.089194 -145.631368
L 739.571106 -144.368597
L 738.053018 -153.805283
L 736.53493 -132.981106
L 735.016842 -120.022369
L 733.498754 -151.5349
L 731.980665 -147.316838
L 730.462577 -142.665892
L 728.944489 -135.16554
L 727.426401 -149.798546
L 725.908313 -155.343323
L 724.390225 -143.596876
L 722.872137 -153.190403
L 721.354049 -166.602192
L 719.835961 -141.282656
L 718.317873 -122.052404
L 716.799784 -144.296894
L 715.281696 -140.493821
L 713.763608 -115.361197
L 712.24552 -142.90187
L 710.727432 -156.084048
L 709.209344 -128.415131
L 707.691256 -122.08758
L 706.173168 -163.037403
L 704.65508 -120.666301
L 703.136992 -170.184301
L 701.618903 -137.328037
L 700.100815 -167.07325
L 698.582727 -104.262353
z
" style="stroke: #f8dcdc; stroke-opacity: 0.5"/>
    </defs>
    <g clip-path="url(#p8e765e0560)">
     <use xlink:href="#m60d7ebe537" x="0" y="216" style="fill: #f8dcdc; fill-opacity: 0.5; stroke: #f8dcdc; stroke-opacity: 0.5"/>
    </g>
   </g>
   <g id="matplotlib.axis_7">
    <g id="xtick_10">
     <g id="line2d_31">
      <g>
       <use xlink:href="#ma2a763936f" x="695.546551" y="174.04" style="stroke: #000000; stroke-width: 0.8"/>
      </g>
     </g>
     <g id="text_40">
      <!-- 0 -->
      <g transform="translate(692.766082 188.213437) scale(0.1 -0.1)">
       <use xlink:href="#Helvetica-30"/>
      </g>
     </g>
    </g>
    <g id="xtick_11">
     <g id="line2d_32">
      <g>
       <use xlink:href="#ma2a763936f" x="756.270075" y="174.04" style="stroke: #000000; stroke-width: 0.8"/>
      </g>
     </g>
     <g id="text_41">
      <!-- 2000 -->
      <g transform="translate(745.1482 188.213437) scale(0.1 -0.1)">
       <use xlink:href="#Helvetica-32"/>
       <use xlink:href="#Helvetica-30" x="55.615234"/>
       <use xlink:href="#Helvetica-30" x="111.230469"/>
       <use xlink:href="#Helvetica-30" x="166.845703"/>
      </g>
     </g>
    </g>
    <g id="xtick_12">
     <g id="line2d_33">
      <g>
       <use xlink:href="#ma2a763936f" x="816.993599" y="174.04" style="stroke: #000000; stroke-width: 0.8"/>
      </g>
     </g>
     <g id="text_42">
      <!-- 4000 -->
      <g transform="translate(805.871724 188.213437) scale(0.1 -0.1)">
       <use xlink:href="#Helvetica-34"/>
       <use xlink:href="#Helvetica-30" x="55.615234"/>
       <use xlink:href="#Helvetica-30" x="111.230469"/>
       <use xlink:href="#Helvetica-30" x="166.845703"/>
      </g>
     </g>
    </g>
    <g id="text_43">
     <!-- Analysis Sample Size -->
     <g transform="translate(724.135 201.666562) scale(0.1 -0.1)">
      <use xlink:href="#Helvetica-41"/>
      <use xlink:href="#Helvetica-6e" x="66.699219"/>
      <use xlink:href="#Helvetica-61" x="122.314453"/>
      <use xlink:href="#Helvetica-6c" x="177.929688"/>
      <use xlink:href="#Helvetica-79" x="200.146484"/>
      <use xlink:href="#Helvetica-73" x="250.146484"/>
      <use xlink:href="#Helvetica-69" x="300.146484"/>
      <use xlink:href="#Helvetica-73" x="322.363281"/>
      <use xlink:href="#Helvetica-20" x="372.363281"/>
      <use xlink:href="#Helvetica-53" x="400.146484"/>
      <use xlink:href="#Helvetica-61" x="466.845703"/>
      <use xlink:href="#Helvetica-6d" x="522.460938"/>
      <use xlink:href="#Helvetica-70" x="605.761719"/>
      <use xlink:href="#Helvetica-6c" x="661.376953"/>
      <use xlink:href="#Helvetica-65" x="683.59375"/>
      <use xlink:href="#Helvetica-20" x="739.208984"/>
      <use xlink:href="#Helvetica-53" x="766.992188"/>
      <use xlink:href="#Helvetica-69" x="833.691406"/>
      <use xlink:href="#Helvetica-7a" x="855.908203"/>
      <use xlink:href="#Helvetica-65" x="905.908203"/>
     </g>
    </g>
   </g>
   <g id="matplotlib.axis_8">
    <g id="ytick_19">
     <g id="line2d_34">
      <g>
       <use xlink:href="#m6e51a74636" x="691.22" y="161.860433" style="stroke: #000000; stroke-width: 0.8"/>
      </g>
     </g>
     <g id="text_44">
      <!-- 8 -->
      <g transform="translate(678.659062 165.447152) scale(0.1 -0.1)">
       <use xlink:href="#Helvetica-38"/>
      </g>
     </g>
    </g>
    <g id="ytick_20">
     <g id="line2d_35">
      <g>
       <use xlink:href="#m6e51a74636" x="691.22" y="123.334798" style="stroke: #000000; stroke-width: 0.8"/>
      </g>
     </g>
     <g id="text_45">
      <!-- 9 -->
      <g transform="translate(678.659062 126.921517) scale(0.1 -0.1)">
       <use xlink:href="#Helvetica-39"/>
      </g>
     </g>
    </g>
    <g id="ytick_21">
     <g id="line2d_36">
      <g>
       <use xlink:href="#m6e51a74636" x="691.22" y="84.809163" style="stroke: #000000; stroke-width: 0.8"/>
      </g>
     </g>
     <g id="text_46">
      <!-- 10 -->
      <g transform="translate(673.098125 88.395882) scale(0.1 -0.1)">
       <use xlink:href="#Helvetica-31"/>
       <use xlink:href="#Helvetica-30" x="55.615234"/>
      </g>
     </g>
    </g>
    <g id="ytick_22">
     <g id="line2d_37">
      <g>
       <use xlink:href="#m6e51a74636" x="691.22" y="46.283528" style="stroke: #000000; stroke-width: 0.8"/>
      </g>
     </g>
     <g id="text_47">
      <!-- 11 -->
      <g transform="translate(673.098125 49.870247) scale(0.1 -0.1)">
       <use xlink:href="#Helvetica-31"/>
       <use xlink:href="#Helvetica-31" x="55.615234"/>
      </g>
     </g>
    </g>
    <g id="text_48">
     <!-- Chi-Squared Statistic -->
     <g transform="translate(667.01375 146.827031) rotate(-90) scale(0.1 -0.1)">
      <defs>
       <path id="Helvetica-71" d="M 775 1628
Q 775 1194 897 900
Q 1113 378 1669 378
Q 2256 378 2478 928
Q 2600 1231 2600 1703
Q 2600 2138 2466 2428
Q 2238 2925 1663 2925
Q 1297 2925 1036 2608
Q 775 2291 775 1628
z
M 1606 3422
Q 2022 3422 2306 3213
Q 2463 3100 2606 2881
L 2606 3347
L 3141 3347
L 3141 -1334
L 2575 -1334
L 2575 384
Q 2434 159 2186 26
Q 1938 -106 1566 -106
Q 1031 -106 609 312
Q 188 731 188 1588
Q 188 2391 583 2906
Q 978 3422 1606 3422
z
" transform="scale(0.015625)"/>
       <path id="Helvetica-75" d="M 975 3347
L 975 1125
Q 975 869 1056 706
Q 1206 406 1616 406
Q 2203 406 2416 931
Q 2531 1213 2531 1703
L 2531 3347
L 3094 3347
L 3094 0
L 2563 0
L 2569 494
Q 2459 303 2297 172
Q 1975 -91 1516 -91
Q 800 -91 541 388
Q 400 644 400 1072
L 400 3347
L 975 3347
z
M 1747 3428
L 1747 3428
z
" transform="scale(0.015625)"/>
       <path id="Helvetica-64" d="M 769 1634
Q 769 1097 997 734
Q 1225 372 1728 372
Q 2119 372 2370 708
Q 2622 1044 2622 1672
Q 2622 2306 2362 2611
Q 2103 2916 1722 2916
Q 1297 2916 1033 2591
Q 769 2266 769 1634
z
M 1616 3406
Q 2000 3406 2259 3244
Q 2409 3150 2600 2916
L 2600 4606
L 3141 4606
L 3141 0
L 2634 0
L 2634 466
Q 2438 156 2169 18
Q 1900 -119 1553 -119
Q 994 -119 584 351
Q 175 822 175 1603
Q 175 2334 548 2870
Q 922 3406 1616 3406
z
" transform="scale(0.015625)"/>
      </defs>
      <use xlink:href="#Helvetica-43"/>
      <use xlink:href="#Helvetica-68" x="72.216797"/>
      <use xlink:href="#Helvetica-69" x="127.832031"/>
      <use xlink:href="#Helvetica-2d" x="150.048828"/>
      <use xlink:href="#Helvetica-53" x="183.349609"/>
      <use xlink:href="#Helvetica-71" x="250.048828"/>
      <use xlink:href="#Helvetica-75" x="305.664062"/>
      <use xlink:href="#Helvetica-61" x="361.279297"/>
      <use xlink:href="#Helvetica-72" x="416.894531"/>
      <use xlink:href="#Helvetica-65" x="450.195312"/>
      <use xlink:href="#Helvetica-64" x="505.810547"/>
      <use xlink:href="#Helvetica-20" x="561.425781"/>
      <use xlink:href="#Helvetica-53" x="589.208984"/>
      <use xlink:href="#Helvetica-74" x="655.908203"/>
      <use xlink:href="#Helvetica-61" x="683.691406"/>
      <use xlink:href="#Helvetica-74" x="739.306641"/>
      <use xlink:href="#Helvetica-69" x="767.089844"/>
      <use xlink:href="#Helvetica-73" x="789.306641"/>
      <use xlink:href="#Helvetica-74" x="839.306641"/>
      <use xlink:href="#Helvetica-69" x="867.089844"/>
      <use xlink:href="#Helvetica-63" x="889.306641"/>
     </g>
    </g>
   </g>
   <g id="line2d_38">
    <path d="M 698.582727 141.14259
L 700.100815 115.735868
L 701.618903 109.927451
L 703.136992 95.001411
L 704.65508 130.181683
L 706.173168 96.557612
L 707.691256 126.93738
L 709.209344 115.581025
L 710.727432 96.200761
L 712.24552 113.446383
L 713.763608 131.097669
L 715.281696 108.03955
L 716.799784 109.23019
L 718.317873 120.561562
L 719.835961 107.531245
L 721.354049 84.763695
L 722.872137 92.783292
L 724.390225 103.549394
L 725.908313 90.941498
L 727.426401 99.306433
L 728.944489 111.504608
L 730.462577 107.291227
L 731.980665 101.613066
L 733.498754 102.573859
L 735.016842 128.577878
L 736.53493 112.769265
L 738.053018 97.430674
L 739.571106 108.535129
L 741.089194 105.04575
L 742.607282 83.91339
L 744.12537 114.928584
L 745.643458 90.942977
L 747.161546 111.575581
L 748.679634 85.017246
L 750.197723 118.634171
L 751.715811 87.248258
L 753.233899 89.774249
L 754.751987 108.458867
L 756.270075 95.134267
L 757.788163 120.529799
L 759.306251 112.26174
L 760.824339 115.540987
L 762.342427 113.302718
L 763.860515 116.334726
L 765.378604 79.375952
L 766.896692 111.769304
L 768.41478 111.793125
L 769.932868 86.936843
L 771.450956 99.987929
L 772.969044 103.269365
L 774.487132 107.324129
L 776.00522 123.822843
L 777.523308 107.22976
L 779.041396 113.883518
L 780.559485 64.539844
L 782.077573 123.924187
L 783.595661 98.423324
L 785.113749 113.351649
L 786.631837 111.435087
L 788.149925 80.827923
L 789.668013 107.368781
L 791.186101 89.770837
L 792.704189 117.482036
L 794.222277 110.828395
L 795.740366 95.165976
L 797.258454 137.094404
L 798.776542 103.73468
L 800.29463 132.989
L 801.812718 96.507913
L 803.330806 121.621841
L 804.848894 101.338167
L 806.366982 124.525593
L 807.88507 94.339171
L 809.403158 115.16732
L 810.921246 93.9568
L 812.439335 110.288912
L 813.957423 120.764235
L 815.475511 121.961303
L 816.993599 111.845546
L 818.511687 125.362053
L 820.029775 103.689662
L 821.547863 114.736196
L 823.065951 99.578937
L 824.584039 108.686476
L 826.102127 111.689538
L 827.620216 97.362512
L 829.138304 127.449085
L 830.656392 124.094025
L 832.17448 102.756651
L 833.692568 115.299205
L 835.210656 106.355088
L 836.728744 106.997767
L 838.246832 125.266801
L 839.76492 85.423765
L 841.283008 127.198173
L 842.801097 119.818798
L 844.319185 92.121532
L 845.837273 128.433959
" clip-path="url(#p8e765e0560)" style="fill: none; stroke: #dd4040; stroke-width: 1.5; stroke-linecap: square"/>
   </g>
   <g id="patch_24">
    <path d="M 691.22 174.04
L 691.22 25.6875
" style="fill: none; stroke: #000000; stroke-width: 0.8; stroke-linejoin: miter; stroke-linecap: square"/>
   </g>
   <g id="patch_25">
    <path d="M 853.2 174.04
L 853.2 25.6875
" style="fill: none; stroke: #000000; stroke-width: 0.8; stroke-linejoin: miter; stroke-linecap: square"/>
   </g>
   <g id="patch_26">
    <path d="M 691.22 174.04
L 853.2 174.04
" style="fill: none; stroke: #000000; stroke-width: 0.8; stroke-linejoin: miter; stroke-linecap: square"/>
   </g>
   <g id="patch_27">
    <path d="M 691.22 25.6875
L 853.2 25.6875
" style="fill: none; stroke: #000000; stroke-width: 0.8; stroke-linejoin: miter; stroke-linecap: square"/>
   </g>
   <g id="text_49">
    <!-- Chi-Squared Statistic -->
    <g transform="translate(715.854062 19.6875) scale(0.12 -0.12)">
     <use xlink:href="#Helvetica-43"/>
     <use xlink:href="#Helvetica-68" x="72.216797"/>
     <use xlink:href="#Helvetica-69" x="127.832031"/>
     <use xlink:href="#Helvetica-2d" x="150.048828"/>
     <use xlink:href="#Helvetica-53" x="183.349609"/>
     <use xlink:href="#Helvetica-71" x="250.048828"/>
     <use xlink:href="#Helvetica-75" x="305.664062"/>
     <use xlink:href="#Helvetica-61" x="361.279297"/>
     <use xlink:href="#Helvetica-72" x="416.894531"/>
     <use xlink:href="#Helvetica-65" x="450.195312"/>
     <use xlink:href="#Helvetica-64" x="505.810547"/>
     <use xlink:href="#Helvetica-20" x="561.425781"/>
     <use xlink:href="#Helvetica-53" x="589.208984"/>
     <use xlink:href="#Helvetica-74" x="655.908203"/>
     <use xlink:href="#Helvetica-61" x="683.691406"/>
     <use xlink:href="#Helvetica-74" x="739.306641"/>
     <use xlink:href="#Helvetica-69" x="767.089844"/>
     <use xlink:href="#Helvetica-73" x="789.306641"/>
     <use xlink:href="#Helvetica-74" x="839.306641"/>
     <use xlink:href="#Helvetica-69" x="867.089844"/>
     <use xlink:href="#Helvetica-63" x="889.306641"/>
    </g>
   </g>
   <g id="legend_4">
    <g id="patch_28">
     <path d="M 781.407812 47.945312
L 846.2 47.945312
Q 848.2 47.945312 848.2 45.945312
L 848.2 32.6875
Q 848.2 30.6875 846.2 30.6875
L 781.407812 30.6875
Q 779.407812 30.6875 779.407812 32.6875
L 779.407812 45.945312
Q 779.407812 47.945312 781.407812 47.945312
z
" style="fill: #ffffff; opacity: 0.8; stroke: #cccccc; stroke-linejoin: miter"/>
    </g>
    <g id="patch_29">
     <path d="M 783.407812 41.860938
L 803.407812 41.860938
L 803.407812 34.860938
L 783.407812 34.860938
z
" style="fill: #f8dcdc; fill-opacity: 0.5; stroke: #f8dcdc; stroke-opacity: 0.5; stroke-linejoin: miter"/>
    </g>
    <g id="text_50">
     <!-- 95% CI -->
     <g transform="translate(811.407812 41.860938) scale(0.1 -0.1)">
      <use xlink:href="#Helvetica-39"/>
      <use xlink:href="#Helvetica-35" x="55.615234"/>
      <use xlink:href="#Helvetica-25" x="111.230469"/>
      <use xlink:href="#Helvetica-20" x="200.146484"/>
      <use xlink:href="#Helvetica-43" x="227.929688"/>
      <use xlink:href="#Helvetica-49" x="300.146484"/>
     </g>
    </g>
   </g>
  </g>
 </g>
 <defs>
  <clipPath id="ped7d37cee2">
   <rect x="51.32" y="25.6875" width="161.98" height="148.3525"/>
  </clipPath>
  <clipPath id="p26de5e5826">
   <rect x="264.62" y="25.6875" width="161.98" height="148.3525"/>
  </clipPath>
  <clipPath id="p218971d82d">
   <rect x="477.92" y="25.6875" width="161.98" height="148.3525"/>
  </clipPath>
  <clipPath id="p8e765e0560">
   <rect x="691.22" y="25.6875" width="161.98" height="148.3525"/>
  </clipPath>
 </defs>
</svg>
