<?xml version="1.0" encoding="utf-8" standalone="no"?>
<!DOCTYPE svg PUBLIC "-//W3C//DTD SVG 1.1//EN"
  "http://www.w3.org/Graphics/SVG/1.1/DTD/svg11.dtd">
<svg xmlns:xlink="http://www.w3.org/1999/xlink" width="720pt" height="1080pt" viewBox="0 0 720 1080" xmlns="http://www.w3.org/2000/svg" version="1.1">
 <metadata>
  <rdf:RDF xmlns:dc="http://purl.org/dc/elements/1.1/" xmlns:cc="http://creativecommons.org/ns#" xmlns:rdf="http://www.w3.org/1999/02/22-rdf-syntax-ns#">
   <cc:Work>
    <dc:type rdf:resource="http://purl.org/dc/dcmitype/StillImage"/>
    <dc:date>2022-11-30T17:23:57.412431</dc:date>
    <dc:format>image/svg+xml</dc:format>
    <dc:creator>
     <cc:Agent>
      <dc:title>Matplotlib v3.6.2, https://matplotlib.org/</dc:title>
     </cc:Agent>
    </dc:creator>
   </cc:Work>
  </rdf:RDF>
 </metadata>
 <defs>
  <style type="text/css">*{stroke-linejoin: round; stroke-linecap: butt}</style>
 </defs>
 <g id="figure_1">
  <g id="patch_1">
   <path d="M 0 1080 
L 720 1080 
L 720 0 
L 0 0 
z
" style="fill: #ffffff"/>
  </g>
  <g id="axes_1">
   <g id="patch_2">
    <path d="M 51.32 196.76 
L 709.2 196.76 
L 709.2 25.6875 
L 51.32 25.6875 
z
" style="fill: #ffffff"/>
   </g>
   <g id="PolyCollection_1">
    <path d="M 81.223636 147.882143 
L 81.223636 196.76 
L 91.360462 196.76 
L 101.497288 196.76 
L 111.634114 196.76 
L 121.77094 196.76 
L 131.907766 196.76 
L 142.044592 196.76 
L 152.181418 196.76 
L 162.318243 196.76 
L 172.455069 196.76 
L 182.591895 196.76 
L 192.728721 196.76 
L 202.865547 196.76 
L 213.002373 196.76 
L 223.139199 196.76 
L 233.276025 196.76 
L 243.412851 196.76 
L 253.549676 196.76 
L 263.686502 196.76 
L 273.823328 196.76 
L 283.960154 196.76 
L 294.09698 196.76 
L 304.233806 196.76 
L 314.370632 196.76 
L 324.507458 196.76 
L 334.644284 196.76 
L 344.781109 196.76 
L 354.917935 196.76 
L 365.054761 196.76 
L 375.191587 196.76 
L 385.328413 196.76 
L 395.465239 196.76 
L 405.602065 196.76 
L 415.738891 196.76 
L 425.875716 196.76 
L 436.012542 196.76 
L 446.149368 196.76 
L 456.286194 196.76 
L 466.42302 196.76 
L 476.559846 196.76 
L 486.696672 196.76 
L 496.833498 196.76 
L 506.970324 196.76 
L 517.107149 196.76 
L 527.243975 196.76 
L 537.380801 196.76 
L 547.517627 196.76 
L 557.654453 196.76 
L 567.791279 196.76 
L 577.928105 196.76 
L 588.064931 196.76 
L 598.201757 196.76 
L 608.338582 196.76 
L 618.475408 196.76 
L 628.612234 196.76 
L 638.74906 196.76 
L 648.885886 196.76 
L 659.022712 196.76 
L 669.159538 196.76 
L 679.296364 196.76 
L 679.296364 156.028452 
L 679.296364 156.028452 
L 669.159538 155.862201 
L 659.022712 155.69595 
L 648.885886 155.529699 
L 638.74906 155.363448 
L 628.612234 155.197196 
L 618.475408 155.030945 
L 608.338582 154.864694 
L 598.201757 154.698443 
L 588.064931 154.532191 
L 577.928105 154.36594 
L 567.791279 154.199689 
L 557.654453 154.033438 
L 547.517627 153.867187 
L 537.380801 153.700935 
L 527.243975 153.534684 
L 517.107149 153.368433 
L 506.970324 153.202182 
L 496.833498 153.035931 
L 486.696672 152.869679 
L 476.559846 152.703428 
L 466.42302 152.537177 
L 456.286194 152.370926 
L 446.149368 152.204674 
L 436.012542 152.038423 
L 425.875716 151.872172 
L 415.738891 151.705921 
L 405.602065 151.53967 
L 395.465239 151.373418 
L 385.328413 151.207167 
L 375.191587 151.040916 
L 365.054761 150.874665 
L 354.917935 150.708414 
L 344.781109 150.542162 
L 334.644284 150.375911 
L 324.507458 150.20966 
L 314.370632 150.043409 
L 304.233806 149.877157 
L 294.09698 149.710906 
L 283.960154 149.544655 
L 273.823328 149.378404 
L 263.686502 149.212153 
L 253.549676 149.045901 
L 243.412851 148.87965 
L 233.276025 148.713399 
L 223.139199 148.547148 
L 213.002373 148.380897 
L 202.865547 148.214645 
L 192.728721 148.048394 
L 182.591895 147.882143 
L 172.455069 147.882143 
L 162.318243 147.882143 
L 152.181418 147.882143 
L 142.044592 147.882143 
L 131.907766 147.882143 
L 121.77094 147.882143 
L 111.634114 147.882143 
L 101.497288 147.882143 
L 91.360462 147.882143 
L 81.223636 147.882143 
z
" clip-path="url(#p9512a7c063)" style="fill: #1f77b4"/>
   </g>
   <g id="PolyCollection_2">
    <path d="M 81.223636 99.004286 
L 81.223636 147.882143 
L 91.360462 147.882143 
L 101.497288 147.882143 
L 111.634114 147.882143 
L 121.77094 147.882143 
L 131.907766 147.882143 
L 142.044592 147.882143 
L 152.181418 147.882143 
L 162.318243 147.882143 
L 172.455069 147.882143 
L 182.591895 147.882143 
L 192.728721 148.048394 
L 202.865547 148.214645 
L 213.002373 148.380897 
L 223.139199 148.547148 
L 233.276025 148.713399 
L 243.412851 148.87965 
L 253.549676 149.045901 
L 263.686502 149.212153 
L 273.823328 149.378404 
L 283.960154 149.544655 
L 294.09698 149.710906 
L 304.233806 149.877157 
L 314.370632 150.043409 
L 324.507458 150.20966 
L 334.644284 150.375911 
L 344.781109 150.542162 
L 354.917935 150.708414 
L 365.054761 150.874665 
L 375.191587 151.040916 
L 385.328413 151.207167 
L 395.465239 151.373418 
L 405.602065 151.53967 
L 415.738891 151.705921 
L 425.875716 151.872172 
L 436.012542 152.038423 
L 446.149368 152.204674 
L 456.286194 152.370926 
L 466.42302 152.537177 
L 476.559846 152.703428 
L 486.696672 152.869679 
L 496.833498 153.035931 
L 506.970324 153.202182 
L 517.107149 153.368433 
L 527.243975 153.534684 
L 537.380801 153.700935 
L 547.517627 153.867187 
L 557.654453 154.033438 
L 567.791279 154.199689 
L 577.928105 154.36594 
L 588.064931 154.532191 
L 598.201757 154.698443 
L 608.338582 154.864694 
L 618.475408 155.030945 
L 628.612234 155.197196 
L 638.74906 155.363448 
L 648.885886 155.529699 
L 659.022712 155.69595 
L 669.159538 155.862201 
L 679.296364 156.028452 
L 679.296364 115.296905 
L 679.296364 115.296905 
L 669.159538 114.964402 
L 659.022712 114.6319 
L 648.885886 114.299397 
L 638.74906 113.966895 
L 628.612234 113.634393 
L 618.475408 113.30189 
L 608.338582 112.969388 
L 598.201757 112.636885 
L 588.064931 112.304383 
L 577.928105 111.97188 
L 567.791279 111.639378 
L 557.654453 111.306876 
L 547.517627 110.974373 
L 537.380801 110.641871 
L 527.243975 110.309368 
L 517.107149 109.976866 
L 506.970324 109.644363 
L 496.833498 109.311861 
L 486.696672 108.979359 
L 476.559846 108.646856 
L 466.42302 108.314354 
L 456.286194 107.981851 
L 446.149368 107.649349 
L 436.012542 107.316846 
L 425.875716 106.984344 
L 415.738891 106.651842 
L 405.602065 106.319339 
L 395.465239 105.986837 
L 385.328413 105.654334 
L 375.191587 105.321832 
L 365.054761 104.989329 
L 354.917935 104.656827 
L 344.781109 104.324325 
L 334.644284 103.991822 
L 324.507458 103.65932 
L 314.370632 103.326817 
L 304.233806 102.994315 
L 294.09698 102.661812 
L 283.960154 102.32931 
L 273.823328 101.996808 
L 263.686502 101.664305 
L 253.549676 101.331803 
L 243.412851 100.9993 
L 233.276025 100.666798 
L 223.139199 100.334295 
L 213.002373 100.001793 
L 202.865547 99.669291 
L 192.728721 99.336788 
L 182.591895 99.004286 
L 172.455069 99.004286 
L 162.318243 99.004286 
L 152.181418 99.004286 
L 142.044592 99.004286 
L 131.907766 99.004286 
L 121.77094 99.004286 
L 111.634114 99.004286 
L 101.497288 99.004286 
L 91.360462 99.004286 
L 81.223636 99.004286 
z
" clip-path="url(#p9512a7c063)" style="fill: #ff7f0e"/>
   </g>
   <g id="PolyCollection_3">
    <path d="M 81.223636 33.83381 
L 81.223636 99.004286 
L 91.360462 99.004286 
L 101.497288 99.004286 
L 111.634114 99.004286 
L 121.77094 99.004286 
L 131.907766 99.004286 
L 142.044592 99.004286 
L 152.181418 99.004286 
L 162.318243 99.004286 
L 172.455069 99.004286 
L 182.591895 99.004286 
L 192.728721 99.336788 
L 202.865547 99.669291 
L 213.002373 100.001793 
L 223.139199 100.334295 
L 233.276025 100.666798 
L 243.412851 100.9993 
L 253.549676 101.331803 
L 263.686502 101.664305 
L 273.823328 101.996808 
L 283.960154 102.32931 
L 294.09698 102.661812 
L 304.233806 102.994315 
L 314.370632 103.326817 
L 324.507458 103.65932 
L 334.644284 103.991822 
L 344.781109 104.324325 
L 354.917935 104.656827 
L 365.054761 104.989329 
L 375.191587 105.321832 
L 385.328413 105.654334 
L 395.465239 105.986837 
L 405.602065 106.319339 
L 415.738891 106.651842 
L 425.875716 106.984344 
L 436.012542 107.316846 
L 446.149368 107.649349 
L 456.286194 107.981851 
L 466.42302 108.314354 
L 476.559846 108.646856 
L 486.696672 108.979359 
L 496.833498 109.311861 
L 506.970324 109.644363 
L 517.107149 109.976866 
L 527.243975 110.309368 
L 537.380801 110.641871 
L 547.517627 110.974373 
L 557.654453 111.306876 
L 567.791279 111.639378 
L 577.928105 111.97188 
L 588.064931 112.304383 
L 598.201757 112.636885 
L 608.338582 112.969388 
L 618.475408 113.30189 
L 628.612234 113.634393 
L 638.74906 113.966895 
L 648.885886 114.299397 
L 659.022712 114.6319 
L 669.159538 114.964402 
L 679.296364 115.296905 
L 679.296364 74.565357 
L 679.296364 74.565357 
L 669.159538 73.734101 
L 659.022712 72.902845 
L 648.885886 72.071589 
L 638.74906 71.240333 
L 628.612234 70.409077 
L 618.475408 69.577821 
L 608.338582 68.746565 
L 598.201757 67.915309 
L 588.064931 67.084052 
L 577.928105 66.252796 
L 567.791279 65.42154 
L 557.654453 64.590284 
L 547.517627 63.759028 
L 537.380801 62.927772 
L 527.243975 62.096516 
L 517.107149 61.26526 
L 506.970324 60.434004 
L 496.833498 59.602748 
L 486.696672 58.771492 
L 476.559846 57.940236 
L 466.42302 57.10898 
L 456.286194 56.277724 
L 446.149368 55.446467 
L 436.012542 54.615211 
L 425.875716 53.783955 
L 415.738891 52.952699 
L 405.602065 52.121443 
L 395.465239 51.290187 
L 385.328413 50.458931 
L 375.191587 49.627675 
L 365.054761 48.796419 
L 354.917935 47.965163 
L 344.781109 47.133907 
L 334.644284 46.302651 
L 324.507458 45.471395 
L 314.370632 44.640138 
L 304.233806 43.808882 
L 294.09698 42.977626 
L 283.960154 42.14637 
L 273.823328 41.315114 
L 263.686502 40.483858 
L 253.549676 39.652602 
L 243.412851 38.821346 
L 233.276025 37.99009 
L 223.139199 37.158834 
L 213.002373 36.327578 
L 202.865547 35.496322 
L 192.728721 34.665066 
L 182.591895 33.83381 
L 172.455069 33.83381 
L 162.318243 33.83381 
L 152.181418 33.83381 
L 142.044592 33.83381 
L 131.907766 33.83381 
L 121.77094 33.83381 
L 111.634114 33.83381 
L 101.497288 33.83381 
L 91.360462 33.83381 
L 81.223636 33.83381 
z
" clip-path="url(#p9512a7c063)" style="fill: #2ca02c"/>
   </g>
   <g id="PolyCollection_4">
    <path d="M 81.223636 33.83381 
L 81.223636 33.83381 
L 91.360462 33.83381 
L 101.497288 33.83381 
L 111.634114 33.83381 
L 121.77094 33.83381 
L 131.907766 33.83381 
L 142.044592 33.83381 
L 152.181418 33.83381 
L 162.318243 33.83381 
L 172.455069 33.83381 
L 182.591895 33.83381 
L 192.728721 34.665066 
L 202.865547 35.496322 
L 213.002373 36.327578 
L 223.139199 37.158834 
L 233.276025 37.99009 
L 243.412851 38.821346 
L 253.549676 39.652602 
L 263.686502 40.483858 
L 273.823328 41.315114 
L 283.960154 42.14637 
L 294.09698 42.977626 
L 304.233806 43.808882 
L 314.370632 44.640138 
L 324.507458 45.471395 
L 334.644284 46.302651 
L 344.781109 47.133907 
L 354.917935 47.965163 
L 365.054761 48.796419 
L 375.191587 49.627675 
L 385.328413 50.458931 
L 395.465239 51.290187 
L 405.602065 52.121443 
L 415.738891 52.952699 
L 425.875716 53.783955 
L 436.012542 54.615211 
L 446.149368 55.446467 
L 456.286194 56.277724 
L 466.42302 57.10898 
L 476.559846 57.940236 
L 486.696672 58.771492 
L 496.833498 59.602748 
L 506.970324 60.434004 
L 517.107149 61.26526 
L 527.243975 62.096516 
L 537.380801 62.927772 
L 547.517627 63.759028 
L 557.654453 64.590284 
L 567.791279 65.42154 
L 577.928105 66.252796 
L 588.064931 67.084052 
L 598.201757 67.915309 
L 608.338582 68.746565 
L 618.475408 69.577821 
L 628.612234 70.409077 
L 638.74906 71.240333 
L 648.885886 72.071589 
L 659.022712 72.902845 
L 669.159538 73.734101 
L 679.296364 74.565357 
L 679.296364 33.83381 
L 679.296364 33.83381 
L 669.159538 33.83381 
L 659.022712 33.83381 
L 648.885886 33.83381 
L 638.74906 33.83381 
L 628.612234 33.83381 
L 618.475408 33.83381 
L 608.338582 33.83381 
L 598.201757 33.83381 
L 588.064931 33.83381 
L 577.928105 33.83381 
L 567.791279 33.83381 
L 557.654453 33.83381 
L 547.517627 33.83381 
L 537.380801 33.83381 
L 527.243975 33.83381 
L 517.107149 33.83381 
L 506.970324 33.83381 
L 496.833498 33.83381 
L 486.696672 33.83381 
L 476.559846 33.83381 
L 466.42302 33.83381 
L 456.286194 33.83381 
L 446.149368 33.83381 
L 436.012542 33.83381 
L 425.875716 33.83381 
L 415.738891 33.83381 
L 405.602065 33.83381 
L 395.465239 33.83381 
L 385.328413 33.83381 
L 375.191587 33.83381 
L 365.054761 33.83381 
L 354.917935 33.83381 
L 344.781109 33.83381 
L 334.644284 33.83381 
L 324.507458 33.83381 
L 314.370632 33.83381 
L 304.233806 33.83381 
L 294.09698 33.83381 
L 283.960154 33.83381 
L 273.823328 33.83381 
L 263.686502 33.83381 
L 253.549676 33.83381 
L 243.412851 33.83381 
L 233.276025 33.83381 
L 223.139199 33.83381 
L 213.002373 33.83381 
L 202.865547 33.83381 
L 192.728721 33.83381 
L 182.591895 33.83381 
L 172.455069 33.83381 
L 162.318243 33.83381 
L 152.181418 33.83381 
L 142.044592 33.83381 
L 131.907766 33.83381 
L 121.77094 33.83381 
L 111.634114 33.83381 
L 101.497288 33.83381 
L 91.360462 33.83381 
L 81.223636 33.83381 
z
" clip-path="url(#p9512a7c063)" style="fill: #d62728"/>
   </g>
   <g id="matplotlib.axis_1">
    <g id="xtick_1">
     <g id="line2d_1">
      <defs>
       <path id="m635887cfdd" d="M 0 0 
L 0 3.5 
" style="stroke: #000000; stroke-width: 0.8"/>
      </defs>
      <g>
       <use xlink:href="#m635887cfdd" x="81.223636" y="196.76" style="stroke: #000000; stroke-width: 0.8"/>
      </g>
     </g>
     <g id="text_1">
      <!-- 0 -->
      <g transform="translate(78.443168 210.933437) scale(0.1 -0.1)">
       <defs>
        <path id="Helvetica-30" d="M 1731 4475 
Q 2600 4475 2988 3759 
Q 3288 3206 3288 2244 
Q 3288 1331 3016 734 
Q 2622 -122 1728 -122 
Q 922 -122 528 578 
Q 200 1163 200 2147 
Q 200 2909 397 3456 
Q 766 4475 1731 4475 
z
M 1725 391 
Q 2163 391 2422 778 
Q 2681 1166 2681 2222 
Q 2681 2984 2493 3476 
Q 2306 3969 1766 3969 
Q 1269 3969 1039 3501 
Q 809 3034 809 2125 
Q 809 1441 956 1025 
Q 1181 391 1725 391 
z
" transform="scale(0.015625)"/>
       </defs>
       <use xlink:href="#Helvetica-30"/>
      </g>
     </g>
    </g>
    <g id="xtick_2">
     <g id="line2d_2">
      <g>
       <use xlink:href="#m635887cfdd" x="182.591895" y="196.76" style="stroke: #000000; stroke-width: 0.8"/>
      </g>
     </g>
     <g id="text_2">
      <!-- 10 -->
      <g transform="translate(177.030958 210.933437) scale(0.1 -0.1)">
       <defs>
        <path id="Helvetica-31" d="M 613 3169 
L 613 3600 
Q 1222 3659 1462 3798 
Q 1703 3938 1822 4456 
L 2266 4456 
L 2266 0 
L 1666 0 
L 1666 3169 
L 613 3169 
z
" transform="scale(0.015625)"/>
       </defs>
       <use xlink:href="#Helvetica-31"/>
       <use xlink:href="#Helvetica-30" x="55.615234"/>
      </g>
     </g>
    </g>
    <g id="xtick_3">
     <g id="line2d_3">
      <g>
       <use xlink:href="#m635887cfdd" x="283.960154" y="196.76" style="stroke: #000000; stroke-width: 0.8"/>
      </g>
     </g>
     <g id="text_3">
      <!-- 20 -->
      <g transform="translate(278.399217 210.933437) scale(0.1 -0.1)">
       <defs>
        <path id="Helvetica-32" d="M 200 0 
Q 231 578 439 1006 
Q 647 1434 1250 1784 
L 1850 2131 
Q 2253 2366 2416 2531 
Q 2672 2791 2672 3125 
Q 2672 3516 2437 3745 
Q 2203 3975 1813 3975 
Q 1234 3975 1013 3538 
Q 894 3303 881 2888 
L 309 2888 
Q 319 3472 525 3841 
Q 891 4491 1816 4491 
Q 2584 4491 2939 4075 
Q 3294 3659 3294 3150 
Q 3294 2613 2916 2231 
Q 2697 2009 2131 1694 
L 1703 1456 
Q 1397 1288 1222 1134 
Q 909 863 828 531 
L 3272 531 
L 3272 0 
L 200 0 
z
" transform="scale(0.015625)"/>
       </defs>
       <use xlink:href="#Helvetica-32"/>
       <use xlink:href="#Helvetica-30" x="55.615234"/>
      </g>
     </g>
    </g>
    <g id="xtick_4">
     <g id="line2d_4">
      <g>
       <use xlink:href="#m635887cfdd" x="385.328413" y="196.76" style="stroke: #000000; stroke-width: 0.8"/>
      </g>
     </g>
     <g id="text_4">
      <!-- 30 -->
      <g transform="translate(379.767475 210.933437) scale(0.1 -0.1)">
       <defs>
        <path id="Helvetica-33" d="M 1663 -122 
Q 869 -122 511 314 
Q 153 750 153 1375 
L 741 1375 
Q 778 941 903 744 
Q 1122 391 1694 391 
Q 2138 391 2406 628 
Q 2675 866 2675 1241 
Q 2675 1703 2392 1887 
Q 2109 2072 1606 2072 
Q 1550 2072 1492 2070 
Q 1434 2069 1375 2066 
L 1375 2563 
Q 1463 2553 1522 2550 
Q 1581 2547 1650 2547 
Q 1966 2547 2169 2647 
Q 2525 2822 2525 3272 
Q 2525 3606 2287 3787 
Q 2050 3969 1734 3969 
Q 1172 3969 956 3594 
Q 838 3388 822 3006 
L 266 3006 
Q 266 3506 466 3856 
Q 809 4481 1675 4481 
Q 2359 4481 2734 4176 
Q 3109 3872 3109 3294 
Q 3109 2881 2888 2625 
Q 2750 2466 2531 2375 
Q 2884 2278 3082 2001 
Q 3281 1725 3281 1325 
Q 3281 684 2859 281 
Q 2438 -122 1663 -122 
z
" transform="scale(0.015625)"/>
       </defs>
       <use xlink:href="#Helvetica-33"/>
       <use xlink:href="#Helvetica-30" x="55.615234"/>
      </g>
     </g>
    </g>
    <g id="xtick_5">
     <g id="line2d_5">
      <g>
       <use xlink:href="#m635887cfdd" x="486.696672" y="196.76" style="stroke: #000000; stroke-width: 0.8"/>
      </g>
     </g>
     <g id="text_5">
      <!-- 40 -->
      <g transform="translate(481.135734 210.933437) scale(0.1 -0.1)">
       <defs>
        <path id="Helvetica-34" d="M 2116 1584 
L 2116 3613 
L 681 1584 
L 2116 1584 
z
M 2125 0 
L 2125 1094 
L 163 1094 
L 163 1644 
L 2213 4488 
L 2688 4488 
L 2688 1584 
L 3347 1584 
L 3347 1094 
L 2688 1094 
L 2688 0 
L 2125 0 
z
" transform="scale(0.015625)"/>
       </defs>
       <use xlink:href="#Helvetica-34"/>
       <use xlink:href="#Helvetica-30" x="55.615234"/>
      </g>
     </g>
    </g>
    <g id="xtick_6">
     <g id="line2d_6">
      <g>
       <use xlink:href="#m635887cfdd" x="588.064931" y="196.76" style="stroke: #000000; stroke-width: 0.8"/>
      </g>
     </g>
     <g id="text_6">
      <!-- 50 -->
      <g transform="translate(582.503993 210.933437) scale(0.1 -0.1)">
       <defs>
        <path id="Helvetica-35" d="M 791 1141 
Q 847 659 1238 475 
Q 1438 381 1700 381 
Q 2200 381 2440 700 
Q 2681 1019 2681 1406 
Q 2681 1875 2395 2131 
Q 2109 2388 1709 2388 
Q 1419 2388 1211 2275 
Q 1003 2163 856 1963 
L 369 1991 
L 709 4400 
L 3034 4400 
L 3034 3856 
L 1131 3856 
L 941 2613 
Q 1097 2731 1238 2791 
Q 1488 2894 1816 2894 
Q 2431 2894 2859 2497 
Q 3288 2100 3288 1491 
Q 3288 856 2895 371 
Q 2503 -113 1644 -113 
Q 1097 -113 676 195 
Q 256 503 206 1141 
L 791 1141 
z
" transform="scale(0.015625)"/>
       </defs>
       <use xlink:href="#Helvetica-35"/>
       <use xlink:href="#Helvetica-30" x="55.615234"/>
      </g>
     </g>
    </g>
    <g id="xtick_7">
     <g id="line2d_7">
      <g>
       <use xlink:href="#m635887cfdd" x="689.43319" y="196.76" style="stroke: #000000; stroke-width: 0.8"/>
      </g>
     </g>
     <g id="text_7">
      <!-- 60 -->
      <g transform="translate(683.872252 210.933437) scale(0.1 -0.1)">
       <defs>
        <path id="Helvetica-36" d="M 1872 4494 
Q 2622 4494 2917 4105 
Q 3213 3716 3213 3303 
L 2656 3303 
Q 2606 3569 2497 3719 
Q 2294 4000 1881 4000 
Q 1409 4000 1131 3564 
Q 853 3128 822 2316 
Q 1016 2600 1309 2741 
Q 1578 2866 1909 2866 
Q 2472 2866 2890 2506 
Q 3309 2147 3309 1434 
Q 3309 825 2912 354 
Q 2516 -116 1781 -116 
Q 1153 -116 697 361 
Q 241 838 241 1966 
Q 241 2800 444 3381 
Q 834 4494 1872 4494 
z
M 1831 384 
Q 2275 384 2495 682 
Q 2716 981 2716 1388 
Q 2716 1731 2519 2042 
Q 2322 2353 1803 2353 
Q 1441 2353 1167 2112 
Q 894 1872 894 1388 
Q 894 963 1142 673 
Q 1391 384 1831 384 
z
" transform="scale(0.015625)"/>
       </defs>
       <use xlink:href="#Helvetica-36"/>
       <use xlink:href="#Helvetica-30" x="55.615234"/>
      </g>
     </g>
    </g>
   </g>
   <g id="matplotlib.axis_2">
    <g id="ytick_1">
     <g id="line2d_8">
      <defs>
       <path id="m9178c492d8" d="M 0 0 
L -3.5 0 
" style="stroke: #000000; stroke-width: 0.8"/>
      </defs>
      <g>
       <use xlink:href="#m9178c492d8" x="51.32" y="196.76" style="stroke: #000000; stroke-width: 0.8"/>
      </g>
     </g>
     <g id="text_8">
      <!-- 0.0 -->
      <g transform="translate(30.42 200.346719) scale(0.1 -0.1)">
       <defs>
        <path id="Helvetica-2e" d="M 547 681 
L 1200 681 
L 1200 0 
L 547 0 
L 547 681 
z
" transform="scale(0.015625)"/>
       </defs>
       <use xlink:href="#Helvetica-30"/>
       <use xlink:href="#Helvetica-2e" x="55.615234"/>
       <use xlink:href="#Helvetica-30" x="83.398438"/>
      </g>
     </g>
    </g>
    <g id="ytick_2">
     <g id="line2d_9">
      <g>
       <use xlink:href="#m9178c492d8" x="51.32" y="164.174762" style="stroke: #000000; stroke-width: 0.8"/>
      </g>
     </g>
     <g id="text_9">
      <!-- 0.2 -->
      <g transform="translate(30.42 167.761481) scale(0.1 -0.1)">
       <use xlink:href="#Helvetica-30"/>
       <use xlink:href="#Helvetica-2e" x="55.615234"/>
       <use xlink:href="#Helvetica-32" x="83.398438"/>
      </g>
     </g>
    </g>
    <g id="ytick_3">
     <g id="line2d_10">
      <g>
       <use xlink:href="#m9178c492d8" x="51.32" y="131.589524" style="stroke: #000000; stroke-width: 0.8"/>
      </g>
     </g>
     <g id="text_10">
      <!-- 0.4 -->
      <g transform="translate(30.42 135.176243) scale(0.1 -0.1)">
       <use xlink:href="#Helvetica-30"/>
       <use xlink:href="#Helvetica-2e" x="55.615234"/>
       <use xlink:href="#Helvetica-34" x="83.398438"/>
      </g>
     </g>
    </g>
    <g id="ytick_4">
     <g id="line2d_11">
      <g>
       <use xlink:href="#m9178c492d8" x="51.32" y="99.004286" style="stroke: #000000; stroke-width: 0.8"/>
      </g>
     </g>
     <g id="text_11">
      <!-- 0.6 -->
      <g transform="translate(30.42 102.591004) scale(0.1 -0.1)">
       <use xlink:href="#Helvetica-30"/>
       <use xlink:href="#Helvetica-2e" x="55.615234"/>
       <use xlink:href="#Helvetica-36" x="83.398438"/>
      </g>
     </g>
    </g>
    <g id="ytick_5">
     <g id="line2d_12">
      <g>
       <use xlink:href="#m9178c492d8" x="51.32" y="66.419048" style="stroke: #000000; stroke-width: 0.8"/>
      </g>
     </g>
     <g id="text_12">
      <!-- 0.8 -->
      <g transform="translate(30.42 70.005766) scale(0.1 -0.1)">
       <defs>
        <path id="Helvetica-38" d="M 1741 2600 
Q 2113 2600 2322 2808 
Q 2531 3016 2531 3303 
Q 2531 3553 2331 3762 
Q 2131 3972 1722 3972 
Q 1316 3972 1134 3762 
Q 953 3553 953 3272 
Q 953 2956 1187 2778 
Q 1422 2600 1741 2600 
z
M 1775 384 
Q 2166 384 2423 595 
Q 2681 806 2681 1225 
Q 2681 1659 2415 1884 
Q 2150 2109 1734 2109 
Q 1331 2109 1076 1879 
Q 822 1650 822 1244 
Q 822 894 1055 639 
Q 1288 384 1775 384 
z
M 975 2384 
Q 741 2484 609 2619 
Q 363 2869 363 3269 
Q 363 3769 725 4128 
Q 1088 4488 1753 4488 
Q 2397 4488 2762 4148 
Q 3128 3809 3128 3356 
Q 3128 2938 2916 2678 
Q 2797 2531 2547 2391 
Q 2825 2263 2984 2097 
Q 3281 1784 3281 1284 
Q 3281 694 2884 283 
Q 2488 -128 1763 -128 
Q 1109 -128 657 226 
Q 206 581 206 1256 
Q 206 1653 400 1942 
Q 594 2231 975 2384 
z
" transform="scale(0.015625)"/>
       </defs>
       <use xlink:href="#Helvetica-30"/>
       <use xlink:href="#Helvetica-2e" x="55.615234"/>
       <use xlink:href="#Helvetica-38" x="83.398438"/>
      </g>
     </g>
    </g>
    <g id="ytick_6">
     <g id="line2d_13">
      <g>
       <use xlink:href="#m9178c492d8" x="51.32" y="33.83381" style="stroke: #000000; stroke-width: 0.8"/>
      </g>
     </g>
     <g id="text_13">
      <!-- 1.0 -->
      <g transform="translate(30.42 37.420528) scale(0.1 -0.1)">
       <use xlink:href="#Helvetica-31"/>
       <use xlink:href="#Helvetica-2e" x="55.615234"/>
       <use xlink:href="#Helvetica-30" x="83.398438"/>
      </g>
     </g>
    </g>
    <g id="text_14">
     <!-- Proportion -->
     <g transform="translate(24.335625 134.290937) rotate(-90) scale(0.1 -0.1)">
      <defs>
       <path id="Helvetica-50" d="M 547 4591 
L 2613 4591 
Q 3225 4591 3600 4245 
Q 3975 3900 3975 3275 
Q 3975 2738 3640 2339 
Q 3306 1941 2613 1941 
L 1169 1941 
L 1169 0 
L 547 0 
L 547 4591 
z
M 3347 3272 
Q 3347 3778 2972 3959 
Q 2766 4056 2406 4056 
L 1169 4056 
L 1169 2466 
L 2406 2466 
Q 2825 2466 3086 2644 
Q 3347 2822 3347 3272 
z
" transform="scale(0.015625)"/>
       <path id="Helvetica-72" d="M 428 3347 
L 963 3347 
L 963 2769 
Q 1028 2938 1284 3180 
Q 1541 3422 1875 3422 
Q 1891 3422 1928 3419 
Q 1966 3416 2056 3406 
L 2056 2813 
Q 2006 2822 1964 2825 
Q 1922 2828 1872 2828 
Q 1447 2828 1219 2554 
Q 991 2281 991 1925 
L 991 0 
L 428 0 
L 428 3347 
z
" transform="scale(0.015625)"/>
       <path id="Helvetica-6f" d="M 1741 363 
Q 2300 363 2508 786 
Q 2716 1209 2716 1728 
Q 2716 2197 2566 2491 
Q 2328 2953 1747 2953 
Q 1231 2953 997 2559 
Q 763 2166 763 1609 
Q 763 1075 997 719 
Q 1231 363 1741 363 
z
M 1763 3444 
Q 2409 3444 2856 3012 
Q 3303 2581 3303 1744 
Q 3303 934 2909 406 
Q 2516 -122 1688 -122 
Q 997 -122 590 345 
Q 184 813 184 1600 
Q 184 2444 612 2944 
Q 1041 3444 1763 3444 
z
M 1744 3428 
L 1744 3428 
z
" transform="scale(0.015625)"/>
       <path id="Helvetica-70" d="M 1825 378 
Q 2219 378 2480 708 
Q 2741 1038 2741 1694 
Q 2741 2094 2625 2381 
Q 2406 2934 1825 2934 
Q 1241 2934 1025 2350 
Q 909 2038 909 1556 
Q 909 1169 1025 897 
Q 1244 378 1825 378 
z
M 369 3331 
L 916 3331 
L 916 2888 
Q 1084 3116 1284 3241 
Q 1569 3428 1953 3428 
Q 2522 3428 2919 2992 
Q 3316 2556 3316 1747 
Q 3316 653 2744 184 
Q 2381 -113 1900 -113 
Q 1522 -113 1266 53 
Q 1116 147 931 375 
L 931 -1334 
L 369 -1334 
L 369 3331 
z
" transform="scale(0.015625)"/>
       <path id="Helvetica-74" d="M 525 4281 
L 1094 4281 
L 1094 3347 
L 1628 3347 
L 1628 2888 
L 1094 2888 
L 1094 703 
Q 1094 528 1213 469 
Q 1278 434 1431 434 
Q 1472 434 1519 436 
Q 1566 438 1628 444 
L 1628 0 
Q 1531 -28 1426 -40 
Q 1322 -53 1200 -53 
Q 806 -53 665 148 
Q 525 350 525 672 
L 525 2888 
L 72 2888 
L 72 3347 
L 525 3347 
L 525 4281 
z
" transform="scale(0.015625)"/>
       <path id="Helvetica-69" d="M 413 3331 
L 984 3331 
L 984 0 
L 413 0 
L 413 3331 
z
M 413 4591 
L 984 4591 
L 984 3953 
L 413 3953 
L 413 4591 
z
" transform="scale(0.015625)"/>
       <path id="Helvetica-6e" d="M 413 3347 
L 947 3347 
L 947 2872 
Q 1184 3166 1450 3294 
Q 1716 3422 2041 3422 
Q 2753 3422 3003 2925 
Q 3141 2653 3141 2147 
L 3141 0 
L 2569 0 
L 2569 2109 
Q 2569 2416 2478 2603 
Q 2328 2916 1934 2916 
Q 1734 2916 1606 2875 
Q 1375 2806 1200 2600 
Q 1059 2434 1017 2257 
Q 975 2081 975 1753 
L 975 0 
L 413 0 
L 413 3347 
z
M 1734 3428 
L 1734 3428 
z
" transform="scale(0.015625)"/>
      </defs>
      <use xlink:href="#Helvetica-50"/>
      <use xlink:href="#Helvetica-72" x="66.699219"/>
      <use xlink:href="#Helvetica-6f" x="100"/>
      <use xlink:href="#Helvetica-70" x="155.615234"/>
      <use xlink:href="#Helvetica-6f" x="211.230469"/>
      <use xlink:href="#Helvetica-72" x="266.845703"/>
      <use xlink:href="#Helvetica-74" x="300.146484"/>
      <use xlink:href="#Helvetica-69" x="327.929688"/>
      <use xlink:href="#Helvetica-6f" x="350.146484"/>
      <use xlink:href="#Helvetica-6e" x="405.761719"/>
     </g>
    </g>
   </g>
   <g id="patch_3">
    <path d="M 51.32 196.76 
L 51.32 25.6875 
" style="fill: none; stroke: #000000; stroke-width: 0.8; stroke-linejoin: miter; stroke-linecap: square"/>
   </g>
   <g id="patch_4">
    <path d="M 709.2 196.76 
L 709.2 25.6875 
" style="fill: none; stroke: #000000; stroke-width: 0.8; stroke-linejoin: miter; stroke-linecap: square"/>
   </g>
   <g id="patch_5">
    <path d="M 51.32 196.76 
L 709.2 196.76 
" style="fill: none; stroke: #000000; stroke-width: 0.8; stroke-linejoin: miter; stroke-linecap: square"/>
   </g>
   <g id="patch_6">
    <path d="M 51.32 25.6875 
L 709.2 25.6875 
" style="fill: none; stroke: #000000; stroke-width: 0.8; stroke-linejoin: miter; stroke-linecap: square"/>
   </g>
   <g id="text_15">
    <!-- Proportions of Each Category -->
    <g transform="translate(301.555938 19.6875) scale(0.12 -0.12)">
     <defs>
      <path id="Helvetica-73" d="M 747 1050 
Q 772 769 888 619 
Q 1100 347 1625 347 
Q 1938 347 2175 483 
Q 2413 619 2413 903 
Q 2413 1119 2222 1231 
Q 2100 1300 1741 1391 
L 1294 1503 
Q 866 1609 663 1741 
Q 300 1969 300 2372 
Q 300 2847 642 3140 
Q 984 3434 1563 3434 
Q 2319 3434 2653 2991 
Q 2863 2709 2856 2384 
L 2325 2384 
Q 2309 2575 2191 2731 
Q 1997 2953 1519 2953 
Q 1200 2953 1036 2831 
Q 872 2709 872 2509 
Q 872 2291 1088 2159 
Q 1213 2081 1456 2022 
L 1828 1931 
Q 2434 1784 2641 1647 
Q 2969 1431 2969 969 
Q 2969 522 2630 197 
Q 2291 -128 1597 -128 
Q 850 -128 539 211 
Q 228 550 206 1050 
L 747 1050 
z
M 1578 3428 
L 1578 3428 
z
" transform="scale(0.015625)"/>
      <path id="Helvetica-20" transform="scale(0.015625)"/>
      <path id="Helvetica-66" d="M 553 3856 
Q 566 4206 675 4369 
Q 872 4656 1434 4656 
Q 1488 4656 1544 4653 
Q 1600 4650 1672 4644 
L 1672 4131 
Q 1584 4138 1545 4139 
Q 1506 4141 1472 4141 
Q 1216 4141 1166 4008 
Q 1116 3875 1116 3331 
L 1672 3331 
L 1672 2888 
L 1109 2888 
L 1109 0 
L 553 0 
L 553 2888 
L 88 2888 
L 88 3331 
L 553 3331 
L 553 3856 
z
" transform="scale(0.015625)"/>
      <path id="Helvetica-45" d="M 547 4591 
L 3894 4591 
L 3894 4028 
L 1153 4028 
L 1153 2634 
L 3688 2634 
L 3688 2103 
L 1153 2103 
L 1153 547 
L 3941 547 
L 3941 0 
L 547 0 
L 547 4591 
z
M 2244 4591 
L 2244 4591 
z
" transform="scale(0.015625)"/>
      <path id="Helvetica-61" d="M 844 891 
Q 844 647 1022 506 
Q 1200 366 1444 366 
Q 1741 366 2019 503 
Q 2488 731 2488 1250 
L 2488 1703 
Q 2384 1638 2221 1594 
Q 2059 1550 1903 1531 
L 1563 1488 
Q 1256 1447 1103 1359 
Q 844 1213 844 891 
z
M 2206 2028 
Q 2400 2053 2466 2191 
Q 2503 2266 2503 2406 
Q 2503 2694 2298 2823 
Q 2094 2953 1713 2953 
Q 1272 2953 1088 2716 
Q 984 2584 953 2325 
L 428 2325 
Q 444 2944 830 3186 
Q 1216 3428 1725 3428 
Q 2316 3428 2684 3203 
Q 3050 2978 3050 2503 
L 3050 575 
Q 3050 488 3086 434 
Q 3122 381 3238 381 
Q 3275 381 3322 386 
Q 3369 391 3422 400 
L 3422 -16 
Q 3291 -53 3222 -62 
Q 3153 -72 3034 -72 
Q 2744 -72 2613 134 
Q 2544 244 2516 444 
Q 2344 219 2022 53 
Q 1700 -113 1313 -113 
Q 847 -113 551 170 
Q 256 453 256 878 
Q 256 1344 547 1600 
Q 838 1856 1309 1916 
L 2206 2028 
z
M 1741 3428 
L 1741 3428 
z
" transform="scale(0.015625)"/>
      <path id="Helvetica-63" d="M 1703 3444 
Q 2269 3444 2623 3169 
Q 2978 2894 3050 2222 
L 2503 2222 
Q 2453 2531 2275 2736 
Q 2097 2941 1703 2941 
Q 1166 2941 934 2416 
Q 784 2075 784 1575 
Q 784 1072 996 728 
Q 1209 384 1666 384 
Q 2016 384 2220 598 
Q 2425 813 2503 1184 
L 3050 1184 
Q 2956 519 2581 211 
Q 2206 -97 1622 -97 
Q 966 -97 575 383 
Q 184 863 184 1581 
Q 184 2463 612 2953 
Q 1041 3444 1703 3444 
z
M 1616 3428 
L 1616 3428 
z
" transform="scale(0.015625)"/>
      <path id="Helvetica-68" d="M 413 4606 
L 975 4606 
L 975 2894 
Q 1175 3147 1334 3250 
Q 1606 3428 2013 3428 
Q 2741 3428 3000 2919 
Q 3141 2641 3141 2147 
L 3141 0 
L 2563 0 
L 2563 2109 
Q 2563 2478 2469 2650 
Q 2316 2925 1894 2925 
Q 1544 2925 1259 2684 
Q 975 2444 975 1775 
L 975 0 
L 413 0 
L 413 4606 
z
" transform="scale(0.015625)"/>
      <path id="Helvetica-43" d="M 2422 4716 
Q 3294 4716 3775 4256 
Q 4256 3797 4309 3213 
L 3703 3213 
Q 3600 3656 3292 3915 
Q 2984 4175 2428 4175 
Q 1750 4175 1333 3698 
Q 916 3222 916 2238 
Q 916 1431 1292 929 
Q 1669 428 2416 428 
Q 3103 428 3463 956 
Q 3653 1234 3747 1688 
L 4353 1688 
Q 4272 963 3816 472 
Q 3269 -119 2341 -119 
Q 1541 -119 997 366 
Q 281 1006 281 2344 
Q 281 3359 819 4009 
Q 1400 4716 2422 4716 
z
M 2297 4716 
L 2297 4716 
z
" transform="scale(0.015625)"/>
      <path id="Helvetica-65" d="M 1806 3422 
Q 2163 3422 2497 3255 
Q 2831 3088 3006 2822 
Q 3175 2569 3231 2231 
Q 3281 2000 3281 1494 
L 828 1494 
Q 844 984 1069 676 
Q 1294 369 1766 369 
Q 2206 369 2469 659 
Q 2619 828 2681 1050 
L 3234 1050 
Q 3213 866 3089 639 
Q 2966 413 2813 269 
Q 2556 19 2178 -69 
Q 1975 -119 1719 -119 
Q 1094 -119 659 336 
Q 225 791 225 1609 
Q 225 2416 662 2919 
Q 1100 3422 1806 3422 
z
M 2703 1941 
Q 2669 2306 2544 2525 
Q 2313 2931 1772 2931 
Q 1384 2931 1121 2651 
Q 859 2372 844 1941 
L 2703 1941 
z
M 1753 3428 
L 1753 3428 
z
" transform="scale(0.015625)"/>
      <path id="Helvetica-67" d="M 1594 3406 
Q 1988 3406 2281 3213 
Q 2441 3103 2606 2894 
L 2606 3316 
L 3125 3316 
L 3125 272 
Q 3125 -366 2938 -734 
Q 2588 -1416 1616 -1416 
Q 1075 -1416 706 -1173 
Q 338 -931 294 -416 
L 866 -416 
Q 906 -641 1028 -763 
Q 1219 -950 1628 -950 
Q 2275 -950 2475 -494 
Q 2594 -225 2584 466 
Q 2416 209 2178 84 
Q 1941 -41 1550 -41 
Q 1006 -41 598 345 
Q 191 731 191 1622 
Q 191 2463 602 2934 
Q 1013 3406 1594 3406 
z
M 2606 1688 
Q 2606 2309 2350 2609 
Q 2094 2909 1697 2909 
Q 1103 2909 884 2353 
Q 769 2056 769 1575 
Q 769 1009 998 714 
Q 1228 419 1616 419 
Q 2222 419 2469 966 
Q 2606 1275 2606 1688 
z
M 1659 3428 
L 1659 3428 
z
" transform="scale(0.015625)"/>
      <path id="Helvetica-79" d="M 2503 3347 
L 3125 3347 
Q 3006 3025 2597 1878 
Q 2291 1016 2084 472 
Q 1597 -809 1397 -1090 
Q 1197 -1372 709 -1372 
Q 591 -1372 527 -1362 
Q 463 -1353 369 -1328 
L 369 -816 
Q 516 -856 581 -865 
Q 647 -875 697 -875 
Q 853 -875 926 -823 
Q 1000 -772 1050 -697 
Q 1066 -672 1162 -440 
Q 1259 -209 1303 -97 
L 66 3347 
L 703 3347 
L 1600 622 
L 2503 3347 
z
M 1597 3428 
L 1597 3428 
z
" transform="scale(0.015625)"/>
     </defs>
     <use xlink:href="#Helvetica-50"/>
     <use xlink:href="#Helvetica-72" x="66.699219"/>
     <use xlink:href="#Helvetica-6f" x="100"/>
     <use xlink:href="#Helvetica-70" x="155.615234"/>
     <use xlink:href="#Helvetica-6f" x="211.230469"/>
     <use xlink:href="#Helvetica-72" x="266.845703"/>
     <use xlink:href="#Helvetica-74" x="300.146484"/>
     <use xlink:href="#Helvetica-69" x="327.929688"/>
     <use xlink:href="#Helvetica-6f" x="350.146484"/>
     <use xlink:href="#Helvetica-6e" x="405.761719"/>
     <use xlink:href="#Helvetica-73" x="461.376953"/>
     <use xlink:href="#Helvetica-20" x="511.376953"/>
     <use xlink:href="#Helvetica-6f" x="539.160156"/>
     <use xlink:href="#Helvetica-66" x="594.775391"/>
     <use xlink:href="#Helvetica-20" x="622.558594"/>
     <use xlink:href="#Helvetica-45" x="650.341797"/>
     <use xlink:href="#Helvetica-61" x="717.041016"/>
     <use xlink:href="#Helvetica-63" x="772.65625"/>
     <use xlink:href="#Helvetica-68" x="822.65625"/>
     <use xlink:href="#Helvetica-20" x="878.271484"/>
     <use xlink:href="#Helvetica-43" x="906.054688"/>
     <use xlink:href="#Helvetica-61" x="978.271484"/>
     <use xlink:href="#Helvetica-74" x="1033.886719"/>
     <use xlink:href="#Helvetica-65" x="1061.669922"/>
     <use xlink:href="#Helvetica-67" x="1117.285156"/>
     <use xlink:href="#Helvetica-6f" x="1172.900391"/>
     <use xlink:href="#Helvetica-72" x="1228.515625"/>
     <use xlink:href="#Helvetica-79" x="1261.816406"/>
    </g>
   </g>
  </g>
  <g id="axes_2">
   <g id="patch_7">
    <path d="M 51.32 410.6 
L 709.2 410.6 
L 709.2 239.5275 
L 51.32 239.5275 
z
" style="fill: #ffffff"/>
   </g>
   <g id="matplotlib.axis_3">
    <g id="xtick_8">
     <g id="line2d_14">
      <g>
       <use xlink:href="#m635887cfdd" x="81.223636" y="410.6" style="stroke: #000000; stroke-width: 0.8"/>
      </g>
     </g>
     <g id="text_16">
      <!-- 0 -->
      <g transform="translate(78.443168 424.773437) scale(0.1 -0.1)">
       <use xlink:href="#Helvetica-30"/>
      </g>
     </g>
    </g>
    <g id="xtick_9">
     <g id="line2d_15">
      <g>
       <use xlink:href="#m635887cfdd" x="182.591895" y="410.6" style="stroke: #000000; stroke-width: 0.8"/>
      </g>
     </g>
     <g id="text_17">
      <!-- 10 -->
      <g transform="translate(177.030958 424.773437) scale(0.1 -0.1)">
       <use xlink:href="#Helvetica-31"/>
       <use xlink:href="#Helvetica-30" x="55.615234"/>
      </g>
     </g>
    </g>
    <g id="xtick_10">
     <g id="line2d_16">
      <g>
       <use xlink:href="#m635887cfdd" x="283.960154" y="410.6" style="stroke: #000000; stroke-width: 0.8"/>
      </g>
     </g>
     <g id="text_18">
      <!-- 20 -->
      <g transform="translate(278.399217 424.773437) scale(0.1 -0.1)">
       <use xlink:href="#Helvetica-32"/>
       <use xlink:href="#Helvetica-30" x="55.615234"/>
      </g>
     </g>
    </g>
    <g id="xtick_11">
     <g id="line2d_17">
      <g>
       <use xlink:href="#m635887cfdd" x="385.328413" y="410.6" style="stroke: #000000; stroke-width: 0.8"/>
      </g>
     </g>
     <g id="text_19">
      <!-- 30 -->
      <g transform="translate(379.767475 424.773437) scale(0.1 -0.1)">
       <use xlink:href="#Helvetica-33"/>
       <use xlink:href="#Helvetica-30" x="55.615234"/>
      </g>
     </g>
    </g>
    <g id="xtick_12">
     <g id="line2d_18">
      <g>
       <use xlink:href="#m635887cfdd" x="486.696672" y="410.6" style="stroke: #000000; stroke-width: 0.8"/>
      </g>
     </g>
     <g id="text_20">
      <!-- 40 -->
      <g transform="translate(481.135734 424.773437) scale(0.1 -0.1)">
       <use xlink:href="#Helvetica-34"/>
       <use xlink:href="#Helvetica-30" x="55.615234"/>
      </g>
     </g>
    </g>
    <g id="xtick_13">
     <g id="line2d_19">
      <g>
       <use xlink:href="#m635887cfdd" x="588.064931" y="410.6" style="stroke: #000000; stroke-width: 0.8"/>
      </g>
     </g>
     <g id="text_21">
      <!-- 50 -->
      <g transform="translate(582.503993 424.773437) scale(0.1 -0.1)">
       <use xlink:href="#Helvetica-35"/>
       <use xlink:href="#Helvetica-30" x="55.615234"/>
      </g>
     </g>
    </g>
    <g id="xtick_14">
     <g id="line2d_20">
      <g>
       <use xlink:href="#m635887cfdd" x="689.43319" y="410.6" style="stroke: #000000; stroke-width: 0.8"/>
      </g>
     </g>
     <g id="text_22">
      <!-- 60 -->
      <g transform="translate(683.872252 424.773437) scale(0.1 -0.1)">
       <use xlink:href="#Helvetica-36"/>
       <use xlink:href="#Helvetica-30" x="55.615234"/>
      </g>
     </g>
    </g>
   </g>
   <g id="matplotlib.axis_4">
    <g id="ytick_7">
     <g id="line2d_21">
      <g>
       <use xlink:href="#m9178c492d8" x="51.32" y="402.823977" style="stroke: #000000; stroke-width: 0.8"/>
      </g>
     </g>
     <g id="text_23">
      <!-- 0.0 -->
      <g transform="translate(30.42 406.410696) scale(0.1 -0.1)">
       <use xlink:href="#Helvetica-30"/>
       <use xlink:href="#Helvetica-2e" x="55.615234"/>
       <use xlink:href="#Helvetica-30" x="83.398438"/>
      </g>
     </g>
    </g>
    <g id="ytick_8">
     <g id="line2d_22">
      <g>
       <use xlink:href="#m9178c492d8" x="51.32" y="361.389625" style="stroke: #000000; stroke-width: 0.8"/>
      </g>
     </g>
     <g id="text_24">
      <!-- 0.1 -->
      <g transform="translate(30.42 364.976344) scale(0.1 -0.1)">
       <use xlink:href="#Helvetica-30"/>
       <use xlink:href="#Helvetica-2e" x="55.615234"/>
       <use xlink:href="#Helvetica-31" x="83.398438"/>
      </g>
     </g>
    </g>
    <g id="ytick_9">
     <g id="line2d_23">
      <g>
       <use xlink:href="#m9178c492d8" x="51.32" y="319.955273" style="stroke: #000000; stroke-width: 0.8"/>
      </g>
     </g>
     <g id="text_25">
      <!-- 0.2 -->
      <g transform="translate(30.42 323.541992) scale(0.1 -0.1)">
       <use xlink:href="#Helvetica-30"/>
       <use xlink:href="#Helvetica-2e" x="55.615234"/>
       <use xlink:href="#Helvetica-32" x="83.398438"/>
      </g>
     </g>
    </g>
    <g id="ytick_10">
     <g id="line2d_24">
      <g>
       <use xlink:href="#m9178c492d8" x="51.32" y="278.520921" style="stroke: #000000; stroke-width: 0.8"/>
      </g>
     </g>
     <g id="text_26">
      <!-- 0.3 -->
      <g transform="translate(30.42 282.107639) scale(0.1 -0.1)">
       <use xlink:href="#Helvetica-30"/>
       <use xlink:href="#Helvetica-2e" x="55.615234"/>
       <use xlink:href="#Helvetica-33" x="83.398438"/>
      </g>
     </g>
    </g>
    <g id="text_27">
     <!-- Jensen-Shannon Distance -->
     <g transform="translate(24.335625 383.709844) rotate(-90) scale(0.1 -0.1)">
      <defs>
       <path id="Helvetica-4a" d="M 2741 1369 
Q 2741 788 2569 466 
Q 2250 -122 1356 -122 
Q 841 -122 475 158 
Q 109 438 109 1153 
L 109 1481 
L 694 1481 
L 694 1153 
Q 694 778 861 589 
Q 1028 400 1381 400 
Q 1878 400 2031 741 
Q 2125 950 2125 1531 
L 2125 4591 
L 2741 4591 
L 2741 1369 
z
" transform="scale(0.015625)"/>
       <path id="Helvetica-2d" d="M 266 2072 
L 1834 2072 
L 1834 1494 
L 266 1494 
L 266 2072 
z
" transform="scale(0.015625)"/>
       <path id="Helvetica-53" d="M 894 1481 
Q 916 1091 1078 847 
Q 1388 391 2169 391 
Q 2519 391 2806 491 
Q 3363 684 3363 1184 
Q 3363 1559 3128 1719 
Q 2891 1875 2384 1991 
L 1763 2131 
Q 1153 2269 900 2434 
Q 463 2722 463 3294 
Q 463 3913 891 4309 
Q 1319 4706 2103 4706 
Q 2825 4706 3329 4357 
Q 3834 4009 3834 3244 
L 3250 3244 
Q 3203 3613 3050 3809 
Q 2766 4169 2084 4169 
Q 1534 4169 1293 3937 
Q 1053 3706 1053 3400 
Q 1053 3063 1334 2906 
Q 1519 2806 2169 2656 
L 2813 2509 
Q 3278 2403 3531 2219 
Q 3969 1897 3969 1284 
Q 3969 522 3414 194 
Q 2859 -134 2125 -134 
Q 1269 -134 784 303 
Q 300 738 309 1481 
L 894 1481 
z
M 2150 4716 
L 2150 4716 
z
" transform="scale(0.015625)"/>
       <path id="Helvetica-44" d="M 2250 531 
Q 2566 531 2769 597 
Q 3131 719 3363 1066 
Q 3547 1344 3628 1778 
Q 3675 2038 3675 2259 
Q 3675 3113 3336 3584 
Q 2997 4056 2244 4056 
L 1141 4056 
L 1141 531 
L 2250 531 
z
M 516 4591 
L 2375 4591 
Q 3322 4591 3844 3919 
Q 4309 3313 4309 2366 
Q 4309 1634 4034 1044 
Q 3550 0 2369 0 
L 516 0 
L 516 4591 
z
" transform="scale(0.015625)"/>
      </defs>
      <use xlink:href="#Helvetica-4a"/>
      <use xlink:href="#Helvetica-65" x="50"/>
      <use xlink:href="#Helvetica-6e" x="105.615234"/>
      <use xlink:href="#Helvetica-73" x="161.230469"/>
      <use xlink:href="#Helvetica-65" x="211.230469"/>
      <use xlink:href="#Helvetica-6e" x="266.845703"/>
      <use xlink:href="#Helvetica-2d" x="322.460938"/>
      <use xlink:href="#Helvetica-53" x="355.761719"/>
      <use xlink:href="#Helvetica-68" x="422.460938"/>
      <use xlink:href="#Helvetica-61" x="478.076172"/>
      <use xlink:href="#Helvetica-6e" x="533.691406"/>
      <use xlink:href="#Helvetica-6e" x="589.306641"/>
      <use xlink:href="#Helvetica-6f" x="644.921875"/>
      <use xlink:href="#Helvetica-6e" x="700.537109"/>
      <use xlink:href="#Helvetica-20" x="756.152344"/>
      <use xlink:href="#Helvetica-44" x="783.935547"/>
      <use xlink:href="#Helvetica-69" x="856.152344"/>
      <use xlink:href="#Helvetica-73" x="878.369141"/>
      <use xlink:href="#Helvetica-74" x="928.369141"/>
      <use xlink:href="#Helvetica-61" x="956.152344"/>
      <use xlink:href="#Helvetica-6e" x="1011.767578"/>
      <use xlink:href="#Helvetica-63" x="1067.382812"/>
      <use xlink:href="#Helvetica-65" x="1117.382812"/>
     </g>
    </g>
   </g>
   <g id="line2d_25">
    <path d="M 81.223636 402.823977 
L 91.360462 402.823977 
L 101.497288 402.823977 
L 111.634114 402.823977 
L 121.77094 402.823977 
L 131.907766 402.823977 
L 142.044592 402.823977 
L 152.181418 402.823977 
L 162.318243 402.823977 
L 172.455069 402.823977 
L 182.591895 402.823977 
L 192.728721 382.054836 
L 202.865547 373.420859 
L 213.002373 366.774263 
L 223.139199 361.152745 
L 233.276025 356.183959 
L 243.412851 351.677127 
L 253.549676 347.519021 
L 263.686502 343.63593 
L 273.823328 339.976695 
L 283.960154 335.867873 
L 294.09698 332.584772 
L 304.233806 329.434583 
L 314.370632 326.400726 
L 324.507458 323.469718 
L 334.644284 320.630418 
L 344.781109 317.873495 
L 354.917935 315.1278 
L 365.054761 312.510914 
L 375.191587 309.955898 
L 385.328413 307.021339 
L 395.465239 304.586965 
L 405.602065 302.200168 
L 415.738891 299.857509 
L 425.875716 297.555915 
L 436.012542 295.292621 
L 446.149368 293.065131 
L 456.286194 290.87118 
L 466.42302 288.708706 
L 476.559846 286.575824 
L 486.696672 284.125637 
L 496.833498 282.053479 
L 506.970324 280.005844 
L 517.107149 277.88531 
L 527.243975 275.880869 
L 537.380801 273.897219 
L 547.517627 271.933284 
L 557.654453 269.988055 
L 567.791279 268.060588 
L 577.928105 266.149995 
L 588.064931 263.966479 
L 598.201757 262.091646 
L 608.338582 260.231181 
L 618.475408 258.384389 
L 628.612234 256.55061 
L 638.74906 254.729217 
L 648.885886 252.919613 
L 659.022712 251.121228 
L 669.159538 249.33352 
L 679.296364 247.303523 
" clip-path="url(#pf3897c5dc2)" style="fill: none; stroke: #dd4040; stroke-width: 1.5; stroke-linecap: square"/>
   </g>
   <g id="line2d_26">
    <path d="M 51.32 247.303523 
L 709.2 247.303523 
" clip-path="url(#pf3897c5dc2)" style="fill: none; stroke-dasharray: 5.55,2.4; stroke-dashoffset: 0; stroke: #000000; stroke-width: 1.5"/>
   </g>
   <g id="patch_8">
    <path d="M 51.32 410.6 
L 51.32 239.5275 
" style="fill: none; stroke: #000000; stroke-width: 0.8; stroke-linejoin: miter; stroke-linecap: square"/>
   </g>
   <g id="patch_9">
    <path d="M 709.2 410.6 
L 709.2 239.5275 
" style="fill: none; stroke: #000000; stroke-width: 0.8; stroke-linejoin: miter; stroke-linecap: square"/>
   </g>
   <g id="patch_10">
    <path d="M 51.32 410.6 
L 709.2 410.6 
" style="fill: none; stroke: #000000; stroke-width: 0.8; stroke-linejoin: miter; stroke-linecap: square"/>
   </g>
   <g id="patch_11">
    <path d="M 51.32 239.5275 
L 709.2 239.5275 
" style="fill: none; stroke: #000000; stroke-width: 0.8; stroke-linejoin: miter; stroke-linecap: square"/>
   </g>
   <g id="text_28">
    <!-- Jensen-Shannon Distance -->
    <g transform="translate(309.884687 233.5275) scale(0.12 -0.12)">
     <use xlink:href="#Helvetica-4a"/>
     <use xlink:href="#Helvetica-65" x="50"/>
     <use xlink:href="#Helvetica-6e" x="105.615234"/>
     <use xlink:href="#Helvetica-73" x="161.230469"/>
     <use xlink:href="#Helvetica-65" x="211.230469"/>
     <use xlink:href="#Helvetica-6e" x="266.845703"/>
     <use xlink:href="#Helvetica-2d" x="322.460938"/>
     <use xlink:href="#Helvetica-53" x="355.761719"/>
     <use xlink:href="#Helvetica-68" x="422.460938"/>
     <use xlink:href="#Helvetica-61" x="478.076172"/>
     <use xlink:href="#Helvetica-6e" x="533.691406"/>
     <use xlink:href="#Helvetica-6e" x="589.306641"/>
     <use xlink:href="#Helvetica-6f" x="644.921875"/>
     <use xlink:href="#Helvetica-6e" x="700.537109"/>
     <use xlink:href="#Helvetica-20" x="756.152344"/>
     <use xlink:href="#Helvetica-44" x="783.935547"/>
     <use xlink:href="#Helvetica-69" x="856.152344"/>
     <use xlink:href="#Helvetica-73" x="878.369141"/>
     <use xlink:href="#Helvetica-74" x="928.369141"/>
     <use xlink:href="#Helvetica-61" x="956.152344"/>
     <use xlink:href="#Helvetica-6e" x="1011.767578"/>
     <use xlink:href="#Helvetica-63" x="1067.382812"/>
     <use xlink:href="#Helvetica-65" x="1117.382812"/>
    </g>
   </g>
  </g>
  <g id="axes_3">
   <g id="patch_12">
    <path d="M 51.32 624.44 
L 709.2 624.44 
L 709.2 453.3675 
L 51.32 453.3675 
z
" style="fill: #ffffff"/>
   </g>
   <g id="matplotlib.axis_5">
    <g id="xtick_15">
     <g id="line2d_27">
      <g>
       <use xlink:href="#m635887cfdd" x="81.223636" y="624.44" style="stroke: #000000; stroke-width: 0.8"/>
      </g>
     </g>
     <g id="text_29">
      <!-- 0 -->
      <g transform="translate(78.443168 638.613437) scale(0.1 -0.1)">
       <use xlink:href="#Helvetica-30"/>
      </g>
     </g>
    </g>
    <g id="xtick_16">
     <g id="line2d_28">
      <g>
       <use xlink:href="#m635887cfdd" x="182.591895" y="624.44" style="stroke: #000000; stroke-width: 0.8"/>
      </g>
     </g>
     <g id="text_30">
      <!-- 10 -->
      <g transform="translate(177.030958 638.613437) scale(0.1 -0.1)">
       <use xlink:href="#Helvetica-31"/>
       <use xlink:href="#Helvetica-30" x="55.615234"/>
      </g>
     </g>
    </g>
    <g id="xtick_17">
     <g id="line2d_29">
      <g>
       <use xlink:href="#m635887cfdd" x="283.960154" y="624.44" style="stroke: #000000; stroke-width: 0.8"/>
      </g>
     </g>
     <g id="text_31">
      <!-- 20 -->
      <g transform="translate(278.399217 638.613437) scale(0.1 -0.1)">
       <use xlink:href="#Helvetica-32"/>
       <use xlink:href="#Helvetica-30" x="55.615234"/>
      </g>
     </g>
    </g>
    <g id="xtick_18">
     <g id="line2d_30">
      <g>
       <use xlink:href="#m635887cfdd" x="385.328413" y="624.44" style="stroke: #000000; stroke-width: 0.8"/>
      </g>
     </g>
     <g id="text_32">
      <!-- 30 -->
      <g transform="translate(379.767475 638.613437) scale(0.1 -0.1)">
       <use xlink:href="#Helvetica-33"/>
       <use xlink:href="#Helvetica-30" x="55.615234"/>
      </g>
     </g>
    </g>
    <g id="xtick_19">
     <g id="line2d_31">
      <g>
       <use xlink:href="#m635887cfdd" x="486.696672" y="624.44" style="stroke: #000000; stroke-width: 0.8"/>
      </g>
     </g>
     <g id="text_33">
      <!-- 40 -->
      <g transform="translate(481.135734 638.613437) scale(0.1 -0.1)">
       <use xlink:href="#Helvetica-34"/>
       <use xlink:href="#Helvetica-30" x="55.615234"/>
      </g>
     </g>
    </g>
    <g id="xtick_20">
     <g id="line2d_32">
      <g>
       <use xlink:href="#m635887cfdd" x="588.064931" y="624.44" style="stroke: #000000; stroke-width: 0.8"/>
      </g>
     </g>
     <g id="text_34">
      <!-- 50 -->
      <g transform="translate(582.503993 638.613437) scale(0.1 -0.1)">
       <use xlink:href="#Helvetica-35"/>
       <use xlink:href="#Helvetica-30" x="55.615234"/>
      </g>
     </g>
    </g>
    <g id="xtick_21">
     <g id="line2d_33">
      <g>
       <use xlink:href="#m635887cfdd" x="689.43319" y="624.44" style="stroke: #000000; stroke-width: 0.8"/>
      </g>
     </g>
     <g id="text_35">
      <!-- 60 -->
      <g transform="translate(683.872252 638.613437) scale(0.1 -0.1)">
       <use xlink:href="#Helvetica-36"/>
       <use xlink:href="#Helvetica-30" x="55.615234"/>
      </g>
     </g>
    </g>
   </g>
   <g id="matplotlib.axis_6">
    <g id="ytick_11">
     <g id="line2d_34">
      <g>
       <use xlink:href="#m9178c492d8" x="51.32" y="616.663977" style="stroke: #000000; stroke-width: 0.8"/>
      </g>
     </g>
     <g id="text_36">
      <!-- 0.0 -->
      <g transform="translate(30.42 620.250696) scale(0.1 -0.1)">
       <use xlink:href="#Helvetica-30"/>
       <use xlink:href="#Helvetica-2e" x="55.615234"/>
       <use xlink:href="#Helvetica-30" x="83.398438"/>
      </g>
     </g>
    </g>
    <g id="ytick_12">
     <g id="line2d_35">
      <g>
       <use xlink:href="#m9178c492d8" x="51.32" y="574.500273" style="stroke: #000000; stroke-width: 0.8"/>
      </g>
     </g>
     <g id="text_37">
      <!-- 0.1 -->
      <g transform="translate(30.42 578.086992) scale(0.1 -0.1)">
       <use xlink:href="#Helvetica-30"/>
       <use xlink:href="#Helvetica-2e" x="55.615234"/>
       <use xlink:href="#Helvetica-31" x="83.398438"/>
      </g>
     </g>
    </g>
    <g id="ytick_13">
     <g id="line2d_36">
      <g>
       <use xlink:href="#m9178c492d8" x="51.32" y="532.336568" style="stroke: #000000; stroke-width: 0.8"/>
      </g>
     </g>
     <g id="text_38">
      <!-- 0.2 -->
      <g transform="translate(30.42 535.923287) scale(0.1 -0.1)">
       <use xlink:href="#Helvetica-30"/>
       <use xlink:href="#Helvetica-2e" x="55.615234"/>
       <use xlink:href="#Helvetica-32" x="83.398438"/>
      </g>
     </g>
    </g>
    <g id="ytick_14">
     <g id="line2d_37">
      <g>
       <use xlink:href="#m9178c492d8" x="51.32" y="490.172864" style="stroke: #000000; stroke-width: 0.8"/>
      </g>
     </g>
     <g id="text_39">
      <!-- 0.3 -->
      <g transform="translate(30.42 493.759583) scale(0.1 -0.1)">
       <use xlink:href="#Helvetica-30"/>
       <use xlink:href="#Helvetica-2e" x="55.615234"/>
       <use xlink:href="#Helvetica-33" x="83.398438"/>
      </g>
     </g>
    </g>
    <g id="text_40">
     <!-- Hellinger Distance -->
     <g transform="translate(24.2075 579.475625) rotate(-90) scale(0.1 -0.1)">
      <defs>
       <path id="Helvetica-48" d="M 503 4591 
L 1131 4591 
L 1131 2694 
L 3519 2694 
L 3519 4591 
L 4147 4591 
L 4147 0 
L 3519 0 
L 3519 2147 
L 1131 2147 
L 1131 0 
L 503 0 
L 503 4591 
z
" transform="scale(0.015625)"/>
       <path id="Helvetica-6c" d="M 428 4591 
L 991 4591 
L 991 0 
L 428 0 
L 428 4591 
z
" transform="scale(0.015625)"/>
      </defs>
      <use xlink:href="#Helvetica-48"/>
      <use xlink:href="#Helvetica-65" x="72.216797"/>
      <use xlink:href="#Helvetica-6c" x="127.832031"/>
      <use xlink:href="#Helvetica-6c" x="150.048828"/>
      <use xlink:href="#Helvetica-69" x="172.265625"/>
      <use xlink:href="#Helvetica-6e" x="194.482422"/>
      <use xlink:href="#Helvetica-67" x="250.097656"/>
      <use xlink:href="#Helvetica-65" x="305.712891"/>
      <use xlink:href="#Helvetica-72" x="361.328125"/>
      <use xlink:href="#Helvetica-20" x="394.628906"/>
      <use xlink:href="#Helvetica-44" x="422.412109"/>
      <use xlink:href="#Helvetica-69" x="494.628906"/>
      <use xlink:href="#Helvetica-73" x="516.845703"/>
      <use xlink:href="#Helvetica-74" x="566.845703"/>
      <use xlink:href="#Helvetica-61" x="594.628906"/>
      <use xlink:href="#Helvetica-6e" x="650.244141"/>
      <use xlink:href="#Helvetica-63" x="705.859375"/>
      <use xlink:href="#Helvetica-65" x="755.859375"/>
     </g>
    </g>
   </g>
   <g id="line2d_38">
    <path d="M 81.223636 616.663977 
L 91.360462 616.663977 
L 101.497288 616.663977 
L 111.634114 616.663977 
L 121.77094 616.663977 
L 131.907766 616.663977 
L 142.044592 616.663977 
L 152.181418 616.663977 
L 162.318243 616.663977 
L 172.455069 616.663977 
L 182.591895 616.663977 
L 192.728721 595.535744 
L 202.865547 586.762184 
L 213.002373 580.014805 
L 223.139199 574.313658 
L 233.276025 569.279444 
L 243.412851 564.717764 
L 253.549676 560.513208 
L 263.686502 556.590622 
L 273.823328 552.897834 
L 283.960154 548.75459 
L 294.09698 545.448527 
L 304.233806 542.27947 
L 314.370632 539.230493 
L 324.507458 536.287831 
L 334.644284 533.440105 
L 344.781109 530.677784 
L 354.917935 527.934623 
L 365.054761 525.31814 
L 375.191587 522.766113 
L 385.328413 519.836344 
L 395.465239 517.410157 
L 405.602065 515.033817 
L 415.738891 512.70381 
L 425.875716 510.416995 
L 436.012542 508.170546 
L 446.149368 505.961912 
L 456.286194 503.788778 
L 466.42302 501.649037 
L 476.559846 499.540765 
L 486.696672 497.119209 
L 496.833498 495.075517 
L 506.970324 493.058114 
L 517.107149 490.978652 
L 527.243975 489.008154 
L 537.380801 487.060136 
L 547.517627 485.133502 
L 557.654453 483.227221 
L 567.791279 481.340332 
L 577.928105 479.471931 
L 588.064931 477.336218 
L 598.201757 475.506902 
L 608.338582 473.69352 
L 618.475408 471.895363 
L 628.612234 470.111762 
L 638.74906 468.342077 
L 648.885886 466.585704 
L 659.022712 464.842064 
L 669.159538 463.110606 
L 679.296364 461.143523 
" clip-path="url(#pe668ffaa78)" style="fill: none; stroke: #dd4040; stroke-width: 1.5; stroke-linecap: square"/>
   </g>
   <g id="line2d_39">
    <path d="M 51.32 461.143523 
L 709.2 461.143523 
" clip-path="url(#pe668ffaa78)" style="fill: none; stroke-dasharray: 5.55,2.4; stroke-dashoffset: 0; stroke: #000000; stroke-width: 1.5"/>
   </g>
   <g id="patch_13">
    <path d="M 51.32 624.44 
L 51.32 453.3675 
" style="fill: none; stroke: #000000; stroke-width: 0.8; stroke-linejoin: miter; stroke-linecap: square"/>
   </g>
   <g id="patch_14">
    <path d="M 709.2 624.44 
L 709.2 453.3675 
" style="fill: none; stroke: #000000; stroke-width: 0.8; stroke-linejoin: miter; stroke-linecap: square"/>
   </g>
   <g id="patch_15">
    <path d="M 51.32 624.44 
L 709.2 624.44 
" style="fill: none; stroke: #000000; stroke-width: 0.8; stroke-linejoin: miter; stroke-linecap: square"/>
   </g>
   <g id="patch_16">
    <path d="M 51.32 453.3675 
L 709.2 453.3675 
" style="fill: none; stroke: #000000; stroke-width: 0.8; stroke-linejoin: miter; stroke-linecap: square"/>
   </g>
   <g id="text_41">
    <!-- Hellinger Distance -->
    <g transform="translate(331.57375 447.3675) scale(0.12 -0.12)">
     <use xlink:href="#Helvetica-48"/>
     <use xlink:href="#Helvetica-65" x="72.216797"/>
     <use xlink:href="#Helvetica-6c" x="127.832031"/>
     <use xlink:href="#Helvetica-6c" x="150.048828"/>
     <use xlink:href="#Helvetica-69" x="172.265625"/>
     <use xlink:href="#Helvetica-6e" x="194.482422"/>
     <use xlink:href="#Helvetica-67" x="250.097656"/>
     <use xlink:href="#Helvetica-65" x="305.712891"/>
     <use xlink:href="#Helvetica-72" x="361.328125"/>
     <use xlink:href="#Helvetica-20" x="394.628906"/>
     <use xlink:href="#Helvetica-44" x="422.412109"/>
     <use xlink:href="#Helvetica-69" x="494.628906"/>
     <use xlink:href="#Helvetica-73" x="516.845703"/>
     <use xlink:href="#Helvetica-74" x="566.845703"/>
     <use xlink:href="#Helvetica-61" x="594.628906"/>
     <use xlink:href="#Helvetica-6e" x="650.244141"/>
     <use xlink:href="#Helvetica-63" x="705.859375"/>
     <use xlink:href="#Helvetica-65" x="755.859375"/>
    </g>
   </g>
  </g>
  <g id="axes_4">
   <g id="patch_17">
    <path d="M 51.32 838.28 
L 709.2 838.28 
L 709.2 667.2075 
L 51.32 667.2075 
z
" style="fill: #ffffff"/>
   </g>
   <g id="matplotlib.axis_7">
    <g id="xtick_22">
     <g id="line2d_40">
      <g>
       <use xlink:href="#m635887cfdd" x="81.223636" y="838.28" style="stroke: #000000; stroke-width: 0.8"/>
      </g>
     </g>
     <g id="text_42">
      <!-- 0 -->
      <g transform="translate(78.443168 852.453437) scale(0.1 -0.1)">
       <use xlink:href="#Helvetica-30"/>
      </g>
     </g>
    </g>
    <g id="xtick_23">
     <g id="line2d_41">
      <g>
       <use xlink:href="#m635887cfdd" x="182.591895" y="838.28" style="stroke: #000000; stroke-width: 0.8"/>
      </g>
     </g>
     <g id="text_43">
      <!-- 10 -->
      <g transform="translate(177.030958 852.453437) scale(0.1 -0.1)">
       <use xlink:href="#Helvetica-31"/>
       <use xlink:href="#Helvetica-30" x="55.615234"/>
      </g>
     </g>
    </g>
    <g id="xtick_24">
     <g id="line2d_42">
      <g>
       <use xlink:href="#m635887cfdd" x="283.960154" y="838.28" style="stroke: #000000; stroke-width: 0.8"/>
      </g>
     </g>
     <g id="text_44">
      <!-- 20 -->
      <g transform="translate(278.399217 852.453437) scale(0.1 -0.1)">
       <use xlink:href="#Helvetica-32"/>
       <use xlink:href="#Helvetica-30" x="55.615234"/>
      </g>
     </g>
    </g>
    <g id="xtick_25">
     <g id="line2d_43">
      <g>
       <use xlink:href="#m635887cfdd" x="385.328413" y="838.28" style="stroke: #000000; stroke-width: 0.8"/>
      </g>
     </g>
     <g id="text_45">
      <!-- 30 -->
      <g transform="translate(379.767475 852.453437) scale(0.1 -0.1)">
       <use xlink:href="#Helvetica-33"/>
       <use xlink:href="#Helvetica-30" x="55.615234"/>
      </g>
     </g>
    </g>
    <g id="xtick_26">
     <g id="line2d_44">
      <g>
       <use xlink:href="#m635887cfdd" x="486.696672" y="838.28" style="stroke: #000000; stroke-width: 0.8"/>
      </g>
     </g>
     <g id="text_46">
      <!-- 40 -->
      <g transform="translate(481.135734 852.453437) scale(0.1 -0.1)">
       <use xlink:href="#Helvetica-34"/>
       <use xlink:href="#Helvetica-30" x="55.615234"/>
      </g>
     </g>
    </g>
    <g id="xtick_27">
     <g id="line2d_45">
      <g>
       <use xlink:href="#m635887cfdd" x="588.064931" y="838.28" style="stroke: #000000; stroke-width: 0.8"/>
      </g>
     </g>
     <g id="text_47">
      <!-- 50 -->
      <g transform="translate(582.503993 852.453437) scale(0.1 -0.1)">
       <use xlink:href="#Helvetica-35"/>
       <use xlink:href="#Helvetica-30" x="55.615234"/>
      </g>
     </g>
    </g>
    <g id="xtick_28">
     <g id="line2d_46">
      <g>
       <use xlink:href="#m635887cfdd" x="689.43319" y="838.28" style="stroke: #000000; stroke-width: 0.8"/>
      </g>
     </g>
     <g id="text_48">
      <!-- 60 -->
      <g transform="translate(683.872252 852.453437) scale(0.1 -0.1)">
       <use xlink:href="#Helvetica-36"/>
       <use xlink:href="#Helvetica-30" x="55.615234"/>
      </g>
     </g>
    </g>
   </g>
   <g id="matplotlib.axis_8">
    <g id="ytick_15">
     <g id="line2d_47">
      <g>
       <use xlink:href="#m9178c492d8" x="51.32" y="830.503977" style="stroke: #000000; stroke-width: 0.8"/>
      </g>
     </g>
     <g id="text_49">
      <!-- 0 -->
      <g transform="translate(38.759063 834.090696) scale(0.1 -0.1)">
       <use xlink:href="#Helvetica-30"/>
      </g>
     </g>
    </g>
    <g id="ytick_16">
     <g id="line2d_48">
      <g>
       <use xlink:href="#m9178c492d8" x="51.32" y="804.028471" style="stroke: #000000; stroke-width: 0.8"/>
      </g>
     </g>
     <g id="text_50">
      <!-- 50 -->
      <g transform="translate(33.198125 807.61519) scale(0.1 -0.1)">
       <use xlink:href="#Helvetica-35"/>
       <use xlink:href="#Helvetica-30" x="55.615234"/>
      </g>
     </g>
    </g>
    <g id="ytick_17">
     <g id="line2d_49">
      <g>
       <use xlink:href="#m9178c492d8" x="51.32" y="777.552965" style="stroke: #000000; stroke-width: 0.8"/>
      </g>
     </g>
     <g id="text_51">
      <!-- 100 -->
      <g transform="translate(27.637188 781.139684) scale(0.1 -0.1)">
       <use xlink:href="#Helvetica-31"/>
       <use xlink:href="#Helvetica-30" x="55.615234"/>
       <use xlink:href="#Helvetica-30" x="111.230469"/>
      </g>
     </g>
    </g>
    <g id="ytick_18">
     <g id="line2d_50">
      <g>
       <use xlink:href="#m9178c492d8" x="51.32" y="751.077459" style="stroke: #000000; stroke-width: 0.8"/>
      </g>
     </g>
     <g id="text_52">
      <!-- 150 -->
      <g transform="translate(27.637188 754.664178) scale(0.1 -0.1)">
       <use xlink:href="#Helvetica-31"/>
       <use xlink:href="#Helvetica-35" x="55.615234"/>
       <use xlink:href="#Helvetica-30" x="111.230469"/>
      </g>
     </g>
    </g>
    <g id="ytick_19">
     <g id="line2d_51">
      <g>
       <use xlink:href="#m9178c492d8" x="51.32" y="724.601953" style="stroke: #000000; stroke-width: 0.8"/>
      </g>
     </g>
     <g id="text_53">
      <!-- 200 -->
      <g transform="translate(27.637188 728.188672) scale(0.1 -0.1)">
       <use xlink:href="#Helvetica-32"/>
       <use xlink:href="#Helvetica-30" x="55.615234"/>
       <use xlink:href="#Helvetica-30" x="111.230469"/>
      </g>
     </g>
    </g>
    <g id="ytick_20">
     <g id="line2d_52">
      <g>
       <use xlink:href="#m9178c492d8" x="51.32" y="698.126448" style="stroke: #000000; stroke-width: 0.8"/>
      </g>
     </g>
     <g id="text_54">
      <!-- 250 -->
      <g transform="translate(27.637188 701.713166) scale(0.1 -0.1)">
       <use xlink:href="#Helvetica-32"/>
       <use xlink:href="#Helvetica-35" x="55.615234"/>
       <use xlink:href="#Helvetica-30" x="111.230469"/>
      </g>
     </g>
    </g>
    <g id="ytick_21">
     <g id="line2d_53">
      <g>
       <use xlink:href="#m9178c492d8" x="51.32" y="671.650942" style="stroke: #000000; stroke-width: 0.8"/>
      </g>
     </g>
     <g id="text_55">
      <!-- 300 -->
      <g transform="translate(27.637188 675.23766) scale(0.1 -0.1)">
       <use xlink:href="#Helvetica-33"/>
       <use xlink:href="#Helvetica-30" x="55.615234"/>
       <use xlink:href="#Helvetica-30" x="111.230469"/>
      </g>
     </g>
    </g>
    <g id="text_56">
     <!-- Chi-Squared Statistic -->
     <g transform="translate(21.552813 799.707031) rotate(-90) scale(0.1 -0.1)">
      <defs>
       <path id="Helvetica-71" d="M 775 1628 
Q 775 1194 897 900 
Q 1113 378 1669 378 
Q 2256 378 2478 928 
Q 2600 1231 2600 1703 
Q 2600 2138 2466 2428 
Q 2238 2925 1663 2925 
Q 1297 2925 1036 2608 
Q 775 2291 775 1628 
z
M 1606 3422 
Q 2022 3422 2306 3213 
Q 2463 3100 2606 2881 
L 2606 3347 
L 3141 3347 
L 3141 -1334 
L 2575 -1334 
L 2575 384 
Q 2434 159 2186 26 
Q 1938 -106 1566 -106 
Q 1031 -106 609 312 
Q 188 731 188 1588 
Q 188 2391 583 2906 
Q 978 3422 1606 3422 
z
" transform="scale(0.015625)"/>
       <path id="Helvetica-75" d="M 975 3347 
L 975 1125 
Q 975 869 1056 706 
Q 1206 406 1616 406 
Q 2203 406 2416 931 
Q 2531 1213 2531 1703 
L 2531 3347 
L 3094 3347 
L 3094 0 
L 2563 0 
L 2569 494 
Q 2459 303 2297 172 
Q 1975 -91 1516 -91 
Q 800 -91 541 388 
Q 400 644 400 1072 
L 400 3347 
L 975 3347 
z
M 1747 3428 
L 1747 3428 
z
" transform="scale(0.015625)"/>
       <path id="Helvetica-64" d="M 769 1634 
Q 769 1097 997 734 
Q 1225 372 1728 372 
Q 2119 372 2370 708 
Q 2622 1044 2622 1672 
Q 2622 2306 2362 2611 
Q 2103 2916 1722 2916 
Q 1297 2916 1033 2591 
Q 769 2266 769 1634 
z
M 1616 3406 
Q 2000 3406 2259 3244 
Q 2409 3150 2600 2916 
L 2600 4606 
L 3141 4606 
L 3141 0 
L 2634 0 
L 2634 466 
Q 2438 156 2169 18 
Q 1900 -119 1553 -119 
Q 994 -119 584 351 
Q 175 822 175 1603 
Q 175 2334 548 2870 
Q 922 3406 1616 3406 
z
" transform="scale(0.015625)"/>
      </defs>
      <use xlink:href="#Helvetica-43"/>
      <use xlink:href="#Helvetica-68" x="72.216797"/>
      <use xlink:href="#Helvetica-69" x="127.832031"/>
      <use xlink:href="#Helvetica-2d" x="150.048828"/>
      <use xlink:href="#Helvetica-53" x="183.349609"/>
      <use xlink:href="#Helvetica-71" x="250.048828"/>
      <use xlink:href="#Helvetica-75" x="305.664062"/>
      <use xlink:href="#Helvetica-61" x="361.279297"/>
      <use xlink:href="#Helvetica-72" x="416.894531"/>
      <use xlink:href="#Helvetica-65" x="450.195312"/>
      <use xlink:href="#Helvetica-64" x="505.810547"/>
      <use xlink:href="#Helvetica-20" x="561.425781"/>
      <use xlink:href="#Helvetica-53" x="589.208984"/>
      <use xlink:href="#Helvetica-74" x="655.908203"/>
      <use xlink:href="#Helvetica-61" x="683.691406"/>
      <use xlink:href="#Helvetica-74" x="739.306641"/>
      <use xlink:href="#Helvetica-69" x="767.089844"/>
      <use xlink:href="#Helvetica-73" x="789.306641"/>
      <use xlink:href="#Helvetica-74" x="839.306641"/>
      <use xlink:href="#Helvetica-69" x="867.089844"/>
      <use xlink:href="#Helvetica-63" x="889.306641"/>
     </g>
    </g>
   </g>
   <g id="line2d_54">
    <path d="M 81.223636 830.503977 
L 91.360462 830.503977 
L 101.497288 830.503977 
L 111.634114 830.503977 
L 121.77094 830.503977 
L 131.907766 830.503977 
L 142.044592 830.503977 
L 152.181418 830.503977 
L 162.318243 830.503977 
L 172.455069 830.503977 
L 182.591895 830.503977 
L 192.728721 827.84108 
L 202.865547 825.162566 
L 213.002373 822.468237 
L 223.139199 819.757934 
L 233.276025 817.031496 
L 243.412851 814.288762 
L 253.549676 811.529566 
L 263.686502 808.753741 
L 273.823328 805.961117 
L 283.960154 802.62072 
L 294.09698 799.793984 
L 304.233806 796.949925 
L 314.370632 794.088363 
L 324.507458 791.209116 
L 334.644284 788.311999 
L 344.781109 785.396822 
L 354.917935 782.387671 
L 365.054761 779.4309 
L 375.191587 776.455429 
L 385.328413 772.930292 
L 395.465239 769.916819 
L 405.602065 766.884035 
L 415.738891 763.831729 
L 425.875716 760.759688 
L 436.012542 757.667695 
L 446.149368 754.555529 
L 456.286194 751.422967 
L 466.42302 748.269782 
L 476.559846 745.095742 
L 486.696672 741.370374 
L 496.833498 738.15392 
L 506.970324 734.915896 
L 517.107149 731.491709 
L 527.243975 728.203796 
L 537.380801 724.893484 
L 547.517627 721.560513 
L 557.654453 718.20462 
L 567.791279 714.825536 
L 577.928105 711.422987 
L 588.064931 707.466482 
L 598.201757 704.016169 
L 608.338582 700.541545 
L 618.475408 697.042316 
L 628.612234 693.518186 
L 638.74906 689.968853 
L 648.885886 686.39401 
L 659.022712 682.793343 
L 669.159538 679.166534 
L 679.296364 674.983523 
" clip-path="url(#pf41d74b0f8)" style="fill: none; stroke: #dd4040; stroke-width: 1.5; stroke-linecap: square"/>
   </g>
   <g id="line2d_55">
    <path d="M 51.32 674.983523 
L 709.2 674.983523 
" clip-path="url(#pf41d74b0f8)" style="fill: none; stroke-dasharray: 5.55,2.4; stroke-dashoffset: 0; stroke: #000000; stroke-width: 1.5"/>
   </g>
   <g id="patch_18">
    <path d="M 51.32 838.28 
L 51.32 667.2075 
" style="fill: none; stroke: #000000; stroke-width: 0.8; stroke-linejoin: miter; stroke-linecap: square"/>
   </g>
   <g id="patch_19">
    <path d="M 709.2 838.28 
L 709.2 667.2075 
" style="fill: none; stroke: #000000; stroke-width: 0.8; stroke-linejoin: miter; stroke-linecap: square"/>
   </g>
   <g id="patch_20">
    <path d="M 51.32 838.28 
L 709.2 838.28 
" style="fill: none; stroke: #000000; stroke-width: 0.8; stroke-linejoin: miter; stroke-linecap: square"/>
   </g>
   <g id="patch_21">
    <path d="M 51.32 667.2075 
L 709.2 667.2075 
" style="fill: none; stroke: #000000; stroke-width: 0.8; stroke-linejoin: miter; stroke-linecap: square"/>
   </g>
   <g id="text_57">
    <!-- Chi-Squared Statistic -->
    <g transform="translate(323.904063 661.2075) scale(0.12 -0.12)">
     <use xlink:href="#Helvetica-43"/>
     <use xlink:href="#Helvetica-68" x="72.216797"/>
     <use xlink:href="#Helvetica-69" x="127.832031"/>
     <use xlink:href="#Helvetica-2d" x="150.048828"/>
     <use xlink:href="#Helvetica-53" x="183.349609"/>
     <use xlink:href="#Helvetica-71" x="250.048828"/>
     <use xlink:href="#Helvetica-75" x="305.664062"/>
     <use xlink:href="#Helvetica-61" x="361.279297"/>
     <use xlink:href="#Helvetica-72" x="416.894531"/>
     <use xlink:href="#Helvetica-65" x="450.195312"/>
     <use xlink:href="#Helvetica-64" x="505.810547"/>
     <use xlink:href="#Helvetica-20" x="561.425781"/>
     <use xlink:href="#Helvetica-53" x="589.208984"/>
     <use xlink:href="#Helvetica-74" x="655.908203"/>
     <use xlink:href="#Helvetica-61" x="683.691406"/>
     <use xlink:href="#Helvetica-74" x="739.306641"/>
     <use xlink:href="#Helvetica-69" x="767.089844"/>
     <use xlink:href="#Helvetica-73" x="789.306641"/>
     <use xlink:href="#Helvetica-74" x="839.306641"/>
     <use xlink:href="#Helvetica-69" x="867.089844"/>
     <use xlink:href="#Helvetica-63" x="889.306641"/>
    </g>
   </g>
  </g>
  <g id="axes_5">
   <g id="patch_22">
    <path d="M 51.32 1052.12 
L 709.2 1052.12 
L 709.2 881.0475 
L 51.32 881.0475 
z
" style="fill: #ffffff"/>
   </g>
   <g id="matplotlib.axis_9">
    <g id="xtick_29">
     <g id="line2d_56">
      <g>
       <use xlink:href="#m635887cfdd" x="81.223636" y="1052.12" style="stroke: #000000; stroke-width: 0.8"/>
      </g>
     </g>
     <g id="text_58">
      <!-- 0 -->
      <g transform="translate(78.443168 1066.293437) scale(0.1 -0.1)">
       <use xlink:href="#Helvetica-30"/>
      </g>
     </g>
    </g>
    <g id="xtick_30">
     <g id="line2d_57">
      <g>
       <use xlink:href="#m635887cfdd" x="182.591895" y="1052.12" style="stroke: #000000; stroke-width: 0.8"/>
      </g>
     </g>
     <g id="text_59">
      <!-- 10 -->
      <g transform="translate(177.030958 1066.293437) scale(0.1 -0.1)">
       <use xlink:href="#Helvetica-31"/>
       <use xlink:href="#Helvetica-30" x="55.615234"/>
      </g>
     </g>
    </g>
    <g id="xtick_31">
     <g id="line2d_58">
      <g>
       <use xlink:href="#m635887cfdd" x="283.960154" y="1052.12" style="stroke: #000000; stroke-width: 0.8"/>
      </g>
     </g>
     <g id="text_60">
      <!-- 20 -->
      <g transform="translate(278.399217 1066.293437) scale(0.1 -0.1)">
       <use xlink:href="#Helvetica-32"/>
       <use xlink:href="#Helvetica-30" x="55.615234"/>
      </g>
     </g>
    </g>
    <g id="xtick_32">
     <g id="line2d_59">
      <g>
       <use xlink:href="#m635887cfdd" x="385.328413" y="1052.12" style="stroke: #000000; stroke-width: 0.8"/>
      </g>
     </g>
     <g id="text_61">
      <!-- 30 -->
      <g transform="translate(379.767475 1066.293437) scale(0.1 -0.1)">
       <use xlink:href="#Helvetica-33"/>
       <use xlink:href="#Helvetica-30" x="55.615234"/>
      </g>
     </g>
    </g>
    <g id="xtick_33">
     <g id="line2d_60">
      <g>
       <use xlink:href="#m635887cfdd" x="486.696672" y="1052.12" style="stroke: #000000; stroke-width: 0.8"/>
      </g>
     </g>
     <g id="text_62">
      <!-- 40 -->
      <g transform="translate(481.135734 1066.293437) scale(0.1 -0.1)">
       <use xlink:href="#Helvetica-34"/>
       <use xlink:href="#Helvetica-30" x="55.615234"/>
      </g>
     </g>
    </g>
    <g id="xtick_34">
     <g id="line2d_61">
      <g>
       <use xlink:href="#m635887cfdd" x="588.064931" y="1052.12" style="stroke: #000000; stroke-width: 0.8"/>
      </g>
     </g>
     <g id="text_63">
      <!-- 50 -->
      <g transform="translate(582.503993 1066.293437) scale(0.1 -0.1)">
       <use xlink:href="#Helvetica-35"/>
       <use xlink:href="#Helvetica-30" x="55.615234"/>
      </g>
     </g>
    </g>
    <g id="xtick_35">
     <g id="line2d_62">
      <g>
       <use xlink:href="#m635887cfdd" x="689.43319" y="1052.12" style="stroke: #000000; stroke-width: 0.8"/>
      </g>
     </g>
     <g id="text_64">
      <!-- 60 -->
      <g transform="translate(683.872252 1066.293437) scale(0.1 -0.1)">
       <use xlink:href="#Helvetica-36"/>
       <use xlink:href="#Helvetica-30" x="55.615234"/>
      </g>
     </g>
    </g>
   </g>
   <g id="matplotlib.axis_10">
    <g id="ytick_22">
     <g id="line2d_63">
      <g>
       <use xlink:href="#m9178c492d8" x="51.32" y="1044.343977" style="stroke: #000000; stroke-width: 0.8"/>
      </g>
     </g>
     <g id="text_65">
      <!-- 0.00 -->
      <g transform="translate(24.859063 1047.930696) scale(0.1 -0.1)">
       <use xlink:href="#Helvetica-30"/>
       <use xlink:href="#Helvetica-2e" x="55.615234"/>
       <use xlink:href="#Helvetica-30" x="83.398438"/>
       <use xlink:href="#Helvetica-30" x="139.013672"/>
      </g>
     </g>
    </g>
    <g id="ytick_23">
     <g id="line2d_64">
      <g>
       <use xlink:href="#m9178c492d8" x="51.32" y="1013.239886" style="stroke: #000000; stroke-width: 0.8"/>
      </g>
     </g>
     <g id="text_66">
      <!-- 0.05 -->
      <g transform="translate(24.859063 1016.826605) scale(0.1 -0.1)">
       <use xlink:href="#Helvetica-30"/>
       <use xlink:href="#Helvetica-2e" x="55.615234"/>
       <use xlink:href="#Helvetica-30" x="83.398438"/>
       <use xlink:href="#Helvetica-35" x="139.013672"/>
      </g>
     </g>
    </g>
    <g id="ytick_24">
     <g id="line2d_65">
      <g>
       <use xlink:href="#m9178c492d8" x="51.32" y="982.135795" style="stroke: #000000; stroke-width: 0.8"/>
      </g>
     </g>
     <g id="text_67">
      <!-- 0.10 -->
      <g transform="translate(24.859063 985.722514) scale(0.1 -0.1)">
       <use xlink:href="#Helvetica-30"/>
       <use xlink:href="#Helvetica-2e" x="55.615234"/>
       <use xlink:href="#Helvetica-31" x="83.398438"/>
       <use xlink:href="#Helvetica-30" x="139.013672"/>
      </g>
     </g>
    </g>
    <g id="ytick_25">
     <g id="line2d_66">
      <g>
       <use xlink:href="#m9178c492d8" x="51.32" y="951.031705" style="stroke: #000000; stroke-width: 0.8"/>
      </g>
     </g>
     <g id="text_68">
      <!-- 0.15 -->
      <g transform="translate(24.859063 954.618423) scale(0.1 -0.1)">
       <use xlink:href="#Helvetica-30"/>
       <use xlink:href="#Helvetica-2e" x="55.615234"/>
       <use xlink:href="#Helvetica-31" x="83.398438"/>
       <use xlink:href="#Helvetica-35" x="139.013672"/>
      </g>
     </g>
    </g>
    <g id="ytick_26">
     <g id="line2d_67">
      <g>
       <use xlink:href="#m9178c492d8" x="51.32" y="919.927614" style="stroke: #000000; stroke-width: 0.8"/>
      </g>
     </g>
     <g id="text_69">
      <!-- 0.20 -->
      <g transform="translate(24.859063 923.514332) scale(0.1 -0.1)">
       <use xlink:href="#Helvetica-30"/>
       <use xlink:href="#Helvetica-2e" x="55.615234"/>
       <use xlink:href="#Helvetica-32" x="83.398438"/>
       <use xlink:href="#Helvetica-30" x="139.013672"/>
      </g>
     </g>
    </g>
    <g id="ytick_27">
     <g id="line2d_68">
      <g>
       <use xlink:href="#m9178c492d8" x="51.32" y="888.823523" style="stroke: #000000; stroke-width: 0.8"/>
      </g>
     </g>
     <g id="text_70">
      <!-- 0.25 -->
      <g transform="translate(24.859063 892.410241) scale(0.1 -0.1)">
       <use xlink:href="#Helvetica-30"/>
       <use xlink:href="#Helvetica-2e" x="55.615234"/>
       <use xlink:href="#Helvetica-32" x="83.398438"/>
       <use xlink:href="#Helvetica-35" x="139.013672"/>
      </g>
     </g>
    </g>
    <g id="text_71">
     <!-- L-Infinity Distance -->
     <g transform="translate(18.715313 1006.320469) rotate(-90) scale(0.1 -0.1)">
      <defs>
       <path id="Helvetica-4c" d="M 488 4591 
L 1109 4591 
L 1109 547 
L 3434 547 
L 3434 0 
L 488 0 
L 488 4591 
z
" transform="scale(0.015625)"/>
       <path id="Helvetica-49" d="M 628 4591 
L 1256 4591 
L 1256 0 
L 628 0 
L 628 4591 
z
" transform="scale(0.015625)"/>
      </defs>
      <use xlink:href="#Helvetica-4c"/>
      <use xlink:href="#Helvetica-2d" x="55.615234"/>
      <use xlink:href="#Helvetica-49" x="88.916016"/>
      <use xlink:href="#Helvetica-6e" x="116.699219"/>
      <use xlink:href="#Helvetica-66" x="172.314453"/>
      <use xlink:href="#Helvetica-69" x="200.097656"/>
      <use xlink:href="#Helvetica-6e" x="222.314453"/>
      <use xlink:href="#Helvetica-69" x="277.929688"/>
      <use xlink:href="#Helvetica-74" x="300.146484"/>
      <use xlink:href="#Helvetica-79" x="327.929688"/>
      <use xlink:href="#Helvetica-20" x="377.929688"/>
      <use xlink:href="#Helvetica-44" x="405.712891"/>
      <use xlink:href="#Helvetica-69" x="477.929688"/>
      <use xlink:href="#Helvetica-73" x="500.146484"/>
      <use xlink:href="#Helvetica-74" x="550.146484"/>
      <use xlink:href="#Helvetica-61" x="577.929688"/>
      <use xlink:href="#Helvetica-6e" x="633.544922"/>
      <use xlink:href="#Helvetica-63" x="689.160156"/>
      <use xlink:href="#Helvetica-65" x="739.160156"/>
     </g>
    </g>
   </g>
   <g id="line2d_69">
    <path d="M 81.223636 1044.343977 
L 91.360462 1044.343977 
L 101.497288 1044.343977 
L 111.634114 1044.343977 
L 121.77094 1044.343977 
L 131.907766 1044.343977 
L 142.044592 1044.343977 
L 152.181418 1044.343977 
L 162.318243 1044.343977 
L 172.455069 1044.343977 
L 182.591895 1044.343977 
L 192.728721 1041.224209 
L 202.865547 1038.10444 
L 213.002373 1034.984672 
L 223.139199 1031.864904 
L 233.276025 1028.745135 
L 243.412851 1025.625367 
L 253.549676 1022.505599 
L 263.686502 1019.38583 
L 273.823328 1016.266062 
L 283.960154 1012.554225 
L 294.09698 1009.437583 
L 304.233806 1006.32094 
L 314.370632 1003.204298 
L 324.507458 1000.087656 
L 334.644284 996.971013 
L 344.781109 993.854371 
L 354.917935 990.683961 
L 365.054761 987.564192 
L 375.191587 984.444424 
L 385.328413 980.764473 
L 395.465239 977.64783 
L 405.602065 974.531188 
L 415.738891 971.414546 
L 425.875716 968.297903 
L 436.012542 965.181261 
L 446.149368 962.064619 
L 456.286194 958.947976 
L 466.42302 955.831334 
L 476.559846 952.714691 
L 486.696672 949.070185 
L 496.833498 945.956663 
L 506.970324 942.84314 
L 517.107149 939.624793 
L 527.243975 936.508151 
L 537.380801 933.391509 
L 547.517627 930.274866 
L 557.654453 927.158224 
L 567.791279 924.041582 
L 577.928105 920.924939 
L 588.064931 917.312255 
L 598.201757 914.198732 
L 608.338582 911.085209 
L 618.475408 907.971687 
L 628.612234 904.858164 
L 638.74906 901.744642 
L 648.885886 898.631119 
L 659.022712 895.517596 
L 669.159538 892.404074 
L 679.296364 888.823523 
" clip-path="url(#p3516ef35cf)" style="fill: none; stroke: #dd4040; stroke-width: 1.5; stroke-linecap: square"/>
   </g>
   <g id="line2d_70">
    <path d="M 51.32 888.823523 
L 709.2 888.823523 
" clip-path="url(#p3516ef35cf)" style="fill: none; stroke-dasharray: 5.55,2.4; stroke-dashoffset: 0; stroke: #000000; stroke-width: 1.5"/>
   </g>
   <g id="patch_23">
    <path d="M 51.32 1052.12 
L 51.32 881.0475 
" style="fill: none; stroke: #000000; stroke-width: 0.8; stroke-linejoin: miter; stroke-linecap: square"/>
   </g>
   <g id="patch_24">
    <path d="M 709.2 1052.12 
L 709.2 881.0475 
" style="fill: none; stroke: #000000; stroke-width: 0.8; stroke-linejoin: miter; stroke-linecap: square"/>
   </g>
   <g id="patch_25">
    <path d="M 51.32 1052.12 
L 709.2 1052.12 
" style="fill: none; stroke: #000000; stroke-width: 0.8; stroke-linejoin: miter; stroke-linecap: square"/>
   </g>
   <g id="patch_26">
    <path d="M 51.32 881.0475 
L 709.2 881.0475 
" style="fill: none; stroke: #000000; stroke-width: 0.8; stroke-linejoin: miter; stroke-linecap: square"/>
   </g>
   <g id="text_72">
    <!-- L-Infinity Distance -->
    <g transform="translate(332.575938 875.0475) scale(0.12 -0.12)">
     <use xlink:href="#Helvetica-4c"/>
     <use xlink:href="#Helvetica-2d" x="55.615234"/>
     <use xlink:href="#Helvetica-49" x="88.916016"/>
     <use xlink:href="#Helvetica-6e" x="116.699219"/>
     <use xlink:href="#Helvetica-66" x="172.314453"/>
     <use xlink:href="#Helvetica-69" x="200.097656"/>
     <use xlink:href="#Helvetica-6e" x="222.314453"/>
     <use xlink:href="#Helvetica-69" x="277.929688"/>
     <use xlink:href="#Helvetica-74" x="300.146484"/>
     <use xlink:href="#Helvetica-79" x="327.929688"/>
     <use xlink:href="#Helvetica-20" x="377.929688"/>
     <use xlink:href="#Helvetica-44" x="405.712891"/>
     <use xlink:href="#Helvetica-69" x="477.929688"/>
     <use xlink:href="#Helvetica-73" x="500.146484"/>
     <use xlink:href="#Helvetica-74" x="550.146484"/>
     <use xlink:href="#Helvetica-61" x="577.929688"/>
     <use xlink:href="#Helvetica-6e" x="633.544922"/>
     <use xlink:href="#Helvetica-63" x="689.160156"/>
     <use xlink:href="#Helvetica-65" x="739.160156"/>
    </g>
   </g>
  </g>
 </g>
 <defs>
  <clipPath id="p9512a7c063">
   <rect x="51.32" y="25.6875" width="657.88" height="171.0725"/>
  </clipPath>
  <clipPath id="pf3897c5dc2">
   <rect x="51.32" y="239.5275" width="657.88" height="171.0725"/>
  </clipPath>
  <clipPath id="pe668ffaa78">
   <rect x="51.32" y="453.3675" width="657.88" height="171.0725"/>
  </clipPath>
  <clipPath id="pf41d74b0f8">
   <rect x="51.32" y="667.2075" width="657.88" height="171.0725"/>
  </clipPath>
  <clipPath id="p3516ef35cf">
   <rect x="51.32" y="881.0475" width="657.88" height="171.0725"/>
  </clipPath>
 </defs>
</svg>
