<?xml version="1.0" encoding="utf-8" standalone="no"?>
<!DOCTYPE svg PUBLIC "-//W3C//DTD SVG 1.1//EN"
  "http://www.w3.org/Graphics/SVG/1.1/DTD/svg11.dtd">
<svg xmlns:xlink="http://www.w3.org/1999/xlink" width="864pt" height="216pt" viewBox="0 0 864 216" xmlns="http://www.w3.org/2000/svg" version="1.1">
 <metadata>
  <rdf:RDF xmlns:dc="http://purl.org/dc/elements/1.1/" xmlns:cc="http://creativecommons.org/ns#" xmlns:rdf="http://www.w3.org/1999/02/22-rdf-syntax-ns#">
   <cc:Work>
    <dc:type rdf:resource="http://purl.org/dc/dcmitype/StillImage"/>
    <dc:date>2022-12-06T21:42:43.576359</dc:date>
    <dc:format>image/svg+xml</dc:format>
    <dc:creator>
     <cc:Agent>
      <dc:title>Matplotlib v3.6.2, https://matplotlib.org/</dc:title>
     </cc:Agent>
    </dc:creator>
   </cc:Work>
  </rdf:RDF>
 </metadata>
 <defs>
  <style type="text/css">*{stroke-linejoin: round; stroke-linecap: butt}</style>
 </defs>
 <g id="figure_1">
  <g id="patch_1">
   <path d="M 0 216 
L 864 216 
L 864 0 
L 0 0 
z
" style="fill: #ffffff"/>
  </g>
  <g id="axes_1">
   <g id="patch_2">
    <path d="M 48.53 174.04 
L 193.118774 174.04 
L 193.118774 25.6875 
L 48.53 25.6875 
z
" style="fill: #ffffff"/>
   </g>
   <g id="matplotlib.axis_1">
    <g id="xtick_1">
     <g id="line2d_1">
      <defs>
       <path id="m4fab7206b5" d="M 0 0 
L 0 3.5 
" style="stroke: #000000; stroke-width: 0.8"/>
      </defs>
      <g>
       <use xlink:href="#m4fab7206b5" x="53.760948" y="174.04" style="stroke: #000000; stroke-width: 0.8"/>
      </g>
     </g>
     <g id="text_1">
      <!-- 0.0 -->
      <g transform="translate(46.810948 188.213437) scale(0.1 -0.1)">
       <defs>
        <path id="Helvetica-30" d="M 1731 4475 
Q 2600 4475 2988 3759 
Q 3288 3206 3288 2244 
Q 3288 1331 3016 734 
Q 2622 -122 1728 -122 
Q 922 -122 528 578 
Q 200 1163 200 2147 
Q 200 2909 397 3456 
Q 766 4475 1731 4475 
z
M 1725 391 
Q 2163 391 2422 778 
Q 2681 1166 2681 2222 
Q 2681 2984 2493 3476 
Q 2306 3969 1766 3969 
Q 1269 3969 1039 3501 
Q 809 3034 809 2125 
Q 809 1441 956 1025 
Q 1181 391 1725 391 
z
" transform="scale(0.015625)"/>
        <path id="Helvetica-2e" d="M 547 681 
L 1200 681 
L 1200 0 
L 547 0 
L 547 681 
z
" transform="scale(0.015625)"/>
       </defs>
       <use xlink:href="#Helvetica-30"/>
       <use xlink:href="#Helvetica-2e" x="55.615234"/>
       <use xlink:href="#Helvetica-30" x="83.398438"/>
      </g>
     </g>
    </g>
    <g id="xtick_2">
     <g id="line2d_2">
      <g>
       <use xlink:href="#m4fab7206b5" x="120.824387" y="174.04" style="stroke: #000000; stroke-width: 0.8"/>
      </g>
     </g>
     <g id="text_2">
      <!-- 0.5 -->
      <g transform="translate(113.874387 188.213437) scale(0.1 -0.1)">
       <defs>
        <path id="Helvetica-35" d="M 791 1141 
Q 847 659 1238 475 
Q 1438 381 1700 381 
Q 2200 381 2440 700 
Q 2681 1019 2681 1406 
Q 2681 1875 2395 2131 
Q 2109 2388 1709 2388 
Q 1419 2388 1211 2275 
Q 1003 2163 856 1963 
L 369 1991 
L 709 4400 
L 3034 4400 
L 3034 3856 
L 1131 3856 
L 941 2613 
Q 1097 2731 1238 2791 
Q 1488 2894 1816 2894 
Q 2431 2894 2859 2497 
Q 3288 2100 3288 1491 
Q 3288 856 2895 371 
Q 2503 -113 1644 -113 
Q 1097 -113 676 195 
Q 256 503 206 1141 
L 791 1141 
z
" transform="scale(0.015625)"/>
       </defs>
       <use xlink:href="#Helvetica-30"/>
       <use xlink:href="#Helvetica-2e" x="55.615234"/>
       <use xlink:href="#Helvetica-35" x="83.398438"/>
      </g>
     </g>
    </g>
    <g id="xtick_3">
     <g id="line2d_3">
      <g>
       <use xlink:href="#m4fab7206b5" x="187.887826" y="174.04" style="stroke: #000000; stroke-width: 0.8"/>
      </g>
     </g>
     <g id="text_3">
      <!-- 1.0 -->
      <g transform="translate(180.937826 188.213437) scale(0.1 -0.1)">
       <defs>
        <path id="Helvetica-31" d="M 613 3169 
L 613 3600 
Q 1222 3659 1462 3798 
Q 1703 3938 1822 4456 
L 2266 4456 
L 2266 0 
L 1666 0 
L 1666 3169 
L 613 3169 
z
" transform="scale(0.015625)"/>
       </defs>
       <use xlink:href="#Helvetica-31"/>
       <use xlink:href="#Helvetica-2e" x="55.615234"/>
       <use xlink:href="#Helvetica-30" x="83.398438"/>
      </g>
     </g>
    </g>
    <g id="text_4">
     <!-- Outlier Value -->
     <g transform="translate(91.922043 201.47125) scale(0.1 -0.1)">
      <defs>
       <path id="Helvetica-4f" d="M 2469 4716 
Q 3684 4716 4269 3934 
Q 4725 3325 4725 2375 
Q 4725 1347 4203 666 
Q 3591 -134 2456 -134 
Q 1397 -134 791 566 
Q 250 1241 250 2272 
Q 250 3203 713 3866 
Q 1306 4716 2469 4716 
z
M 2531 422 
Q 3353 422 3720 1011 
Q 4088 1600 4088 2366 
Q 4088 3175 3664 3669 
Q 3241 4163 2506 4163 
Q 1794 4163 1344 3673 
Q 894 3184 894 2231 
Q 894 1469 1280 945 
Q 1666 422 2531 422 
z
M 2488 4716 
L 2488 4716 
z
" transform="scale(0.015625)"/>
       <path id="Helvetica-75" d="M 975 3347 
L 975 1125 
Q 975 869 1056 706 
Q 1206 406 1616 406 
Q 2203 406 2416 931 
Q 2531 1213 2531 1703 
L 2531 3347 
L 3094 3347 
L 3094 0 
L 2563 0 
L 2569 494 
Q 2459 303 2297 172 
Q 1975 -91 1516 -91 
Q 800 -91 541 388 
Q 400 644 400 1072 
L 400 3347 
L 975 3347 
z
M 1747 3428 
L 1747 3428 
z
" transform="scale(0.015625)"/>
       <path id="Helvetica-74" d="M 525 4281 
L 1094 4281 
L 1094 3347 
L 1628 3347 
L 1628 2888 
L 1094 2888 
L 1094 703 
Q 1094 528 1213 469 
Q 1278 434 1431 434 
Q 1472 434 1519 436 
Q 1566 438 1628 444 
L 1628 0 
Q 1531 -28 1426 -40 
Q 1322 -53 1200 -53 
Q 806 -53 665 148 
Q 525 350 525 672 
L 525 2888 
L 72 2888 
L 72 3347 
L 525 3347 
L 525 4281 
z
" transform="scale(0.015625)"/>
       <path id="Helvetica-6c" d="M 428 4591 
L 991 4591 
L 991 0 
L 428 0 
L 428 4591 
z
" transform="scale(0.015625)"/>
       <path id="Helvetica-69" d="M 413 3331 
L 984 3331 
L 984 0 
L 413 0 
L 413 3331 
z
M 413 4591 
L 984 4591 
L 984 3953 
L 413 3953 
L 413 4591 
z
" transform="scale(0.015625)"/>
       <path id="Helvetica-65" d="M 1806 3422 
Q 2163 3422 2497 3255 
Q 2831 3088 3006 2822 
Q 3175 2569 3231 2231 
Q 3281 2000 3281 1494 
L 828 1494 
Q 844 984 1069 676 
Q 1294 369 1766 369 
Q 2206 369 2469 659 
Q 2619 828 2681 1050 
L 3234 1050 
Q 3213 866 3089 639 
Q 2966 413 2813 269 
Q 2556 19 2178 -69 
Q 1975 -119 1719 -119 
Q 1094 -119 659 336 
Q 225 791 225 1609 
Q 225 2416 662 2919 
Q 1100 3422 1806 3422 
z
M 2703 1941 
Q 2669 2306 2544 2525 
Q 2313 2931 1772 2931 
Q 1384 2931 1121 2651 
Q 859 2372 844 1941 
L 2703 1941 
z
M 1753 3428 
L 1753 3428 
z
" transform="scale(0.015625)"/>
       <path id="Helvetica-72" d="M 428 3347 
L 963 3347 
L 963 2769 
Q 1028 2938 1284 3180 
Q 1541 3422 1875 3422 
Q 1891 3422 1928 3419 
Q 1966 3416 2056 3406 
L 2056 2813 
Q 2006 2822 1964 2825 
Q 1922 2828 1872 2828 
Q 1447 2828 1219 2554 
Q 991 2281 991 1925 
L 991 0 
L 428 0 
L 428 3347 
z
" transform="scale(0.015625)"/>
       <path id="Helvetica-20" transform="scale(0.015625)"/>
       <path id="Helvetica-56" d="M 850 4591 
L 2169 681 
L 3472 4591 
L 4169 4591 
L 2494 0 
L 1834 0 
L 163 4591 
L 850 4591 
z
" transform="scale(0.015625)"/>
       <path id="Helvetica-61" d="M 844 891 
Q 844 647 1022 506 
Q 1200 366 1444 366 
Q 1741 366 2019 503 
Q 2488 731 2488 1250 
L 2488 1703 
Q 2384 1638 2221 1594 
Q 2059 1550 1903 1531 
L 1563 1488 
Q 1256 1447 1103 1359 
Q 844 1213 844 891 
z
M 2206 2028 
Q 2400 2053 2466 2191 
Q 2503 2266 2503 2406 
Q 2503 2694 2298 2823 
Q 2094 2953 1713 2953 
Q 1272 2953 1088 2716 
Q 984 2584 953 2325 
L 428 2325 
Q 444 2944 830 3186 
Q 1216 3428 1725 3428 
Q 2316 3428 2684 3203 
Q 3050 2978 3050 2503 
L 3050 575 
Q 3050 488 3086 434 
Q 3122 381 3238 381 
Q 3275 381 3322 386 
Q 3369 391 3422 400 
L 3422 -16 
Q 3291 -53 3222 -62 
Q 3153 -72 3034 -72 
Q 2744 -72 2613 134 
Q 2544 244 2516 444 
Q 2344 219 2022 53 
Q 1700 -113 1313 -113 
Q 847 -113 551 170 
Q 256 453 256 878 
Q 256 1344 547 1600 
Q 838 1856 1309 1916 
L 2206 2028 
z
M 1741 3428 
L 1741 3428 
z
" transform="scale(0.015625)"/>
      </defs>
      <use xlink:href="#Helvetica-4f"/>
      <use xlink:href="#Helvetica-75" x="77.783203"/>
      <use xlink:href="#Helvetica-74" x="133.398438"/>
      <use xlink:href="#Helvetica-6c" x="161.181641"/>
      <use xlink:href="#Helvetica-69" x="183.398438"/>
      <use xlink:href="#Helvetica-65" x="205.615234"/>
      <use xlink:href="#Helvetica-72" x="261.230469"/>
      <use xlink:href="#Helvetica-20" x="294.53125"/>
      <use xlink:href="#Helvetica-56" x="322.314453"/>
      <use xlink:href="#Helvetica-61" x="389.013672"/>
      <use xlink:href="#Helvetica-6c" x="444.628906"/>
      <use xlink:href="#Helvetica-75" x="466.845703"/>
      <use xlink:href="#Helvetica-65" x="522.460938"/>
     </g>
    </g>
    <g id="text_5">
     <!-- 1e6 -->
     <g transform="translate(176.435962 200.47125) scale(0.1 -0.1)">
      <defs>
       <path id="Helvetica-36" d="M 1872 4494 
Q 2622 4494 2917 4105 
Q 3213 3716 3213 3303 
L 2656 3303 
Q 2606 3569 2497 3719 
Q 2294 4000 1881 4000 
Q 1409 4000 1131 3564 
Q 853 3128 822 2316 
Q 1016 2600 1309 2741 
Q 1578 2866 1909 2866 
Q 2472 2866 2890 2506 
Q 3309 2147 3309 1434 
Q 3309 825 2912 354 
Q 2516 -116 1781 -116 
Q 1153 -116 697 361 
Q 241 838 241 1966 
Q 241 2800 444 3381 
Q 834 4494 1872 4494 
z
M 1831 384 
Q 2275 384 2495 682 
Q 2716 981 2716 1388 
Q 2716 1731 2519 2042 
Q 2322 2353 1803 2353 
Q 1441 2353 1167 2112 
Q 894 1872 894 1388 
Q 894 963 1142 673 
Q 1391 384 1831 384 
z
" transform="scale(0.015625)"/>
      </defs>
      <use xlink:href="#Helvetica-31"/>
      <use xlink:href="#Helvetica-65" x="55.615234"/>
      <use xlink:href="#Helvetica-36" x="111.230469"/>
     </g>
    </g>
   </g>
   <g id="matplotlib.axis_2">
    <g id="ytick_1">
     <g id="line2d_4">
      <defs>
       <path id="m4bd428040f" d="M 0 0 
L -3.5 0 
" style="stroke: #000000; stroke-width: 0.8"/>
      </defs>
      <g>
       <use xlink:href="#m4bd428040f" x="48.53" y="170.048486" style="stroke: #000000; stroke-width: 0.8"/>
      </g>
     </g>
     <g id="text_6">
      <!-- 0 -->
      <g transform="translate(35.969063 173.635205) scale(0.1 -0.1)">
       <use xlink:href="#Helvetica-30"/>
      </g>
     </g>
    </g>
    <g id="ytick_2">
     <g id="line2d_5">
      <g>
       <use xlink:href="#m4bd428040f" x="48.53" y="135.643918" style="stroke: #000000; stroke-width: 0.8"/>
      </g>
     </g>
     <g id="text_7">
      <!-- 50 -->
      <g transform="translate(30.408125 139.230636) scale(0.1 -0.1)">
       <use xlink:href="#Helvetica-35"/>
       <use xlink:href="#Helvetica-30" x="55.615234"/>
      </g>
     </g>
    </g>
    <g id="ytick_3">
     <g id="line2d_6">
      <g>
       <use xlink:href="#m4bd428040f" x="48.53" y="101.239349" style="stroke: #000000; stroke-width: 0.8"/>
      </g>
     </g>
     <g id="text_8">
      <!-- 100 -->
      <g transform="translate(24.847188 104.826068) scale(0.1 -0.1)">
       <use xlink:href="#Helvetica-31"/>
       <use xlink:href="#Helvetica-30" x="55.615234"/>
       <use xlink:href="#Helvetica-30" x="111.230469"/>
      </g>
     </g>
    </g>
    <g id="ytick_4">
     <g id="line2d_7">
      <g>
       <use xlink:href="#m4bd428040f" x="48.53" y="66.83478" style="stroke: #000000; stroke-width: 0.8"/>
      </g>
     </g>
     <g id="text_9">
      <!-- 150 -->
      <g transform="translate(24.847188 70.421499) scale(0.1 -0.1)">
       <use xlink:href="#Helvetica-31"/>
       <use xlink:href="#Helvetica-35" x="55.615234"/>
       <use xlink:href="#Helvetica-30" x="111.230469"/>
      </g>
     </g>
    </g>
    <g id="ytick_5">
     <g id="line2d_8">
      <g>
       <use xlink:href="#m4bd428040f" x="48.53" y="32.430212" style="stroke: #000000; stroke-width: 0.8"/>
      </g>
     </g>
     <g id="text_10">
      <!-- 200 -->
      <g transform="translate(24.847188 36.01693) scale(0.1 -0.1)">
       <defs>
        <path id="Helvetica-32" d="M 200 0 
Q 231 578 439 1006 
Q 647 1434 1250 1784 
L 1850 2131 
Q 2253 2366 2416 2531 
Q 2672 2791 2672 3125 
Q 2672 3516 2437 3745 
Q 2203 3975 1813 3975 
Q 1234 3975 1013 3538 
Q 894 3303 881 2888 
L 309 2888 
Q 319 3472 525 3841 
Q 891 4491 1816 4491 
Q 2584 4491 2939 4075 
Q 3294 3659 3294 3150 
Q 3294 2613 2916 2231 
Q 2697 2009 2131 1694 
L 1703 1456 
Q 1397 1288 1222 1134 
Q 909 863 828 531 
L 3272 531 
L 3272 0 
L 200 0 
z
" transform="scale(0.015625)"/>
       </defs>
       <use xlink:href="#Helvetica-32"/>
       <use xlink:href="#Helvetica-30" x="55.615234"/>
       <use xlink:href="#Helvetica-30" x="111.230469"/>
      </g>
     </g>
    </g>
    <g id="text_11">
     <!-- Wasserstein Distance -->
     <g transform="translate(18.762813 148.211406) rotate(-90) scale(0.1 -0.1)">
      <defs>
       <path id="Helvetica-57" d="M 791 4591 
L 1656 856 
L 2694 4591 
L 3369 4591 
L 4406 856 
L 5272 4591 
L 5953 4591 
L 4747 0 
L 4094 0 
L 3034 3806 
L 1969 0 
L 1316 0 
L 116 4591 
L 791 4591 
z
" transform="scale(0.015625)"/>
       <path id="Helvetica-73" d="M 747 1050 
Q 772 769 888 619 
Q 1100 347 1625 347 
Q 1938 347 2175 483 
Q 2413 619 2413 903 
Q 2413 1119 2222 1231 
Q 2100 1300 1741 1391 
L 1294 1503 
Q 866 1609 663 1741 
Q 300 1969 300 2372 
Q 300 2847 642 3140 
Q 984 3434 1563 3434 
Q 2319 3434 2653 2991 
Q 2863 2709 2856 2384 
L 2325 2384 
Q 2309 2575 2191 2731 
Q 1997 2953 1519 2953 
Q 1200 2953 1036 2831 
Q 872 2709 872 2509 
Q 872 2291 1088 2159 
Q 1213 2081 1456 2022 
L 1828 1931 
Q 2434 1784 2641 1647 
Q 2969 1431 2969 969 
Q 2969 522 2630 197 
Q 2291 -128 1597 -128 
Q 850 -128 539 211 
Q 228 550 206 1050 
L 747 1050 
z
M 1578 3428 
L 1578 3428 
z
" transform="scale(0.015625)"/>
       <path id="Helvetica-6e" d="M 413 3347 
L 947 3347 
L 947 2872 
Q 1184 3166 1450 3294 
Q 1716 3422 2041 3422 
Q 2753 3422 3003 2925 
Q 3141 2653 3141 2147 
L 3141 0 
L 2569 0 
L 2569 2109 
Q 2569 2416 2478 2603 
Q 2328 2916 1934 2916 
Q 1734 2916 1606 2875 
Q 1375 2806 1200 2600 
Q 1059 2434 1017 2257 
Q 975 2081 975 1753 
L 975 0 
L 413 0 
L 413 3347 
z
M 1734 3428 
L 1734 3428 
z
" transform="scale(0.015625)"/>
       <path id="Helvetica-44" d="M 2250 531 
Q 2566 531 2769 597 
Q 3131 719 3363 1066 
Q 3547 1344 3628 1778 
Q 3675 2038 3675 2259 
Q 3675 3113 3336 3584 
Q 2997 4056 2244 4056 
L 1141 4056 
L 1141 531 
L 2250 531 
z
M 516 4591 
L 2375 4591 
Q 3322 4591 3844 3919 
Q 4309 3313 4309 2366 
Q 4309 1634 4034 1044 
Q 3550 0 2369 0 
L 516 0 
L 516 4591 
z
" transform="scale(0.015625)"/>
       <path id="Helvetica-63" d="M 1703 3444 
Q 2269 3444 2623 3169 
Q 2978 2894 3050 2222 
L 2503 2222 
Q 2453 2531 2275 2736 
Q 2097 2941 1703 2941 
Q 1166 2941 934 2416 
Q 784 2075 784 1575 
Q 784 1072 996 728 
Q 1209 384 1666 384 
Q 2016 384 2220 598 
Q 2425 813 2503 1184 
L 3050 1184 
Q 2956 519 2581 211 
Q 2206 -97 1622 -97 
Q 966 -97 575 383 
Q 184 863 184 1581 
Q 184 2463 612 2953 
Q 1041 3444 1703 3444 
z
M 1616 3428 
L 1616 3428 
z
" transform="scale(0.015625)"/>
      </defs>
      <use xlink:href="#Helvetica-57"/>
      <use xlink:href="#Helvetica-61" x="94.384766"/>
      <use xlink:href="#Helvetica-73" x="150"/>
      <use xlink:href="#Helvetica-73" x="200"/>
      <use xlink:href="#Helvetica-65" x="250"/>
      <use xlink:href="#Helvetica-72" x="305.615234"/>
      <use xlink:href="#Helvetica-73" x="338.916016"/>
      <use xlink:href="#Helvetica-74" x="388.916016"/>
      <use xlink:href="#Helvetica-65" x="416.699219"/>
      <use xlink:href="#Helvetica-69" x="472.314453"/>
      <use xlink:href="#Helvetica-6e" x="494.53125"/>
      <use xlink:href="#Helvetica-20" x="550.146484"/>
      <use xlink:href="#Helvetica-44" x="577.929688"/>
      <use xlink:href="#Helvetica-69" x="650.146484"/>
      <use xlink:href="#Helvetica-73" x="672.363281"/>
      <use xlink:href="#Helvetica-74" x="722.363281"/>
      <use xlink:href="#Helvetica-61" x="750.146484"/>
      <use xlink:href="#Helvetica-6e" x="805.761719"/>
      <use xlink:href="#Helvetica-63" x="861.376953"/>
      <use xlink:href="#Helvetica-65" x="911.376953"/>
     </g>
    </g>
   </g>
   <g id="line2d_9">
    <path d="M 55.102217 167.296705 
L 56.443486 165.920522 
L 57.784755 164.544339 
L 59.126023 163.168156 
L 60.467292 161.791974 
L 61.808561 160.415791 
L 63.14983 159.039608 
L 64.491098 157.663425 
L 65.832367 156.287243 
L 67.173636 154.91106 
L 68.514905 153.534877 
L 69.856174 152.158694 
L 71.197442 150.782512 
L 72.538711 149.406329 
L 73.87998 148.030146 
L 75.221249 146.653963 
L 76.562517 145.277781 
L 77.903786 143.901598 
L 79.245055 142.525415 
L 80.586324 141.149232 
L 81.927593 139.77305 
L 83.268861 138.396867 
L 84.61013 137.020684 
L 85.951399 135.644501 
L 87.292668 134.268319 
L 88.633936 132.892136 
L 89.975205 131.515953 
L 91.316474 130.13977 
L 92.657743 128.763588 
L 93.999012 127.387405 
L 95.34028 126.011222 
L 96.681549 124.635039 
L 98.022818 123.258857 
L 99.364087 121.882674 
L 100.705355 120.506491 
L 102.046624 119.130308 
L 103.387893 117.754126 
L 104.729162 116.377943 
L 106.070431 115.00176 
L 107.411699 113.625577 
L 108.752968 112.249395 
L 110.094237 110.873212 
L 111.435506 109.497029 
L 112.776774 108.120846 
L 114.118043 106.744664 
L 115.459312 105.368481 
L 116.800581 103.992298 
L 118.141849 102.616115 
L 119.483118 101.239933 
L 120.824387 99.86375 
L 122.165656 98.487567 
L 123.506925 97.111385 
L 124.848193 95.735202 
L 126.189462 94.359019 
L 127.530731 92.982836 
L 128.872 91.606654 
L 130.213268 90.230471 
L 131.554537 88.854288 
L 132.895806 87.478105 
L 134.237075 86.101923 
L 135.578344 84.72574 
L 136.919612 83.349557 
L 138.260881 81.973374 
L 139.60215 80.597192 
L 140.943419 79.221009 
L 142.284687 77.844826 
L 143.625956 76.468643 
L 144.967225 75.092461 
L 146.308494 73.716278 
L 147.649763 72.340095 
L 148.991031 70.963912 
L 150.3323 69.58773 
L 151.673569 68.211547 
L 153.014838 66.835364 
L 154.356106 65.459181 
L 155.697375 64.082999 
L 157.038644 62.706816 
L 158.379913 61.330633 
L 159.721182 59.95445 
L 161.06245 58.578268 
L 162.403719 57.202085 
L 163.744988 55.825902 
L 165.086257 54.449719 
L 166.427525 53.073537 
L 167.768794 51.697354 
L 169.110063 50.321171 
L 170.451332 48.944988 
L 171.792601 47.568806 
L 173.133869 46.192623 
L 174.475138 44.81644 
L 175.816407 43.440257 
L 177.157676 42.064075 
L 178.498944 40.687892 
L 179.840213 39.311709 
L 181.181482 37.935526 
L 182.522751 36.559344 
L 183.86402 35.183161 
L 185.205288 33.806978 
L 186.546557 32.430795 
" clip-path="url(#p41fc840e0c)" style="fill: none; stroke: #dd4040; stroke-width: 1.5; stroke-linecap: square"/>
   </g>
   <g id="patch_3">
    <path d="M 48.53 174.04 
L 48.53 25.6875 
" style="fill: none; stroke: #000000; stroke-width: 0.8; stroke-linejoin: miter; stroke-linecap: square"/>
   </g>
   <g id="patch_4">
    <path d="M 193.118774 174.04 
L 193.118774 25.6875 
" style="fill: none; stroke: #000000; stroke-width: 0.8; stroke-linejoin: miter; stroke-linecap: square"/>
   </g>
   <g id="patch_5">
    <path d="M 48.53 174.04 
L 193.118774 174.04 
" style="fill: none; stroke: #000000; stroke-width: 0.8; stroke-linejoin: miter; stroke-linecap: square"/>
   </g>
   <g id="patch_6">
    <path d="M 48.53 25.6875 
L 193.118774 25.6875 
" style="fill: none; stroke: #000000; stroke-width: 0.8; stroke-linejoin: miter; stroke-linecap: square"/>
   </g>
   <g id="text_12">
    <!-- Wasserstein Distance -->
    <g transform="translate(62.8072 19.6875) scale(0.12 -0.12)">
     <use xlink:href="#Helvetica-57"/>
     <use xlink:href="#Helvetica-61" x="94.384766"/>
     <use xlink:href="#Helvetica-73" x="150"/>
     <use xlink:href="#Helvetica-73" x="200"/>
     <use xlink:href="#Helvetica-65" x="250"/>
     <use xlink:href="#Helvetica-72" x="305.615234"/>
     <use xlink:href="#Helvetica-73" x="338.916016"/>
     <use xlink:href="#Helvetica-74" x="388.916016"/>
     <use xlink:href="#Helvetica-65" x="416.699219"/>
     <use xlink:href="#Helvetica-69" x="472.314453"/>
     <use xlink:href="#Helvetica-6e" x="494.53125"/>
     <use xlink:href="#Helvetica-20" x="550.146484"/>
     <use xlink:href="#Helvetica-44" x="577.929688"/>
     <use xlink:href="#Helvetica-69" x="650.146484"/>
     <use xlink:href="#Helvetica-73" x="672.363281"/>
     <use xlink:href="#Helvetica-74" x="722.363281"/>
     <use xlink:href="#Helvetica-61" x="750.146484"/>
     <use xlink:href="#Helvetica-6e" x="805.761719"/>
     <use xlink:href="#Helvetica-63" x="861.376953"/>
     <use xlink:href="#Helvetica-65" x="911.376953"/>
    </g>
   </g>
  </g>
  <g id="axes_2">
   <g id="patch_7">
    <path d="M 268.0175 174.04 
L 412.606274 174.04 
L 412.606274 25.6875 
L 268.0175 25.6875 
z
" style="fill: #ffffff"/>
   </g>
   <g id="matplotlib.axis_3">
    <g id="xtick_4">
     <g id="line2d_10">
      <g>
       <use xlink:href="#m4fab7206b5" x="273.248448" y="174.04" style="stroke: #000000; stroke-width: 0.8"/>
      </g>
     </g>
     <g id="text_13">
      <!-- 0.0 -->
      <g transform="translate(266.298448 188.213437) scale(0.1 -0.1)">
       <use xlink:href="#Helvetica-30"/>
       <use xlink:href="#Helvetica-2e" x="55.615234"/>
       <use xlink:href="#Helvetica-30" x="83.398438"/>
      </g>
     </g>
    </g>
    <g id="xtick_5">
     <g id="line2d_11">
      <g>
       <use xlink:href="#m4fab7206b5" x="340.311887" y="174.04" style="stroke: #000000; stroke-width: 0.8"/>
      </g>
     </g>
     <g id="text_14">
      <!-- 0.5 -->
      <g transform="translate(333.361887 188.213437) scale(0.1 -0.1)">
       <use xlink:href="#Helvetica-30"/>
       <use xlink:href="#Helvetica-2e" x="55.615234"/>
       <use xlink:href="#Helvetica-35" x="83.398438"/>
      </g>
     </g>
    </g>
    <g id="xtick_6">
     <g id="line2d_12">
      <g>
       <use xlink:href="#m4fab7206b5" x="407.375326" y="174.04" style="stroke: #000000; stroke-width: 0.8"/>
      </g>
     </g>
     <g id="text_15">
      <!-- 1.0 -->
      <g transform="translate(400.425326 188.213437) scale(0.1 -0.1)">
       <use xlink:href="#Helvetica-31"/>
       <use xlink:href="#Helvetica-2e" x="55.615234"/>
       <use xlink:href="#Helvetica-30" x="83.398438"/>
      </g>
     </g>
    </g>
    <g id="text_16">
     <!-- Outlier Value -->
     <g transform="translate(311.409543 201.47125) scale(0.1 -0.1)">
      <use xlink:href="#Helvetica-4f"/>
      <use xlink:href="#Helvetica-75" x="77.783203"/>
      <use xlink:href="#Helvetica-74" x="133.398438"/>
      <use xlink:href="#Helvetica-6c" x="161.181641"/>
      <use xlink:href="#Helvetica-69" x="183.398438"/>
      <use xlink:href="#Helvetica-65" x="205.615234"/>
      <use xlink:href="#Helvetica-72" x="261.230469"/>
      <use xlink:href="#Helvetica-20" x="294.53125"/>
      <use xlink:href="#Helvetica-56" x="322.314453"/>
      <use xlink:href="#Helvetica-61" x="389.013672"/>
      <use xlink:href="#Helvetica-6c" x="444.628906"/>
      <use xlink:href="#Helvetica-75" x="466.845703"/>
      <use xlink:href="#Helvetica-65" x="522.460938"/>
     </g>
    </g>
    <g id="text_17">
     <!-- 1e6 -->
     <g transform="translate(395.923462 200.47125) scale(0.1 -0.1)">
      <use xlink:href="#Helvetica-31"/>
      <use xlink:href="#Helvetica-65" x="55.615234"/>
      <use xlink:href="#Helvetica-36" x="111.230469"/>
     </g>
    </g>
   </g>
   <g id="matplotlib.axis_4">
    <g id="ytick_6">
     <g id="line2d_13">
      <g>
       <use xlink:href="#m4bd428040f" x="268.0175" y="161.175751" style="stroke: #000000; stroke-width: 0.8"/>
      </g>
     </g>
     <g id="text_18">
      <!-- 0.66 -->
      <g transform="translate(241.556562 164.762469) scale(0.1 -0.1)">
       <use xlink:href="#Helvetica-30"/>
       <use xlink:href="#Helvetica-2e" x="55.615234"/>
       <use xlink:href="#Helvetica-36" x="83.398438"/>
       <use xlink:href="#Helvetica-36" x="139.013672"/>
      </g>
     </g>
    </g>
    <g id="ytick_7">
     <g id="line2d_14">
      <g>
       <use xlink:href="#m4bd428040f" x="268.0175" y="122.165233" style="stroke: #000000; stroke-width: 0.8"/>
      </g>
     </g>
     <g id="text_19">
      <!-- 0.68 -->
      <g transform="translate(241.556562 125.751951) scale(0.1 -0.1)">
       <defs>
        <path id="Helvetica-38" d="M 1741 2600 
Q 2113 2600 2322 2808 
Q 2531 3016 2531 3303 
Q 2531 3553 2331 3762 
Q 2131 3972 1722 3972 
Q 1316 3972 1134 3762 
Q 953 3553 953 3272 
Q 953 2956 1187 2778 
Q 1422 2600 1741 2600 
z
M 1775 384 
Q 2166 384 2423 595 
Q 2681 806 2681 1225 
Q 2681 1659 2415 1884 
Q 2150 2109 1734 2109 
Q 1331 2109 1076 1879 
Q 822 1650 822 1244 
Q 822 894 1055 639 
Q 1288 384 1775 384 
z
M 975 2384 
Q 741 2484 609 2619 
Q 363 2869 363 3269 
Q 363 3769 725 4128 
Q 1088 4488 1753 4488 
Q 2397 4488 2762 4148 
Q 3128 3809 3128 3356 
Q 3128 2938 2916 2678 
Q 2797 2531 2547 2391 
Q 2825 2263 2984 2097 
Q 3281 1784 3281 1284 
Q 3281 694 2884 283 
Q 2488 -128 1763 -128 
Q 1109 -128 657 226 
Q 206 581 206 1256 
Q 206 1653 400 1942 
Q 594 2231 975 2384 
z
" transform="scale(0.015625)"/>
       </defs>
       <use xlink:href="#Helvetica-30"/>
       <use xlink:href="#Helvetica-2e" x="55.615234"/>
       <use xlink:href="#Helvetica-36" x="83.398438"/>
       <use xlink:href="#Helvetica-38" x="139.013672"/>
      </g>
     </g>
    </g>
    <g id="ytick_8">
     <g id="line2d_15">
      <g>
       <use xlink:href="#m4bd428040f" x="268.0175" y="83.154715" style="stroke: #000000; stroke-width: 0.8"/>
      </g>
     </g>
     <g id="text_20">
      <!-- 0.70 -->
      <g transform="translate(241.556562 86.741434) scale(0.1 -0.1)">
       <defs>
        <path id="Helvetica-37" d="M 3347 4400 
L 3347 3909 
Q 3131 3700 2773 3181 
Q 2416 2663 2141 2063 
Q 1869 1478 1728 997 
Q 1638 688 1494 0 
L 872 0 
Q 1084 1281 1809 2550 
Q 2238 3294 2709 3834 
L 234 3834 
L 234 4400 
L 3347 4400 
z
" transform="scale(0.015625)"/>
       </defs>
       <use xlink:href="#Helvetica-30"/>
       <use xlink:href="#Helvetica-2e" x="55.615234"/>
       <use xlink:href="#Helvetica-37" x="83.398438"/>
       <use xlink:href="#Helvetica-30" x="139.013672"/>
      </g>
     </g>
    </g>
    <g id="ytick_9">
     <g id="line2d_16">
      <g>
       <use xlink:href="#m4bd428040f" x="268.0175" y="44.144197" style="stroke: #000000; stroke-width: 0.8"/>
      </g>
     </g>
     <g id="text_21">
      <!-- 0.72 -->
      <g transform="translate(241.556562 47.730916) scale(0.1 -0.1)">
       <use xlink:href="#Helvetica-30"/>
       <use xlink:href="#Helvetica-2e" x="55.615234"/>
       <use xlink:href="#Helvetica-37" x="83.398438"/>
       <use xlink:href="#Helvetica-32" x="139.013672"/>
      </g>
     </g>
    </g>
    <g id="text_22">
     <!-- Jensen-Shannon Distance -->
     <g transform="translate(235.472187 158.509844) rotate(-90) scale(0.1 -0.1)">
      <defs>
       <path id="Helvetica-4a" d="M 2741 1369 
Q 2741 788 2569 466 
Q 2250 -122 1356 -122 
Q 841 -122 475 158 
Q 109 438 109 1153 
L 109 1481 
L 694 1481 
L 694 1153 
Q 694 778 861 589 
Q 1028 400 1381 400 
Q 1878 400 2031 741 
Q 2125 950 2125 1531 
L 2125 4591 
L 2741 4591 
L 2741 1369 
z
" transform="scale(0.015625)"/>
       <path id="Helvetica-2d" d="M 266 2072 
L 1834 2072 
L 1834 1494 
L 266 1494 
L 266 2072 
z
" transform="scale(0.015625)"/>
       <path id="Helvetica-53" d="M 894 1481 
Q 916 1091 1078 847 
Q 1388 391 2169 391 
Q 2519 391 2806 491 
Q 3363 684 3363 1184 
Q 3363 1559 3128 1719 
Q 2891 1875 2384 1991 
L 1763 2131 
Q 1153 2269 900 2434 
Q 463 2722 463 3294 
Q 463 3913 891 4309 
Q 1319 4706 2103 4706 
Q 2825 4706 3329 4357 
Q 3834 4009 3834 3244 
L 3250 3244 
Q 3203 3613 3050 3809 
Q 2766 4169 2084 4169 
Q 1534 4169 1293 3937 
Q 1053 3706 1053 3400 
Q 1053 3063 1334 2906 
Q 1519 2806 2169 2656 
L 2813 2509 
Q 3278 2403 3531 2219 
Q 3969 1897 3969 1284 
Q 3969 522 3414 194 
Q 2859 -134 2125 -134 
Q 1269 -134 784 303 
Q 300 738 309 1481 
L 894 1481 
z
M 2150 4716 
L 2150 4716 
z
" transform="scale(0.015625)"/>
       <path id="Helvetica-68" d="M 413 4606 
L 975 4606 
L 975 2894 
Q 1175 3147 1334 3250 
Q 1606 3428 2013 3428 
Q 2741 3428 3000 2919 
Q 3141 2641 3141 2147 
L 3141 0 
L 2563 0 
L 2563 2109 
Q 2563 2478 2469 2650 
Q 2316 2925 1894 2925 
Q 1544 2925 1259 2684 
Q 975 2444 975 1775 
L 975 0 
L 413 0 
L 413 4606 
z
" transform="scale(0.015625)"/>
       <path id="Helvetica-6f" d="M 1741 363 
Q 2300 363 2508 786 
Q 2716 1209 2716 1728 
Q 2716 2197 2566 2491 
Q 2328 2953 1747 2953 
Q 1231 2953 997 2559 
Q 763 2166 763 1609 
Q 763 1075 997 719 
Q 1231 363 1741 363 
z
M 1763 3444 
Q 2409 3444 2856 3012 
Q 3303 2581 3303 1744 
Q 3303 934 2909 406 
Q 2516 -122 1688 -122 
Q 997 -122 590 345 
Q 184 813 184 1600 
Q 184 2444 612 2944 
Q 1041 3444 1763 3444 
z
M 1744 3428 
L 1744 3428 
z
" transform="scale(0.015625)"/>
      </defs>
      <use xlink:href="#Helvetica-4a"/>
      <use xlink:href="#Helvetica-65" x="50"/>
      <use xlink:href="#Helvetica-6e" x="105.615234"/>
      <use xlink:href="#Helvetica-73" x="161.230469"/>
      <use xlink:href="#Helvetica-65" x="211.230469"/>
      <use xlink:href="#Helvetica-6e" x="266.845703"/>
      <use xlink:href="#Helvetica-2d" x="322.460938"/>
      <use xlink:href="#Helvetica-53" x="355.761719"/>
      <use xlink:href="#Helvetica-68" x="422.460938"/>
      <use xlink:href="#Helvetica-61" x="478.076172"/>
      <use xlink:href="#Helvetica-6e" x="533.691406"/>
      <use xlink:href="#Helvetica-6e" x="589.306641"/>
      <use xlink:href="#Helvetica-6f" x="644.921875"/>
      <use xlink:href="#Helvetica-6e" x="700.537109"/>
      <use xlink:href="#Helvetica-20" x="756.152344"/>
      <use xlink:href="#Helvetica-44" x="783.935547"/>
      <use xlink:href="#Helvetica-69" x="856.152344"/>
      <use xlink:href="#Helvetica-73" x="878.369141"/>
      <use xlink:href="#Helvetica-74" x="928.369141"/>
      <use xlink:href="#Helvetica-61" x="956.152344"/>
      <use xlink:href="#Helvetica-6e" x="1011.767578"/>
      <use xlink:href="#Helvetica-63" x="1067.382812"/>
      <use xlink:href="#Helvetica-65" x="1117.382812"/>
     </g>
    </g>
   </g>
   <g id="line2d_17">
    <path d="M 274.589717 99.86375 
L 275.930986 99.86375 
L 277.272255 99.86375 
L 278.613523 99.86375 
L 279.954792 99.86375 
L 281.296061 99.86375 
L 282.63733 99.86375 
L 283.978598 99.86375 
L 285.319867 99.86375 
L 286.661136 99.86375 
L 288.002405 99.86375 
L 289.343674 99.86375 
L 290.684942 99.86375 
L 292.026211 99.86375 
L 293.36748 99.86375 
L 294.708749 99.86375 
L 296.050017 99.86375 
L 297.391286 99.86375 
L 298.732555 99.86375 
L 300.073824 99.86375 
L 301.415093 99.86375 
L 302.756361 99.86375 
L 304.09763 99.86375 
L 305.438899 99.86375 
L 306.780168 99.86375 
L 308.121436 99.86375 
L 309.462705 99.86375 
L 310.803974 99.86375 
L 312.145243 99.86375 
L 313.486512 99.86375 
L 314.82778 99.86375 
L 316.169049 99.86375 
L 317.510318 99.86375 
L 318.851587 99.86375 
L 320.192855 99.86375 
L 321.534124 99.86375 
L 322.875393 99.86375 
L 324.216662 99.86375 
L 325.557931 99.86375 
L 326.899199 99.86375 
L 328.240468 99.86375 
L 329.581737 99.86375 
L 330.923006 99.86375 
L 332.264274 99.86375 
L 333.605543 99.86375 
L 334.946812 99.86375 
L 336.288081 99.86375 
L 337.629349 99.86375 
L 338.970618 99.86375 
L 340.311887 99.86375 
L 341.653156 99.86375 
L 342.994425 99.86375 
L 344.335693 99.86375 
L 345.676962 99.86375 
L 347.018231 99.86375 
L 348.3595 99.86375 
L 349.700768 99.86375 
L 351.042037 99.86375 
L 352.383306 99.86375 
L 353.724575 99.86375 
L 355.065844 99.86375 
L 356.407112 99.86375 
L 357.748381 99.86375 
L 359.08965 99.86375 
L 360.430919 99.86375 
L 361.772187 99.86375 
L 363.113456 99.86375 
L 364.454725 99.86375 
L 365.795994 99.86375 
L 367.137263 99.86375 
L 368.478531 99.86375 
L 369.8198 99.86375 
L 371.161069 99.86375 
L 372.502338 99.86375 
L 373.843606 99.86375 
L 375.184875 99.86375 
L 376.526144 99.86375 
L 377.867413 99.86375 
L 379.208682 99.86375 
L 380.54995 99.86375 
L 381.891219 99.86375 
L 383.232488 99.86375 
L 384.573757 99.86375 
L 385.915025 99.86375 
L 387.256294 99.86375 
L 388.597563 99.86375 
L 389.938832 99.86375 
L 391.280101 99.86375 
L 392.621369 99.86375 
L 393.962638 99.86375 
L 395.303907 99.86375 
L 396.645176 99.86375 
L 397.986444 99.86375 
L 399.327713 99.86375 
L 400.668982 99.86375 
L 402.010251 99.86375 
L 403.35152 99.86375 
L 404.692788 99.86375 
L 406.034057 99.86375 
" clip-path="url(#p1ab9b446f1)" style="fill: none; stroke: #dd4040; stroke-width: 1.5; stroke-linecap: square"/>
   </g>
   <g id="patch_8">
    <path d="M 268.0175 174.04 
L 268.0175 25.6875 
" style="fill: none; stroke: #000000; stroke-width: 0.8; stroke-linejoin: miter; stroke-linecap: square"/>
   </g>
   <g id="patch_9">
    <path d="M 412.606274 174.04 
L 412.606274 25.6875 
" style="fill: none; stroke: #000000; stroke-width: 0.8; stroke-linejoin: miter; stroke-linecap: square"/>
   </g>
   <g id="patch_10">
    <path d="M 268.0175 174.04 
L 412.606274 174.04 
" style="fill: none; stroke: #000000; stroke-width: 0.8; stroke-linejoin: miter; stroke-linecap: square"/>
   </g>
   <g id="patch_11">
    <path d="M 268.0175 25.6875 
L 412.606274 25.6875 
" style="fill: none; stroke: #000000; stroke-width: 0.8; stroke-linejoin: miter; stroke-linecap: square"/>
   </g>
   <g id="text_23">
    <!-- Jensen-Shannon Distance -->
    <g transform="translate(269.936575 19.6875) scale(0.12 -0.12)">
     <use xlink:href="#Helvetica-4a"/>
     <use xlink:href="#Helvetica-65" x="50"/>
     <use xlink:href="#Helvetica-6e" x="105.615234"/>
     <use xlink:href="#Helvetica-73" x="161.230469"/>
     <use xlink:href="#Helvetica-65" x="211.230469"/>
     <use xlink:href="#Helvetica-6e" x="266.845703"/>
     <use xlink:href="#Helvetica-2d" x="322.460938"/>
     <use xlink:href="#Helvetica-53" x="355.761719"/>
     <use xlink:href="#Helvetica-68" x="422.460938"/>
     <use xlink:href="#Helvetica-61" x="478.076172"/>
     <use xlink:href="#Helvetica-6e" x="533.691406"/>
     <use xlink:href="#Helvetica-6e" x="589.306641"/>
     <use xlink:href="#Helvetica-6f" x="644.921875"/>
     <use xlink:href="#Helvetica-6e" x="700.537109"/>
     <use xlink:href="#Helvetica-20" x="756.152344"/>
     <use xlink:href="#Helvetica-44" x="783.935547"/>
     <use xlink:href="#Helvetica-69" x="856.152344"/>
     <use xlink:href="#Helvetica-73" x="878.369141"/>
     <use xlink:href="#Helvetica-74" x="928.369141"/>
     <use xlink:href="#Helvetica-61" x="956.152344"/>
     <use xlink:href="#Helvetica-6e" x="1011.767578"/>
     <use xlink:href="#Helvetica-63" x="1067.382812"/>
     <use xlink:href="#Helvetica-65" x="1117.382812"/>
    </g>
   </g>
  </g>
  <g id="axes_3">
   <g id="patch_12">
    <path d="M 487.505 174.04 
L 632.093774 174.04 
L 632.093774 25.6875 
L 487.505 25.6875 
z
" style="fill: #ffffff"/>
   </g>
   <g id="matplotlib.axis_5">
    <g id="xtick_7">
     <g id="line2d_18">
      <g>
       <use xlink:href="#m4fab7206b5" x="492.735948" y="174.04" style="stroke: #000000; stroke-width: 0.8"/>
      </g>
     </g>
     <g id="text_24">
      <!-- 0.0 -->
      <g transform="translate(485.785948 188.213437) scale(0.1 -0.1)">
       <use xlink:href="#Helvetica-30"/>
       <use xlink:href="#Helvetica-2e" x="55.615234"/>
       <use xlink:href="#Helvetica-30" x="83.398438"/>
      </g>
     </g>
    </g>
    <g id="xtick_8">
     <g id="line2d_19">
      <g>
       <use xlink:href="#m4fab7206b5" x="559.799387" y="174.04" style="stroke: #000000; stroke-width: 0.8"/>
      </g>
     </g>
     <g id="text_25">
      <!-- 0.5 -->
      <g transform="translate(552.849387 188.213437) scale(0.1 -0.1)">
       <use xlink:href="#Helvetica-30"/>
       <use xlink:href="#Helvetica-2e" x="55.615234"/>
       <use xlink:href="#Helvetica-35" x="83.398438"/>
      </g>
     </g>
    </g>
    <g id="xtick_9">
     <g id="line2d_20">
      <g>
       <use xlink:href="#m4fab7206b5" x="626.862826" y="174.04" style="stroke: #000000; stroke-width: 0.8"/>
      </g>
     </g>
     <g id="text_26">
      <!-- 1.0 -->
      <g transform="translate(619.912826 188.213437) scale(0.1 -0.1)">
       <use xlink:href="#Helvetica-31"/>
       <use xlink:href="#Helvetica-2e" x="55.615234"/>
       <use xlink:href="#Helvetica-30" x="83.398438"/>
      </g>
     </g>
    </g>
    <g id="text_27">
     <!-- Outlier Value -->
     <g transform="translate(530.897043 201.47125) scale(0.1 -0.1)">
      <use xlink:href="#Helvetica-4f"/>
      <use xlink:href="#Helvetica-75" x="77.783203"/>
      <use xlink:href="#Helvetica-74" x="133.398438"/>
      <use xlink:href="#Helvetica-6c" x="161.181641"/>
      <use xlink:href="#Helvetica-69" x="183.398438"/>
      <use xlink:href="#Helvetica-65" x="205.615234"/>
      <use xlink:href="#Helvetica-72" x="261.230469"/>
      <use xlink:href="#Helvetica-20" x="294.53125"/>
      <use xlink:href="#Helvetica-56" x="322.314453"/>
      <use xlink:href="#Helvetica-61" x="389.013672"/>
      <use xlink:href="#Helvetica-6c" x="444.628906"/>
      <use xlink:href="#Helvetica-75" x="466.845703"/>
      <use xlink:href="#Helvetica-65" x="522.460938"/>
     </g>
    </g>
    <g id="text_28">
     <!-- 1e6 -->
     <g transform="translate(615.410962 200.47125) scale(0.1 -0.1)">
      <use xlink:href="#Helvetica-31"/>
      <use xlink:href="#Helvetica-65" x="55.615234"/>
      <use xlink:href="#Helvetica-36" x="111.230469"/>
     </g>
    </g>
   </g>
   <g id="matplotlib.axis_6">
    <g id="ytick_10">
     <g id="line2d_21">
      <g>
       <use xlink:href="#m4bd428040f" x="487.505" y="152.112995" style="stroke: #000000; stroke-width: 0.8"/>
      </g>
     </g>
     <g id="text_29">
      <!-- 0.66 -->
      <g transform="translate(461.044062 155.699714) scale(0.1 -0.1)">
       <use xlink:href="#Helvetica-30"/>
       <use xlink:href="#Helvetica-2e" x="55.615234"/>
       <use xlink:href="#Helvetica-36" x="83.398438"/>
       <use xlink:href="#Helvetica-36" x="139.013672"/>
      </g>
     </g>
    </g>
    <g id="ytick_11">
     <g id="line2d_22">
      <g>
       <use xlink:href="#m4bd428040f" x="487.505" y="112.827848" style="stroke: #000000; stroke-width: 0.8"/>
      </g>
     </g>
     <g id="text_30">
      <!-- 0.68 -->
      <g transform="translate(461.044062 116.414567) scale(0.1 -0.1)">
       <use xlink:href="#Helvetica-30"/>
       <use xlink:href="#Helvetica-2e" x="55.615234"/>
       <use xlink:href="#Helvetica-36" x="83.398438"/>
       <use xlink:href="#Helvetica-38" x="139.013672"/>
      </g>
     </g>
    </g>
    <g id="ytick_12">
     <g id="line2d_23">
      <g>
       <use xlink:href="#m4bd428040f" x="487.505" y="73.542702" style="stroke: #000000; stroke-width: 0.8"/>
      </g>
     </g>
     <g id="text_31">
      <!-- 0.70 -->
      <g transform="translate(461.044062 77.12942) scale(0.1 -0.1)">
       <use xlink:href="#Helvetica-30"/>
       <use xlink:href="#Helvetica-2e" x="55.615234"/>
       <use xlink:href="#Helvetica-37" x="83.398438"/>
       <use xlink:href="#Helvetica-30" x="139.013672"/>
      </g>
     </g>
    </g>
    <g id="ytick_13">
     <g id="line2d_24">
      <g>
       <use xlink:href="#m4bd428040f" x="487.505" y="34.257555" style="stroke: #000000; stroke-width: 0.8"/>
      </g>
     </g>
     <g id="text_32">
      <!-- 0.72 -->
      <g transform="translate(461.044062 37.844274) scale(0.1 -0.1)">
       <use xlink:href="#Helvetica-30"/>
       <use xlink:href="#Helvetica-2e" x="55.615234"/>
       <use xlink:href="#Helvetica-37" x="83.398438"/>
       <use xlink:href="#Helvetica-32" x="139.013672"/>
      </g>
     </g>
    </g>
    <g id="text_33">
     <!-- Kolmogorov-Smirnov Statistic -->
     <g transform="translate(454.831562 165.437187) rotate(-90) scale(0.1 -0.1)">
      <defs>
       <path id="Helvetica-4b" d="M 488 4591 
L 1094 4591 
L 1094 2353 
L 3331 4591 
L 4191 4591 
L 2281 2741 
L 4244 0 
L 3434 0 
L 1828 2303 
L 1094 1600 
L 1094 0 
L 488 0 
L 488 4591 
z
" transform="scale(0.015625)"/>
       <path id="Helvetica-6d" d="M 413 3347 
L 969 3347 
L 969 2872 
Q 1169 3119 1331 3231 
Q 1609 3422 1963 3422 
Q 2363 3422 2606 3225 
Q 2744 3113 2856 2894 
Q 3044 3163 3297 3292 
Q 3550 3422 3866 3422 
Q 4541 3422 4784 2934 
Q 4916 2672 4916 2228 
L 4916 0 
L 4331 0 
L 4331 2325 
Q 4331 2659 4164 2784 
Q 3997 2909 3756 2909 
Q 3425 2909 3186 2687 
Q 2947 2466 2947 1947 
L 2947 0 
L 2375 0 
L 2375 2184 
Q 2375 2525 2294 2681 
Q 2166 2916 1816 2916 
Q 1497 2916 1236 2669 
Q 975 2422 975 1775 
L 975 0 
L 413 0 
L 413 3347 
z
" transform="scale(0.015625)"/>
       <path id="Helvetica-67" d="M 1594 3406 
Q 1988 3406 2281 3213 
Q 2441 3103 2606 2894 
L 2606 3316 
L 3125 3316 
L 3125 272 
Q 3125 -366 2938 -734 
Q 2588 -1416 1616 -1416 
Q 1075 -1416 706 -1173 
Q 338 -931 294 -416 
L 866 -416 
Q 906 -641 1028 -763 
Q 1219 -950 1628 -950 
Q 2275 -950 2475 -494 
Q 2594 -225 2584 466 
Q 2416 209 2178 84 
Q 1941 -41 1550 -41 
Q 1006 -41 598 345 
Q 191 731 191 1622 
Q 191 2463 602 2934 
Q 1013 3406 1594 3406 
z
M 2606 1688 
Q 2606 2309 2350 2609 
Q 2094 2909 1697 2909 
Q 1103 2909 884 2353 
Q 769 2056 769 1575 
Q 769 1009 998 714 
Q 1228 419 1616 419 
Q 2222 419 2469 966 
Q 2606 1275 2606 1688 
z
M 1659 3428 
L 1659 3428 
z
" transform="scale(0.015625)"/>
       <path id="Helvetica-76" d="M 688 3347 
L 1581 622 
L 2516 3347 
L 3131 3347 
L 1869 0 
L 1269 0 
L 34 3347 
L 688 3347 
z
" transform="scale(0.015625)"/>
      </defs>
      <use xlink:href="#Helvetica-4b"/>
      <use xlink:href="#Helvetica-6f" x="66.699219"/>
      <use xlink:href="#Helvetica-6c" x="122.314453"/>
      <use xlink:href="#Helvetica-6d" x="144.53125"/>
      <use xlink:href="#Helvetica-6f" x="227.832031"/>
      <use xlink:href="#Helvetica-67" x="283.447266"/>
      <use xlink:href="#Helvetica-6f" x="339.0625"/>
      <use xlink:href="#Helvetica-72" x="394.677734"/>
      <use xlink:href="#Helvetica-6f" x="427.978516"/>
      <use xlink:href="#Helvetica-76" x="483.59375"/>
      <use xlink:href="#Helvetica-2d" x="533.59375"/>
      <use xlink:href="#Helvetica-53" x="566.894531"/>
      <use xlink:href="#Helvetica-6d" x="633.59375"/>
      <use xlink:href="#Helvetica-69" x="716.894531"/>
      <use xlink:href="#Helvetica-72" x="739.111328"/>
      <use xlink:href="#Helvetica-6e" x="772.412109"/>
      <use xlink:href="#Helvetica-6f" x="828.027344"/>
      <use xlink:href="#Helvetica-76" x="883.642578"/>
      <use xlink:href="#Helvetica-20" x="933.642578"/>
      <use xlink:href="#Helvetica-53" x="961.425781"/>
      <use xlink:href="#Helvetica-74" x="1028.125"/>
      <use xlink:href="#Helvetica-61" x="1055.908203"/>
      <use xlink:href="#Helvetica-74" x="1111.523438"/>
      <use xlink:href="#Helvetica-69" x="1139.306641"/>
      <use xlink:href="#Helvetica-73" x="1161.523438"/>
      <use xlink:href="#Helvetica-74" x="1211.523438"/>
      <use xlink:href="#Helvetica-69" x="1239.306641"/>
      <use xlink:href="#Helvetica-63" x="1261.523438"/>
     </g>
    </g>
   </g>
   <g id="line2d_25">
    <path d="M 494.077217 99.86375 
L 495.418486 99.86375 
L 496.759755 99.86375 
L 498.101023 99.86375 
L 499.442292 99.86375 
L 500.783561 99.86375 
L 502.12483 99.86375 
L 503.466098 99.86375 
L 504.807367 99.86375 
L 506.148636 99.86375 
L 507.489905 99.86375 
L 508.831174 99.86375 
L 510.172442 99.86375 
L 511.513711 99.86375 
L 512.85498 99.86375 
L 514.196249 99.86375 
L 515.537517 99.86375 
L 516.878786 99.86375 
L 518.220055 99.86375 
L 519.561324 99.86375 
L 520.902593 99.86375 
L 522.243861 99.86375 
L 523.58513 99.86375 
L 524.926399 99.86375 
L 526.267668 99.86375 
L 527.608936 99.86375 
L 528.950205 99.86375 
L 530.291474 99.86375 
L 531.632743 99.86375 
L 532.974012 99.86375 
L 534.31528 99.86375 
L 535.656549 99.86375 
L 536.997818 99.86375 
L 538.339087 99.86375 
L 539.680355 99.86375 
L 541.021624 99.86375 
L 542.362893 99.86375 
L 543.704162 99.86375 
L 545.045431 99.86375 
L 546.386699 99.86375 
L 547.727968 99.86375 
L 549.069237 99.86375 
L 550.410506 99.86375 
L 551.751774 99.86375 
L 553.093043 99.86375 
L 554.434312 99.86375 
L 555.775581 99.86375 
L 557.116849 99.86375 
L 558.458118 99.86375 
L 559.799387 99.86375 
L 561.140656 99.86375 
L 562.481925 99.86375 
L 563.823193 99.86375 
L 565.164462 99.86375 
L 566.505731 99.86375 
L 567.847 99.86375 
L 569.188268 99.86375 
L 570.529537 99.86375 
L 571.870806 99.86375 
L 573.212075 99.86375 
L 574.553344 99.86375 
L 575.894612 99.86375 
L 577.235881 99.86375 
L 578.57715 99.86375 
L 579.918419 99.86375 
L 581.259687 99.86375 
L 582.600956 99.86375 
L 583.942225 99.86375 
L 585.283494 99.86375 
L 586.624763 99.86375 
L 587.966031 99.86375 
L 589.3073 99.86375 
L 590.648569 99.86375 
L 591.989838 99.86375 
L 593.331106 99.86375 
L 594.672375 99.86375 
L 596.013644 99.86375 
L 597.354913 99.86375 
L 598.696182 99.86375 
L 600.03745 99.86375 
L 601.378719 99.86375 
L 602.719988 99.86375 
L 604.061257 99.86375 
L 605.402525 99.86375 
L 606.743794 99.86375 
L 608.085063 99.86375 
L 609.426332 99.86375 
L 610.767601 99.86375 
L 612.108869 99.86375 
L 613.450138 99.86375 
L 614.791407 99.86375 
L 616.132676 99.86375 
L 617.473944 99.86375 
L 618.815213 99.86375 
L 620.156482 99.86375 
L 621.497751 99.86375 
L 622.83902 99.86375 
L 624.180288 99.86375 
L 625.521557 99.86375 
" clip-path="url(#p8b193d89e0)" style="fill: none; stroke: #dd4040; stroke-width: 1.5; stroke-linecap: square"/>
   </g>
   <g id="patch_13">
    <path d="M 487.505 174.04 
L 487.505 25.6875 
" style="fill: none; stroke: #000000; stroke-width: 0.8; stroke-linejoin: miter; stroke-linecap: square"/>
   </g>
   <g id="patch_14">
    <path d="M 632.093774 174.04 
L 632.093774 25.6875 
" style="fill: none; stroke: #000000; stroke-width: 0.8; stroke-linejoin: miter; stroke-linecap: square"/>
   </g>
   <g id="patch_15">
    <path d="M 487.505 174.04 
L 632.093774 174.04 
" style="fill: none; stroke: #000000; stroke-width: 0.8; stroke-linejoin: miter; stroke-linecap: square"/>
   </g>
   <g id="patch_16">
    <path d="M 487.505 25.6875 
L 632.093774 25.6875 
" style="fill: none; stroke: #000000; stroke-width: 0.8; stroke-linejoin: miter; stroke-linecap: square"/>
   </g>
   <g id="text_34">
    <!-- Kolmogorov-Smirnov Statistic -->
    <g transform="translate(481.111262 19.6875) scale(0.12 -0.12)">
     <use xlink:href="#Helvetica-4b"/>
     <use xlink:href="#Helvetica-6f" x="66.699219"/>
     <use xlink:href="#Helvetica-6c" x="122.314453"/>
     <use xlink:href="#Helvetica-6d" x="144.53125"/>
     <use xlink:href="#Helvetica-6f" x="227.832031"/>
     <use xlink:href="#Helvetica-67" x="283.447266"/>
     <use xlink:href="#Helvetica-6f" x="339.0625"/>
     <use xlink:href="#Helvetica-72" x="394.677734"/>
     <use xlink:href="#Helvetica-6f" x="427.978516"/>
     <use xlink:href="#Helvetica-76" x="483.59375"/>
     <use xlink:href="#Helvetica-2d" x="533.59375"/>
     <use xlink:href="#Helvetica-53" x="566.894531"/>
     <use xlink:href="#Helvetica-6d" x="633.59375"/>
     <use xlink:href="#Helvetica-69" x="716.894531"/>
     <use xlink:href="#Helvetica-72" x="739.111328"/>
     <use xlink:href="#Helvetica-6e" x="772.412109"/>
     <use xlink:href="#Helvetica-6f" x="828.027344"/>
     <use xlink:href="#Helvetica-76" x="883.642578"/>
     <use xlink:href="#Helvetica-20" x="933.642578"/>
     <use xlink:href="#Helvetica-53" x="961.425781"/>
     <use xlink:href="#Helvetica-74" x="1028.125"/>
     <use xlink:href="#Helvetica-61" x="1055.908203"/>
     <use xlink:href="#Helvetica-74" x="1111.523438"/>
     <use xlink:href="#Helvetica-69" x="1139.306641"/>
     <use xlink:href="#Helvetica-73" x="1161.523438"/>
     <use xlink:href="#Helvetica-74" x="1211.523438"/>
     <use xlink:href="#Helvetica-69" x="1239.306641"/>
     <use xlink:href="#Helvetica-63" x="1261.523438"/>
    </g>
   </g>
  </g>
  <g id="axes_4">
   <g id="patch_17">
    <path d="M 706.9925 174.04 
L 851.581274 174.04 
L 851.581274 25.6875 
L 706.9925 25.6875 
z
" style="fill: #ffffff"/>
   </g>
   <g id="matplotlib.axis_7">
    <g id="xtick_10">
     <g id="line2d_26">
      <g>
       <use xlink:href="#m4fab7206b5" x="712.223448" y="174.04" style="stroke: #000000; stroke-width: 0.8"/>
      </g>
     </g>
     <g id="text_35">
      <!-- 0.0 -->
      <g transform="translate(705.273448 188.213437) scale(0.1 -0.1)">
       <use xlink:href="#Helvetica-30"/>
       <use xlink:href="#Helvetica-2e" x="55.615234"/>
       <use xlink:href="#Helvetica-30" x="83.398438"/>
      </g>
     </g>
    </g>
    <g id="xtick_11">
     <g id="line2d_27">
      <g>
       <use xlink:href="#m4fab7206b5" x="779.286887" y="174.04" style="stroke: #000000; stroke-width: 0.8"/>
      </g>
     </g>
     <g id="text_36">
      <!-- 0.5 -->
      <g transform="translate(772.336887 188.213437) scale(0.1 -0.1)">
       <use xlink:href="#Helvetica-30"/>
       <use xlink:href="#Helvetica-2e" x="55.615234"/>
       <use xlink:href="#Helvetica-35" x="83.398438"/>
      </g>
     </g>
    </g>
    <g id="xtick_12">
     <g id="line2d_28">
      <g>
       <use xlink:href="#m4fab7206b5" x="846.350326" y="174.04" style="stroke: #000000; stroke-width: 0.8"/>
      </g>
     </g>
     <g id="text_37">
      <!-- 1.0 -->
      <g transform="translate(839.400326 188.213437) scale(0.1 -0.1)">
       <use xlink:href="#Helvetica-31"/>
       <use xlink:href="#Helvetica-2e" x="55.615234"/>
       <use xlink:href="#Helvetica-30" x="83.398438"/>
      </g>
     </g>
    </g>
    <g id="text_38">
     <!-- Outlier Value -->
     <g transform="translate(750.384543 201.47125) scale(0.1 -0.1)">
      <use xlink:href="#Helvetica-4f"/>
      <use xlink:href="#Helvetica-75" x="77.783203"/>
      <use xlink:href="#Helvetica-74" x="133.398438"/>
      <use xlink:href="#Helvetica-6c" x="161.181641"/>
      <use xlink:href="#Helvetica-69" x="183.398438"/>
      <use xlink:href="#Helvetica-65" x="205.615234"/>
      <use xlink:href="#Helvetica-72" x="261.230469"/>
      <use xlink:href="#Helvetica-20" x="294.53125"/>
      <use xlink:href="#Helvetica-56" x="322.314453"/>
      <use xlink:href="#Helvetica-61" x="389.013672"/>
      <use xlink:href="#Helvetica-6c" x="444.628906"/>
      <use xlink:href="#Helvetica-75" x="466.845703"/>
      <use xlink:href="#Helvetica-65" x="522.460938"/>
     </g>
    </g>
    <g id="text_39">
     <!-- 1e6 -->
     <g transform="translate(834.898462 200.47125) scale(0.1 -0.1)">
      <use xlink:href="#Helvetica-31"/>
      <use xlink:href="#Helvetica-65" x="55.615234"/>
      <use xlink:href="#Helvetica-36" x="111.230469"/>
     </g>
    </g>
   </g>
   <g id="matplotlib.axis_8">
    <g id="ytick_14">
     <g id="line2d_29">
      <g>
       <use xlink:href="#m4bd428040f" x="706.9925" y="153.874846" style="stroke: #000000; stroke-width: 0.8"/>
      </g>
     </g>
     <g id="text_40">
      <!-- 0.000096 -->
      <g transform="translate(658.287812 157.461565) scale(0.1 -0.1)">
       <defs>
        <path id="Helvetica-39" d="M 850 1081 
Q 875 616 1209 438 
Q 1381 344 1597 344 
Q 2000 344 2284 680 
Q 2569 1016 2688 2044 
Q 2500 1747 2223 1626 
Q 1947 1506 1628 1506 
Q 981 1506 604 1909 
Q 228 2313 228 2947 
Q 228 3556 600 4018 
Q 972 4481 1697 4481 
Q 2675 4481 3047 3600 
Q 3253 3116 3253 2388 
Q 3253 1566 3006 931 
Q 2597 -125 1619 -125 
Q 963 -125 622 219 
Q 281 563 281 1081 
L 850 1081 
z
M 1703 2000 
Q 2038 2000 2314 2220 
Q 2591 2441 2591 2991 
Q 2591 3484 2342 3726 
Q 2094 3969 1709 3969 
Q 1297 3969 1055 3692 
Q 813 3416 813 2953 
Q 813 2516 1025 2258 
Q 1238 2000 1703 2000 
z
" transform="scale(0.015625)"/>
       </defs>
       <use xlink:href="#Helvetica-30"/>
       <use xlink:href="#Helvetica-2e" x="55.615234"/>
       <use xlink:href="#Helvetica-30" x="83.398438"/>
       <use xlink:href="#Helvetica-30" x="139.013672"/>
       <use xlink:href="#Helvetica-30" x="194.628906"/>
       <use xlink:href="#Helvetica-30" x="250.244141"/>
       <use xlink:href="#Helvetica-39" x="305.859375"/>
       <use xlink:href="#Helvetica-36" x="361.474609"/>
      </g>
     </g>
    </g>
    <g id="ytick_15">
     <g id="line2d_30">
      <g>
       <use xlink:href="#m4bd428040f" x="706.9925" y="126.903013" style="stroke: #000000; stroke-width: 0.8"/>
      </g>
     </g>
     <g id="text_41">
      <!-- 0.000098 -->
      <g transform="translate(658.287812 130.489732) scale(0.1 -0.1)">
       <use xlink:href="#Helvetica-30"/>
       <use xlink:href="#Helvetica-2e" x="55.615234"/>
       <use xlink:href="#Helvetica-30" x="83.398438"/>
       <use xlink:href="#Helvetica-30" x="139.013672"/>
       <use xlink:href="#Helvetica-30" x="194.628906"/>
       <use xlink:href="#Helvetica-30" x="250.244141"/>
       <use xlink:href="#Helvetica-39" x="305.859375"/>
       <use xlink:href="#Helvetica-38" x="361.474609"/>
      </g>
     </g>
    </g>
    <g id="ytick_16">
     <g id="line2d_31">
      <g>
       <use xlink:href="#m4bd428040f" x="706.9925" y="99.93118" style="stroke: #000000; stroke-width: 0.8"/>
      </g>
     </g>
     <g id="text_42">
      <!-- 0.000100 -->
      <g transform="translate(658.287812 103.517898) scale(0.1 -0.1)">
       <use xlink:href="#Helvetica-30"/>
       <use xlink:href="#Helvetica-2e" x="55.615234"/>
       <use xlink:href="#Helvetica-30" x="83.398438"/>
       <use xlink:href="#Helvetica-30" x="139.013672"/>
       <use xlink:href="#Helvetica-30" x="194.628906"/>
       <use xlink:href="#Helvetica-31" x="250.244141"/>
       <use xlink:href="#Helvetica-30" x="305.859375"/>
       <use xlink:href="#Helvetica-30" x="361.474609"/>
      </g>
     </g>
    </g>
    <g id="ytick_17">
     <g id="line2d_32">
      <g>
       <use xlink:href="#m4bd428040f" x="706.9925" y="72.959346" style="stroke: #000000; stroke-width: 0.8"/>
      </g>
     </g>
     <g id="text_43">
      <!-- 0.000102 -->
      <g transform="translate(658.287812 76.546065) scale(0.1 -0.1)">
       <use xlink:href="#Helvetica-30"/>
       <use xlink:href="#Helvetica-2e" x="55.615234"/>
       <use xlink:href="#Helvetica-30" x="83.398438"/>
       <use xlink:href="#Helvetica-30" x="139.013672"/>
       <use xlink:href="#Helvetica-30" x="194.628906"/>
       <use xlink:href="#Helvetica-31" x="250.244141"/>
       <use xlink:href="#Helvetica-30" x="305.859375"/>
       <use xlink:href="#Helvetica-32" x="361.474609"/>
      </g>
     </g>
    </g>
    <g id="ytick_18">
     <g id="line2d_33">
      <g>
       <use xlink:href="#m4bd428040f" x="706.9925" y="45.987513" style="stroke: #000000; stroke-width: 0.8"/>
      </g>
     </g>
     <g id="text_44">
      <!-- 0.000104 -->
      <g transform="translate(658.287812 49.574232) scale(0.1 -0.1)">
       <defs>
        <path id="Helvetica-34" d="M 2116 1584 
L 2116 3613 
L 681 1584 
L 2116 1584 
z
M 2125 0 
L 2125 1094 
L 163 1094 
L 163 1644 
L 2213 4488 
L 2688 4488 
L 2688 1584 
L 3347 1584 
L 3347 1094 
L 2688 1094 
L 2688 0 
L 2125 0 
z
" transform="scale(0.015625)"/>
       </defs>
       <use xlink:href="#Helvetica-30"/>
       <use xlink:href="#Helvetica-2e" x="55.615234"/>
       <use xlink:href="#Helvetica-30" x="83.398438"/>
       <use xlink:href="#Helvetica-30" x="139.013672"/>
       <use xlink:href="#Helvetica-30" x="194.628906"/>
       <use xlink:href="#Helvetica-31" x="250.244141"/>
       <use xlink:href="#Helvetica-30" x="305.859375"/>
       <use xlink:href="#Helvetica-34" x="361.474609"/>
      </g>
     </g>
    </g>
    <g id="text_45">
     <!-- Hellinger Distance -->
     <g transform="translate(652.075312 140.435625) rotate(-90) scale(0.1 -0.1)">
      <defs>
       <path id="Helvetica-48" d="M 503 4591 
L 1131 4591 
L 1131 2694 
L 3519 2694 
L 3519 4591 
L 4147 4591 
L 4147 0 
L 3519 0 
L 3519 2147 
L 1131 2147 
L 1131 0 
L 503 0 
L 503 4591 
z
" transform="scale(0.015625)"/>
      </defs>
      <use xlink:href="#Helvetica-48"/>
      <use xlink:href="#Helvetica-65" x="72.216797"/>
      <use xlink:href="#Helvetica-6c" x="127.832031"/>
      <use xlink:href="#Helvetica-6c" x="150.048828"/>
      <use xlink:href="#Helvetica-69" x="172.265625"/>
      <use xlink:href="#Helvetica-6e" x="194.482422"/>
      <use xlink:href="#Helvetica-67" x="250.097656"/>
      <use xlink:href="#Helvetica-65" x="305.712891"/>
      <use xlink:href="#Helvetica-72" x="361.328125"/>
      <use xlink:href="#Helvetica-20" x="394.628906"/>
      <use xlink:href="#Helvetica-44" x="422.412109"/>
      <use xlink:href="#Helvetica-69" x="494.628906"/>
      <use xlink:href="#Helvetica-73" x="516.845703"/>
      <use xlink:href="#Helvetica-74" x="566.845703"/>
      <use xlink:href="#Helvetica-61" x="594.628906"/>
      <use xlink:href="#Helvetica-6e" x="650.244141"/>
      <use xlink:href="#Helvetica-63" x="705.859375"/>
      <use xlink:href="#Helvetica-65" x="755.859375"/>
     </g>
    </g>
   </g>
   <g id="line2d_34">
    <path d="M 713.564717 99.86375 
L 714.905986 99.86375 
L 716.247255 99.86375 
L 717.588523 99.86375 
L 718.929792 99.86375 
L 720.271061 99.86375 
L 721.61233 99.86375 
L 722.953598 99.86375 
L 724.294867 99.86375 
L 725.636136 99.86375 
L 726.977405 99.86375 
L 728.318674 99.86375 
L 729.659942 99.86375 
L 731.001211 99.86375 
L 732.34248 99.86375 
L 733.683749 99.86375 
L 735.025017 99.86375 
L 736.366286 99.86375 
L 737.707555 99.86375 
L 739.048824 99.86375 
L 740.390093 99.86375 
L 741.731361 99.86375 
L 743.07263 99.86375 
L 744.413899 99.86375 
L 745.755168 99.86375 
L 747.096436 99.86375 
L 748.437705 99.86375 
L 749.778974 99.86375 
L 751.120243 99.86375 
L 752.461512 99.86375 
L 753.80278 99.86375 
L 755.144049 99.86375 
L 756.485318 99.86375 
L 757.826587 99.86375 
L 759.167855 99.86375 
L 760.509124 99.86375 
L 761.850393 99.86375 
L 763.191662 99.86375 
L 764.532931 99.86375 
L 765.874199 99.86375 
L 767.215468 99.86375 
L 768.556737 99.86375 
L 769.898006 99.86375 
L 771.239274 99.86375 
L 772.580543 99.86375 
L 773.921812 99.86375 
L 775.263081 99.86375 
L 776.604349 99.86375 
L 777.945618 99.86375 
L 779.286887 99.86375 
L 780.628156 99.86375 
L 781.969425 99.86375 
L 783.310693 99.86375 
L 784.651962 99.86375 
L 785.993231 99.86375 
L 787.3345 99.86375 
L 788.675768 99.86375 
L 790.017037 99.86375 
L 791.358306 99.86375 
L 792.699575 99.86375 
L 794.040844 99.86375 
L 795.382112 99.86375 
L 796.723381 99.86375 
L 798.06465 99.86375 
L 799.405919 99.86375 
L 800.747187 99.86375 
L 802.088456 99.86375 
L 803.429725 99.86375 
L 804.770994 99.86375 
L 806.112263 99.86375 
L 807.453531 99.86375 
L 808.7948 99.86375 
L 810.136069 99.86375 
L 811.477338 99.86375 
L 812.818606 99.86375 
L 814.159875 99.86375 
L 815.501144 99.86375 
L 816.842413 99.86375 
L 818.183682 99.86375 
L 819.52495 99.86375 
L 820.866219 99.86375 
L 822.207488 99.86375 
L 823.548757 99.86375 
L 824.890025 99.86375 
L 826.231294 99.86375 
L 827.572563 99.86375 
L 828.913832 99.86375 
L 830.255101 99.86375 
L 831.596369 99.86375 
L 832.937638 99.86375 
L 834.278907 99.86375 
L 835.620176 99.86375 
L 836.961444 99.86375 
L 838.302713 99.86375 
L 839.643982 99.86375 
L 840.985251 99.86375 
L 842.32652 99.86375 
L 843.667788 99.86375 
L 845.009057 99.86375 
" clip-path="url(#pfe9715a17b)" style="fill: none; stroke: #dd4040; stroke-width: 1.5; stroke-linecap: square"/>
   </g>
   <g id="patch_18">
    <path d="M 706.9925 174.04 
L 706.9925 25.6875 
" style="fill: none; stroke: #000000; stroke-width: 0.8; stroke-linejoin: miter; stroke-linecap: square"/>
   </g>
   <g id="patch_19">
    <path d="M 851.581274 174.04 
L 851.581274 25.6875 
" style="fill: none; stroke: #000000; stroke-width: 0.8; stroke-linejoin: miter; stroke-linecap: square"/>
   </g>
   <g id="patch_20">
    <path d="M 706.9925 174.04 
L 851.581274 174.04 
" style="fill: none; stroke: #000000; stroke-width: 0.8; stroke-linejoin: miter; stroke-linecap: square"/>
   </g>
   <g id="patch_21">
    <path d="M 706.9925 25.6875 
L 851.581274 25.6875 
" style="fill: none; stroke: #000000; stroke-width: 0.8; stroke-linejoin: miter; stroke-linecap: square"/>
   </g>
   <g id="text_46">
    <!-- Hellinger Distance -->
    <g transform="translate(730.600637 19.6875) scale(0.12 -0.12)">
     <use xlink:href="#Helvetica-48"/>
     <use xlink:href="#Helvetica-65" x="72.216797"/>
     <use xlink:href="#Helvetica-6c" x="127.832031"/>
     <use xlink:href="#Helvetica-6c" x="150.048828"/>
     <use xlink:href="#Helvetica-69" x="172.265625"/>
     <use xlink:href="#Helvetica-6e" x="194.482422"/>
     <use xlink:href="#Helvetica-67" x="250.097656"/>
     <use xlink:href="#Helvetica-65" x="305.712891"/>
     <use xlink:href="#Helvetica-72" x="361.328125"/>
     <use xlink:href="#Helvetica-20" x="394.628906"/>
     <use xlink:href="#Helvetica-44" x="422.412109"/>
     <use xlink:href="#Helvetica-69" x="494.628906"/>
     <use xlink:href="#Helvetica-73" x="516.845703"/>
     <use xlink:href="#Helvetica-74" x="566.845703"/>
     <use xlink:href="#Helvetica-61" x="594.628906"/>
     <use xlink:href="#Helvetica-6e" x="650.244141"/>
     <use xlink:href="#Helvetica-63" x="705.859375"/>
     <use xlink:href="#Helvetica-65" x="755.859375"/>
    </g>
   </g>
  </g>
 </g>
 <defs>
  <clipPath id="p41fc840e0c">
   <rect x="48.53" y="25.6875" width="144.588774" height="148.3525"/>
  </clipPath>
  <clipPath id="p1ab9b446f1">
   <rect x="268.0175" y="25.6875" width="144.588774" height="148.3525"/>
  </clipPath>
  <clipPath id="p8b193d89e0">
   <rect x="487.505" y="25.6875" width="144.588774" height="148.3525"/>
  </clipPath>
  <clipPath id="pfe9715a17b">
   <rect x="706.9925" y="25.6875" width="144.588774" height="148.3525"/>
  </clipPath>
 </defs>
</svg>
