<?xml version="1.0" encoding="utf-8" standalone="no"?>
<!DOCTYPE svg PUBLIC "-//W3C//DTD SVG 1.1//EN"
  "http://www.w3.org/Graphics/SVG/1.1/DTD/svg11.dtd">
<svg xmlns:xlink="http://www.w3.org/1999/xlink" width="1440pt" height="360pt" viewBox="0 0 1440 360" xmlns="http://www.w3.org/2000/svg" version="1.1">
 <metadata>
  <rdf:RDF xmlns:dc="http://purl.org/dc/elements/1.1/" xmlns:cc="http://creativecommons.org/ns#" xmlns:rdf="http://www.w3.org/1999/02/22-rdf-syntax-ns#">
   <cc:Work>
    <dc:type rdf:resource="http://purl.org/dc/dcmitype/StillImage"/>
    <dc:date>2022-11-30T16:17:04.907053</dc:date>
    <dc:format>image/svg+xml</dc:format>
    <dc:creator>
     <cc:Agent>
      <dc:title>Matplotlib v3.6.2, https://matplotlib.org/</dc:title>
     </cc:Agent>
    </dc:creator>
   </cc:Work>
  </rdf:RDF>
 </metadata>
 <defs>
  <style type="text/css">*{stroke-linejoin: round; stroke-linecap: butt}</style>
 </defs>
 <g id="figure_1">
  <g id="patch_1">
   <path d="M 0 360 
L 1440 360 
L 1440 0 
L 0 0 
z
" style="fill: #ffffff"/>
  </g>
  <g id="axes_1">
   <g id="patch_2">
    <path d="M 37.55 318.04 
L 351.1575 318.04 
L 351.1575 25.6875 
L 37.55 25.6875 
z
" style="fill: #ffffff"/>
   </g>
   <g id="PolyCollection_1">
    <defs>
     <path id="mf1ffac396d" d="M 51.804886 -56.589736 
L 51.804886 -55.24875 
L 55.877711 -58.387469 
L 59.950536 -62.107259 
L 64.02336 -65.885999 
L 68.096185 -69.665986 
L 72.16901 -73.446521 
L 76.241834 -77.227675 
L 80.314659 -81.009214 
L 84.387484 -84.790941 
L 88.460308 -88.572805 
L 92.533133 -92.35467 
L 96.605958 -96.136534 
L 100.678782 -99.918399 
L 104.751607 -103.700264 
L 108.824432 -107.482128 
L 112.897256 -111.263993 
L 116.970081 -115.045857 
L 121.042906 -118.827722 
L 125.115731 -122.609586 
L 129.188555 -126.391451 
L 133.26138 -130.173316 
L 137.334205 -133.95518 
L 141.407029 -137.737045 
L 145.479854 -141.518909 
L 149.552679 -145.300774 
L 153.625503 -149.082639 
L 157.698328 -152.864503 
L 161.771153 -156.646368 
L 165.843977 -160.428232 
L 169.916802 -164.210097 
L 173.989627 -167.991961 
L 178.062451 -171.773826 
L 182.135276 -175.555691 
L 186.208101 -179.337555 
L 190.280925 -183.11942 
L 194.35375 -186.901284 
L 198.426575 -190.683149 
L 202.499399 -194.465014 
L 206.572224 -198.246878 
L 210.645049 -202.028743 
L 214.717873 -205.810607 
L 218.790698 -209.592472 
L 222.863523 -213.374336 
L 226.936347 -217.156201 
L 231.009172 -220.938066 
L 235.081997 -224.71993 
L 239.154821 -228.501795 
L 243.227646 -232.283659 
L 247.300471 -236.065524 
L 251.373295 -239.847388 
L 255.44612 -243.629253 
L 259.518945 -247.411118 
L 263.591769 -251.192982 
L 267.664594 -254.974847 
L 271.737419 -258.756711 
L 275.810244 -262.538576 
L 279.883068 -266.320441 
L 283.955893 -270.102305 
L 288.028718 -273.88417 
L 292.101542 -277.666034 
L 296.174367 -281.447899 
L 300.247192 -285.229763 
L 304.320016 -289.011628 
L 308.392841 -292.793493 
L 312.465666 -296.575357 
L 316.53849 -300.357222 
L 320.611315 -304.139086 
L 324.68414 -307.920951 
L 328.756964 -311.702816 
L 332.829789 -315.48468 
L 336.902614 -319.266545 
L 336.902614 -321.02375 
L 336.902614 -321.02375 
L 332.829789 -317.241885 
L 328.756964 -313.460021 
L 324.68414 -309.678156 
L 320.611315 -305.896292 
L 316.53849 -302.114427 
L 312.465666 -298.332563 
L 308.392841 -294.550698 
L 304.320016 -290.768833 
L 300.247192 -286.986969 
L 296.174367 -283.205104 
L 292.101542 -279.42324 
L 288.028718 -275.641375 
L 283.955893 -271.85951 
L 279.883068 -268.077646 
L 275.810244 -264.295781 
L 271.737419 -260.513917 
L 267.664594 -256.732052 
L 263.591769 -252.950188 
L 259.518945 -249.168323 
L 255.44612 -245.386458 
L 251.373295 -241.604594 
L 247.300471 -237.822729 
L 243.227646 -234.040865 
L 239.154821 -230.259 
L 235.081997 -226.477135 
L 231.009172 -222.695271 
L 226.936347 -218.913406 
L 222.863523 -215.131542 
L 218.790698 -211.349677 
L 214.717873 -207.567813 
L 210.645049 -203.785948 
L 206.572224 -200.004083 
L 202.499399 -196.222219 
L 198.426575 -192.440354 
L 194.35375 -188.65849 
L 190.280925 -184.876625 
L 186.208101 -181.09476 
L 182.135276 -177.312896 
L 178.062451 -173.531031 
L 173.989627 -169.749167 
L 169.916802 -165.967302 
L 165.843977 -162.185438 
L 161.771153 -158.403573 
L 157.698328 -154.621708 
L 153.625503 -150.839844 
L 149.552679 -147.057979 
L 145.479854 -143.276115 
L 141.407029 -139.49425 
L 137.334205 -135.712385 
L 133.26138 -131.930521 
L 129.188555 -128.148656 
L 125.115731 -124.366792 
L 121.042906 -120.584927 
L 116.970081 -116.803063 
L 112.897256 -113.021198 
L 108.824432 -109.239333 
L 104.751607 -105.457469 
L 100.678782 -101.675604 
L 96.605958 -97.89374 
L 92.533133 -94.111875 
L 88.460308 -90.33001 
L 84.387484 -86.548146 
L 80.314659 -82.76628 
L 76.241834 -78.984421 
L 72.16901 -75.202883 
L 68.096185 -71.422284 
L 64.02336 -67.643676 
L 59.950536 -63.868542 
L 55.877711 -60.123459 
L 51.804886 -56.589736 
z
" style="stroke: #f8dcdc"/>
    </defs>
    <g clip-path="url(#p1e616c473e)">
     <use xlink:href="#mf1ffac396d" x="0" y="360" style="fill: #f8dcdc; stroke: #f8dcdc"/>
    </g>
   </g>
   <g id="matplotlib.axis_1">
    <g id="xtick_1">
     <g id="line2d_1">
      <defs>
       <path id="m1cd2b65d41" d="M 0 0 
L 0 3.5 
" style="stroke: #000000; stroke-width: 0.8"/>
      </defs>
      <g>
       <use xlink:href="#m1cd2b65d41" x="51.804886" y="318.04" style="stroke: #000000; stroke-width: 0.8"/>
      </g>
     </g>
     <g id="text_1">
      <!-- 0 -->
      <g transform="translate(49.024418 332.213437) scale(0.1 -0.1)">
       <defs>
        <path id="Helvetica-30" d="M 1731 4475 
Q 2600 4475 2988 3759 
Q 3288 3206 3288 2244 
Q 3288 1331 3016 734 
Q 2622 -122 1728 -122 
Q 922 -122 528 578 
Q 200 1163 200 2147 
Q 200 2909 397 3456 
Q 766 4475 1731 4475 
z
M 1725 391 
Q 2163 391 2422 778 
Q 2681 1166 2681 2222 
Q 2681 2984 2493 3476 
Q 2306 3969 1766 3969 
Q 1269 3969 1039 3501 
Q 809 3034 809 2125 
Q 809 1441 956 1025 
Q 1181 391 1725 391 
z
" transform="scale(0.015625)"/>
       </defs>
       <use xlink:href="#Helvetica-30"/>
      </g>
     </g>
    </g>
    <g id="xtick_2">
     <g id="line2d_2">
      <g>
       <use xlink:href="#m1cd2b65d41" x="92.533133" y="318.04" style="stroke: #000000; stroke-width: 0.8"/>
      </g>
     </g>
     <g id="text_2">
      <!-- 1 -->
      <g transform="translate(89.752664 332.213437) scale(0.1 -0.1)">
       <defs>
        <path id="Helvetica-31" d="M 613 3169 
L 613 3600 
Q 1222 3659 1462 3798 
Q 1703 3938 1822 4456 
L 2266 4456 
L 2266 0 
L 1666 0 
L 1666 3169 
L 613 3169 
z
" transform="scale(0.015625)"/>
       </defs>
       <use xlink:href="#Helvetica-31"/>
      </g>
     </g>
    </g>
    <g id="xtick_3">
     <g id="line2d_3">
      <g>
       <use xlink:href="#m1cd2b65d41" x="133.26138" y="318.04" style="stroke: #000000; stroke-width: 0.8"/>
      </g>
     </g>
     <g id="text_3">
      <!-- 2 -->
      <g transform="translate(130.480911 332.213437) scale(0.1 -0.1)">
       <defs>
        <path id="Helvetica-32" d="M 200 0 
Q 231 578 439 1006 
Q 647 1434 1250 1784 
L 1850 2131 
Q 2253 2366 2416 2531 
Q 2672 2791 2672 3125 
Q 2672 3516 2437 3745 
Q 2203 3975 1813 3975 
Q 1234 3975 1013 3538 
Q 894 3303 881 2888 
L 309 2888 
Q 319 3472 525 3841 
Q 891 4491 1816 4491 
Q 2584 4491 2939 4075 
Q 3294 3659 3294 3150 
Q 3294 2613 2916 2231 
Q 2697 2009 2131 1694 
L 1703 1456 
Q 1397 1288 1222 1134 
Q 909 863 828 531 
L 3272 531 
L 3272 0 
L 200 0 
z
" transform="scale(0.015625)"/>
       </defs>
       <use xlink:href="#Helvetica-32"/>
      </g>
     </g>
    </g>
    <g id="xtick_4">
     <g id="line2d_4">
      <g>
       <use xlink:href="#m1cd2b65d41" x="173.989627" y="318.04" style="stroke: #000000; stroke-width: 0.8"/>
      </g>
     </g>
     <g id="text_4">
      <!-- 3 -->
      <g transform="translate(171.209158 332.213437) scale(0.1 -0.1)">
       <defs>
        <path id="Helvetica-33" d="M 1663 -122 
Q 869 -122 511 314 
Q 153 750 153 1375 
L 741 1375 
Q 778 941 903 744 
Q 1122 391 1694 391 
Q 2138 391 2406 628 
Q 2675 866 2675 1241 
Q 2675 1703 2392 1887 
Q 2109 2072 1606 2072 
Q 1550 2072 1492 2070 
Q 1434 2069 1375 2066 
L 1375 2563 
Q 1463 2553 1522 2550 
Q 1581 2547 1650 2547 
Q 1966 2547 2169 2647 
Q 2525 2822 2525 3272 
Q 2525 3606 2287 3787 
Q 2050 3969 1734 3969 
Q 1172 3969 956 3594 
Q 838 3388 822 3006 
L 266 3006 
Q 266 3506 466 3856 
Q 809 4481 1675 4481 
Q 2359 4481 2734 4176 
Q 3109 3872 3109 3294 
Q 3109 2881 2888 2625 
Q 2750 2466 2531 2375 
Q 2884 2278 3082 2001 
Q 3281 1725 3281 1325 
Q 3281 684 2859 281 
Q 2438 -122 1663 -122 
z
" transform="scale(0.015625)"/>
       </defs>
       <use xlink:href="#Helvetica-33"/>
      </g>
     </g>
    </g>
    <g id="xtick_5">
     <g id="line2d_5">
      <g>
       <use xlink:href="#m1cd2b65d41" x="214.717873" y="318.04" style="stroke: #000000; stroke-width: 0.8"/>
      </g>
     </g>
     <g id="text_5">
      <!-- 4 -->
      <g transform="translate(211.937405 332.213437) scale(0.1 -0.1)">
       <defs>
        <path id="Helvetica-34" d="M 2116 1584 
L 2116 3613 
L 681 1584 
L 2116 1584 
z
M 2125 0 
L 2125 1094 
L 163 1094 
L 163 1644 
L 2213 4488 
L 2688 4488 
L 2688 1584 
L 3347 1584 
L 3347 1094 
L 2688 1094 
L 2688 0 
L 2125 0 
z
" transform="scale(0.015625)"/>
       </defs>
       <use xlink:href="#Helvetica-34"/>
      </g>
     </g>
    </g>
    <g id="xtick_6">
     <g id="line2d_6">
      <g>
       <use xlink:href="#m1cd2b65d41" x="255.44612" y="318.04" style="stroke: #000000; stroke-width: 0.8"/>
      </g>
     </g>
     <g id="text_6">
      <!-- 5 -->
      <g transform="translate(252.665651 332.213437) scale(0.1 -0.1)">
       <defs>
        <path id="Helvetica-35" d="M 791 1141 
Q 847 659 1238 475 
Q 1438 381 1700 381 
Q 2200 381 2440 700 
Q 2681 1019 2681 1406 
Q 2681 1875 2395 2131 
Q 2109 2388 1709 2388 
Q 1419 2388 1211 2275 
Q 1003 2163 856 1963 
L 369 1991 
L 709 4400 
L 3034 4400 
L 3034 3856 
L 1131 3856 
L 941 2613 
Q 1097 2731 1238 2791 
Q 1488 2894 1816 2894 
Q 2431 2894 2859 2497 
Q 3288 2100 3288 1491 
Q 3288 856 2895 371 
Q 2503 -113 1644 -113 
Q 1097 -113 676 195 
Q 256 503 206 1141 
L 791 1141 
z
" transform="scale(0.015625)"/>
       </defs>
       <use xlink:href="#Helvetica-35"/>
      </g>
     </g>
    </g>
    <g id="xtick_7">
     <g id="line2d_7">
      <g>
       <use xlink:href="#m1cd2b65d41" x="296.174367" y="318.04" style="stroke: #000000; stroke-width: 0.8"/>
      </g>
     </g>
     <g id="text_7">
      <!-- 6 -->
      <g transform="translate(293.393898 332.213437) scale(0.1 -0.1)">
       <defs>
        <path id="Helvetica-36" d="M 1872 4494 
Q 2622 4494 2917 4105 
Q 3213 3716 3213 3303 
L 2656 3303 
Q 2606 3569 2497 3719 
Q 2294 4000 1881 4000 
Q 1409 4000 1131 3564 
Q 853 3128 822 2316 
Q 1016 2600 1309 2741 
Q 1578 2866 1909 2866 
Q 2472 2866 2890 2506 
Q 3309 2147 3309 1434 
Q 3309 825 2912 354 
Q 2516 -116 1781 -116 
Q 1153 -116 697 361 
Q 241 838 241 1966 
Q 241 2800 444 3381 
Q 834 4494 1872 4494 
z
M 1831 384 
Q 2275 384 2495 682 
Q 2716 981 2716 1388 
Q 2716 1731 2519 2042 
Q 2322 2353 1803 2353 
Q 1441 2353 1167 2112 
Q 894 1872 894 1388 
Q 894 963 1142 673 
Q 1391 384 1831 384 
z
" transform="scale(0.015625)"/>
       </defs>
       <use xlink:href="#Helvetica-36"/>
      </g>
     </g>
    </g>
    <g id="xtick_8">
     <g id="line2d_8">
      <g>
       <use xlink:href="#m1cd2b65d41" x="336.902614" y="318.04" style="stroke: #000000; stroke-width: 0.8"/>
      </g>
     </g>
     <g id="text_8">
      <!-- 7 -->
      <g transform="translate(334.122145 332.213437) scale(0.1 -0.1)">
       <defs>
        <path id="Helvetica-37" d="M 3347 4400 
L 3347 3909 
Q 3131 3700 2773 3181 
Q 2416 2663 2141 2063 
Q 1869 1478 1728 997 
Q 1638 688 1494 0 
L 872 0 
Q 1084 1281 1809 2550 
Q 2238 3294 2709 3834 
L 234 3834 
L 234 4400 
L 3347 4400 
z
" transform="scale(0.015625)"/>
       </defs>
       <use xlink:href="#Helvetica-37"/>
      </g>
     </g>
    </g>
    <g id="text_9">
     <!-- Mean of Analysis Distribution -->
     <g transform="translate(129.884219 345.572812) scale(0.1 -0.1)">
      <defs>
       <path id="Helvetica-4d" d="M 472 4591 
L 1363 4591 
L 2681 709 
L 3991 4591 
L 4872 4591 
L 4872 0 
L 4281 0 
L 4281 2709 
Q 4281 2850 4287 3175 
Q 4294 3500 4294 3872 
L 2984 0 
L 2369 0 
L 1050 3872 
L 1050 3731 
Q 1050 3563 1058 3217 
Q 1066 2872 1066 2709 
L 1066 0 
L 472 0 
L 472 4591 
z
" transform="scale(0.015625)"/>
       <path id="Helvetica-65" d="M 1806 3422 
Q 2163 3422 2497 3255 
Q 2831 3088 3006 2822 
Q 3175 2569 3231 2231 
Q 3281 2000 3281 1494 
L 828 1494 
Q 844 984 1069 676 
Q 1294 369 1766 369 
Q 2206 369 2469 659 
Q 2619 828 2681 1050 
L 3234 1050 
Q 3213 866 3089 639 
Q 2966 413 2813 269 
Q 2556 19 2178 -69 
Q 1975 -119 1719 -119 
Q 1094 -119 659 336 
Q 225 791 225 1609 
Q 225 2416 662 2919 
Q 1100 3422 1806 3422 
z
M 2703 1941 
Q 2669 2306 2544 2525 
Q 2313 2931 1772 2931 
Q 1384 2931 1121 2651 
Q 859 2372 844 1941 
L 2703 1941 
z
M 1753 3428 
L 1753 3428 
z
" transform="scale(0.015625)"/>
       <path id="Helvetica-61" d="M 844 891 
Q 844 647 1022 506 
Q 1200 366 1444 366 
Q 1741 366 2019 503 
Q 2488 731 2488 1250 
L 2488 1703 
Q 2384 1638 2221 1594 
Q 2059 1550 1903 1531 
L 1563 1488 
Q 1256 1447 1103 1359 
Q 844 1213 844 891 
z
M 2206 2028 
Q 2400 2053 2466 2191 
Q 2503 2266 2503 2406 
Q 2503 2694 2298 2823 
Q 2094 2953 1713 2953 
Q 1272 2953 1088 2716 
Q 984 2584 953 2325 
L 428 2325 
Q 444 2944 830 3186 
Q 1216 3428 1725 3428 
Q 2316 3428 2684 3203 
Q 3050 2978 3050 2503 
L 3050 575 
Q 3050 488 3086 434 
Q 3122 381 3238 381 
Q 3275 381 3322 386 
Q 3369 391 3422 400 
L 3422 -16 
Q 3291 -53 3222 -62 
Q 3153 -72 3034 -72 
Q 2744 -72 2613 134 
Q 2544 244 2516 444 
Q 2344 219 2022 53 
Q 1700 -113 1313 -113 
Q 847 -113 551 170 
Q 256 453 256 878 
Q 256 1344 547 1600 
Q 838 1856 1309 1916 
L 2206 2028 
z
M 1741 3428 
L 1741 3428 
z
" transform="scale(0.015625)"/>
       <path id="Helvetica-6e" d="M 413 3347 
L 947 3347 
L 947 2872 
Q 1184 3166 1450 3294 
Q 1716 3422 2041 3422 
Q 2753 3422 3003 2925 
Q 3141 2653 3141 2147 
L 3141 0 
L 2569 0 
L 2569 2109 
Q 2569 2416 2478 2603 
Q 2328 2916 1934 2916 
Q 1734 2916 1606 2875 
Q 1375 2806 1200 2600 
Q 1059 2434 1017 2257 
Q 975 2081 975 1753 
L 975 0 
L 413 0 
L 413 3347 
z
M 1734 3428 
L 1734 3428 
z
" transform="scale(0.015625)"/>
       <path id="Helvetica-20" transform="scale(0.015625)"/>
       <path id="Helvetica-6f" d="M 1741 363 
Q 2300 363 2508 786 
Q 2716 1209 2716 1728 
Q 2716 2197 2566 2491 
Q 2328 2953 1747 2953 
Q 1231 2953 997 2559 
Q 763 2166 763 1609 
Q 763 1075 997 719 
Q 1231 363 1741 363 
z
M 1763 3444 
Q 2409 3444 2856 3012 
Q 3303 2581 3303 1744 
Q 3303 934 2909 406 
Q 2516 -122 1688 -122 
Q 997 -122 590 345 
Q 184 813 184 1600 
Q 184 2444 612 2944 
Q 1041 3444 1763 3444 
z
M 1744 3428 
L 1744 3428 
z
" transform="scale(0.015625)"/>
       <path id="Helvetica-66" d="M 553 3856 
Q 566 4206 675 4369 
Q 872 4656 1434 4656 
Q 1488 4656 1544 4653 
Q 1600 4650 1672 4644 
L 1672 4131 
Q 1584 4138 1545 4139 
Q 1506 4141 1472 4141 
Q 1216 4141 1166 4008 
Q 1116 3875 1116 3331 
L 1672 3331 
L 1672 2888 
L 1109 2888 
L 1109 0 
L 553 0 
L 553 2888 
L 88 2888 
L 88 3331 
L 553 3331 
L 553 3856 
z
" transform="scale(0.015625)"/>
       <path id="Helvetica-41" d="M 2844 1881 
L 2147 3909 
L 1406 1881 
L 2844 1881 
z
M 1822 4591 
L 2525 4591 
L 4191 0 
L 3509 0 
L 3044 1375 
L 1228 1375 
L 731 0 
L 94 0 
L 1822 4591 
z
" transform="scale(0.015625)"/>
       <path id="Helvetica-6c" d="M 428 4591 
L 991 4591 
L 991 0 
L 428 0 
L 428 4591 
z
" transform="scale(0.015625)"/>
       <path id="Helvetica-79" d="M 2503 3347 
L 3125 3347 
Q 3006 3025 2597 1878 
Q 2291 1016 2084 472 
Q 1597 -809 1397 -1090 
Q 1197 -1372 709 -1372 
Q 591 -1372 527 -1362 
Q 463 -1353 369 -1328 
L 369 -816 
Q 516 -856 581 -865 
Q 647 -875 697 -875 
Q 853 -875 926 -823 
Q 1000 -772 1050 -697 
Q 1066 -672 1162 -440 
Q 1259 -209 1303 -97 
L 66 3347 
L 703 3347 
L 1600 622 
L 2503 3347 
z
M 1597 3428 
L 1597 3428 
z
" transform="scale(0.015625)"/>
       <path id="Helvetica-73" d="M 747 1050 
Q 772 769 888 619 
Q 1100 347 1625 347 
Q 1938 347 2175 483 
Q 2413 619 2413 903 
Q 2413 1119 2222 1231 
Q 2100 1300 1741 1391 
L 1294 1503 
Q 866 1609 663 1741 
Q 300 1969 300 2372 
Q 300 2847 642 3140 
Q 984 3434 1563 3434 
Q 2319 3434 2653 2991 
Q 2863 2709 2856 2384 
L 2325 2384 
Q 2309 2575 2191 2731 
Q 1997 2953 1519 2953 
Q 1200 2953 1036 2831 
Q 872 2709 872 2509 
Q 872 2291 1088 2159 
Q 1213 2081 1456 2022 
L 1828 1931 
Q 2434 1784 2641 1647 
Q 2969 1431 2969 969 
Q 2969 522 2630 197 
Q 2291 -128 1597 -128 
Q 850 -128 539 211 
Q 228 550 206 1050 
L 747 1050 
z
M 1578 3428 
L 1578 3428 
z
" transform="scale(0.015625)"/>
       <path id="Helvetica-69" d="M 413 3331 
L 984 3331 
L 984 0 
L 413 0 
L 413 3331 
z
M 413 4591 
L 984 4591 
L 984 3953 
L 413 3953 
L 413 4591 
z
" transform="scale(0.015625)"/>
       <path id="Helvetica-44" d="M 2250 531 
Q 2566 531 2769 597 
Q 3131 719 3363 1066 
Q 3547 1344 3628 1778 
Q 3675 2038 3675 2259 
Q 3675 3113 3336 3584 
Q 2997 4056 2244 4056 
L 1141 4056 
L 1141 531 
L 2250 531 
z
M 516 4591 
L 2375 4591 
Q 3322 4591 3844 3919 
Q 4309 3313 4309 2366 
Q 4309 1634 4034 1044 
Q 3550 0 2369 0 
L 516 0 
L 516 4591 
z
" transform="scale(0.015625)"/>
       <path id="Helvetica-74" d="M 525 4281 
L 1094 4281 
L 1094 3347 
L 1628 3347 
L 1628 2888 
L 1094 2888 
L 1094 703 
Q 1094 528 1213 469 
Q 1278 434 1431 434 
Q 1472 434 1519 436 
Q 1566 438 1628 444 
L 1628 0 
Q 1531 -28 1426 -40 
Q 1322 -53 1200 -53 
Q 806 -53 665 148 
Q 525 350 525 672 
L 525 2888 
L 72 2888 
L 72 3347 
L 525 3347 
L 525 4281 
z
" transform="scale(0.015625)"/>
       <path id="Helvetica-72" d="M 428 3347 
L 963 3347 
L 963 2769 
Q 1028 2938 1284 3180 
Q 1541 3422 1875 3422 
Q 1891 3422 1928 3419 
Q 1966 3416 2056 3406 
L 2056 2813 
Q 2006 2822 1964 2825 
Q 1922 2828 1872 2828 
Q 1447 2828 1219 2554 
Q 991 2281 991 1925 
L 991 0 
L 428 0 
L 428 3347 
z
" transform="scale(0.015625)"/>
       <path id="Helvetica-62" d="M 369 4606 
L 916 4606 
L 916 2941 
Q 1100 3181 1356 3307 
Q 1613 3434 1913 3434 
Q 2538 3434 2927 3004 
Q 3316 2575 3316 1738 
Q 3316 944 2931 419 
Q 2547 -106 1866 -106 
Q 1484 -106 1222 78 
Q 1066 188 888 428 
L 888 0 
L 369 0 
L 369 4606 
z
M 1831 391 
Q 2288 391 2514 753 
Q 2741 1116 2741 1709 
Q 2741 2238 2514 2584 
Q 2288 2931 1847 2931 
Q 1463 2931 1173 2647 
Q 884 2363 884 1709 
Q 884 1238 1003 944 
Q 1225 391 1831 391 
z
" transform="scale(0.015625)"/>
       <path id="Helvetica-75" d="M 975 3347 
L 975 1125 
Q 975 869 1056 706 
Q 1206 406 1616 406 
Q 2203 406 2416 931 
Q 2531 1213 2531 1703 
L 2531 3347 
L 3094 3347 
L 3094 0 
L 2563 0 
L 2569 494 
Q 2459 303 2297 172 
Q 1975 -91 1516 -91 
Q 800 -91 541 388 
Q 400 644 400 1072 
L 400 3347 
L 975 3347 
z
M 1747 3428 
L 1747 3428 
z
" transform="scale(0.015625)"/>
      </defs>
      <use xlink:href="#Helvetica-4d"/>
      <use xlink:href="#Helvetica-65" x="83.300781"/>
      <use xlink:href="#Helvetica-61" x="138.916016"/>
      <use xlink:href="#Helvetica-6e" x="194.53125"/>
      <use xlink:href="#Helvetica-20" x="250.146484"/>
      <use xlink:href="#Helvetica-6f" x="277.929688"/>
      <use xlink:href="#Helvetica-66" x="333.544922"/>
      <use xlink:href="#Helvetica-20" x="361.328125"/>
      <use xlink:href="#Helvetica-41" x="389.111328"/>
      <use xlink:href="#Helvetica-6e" x="455.810547"/>
      <use xlink:href="#Helvetica-61" x="511.425781"/>
      <use xlink:href="#Helvetica-6c" x="567.041016"/>
      <use xlink:href="#Helvetica-79" x="589.257812"/>
      <use xlink:href="#Helvetica-73" x="639.257812"/>
      <use xlink:href="#Helvetica-69" x="689.257812"/>
      <use xlink:href="#Helvetica-73" x="711.474609"/>
      <use xlink:href="#Helvetica-20" x="761.474609"/>
      <use xlink:href="#Helvetica-44" x="789.257812"/>
      <use xlink:href="#Helvetica-69" x="861.474609"/>
      <use xlink:href="#Helvetica-73" x="883.691406"/>
      <use xlink:href="#Helvetica-74" x="933.691406"/>
      <use xlink:href="#Helvetica-72" x="961.474609"/>
      <use xlink:href="#Helvetica-69" x="994.775391"/>
      <use xlink:href="#Helvetica-62" x="1016.992188"/>
      <use xlink:href="#Helvetica-75" x="1072.607422"/>
      <use xlink:href="#Helvetica-74" x="1128.222656"/>
      <use xlink:href="#Helvetica-69" x="1156.005859"/>
      <use xlink:href="#Helvetica-6f" x="1178.222656"/>
      <use xlink:href="#Helvetica-6e" x="1233.837891"/>
     </g>
    </g>
   </g>
   <g id="matplotlib.axis_2">
    <g id="ytick_1">
     <g id="line2d_9">
      <defs>
       <path id="m8adc68e852" d="M 0 0 
L -3.5 0 
" style="stroke: #000000; stroke-width: 0.8"/>
      </defs>
      <g>
       <use xlink:href="#m8adc68e852" x="37.55" y="306.716652" style="stroke: #000000; stroke-width: 0.8"/>
      </g>
     </g>
     <g id="text_10">
      <!-- 0 -->
      <g transform="translate(24.989062 310.303371) scale(0.1 -0.1)">
       <use xlink:href="#Helvetica-30"/>
      </g>
     </g>
    </g>
    <g id="ytick_2">
     <g id="line2d_10">
      <g>
       <use xlink:href="#m8adc68e852" x="37.55" y="268.898006" style="stroke: #000000; stroke-width: 0.8"/>
      </g>
     </g>
     <g id="text_11">
      <!-- 1 -->
      <g transform="translate(24.989062 272.484725) scale(0.1 -0.1)">
       <use xlink:href="#Helvetica-31"/>
      </g>
     </g>
    </g>
    <g id="ytick_3">
     <g id="line2d_11">
      <g>
       <use xlink:href="#m8adc68e852" x="37.55" y="231.07936" style="stroke: #000000; stroke-width: 0.8"/>
      </g>
     </g>
     <g id="text_12">
      <!-- 2 -->
      <g transform="translate(24.989062 234.666079) scale(0.1 -0.1)">
       <use xlink:href="#Helvetica-32"/>
      </g>
     </g>
    </g>
    <g id="ytick_4">
     <g id="line2d_12">
      <g>
       <use xlink:href="#m8adc68e852" x="37.55" y="193.260714" style="stroke: #000000; stroke-width: 0.8"/>
      </g>
     </g>
     <g id="text_13">
      <!-- 3 -->
      <g transform="translate(24.989062 196.847433) scale(0.1 -0.1)">
       <use xlink:href="#Helvetica-33"/>
      </g>
     </g>
    </g>
    <g id="ytick_5">
     <g id="line2d_13">
      <g>
       <use xlink:href="#m8adc68e852" x="37.55" y="155.442069" style="stroke: #000000; stroke-width: 0.8"/>
      </g>
     </g>
     <g id="text_14">
      <!-- 4 -->
      <g transform="translate(24.989062 159.028787) scale(0.1 -0.1)">
       <use xlink:href="#Helvetica-34"/>
      </g>
     </g>
    </g>
    <g id="ytick_6">
     <g id="line2d_14">
      <g>
       <use xlink:href="#m8adc68e852" x="37.55" y="117.623423" style="stroke: #000000; stroke-width: 0.8"/>
      </g>
     </g>
     <g id="text_15">
      <!-- 5 -->
      <g transform="translate(24.989062 121.210142) scale(0.1 -0.1)">
       <use xlink:href="#Helvetica-35"/>
      </g>
     </g>
    </g>
    <g id="ytick_7">
     <g id="line2d_15">
      <g>
       <use xlink:href="#m8adc68e852" x="37.55" y="79.804777" style="stroke: #000000; stroke-width: 0.8"/>
      </g>
     </g>
     <g id="text_16">
      <!-- 6 -->
      <g transform="translate(24.989062 83.391496) scale(0.1 -0.1)">
       <use xlink:href="#Helvetica-36"/>
      </g>
     </g>
    </g>
    <g id="ytick_8">
     <g id="line2d_16">
      <g>
       <use xlink:href="#m8adc68e852" x="37.55" y="41.986131" style="stroke: #000000; stroke-width: 0.8"/>
      </g>
     </g>
     <g id="text_17">
      <!-- 7 -->
      <g transform="translate(24.989062 45.57285) scale(0.1 -0.1)">
       <use xlink:href="#Helvetica-37"/>
      </g>
     </g>
    </g>
    <g id="text_18">
     <!-- Wasserstein Distance -->
     <g transform="translate(18.904687 220.211406) rotate(-90) scale(0.1 -0.1)">
      <defs>
       <path id="Helvetica-57" d="M 791 4591 
L 1656 856 
L 2694 4591 
L 3369 4591 
L 4406 856 
L 5272 4591 
L 5953 4591 
L 4747 0 
L 4094 0 
L 3034 3806 
L 1969 0 
L 1316 0 
L 116 4591 
L 791 4591 
z
" transform="scale(0.015625)"/>
       <path id="Helvetica-63" d="M 1703 3444 
Q 2269 3444 2623 3169 
Q 2978 2894 3050 2222 
L 2503 2222 
Q 2453 2531 2275 2736 
Q 2097 2941 1703 2941 
Q 1166 2941 934 2416 
Q 784 2075 784 1575 
Q 784 1072 996 728 
Q 1209 384 1666 384 
Q 2016 384 2220 598 
Q 2425 813 2503 1184 
L 3050 1184 
Q 2956 519 2581 211 
Q 2206 -97 1622 -97 
Q 966 -97 575 383 
Q 184 863 184 1581 
Q 184 2463 612 2953 
Q 1041 3444 1703 3444 
z
M 1616 3428 
L 1616 3428 
z
" transform="scale(0.015625)"/>
      </defs>
      <use xlink:href="#Helvetica-57"/>
      <use xlink:href="#Helvetica-61" x="94.384766"/>
      <use xlink:href="#Helvetica-73" x="150"/>
      <use xlink:href="#Helvetica-73" x="200"/>
      <use xlink:href="#Helvetica-65" x="250"/>
      <use xlink:href="#Helvetica-72" x="305.615234"/>
      <use xlink:href="#Helvetica-73" x="338.916016"/>
      <use xlink:href="#Helvetica-74" x="388.916016"/>
      <use xlink:href="#Helvetica-65" x="416.699219"/>
      <use xlink:href="#Helvetica-69" x="472.314453"/>
      <use xlink:href="#Helvetica-6e" x="494.53125"/>
      <use xlink:href="#Helvetica-20" x="550.146484"/>
      <use xlink:href="#Helvetica-44" x="577.929688"/>
      <use xlink:href="#Helvetica-69" x="650.146484"/>
      <use xlink:href="#Helvetica-73" x="672.363281"/>
      <use xlink:href="#Helvetica-74" x="722.363281"/>
      <use xlink:href="#Helvetica-61" x="750.146484"/>
      <use xlink:href="#Helvetica-6e" x="805.761719"/>
      <use xlink:href="#Helvetica-63" x="861.376953"/>
      <use xlink:href="#Helvetica-65" x="911.376953"/>
     </g>
    </g>
   </g>
   <g id="line2d_17">
    <path d="M 51.804886 304.155239 
L 55.877711 300.794567 
L 59.950536 297.068761 
L 64.02336 293.292485 
L 68.096185 289.51387 
L 72.16901 285.734018 
L 76.241834 281.953259 
L 80.314659 278.171879 
L 84.387484 274.390256 
L 88.460308 270.608391 
L 92.533133 266.826526 
L 96.605958 263.044662 
L 100.678782 259.262797 
L 104.751607 255.480933 
L 108.824432 251.699068 
L 112.897256 247.917204 
L 116.970081 244.135339 
L 121.042906 240.353474 
L 125.115731 236.57161 
L 129.188555 232.789745 
L 133.26138 229.007881 
L 137.334205 225.226016 
L 141.407029 221.444151 
L 145.479854 217.662287 
L 149.552679 213.880422 
L 153.625503 210.098558 
L 157.698328 206.316693 
L 161.771153 202.534829 
L 165.843977 198.752964 
L 169.916802 194.971099 
L 173.989627 191.189235 
L 178.062451 187.40737 
L 182.135276 183.625506 
L 186.208101 179.843641 
L 190.280925 176.061776 
L 194.35375 172.279912 
L 198.426575 168.498047 
L 202.499399 164.716183 
L 206.572224 160.934318 
L 210.645049 157.152454 
L 214.717873 153.370589 
L 218.790698 149.588724 
L 222.863523 145.80686 
L 226.936347 142.024995 
L 231.009172 138.243131 
L 235.081997 134.461266 
L 239.154821 130.679402 
L 243.227646 126.897537 
L 247.300471 123.115672 
L 251.373295 119.333808 
L 255.44612 115.551943 
L 259.518945 111.770079 
L 263.591769 107.988214 
L 267.664594 104.206349 
L 271.737419 100.424485 
L 275.810244 96.64262 
L 279.883068 92.860756 
L 283.955893 89.078891 
L 288.028718 85.297027 
L 292.101542 81.515162 
L 296.174367 77.733297 
L 300.247192 73.951433 
L 304.320016 70.169568 
L 308.392841 66.387704 
L 312.465666 62.605839 
L 316.53849 58.823974 
L 320.611315 55.04211 
L 324.68414 51.260245 
L 328.756964 47.478381 
L 332.829789 43.696516 
L 336.902614 39.914652 
" clip-path="url(#p1e616c473e)" style="fill: none; stroke: #dd4040; stroke-width: 1.5; stroke-linecap: square"/>
   </g>
   <g id="patch_3">
    <path d="M 37.55 318.04 
L 37.55 25.6875 
" style="fill: none; stroke: #000000; stroke-width: 0.8; stroke-linejoin: miter; stroke-linecap: square"/>
   </g>
   <g id="patch_4">
    <path d="M 351.1575 318.04 
L 351.1575 25.6875 
" style="fill: none; stroke: #000000; stroke-width: 0.8; stroke-linejoin: miter; stroke-linecap: square"/>
   </g>
   <g id="patch_5">
    <path d="M 37.55 318.04 
L 351.1575 318.04 
" style="fill: none; stroke: #000000; stroke-width: 0.8; stroke-linejoin: miter; stroke-linecap: square"/>
   </g>
   <g id="patch_6">
    <path d="M 37.55 25.6875 
L 351.1575 25.6875 
" style="fill: none; stroke: #000000; stroke-width: 0.8; stroke-linejoin: miter; stroke-linecap: square"/>
   </g>
   <g id="text_19">
    <!-- Wasserstein Distance -->
    <g transform="translate(136.336562 19.6875) scale(0.12 -0.12)">
     <use xlink:href="#Helvetica-57"/>
     <use xlink:href="#Helvetica-61" x="94.384766"/>
     <use xlink:href="#Helvetica-73" x="150"/>
     <use xlink:href="#Helvetica-73" x="200"/>
     <use xlink:href="#Helvetica-65" x="250"/>
     <use xlink:href="#Helvetica-72" x="305.615234"/>
     <use xlink:href="#Helvetica-73" x="338.916016"/>
     <use xlink:href="#Helvetica-74" x="388.916016"/>
     <use xlink:href="#Helvetica-65" x="416.699219"/>
     <use xlink:href="#Helvetica-69" x="472.314453"/>
     <use xlink:href="#Helvetica-6e" x="494.53125"/>
     <use xlink:href="#Helvetica-20" x="550.146484"/>
     <use xlink:href="#Helvetica-44" x="577.929688"/>
     <use xlink:href="#Helvetica-69" x="650.146484"/>
     <use xlink:href="#Helvetica-73" x="672.363281"/>
     <use xlink:href="#Helvetica-74" x="722.363281"/>
     <use xlink:href="#Helvetica-61" x="750.146484"/>
     <use xlink:href="#Helvetica-6e" x="805.761719"/>
     <use xlink:href="#Helvetica-63" x="861.376953"/>
     <use xlink:href="#Helvetica-65" x="911.376953"/>
    </g>
   </g>
   <g id="legend_1">
    <g id="patch_7">
     <path d="M 44.55 47.945312 
L 123.242187 47.945312 
Q 125.242187 47.945312 125.242187 45.945312 
L 125.242187 32.6875 
Q 125.242187 30.6875 123.242187 30.6875 
L 44.55 30.6875 
Q 42.55 30.6875 42.55 32.6875 
L 42.55 45.945312 
Q 42.55 47.945312 44.55 47.945312 
z
" style="fill: #ffffff; opacity: 0.8; stroke: #cccccc; stroke-linejoin: miter"/>
    </g>
    <g id="patch_8">
     <path d="M 46.55 41.860937 
L 66.55 41.860937 
L 66.55 34.860937 
L 46.55 34.860937 
z
" style="fill: #f8dcdc; stroke: #f8dcdc; stroke-linejoin: miter"/>
    </g>
    <g id="text_20">
     <!-- 99.99% CI -->
     <g transform="translate(74.55 41.860937) scale(0.1 -0.1)">
      <defs>
       <path id="Helvetica-39" d="M 850 1081 
Q 875 616 1209 438 
Q 1381 344 1597 344 
Q 2000 344 2284 680 
Q 2569 1016 2688 2044 
Q 2500 1747 2223 1626 
Q 1947 1506 1628 1506 
Q 981 1506 604 1909 
Q 228 2313 228 2947 
Q 228 3556 600 4018 
Q 972 4481 1697 4481 
Q 2675 4481 3047 3600 
Q 3253 3116 3253 2388 
Q 3253 1566 3006 931 
Q 2597 -125 1619 -125 
Q 963 -125 622 219 
Q 281 563 281 1081 
L 850 1081 
z
M 1703 2000 
Q 2038 2000 2314 2220 
Q 2591 2441 2591 2991 
Q 2591 3484 2342 3726 
Q 2094 3969 1709 3969 
Q 1297 3969 1055 3692 
Q 813 3416 813 2953 
Q 813 2516 1025 2258 
Q 1238 2000 1703 2000 
z
" transform="scale(0.015625)"/>
       <path id="Helvetica-2e" d="M 547 681 
L 1200 681 
L 1200 0 
L 547 0 
L 547 681 
z
" transform="scale(0.015625)"/>
       <path id="Helvetica-25" d="M 4363 2175 
Q 4813 2175 5131 1856 
Q 5450 1538 5450 1088 
Q 5450 638 5131 319 
Q 4813 0 4363 0 
Q 3909 0 3590 319 
Q 3272 638 3272 1088 
Q 3272 1538 3590 1856 
Q 3909 2175 4363 2175 
z
M 3909 4456 
L 4256 4456 
L 1753 -119 
L 1406 -119 
L 3909 4456 
z
M 1294 2606 
Q 1563 2606 1752 2795 
Q 1941 2984 1941 3250 
Q 1941 3516 1752 3705 
Q 1563 3894 1294 3894 
Q 1028 3894 839 3706 
Q 650 3519 650 3250 
Q 650 2984 839 2795 
Q 1028 2606 1294 2606 
z
M 1294 4341 
Q 1747 4341 2065 4020 
Q 2384 3700 2384 3250 
Q 2384 2800 2065 2481 
Q 1747 2163 1294 2163 
Q 844 2163 525 2481 
Q 206 2800 206 3250 
Q 206 3700 525 4020 
Q 844 4341 1294 4341 
z
M 4363 444 
Q 4628 444 4817 633 
Q 5006 822 5006 1088 
Q 5006 1353 4817 1542 
Q 4628 1731 4363 1731 
Q 4094 1731 3905 1542 
Q 3716 1353 3716 1088 
Q 3716 822 3905 633 
Q 4094 444 4363 444 
z
" transform="scale(0.015625)"/>
       <path id="Helvetica-43" d="M 2422 4716 
Q 3294 4716 3775 4256 
Q 4256 3797 4309 3213 
L 3703 3213 
Q 3600 3656 3292 3915 
Q 2984 4175 2428 4175 
Q 1750 4175 1333 3698 
Q 916 3222 916 2238 
Q 916 1431 1292 929 
Q 1669 428 2416 428 
Q 3103 428 3463 956 
Q 3653 1234 3747 1688 
L 4353 1688 
Q 4272 963 3816 472 
Q 3269 -119 2341 -119 
Q 1541 -119 997 366 
Q 281 1006 281 2344 
Q 281 3359 819 4009 
Q 1400 4716 2422 4716 
z
M 2297 4716 
L 2297 4716 
z
" transform="scale(0.015625)"/>
       <path id="Helvetica-49" d="M 628 4591 
L 1256 4591 
L 1256 0 
L 628 0 
L 628 4591 
z
" transform="scale(0.015625)"/>
      </defs>
      <use xlink:href="#Helvetica-39"/>
      <use xlink:href="#Helvetica-39" x="55.615234"/>
      <use xlink:href="#Helvetica-2e" x="111.230469"/>
      <use xlink:href="#Helvetica-39" x="139.013672"/>
      <use xlink:href="#Helvetica-39" x="194.628906"/>
      <use xlink:href="#Helvetica-25" x="250.244141"/>
      <use xlink:href="#Helvetica-20" x="339.160156"/>
      <use xlink:href="#Helvetica-43" x="366.943359"/>
      <use xlink:href="#Helvetica-49" x="439.160156"/>
     </g>
    </g>
   </g>
  </g>
  <g id="axes_2">
   <g id="patch_9">
    <path d="M 396.8975 318.04 
L 710.505 318.04 
L 710.505 25.6875 
L 396.8975 25.6875 
z
" style="fill: #ffffff"/>
   </g>
   <g id="PolyCollection_2">
    <defs>
     <path id="md310922fe4" d="M 411.152386 -60.045154 
L 411.152386 -55.24875 
L 415.225211 -60.881003 
L 419.298036 -70.194428 
L 423.37086 -80.389891 
L 427.443685 -91.463297 
L 431.51651 -102.527586 
L 435.589334 -113.062225 
L 439.662159 -124.143498 
L 443.734984 -134.363781 
L 447.807808 -144.853887 
L 451.880633 -154.854721 
L 455.953458 -164.456853 
L 460.026282 -173.74464 
L 464.099107 -182.927904 
L 468.171932 -191.65622 
L 472.244756 -199.964132 
L 476.317581 -207.949593 
L 480.390406 -215.675228 
L 484.463231 -222.917784 
L 488.536055 -229.98799 
L 492.60888 -236.586458 
L 496.681705 -242.850741 
L 500.754529 -248.729255 
L 504.827354 -254.269207 
L 508.900179 -259.550546 
L 512.973003 -264.438204 
L 517.045828 -269.165358 
L 521.118653 -273.412116 
L 525.191477 -277.459287 
L 529.264302 -281.37521 
L 533.337127 -284.81017 
L 537.409951 -288.332423 
L 541.482776 -291.182919 
L 545.555601 -294.062864 
L 549.628425 -296.803206 
L 553.70125 -299.115546 
L 557.774075 -301.492704 
L 561.846899 -303.518263 
L 565.919724 -305.304521 
L 569.992549 -307.086614 
L 574.065373 -308.560723 
L 578.138198 -310.078077 
L 582.211023 -311.412763 
L 586.283847 -312.506609 
L 590.356672 -313.587901 
L 594.429497 -314.537815 
L 598.502321 -315.373252 
L 602.575146 -316.210193 
L 606.647971 -316.862199 
L 610.720795 -317.397524 
L 614.79362 -317.931816 
L 618.866445 -318.399373 
L 622.939269 -318.936302 
L 627.012094 -319.266888 
L 631.084919 -319.532036 
L 635.157744 -319.698142 
L 639.230568 -319.983613 
L 643.303393 -320.296523 
L 647.376218 -320.433124 
L 651.449042 -320.548186 
L 655.521867 -320.59651 
L 659.594692 -320.775092 
L 663.667516 -320.805569 
L 667.740341 -320.868943 
L 671.813166 -320.920546 
L 675.88599 -320.920546 
L 675.88599 -321.02375 
L 675.88599 -321.02375 
L 671.813166 -321.02375 
L 667.740341 -321.02375 
L 663.667516 -321.02375 
L 659.594692 -321.02375 
L 655.521867 -320.995987 
L 651.449042 -320.962226 
L 647.376218 -320.910789 
L 643.303393 -320.848553 
L 639.230568 -320.736194 
L 635.157744 -320.519855 
L 631.084919 -320.342096 
L 627.012094 -320.090102 
L 622.939269 -319.86568 
L 618.866445 -319.514434 
L 614.79362 -319.117239 
L 610.720795 -318.60272 
L 606.647971 -317.984891 
L 602.575146 -317.417182 
L 598.502321 -316.785133 
L 594.429497 -315.990808 
L 590.356672 -314.992165 
L 586.283847 -314.021688 
L 582.211023 -312.862315 
L 578.138198 -311.785901 
L 574.065373 -310.328021 
L 569.992549 -308.843794 
L 565.919724 -307.172761 
L 561.846899 -305.346956 
L 557.774075 -303.540573 
L 553.70125 -301.316472 
L 549.628425 -298.943388 
L 545.555601 -296.278779 
L 541.482776 -293.670659 
L 537.409951 -290.900916 
L 533.337127 -287.394572 
L 529.264302 -283.999772 
L 525.191477 -280.287896 
L 521.118653 -276.556468 
L 517.045828 -272.499425 
L 512.973003 -267.511606 
L 508.900179 -262.774301 
L 504.827354 -257.656885 
L 500.754529 -252.474391 
L 496.681705 -246.769912 
L 492.60888 -240.35131 
L 488.536055 -233.759442 
L 484.463231 -226.905738 
L 480.390406 -220.134148 
L 476.317581 -212.64578 
L 472.244756 -204.368249 
L 468.171932 -195.937932 
L 464.099107 -187.53182 
L 460.026282 -179.033759 
L 455.953458 -169.511613 
L 451.880633 -159.835788 
L 447.807808 -149.618377 
L 443.734984 -139.667737 
L 439.662159 -129.727353 
L 435.589334 -118.676393 
L 431.51651 -107.713408 
L 427.443685 -96.436401 
L 423.37086 -85.913995 
L 419.298036 -75.760578 
L 415.225211 -66.325954 
L 411.152386 -60.045154 
z
" style="stroke: #f8dcdc"/>
    </defs>
    <g clip-path="url(#p45610c4e3f)">
     <use xlink:href="#md310922fe4" x="0" y="360" style="fill: #f8dcdc; stroke: #f8dcdc"/>
    </g>
   </g>
   <g id="matplotlib.axis_3">
    <g id="xtick_9">
     <g id="line2d_18">
      <g>
       <use xlink:href="#m1cd2b65d41" x="411.152386" y="318.04" style="stroke: #000000; stroke-width: 0.8"/>
      </g>
     </g>
     <g id="text_21">
      <!-- 0 -->
      <g transform="translate(408.371918 332.213437) scale(0.1 -0.1)">
       <use xlink:href="#Helvetica-30"/>
      </g>
     </g>
    </g>
    <g id="xtick_10">
     <g id="line2d_19">
      <g>
       <use xlink:href="#m1cd2b65d41" x="451.880633" y="318.04" style="stroke: #000000; stroke-width: 0.8"/>
      </g>
     </g>
     <g id="text_22">
      <!-- 1 -->
      <g transform="translate(449.100164 332.213437) scale(0.1 -0.1)">
       <use xlink:href="#Helvetica-31"/>
      </g>
     </g>
    </g>
    <g id="xtick_11">
     <g id="line2d_20">
      <g>
       <use xlink:href="#m1cd2b65d41" x="492.60888" y="318.04" style="stroke: #000000; stroke-width: 0.8"/>
      </g>
     </g>
     <g id="text_23">
      <!-- 2 -->
      <g transform="translate(489.828411 332.213437) scale(0.1 -0.1)">
       <use xlink:href="#Helvetica-32"/>
      </g>
     </g>
    </g>
    <g id="xtick_12">
     <g id="line2d_21">
      <g>
       <use xlink:href="#m1cd2b65d41" x="533.337127" y="318.04" style="stroke: #000000; stroke-width: 0.8"/>
      </g>
     </g>
     <g id="text_24">
      <!-- 3 -->
      <g transform="translate(530.556658 332.213437) scale(0.1 -0.1)">
       <use xlink:href="#Helvetica-33"/>
      </g>
     </g>
    </g>
    <g id="xtick_13">
     <g id="line2d_22">
      <g>
       <use xlink:href="#m1cd2b65d41" x="574.065373" y="318.04" style="stroke: #000000; stroke-width: 0.8"/>
      </g>
     </g>
     <g id="text_25">
      <!-- 4 -->
      <g transform="translate(571.284905 332.213437) scale(0.1 -0.1)">
       <use xlink:href="#Helvetica-34"/>
      </g>
     </g>
    </g>
    <g id="xtick_14">
     <g id="line2d_23">
      <g>
       <use xlink:href="#m1cd2b65d41" x="614.79362" y="318.04" style="stroke: #000000; stroke-width: 0.8"/>
      </g>
     </g>
     <g id="text_26">
      <!-- 5 -->
      <g transform="translate(612.013151 332.213437) scale(0.1 -0.1)">
       <use xlink:href="#Helvetica-35"/>
      </g>
     </g>
    </g>
    <g id="xtick_15">
     <g id="line2d_24">
      <g>
       <use xlink:href="#m1cd2b65d41" x="655.521867" y="318.04" style="stroke: #000000; stroke-width: 0.8"/>
      </g>
     </g>
     <g id="text_27">
      <!-- 6 -->
      <g transform="translate(652.741398 332.213437) scale(0.1 -0.1)">
       <use xlink:href="#Helvetica-36"/>
      </g>
     </g>
    </g>
    <g id="xtick_16">
     <g id="line2d_25">
      <g>
       <use xlink:href="#m1cd2b65d41" x="696.250114" y="318.04" style="stroke: #000000; stroke-width: 0.8"/>
      </g>
     </g>
     <g id="text_28">
      <!-- 7 -->
      <g transform="translate(693.469645 332.213437) scale(0.1 -0.1)">
       <use xlink:href="#Helvetica-37"/>
      </g>
     </g>
    </g>
    <g id="text_29">
     <!-- Mean of Analysis Distribution -->
     <g transform="translate(489.231719 345.572812) scale(0.1 -0.1)">
      <use xlink:href="#Helvetica-4d"/>
      <use xlink:href="#Helvetica-65" x="83.300781"/>
      <use xlink:href="#Helvetica-61" x="138.916016"/>
      <use xlink:href="#Helvetica-6e" x="194.53125"/>
      <use xlink:href="#Helvetica-20" x="250.146484"/>
      <use xlink:href="#Helvetica-6f" x="277.929688"/>
      <use xlink:href="#Helvetica-66" x="333.544922"/>
      <use xlink:href="#Helvetica-20" x="361.328125"/>
      <use xlink:href="#Helvetica-41" x="389.111328"/>
      <use xlink:href="#Helvetica-6e" x="455.810547"/>
      <use xlink:href="#Helvetica-61" x="511.425781"/>
      <use xlink:href="#Helvetica-6c" x="567.041016"/>
      <use xlink:href="#Helvetica-79" x="589.257812"/>
      <use xlink:href="#Helvetica-73" x="639.257812"/>
      <use xlink:href="#Helvetica-69" x="689.257812"/>
      <use xlink:href="#Helvetica-73" x="711.474609"/>
      <use xlink:href="#Helvetica-20" x="761.474609"/>
      <use xlink:href="#Helvetica-44" x="789.257812"/>
      <use xlink:href="#Helvetica-69" x="861.474609"/>
      <use xlink:href="#Helvetica-73" x="883.691406"/>
      <use xlink:href="#Helvetica-74" x="933.691406"/>
      <use xlink:href="#Helvetica-72" x="961.474609"/>
      <use xlink:href="#Helvetica-69" x="994.775391"/>
      <use xlink:href="#Helvetica-62" x="1016.992188"/>
      <use xlink:href="#Helvetica-75" x="1072.607422"/>
      <use xlink:href="#Helvetica-74" x="1128.222656"/>
      <use xlink:href="#Helvetica-69" x="1156.005859"/>
      <use xlink:href="#Helvetica-6f" x="1178.222656"/>
      <use xlink:href="#Helvetica-6e" x="1233.837891"/>
     </g>
    </g>
   </g>
   <g id="matplotlib.axis_4">
    <g id="ytick_9">
     <g id="line2d_26">
      <g>
       <use xlink:href="#m8adc68e852" x="396.8975" y="266.546522" style="stroke: #000000; stroke-width: 0.8"/>
      </g>
     </g>
     <g id="text_30">
      <!-- 0.2 -->
      <g transform="translate(375.9975 270.13324) scale(0.1 -0.1)">
       <use xlink:href="#Helvetica-30"/>
       <use xlink:href="#Helvetica-2e" x="55.615234"/>
       <use xlink:href="#Helvetica-32" x="83.398438"/>
      </g>
     </g>
    </g>
    <g id="ytick_10">
     <g id="line2d_27">
      <g>
       <use xlink:href="#m8adc68e852" x="396.8975" y="209.653954" style="stroke: #000000; stroke-width: 0.8"/>
      </g>
     </g>
     <g id="text_31">
      <!-- 0.4 -->
      <g transform="translate(375.9975 213.240672) scale(0.1 -0.1)">
       <use xlink:href="#Helvetica-30"/>
       <use xlink:href="#Helvetica-2e" x="55.615234"/>
       <use xlink:href="#Helvetica-34" x="83.398438"/>
      </g>
     </g>
    </g>
    <g id="ytick_11">
     <g id="line2d_28">
      <g>
       <use xlink:href="#m8adc68e852" x="396.8975" y="152.761386" style="stroke: #000000; stroke-width: 0.8"/>
      </g>
     </g>
     <g id="text_32">
      <!-- 0.6 -->
      <g transform="translate(375.9975 156.348105) scale(0.1 -0.1)">
       <use xlink:href="#Helvetica-30"/>
       <use xlink:href="#Helvetica-2e" x="55.615234"/>
       <use xlink:href="#Helvetica-36" x="83.398438"/>
      </g>
     </g>
    </g>
    <g id="ytick_12">
     <g id="line2d_29">
      <g>
       <use xlink:href="#m8adc68e852" x="396.8975" y="95.868818" style="stroke: #000000; stroke-width: 0.8"/>
      </g>
     </g>
     <g id="text_33">
      <!-- 0.8 -->
      <g transform="translate(375.9975 99.455537) scale(0.1 -0.1)">
       <defs>
        <path id="Helvetica-38" d="M 1741 2600 
Q 2113 2600 2322 2808 
Q 2531 3016 2531 3303 
Q 2531 3553 2331 3762 
Q 2131 3972 1722 3972 
Q 1316 3972 1134 3762 
Q 953 3553 953 3272 
Q 953 2956 1187 2778 
Q 1422 2600 1741 2600 
z
M 1775 384 
Q 2166 384 2423 595 
Q 2681 806 2681 1225 
Q 2681 1659 2415 1884 
Q 2150 2109 1734 2109 
Q 1331 2109 1076 1879 
Q 822 1650 822 1244 
Q 822 894 1055 639 
Q 1288 384 1775 384 
z
M 975 2384 
Q 741 2484 609 2619 
Q 363 2869 363 3269 
Q 363 3769 725 4128 
Q 1088 4488 1753 4488 
Q 2397 4488 2762 4148 
Q 3128 3809 3128 3356 
Q 3128 2938 2916 2678 
Q 2797 2531 2547 2391 
Q 2825 2263 2984 2097 
Q 3281 1784 3281 1284 
Q 3281 694 2884 283 
Q 2488 -128 1763 -128 
Q 1109 -128 657 226 
Q 206 581 206 1256 
Q 206 1653 400 1942 
Q 594 2231 975 2384 
z
" transform="scale(0.015625)"/>
       </defs>
       <use xlink:href="#Helvetica-30"/>
       <use xlink:href="#Helvetica-2e" x="55.615234"/>
       <use xlink:href="#Helvetica-38" x="83.398438"/>
      </g>
     </g>
    </g>
    <g id="ytick_13">
     <g id="line2d_30">
      <g>
       <use xlink:href="#m8adc68e852" x="396.8975" y="38.97625" style="stroke: #000000; stroke-width: 0.8"/>
      </g>
     </g>
     <g id="text_34">
      <!-- 1.0 -->
      <g transform="translate(375.9975 42.562969) scale(0.1 -0.1)">
       <use xlink:href="#Helvetica-31"/>
       <use xlink:href="#Helvetica-2e" x="55.615234"/>
       <use xlink:href="#Helvetica-30" x="83.398438"/>
      </g>
     </g>
    </g>
    <g id="text_35">
     <!-- Jensen-Shannon Distance -->
     <g transform="translate(369.913125 230.509844) rotate(-90) scale(0.1 -0.1)">
      <defs>
       <path id="Helvetica-4a" d="M 2741 1369 
Q 2741 788 2569 466 
Q 2250 -122 1356 -122 
Q 841 -122 475 158 
Q 109 438 109 1153 
L 109 1481 
L 694 1481 
L 694 1153 
Q 694 778 861 589 
Q 1028 400 1381 400 
Q 1878 400 2031 741 
Q 2125 950 2125 1531 
L 2125 4591 
L 2741 4591 
L 2741 1369 
z
" transform="scale(0.015625)"/>
       <path id="Helvetica-2d" d="M 266 2072 
L 1834 2072 
L 1834 1494 
L 266 1494 
L 266 2072 
z
" transform="scale(0.015625)"/>
       <path id="Helvetica-53" d="M 894 1481 
Q 916 1091 1078 847 
Q 1388 391 2169 391 
Q 2519 391 2806 491 
Q 3363 684 3363 1184 
Q 3363 1559 3128 1719 
Q 2891 1875 2384 1991 
L 1763 2131 
Q 1153 2269 900 2434 
Q 463 2722 463 3294 
Q 463 3913 891 4309 
Q 1319 4706 2103 4706 
Q 2825 4706 3329 4357 
Q 3834 4009 3834 3244 
L 3250 3244 
Q 3203 3613 3050 3809 
Q 2766 4169 2084 4169 
Q 1534 4169 1293 3937 
Q 1053 3706 1053 3400 
Q 1053 3063 1334 2906 
Q 1519 2806 2169 2656 
L 2813 2509 
Q 3278 2403 3531 2219 
Q 3969 1897 3969 1284 
Q 3969 522 3414 194 
Q 2859 -134 2125 -134 
Q 1269 -134 784 303 
Q 300 738 309 1481 
L 894 1481 
z
M 2150 4716 
L 2150 4716 
z
" transform="scale(0.015625)"/>
       <path id="Helvetica-68" d="M 413 4606 
L 975 4606 
L 975 2894 
Q 1175 3147 1334 3250 
Q 1606 3428 2013 3428 
Q 2741 3428 3000 2919 
Q 3141 2641 3141 2147 
L 3141 0 
L 2563 0 
L 2563 2109 
Q 2563 2478 2469 2650 
Q 2316 2925 1894 2925 
Q 1544 2925 1259 2684 
Q 975 2444 975 1775 
L 975 0 
L 413 0 
L 413 4606 
z
" transform="scale(0.015625)"/>
      </defs>
      <use xlink:href="#Helvetica-4a"/>
      <use xlink:href="#Helvetica-65" x="50"/>
      <use xlink:href="#Helvetica-6e" x="105.615234"/>
      <use xlink:href="#Helvetica-73" x="161.230469"/>
      <use xlink:href="#Helvetica-65" x="211.230469"/>
      <use xlink:href="#Helvetica-6e" x="266.845703"/>
      <use xlink:href="#Helvetica-2d" x="322.460938"/>
      <use xlink:href="#Helvetica-53" x="355.761719"/>
      <use xlink:href="#Helvetica-68" x="422.460938"/>
      <use xlink:href="#Helvetica-61" x="478.076172"/>
      <use xlink:href="#Helvetica-6e" x="533.691406"/>
      <use xlink:href="#Helvetica-6e" x="589.306641"/>
      <use xlink:href="#Helvetica-6f" x="644.921875"/>
      <use xlink:href="#Helvetica-6e" x="700.537109"/>
      <use xlink:href="#Helvetica-20" x="756.152344"/>
      <use xlink:href="#Helvetica-44" x="783.935547"/>
      <use xlink:href="#Helvetica-69" x="856.152344"/>
      <use xlink:href="#Helvetica-73" x="878.369141"/>
      <use xlink:href="#Helvetica-74" x="928.369141"/>
      <use xlink:href="#Helvetica-61" x="956.152344"/>
      <use xlink:href="#Helvetica-6e" x="1011.767578"/>
      <use xlink:href="#Helvetica-63" x="1067.382812"/>
      <use xlink:href="#Helvetica-65" x="1117.382812"/>
     </g>
    </g>
   </g>
   <g id="line2d_31">
    <path d="M 411.152386 302.476421 
L 415.225211 296.101453 
L 419.298036 286.955542 
L 423.37086 276.960343 
L 427.443685 266.059915 
L 431.51651 255.053716 
L 435.589334 244.213374 
L 439.662159 233.210415 
L 443.734984 223.170202 
L 447.807808 212.792628 
L 451.880633 202.796594 
L 455.953458 193.060111 
L 460.026282 183.637852 
L 464.099107 174.821953 
L 468.171932 166.229203 
L 472.244756 157.807076 
L 476.317581 149.702021 
L 480.390406 142.0605 
L 484.463231 135.127852 
L 488.536055 128.235794 
L 492.60888 121.499994 
L 496.681705 115.244593 
L 500.754529 109.413605 
L 504.827354 104.095178 
L 508.900179 98.938456 
L 512.973003 93.945874 
L 517.045828 89.190496 
L 521.118653 85.033475 
L 525.191477 81.153512 
L 529.264302 77.361557 
L 533.337127 73.834968 
L 537.409951 70.421006 
L 541.482776 67.560584 
L 545.555601 64.819962 
L 549.628425 62.143484 
L 553.70125 59.768058 
L 557.774075 57.527239 
L 561.846899 55.571348 
L 565.919724 53.771 
L 569.992549 51.989164 
L 574.065373 50.508739 
L 578.138198 49.057555 
L 582.211023 47.831496 
L 586.283847 46.745002 
L 590.356672 45.639254 
L 594.429497 44.713377 
L 598.502321 43.921994 
L 602.575146 43.196472 
L 606.647971 42.562666 
L 610.720795 41.969783 
L 614.79362 41.465791 
L 618.866445 41.042495 
L 622.939269 40.601867 
L 627.012094 40.316897 
L 631.084919 40.060042 
L 635.157744 39.843211 
L 639.230568 39.627511 
L 643.303393 39.402356 
L 647.376218 39.301729 
L 651.449042 39.232576 
L 655.521867 39.150518 
L 659.594692 39.055615 
L 663.667516 39.038415 
L 667.740341 39.010651 
L 671.813166 38.993451 
L 675.88599 38.993451 
L 679.958815 38.97625 
L 684.03164 38.97625 
L 688.104464 38.97625 
L 692.177289 38.97625 
L 696.250114 38.97625 
" clip-path="url(#p45610c4e3f)" style="fill: none; stroke: #dd4040; stroke-width: 1.5; stroke-linecap: square"/>
   </g>
   <g id="patch_10">
    <path d="M 396.8975 318.04 
L 396.8975 25.6875 
" style="fill: none; stroke: #000000; stroke-width: 0.8; stroke-linejoin: miter; stroke-linecap: square"/>
   </g>
   <g id="patch_11">
    <path d="M 710.505 318.04 
L 710.505 25.6875 
" style="fill: none; stroke: #000000; stroke-width: 0.8; stroke-linejoin: miter; stroke-linecap: square"/>
   </g>
   <g id="patch_12">
    <path d="M 396.8975 318.04 
L 710.505 318.04 
" style="fill: none; stroke: #000000; stroke-width: 0.8; stroke-linejoin: miter; stroke-linecap: square"/>
   </g>
   <g id="patch_13">
    <path d="M 396.8975 25.6875 
L 710.505 25.6875 
" style="fill: none; stroke: #000000; stroke-width: 0.8; stroke-linejoin: miter; stroke-linecap: square"/>
   </g>
   <g id="text_36">
    <!-- Jensen-Shannon Distance -->
    <g transform="translate(483.325937 19.6875) scale(0.12 -0.12)">
     <use xlink:href="#Helvetica-4a"/>
     <use xlink:href="#Helvetica-65" x="50"/>
     <use xlink:href="#Helvetica-6e" x="105.615234"/>
     <use xlink:href="#Helvetica-73" x="161.230469"/>
     <use xlink:href="#Helvetica-65" x="211.230469"/>
     <use xlink:href="#Helvetica-6e" x="266.845703"/>
     <use xlink:href="#Helvetica-2d" x="322.460938"/>
     <use xlink:href="#Helvetica-53" x="355.761719"/>
     <use xlink:href="#Helvetica-68" x="422.460938"/>
     <use xlink:href="#Helvetica-61" x="478.076172"/>
     <use xlink:href="#Helvetica-6e" x="533.691406"/>
     <use xlink:href="#Helvetica-6e" x="589.306641"/>
     <use xlink:href="#Helvetica-6f" x="644.921875"/>
     <use xlink:href="#Helvetica-6e" x="700.537109"/>
     <use xlink:href="#Helvetica-20" x="756.152344"/>
     <use xlink:href="#Helvetica-44" x="783.935547"/>
     <use xlink:href="#Helvetica-69" x="856.152344"/>
     <use xlink:href="#Helvetica-73" x="878.369141"/>
     <use xlink:href="#Helvetica-74" x="928.369141"/>
     <use xlink:href="#Helvetica-61" x="956.152344"/>
     <use xlink:href="#Helvetica-6e" x="1011.767578"/>
     <use xlink:href="#Helvetica-63" x="1067.382812"/>
     <use xlink:href="#Helvetica-65" x="1117.382812"/>
    </g>
   </g>
   <g id="legend_2">
    <g id="patch_14">
     <path d="M 403.8975 47.945312 
L 482.589688 47.945312 
Q 484.589688 47.945312 484.589688 45.945312 
L 484.589688 32.6875 
Q 484.589688 30.6875 482.589688 30.6875 
L 403.8975 30.6875 
Q 401.8975 30.6875 401.8975 32.6875 
L 401.8975 45.945312 
Q 401.8975 47.945312 403.8975 47.945312 
z
" style="fill: #ffffff; opacity: 0.8; stroke: #cccccc; stroke-linejoin: miter"/>
    </g>
    <g id="patch_15">
     <path d="M 405.8975 41.860937 
L 425.8975 41.860937 
L 425.8975 34.860937 
L 405.8975 34.860937 
z
" style="fill: #f8dcdc; stroke: #f8dcdc; stroke-linejoin: miter"/>
    </g>
    <g id="text_37">
     <!-- 99.99% CI -->
     <g transform="translate(433.8975 41.860937) scale(0.1 -0.1)">
      <use xlink:href="#Helvetica-39"/>
      <use xlink:href="#Helvetica-39" x="55.615234"/>
      <use xlink:href="#Helvetica-2e" x="111.230469"/>
      <use xlink:href="#Helvetica-39" x="139.013672"/>
      <use xlink:href="#Helvetica-39" x="194.628906"/>
      <use xlink:href="#Helvetica-25" x="250.244141"/>
      <use xlink:href="#Helvetica-20" x="339.160156"/>
      <use xlink:href="#Helvetica-43" x="366.943359"/>
      <use xlink:href="#Helvetica-49" x="439.160156"/>
     </g>
    </g>
   </g>
  </g>
  <g id="axes_3">
   <g id="patch_16">
    <path d="M 756.245 318.04 
L 1069.8525 318.04 
L 1069.8525 25.6875 
L 756.245 25.6875 
z
" style="fill: #ffffff"/>
   </g>
   <g id="PolyCollection_3">
    <defs>
     <path id="m43d2f9507a" d="M 770.499886 -59.972801 
L 770.499886 -55.24875 
L 774.572711 -65.409949 
L 778.645536 -75.47819 
L 782.71836 -85.74238 
L 786.791185 -96.464542 
L 790.86401 -107.356301 
L 794.936834 -118.11066 
L 799.009659 -128.547528 
L 803.082484 -139.500477 
L 807.155308 -149.739401 
L 811.228133 -159.515148 
L 815.300958 -169.121457 
L 819.373782 -177.731557 
L 823.446607 -186.345714 
L 827.519432 -194.113007 
L 831.592256 -201.484295 
L 835.665081 -209.032364 
L 839.737906 -216.499678 
L 843.810731 -223.803643 
L 847.883555 -231.468862 
L 851.95638 -237.942609 
L 856.029205 -244.49319 
L 860.102029 -250.358457 
L 864.174854 -256.285555 
L 868.247679 -261.452124 
L 872.320503 -266.291796 
L 876.393328 -270.493646 
L 880.466153 -274.456188 
L 884.538977 -278.379292 
L 888.611802 -282.119089 
L 892.684627 -285.581321 
L 896.757451 -288.524493 
L 900.830276 -291.476456 
L 904.903101 -293.927654 
L 908.975925 -296.373789 
L 913.04875 -298.424664 
L 917.121575 -300.891345 
L 921.194399 -302.691252 
L 925.267224 -304.934569 
L 929.340049 -306.589168 
L 933.412873 -308.230227 
L 937.485698 -309.646054 
L 941.558523 -310.988978 
L 945.631347 -312.340426 
L 949.704172 -313.285832 
L 953.776997 -314.411539 
L 957.849821 -315.441395 
L 961.922646 -316.545129 
L 965.995471 -317.030431 
L 970.068295 -317.628715 
L 974.14112 -318.201396 
L 978.213945 -318.647104 
L 982.286769 -318.949245 
L 986.359594 -319.387735 
L 990.432419 -319.614343 
L 994.505244 -319.869035 
L 998.578068 -320.097963 
L 1002.650893 -320.26399 
L 1006.723718 -320.457302 
L 1010.796542 -320.595498 
L 1014.869367 -320.66449 
L 1018.942192 -320.802667 
L 1023.015016 -320.816484 
L 1027.087841 -320.899391 
L 1031.160666 -320.940844 
L 1035.23349 -320.940844 
L 1035.23349 -321.02375 
L 1035.23349 -321.02375 
L 1031.160666 -321.02375 
L 1027.087841 -321.02375 
L 1023.015016 -321.02375 
L 1018.942192 -321.02375 
L 1014.869367 -320.996115 
L 1010.796542 -320.954661 
L 1006.723718 -320.913208 
L 1002.650893 -320.84412 
L 998.578068 -320.766337 
L 994.505244 -320.579408 
L 990.432419 -320.390332 
L 986.359594 -320.165383 
L 982.286769 -319.918333 
L 978.213945 -319.586049 
L 974.14112 -319.234374 
L 970.068295 -318.727454 
L 965.995471 -318.272057 
L 961.922646 -317.844554 
L 957.849821 -316.992588 
L 953.776997 -316.035707 
L 949.704172 -314.961594 
L 945.631347 -313.9629 
L 941.558523 -312.69167 
L 937.485698 -311.420441 
L 933.412873 -310.133392 
L 929.340049 -308.612759 
L 925.267224 -306.998112 
L 921.194399 -305.119271 
L 917.121575 -303.066505 
L 913.04875 -301.027114 
L 908.975925 -298.862741 
L 904.903101 -296.780729 
L 900.830276 -294.297693 
L 896.757451 -291.426212 
L 892.684627 -288.741326 
L 888.611802 -285.275992 
L 884.538977 -281.835186 
L 880.466153 -278.045079 
L 876.393328 -273.898764 
L 872.320503 -270.180901 
L 868.247679 -265.828702 
L 864.174854 -260.487096 
L 860.102029 -254.786368 
L 856.029205 -249.072103 
L 851.95638 -242.741399 
L 847.883555 -235.993246 
L 843.810731 -228.983975 
L 839.737906 -220.886054 
L 835.665081 -213.454963 
L 831.592256 -206.028989 
L 827.519432 -198.961876 
L 823.446607 -191.137264 
L 819.373782 -182.326131 
L 815.300958 -173.963542 
L 811.228133 -164.883778 
L 807.155308 -154.781508 
L 803.082484 -145.33503 
L 799.009659 -134.5933 
L 794.936834 -123.469103 
L 790.86401 -112.747053 
L 786.791185 -103.128322 
L 782.71836 -91.898608 
L 778.645536 -80.958159 
L 774.572711 -70.293095 
L 770.499886 -59.972801 
z
" style="stroke: #f8dcdc"/>
    </defs>
    <g clip-path="url(#p40d8469a90)">
     <use xlink:href="#m43d2f9507a" x="0" y="360" style="fill: #f8dcdc; stroke: #f8dcdc"/>
    </g>
   </g>
   <g id="matplotlib.axis_5">
    <g id="xtick_17">
     <g id="line2d_32">
      <g>
       <use xlink:href="#m1cd2b65d41" x="770.499886" y="318.04" style="stroke: #000000; stroke-width: 0.8"/>
      </g>
     </g>
     <g id="text_38">
      <!-- 0 -->
      <g transform="translate(767.719418 332.213437) scale(0.1 -0.1)">
       <use xlink:href="#Helvetica-30"/>
      </g>
     </g>
    </g>
    <g id="xtick_18">
     <g id="line2d_33">
      <g>
       <use xlink:href="#m1cd2b65d41" x="811.228133" y="318.04" style="stroke: #000000; stroke-width: 0.8"/>
      </g>
     </g>
     <g id="text_39">
      <!-- 1 -->
      <g transform="translate(808.447664 332.213437) scale(0.1 -0.1)">
       <use xlink:href="#Helvetica-31"/>
      </g>
     </g>
    </g>
    <g id="xtick_19">
     <g id="line2d_34">
      <g>
       <use xlink:href="#m1cd2b65d41" x="851.95638" y="318.04" style="stroke: #000000; stroke-width: 0.8"/>
      </g>
     </g>
     <g id="text_40">
      <!-- 2 -->
      <g transform="translate(849.175911 332.213437) scale(0.1 -0.1)">
       <use xlink:href="#Helvetica-32"/>
      </g>
     </g>
    </g>
    <g id="xtick_20">
     <g id="line2d_35">
      <g>
       <use xlink:href="#m1cd2b65d41" x="892.684627" y="318.04" style="stroke: #000000; stroke-width: 0.8"/>
      </g>
     </g>
     <g id="text_41">
      <!-- 3 -->
      <g transform="translate(889.904158 332.213437) scale(0.1 -0.1)">
       <use xlink:href="#Helvetica-33"/>
      </g>
     </g>
    </g>
    <g id="xtick_21">
     <g id="line2d_36">
      <g>
       <use xlink:href="#m1cd2b65d41" x="933.412873" y="318.04" style="stroke: #000000; stroke-width: 0.8"/>
      </g>
     </g>
     <g id="text_42">
      <!-- 4 -->
      <g transform="translate(930.632405 332.213437) scale(0.1 -0.1)">
       <use xlink:href="#Helvetica-34"/>
      </g>
     </g>
    </g>
    <g id="xtick_22">
     <g id="line2d_37">
      <g>
       <use xlink:href="#m1cd2b65d41" x="974.14112" y="318.04" style="stroke: #000000; stroke-width: 0.8"/>
      </g>
     </g>
     <g id="text_43">
      <!-- 5 -->
      <g transform="translate(971.360651 332.213437) scale(0.1 -0.1)">
       <use xlink:href="#Helvetica-35"/>
      </g>
     </g>
    </g>
    <g id="xtick_23">
     <g id="line2d_38">
      <g>
       <use xlink:href="#m1cd2b65d41" x="1014.869367" y="318.04" style="stroke: #000000; stroke-width: 0.8"/>
      </g>
     </g>
     <g id="text_44">
      <!-- 6 -->
      <g transform="translate(1012.088898 332.213437) scale(0.1 -0.1)">
       <use xlink:href="#Helvetica-36"/>
      </g>
     </g>
    </g>
    <g id="xtick_24">
     <g id="line2d_39">
      <g>
       <use xlink:href="#m1cd2b65d41" x="1055.597614" y="318.04" style="stroke: #000000; stroke-width: 0.8"/>
      </g>
     </g>
     <g id="text_45">
      <!-- 7 -->
      <g transform="translate(1052.817145 332.213437) scale(0.1 -0.1)">
       <use xlink:href="#Helvetica-37"/>
      </g>
     </g>
    </g>
    <g id="text_46">
     <!-- Mean of Analysis Distribution -->
     <g transform="translate(848.579219 345.572812) scale(0.1 -0.1)">
      <use xlink:href="#Helvetica-4d"/>
      <use xlink:href="#Helvetica-65" x="83.300781"/>
      <use xlink:href="#Helvetica-61" x="138.916016"/>
      <use xlink:href="#Helvetica-6e" x="194.53125"/>
      <use xlink:href="#Helvetica-20" x="250.146484"/>
      <use xlink:href="#Helvetica-6f" x="277.929688"/>
      <use xlink:href="#Helvetica-66" x="333.544922"/>
      <use xlink:href="#Helvetica-20" x="361.328125"/>
      <use xlink:href="#Helvetica-41" x="389.111328"/>
      <use xlink:href="#Helvetica-6e" x="455.810547"/>
      <use xlink:href="#Helvetica-61" x="511.425781"/>
      <use xlink:href="#Helvetica-6c" x="567.041016"/>
      <use xlink:href="#Helvetica-79" x="589.257812"/>
      <use xlink:href="#Helvetica-73" x="639.257812"/>
      <use xlink:href="#Helvetica-69" x="689.257812"/>
      <use xlink:href="#Helvetica-73" x="711.474609"/>
      <use xlink:href="#Helvetica-20" x="761.474609"/>
      <use xlink:href="#Helvetica-44" x="789.257812"/>
      <use xlink:href="#Helvetica-69" x="861.474609"/>
      <use xlink:href="#Helvetica-73" x="883.691406"/>
      <use xlink:href="#Helvetica-74" x="933.691406"/>
      <use xlink:href="#Helvetica-72" x="961.474609"/>
      <use xlink:href="#Helvetica-69" x="994.775391"/>
      <use xlink:href="#Helvetica-62" x="1016.992188"/>
      <use xlink:href="#Helvetica-75" x="1072.607422"/>
      <use xlink:href="#Helvetica-74" x="1128.222656"/>
      <use xlink:href="#Helvetica-69" x="1156.005859"/>
      <use xlink:href="#Helvetica-6f" x="1178.222656"/>
      <use xlink:href="#Helvetica-6e" x="1233.837891"/>
     </g>
    </g>
   </g>
   <g id="matplotlib.axis_6">
    <g id="ytick_14">
     <g id="line2d_40">
      <g>
       <use xlink:href="#m8adc68e852" x="756.245" y="315.330476" style="stroke: #000000; stroke-width: 0.8"/>
      </g>
     </g>
     <g id="text_47">
      <!-- 0.0 -->
      <g transform="translate(735.345 318.917195) scale(0.1 -0.1)">
       <use xlink:href="#Helvetica-30"/>
       <use xlink:href="#Helvetica-2e" x="55.615234"/>
       <use xlink:href="#Helvetica-30" x="83.398438"/>
      </g>
     </g>
    </g>
    <g id="ytick_15">
     <g id="line2d_41">
      <g>
       <use xlink:href="#m8adc68e852" x="756.245" y="260.059631" style="stroke: #000000; stroke-width: 0.8"/>
      </g>
     </g>
     <g id="text_48">
      <!-- 0.2 -->
      <g transform="translate(735.345 263.646349) scale(0.1 -0.1)">
       <use xlink:href="#Helvetica-30"/>
       <use xlink:href="#Helvetica-2e" x="55.615234"/>
       <use xlink:href="#Helvetica-32" x="83.398438"/>
      </g>
     </g>
    </g>
    <g id="ytick_16">
     <g id="line2d_42">
      <g>
       <use xlink:href="#m8adc68e852" x="756.245" y="204.788786" style="stroke: #000000; stroke-width: 0.8"/>
      </g>
     </g>
     <g id="text_49">
      <!-- 0.4 -->
      <g transform="translate(735.345 208.375504) scale(0.1 -0.1)">
       <use xlink:href="#Helvetica-30"/>
       <use xlink:href="#Helvetica-2e" x="55.615234"/>
       <use xlink:href="#Helvetica-34" x="83.398438"/>
      </g>
     </g>
    </g>
    <g id="ytick_17">
     <g id="line2d_43">
      <g>
       <use xlink:href="#m8adc68e852" x="756.245" y="149.51794" style="stroke: #000000; stroke-width: 0.8"/>
      </g>
     </g>
     <g id="text_50">
      <!-- 0.6 -->
      <g transform="translate(735.345 153.104659) scale(0.1 -0.1)">
       <use xlink:href="#Helvetica-30"/>
       <use xlink:href="#Helvetica-2e" x="55.615234"/>
       <use xlink:href="#Helvetica-36" x="83.398438"/>
      </g>
     </g>
    </g>
    <g id="ytick_18">
     <g id="line2d_44">
      <g>
       <use xlink:href="#m8adc68e852" x="756.245" y="94.247095" style="stroke: #000000; stroke-width: 0.8"/>
      </g>
     </g>
     <g id="text_51">
      <!-- 0.8 -->
      <g transform="translate(735.345 97.833814) scale(0.1 -0.1)">
       <use xlink:href="#Helvetica-30"/>
       <use xlink:href="#Helvetica-2e" x="55.615234"/>
       <use xlink:href="#Helvetica-38" x="83.398438"/>
      </g>
     </g>
    </g>
    <g id="ytick_19">
     <g id="line2d_45">
      <g>
       <use xlink:href="#m8adc68e852" x="756.245" y="38.97625" style="stroke: #000000; stroke-width: 0.8"/>
      </g>
     </g>
     <g id="text_52">
      <!-- 1.0 -->
      <g transform="translate(735.345 42.562969) scale(0.1 -0.1)">
       <use xlink:href="#Helvetica-31"/>
       <use xlink:href="#Helvetica-2e" x="55.615234"/>
       <use xlink:href="#Helvetica-30" x="83.398438"/>
      </g>
     </g>
    </g>
    <g id="text_53">
     <!-- Kolmogorov-Smirnov Statistic -->
     <g transform="translate(729.1325 237.437187) rotate(-90) scale(0.1 -0.1)">
      <defs>
       <path id="Helvetica-4b" d="M 488 4591 
L 1094 4591 
L 1094 2353 
L 3331 4591 
L 4191 4591 
L 2281 2741 
L 4244 0 
L 3434 0 
L 1828 2303 
L 1094 1600 
L 1094 0 
L 488 0 
L 488 4591 
z
" transform="scale(0.015625)"/>
       <path id="Helvetica-6d" d="M 413 3347 
L 969 3347 
L 969 2872 
Q 1169 3119 1331 3231 
Q 1609 3422 1963 3422 
Q 2363 3422 2606 3225 
Q 2744 3113 2856 2894 
Q 3044 3163 3297 3292 
Q 3550 3422 3866 3422 
Q 4541 3422 4784 2934 
Q 4916 2672 4916 2228 
L 4916 0 
L 4331 0 
L 4331 2325 
Q 4331 2659 4164 2784 
Q 3997 2909 3756 2909 
Q 3425 2909 3186 2687 
Q 2947 2466 2947 1947 
L 2947 0 
L 2375 0 
L 2375 2184 
Q 2375 2525 2294 2681 
Q 2166 2916 1816 2916 
Q 1497 2916 1236 2669 
Q 975 2422 975 1775 
L 975 0 
L 413 0 
L 413 3347 
z
" transform="scale(0.015625)"/>
       <path id="Helvetica-67" d="M 1594 3406 
Q 1988 3406 2281 3213 
Q 2441 3103 2606 2894 
L 2606 3316 
L 3125 3316 
L 3125 272 
Q 3125 -366 2938 -734 
Q 2588 -1416 1616 -1416 
Q 1075 -1416 706 -1173 
Q 338 -931 294 -416 
L 866 -416 
Q 906 -641 1028 -763 
Q 1219 -950 1628 -950 
Q 2275 -950 2475 -494 
Q 2594 -225 2584 466 
Q 2416 209 2178 84 
Q 1941 -41 1550 -41 
Q 1006 -41 598 345 
Q 191 731 191 1622 
Q 191 2463 602 2934 
Q 1013 3406 1594 3406 
z
M 2606 1688 
Q 2606 2309 2350 2609 
Q 2094 2909 1697 2909 
Q 1103 2909 884 2353 
Q 769 2056 769 1575 
Q 769 1009 998 714 
Q 1228 419 1616 419 
Q 2222 419 2469 966 
Q 2606 1275 2606 1688 
z
M 1659 3428 
L 1659 3428 
z
" transform="scale(0.015625)"/>
       <path id="Helvetica-76" d="M 688 3347 
L 1581 622 
L 2516 3347 
L 3131 3347 
L 1869 0 
L 1269 0 
L 34 3347 
L 688 3347 
z
" transform="scale(0.015625)"/>
      </defs>
      <use xlink:href="#Helvetica-4b"/>
      <use xlink:href="#Helvetica-6f" x="66.699219"/>
      <use xlink:href="#Helvetica-6c" x="122.314453"/>
      <use xlink:href="#Helvetica-6d" x="144.53125"/>
      <use xlink:href="#Helvetica-6f" x="227.832031"/>
      <use xlink:href="#Helvetica-67" x="283.447266"/>
      <use xlink:href="#Helvetica-6f" x="339.0625"/>
      <use xlink:href="#Helvetica-72" x="394.677734"/>
      <use xlink:href="#Helvetica-6f" x="427.978516"/>
      <use xlink:href="#Helvetica-76" x="483.59375"/>
      <use xlink:href="#Helvetica-2d" x="533.59375"/>
      <use xlink:href="#Helvetica-53" x="566.894531"/>
      <use xlink:href="#Helvetica-6d" x="633.59375"/>
      <use xlink:href="#Helvetica-69" x="716.894531"/>
      <use xlink:href="#Helvetica-72" x="739.111328"/>
      <use xlink:href="#Helvetica-6e" x="772.412109"/>
      <use xlink:href="#Helvetica-6f" x="828.027344"/>
      <use xlink:href="#Helvetica-76" x="883.642578"/>
      <use xlink:href="#Helvetica-20" x="933.642578"/>
      <use xlink:href="#Helvetica-53" x="961.425781"/>
      <use xlink:href="#Helvetica-74" x="1028.125"/>
      <use xlink:href="#Helvetica-61" x="1055.908203"/>
      <use xlink:href="#Helvetica-74" x="1111.523438"/>
      <use xlink:href="#Helvetica-69" x="1139.306641"/>
      <use xlink:href="#Helvetica-73" x="1161.523438"/>
      <use xlink:href="#Helvetica-74" x="1211.523438"/>
      <use xlink:href="#Helvetica-69" x="1239.306641"/>
      <use xlink:href="#Helvetica-63" x="1261.523438"/>
     </g>
    </g>
   </g>
   <g id="line2d_46">
    <path d="M 770.499886 302.493822 
L 774.572711 292.171992 
L 778.645536 281.891615 
L 782.71836 271.169071 
L 786.791185 260.377438 
L 790.86401 249.972701 
L 794.936834 239.457423 
L 799.009659 228.499978 
L 803.082484 217.818887 
L 807.155308 208.008312 
L 811.228133 197.921383 
L 815.300958 188.456251 
L 819.373782 179.958358 
L 823.446607 171.363742 
L 827.519432 163.473829 
L 831.592256 156.21953 
L 835.665081 148.840872 
L 839.737906 141.393126 
L 843.810731 133.517031 
L 847.883555 126.262732 
L 851.95638 119.602595 
L 856.029205 113.315537 
L 860.102029 107.595004 
L 864.174854 101.805383 
L 868.247679 96.554653 
L 872.320503 92.077714 
L 876.393328 87.960037 
L 880.466153 84.035807 
L 884.538977 80.2083 
L 888.611802 76.560425 
L 892.684627 73.009273 
L 896.757451 70.01083 
L 900.830276 67.040022 
L 904.903101 64.580469 
L 908.975925 62.259094 
L 913.04875 60.200255 
L 917.121575 57.961785 
L 921.194399 56.082577 
L 925.267224 54.023738 
L 929.340049 52.337977 
L 933.412873 50.721305 
L 937.485698 49.353351 
L 941.558523 48.082122 
L 945.631347 46.797075 
L 949.704172 45.760746 
L 953.776997 44.724418 
L 957.849821 43.729543 
L 961.922646 42.886662 
L 965.995471 42.375407 
L 970.068295 41.850334 
L 974.14112 41.325261 
L 978.213945 40.91073 
L 982.286769 40.579105 
L 986.359594 40.233662 
L 990.432419 39.998761 
L 994.505244 39.777677 
L 998.578068 39.556594 
L 1002.650893 39.376964 
L 1006.723718 39.266422 
L 1010.796542 39.197333 
L 1014.869367 39.128245 
L 1018.942192 39.045339 
L 1023.015016 39.031521 
L 1027.087841 39.003885 
L 1031.160666 38.990068 
L 1035.23349 38.990068 
L 1039.306315 38.97625 
L 1043.37914 38.97625 
L 1047.451964 38.97625 
L 1051.524789 38.97625 
L 1055.597614 38.97625 
" clip-path="url(#p40d8469a90)" style="fill: none; stroke: #dd4040; stroke-width: 1.5; stroke-linecap: square"/>
   </g>
   <g id="patch_17">
    <path d="M 756.245 318.04 
L 756.245 25.6875 
" style="fill: none; stroke: #000000; stroke-width: 0.8; stroke-linejoin: miter; stroke-linecap: square"/>
   </g>
   <g id="patch_18">
    <path d="M 1069.8525 318.04 
L 1069.8525 25.6875 
" style="fill: none; stroke: #000000; stroke-width: 0.8; stroke-linejoin: miter; stroke-linecap: square"/>
   </g>
   <g id="patch_19">
    <path d="M 756.245 318.04 
L 1069.8525 318.04 
" style="fill: none; stroke: #000000; stroke-width: 0.8; stroke-linejoin: miter; stroke-linecap: square"/>
   </g>
   <g id="patch_20">
    <path d="M 756.245 25.6875 
L 1069.8525 25.6875 
" style="fill: none; stroke: #000000; stroke-width: 0.8; stroke-linejoin: miter; stroke-linecap: square"/>
   </g>
   <g id="text_54">
    <!-- Kolmogorov-Smirnov Statistic -->
    <g transform="translate(834.360625 19.6875) scale(0.12 -0.12)">
     <use xlink:href="#Helvetica-4b"/>
     <use xlink:href="#Helvetica-6f" x="66.699219"/>
     <use xlink:href="#Helvetica-6c" x="122.314453"/>
     <use xlink:href="#Helvetica-6d" x="144.53125"/>
     <use xlink:href="#Helvetica-6f" x="227.832031"/>
     <use xlink:href="#Helvetica-67" x="283.447266"/>
     <use xlink:href="#Helvetica-6f" x="339.0625"/>
     <use xlink:href="#Helvetica-72" x="394.677734"/>
     <use xlink:href="#Helvetica-6f" x="427.978516"/>
     <use xlink:href="#Helvetica-76" x="483.59375"/>
     <use xlink:href="#Helvetica-2d" x="533.59375"/>
     <use xlink:href="#Helvetica-53" x="566.894531"/>
     <use xlink:href="#Helvetica-6d" x="633.59375"/>
     <use xlink:href="#Helvetica-69" x="716.894531"/>
     <use xlink:href="#Helvetica-72" x="739.111328"/>
     <use xlink:href="#Helvetica-6e" x="772.412109"/>
     <use xlink:href="#Helvetica-6f" x="828.027344"/>
     <use xlink:href="#Helvetica-76" x="883.642578"/>
     <use xlink:href="#Helvetica-20" x="933.642578"/>
     <use xlink:href="#Helvetica-53" x="961.425781"/>
     <use xlink:href="#Helvetica-74" x="1028.125"/>
     <use xlink:href="#Helvetica-61" x="1055.908203"/>
     <use xlink:href="#Helvetica-74" x="1111.523438"/>
     <use xlink:href="#Helvetica-69" x="1139.306641"/>
     <use xlink:href="#Helvetica-73" x="1161.523438"/>
     <use xlink:href="#Helvetica-74" x="1211.523438"/>
     <use xlink:href="#Helvetica-69" x="1239.306641"/>
     <use xlink:href="#Helvetica-63" x="1261.523438"/>
    </g>
   </g>
   <g id="legend_3">
    <g id="patch_21">
     <path d="M 763.245 47.945312 
L 841.937188 47.945312 
Q 843.937188 47.945312 843.937188 45.945312 
L 843.937188 32.6875 
Q 843.937188 30.6875 841.937188 30.6875 
L 763.245 30.6875 
Q 761.245 30.6875 761.245 32.6875 
L 761.245 45.945312 
Q 761.245 47.945312 763.245 47.945312 
z
" style="fill: #ffffff; opacity: 0.8; stroke: #cccccc; stroke-linejoin: miter"/>
    </g>
    <g id="patch_22">
     <path d="M 765.245 41.860937 
L 785.245 41.860937 
L 785.245 34.860937 
L 765.245 34.860937 
z
" style="fill: #f8dcdc; stroke: #f8dcdc; stroke-linejoin: miter"/>
    </g>
    <g id="text_55">
     <!-- 99.99% CI -->
     <g transform="translate(793.245 41.860937) scale(0.1 -0.1)">
      <use xlink:href="#Helvetica-39"/>
      <use xlink:href="#Helvetica-39" x="55.615234"/>
      <use xlink:href="#Helvetica-2e" x="111.230469"/>
      <use xlink:href="#Helvetica-39" x="139.013672"/>
      <use xlink:href="#Helvetica-39" x="194.628906"/>
      <use xlink:href="#Helvetica-25" x="250.244141"/>
      <use xlink:href="#Helvetica-20" x="339.160156"/>
      <use xlink:href="#Helvetica-43" x="366.943359"/>
      <use xlink:href="#Helvetica-49" x="439.160156"/>
     </g>
    </g>
   </g>
  </g>
  <g id="axes_4">
   <g id="patch_23">
    <path d="M 1115.5925 318.04 
L 1429.2 318.04 
L 1429.2 25.6875 
L 1115.5925 25.6875 
z
" style="fill: #ffffff"/>
   </g>
   <g id="PolyCollection_4">
    <defs>
     <path id="maccbeb899d" d="M 1129.847386 -55.770518 
L 1129.847386 -55.24875 
L 1133.920211 -55.805283 
L 1137.993036 -57.149221 
L 1142.06586 -59.015394 
L 1146.138685 -61.614219 
L 1150.21151 -64.974302 
L 1154.284334 -68.62522 
L 1158.357159 -72.820487 
L 1162.429984 -77.758998 
L 1166.502808 -83.141912 
L 1170.575633 -88.646076 
L 1174.648458 -94.809681 
L 1178.721282 -101.303108 
L 1182.794107 -108.561833 
L 1186.866932 -116.103458 
L 1190.939756 -123.83201 
L 1195.012581 -131.172654 
L 1199.085406 -138.461451 
L 1203.158231 -146.472625 
L 1207.231055 -154.119865 
L 1211.30388 -162.14281 
L 1215.376705 -170.390238 
L 1219.449529 -178.25142 
L 1223.522354 -187.243687 
L 1227.595179 -194.646366 
L 1231.668003 -201.994375 
L 1235.740828 -209.743296 
L 1239.813653 -217.220647 
L 1243.886477 -223.837606 
L 1247.959302 -230.509383 
L 1252.032127 -237.186641 
L 1256.104951 -243.881259 
L 1260.177776 -250.017464 
L 1264.250601 -255.542141 
L 1268.323425 -261.178605 
L 1272.39625 -266.085055 
L 1276.469075 -270.804058 
L 1280.541899 -274.632546 
L 1284.614724 -279.839593 
L 1288.687549 -284.319037 
L 1292.760373 -288.108343 
L 1296.833198 -290.654425 
L 1300.906023 -293.399318 
L 1304.978847 -296.73303 
L 1309.051672 -299.219365 
L 1313.124497 -301.592159 
L 1317.197321 -303.912997 
L 1321.270146 -306.591539 
L 1325.342971 -308.082173 
L 1329.415795 -309.841297 
L 1333.48862 -310.783369 
L 1337.561445 -312.401113 
L 1341.634269 -313.458404 
L 1345.707094 -314.725269 
L 1349.779919 -315.582764 
L 1353.852744 -316.08691 
L 1357.925568 -316.974979 
L 1361.998393 -317.647621 
L 1366.071218 -318.229371 
L 1370.144042 -318.729394 
L 1374.216867 -318.956557 
L 1378.289692 -319.168851 
L 1382.362516 -319.310962 
L 1386.435341 -319.779672 
L 1390.508166 -320.175285 
L 1394.58099 -320.468919 
L 1398.653815 -320.511926 
L 1402.72664 -320.532264 
L 1406.799464 -320.644108 
L 1406.799464 -321.02375 
L 1406.799464 -321.02375 
L 1402.72664 -321.02375 
L 1398.653815 -321.02375 
L 1394.58099 -321.02375 
L 1390.508166 -320.951617 
L 1386.435341 -320.890135 
L 1382.362516 -320.717422 
L 1378.289692 -320.65269 
L 1374.216867 -320.345636 
L 1370.144042 -320.244731 
L 1366.071218 -319.843243 
L 1361.998393 -319.638991 
L 1357.925568 -318.886539 
L 1353.852744 -318.479126 
L 1349.779919 -317.968825 
L 1345.707094 -317.151384 
L 1341.634269 -315.992783 
L 1337.561445 -315.264321 
L 1333.48862 -314.172641 
L 1329.415795 -313.022345 
L 1325.342971 -311.801809 
L 1321.270146 -310.481562 
L 1317.197321 -309.184398 
L 1313.124497 -306.958723 
L 1309.051672 -304.675086 
L 1304.978847 -302.755381 
L 1300.906023 -299.003308 
L 1296.833198 -296.188645 
L 1292.760373 -293.176288 
L 1288.687549 -289.269592 
L 1284.614724 -284.603406 
L 1280.541899 -280.365055 
L 1276.469075 -276.529304 
L 1272.39625 -271.442248 
L 1268.323425 -267.174391 
L 1264.250601 -262.510632 
L 1260.177776 -257.042284 
L 1256.104951 -251.100027 
L 1252.032127 -244.294882 
L 1247.959302 -238.853691 
L 1243.886477 -231.065033 
L 1239.813653 -223.505922 
L 1235.740828 -215.869397 
L 1231.668003 -208.600433 
L 1227.595179 -200.908871 
L 1223.522354 -192.647973 
L 1219.449529 -183.904118 
L 1215.376705 -175.962577 
L 1211.30388 -167.920881 
L 1207.231055 -159.9459 
L 1203.158231 -151.38201 
L 1199.085406 -143.738293 
L 1195.012581 -136.394048 
L 1190.939756 -128.183858 
L 1186.866932 -120.8464 
L 1182.794107 -113.417633 
L 1178.721282 -105.379524 
L 1174.648458 -98.294913 
L 1170.575633 -91.957183 
L 1166.502808 -85.951082 
L 1162.429984 -80.50975 
L 1158.357159 -75.687197 
L 1154.284334 -70.777708 
L 1150.21151 -66.670519 
L 1146.138685 -63.307441 
L 1142.06586 -60.486264 
L 1137.993036 -58.344309 
L 1133.920211 -56.559355 
L 1129.847386 -55.770518 
z
" style="stroke: #f8dcdc"/>
    </defs>
    <g clip-path="url(#pf2248e9499)">
     <use xlink:href="#maccbeb899d" x="0" y="360" style="fill: #f8dcdc; stroke: #f8dcdc"/>
    </g>
   </g>
   <g id="matplotlib.axis_7">
    <g id="xtick_25">
     <g id="line2d_47">
      <g>
       <use xlink:href="#m1cd2b65d41" x="1129.847386" y="318.04" style="stroke: #000000; stroke-width: 0.8"/>
      </g>
     </g>
     <g id="text_56">
      <!-- 0 -->
      <g transform="translate(1127.066918 332.213437) scale(0.1 -0.1)">
       <use xlink:href="#Helvetica-30"/>
      </g>
     </g>
    </g>
    <g id="xtick_26">
     <g id="line2d_48">
      <g>
       <use xlink:href="#m1cd2b65d41" x="1170.575633" y="318.04" style="stroke: #000000; stroke-width: 0.8"/>
      </g>
     </g>
     <g id="text_57">
      <!-- 1 -->
      <g transform="translate(1167.795164 332.213437) scale(0.1 -0.1)">
       <use xlink:href="#Helvetica-31"/>
      </g>
     </g>
    </g>
    <g id="xtick_27">
     <g id="line2d_49">
      <g>
       <use xlink:href="#m1cd2b65d41" x="1211.30388" y="318.04" style="stroke: #000000; stroke-width: 0.8"/>
      </g>
     </g>
     <g id="text_58">
      <!-- 2 -->
      <g transform="translate(1208.523411 332.213437) scale(0.1 -0.1)">
       <use xlink:href="#Helvetica-32"/>
      </g>
     </g>
    </g>
    <g id="xtick_28">
     <g id="line2d_50">
      <g>
       <use xlink:href="#m1cd2b65d41" x="1252.032127" y="318.04" style="stroke: #000000; stroke-width: 0.8"/>
      </g>
     </g>
     <g id="text_59">
      <!-- 3 -->
      <g transform="translate(1249.251658 332.213437) scale(0.1 -0.1)">
       <use xlink:href="#Helvetica-33"/>
      </g>
     </g>
    </g>
    <g id="xtick_29">
     <g id="line2d_51">
      <g>
       <use xlink:href="#m1cd2b65d41" x="1292.760373" y="318.04" style="stroke: #000000; stroke-width: 0.8"/>
      </g>
     </g>
     <g id="text_60">
      <!-- 4 -->
      <g transform="translate(1289.979905 332.213437) scale(0.1 -0.1)">
       <use xlink:href="#Helvetica-34"/>
      </g>
     </g>
    </g>
    <g id="xtick_30">
     <g id="line2d_52">
      <g>
       <use xlink:href="#m1cd2b65d41" x="1333.48862" y="318.04" style="stroke: #000000; stroke-width: 0.8"/>
      </g>
     </g>
     <g id="text_61">
      <!-- 5 -->
      <g transform="translate(1330.708151 332.213437) scale(0.1 -0.1)">
       <use xlink:href="#Helvetica-35"/>
      </g>
     </g>
    </g>
    <g id="xtick_31">
     <g id="line2d_53">
      <g>
       <use xlink:href="#m1cd2b65d41" x="1374.216867" y="318.04" style="stroke: #000000; stroke-width: 0.8"/>
      </g>
     </g>
     <g id="text_62">
      <!-- 6 -->
      <g transform="translate(1371.436398 332.213437) scale(0.1 -0.1)">
       <use xlink:href="#Helvetica-36"/>
      </g>
     </g>
    </g>
    <g id="xtick_32">
     <g id="line2d_54">
      <g>
       <use xlink:href="#m1cd2b65d41" x="1414.945114" y="318.04" style="stroke: #000000; stroke-width: 0.8"/>
      </g>
     </g>
     <g id="text_63">
      <!-- 7 -->
      <g transform="translate(1412.164645 332.213437) scale(0.1 -0.1)">
       <use xlink:href="#Helvetica-37"/>
      </g>
     </g>
    </g>
    <g id="text_64">
     <!-- Mean of Analysis Distribution -->
     <g transform="translate(1207.926719 345.572812) scale(0.1 -0.1)">
      <use xlink:href="#Helvetica-4d"/>
      <use xlink:href="#Helvetica-65" x="83.300781"/>
      <use xlink:href="#Helvetica-61" x="138.916016"/>
      <use xlink:href="#Helvetica-6e" x="194.53125"/>
      <use xlink:href="#Helvetica-20" x="250.146484"/>
      <use xlink:href="#Helvetica-6f" x="277.929688"/>
      <use xlink:href="#Helvetica-66" x="333.544922"/>
      <use xlink:href="#Helvetica-20" x="361.328125"/>
      <use xlink:href="#Helvetica-41" x="389.111328"/>
      <use xlink:href="#Helvetica-6e" x="455.810547"/>
      <use xlink:href="#Helvetica-61" x="511.425781"/>
      <use xlink:href="#Helvetica-6c" x="567.041016"/>
      <use xlink:href="#Helvetica-79" x="589.257812"/>
      <use xlink:href="#Helvetica-73" x="639.257812"/>
      <use xlink:href="#Helvetica-69" x="689.257812"/>
      <use xlink:href="#Helvetica-73" x="711.474609"/>
      <use xlink:href="#Helvetica-20" x="761.474609"/>
      <use xlink:href="#Helvetica-44" x="789.257812"/>
      <use xlink:href="#Helvetica-69" x="861.474609"/>
      <use xlink:href="#Helvetica-73" x="883.691406"/>
      <use xlink:href="#Helvetica-74" x="933.691406"/>
      <use xlink:href="#Helvetica-72" x="961.474609"/>
      <use xlink:href="#Helvetica-69" x="994.775391"/>
      <use xlink:href="#Helvetica-62" x="1016.992188"/>
      <use xlink:href="#Helvetica-75" x="1072.607422"/>
      <use xlink:href="#Helvetica-74" x="1128.222656"/>
      <use xlink:href="#Helvetica-69" x="1156.005859"/>
      <use xlink:href="#Helvetica-6f" x="1178.222656"/>
      <use xlink:href="#Helvetica-6e" x="1233.837891"/>
     </g>
    </g>
   </g>
   <g id="matplotlib.axis_8">
    <g id="ytick_20">
     <g id="line2d_55">
      <g>
       <use xlink:href="#m8adc68e852" x="1115.5925" y="305.434301" style="stroke: #000000; stroke-width: 0.8"/>
      </g>
     </g>
     <g id="text_65">
      <!-- 0.0 -->
      <g transform="translate(1094.6925 309.021019) scale(0.1 -0.1)">
       <use xlink:href="#Helvetica-30"/>
       <use xlink:href="#Helvetica-2e" x="55.615234"/>
       <use xlink:href="#Helvetica-30" x="83.398438"/>
      </g>
     </g>
    </g>
    <g id="ytick_21">
     <g id="line2d_56">
      <g>
       <use xlink:href="#m8adc68e852" x="1115.5925" y="252.142691" style="stroke: #000000; stroke-width: 0.8"/>
      </g>
     </g>
     <g id="text_66">
      <!-- 0.2 -->
      <g transform="translate(1094.6925 255.729409) scale(0.1 -0.1)">
       <use xlink:href="#Helvetica-30"/>
       <use xlink:href="#Helvetica-2e" x="55.615234"/>
       <use xlink:href="#Helvetica-32" x="83.398438"/>
      </g>
     </g>
    </g>
    <g id="ytick_22">
     <g id="line2d_57">
      <g>
       <use xlink:href="#m8adc68e852" x="1115.5925" y="198.85108" style="stroke: #000000; stroke-width: 0.8"/>
      </g>
     </g>
     <g id="text_67">
      <!-- 0.4 -->
      <g transform="translate(1094.6925 202.437799) scale(0.1 -0.1)">
       <use xlink:href="#Helvetica-30"/>
       <use xlink:href="#Helvetica-2e" x="55.615234"/>
       <use xlink:href="#Helvetica-34" x="83.398438"/>
      </g>
     </g>
    </g>
    <g id="ytick_23">
     <g id="line2d_58">
      <g>
       <use xlink:href="#m8adc68e852" x="1115.5925" y="145.55947" style="stroke: #000000; stroke-width: 0.8"/>
      </g>
     </g>
     <g id="text_68">
      <!-- 0.6 -->
      <g transform="translate(1094.6925 149.146189) scale(0.1 -0.1)">
       <use xlink:href="#Helvetica-30"/>
       <use xlink:href="#Helvetica-2e" x="55.615234"/>
       <use xlink:href="#Helvetica-36" x="83.398438"/>
      </g>
     </g>
    </g>
    <g id="ytick_24">
     <g id="line2d_59">
      <g>
       <use xlink:href="#m8adc68e852" x="1115.5925" y="92.26786" style="stroke: #000000; stroke-width: 0.8"/>
      </g>
     </g>
     <g id="text_69">
      <!-- 0.8 -->
      <g transform="translate(1094.6925 95.854579) scale(0.1 -0.1)">
       <use xlink:href="#Helvetica-30"/>
       <use xlink:href="#Helvetica-2e" x="55.615234"/>
       <use xlink:href="#Helvetica-38" x="83.398438"/>
      </g>
     </g>
    </g>
    <g id="ytick_25">
     <g id="line2d_60">
      <g>
       <use xlink:href="#m8adc68e852" x="1115.5925" y="38.97625" style="stroke: #000000; stroke-width: 0.8"/>
      </g>
     </g>
     <g id="text_70">
      <!-- 1.0 -->
      <g transform="translate(1094.6925 42.562969) scale(0.1 -0.1)">
       <use xlink:href="#Helvetica-31"/>
       <use xlink:href="#Helvetica-2e" x="55.615234"/>
       <use xlink:href="#Helvetica-30" x="83.398438"/>
      </g>
     </g>
    </g>
    <g id="text_71">
     <!-- Hellinger Distance -->
     <g transform="translate(1088.48 212.435625) rotate(-90) scale(0.1 -0.1)">
      <defs>
       <path id="Helvetica-48" d="M 503 4591 
L 1131 4591 
L 1131 2694 
L 3519 2694 
L 3519 4591 
L 4147 4591 
L 4147 0 
L 3519 0 
L 3519 2147 
L 1131 2147 
L 1131 0 
L 503 0 
L 503 4591 
z
" transform="scale(0.015625)"/>
      </defs>
      <use xlink:href="#Helvetica-48"/>
      <use xlink:href="#Helvetica-65" x="72.216797"/>
      <use xlink:href="#Helvetica-6c" x="127.832031"/>
      <use xlink:href="#Helvetica-6c" x="150.048828"/>
      <use xlink:href="#Helvetica-69" x="172.265625"/>
      <use xlink:href="#Helvetica-6e" x="194.482422"/>
      <use xlink:href="#Helvetica-67" x="250.097656"/>
      <use xlink:href="#Helvetica-65" x="305.712891"/>
      <use xlink:href="#Helvetica-72" x="361.328125"/>
      <use xlink:href="#Helvetica-20" x="394.628906"/>
      <use xlink:href="#Helvetica-44" x="422.412109"/>
      <use xlink:href="#Helvetica-69" x="494.628906"/>
      <use xlink:href="#Helvetica-73" x="516.845703"/>
      <use xlink:href="#Helvetica-74" x="566.845703"/>
      <use xlink:href="#Helvetica-61" x="594.628906"/>
      <use xlink:href="#Helvetica-6e" x="650.244141"/>
      <use xlink:href="#Helvetica-63" x="705.859375"/>
      <use xlink:href="#Helvetica-65" x="755.859375"/>
     </g>
    </g>
   </g>
   <g id="line2d_61">
    <path d="M 1129.847386 304.486632 
L 1133.920211 303.829793 
L 1137.993036 302.347459 
L 1142.06586 300.315945 
L 1146.138685 297.561885 
L 1150.21151 294.263592 
L 1154.284334 290.419489 
L 1158.357159 285.844404 
L 1162.429984 280.92 
L 1166.502808 275.579758 
L 1170.575633 269.75612 
L 1174.648458 263.546749 
L 1178.721282 256.718846 
L 1182.794107 249.354654 
L 1186.866932 241.795806 
L 1190.939756 234.255656 
L 1195.012581 226.550879 
L 1199.085406 219.001083 
L 1203.158231 211.12798 
L 1207.231055 202.956668 
L 1211.30388 194.773815 
L 1215.376705 186.927994 
L 1219.449529 178.886076 
L 1223.522354 170.0647 
L 1227.595179 162.222879 
L 1231.668003 154.749855 
L 1235.740828 147.325264 
L 1239.813653 139.713282 
L 1243.886477 132.475441 
L 1247.959302 125.510253 
L 1252.032127 119.207162 
L 1256.104951 112.566001 
L 1260.177776 106.641288 
L 1264.250601 101.072164 
L 1268.323425 95.735159 
L 1272.39625 91.151688 
L 1276.469075 86.474343 
L 1280.541899 82.403665 
L 1284.614724 77.940861 
L 1288.687549 73.124146 
L 1292.760373 69.335825 
L 1296.833198 66.420105 
L 1300.906023 63.515309 
L 1304.978847 60.270001 
L 1309.051672 57.748083 
L 1313.124497 55.579942 
L 1317.197321 53.39568 
L 1321.270146 51.285894 
L 1325.342971 49.903442 
L 1329.415795 48.443474 
L 1333.48862 47.32823 
L 1337.561445 46.146962 
L 1341.634269 45.309862 
L 1345.707094 44.157239 
L 1349.779919 43.243371 
L 1353.852744 42.74294 
L 1357.925568 42.009134 
L 1361.998393 41.282059 
L 1366.071218 40.868357 
L 1370.144042 40.390551 
L 1374.216867 40.242091 
L 1378.289692 39.937323 
L 1382.362516 39.814833 
L 1386.435341 39.525775 
L 1390.508166 39.327058 
L 1394.58099 39.132393 
L 1398.653815 39.117611 
L 1402.72664 39.111959 
L 1406.799464 39.050626 
L 1410.872289 38.97625 
L 1414.945114 38.97625 
" clip-path="url(#pf2248e9499)" style="fill: none; stroke: #dd4040; stroke-width: 1.5; stroke-linecap: square"/>
   </g>
   <g id="patch_24">
    <path d="M 1115.5925 318.04 
L 1115.5925 25.6875 
" style="fill: none; stroke: #000000; stroke-width: 0.8; stroke-linejoin: miter; stroke-linecap: square"/>
   </g>
   <g id="patch_25">
    <path d="M 1429.2 318.04 
L 1429.2 25.6875 
" style="fill: none; stroke: #000000; stroke-width: 0.8; stroke-linejoin: miter; stroke-linecap: square"/>
   </g>
   <g id="patch_26">
    <path d="M 1115.5925 318.04 
L 1429.2 318.04 
" style="fill: none; stroke: #000000; stroke-width: 0.8; stroke-linejoin: miter; stroke-linecap: square"/>
   </g>
   <g id="patch_27">
    <path d="M 1115.5925 25.6875 
L 1429.2 25.6875 
" style="fill: none; stroke: #000000; stroke-width: 0.8; stroke-linejoin: miter; stroke-linecap: square"/>
   </g>
   <g id="text_72">
    <!-- Hellinger Distance -->
    <g transform="translate(1223.71 19.6875) scale(0.12 -0.12)">
     <use xlink:href="#Helvetica-48"/>
     <use xlink:href="#Helvetica-65" x="72.216797"/>
     <use xlink:href="#Helvetica-6c" x="127.832031"/>
     <use xlink:href="#Helvetica-6c" x="150.048828"/>
     <use xlink:href="#Helvetica-69" x="172.265625"/>
     <use xlink:href="#Helvetica-6e" x="194.482422"/>
     <use xlink:href="#Helvetica-67" x="250.097656"/>
     <use xlink:href="#Helvetica-65" x="305.712891"/>
     <use xlink:href="#Helvetica-72" x="361.328125"/>
     <use xlink:href="#Helvetica-20" x="394.628906"/>
     <use xlink:href="#Helvetica-44" x="422.412109"/>
     <use xlink:href="#Helvetica-69" x="494.628906"/>
     <use xlink:href="#Helvetica-73" x="516.845703"/>
     <use xlink:href="#Helvetica-74" x="566.845703"/>
     <use xlink:href="#Helvetica-61" x="594.628906"/>
     <use xlink:href="#Helvetica-6e" x="650.244141"/>
     <use xlink:href="#Helvetica-63" x="705.859375"/>
     <use xlink:href="#Helvetica-65" x="755.859375"/>
    </g>
   </g>
   <g id="legend_4">
    <g id="patch_28">
     <path d="M 1122.5925 47.945312 
L 1201.284688 47.945312 
Q 1203.284688 47.945312 1203.284688 45.945312 
L 1203.284688 32.6875 
Q 1203.284688 30.6875 1201.284688 30.6875 
L 1122.5925 30.6875 
Q 1120.5925 30.6875 1120.5925 32.6875 
L 1120.5925 45.945312 
Q 1120.5925 47.945312 1122.5925 47.945312 
z
" style="fill: #ffffff; opacity: 0.8; stroke: #cccccc; stroke-linejoin: miter"/>
    </g>
    <g id="patch_29">
     <path d="M 1124.5925 41.860937 
L 1144.5925 41.860937 
L 1144.5925 34.860937 
L 1124.5925 34.860937 
z
" style="fill: #f8dcdc; stroke: #f8dcdc; stroke-linejoin: miter"/>
    </g>
    <g id="text_73">
     <!-- 99.99% CI -->
     <g transform="translate(1152.5925 41.860937) scale(0.1 -0.1)">
      <use xlink:href="#Helvetica-39"/>
      <use xlink:href="#Helvetica-39" x="55.615234"/>
      <use xlink:href="#Helvetica-2e" x="111.230469"/>
      <use xlink:href="#Helvetica-39" x="139.013672"/>
      <use xlink:href="#Helvetica-39" x="194.628906"/>
      <use xlink:href="#Helvetica-25" x="250.244141"/>
      <use xlink:href="#Helvetica-20" x="339.160156"/>
      <use xlink:href="#Helvetica-43" x="366.943359"/>
      <use xlink:href="#Helvetica-49" x="439.160156"/>
     </g>
    </g>
   </g>
  </g>
 </g>
 <defs>
  <clipPath id="p1e616c473e">
   <rect x="37.55" y="25.6875" width="313.6075" height="292.3525"/>
  </clipPath>
  <clipPath id="p45610c4e3f">
   <rect x="396.8975" y="25.6875" width="313.6075" height="292.3525"/>
  </clipPath>
  <clipPath id="p40d8469a90">
   <rect x="756.245" y="25.6875" width="313.6075" height="292.3525"/>
  </clipPath>
  <clipPath id="pf2248e9499">
   <rect x="1115.5925" y="25.6875" width="313.6075" height="292.3525"/>
  </clipPath>
 </defs>
</svg>
