<?xml version="1.0" encoding="utf-8" standalone="no"?>
<!DOCTYPE svg PUBLIC "-//W3C//DTD SVG 1.1//EN"
  "http://www.w3.org/Graphics/SVG/1.1/DTD/svg11.dtd">
<svg xmlns:xlink="http://www.w3.org/1999/xlink" width="864pt" height="216pt" viewBox="0 0 864 216" xmlns="http://www.w3.org/2000/svg" version="1.1">
 <metadata>
  <rdf:RDF xmlns:dc="http://purl.org/dc/elements/1.1/" xmlns:cc="http://creativecommons.org/ns#" xmlns:rdf="http://www.w3.org/1999/02/22-rdf-syntax-ns#">
   <cc:Work>
    <dc:type rdf:resource="http://purl.org/dc/dcmitype/StillImage"/>
    <dc:date>2022-12-07T15:08:10.802460</dc:date>
    <dc:format>image/svg+xml</dc:format>
    <dc:creator>
     <cc:Agent>
      <dc:title>Matplotlib v3.6.2, https://matplotlib.org/</dc:title>
     </cc:Agent>
    </dc:creator>
   </cc:Work>
  </rdf:RDF>
 </metadata>
 <defs>
  <style type="text/css">*{stroke-linejoin: round; stroke-linecap: butt}</style>
 </defs>
 <g id="figure_1">
  <g id="patch_1">
   <path d="M 0 216
L 864 216
L 864 0
L 0 0
z
" style="fill: #ffffff"/>
  </g>
  <g id="axes_1">
   <g id="patch_2">
    <path d="M 37.55 174.04
L 207.1575 174.04
L 207.1575 25.6875
L 37.55 25.6875
z
" style="fill: #ffffff"/>
   </g>
   <g id="PolyCollection_1">
    <defs>
     <path id="md4e15600bc" d="M 45.259432 -49.013284
L 45.259432 -48.703295
L 47.462127 -50.380379
L 49.664821 -52.275507
L 51.867516 -54.197203
L 54.070211 -56.120421
L 56.272906 -58.044261
L 58.475601 -59.968082
L 60.678295 -61.892649
L 62.88099 -63.817426
L 65.083685 -65.742298
L 67.28638 -67.667171
L 69.489075 -69.592043
L 71.691769 -71.516916
L 73.894464 -73.441788
L 76.097159 -75.366661
L 78.299854 -77.291533
L 80.502549 -79.216406
L 82.705244 -81.141279
L 84.907938 -83.066151
L 87.110633 -84.991024
L 89.313328 -86.915896
L 91.516023 -88.840769
L 93.718718 -90.765641
L 95.921412 -92.690514
L 98.124107 -94.615386
L 100.326802 -96.540259
L 102.529497 -98.465132
L 104.732192 -100.390004
L 106.934886 -102.314877
L 109.137581 -104.239749
L 111.340276 -106.164622
L 113.542971 -108.089494
L 115.745666 -110.014367
L 117.94836 -111.939239
L 120.151055 -113.864112
L 122.35375 -115.788984
L 124.556445 -117.713857
L 126.75914 -119.63873
L 128.961834 -121.563602
L 131.164529 -123.488475
L 133.367224 -125.413347
L 135.569919 -127.33822
L 137.772614 -129.263092
L 139.975308 -131.187965
L 142.178003 -133.112837
L 144.380698 -135.03771
L 146.583393 -136.962583
L 148.786088 -138.887455
L 150.988782 -140.812328
L 153.191477 -142.7372
L 155.394172 -144.662073
L 157.596867 -146.586945
L 159.799562 -148.511818
L 162.002256 -150.43669
L 164.204951 -152.361563
L 166.407646 -154.286436
L 168.610341 -156.211308
L 170.813036 -158.136181
L 173.015731 -160.061053
L 175.218425 -161.985926
L 177.42112 -163.910798
L 179.623815 -165.835671
L 181.82651 -167.760543
L 184.029205 -169.685416
L 186.231899 -171.610289
L 188.434594 -173.535161
L 190.637289 -175.460034
L 192.839984 -177.384906
L 195.042679 -179.309779
L 197.245373 -181.234651
L 199.448068 -183.159524
L 199.448068 -183.569205
L 199.448068 -183.569205
L 197.245373 -181.644332
L 195.042679 -179.719459
L 192.839984 -177.794587
L 190.637289 -175.869714
L 188.434594 -173.944842
L 186.231899 -172.019969
L 184.029205 -170.095097
L 181.82651 -168.170224
L 179.623815 -166.245352
L 177.42112 -164.320479
L 175.218425 -162.395606
L 173.015731 -160.470734
L 170.813036 -158.545861
L 168.610341 -156.620989
L 166.407646 -154.696116
L 164.204951 -152.771244
L 162.002256 -150.846371
L 159.799562 -148.921499
L 157.596867 -146.996626
L 155.394172 -145.071753
L 153.191477 -143.146881
L 150.988782 -141.222008
L 148.786088 -139.297136
L 146.583393 -137.372263
L 144.380698 -135.447391
L 142.178003 -133.522518
L 139.975308 -131.597646
L 137.772614 -129.672773
L 135.569919 -127.7479
L 133.367224 -125.823028
L 131.164529 -123.898155
L 128.961834 -121.973283
L 126.75914 -120.04841
L 124.556445 -118.123538
L 122.35375 -116.198665
L 120.151055 -114.273793
L 117.94836 -112.34892
L 115.745666 -110.424047
L 113.542971 -108.499175
L 111.340276 -106.574302
L 109.137581 -104.64943
L 106.934886 -102.724557
L 104.732192 -100.799685
L 102.529497 -98.874812
L 100.326802 -96.94994
L 98.124107 -95.025067
L 95.921412 -93.100194
L 93.718718 -91.175322
L 91.516023 -89.250449
L 89.313328 -87.325577
L 87.110633 -85.400704
L 84.907938 -83.475832
L 82.705244 -81.550959
L 80.502549 -79.626087
L 78.299854 -77.701214
L 76.097159 -75.776341
L 73.894464 -73.851469
L 71.691769 -71.926596
L 69.489075 -70.001724
L 67.28638 -68.076851
L 65.083685 -66.151979
L 62.88099 -64.227106
L 60.678295 -62.302535
L 58.475601 -60.37805
L 56.272906 -58.45447
L 54.070211 -56.530249
L 51.867516 -54.606681
L 49.664821 -52.684954
L 47.462127 -50.780189
L 45.259432 -49.013284
z
" style="stroke: #f8dcdc"/>
    </defs>
    <g clip-path="url(#pa7cd9d3fad)">
     <use xlink:href="#md4e15600bc" x="0" y="216" style="fill: #f8dcdc; stroke: #f8dcdc"/>
    </g>
   </g>
   <g id="matplotlib.axis_1">
    <g id="xtick_1">
     <g id="line2d_1">
      <defs>
       <path id="m8ede759a81" d="M 0 0
L 0 3.5
" style="stroke: #000000; stroke-width: 0.8"/>
      </defs>
      <g>
       <use xlink:href="#m8ede759a81" x="45.259432" y="174.04" style="stroke: #000000; stroke-width: 0.8"/>
      </g>
     </g>
     <g id="text_1">
      <!-- 0 -->
      <g transform="translate(42.478963 188.213437) scale(0.1 -0.1)">
       <defs>
        <path id="Helvetica-30" d="M 1731 4475
Q 2600 4475 2988 3759
Q 3288 3206 3288 2244
Q 3288 1331 3016 734
Q 2622 -122 1728 -122
Q 922 -122 528 578
Q 200 1163 200 2147
Q 200 2909 397 3456
Q 766 4475 1731 4475
z
M 1725 391
Q 2163 391 2422 778
Q 2681 1166 2681 2222
Q 2681 2984 2493 3476
Q 2306 3969 1766 3969
Q 1269 3969 1039 3501
Q 809 3034 809 2125
Q 809 1441 956 1025
Q 1181 391 1725 391
z
" transform="scale(0.015625)"/>
       </defs>
       <use xlink:href="#Helvetica-30"/>
      </g>
     </g>
    </g>
    <g id="xtick_2">
     <g id="line2d_2">
      <g>
       <use xlink:href="#m8ede759a81" x="89.313328" y="174.04" style="stroke: #000000; stroke-width: 0.8"/>
      </g>
     </g>
     <g id="text_2">
      <!-- 2 -->
      <g transform="translate(86.532859 188.213437) scale(0.1 -0.1)">
       <defs>
        <path id="Helvetica-32" d="M 200 0
Q 231 578 439 1006
Q 647 1434 1250 1784
L 1850 2131
Q 2253 2366 2416 2531
Q 2672 2791 2672 3125
Q 2672 3516 2437 3745
Q 2203 3975 1813 3975
Q 1234 3975 1013 3538
Q 894 3303 881 2888
L 309 2888
Q 319 3472 525 3841
Q 891 4491 1816 4491
Q 2584 4491 2939 4075
Q 3294 3659 3294 3150
Q 3294 2613 2916 2231
Q 2697 2009 2131 1694
L 1703 1456
Q 1397 1288 1222 1134
Q 909 863 828 531
L 3272 531
L 3272 0
L 200 0
z
" transform="scale(0.015625)"/>
       </defs>
       <use xlink:href="#Helvetica-32"/>
      </g>
     </g>
    </g>
    <g id="xtick_3">
     <g id="line2d_3">
      <g>
       <use xlink:href="#m8ede759a81" x="133.367224" y="174.04" style="stroke: #000000; stroke-width: 0.8"/>
      </g>
     </g>
     <g id="text_3">
      <!-- 4 -->
      <g transform="translate(130.586755 188.213437) scale(0.1 -0.1)">
       <defs>
        <path id="Helvetica-34" d="M 2116 1584
L 2116 3613
L 681 1584
L 2116 1584
z
M 2125 0
L 2125 1094
L 163 1094
L 163 1644
L 2213 4488
L 2688 4488
L 2688 1584
L 3347 1584
L 3347 1094
L 2688 1094
L 2688 0
L 2125 0
z
" transform="scale(0.015625)"/>
       </defs>
       <use xlink:href="#Helvetica-34"/>
      </g>
     </g>
    </g>
    <g id="xtick_4">
     <g id="line2d_4">
      <g>
       <use xlink:href="#m8ede759a81" x="177.42112" y="174.04" style="stroke: #000000; stroke-width: 0.8"/>
      </g>
     </g>
     <g id="text_4">
      <!-- 6 -->
      <g transform="translate(174.640651 188.213437) scale(0.1 -0.1)">
       <defs>
        <path id="Helvetica-36" d="M 1872 4494
Q 2622 4494 2917 4105
Q 3213 3716 3213 3303
L 2656 3303
Q 2606 3569 2497 3719
Q 2294 4000 1881 4000
Q 1409 4000 1131 3564
Q 853 3128 822 2316
Q 1016 2600 1309 2741
Q 1578 2866 1909 2866
Q 2472 2866 2890 2506
Q 3309 2147 3309 1434
Q 3309 825 2912 354
Q 2516 -116 1781 -116
Q 1153 -116 697 361
Q 241 838 241 1966
Q 241 2800 444 3381
Q 834 4494 1872 4494
z
M 1831 384
Q 2275 384 2495 682
Q 2716 981 2716 1388
Q 2716 1731 2519 2042
Q 2322 2353 1803 2353
Q 1441 2353 1167 2112
Q 894 1872 894 1388
Q 894 963 1142 673
Q 1391 384 1831 384
z
" transform="scale(0.015625)"/>
       </defs>
       <use xlink:href="#Helvetica-36"/>
      </g>
     </g>
    </g>
    <g id="text_5">
     <!-- Mean of Analysis Distribution -->
     <g transform="translate(57.884219 201.572812) scale(0.1 -0.1)">
      <defs>
       <path id="Helvetica-4d" d="M 472 4591
L 1363 4591
L 2681 709
L 3991 4591
L 4872 4591
L 4872 0
L 4281 0
L 4281 2709
Q 4281 2850 4287 3175
Q 4294 3500 4294 3872
L 2984 0
L 2369 0
L 1050 3872
L 1050 3731
Q 1050 3563 1058 3217
Q 1066 2872 1066 2709
L 1066 0
L 472 0
L 472 4591
z
" transform="scale(0.015625)"/>
       <path id="Helvetica-65" d="M 1806 3422
Q 2163 3422 2497 3255
Q 2831 3088 3006 2822
Q 3175 2569 3231 2231
Q 3281 2000 3281 1494
L 828 1494
Q 844 984 1069 676
Q 1294 369 1766 369
Q 2206 369 2469 659
Q 2619 828 2681 1050
L 3234 1050
Q 3213 866 3089 639
Q 2966 413 2813 269
Q 2556 19 2178 -69
Q 1975 -119 1719 -119
Q 1094 -119 659 336
Q 225 791 225 1609
Q 225 2416 662 2919
Q 1100 3422 1806 3422
z
M 2703 1941
Q 2669 2306 2544 2525
Q 2313 2931 1772 2931
Q 1384 2931 1121 2651
Q 859 2372 844 1941
L 2703 1941
z
M 1753 3428
L 1753 3428
z
" transform="scale(0.015625)"/>
       <path id="Helvetica-61" d="M 844 891
Q 844 647 1022 506
Q 1200 366 1444 366
Q 1741 366 2019 503
Q 2488 731 2488 1250
L 2488 1703
Q 2384 1638 2221 1594
Q 2059 1550 1903 1531
L 1563 1488
Q 1256 1447 1103 1359
Q 844 1213 844 891
z
M 2206 2028
Q 2400 2053 2466 2191
Q 2503 2266 2503 2406
Q 2503 2694 2298 2823
Q 2094 2953 1713 2953
Q 1272 2953 1088 2716
Q 984 2584 953 2325
L 428 2325
Q 444 2944 830 3186
Q 1216 3428 1725 3428
Q 2316 3428 2684 3203
Q 3050 2978 3050 2503
L 3050 575
Q 3050 488 3086 434
Q 3122 381 3238 381
Q 3275 381 3322 386
Q 3369 391 3422 400
L 3422 -16
Q 3291 -53 3222 -62
Q 3153 -72 3034 -72
Q 2744 -72 2613 134
Q 2544 244 2516 444
Q 2344 219 2022 53
Q 1700 -113 1313 -113
Q 847 -113 551 170
Q 256 453 256 878
Q 256 1344 547 1600
Q 838 1856 1309 1916
L 2206 2028
z
M 1741 3428
L 1741 3428
z
" transform="scale(0.015625)"/>
       <path id="Helvetica-6e" d="M 413 3347
L 947 3347
L 947 2872
Q 1184 3166 1450 3294
Q 1716 3422 2041 3422
Q 2753 3422 3003 2925
Q 3141 2653 3141 2147
L 3141 0
L 2569 0
L 2569 2109
Q 2569 2416 2478 2603
Q 2328 2916 1934 2916
Q 1734 2916 1606 2875
Q 1375 2806 1200 2600
Q 1059 2434 1017 2257
Q 975 2081 975 1753
L 975 0
L 413 0
L 413 3347
z
M 1734 3428
L 1734 3428
z
" transform="scale(0.015625)"/>
       <path id="Helvetica-20" transform="scale(0.015625)"/>
       <path id="Helvetica-6f" d="M 1741 363
Q 2300 363 2508 786
Q 2716 1209 2716 1728
Q 2716 2197 2566 2491
Q 2328 2953 1747 2953
Q 1231 2953 997 2559
Q 763 2166 763 1609
Q 763 1075 997 719
Q 1231 363 1741 363
z
M 1763 3444
Q 2409 3444 2856 3012
Q 3303 2581 3303 1744
Q 3303 934 2909 406
Q 2516 -122 1688 -122
Q 997 -122 590 345
Q 184 813 184 1600
Q 184 2444 612 2944
Q 1041 3444 1763 3444
z
M 1744 3428
L 1744 3428
z
" transform="scale(0.015625)"/>
       <path id="Helvetica-66" d="M 553 3856
Q 566 4206 675 4369
Q 872 4656 1434 4656
Q 1488 4656 1544 4653
Q 1600 4650 1672 4644
L 1672 4131
Q 1584 4138 1545 4139
Q 1506 4141 1472 4141
Q 1216 4141 1166 4008
Q 1116 3875 1116 3331
L 1672 3331
L 1672 2888
L 1109 2888
L 1109 0
L 553 0
L 553 2888
L 88 2888
L 88 3331
L 553 3331
L 553 3856
z
" transform="scale(0.015625)"/>
       <path id="Helvetica-41" d="M 2844 1881
L 2147 3909
L 1406 1881
L 2844 1881
z
M 1822 4591
L 2525 4591
L 4191 0
L 3509 0
L 3044 1375
L 1228 1375
L 731 0
L 94 0
L 1822 4591
z
" transform="scale(0.015625)"/>
       <path id="Helvetica-6c" d="M 428 4591
L 991 4591
L 991 0
L 428 0
L 428 4591
z
" transform="scale(0.015625)"/>
       <path id="Helvetica-79" d="M 2503 3347
L 3125 3347
Q 3006 3025 2597 1878
Q 2291 1016 2084 472
Q 1597 -809 1397 -1090
Q 1197 -1372 709 -1372
Q 591 -1372 527 -1362
Q 463 -1353 369 -1328
L 369 -816
Q 516 -856 581 -865
Q 647 -875 697 -875
Q 853 -875 926 -823
Q 1000 -772 1050 -697
Q 1066 -672 1162 -440
Q 1259 -209 1303 -97
L 66 3347
L 703 3347
L 1600 622
L 2503 3347
z
M 1597 3428
L 1597 3428
z
" transform="scale(0.015625)"/>
       <path id="Helvetica-73" d="M 747 1050
Q 772 769 888 619
Q 1100 347 1625 347
Q 1938 347 2175 483
Q 2413 619 2413 903
Q 2413 1119 2222 1231
Q 2100 1300 1741 1391
L 1294 1503
Q 866 1609 663 1741
Q 300 1969 300 2372
Q 300 2847 642 3140
Q 984 3434 1563 3434
Q 2319 3434 2653 2991
Q 2863 2709 2856 2384
L 2325 2384
Q 2309 2575 2191 2731
Q 1997 2953 1519 2953
Q 1200 2953 1036 2831
Q 872 2709 872 2509
Q 872 2291 1088 2159
Q 1213 2081 1456 2022
L 1828 1931
Q 2434 1784 2641 1647
Q 2969 1431 2969 969
Q 2969 522 2630 197
Q 2291 -128 1597 -128
Q 850 -128 539 211
Q 228 550 206 1050
L 747 1050
z
M 1578 3428
L 1578 3428
z
" transform="scale(0.015625)"/>
       <path id="Helvetica-69" d="M 413 3331
L 984 3331
L 984 0
L 413 0
L 413 3331
z
M 413 4591
L 984 4591
L 984 3953
L 413 3953
L 413 4591
z
" transform="scale(0.015625)"/>
       <path id="Helvetica-44" d="M 2250 531
Q 2566 531 2769 597
Q 3131 719 3363 1066
Q 3547 1344 3628 1778
Q 3675 2038 3675 2259
Q 3675 3113 3336 3584
Q 2997 4056 2244 4056
L 1141 4056
L 1141 531
L 2250 531
z
M 516 4591
L 2375 4591
Q 3322 4591 3844 3919
Q 4309 3313 4309 2366
Q 4309 1634 4034 1044
Q 3550 0 2369 0
L 516 0
L 516 4591
z
" transform="scale(0.015625)"/>
       <path id="Helvetica-74" d="M 525 4281
L 1094 4281
L 1094 3347
L 1628 3347
L 1628 2888
L 1094 2888
L 1094 703
Q 1094 528 1213 469
Q 1278 434 1431 434
Q 1472 434 1519 436
Q 1566 438 1628 444
L 1628 0
Q 1531 -28 1426 -40
Q 1322 -53 1200 -53
Q 806 -53 665 148
Q 525 350 525 672
L 525 2888
L 72 2888
L 72 3347
L 525 3347
L 525 4281
z
" transform="scale(0.015625)"/>
       <path id="Helvetica-72" d="M 428 3347
L 963 3347
L 963 2769
Q 1028 2938 1284 3180
Q 1541 3422 1875 3422
Q 1891 3422 1928 3419
Q 1966 3416 2056 3406
L 2056 2813
Q 2006 2822 1964 2825
Q 1922 2828 1872 2828
Q 1447 2828 1219 2554
Q 991 2281 991 1925
L 991 0
L 428 0
L 428 3347
z
" transform="scale(0.015625)"/>
       <path id="Helvetica-62" d="M 369 4606
L 916 4606
L 916 2941
Q 1100 3181 1356 3307
Q 1613 3434 1913 3434
Q 2538 3434 2927 3004
Q 3316 2575 3316 1738
Q 3316 944 2931 419
Q 2547 -106 1866 -106
Q 1484 -106 1222 78
Q 1066 188 888 428
L 888 0
L 369 0
L 369 4606
z
M 1831 391
Q 2288 391 2514 753
Q 2741 1116 2741 1709
Q 2741 2238 2514 2584
Q 2288 2931 1847 2931
Q 1463 2931 1173 2647
Q 884 2363 884 1709
Q 884 1238 1003 944
Q 1225 391 1831 391
z
" transform="scale(0.015625)"/>
       <path id="Helvetica-75" d="M 975 3347
L 975 1125
Q 975 869 1056 706
Q 1206 406 1616 406
Q 2203 406 2416 931
Q 2531 1213 2531 1703
L 2531 3347
L 3094 3347
L 3094 0
L 2563 0
L 2569 494
Q 2459 303 2297 172
Q 1975 -91 1516 -91
Q 800 -91 541 388
Q 400 644 400 1072
L 400 3347
L 975 3347
z
M 1747 3428
L 1747 3428
z
" transform="scale(0.015625)"/>
      </defs>
      <use xlink:href="#Helvetica-4d"/>
      <use xlink:href="#Helvetica-65" x="83.300781"/>
      <use xlink:href="#Helvetica-61" x="138.916016"/>
      <use xlink:href="#Helvetica-6e" x="194.53125"/>
      <use xlink:href="#Helvetica-20" x="250.146484"/>
      <use xlink:href="#Helvetica-6f" x="277.929688"/>
      <use xlink:href="#Helvetica-66" x="333.544922"/>
      <use xlink:href="#Helvetica-20" x="361.328125"/>
      <use xlink:href="#Helvetica-41" x="389.111328"/>
      <use xlink:href="#Helvetica-6e" x="455.810547"/>
      <use xlink:href="#Helvetica-61" x="511.425781"/>
      <use xlink:href="#Helvetica-6c" x="567.041016"/>
      <use xlink:href="#Helvetica-79" x="589.257812"/>
      <use xlink:href="#Helvetica-73" x="639.257812"/>
      <use xlink:href="#Helvetica-69" x="689.257812"/>
      <use xlink:href="#Helvetica-73" x="711.474609"/>
      <use xlink:href="#Helvetica-20" x="761.474609"/>
      <use xlink:href="#Helvetica-44" x="789.257812"/>
      <use xlink:href="#Helvetica-69" x="861.474609"/>
      <use xlink:href="#Helvetica-73" x="883.691406"/>
      <use xlink:href="#Helvetica-74" x="933.691406"/>
      <use xlink:href="#Helvetica-72" x="961.474609"/>
      <use xlink:href="#Helvetica-69" x="994.775391"/>
      <use xlink:href="#Helvetica-62" x="1016.992188"/>
      <use xlink:href="#Helvetica-75" x="1072.607422"/>
      <use xlink:href="#Helvetica-74" x="1128.222656"/>
      <use xlink:href="#Helvetica-69" x="1156.005859"/>
      <use xlink:href="#Helvetica-6f" x="1178.222656"/>
      <use xlink:href="#Helvetica-6e" x="1233.837891"/>
     </g>
    </g>
   </g>
   <g id="matplotlib.axis_2">
    <g id="ytick_1">
     <g id="line2d_5">
      <defs>
       <path id="m2d8b900539" d="M 0 0
L -3.5 0
" style="stroke: #000000; stroke-width: 0.8"/>
      </defs>
      <g>
       <use xlink:href="#m2d8b900539" x="37.55" y="168.429219" style="stroke: #000000; stroke-width: 0.8"/>
      </g>
     </g>
     <g id="text_6">
      <!-- 0 -->
      <g transform="translate(24.989063 172.015937) scale(0.1 -0.1)">
       <use xlink:href="#Helvetica-30"/>
      </g>
     </g>
    </g>
    <g id="ytick_2">
     <g id="line2d_6">
      <g>
       <use xlink:href="#m2d8b900539" x="37.55" y="129.931767" style="stroke: #000000; stroke-width: 0.8"/>
      </g>
     </g>
     <g id="text_7">
      <!-- 2 -->
      <g transform="translate(24.989063 133.518486) scale(0.1 -0.1)">
       <use xlink:href="#Helvetica-32"/>
      </g>
     </g>
    </g>
    <g id="ytick_3">
     <g id="line2d_7">
      <g>
       <use xlink:href="#m2d8b900539" x="37.55" y="91.434316" style="stroke: #000000; stroke-width: 0.8"/>
      </g>
     </g>
     <g id="text_8">
      <!-- 4 -->
      <g transform="translate(24.989063 95.021035) scale(0.1 -0.1)">
       <use xlink:href="#Helvetica-34"/>
      </g>
     </g>
    </g>
    <g id="ytick_4">
     <g id="line2d_8">
      <g>
       <use xlink:href="#m2d8b900539" x="37.55" y="52.936865" style="stroke: #000000; stroke-width: 0.8"/>
      </g>
     </g>
     <g id="text_9">
      <!-- 6 -->
      <g transform="translate(24.989063 56.523584) scale(0.1 -0.1)">
       <use xlink:href="#Helvetica-36"/>
      </g>
     </g>
    </g>
    <g id="text_10">
     <!-- Wasserstein Distance -->
     <g transform="translate(18.904688 148.211406) rotate(-90) scale(0.1 -0.1)">
      <defs>
       <path id="Helvetica-57" d="M 791 4591
L 1656 856
L 2694 4591
L 3369 4591
L 4406 856
L 5272 4591
L 5953 4591
L 4747 0
L 4094 0
L 3034 3806
L 1969 0
L 1316 0
L 116 4591
L 791 4591
z
" transform="scale(0.015625)"/>
       <path id="Helvetica-63" d="M 1703 3444
Q 2269 3444 2623 3169
Q 2978 2894 3050 2222
L 2503 2222
Q 2453 2531 2275 2736
Q 2097 2941 1703 2941
Q 1166 2941 934 2416
Q 784 2075 784 1575
Q 784 1072 996 728
Q 1209 384 1666 384
Q 2016 384 2220 598
Q 2425 813 2503 1184
L 3050 1184
Q 2956 519 2581 211
Q 2206 -97 1622 -97
Q 966 -97 575 383
Q 184 863 184 1581
Q 184 2463 612 2953
Q 1041 3444 1703 3444
z
M 1616 3428
L 1616 3428
z
" transform="scale(0.015625)"/>
      </defs>
      <use xlink:href="#Helvetica-57"/>
      <use xlink:href="#Helvetica-61" x="94.384766"/>
      <use xlink:href="#Helvetica-73" x="150"/>
      <use xlink:href="#Helvetica-73" x="200"/>
      <use xlink:href="#Helvetica-65" x="250"/>
      <use xlink:href="#Helvetica-72" x="305.615234"/>
      <use xlink:href="#Helvetica-73" x="338.916016"/>
      <use xlink:href="#Helvetica-74" x="388.916016"/>
      <use xlink:href="#Helvetica-65" x="416.699219"/>
      <use xlink:href="#Helvetica-69" x="472.314453"/>
      <use xlink:href="#Helvetica-6e" x="494.53125"/>
      <use xlink:href="#Helvetica-20" x="550.146484"/>
      <use xlink:href="#Helvetica-44" x="577.929688"/>
      <use xlink:href="#Helvetica-69" x="650.146484"/>
      <use xlink:href="#Helvetica-73" x="672.363281"/>
      <use xlink:href="#Helvetica-74" x="722.363281"/>
      <use xlink:href="#Helvetica-61" x="750.146484"/>
      <use xlink:href="#Helvetica-6e" x="805.761719"/>
      <use xlink:href="#Helvetica-63" x="861.376953"/>
      <use xlink:href="#Helvetica-65" x="911.376953"/>
     </g>
    </g>
   </g>
   <g id="line2d_9">
    <path d="M 45.259432 167.154483
L 47.462127 165.431723
L 49.664821 163.53176
L 51.867516 161.609697
L 54.070211 159.686495
L 56.272906 157.762691
L 58.475601 155.838322
L 60.678295 153.913657
L 62.88099 151.988867
L 65.083685 150.063994
L 67.28638 148.139121
L 69.489075 146.214249
L 71.691769 144.289376
L 73.894464 142.364504
L 76.097159 140.439631
L 78.299854 138.514759
L 80.502549 136.589886
L 82.705244 134.665014
L 84.907938 132.740141
L 87.110633 130.815268
L 89.313328 128.890396
L 91.516023 126.965523
L 93.718718 125.040651
L 95.921412 123.115778
L 98.124107 121.190906
L 100.326802 119.266033
L 102.529497 117.341161
L 104.732192 115.416288
L 106.934886 113.491415
L 109.137581 111.566543
L 111.340276 109.64167
L 113.542971 107.716798
L 115.745666 105.791925
L 117.94836 103.867053
L 120.151055 101.94218
L 122.35375 100.017308
L 124.556445 98.092435
L 126.75914 96.167562
L 128.961834 94.24269
L 131.164529 92.317817
L 133.367224 90.392945
L 135.569919 88.468072
L 137.772614 86.5432
L 139.975308 84.618327
L 142.178003 82.693455
L 144.380698 80.768582
L 146.583393 78.843709
L 148.786088 76.918837
L 150.988782 74.993964
L 153.191477 73.069092
L 155.394172 71.144219
L 157.596867 69.219347
L 159.799562 67.294474
L 162.002256 65.369602
L 164.204951 63.444729
L 166.407646 61.519856
L 168.610341 59.594984
L 170.813036 57.670111
L 173.015731 55.745239
L 175.218425 53.820366
L 177.42112 51.895494
L 179.623815 49.970621
L 181.82651 48.045749
L 184.029205 46.120876
L 186.231899 44.196003
L 188.434594 42.271131
L 190.637289 40.346258
L 192.839984 38.421386
L 195.042679 36.496513
L 197.245373 34.571641
L 199.448068 32.646768
" clip-path="url(#pa7cd9d3fad)" style="fill: none; stroke: #dd4040; stroke-width: 1.5; stroke-linecap: square"/>
   </g>
   <g id="patch_3">
    <path d="M 37.55 174.04
L 37.55 25.6875
" style="fill: none; stroke: #000000; stroke-width: 0.8; stroke-linejoin: miter; stroke-linecap: square"/>
   </g>
   <g id="patch_4">
    <path d="M 207.1575 174.04
L 207.1575 25.6875
" style="fill: none; stroke: #000000; stroke-width: 0.8; stroke-linejoin: miter; stroke-linecap: square"/>
   </g>
   <g id="patch_5">
    <path d="M 37.55 174.04
L 207.1575 174.04
" style="fill: none; stroke: #000000; stroke-width: 0.8; stroke-linejoin: miter; stroke-linecap: square"/>
   </g>
   <g id="patch_6">
    <path d="M 37.55 25.6875
L 207.1575 25.6875
" style="fill: none; stroke: #000000; stroke-width: 0.8; stroke-linejoin: miter; stroke-linecap: square"/>
   </g>
   <g id="text_11">
    <!-- Wasserstein Distance -->
    <g transform="translate(64.336562 19.6875) scale(0.12 -0.12)">
     <use xlink:href="#Helvetica-57"/>
     <use xlink:href="#Helvetica-61" x="94.384766"/>
     <use xlink:href="#Helvetica-73" x="150"/>
     <use xlink:href="#Helvetica-73" x="200"/>
     <use xlink:href="#Helvetica-65" x="250"/>
     <use xlink:href="#Helvetica-72" x="305.615234"/>
     <use xlink:href="#Helvetica-73" x="338.916016"/>
     <use xlink:href="#Helvetica-74" x="388.916016"/>
     <use xlink:href="#Helvetica-65" x="416.699219"/>
     <use xlink:href="#Helvetica-69" x="472.314453"/>
     <use xlink:href="#Helvetica-6e" x="494.53125"/>
     <use xlink:href="#Helvetica-20" x="550.146484"/>
     <use xlink:href="#Helvetica-44" x="577.929688"/>
     <use xlink:href="#Helvetica-69" x="650.146484"/>
     <use xlink:href="#Helvetica-73" x="672.363281"/>
     <use xlink:href="#Helvetica-74" x="722.363281"/>
     <use xlink:href="#Helvetica-61" x="750.146484"/>
     <use xlink:href="#Helvetica-6e" x="805.761719"/>
     <use xlink:href="#Helvetica-63" x="861.376953"/>
     <use xlink:href="#Helvetica-65" x="911.376953"/>
    </g>
   </g>
   <g id="legend_1">
    <g id="patch_7">
     <path d="M 44.55 47.945312
L 109.342188 47.945312
Q 111.342188 47.945312 111.342188 45.945312
L 111.342188 32.6875
Q 111.342188 30.6875 109.342188 30.6875
L 44.55 30.6875
Q 42.55 30.6875 42.55 32.6875
L 42.55 45.945312
Q 42.55 47.945312 44.55 47.945312
z
" style="fill: #ffffff; opacity: 0.8; stroke: #cccccc; stroke-linejoin: miter"/>
    </g>
    <g id="patch_8">
     <path d="M 46.55 41.860938
L 66.55 41.860938
L 66.55 34.860938
L 46.55 34.860938
z
" style="fill: #f8dcdc; stroke: #f8dcdc; stroke-linejoin: miter"/>
    </g>
    <g id="text_12">
     <!-- 95% CI -->
     <g transform="translate(74.55 41.860938) scale(0.1 -0.1)">
      <defs>
       <path id="Helvetica-39" d="M 850 1081
Q 875 616 1209 438
Q 1381 344 1597 344
Q 2000 344 2284 680
Q 2569 1016 2688 2044
Q 2500 1747 2223 1626
Q 1947 1506 1628 1506
Q 981 1506 604 1909
Q 228 2313 228 2947
Q 228 3556 600 4018
Q 972 4481 1697 4481
Q 2675 4481 3047 3600
Q 3253 3116 3253 2388
Q 3253 1566 3006 931
Q 2597 -125 1619 -125
Q 963 -125 622 219
Q 281 563 281 1081
L 850 1081
z
M 1703 2000
Q 2038 2000 2314 2220
Q 2591 2441 2591 2991
Q 2591 3484 2342 3726
Q 2094 3969 1709 3969
Q 1297 3969 1055 3692
Q 813 3416 813 2953
Q 813 2516 1025 2258
Q 1238 2000 1703 2000
z
" transform="scale(0.015625)"/>
       <path id="Helvetica-35" d="M 791 1141
Q 847 659 1238 475
Q 1438 381 1700 381
Q 2200 381 2440 700
Q 2681 1019 2681 1406
Q 2681 1875 2395 2131
Q 2109 2388 1709 2388
Q 1419 2388 1211 2275
Q 1003 2163 856 1963
L 369 1991
L 709 4400
L 3034 4400
L 3034 3856
L 1131 3856
L 941 2613
Q 1097 2731 1238 2791
Q 1488 2894 1816 2894
Q 2431 2894 2859 2497
Q 3288 2100 3288 1491
Q 3288 856 2895 371
Q 2503 -113 1644 -113
Q 1097 -113 676 195
Q 256 503 206 1141
L 791 1141
z
" transform="scale(0.015625)"/>
       <path id="Helvetica-25" d="M 4363 2175
Q 4813 2175 5131 1856
Q 5450 1538 5450 1088
Q 5450 638 5131 319
Q 4813 0 4363 0
Q 3909 0 3590 319
Q 3272 638 3272 1088
Q 3272 1538 3590 1856
Q 3909 2175 4363 2175
z
M 3909 4456
L 4256 4456
L 1753 -119
L 1406 -119
L 3909 4456
z
M 1294 2606
Q 1563 2606 1752 2795
Q 1941 2984 1941 3250
Q 1941 3516 1752 3705
Q 1563 3894 1294 3894
Q 1028 3894 839 3706
Q 650 3519 650 3250
Q 650 2984 839 2795
Q 1028 2606 1294 2606
z
M 1294 4341
Q 1747 4341 2065 4020
Q 2384 3700 2384 3250
Q 2384 2800 2065 2481
Q 1747 2163 1294 2163
Q 844 2163 525 2481
Q 206 2800 206 3250
Q 206 3700 525 4020
Q 844 4341 1294 4341
z
M 4363 444
Q 4628 444 4817 633
Q 5006 822 5006 1088
Q 5006 1353 4817 1542
Q 4628 1731 4363 1731
Q 4094 1731 3905 1542
Q 3716 1353 3716 1088
Q 3716 822 3905 633
Q 4094 444 4363 444
z
" transform="scale(0.015625)"/>
       <path id="Helvetica-43" d="M 2422 4716
Q 3294 4716 3775 4256
Q 4256 3797 4309 3213
L 3703 3213
Q 3600 3656 3292 3915
Q 2984 4175 2428 4175
Q 1750 4175 1333 3698
Q 916 3222 916 2238
Q 916 1431 1292 929
Q 1669 428 2416 428
Q 3103 428 3463 956
Q 3653 1234 3747 1688
L 4353 1688
Q 4272 963 3816 472
Q 3269 -119 2341 -119
Q 1541 -119 997 366
Q 281 1006 281 2344
Q 281 3359 819 4009
Q 1400 4716 2422 4716
z
M 2297 4716
L 2297 4716
z
" transform="scale(0.015625)"/>
       <path id="Helvetica-49" d="M 628 4591
L 1256 4591
L 1256 0
L 628 0
L 628 4591
z
" transform="scale(0.015625)"/>
      </defs>
      <use xlink:href="#Helvetica-39"/>
      <use xlink:href="#Helvetica-35" x="55.615234"/>
      <use xlink:href="#Helvetica-25" x="111.230469"/>
      <use xlink:href="#Helvetica-20" x="200.146484"/>
      <use xlink:href="#Helvetica-43" x="227.929688"/>
      <use xlink:href="#Helvetica-49" x="300.146484"/>
     </g>
    </g>
   </g>
  </g>
  <g id="axes_2">
   <g id="patch_9">
    <path d="M 252.8975 174.04
L 422.505 174.04
L 422.505 25.6875
L 252.8975 25.6875
z
" style="fill: #ffffff"/>
   </g>
   <g id="PolyCollection_2">
    <defs>
     <path id="m8930fd8914" d="M 260.606932 -49.818172
L 260.606932 -48.703295
L 262.809627 -51.956845
L 265.012321 -56.663843
L 267.215016 -61.739284
L 269.417711 -67.28065
L 271.620406 -72.9001
L 273.823101 -78.445213
L 276.025795 -84.01366
L 278.22849 -89.17246
L 280.431185 -94.475261
L 282.63388 -99.607921
L 284.836575 -104.562788
L 287.039269 -109.330205
L 289.241964 -113.876057
L 291.444659 -118.310525
L 293.647354 -122.605825
L 295.850049 -126.698769
L 298.052744 -130.616452
L 300.255438 -134.218791
L 302.458133 -137.784707
L 304.660828 -141.173398
L 306.863523 -144.369566
L 309.066218 -147.31504
L 311.268912 -150.108424
L 313.471607 -152.776407
L 315.674302 -155.297494
L 317.876997 -157.68918
L 320.079692 -159.816442
L 322.282386 -161.903464
L 324.485081 -163.827181
L 326.687776 -165.633856
L 328.890471 -167.342045
L 331.093166 -168.805796
L 333.29586 -170.276735
L 335.498555 -171.643451
L 337.70125 -172.843112
L 339.903945 -173.979842
L 342.10664 -174.977312
L 344.309334 -175.947752
L 346.512029 -176.841581
L 348.714724 -177.603493
L 350.917419 -178.335869
L 353.120114 -178.960586
L 355.322808 -179.565478
L 357.525503 -180.104622
L 359.728198 -180.567988
L 361.930893 -180.986481
L 364.133588 -181.364786
L 366.336282 -181.727789
L 368.538977 -182.005245
L 370.741672 -182.249891
L 372.944367 -182.469107
L 375.147062 -182.691959
L 377.349756 -182.866324
L 379.552451 -182.987004
L 381.755146 -183.088839
L 383.957841 -183.196153
L 386.160536 -183.301189
L 388.363231 -183.357996
L 390.565925 -183.402876
L 392.76862 -183.432451
L 394.971315 -183.481109
L 397.17401 -183.490056
L 399.376705 -183.516594
L 401.579399 -183.534131
L 403.782094 -183.534131
L 403.782094 -183.569205
L 403.782094 -183.569205
L 401.579399 -183.569205
L 399.376705 -183.563359
L 397.17401 -183.553924
L 394.971315 -183.548078
L 392.76862 -183.523362
L 390.565925 -183.493777
L 388.363231 -183.464256
L 386.160536 -183.422836
L 383.957841 -183.35631
L 381.755146 -183.272959
L 379.552451 -183.177166
L 377.349756 -183.076891
L 375.147062 -182.900584
L 372.944367 -182.713066
L 370.741672 -182.509865
L 368.538977 -182.270376
L 366.336282 -182.032595
L 364.133588 -181.640763
L 361.930893 -181.306334
L 359.728198 -180.89315
L 357.525503 -180.442536
L 355.322808 -179.942109
L 353.120114 -179.315757
L 350.917419 -178.74656
L 348.714724 -178.014564
L 346.512029 -177.278431
L 344.309334 -176.425957
L 342.10664 -175.437057
L 339.903945 -174.487128
L 337.70125 -173.369804
L 335.498555 -172.18207
L 333.29586 -170.864106
L 331.093166 -169.402575
L 328.890471 -167.953489
L 326.687776 -166.254504
L 324.485081 -164.515966
L 322.282386 -162.614257
L 320.079692 -160.570163
L 317.876997 -158.440466
L 315.674302 -156.037798
L 313.471607 -153.601534
L 311.268912 -150.947983
L 309.066218 -148.184618
L 306.863523 -145.247881
L 304.660828 -142.037847
L 302.458133 -138.743555
L 300.255438 -135.187528
L 298.052744 -131.588929
L 295.850049 -127.708231
L 293.647354 -123.598732
L 291.444659 -119.399116
L 289.241964 -114.964194
L 287.039269 -110.470588
L 284.836575 -105.654409
L 282.63388 -100.736746
L 280.431185 -95.663516
L 278.22849 -90.407855
L 276.025795 -85.237012
L 273.823101 -79.676505
L 271.620406 -74.144641
L 269.417711 -68.496025
L 267.215016 -63.00154
L 265.012321 -57.86329
L 262.809627 -53.073229
L 260.606932 -49.818172
z
" style="stroke: #f8dcdc"/>
    </defs>
    <g clip-path="url(#pedfb0cb6d1)">
     <use xlink:href="#m8930fd8914" x="0" y="216" style="fill: #f8dcdc; stroke: #f8dcdc"/>
    </g>
   </g>
   <g id="matplotlib.axis_3">
    <g id="xtick_5">
     <g id="line2d_10">
      <g>
       <use xlink:href="#m8ede759a81" x="260.606932" y="174.04" style="stroke: #000000; stroke-width: 0.8"/>
      </g>
     </g>
     <g id="text_13">
      <!-- 0 -->
      <g transform="translate(257.826463 188.213437) scale(0.1 -0.1)">
       <use xlink:href="#Helvetica-30"/>
      </g>
     </g>
    </g>
    <g id="xtick_6">
     <g id="line2d_11">
      <g>
       <use xlink:href="#m8ede759a81" x="304.660828" y="174.04" style="stroke: #000000; stroke-width: 0.8"/>
      </g>
     </g>
     <g id="text_14">
      <!-- 2 -->
      <g transform="translate(301.880359 188.213437) scale(0.1 -0.1)">
       <use xlink:href="#Helvetica-32"/>
      </g>
     </g>
    </g>
    <g id="xtick_7">
     <g id="line2d_12">
      <g>
       <use xlink:href="#m8ede759a81" x="348.714724" y="174.04" style="stroke: #000000; stroke-width: 0.8"/>
      </g>
     </g>
     <g id="text_15">
      <!-- 4 -->
      <g transform="translate(345.934255 188.213437) scale(0.1 -0.1)">
       <use xlink:href="#Helvetica-34"/>
      </g>
     </g>
    </g>
    <g id="xtick_8">
     <g id="line2d_13">
      <g>
       <use xlink:href="#m8ede759a81" x="392.76862" y="174.04" style="stroke: #000000; stroke-width: 0.8"/>
      </g>
     </g>
     <g id="text_16">
      <!-- 6 -->
      <g transform="translate(389.988151 188.213437) scale(0.1 -0.1)">
       <use xlink:href="#Helvetica-36"/>
      </g>
     </g>
    </g>
    <g id="text_17">
     <!-- Mean of Analysis Distribution -->
     <g transform="translate(273.231719 201.572812) scale(0.1 -0.1)">
      <use xlink:href="#Helvetica-4d"/>
      <use xlink:href="#Helvetica-65" x="83.300781"/>
      <use xlink:href="#Helvetica-61" x="138.916016"/>
      <use xlink:href="#Helvetica-6e" x="194.53125"/>
      <use xlink:href="#Helvetica-20" x="250.146484"/>
      <use xlink:href="#Helvetica-6f" x="277.929688"/>
      <use xlink:href="#Helvetica-66" x="333.544922"/>
      <use xlink:href="#Helvetica-20" x="361.328125"/>
      <use xlink:href="#Helvetica-41" x="389.111328"/>
      <use xlink:href="#Helvetica-6e" x="455.810547"/>
      <use xlink:href="#Helvetica-61" x="511.425781"/>
      <use xlink:href="#Helvetica-6c" x="567.041016"/>
      <use xlink:href="#Helvetica-79" x="589.257812"/>
      <use xlink:href="#Helvetica-73" x="639.257812"/>
      <use xlink:href="#Helvetica-69" x="689.257812"/>
      <use xlink:href="#Helvetica-73" x="711.474609"/>
      <use xlink:href="#Helvetica-20" x="761.474609"/>
      <use xlink:href="#Helvetica-44" x="789.257812"/>
      <use xlink:href="#Helvetica-69" x="861.474609"/>
      <use xlink:href="#Helvetica-73" x="883.691406"/>
      <use xlink:href="#Helvetica-74" x="933.691406"/>
      <use xlink:href="#Helvetica-72" x="961.474609"/>
      <use xlink:href="#Helvetica-69" x="994.775391"/>
      <use xlink:href="#Helvetica-62" x="1016.992188"/>
      <use xlink:href="#Helvetica-75" x="1072.607422"/>
      <use xlink:href="#Helvetica-74" x="1128.222656"/>
      <use xlink:href="#Helvetica-69" x="1156.005859"/>
      <use xlink:href="#Helvetica-6f" x="1178.222656"/>
      <use xlink:href="#Helvetica-6e" x="1233.837891"/>
     </g>
    </g>
   </g>
   <g id="matplotlib.axis_4">
    <g id="ytick_5">
     <g id="line2d_14">
      <g>
       <use xlink:href="#m2d8b900539" x="252.8975" y="148.438856" style="stroke: #000000; stroke-width: 0.8"/>
      </g>
     </g>
     <g id="text_18">
      <!-- 0.2 -->
      <g transform="translate(231.9975 152.025575) scale(0.1 -0.1)">
       <defs>
        <path id="Helvetica-2e" d="M 547 681
L 1200 681
L 1200 0
L 547 0
L 547 681
z
" transform="scale(0.015625)"/>
       </defs>
       <use xlink:href="#Helvetica-30"/>
       <use xlink:href="#Helvetica-2e" x="55.615234"/>
       <use xlink:href="#Helvetica-32" x="83.398438"/>
      </g>
     </g>
    </g>
    <g id="ytick_6">
     <g id="line2d_15">
      <g>
       <use xlink:href="#m2d8b900539" x="252.8975" y="119.436841" style="stroke: #000000; stroke-width: 0.8"/>
      </g>
     </g>
     <g id="text_19">
      <!-- 0.4 -->
      <g transform="translate(231.9975 123.02356) scale(0.1 -0.1)">
       <use xlink:href="#Helvetica-30"/>
       <use xlink:href="#Helvetica-2e" x="55.615234"/>
       <use xlink:href="#Helvetica-34" x="83.398438"/>
      </g>
     </g>
    </g>
    <g id="ytick_7">
     <g id="line2d_16">
      <g>
       <use xlink:href="#m2d8b900539" x="252.8975" y="90.434826" style="stroke: #000000; stroke-width: 0.8"/>
      </g>
     </g>
     <g id="text_20">
      <!-- 0.6 -->
      <g transform="translate(231.9975 94.021545) scale(0.1 -0.1)">
       <use xlink:href="#Helvetica-30"/>
       <use xlink:href="#Helvetica-2e" x="55.615234"/>
       <use xlink:href="#Helvetica-36" x="83.398438"/>
      </g>
     </g>
    </g>
    <g id="ytick_8">
     <g id="line2d_17">
      <g>
       <use xlink:href="#m2d8b900539" x="252.8975" y="61.432811" style="stroke: #000000; stroke-width: 0.8"/>
      </g>
     </g>
     <g id="text_21">
      <!-- 0.8 -->
      <g transform="translate(231.9975 65.019529) scale(0.1 -0.1)">
       <defs>
        <path id="Helvetica-38" d="M 1741 2600
Q 2113 2600 2322 2808
Q 2531 3016 2531 3303
Q 2531 3553 2331 3762
Q 2131 3972 1722 3972
Q 1316 3972 1134 3762
Q 953 3553 953 3272
Q 953 2956 1187 2778
Q 1422 2600 1741 2600
z
M 1775 384
Q 2166 384 2423 595
Q 2681 806 2681 1225
Q 2681 1659 2415 1884
Q 2150 2109 1734 2109
Q 1331 2109 1076 1879
Q 822 1650 822 1244
Q 822 894 1055 639
Q 1288 384 1775 384
z
M 975 2384
Q 741 2484 609 2619
Q 363 2869 363 3269
Q 363 3769 725 4128
Q 1088 4488 1753 4488
Q 2397 4488 2762 4148
Q 3128 3809 3128 3356
Q 3128 2938 2916 2678
Q 2797 2531 2547 2391
Q 2825 2263 2984 2097
Q 3281 1784 3281 1284
Q 3281 694 2884 283
Q 2488 -128 1763 -128
Q 1109 -128 657 226
Q 206 581 206 1256
Q 206 1653 400 1942
Q 594 2231 975 2384
z
" transform="scale(0.015625)"/>
       </defs>
       <use xlink:href="#Helvetica-30"/>
       <use xlink:href="#Helvetica-2e" x="55.615234"/>
       <use xlink:href="#Helvetica-38" x="83.398438"/>
      </g>
     </g>
    </g>
    <g id="ytick_9">
     <g id="line2d_18">
      <g>
       <use xlink:href="#m2d8b900539" x="252.8975" y="32.430795" style="stroke: #000000; stroke-width: 0.8"/>
      </g>
     </g>
     <g id="text_22">
      <!-- 1.0 -->
      <g transform="translate(231.9975 36.017514) scale(0.1 -0.1)">
       <defs>
        <path id="Helvetica-31" d="M 613 3169
L 613 3600
Q 1222 3659 1462 3798
Q 1703 3938 1822 4456
L 2266 4456
L 2266 0
L 1666 0
L 1666 3169
L 613 3169
z
" transform="scale(0.015625)"/>
       </defs>
       <use xlink:href="#Helvetica-31"/>
       <use xlink:href="#Helvetica-2e" x="55.615234"/>
       <use xlink:href="#Helvetica-30" x="83.398438"/>
      </g>
     </g>
    </g>
    <g id="text_23">
     <!-- Jensen-Shannon Distance -->
     <g transform="translate(225.913125 158.509844) rotate(-90) scale(0.1 -0.1)">
      <defs>
       <path id="Helvetica-4a" d="M 2741 1369
Q 2741 788 2569 466
Q 2250 -122 1356 -122
Q 841 -122 475 158
Q 109 438 109 1153
L 109 1481
L 694 1481
L 694 1153
Q 694 778 861 589
Q 1028 400 1381 400
Q 1878 400 2031 741
Q 2125 950 2125 1531
L 2125 4591
L 2741 4591
L 2741 1369
z
" transform="scale(0.015625)"/>
       <path id="Helvetica-2d" d="M 266 2072
L 1834 2072
L 1834 1494
L 266 1494
L 266 2072
z
" transform="scale(0.015625)"/>
       <path id="Helvetica-53" d="M 894 1481
Q 916 1091 1078 847
Q 1388 391 2169 391
Q 2519 391 2806 491
Q 3363 684 3363 1184
Q 3363 1559 3128 1719
Q 2891 1875 2384 1991
L 1763 2131
Q 1153 2269 900 2434
Q 463 2722 463 3294
Q 463 3913 891 4309
Q 1319 4706 2103 4706
Q 2825 4706 3329 4357
Q 3834 4009 3834 3244
L 3250 3244
Q 3203 3613 3050 3809
Q 2766 4169 2084 4169
Q 1534 4169 1293 3937
Q 1053 3706 1053 3400
Q 1053 3063 1334 2906
Q 1519 2806 2169 2656
L 2813 2509
Q 3278 2403 3531 2219
Q 3969 1897 3969 1284
Q 3969 522 3414 194
Q 2859 -134 2125 -134
Q 1269 -134 784 303
Q 300 738 309 1481
L 894 1481
z
M 2150 4716
L 2150 4716
z
" transform="scale(0.015625)"/>
       <path id="Helvetica-68" d="M 413 4606
L 975 4606
L 975 2894
Q 1175 3147 1334 3250
Q 1606 3428 2013 3428
Q 2741 3428 3000 2919
Q 3141 2641 3141 2147
L 3141 0
L 2563 0
L 2563 2109
Q 2563 2478 2469 2650
Q 2316 2925 1894 2925
Q 1544 2925 1259 2684
Q 975 2444 975 1775
L 975 0
L 413 0
L 413 4606
z
" transform="scale(0.015625)"/>
      </defs>
      <use xlink:href="#Helvetica-4a"/>
      <use xlink:href="#Helvetica-65" x="50"/>
      <use xlink:href="#Helvetica-6e" x="105.615234"/>
      <use xlink:href="#Helvetica-73" x="161.230469"/>
      <use xlink:href="#Helvetica-65" x="211.230469"/>
      <use xlink:href="#Helvetica-6e" x="266.845703"/>
      <use xlink:href="#Helvetica-2d" x="322.460938"/>
      <use xlink:href="#Helvetica-53" x="355.761719"/>
      <use xlink:href="#Helvetica-68" x="422.460938"/>
      <use xlink:href="#Helvetica-61" x="478.076172"/>
      <use xlink:href="#Helvetica-6e" x="533.691406"/>
      <use xlink:href="#Helvetica-6e" x="589.306641"/>
      <use xlink:href="#Helvetica-6f" x="644.921875"/>
      <use xlink:href="#Helvetica-6e" x="700.537109"/>
      <use xlink:href="#Helvetica-20" x="756.152344"/>
      <use xlink:href="#Helvetica-44" x="783.935547"/>
      <use xlink:href="#Helvetica-69" x="856.152344"/>
      <use xlink:href="#Helvetica-73" x="878.369141"/>
      <use xlink:href="#Helvetica-74" x="928.369141"/>
      <use xlink:href="#Helvetica-61" x="956.152344"/>
      <use xlink:href="#Helvetica-6e" x="1011.767578"/>
      <use xlink:href="#Helvetica-63" x="1067.382812"/>
      <use xlink:href="#Helvetica-65" x="1117.382812"/>
     </g>
    </g>
   </g>
   <g id="line2d_19">
    <path d="M 260.606932 166.746185
L 262.809627 163.480187
L 265.012321 158.741973
L 267.215016 153.655891
L 269.417711 148.114372
L 271.620406 142.49936
L 273.823101 136.965607
L 276.025795 131.412122
L 278.22849 126.252112
L 280.431185 120.9391
L 282.63388 115.843674
L 284.836575 110.904212
L 287.039269 106.114711
L 289.241964 101.59864
L 291.444659 97.147562
L 293.647354 92.886239
L 295.850049 88.790998
L 298.052744 84.902025
L 300.255438 81.301279
L 302.458133 77.732803
L 304.660828 74.380929
L 306.863523 71.188706
L 309.066218 68.24865
L 311.268912 65.468555
L 313.471607 62.797971
L 315.674302 60.310287
L 317.876997 57.932083
L 320.079692 55.793343
L 322.282386 53.735774
L 324.485081 51.81733
L 326.687776 50.04381
L 328.890471 48.347745
L 331.093166 46.882838
L 333.29586 45.414277
L 335.498555 44.079605
L 337.70125 42.887458
L 339.903945 41.761713
L 342.10664 40.783163
L 344.309334 39.803916
L 346.512029 38.928799
L 348.714724 38.186415
L 350.917419 37.456203
L 353.120114 36.851384
L 355.322808 36.244157
L 357.525503 35.716032
L 359.728198 35.263523
L 361.930893 34.851479
L 364.133588 34.494829
L 366.336282 34.12297
L 368.538977 33.857273
L 370.741672 33.615431
L 372.944367 33.4068
L 375.147062 33.205332
L 377.349756 33.029643
L 379.552451 32.916633
L 381.755146 32.813691
L 383.957841 32.719918
L 386.160536 32.63453
L 388.363231 32.585357
L 390.565925 32.548468
L 392.76862 32.514735
L 394.971315 32.478894
L 397.17401 32.467203
L 399.376705 32.448332
L 401.579399 32.436641
L 403.782094 32.436641
L 405.984789 32.430795
L 408.187484 32.430795
L 410.390179 32.430795
L 412.592873 32.430795
L 414.795568 32.430795
" clip-path="url(#pedfb0cb6d1)" style="fill: none; stroke: #dd4040; stroke-width: 1.5; stroke-linecap: square"/>
   </g>
   <g id="patch_10">
    <path d="M 252.8975 174.04
L 252.8975 25.6875
" style="fill: none; stroke: #000000; stroke-width: 0.8; stroke-linejoin: miter; stroke-linecap: square"/>
   </g>
   <g id="patch_11">
    <path d="M 422.505 174.04
L 422.505 25.6875
" style="fill: none; stroke: #000000; stroke-width: 0.8; stroke-linejoin: miter; stroke-linecap: square"/>
   </g>
   <g id="patch_12">
    <path d="M 252.8975 174.04
L 422.505 174.04
" style="fill: none; stroke: #000000; stroke-width: 0.8; stroke-linejoin: miter; stroke-linecap: square"/>
   </g>
   <g id="patch_13">
    <path d="M 252.8975 25.6875
L 422.505 25.6875
" style="fill: none; stroke: #000000; stroke-width: 0.8; stroke-linejoin: miter; stroke-linecap: square"/>
   </g>
   <g id="text_24">
    <!-- Jensen-Shannon Distance -->
    <g transform="translate(267.325937 19.6875) scale(0.12 -0.12)">
     <use xlink:href="#Helvetica-4a"/>
     <use xlink:href="#Helvetica-65" x="50"/>
     <use xlink:href="#Helvetica-6e" x="105.615234"/>
     <use xlink:href="#Helvetica-73" x="161.230469"/>
     <use xlink:href="#Helvetica-65" x="211.230469"/>
     <use xlink:href="#Helvetica-6e" x="266.845703"/>
     <use xlink:href="#Helvetica-2d" x="322.460938"/>
     <use xlink:href="#Helvetica-53" x="355.761719"/>
     <use xlink:href="#Helvetica-68" x="422.460938"/>
     <use xlink:href="#Helvetica-61" x="478.076172"/>
     <use xlink:href="#Helvetica-6e" x="533.691406"/>
     <use xlink:href="#Helvetica-6e" x="589.306641"/>
     <use xlink:href="#Helvetica-6f" x="644.921875"/>
     <use xlink:href="#Helvetica-6e" x="700.537109"/>
     <use xlink:href="#Helvetica-20" x="756.152344"/>
     <use xlink:href="#Helvetica-44" x="783.935547"/>
     <use xlink:href="#Helvetica-69" x="856.152344"/>
     <use xlink:href="#Helvetica-73" x="878.369141"/>
     <use xlink:href="#Helvetica-74" x="928.369141"/>
     <use xlink:href="#Helvetica-61" x="956.152344"/>
     <use xlink:href="#Helvetica-6e" x="1011.767578"/>
     <use xlink:href="#Helvetica-63" x="1067.382812"/>
     <use xlink:href="#Helvetica-65" x="1117.382812"/>
    </g>
   </g>
   <g id="legend_2">
    <g id="patch_14">
     <path d="M 259.8975 47.945312
L 324.689688 47.945312
Q 326.689688 47.945312 326.689688 45.945312
L 326.689688 32.6875
Q 326.689688 30.6875 324.689688 30.6875
L 259.8975 30.6875
Q 257.8975 30.6875 257.8975 32.6875
L 257.8975 45.945312
Q 257.8975 47.945312 259.8975 47.945312
z
" style="fill: #ffffff; opacity: 0.8; stroke: #cccccc; stroke-linejoin: miter"/>
    </g>
    <g id="patch_15">
     <path d="M 261.8975 41.860938
L 281.8975 41.860938
L 281.8975 34.860938
L 261.8975 34.860938
z
" style="fill: #f8dcdc; stroke: #f8dcdc; stroke-linejoin: miter"/>
    </g>
    <g id="text_25">
     <!-- 95% CI -->
     <g transform="translate(289.8975 41.860938) scale(0.1 -0.1)">
      <use xlink:href="#Helvetica-39"/>
      <use xlink:href="#Helvetica-35" x="55.615234"/>
      <use xlink:href="#Helvetica-25" x="111.230469"/>
      <use xlink:href="#Helvetica-20" x="200.146484"/>
      <use xlink:href="#Helvetica-43" x="227.929688"/>
      <use xlink:href="#Helvetica-49" x="300.146484"/>
     </g>
    </g>
   </g>
  </g>
  <g id="axes_3">
   <g id="patch_16">
    <path d="M 468.245 174.04
L 637.8525 174.04
L 637.8525 25.6875
L 468.245 25.6875
z
" style="fill: #ffffff"/>
   </g>
   <g id="PolyCollection_3">
    <defs>
     <path id="me02269d56e" d="M 475.954432 -49.846083
L 475.954432 -48.703295
L 478.157127 -53.993626
L 480.359821 -59.283957
L 482.562516 -64.713803
L 484.765211 -70.200576
L 486.967906 -75.562979
L 489.170601 -80.96118
L 491.373295 -86.490493
L 493.57599 -91.902972
L 495.778685 -97.052602
L 497.98138 -102.117812
L 500.184075 -106.892242
L 502.386769 -111.31961
L 504.589464 -115.648489
L 506.792159 -119.630307
L 508.994854 -123.415145
L 511.197549 -127.143702
L 513.400244 -130.98482
L 515.602938 -134.858767
L 517.805633 -138.592015
L 520.008328 -142.067312
L 522.211023 -145.270588
L 524.413718 -148.26041
L 526.616412 -151.18938
L 528.819107 -153.820475
L 531.021802 -156.175662
L 533.224497 -158.266604
L 535.427192 -160.259858
L 537.629886 -162.210902
L 539.832581 -164.110356
L 542.035276 -165.894945
L 544.237971 -167.473092
L 546.440666 -168.955135
L 548.64336 -170.202678
L 550.846055 -171.40801
L 553.04875 -172.514852
L 555.251445 -173.659215
L 557.45414 -174.634737
L 559.656834 -175.680609
L 561.859529 -176.557641
L 564.062224 -177.434185
L 566.264919 -178.147554
L 568.467614 -178.780705
L 570.670308 -179.419076
L 572.873003 -180.009487
L 575.075698 -180.572289
L 577.278393 -181.06474
L 579.481088 -181.51029
L 581.683782 -181.805761
L 583.886477 -182.110612
L 586.089172 -182.368562
L 588.291867 -182.565543
L 590.494562 -182.729693
L 592.697256 -182.917293
L 594.899951 -183.029853
L 597.102646 -183.137724
L 599.305341 -183.236214
L 601.508036 -183.311254
L 603.710731 -183.372224
L 605.913425 -183.419124
L 608.11612 -183.447264
L 610.318815 -183.484784
L 612.52151 -183.498854
L 614.724205 -183.526994
L 616.926899 -183.541064
L 619.129594 -183.541064
L 619.129594 -183.569205
L 619.129594 -183.569205
L 616.926899 -183.569205
L 614.724205 -183.564515
L 612.52151 -183.555135
L 610.318815 -183.545754
L 608.11612 -183.526994
L 605.913425 -183.503544
L 603.710731 -183.475404
L 601.508036 -183.437884
L 599.305341 -183.381604
L 597.102646 -183.301874
L 594.899951 -183.208074
L 592.697256 -183.118964
L 590.494562 -182.945433
L 588.291867 -182.790663
L 586.089172 -182.603063
L 583.886477 -182.382632
L 581.683782 -182.077782
L 579.481088 -181.810451
L 577.278393 -181.39773
L 575.075698 -180.947489
L 572.873003 -180.426898
L 570.670308 -179.868787
L 568.467614 -179.240326
L 566.264919 -178.630625
L 564.062224 -177.941193
L 561.859529 -177.096992
L 559.656834 -176.21058
L 557.45414 -175.235058
L 555.251445 -174.231396
L 553.04875 -173.129244
L 550.846055 -172.031782
L 548.64336 -170.868659
L 546.440666 -169.616427
L 544.237971 -168.153144
L 542.035276 -166.605441
L 539.832581 -164.856067
L 537.629886 -162.994133
L 535.427192 -161.04778
L 533.224497 -159.026386
L 531.021802 -157.000302
L 528.819107 -154.725647
L 526.616412 -152.072638
L 524.413718 -149.214886
L 522.211023 -146.2508
L 520.008328 -143.066284
L 517.805633 -139.590987
L 515.602938 -135.909329
L 513.400244 -131.927512
L 511.197549 -128.147364
L 508.994854 -124.409427
L 506.792159 -120.662109
L 504.589464 -116.673082
L 502.386769 -112.323272
L 500.184075 -107.999084
L 497.98138 -103.309074
L 495.778685 -98.173514
L 493.57599 -93.145824
L 491.373295 -87.864874
L 489.170601 -82.298787
L 486.967906 -76.805832
L 484.765211 -71.599921
L 482.562516 -66.045516
L 480.359821 -60.550259
L 478.157127 -55.133298
L 475.954432 -49.846083
z
" style="stroke: #f8dcdc"/>
    </defs>
    <g clip-path="url(#p05a2662237)">
     <use xlink:href="#me02269d56e" x="0" y="216" style="fill: #f8dcdc; stroke: #f8dcdc"/>
    </g>
   </g>
   <g id="matplotlib.axis_5">
    <g id="xtick_9">
     <g id="line2d_20">
      <g>
       <use xlink:href="#m8ede759a81" x="475.954432" y="174.04" style="stroke: #000000; stroke-width: 0.8"/>
      </g>
     </g>
     <g id="text_26">
      <!-- 0 -->
      <g transform="translate(473.173963 188.213437) scale(0.1 -0.1)">
       <use xlink:href="#Helvetica-30"/>
      </g>
     </g>
    </g>
    <g id="xtick_10">
     <g id="line2d_21">
      <g>
       <use xlink:href="#m8ede759a81" x="520.008328" y="174.04" style="stroke: #000000; stroke-width: 0.8"/>
      </g>
     </g>
     <g id="text_27">
      <!-- 2 -->
      <g transform="translate(517.227859 188.213437) scale(0.1 -0.1)">
       <use xlink:href="#Helvetica-32"/>
      </g>
     </g>
    </g>
    <g id="xtick_11">
     <g id="line2d_22">
      <g>
       <use xlink:href="#m8ede759a81" x="564.062224" y="174.04" style="stroke: #000000; stroke-width: 0.8"/>
      </g>
     </g>
     <g id="text_28">
      <!-- 4 -->
      <g transform="translate(561.281755 188.213437) scale(0.1 -0.1)">
       <use xlink:href="#Helvetica-34"/>
      </g>
     </g>
    </g>
    <g id="xtick_12">
     <g id="line2d_23">
      <g>
       <use xlink:href="#m8ede759a81" x="608.11612" y="174.04" style="stroke: #000000; stroke-width: 0.8"/>
      </g>
     </g>
     <g id="text_29">
      <!-- 6 -->
      <g transform="translate(605.335651 188.213437) scale(0.1 -0.1)">
       <use xlink:href="#Helvetica-36"/>
      </g>
     </g>
    </g>
    <g id="text_30">
     <!-- Mean of Analysis Distribution -->
     <g transform="translate(488.579219 201.572812) scale(0.1 -0.1)">
      <use xlink:href="#Helvetica-4d"/>
      <use xlink:href="#Helvetica-65" x="83.300781"/>
      <use xlink:href="#Helvetica-61" x="138.916016"/>
      <use xlink:href="#Helvetica-6e" x="194.53125"/>
      <use xlink:href="#Helvetica-20" x="250.146484"/>
      <use xlink:href="#Helvetica-6f" x="277.929688"/>
      <use xlink:href="#Helvetica-66" x="333.544922"/>
      <use xlink:href="#Helvetica-20" x="361.328125"/>
      <use xlink:href="#Helvetica-41" x="389.111328"/>
      <use xlink:href="#Helvetica-6e" x="455.810547"/>
      <use xlink:href="#Helvetica-61" x="511.425781"/>
      <use xlink:href="#Helvetica-6c" x="567.041016"/>
      <use xlink:href="#Helvetica-79" x="589.257812"/>
      <use xlink:href="#Helvetica-73" x="639.257812"/>
      <use xlink:href="#Helvetica-69" x="689.257812"/>
      <use xlink:href="#Helvetica-73" x="711.474609"/>
      <use xlink:href="#Helvetica-20" x="761.474609"/>
      <use xlink:href="#Helvetica-44" x="789.257812"/>
      <use xlink:href="#Helvetica-69" x="861.474609"/>
      <use xlink:href="#Helvetica-73" x="883.691406"/>
      <use xlink:href="#Helvetica-74" x="933.691406"/>
      <use xlink:href="#Helvetica-72" x="961.474609"/>
      <use xlink:href="#Helvetica-69" x="994.775391"/>
      <use xlink:href="#Helvetica-62" x="1016.992188"/>
      <use xlink:href="#Helvetica-75" x="1072.607422"/>
      <use xlink:href="#Helvetica-74" x="1128.222656"/>
      <use xlink:href="#Helvetica-69" x="1156.005859"/>
      <use xlink:href="#Helvetica-6f" x="1178.222656"/>
      <use xlink:href="#Helvetica-6e" x="1233.837891"/>
     </g>
    </g>
   </g>
   <g id="matplotlib.axis_6">
    <g id="ytick_10">
     <g id="line2d_24">
      <g>
       <use xlink:href="#m2d8b900539" x="468.245" y="173.131076" style="stroke: #000000; stroke-width: 0.8"/>
      </g>
     </g>
     <g id="text_31">
      <!-- 0.0 -->
      <g transform="translate(447.345 176.717795) scale(0.1 -0.1)">
       <use xlink:href="#Helvetica-30"/>
       <use xlink:href="#Helvetica-2e" x="55.615234"/>
       <use xlink:href="#Helvetica-30" x="83.398438"/>
      </g>
     </g>
    </g>
    <g id="ytick_11">
     <g id="line2d_25">
      <g>
       <use xlink:href="#m2d8b900539" x="468.245" y="144.99102" style="stroke: #000000; stroke-width: 0.8"/>
      </g>
     </g>
     <g id="text_32">
      <!-- 0.2 -->
      <g transform="translate(447.345 148.577739) scale(0.1 -0.1)">
       <use xlink:href="#Helvetica-30"/>
       <use xlink:href="#Helvetica-2e" x="55.615234"/>
       <use xlink:href="#Helvetica-32" x="83.398438"/>
      </g>
     </g>
    </g>
    <g id="ytick_12">
     <g id="line2d_26">
      <g>
       <use xlink:href="#m2d8b900539" x="468.245" y="116.850964" style="stroke: #000000; stroke-width: 0.8"/>
      </g>
     </g>
     <g id="text_33">
      <!-- 0.4 -->
      <g transform="translate(447.345 120.437683) scale(0.1 -0.1)">
       <use xlink:href="#Helvetica-30"/>
       <use xlink:href="#Helvetica-2e" x="55.615234"/>
       <use xlink:href="#Helvetica-34" x="83.398438"/>
      </g>
     </g>
    </g>
    <g id="ytick_13">
     <g id="line2d_27">
      <g>
       <use xlink:href="#m2d8b900539" x="468.245" y="88.710908" style="stroke: #000000; stroke-width: 0.8"/>
      </g>
     </g>
     <g id="text_34">
      <!-- 0.6 -->
      <g transform="translate(447.345 92.297626) scale(0.1 -0.1)">
       <use xlink:href="#Helvetica-30"/>
       <use xlink:href="#Helvetica-2e" x="55.615234"/>
       <use xlink:href="#Helvetica-36" x="83.398438"/>
      </g>
     </g>
    </g>
    <g id="ytick_14">
     <g id="line2d_28">
      <g>
       <use xlink:href="#m2d8b900539" x="468.245" y="60.570852" style="stroke: #000000; stroke-width: 0.8"/>
      </g>
     </g>
     <g id="text_35">
      <!-- 0.8 -->
      <g transform="translate(447.345 64.15757) scale(0.1 -0.1)">
       <use xlink:href="#Helvetica-30"/>
       <use xlink:href="#Helvetica-2e" x="55.615234"/>
       <use xlink:href="#Helvetica-38" x="83.398438"/>
      </g>
     </g>
    </g>
    <g id="ytick_15">
     <g id="line2d_29">
      <g>
       <use xlink:href="#m2d8b900539" x="468.245" y="32.430795" style="stroke: #000000; stroke-width: 0.8"/>
      </g>
     </g>
     <g id="text_36">
      <!-- 1.0 -->
      <g transform="translate(447.345 36.017514) scale(0.1 -0.1)">
       <use xlink:href="#Helvetica-31"/>
       <use xlink:href="#Helvetica-2e" x="55.615234"/>
       <use xlink:href="#Helvetica-30" x="83.398438"/>
      </g>
     </g>
    </g>
    <g id="text_37">
     <!-- Kolmogorov-Smirnov Statistic -->
     <g transform="translate(441.1325 165.437187) rotate(-90) scale(0.1 -0.1)">
      <defs>
       <path id="Helvetica-4b" d="M 488 4591
L 1094 4591
L 1094 2353
L 3331 4591
L 4191 4591
L 2281 2741
L 4244 0
L 3434 0
L 1828 2303
L 1094 1600
L 1094 0
L 488 0
L 488 4591
z
" transform="scale(0.015625)"/>
       <path id="Helvetica-6d" d="M 413 3347
L 969 3347
L 969 2872
Q 1169 3119 1331 3231
Q 1609 3422 1963 3422
Q 2363 3422 2606 3225
Q 2744 3113 2856 2894
Q 3044 3163 3297 3292
Q 3550 3422 3866 3422
Q 4541 3422 4784 2934
Q 4916 2672 4916 2228
L 4916 0
L 4331 0
L 4331 2325
Q 4331 2659 4164 2784
Q 3997 2909 3756 2909
Q 3425 2909 3186 2687
Q 2947 2466 2947 1947
L 2947 0
L 2375 0
L 2375 2184
Q 2375 2525 2294 2681
Q 2166 2916 1816 2916
Q 1497 2916 1236 2669
Q 975 2422 975 1775
L 975 0
L 413 0
L 413 3347
z
" transform="scale(0.015625)"/>
       <path id="Helvetica-67" d="M 1594 3406
Q 1988 3406 2281 3213
Q 2441 3103 2606 2894
L 2606 3316
L 3125 3316
L 3125 272
Q 3125 -366 2938 -734
Q 2588 -1416 1616 -1416
Q 1075 -1416 706 -1173
Q 338 -931 294 -416
L 866 -416
Q 906 -641 1028 -763
Q 1219 -950 1628 -950
Q 2275 -950 2475 -494
Q 2594 -225 2584 466
Q 2416 209 2178 84
Q 1941 -41 1550 -41
Q 1006 -41 598 345
Q 191 731 191 1622
Q 191 2463 602 2934
Q 1013 3406 1594 3406
z
M 2606 1688
Q 2606 2309 2350 2609
Q 2094 2909 1697 2909
Q 1103 2909 884 2353
Q 769 2056 769 1575
Q 769 1009 998 714
Q 1228 419 1616 419
Q 2222 419 2469 966
Q 2606 1275 2606 1688
z
M 1659 3428
L 1659 3428
z
" transform="scale(0.015625)"/>
       <path id="Helvetica-76" d="M 688 3347
L 1581 622
L 2516 3347
L 3131 3347
L 1869 0
L 1269 0
L 34 3347
L 688 3347
z
" transform="scale(0.015625)"/>
      </defs>
      <use xlink:href="#Helvetica-4b"/>
      <use xlink:href="#Helvetica-6f" x="66.699219"/>
      <use xlink:href="#Helvetica-6c" x="122.314453"/>
      <use xlink:href="#Helvetica-6d" x="144.53125"/>
      <use xlink:href="#Helvetica-6f" x="227.832031"/>
      <use xlink:href="#Helvetica-67" x="283.447266"/>
      <use xlink:href="#Helvetica-6f" x="339.0625"/>
      <use xlink:href="#Helvetica-72" x="394.677734"/>
      <use xlink:href="#Helvetica-6f" x="427.978516"/>
      <use xlink:href="#Helvetica-76" x="483.59375"/>
      <use xlink:href="#Helvetica-2d" x="533.59375"/>
      <use xlink:href="#Helvetica-53" x="566.894531"/>
      <use xlink:href="#Helvetica-6d" x="633.59375"/>
      <use xlink:href="#Helvetica-69" x="716.894531"/>
      <use xlink:href="#Helvetica-72" x="739.111328"/>
      <use xlink:href="#Helvetica-6e" x="772.412109"/>
      <use xlink:href="#Helvetica-6f" x="828.027344"/>
      <use xlink:href="#Helvetica-76" x="883.642578"/>
      <use xlink:href="#Helvetica-20" x="933.642578"/>
      <use xlink:href="#Helvetica-53" x="961.425781"/>
      <use xlink:href="#Helvetica-74" x="1028.125"/>
      <use xlink:href="#Helvetica-61" x="1055.908203"/>
      <use xlink:href="#Helvetica-74" x="1111.523438"/>
      <use xlink:href="#Helvetica-69" x="1139.306641"/>
      <use xlink:href="#Helvetica-73" x="1161.523438"/>
      <use xlink:href="#Helvetica-74" x="1211.523438"/>
      <use xlink:href="#Helvetica-69" x="1239.306641"/>
      <use xlink:href="#Helvetica-63" x="1261.523438"/>
     </g>
    </g>
   </g>
   <g id="line2d_30">
    <path d="M 475.954432 166.743283
L 478.157127 161.448263
L 480.359821 156.096962
L 482.562516 150.623721
L 484.765211 145.12234
L 486.967906 139.83201
L 489.170601 134.419739
L 491.373295 128.857388
L 493.57599 123.520157
L 495.778685 118.422117
L 497.98138 113.310007
L 500.184075 108.544957
L 502.386769 104.155109
L 504.589464 99.82623
L 506.792159 95.844412
L 508.994854 92.068954
L 511.197549 88.345087
L 513.400244 84.527419
L 515.602938 80.597192
L 517.805633 76.920224
L 520.008328 73.416787
L 522.211023 70.218201
L 524.413718 67.254115
L 526.616412 64.369759
L 528.819107 61.748044
L 531.021802 59.445249
L 533.224497 57.376955
L 535.427192 55.379011
L 537.629886 53.427967
L 539.832581 51.542584
L 542.035276 49.75569
L 544.237971 48.175157
L 546.440666 46.702494
L 548.64336 45.445571
L 550.846055 44.263689
L 553.04875 43.161537
L 555.251445 42.045315
L 557.45414 41.051033
L 559.656834 40.033301
L 561.859529 39.151579
L 564.062224 38.283927
L 566.264919 37.594496
L 568.467614 36.961344
L 570.670308 36.328193
L 572.873003 35.760702
L 575.075698 35.226041
L 577.278393 34.75704
L 579.481088 34.339629
L 581.683782 34.058229
L 583.886477 33.748688
L 586.089172 33.518878
L 588.291867 33.317207
L 590.494562 33.157747
L 592.697256 32.984217
L 594.899951 32.876346
L 597.102646 32.773166
L 599.305341 32.684056
L 601.508036 32.613706
L 603.710731 32.566806
L 605.913425 32.533976
L 608.11612 32.505836
L 610.318815 32.473006
L 612.52151 32.458936
L 614.724205 32.444865
L 616.926899 32.435485
L 619.129594 32.435485
L 621.332289 32.430795
L 623.534984 32.430795
L 625.737679 32.430795
L 627.940373 32.430795
L 630.143068 32.430795
" clip-path="url(#p05a2662237)" style="fill: none; stroke: #dd4040; stroke-width: 1.5; stroke-linecap: square"/>
   </g>
   <g id="patch_17">
    <path d="M 468.245 174.04
L 468.245 25.6875
" style="fill: none; stroke: #000000; stroke-width: 0.8; stroke-linejoin: miter; stroke-linecap: square"/>
   </g>
   <g id="patch_18">
    <path d="M 637.8525 174.04
L 637.8525 25.6875
" style="fill: none; stroke: #000000; stroke-width: 0.8; stroke-linejoin: miter; stroke-linecap: square"/>
   </g>
   <g id="patch_19">
    <path d="M 468.245 174.04
L 637.8525 174.04
" style="fill: none; stroke: #000000; stroke-width: 0.8; stroke-linejoin: miter; stroke-linecap: square"/>
   </g>
   <g id="patch_20">
    <path d="M 468.245 25.6875
L 637.8525 25.6875
" style="fill: none; stroke: #000000; stroke-width: 0.8; stroke-linejoin: miter; stroke-linecap: square"/>
   </g>
   <g id="text_38">
    <!-- Kolmogorov-Smirnov Statistic -->
    <g transform="translate(474.360625 19.6875) scale(0.12 -0.12)">
     <use xlink:href="#Helvetica-4b"/>
     <use xlink:href="#Helvetica-6f" x="66.699219"/>
     <use xlink:href="#Helvetica-6c" x="122.314453"/>
     <use xlink:href="#Helvetica-6d" x="144.53125"/>
     <use xlink:href="#Helvetica-6f" x="227.832031"/>
     <use xlink:href="#Helvetica-67" x="283.447266"/>
     <use xlink:href="#Helvetica-6f" x="339.0625"/>
     <use xlink:href="#Helvetica-72" x="394.677734"/>
     <use xlink:href="#Helvetica-6f" x="427.978516"/>
     <use xlink:href="#Helvetica-76" x="483.59375"/>
     <use xlink:href="#Helvetica-2d" x="533.59375"/>
     <use xlink:href="#Helvetica-53" x="566.894531"/>
     <use xlink:href="#Helvetica-6d" x="633.59375"/>
     <use xlink:href="#Helvetica-69" x="716.894531"/>
     <use xlink:href="#Helvetica-72" x="739.111328"/>
     <use xlink:href="#Helvetica-6e" x="772.412109"/>
     <use xlink:href="#Helvetica-6f" x="828.027344"/>
     <use xlink:href="#Helvetica-76" x="883.642578"/>
     <use xlink:href="#Helvetica-20" x="933.642578"/>
     <use xlink:href="#Helvetica-53" x="961.425781"/>
     <use xlink:href="#Helvetica-74" x="1028.125"/>
     <use xlink:href="#Helvetica-61" x="1055.908203"/>
     <use xlink:href="#Helvetica-74" x="1111.523438"/>
     <use xlink:href="#Helvetica-69" x="1139.306641"/>
     <use xlink:href="#Helvetica-73" x="1161.523438"/>
     <use xlink:href="#Helvetica-74" x="1211.523438"/>
     <use xlink:href="#Helvetica-69" x="1239.306641"/>
     <use xlink:href="#Helvetica-63" x="1261.523438"/>
    </g>
   </g>
   <g id="legend_3">
    <g id="patch_21">
     <path d="M 475.245 47.945312
L 540.037188 47.945312
Q 542.037188 47.945312 542.037188 45.945312
L 542.037188 32.6875
Q 542.037188 30.6875 540.037188 30.6875
L 475.245 30.6875
Q 473.245 30.6875 473.245 32.6875
L 473.245 45.945312
Q 473.245 47.945312 475.245 47.945312
z
" style="fill: #ffffff; opacity: 0.8; stroke: #cccccc; stroke-linejoin: miter"/>
    </g>
    <g id="patch_22">
     <path d="M 477.245 41.860938
L 497.245 41.860938
L 497.245 34.860938
L 477.245 34.860938
z
" style="fill: #f8dcdc; stroke: #f8dcdc; stroke-linejoin: miter"/>
    </g>
    <g id="text_39">
     <!-- 95% CI -->
     <g transform="translate(505.245 41.860938) scale(0.1 -0.1)">
      <use xlink:href="#Helvetica-39"/>
      <use xlink:href="#Helvetica-35" x="55.615234"/>
      <use xlink:href="#Helvetica-25" x="111.230469"/>
      <use xlink:href="#Helvetica-20" x="200.146484"/>
      <use xlink:href="#Helvetica-43" x="227.929688"/>
      <use xlink:href="#Helvetica-49" x="300.146484"/>
     </g>
    </g>
   </g>
  </g>
  <g id="axes_4">
   <g id="patch_23">
    <path d="M 683.5925 174.04
L 853.2 174.04
L 853.2 25.6875
L 683.5925 25.6875
z
" style="fill: #ffffff"/>
   </g>
   <g id="PolyCollection_4">
    <defs>
     <path id="m70a679f049" d="M 691.301932 -48.841713
L 691.301932 -48.703295
L 693.504627 -49.012297
L 695.707321 -49.727992
L 697.910016 -50.716842
L 700.112711 -52.074217
L 702.315406 -53.756576
L 704.518101 -55.72877
L 706.720795 -57.978307
L 708.92349 -60.507632
L 711.126185 -63.235329
L 713.32888 -66.152263
L 715.531575 -69.29586
L 717.734269 -72.661841
L 719.936964 -76.277272
L 722.139659 -80.103
L 724.342354 -83.960527
L 726.545049 -87.888786
L 728.747744 -91.802784
L 730.950438 -95.950716
L 733.153133 -100.030962
L 735.355828 -104.165453
L 737.558523 -108.194047
L 739.761218 -112.118171
L 741.963912 -116.498937
L 744.166607 -120.471822
L 746.369302 -124.233069
L 748.571997 -128.145288
L 750.774692 -132.13546
L 752.977386 -135.704041
L 755.180081 -139.101477
L 757.382776 -142.512289
L 759.585471 -145.70312
L 761.788166 -148.589264
L 763.99086 -151.476787
L 766.193555 -154.343092
L 768.39625 -156.731325
L 770.598945 -159.087628
L 772.80164 -161.207368
L 775.004334 -163.643624
L 777.207029 -165.972412
L 779.409724 -167.883759
L 781.612419 -169.430162
L 783.815114 -170.784069
L 786.017808 -172.364249
L 788.220503 -173.624756
L 790.423198 -174.691773
L 792.625893 -175.846528
L 794.828588 -176.940659
L 797.031282 -177.79337
L 799.233977 -178.566101
L 801.436672 -179.121449
L 803.639367 -179.747484
L 805.842062 -180.206324
L 808.044756 -180.841243
L 810.247451 -181.241786
L 812.450146 -181.527128
L 814.652841 -181.903744
L 816.855536 -182.231789
L 819.058231 -182.522146
L 821.260925 -182.751545
L 823.46362 -182.828863
L 825.666315 -182.945284
L 827.86901 -183.025152
L 830.071705 -183.175166
L 832.274399 -183.278007
L 834.477094 -183.363763
L 836.679789 -183.381343
L 838.882484 -183.407449
L 841.085179 -183.441162
L 843.287873 -183.48803
L 845.490568 -183.537647
L 845.490568 -183.569205
L 845.490568 -183.569205
L 843.287873 -183.562827
L 841.085179 -183.556449
L 838.882484 -183.545361
L 836.679789 -183.534273
L 834.477094 -183.52659
L 832.274399 -183.460934
L 830.071705 -183.407062
L 827.86901 -183.314681
L 825.666315 -183.25075
L 823.46362 -183.138463
L 821.260925 -183.076603
L 819.058231 -182.870457
L 816.855536 -182.683224
L 814.652841 -182.377396
L 812.450146 -182.088712
L 810.247451 -181.762654
L 808.044756 -181.399907
L 805.842062 -180.830604
L 803.639367 -180.441549
L 801.436672 -179.876761
L 799.233977 -179.325655
L 797.031282 -178.690081
L 794.828588 -177.913123
L 792.625893 -176.972658
L 790.423198 -175.805883
L 788.220503 -174.765821
L 786.017808 -173.634897
L 783.815114 -172.01895
L 781.612419 -170.658402
L 779.409724 -169.154524
L 777.207029 -167.269314
L 775.004334 -164.941046
L 772.80164 -162.678012
L 770.598945 -160.506948
L 768.39625 -158.225572
L 766.193555 -156.038999
L 763.99086 -153.137077
L 761.788166 -150.130416
L 759.585471 -147.380399
L 757.382776 -144.169828
L 755.180081 -140.912164
L 752.977386 -137.379016
L 750.774692 -133.734648
L 748.571997 -129.680973
L 746.369302 -125.765524
L 744.166607 -121.997606
L 741.963912 -117.944725
L 739.761218 -113.512468
L 737.558523 -109.55781
L 735.355828 -105.571646
L 733.153133 -101.432013
L 730.950438 -97.162416
L 728.747744 -93.06389
L 726.545049 -89.110175
L 724.342354 -85.161091
L 722.139659 -81.236585
L 719.936964 -77.424487
L 717.734269 -73.613049
L 715.531575 -70.159658
L 713.32888 -66.901583
L 711.126185 -63.88421
L 708.92349 -61.110259
L 706.720795 -58.573294
L 704.518101 -56.238175
L 702.315406 -54.21209
L 700.112711 -52.491355
L 697.910016 -51.078514
L 695.707321 -50.009272
L 693.504627 -49.187249
L 691.301932 -48.841713
z
" style="stroke: #f8dcdc"/>
    </defs>
    <g clip-path="url(#p6719191f4c)">
     <use xlink:href="#m70a679f049" x="0" y="216" style="fill: #f8dcdc; stroke: #f8dcdc"/>
    </g>
   </g>
   <g id="matplotlib.axis_7">
    <g id="xtick_13">
     <g id="line2d_31">
      <g>
       <use xlink:href="#m8ede759a81" x="691.301932" y="174.04" style="stroke: #000000; stroke-width: 0.8"/>
      </g>
     </g>
     <g id="text_40">
      <!-- 0 -->
      <g transform="translate(688.521463 188.213437) scale(0.1 -0.1)">
       <use xlink:href="#Helvetica-30"/>
      </g>
     </g>
    </g>
    <g id="xtick_14">
     <g id="line2d_32">
      <g>
       <use xlink:href="#m8ede759a81" x="735.355828" y="174.04" style="stroke: #000000; stroke-width: 0.8"/>
      </g>
     </g>
     <g id="text_41">
      <!-- 2 -->
      <g transform="translate(732.575359 188.213437) scale(0.1 -0.1)">
       <use xlink:href="#Helvetica-32"/>
      </g>
     </g>
    </g>
    <g id="xtick_15">
     <g id="line2d_33">
      <g>
       <use xlink:href="#m8ede759a81" x="779.409724" y="174.04" style="stroke: #000000; stroke-width: 0.8"/>
      </g>
     </g>
     <g id="text_42">
      <!-- 4 -->
      <g transform="translate(776.629255 188.213437) scale(0.1 -0.1)">
       <use xlink:href="#Helvetica-34"/>
      </g>
     </g>
    </g>
    <g id="xtick_16">
     <g id="line2d_34">
      <g>
       <use xlink:href="#m8ede759a81" x="823.46362" y="174.04" style="stroke: #000000; stroke-width: 0.8"/>
      </g>
     </g>
     <g id="text_43">
      <!-- 6 -->
      <g transform="translate(820.683151 188.213437) scale(0.1 -0.1)">
       <use xlink:href="#Helvetica-36"/>
      </g>
     </g>
    </g>
    <g id="text_44">
     <!-- Mean of Analysis Distribution -->
     <g transform="translate(703.926719 201.572812) scale(0.1 -0.1)">
      <use xlink:href="#Helvetica-4d"/>
      <use xlink:href="#Helvetica-65" x="83.300781"/>
      <use xlink:href="#Helvetica-61" x="138.916016"/>
      <use xlink:href="#Helvetica-6e" x="194.53125"/>
      <use xlink:href="#Helvetica-20" x="250.146484"/>
      <use xlink:href="#Helvetica-6f" x="277.929688"/>
      <use xlink:href="#Helvetica-66" x="333.544922"/>
      <use xlink:href="#Helvetica-20" x="361.328125"/>
      <use xlink:href="#Helvetica-41" x="389.111328"/>
      <use xlink:href="#Helvetica-6e" x="455.810547"/>
      <use xlink:href="#Helvetica-61" x="511.425781"/>
      <use xlink:href="#Helvetica-6c" x="567.041016"/>
      <use xlink:href="#Helvetica-79" x="589.257812"/>
      <use xlink:href="#Helvetica-73" x="639.257812"/>
      <use xlink:href="#Helvetica-69" x="689.257812"/>
      <use xlink:href="#Helvetica-73" x="711.474609"/>
      <use xlink:href="#Helvetica-20" x="761.474609"/>
      <use xlink:href="#Helvetica-44" x="789.257812"/>
      <use xlink:href="#Helvetica-69" x="861.474609"/>
      <use xlink:href="#Helvetica-73" x="883.691406"/>
      <use xlink:href="#Helvetica-74" x="933.691406"/>
      <use xlink:href="#Helvetica-72" x="961.474609"/>
      <use xlink:href="#Helvetica-69" x="994.775391"/>
      <use xlink:href="#Helvetica-62" x="1016.992188"/>
      <use xlink:href="#Helvetica-75" x="1072.607422"/>
      <use xlink:href="#Helvetica-74" x="1128.222656"/>
      <use xlink:href="#Helvetica-69" x="1156.005859"/>
      <use xlink:href="#Helvetica-6f" x="1178.222656"/>
      <use xlink:href="#Helvetica-6e" x="1233.837891"/>
     </g>
    </g>
   </g>
   <g id="matplotlib.axis_8">
    <g id="ytick_16">
     <g id="line2d_35">
      <g>
       <use xlink:href="#m2d8b900539" x="683.5925" y="167.721455" style="stroke: #000000; stroke-width: 0.8"/>
      </g>
     </g>
     <g id="text_45">
      <!-- 0.0 -->
      <g transform="translate(662.6925 171.308174) scale(0.1 -0.1)">
       <use xlink:href="#Helvetica-30"/>
       <use xlink:href="#Helvetica-2e" x="55.615234"/>
       <use xlink:href="#Helvetica-30" x="83.398438"/>
      </g>
     </g>
    </g>
    <g id="ytick_17">
     <g id="line2d_36">
      <g>
       <use xlink:href="#m2d8b900539" x="683.5925" y="140.663323" style="stroke: #000000; stroke-width: 0.8"/>
      </g>
     </g>
     <g id="text_46">
      <!-- 0.2 -->
      <g transform="translate(662.6925 144.250042) scale(0.1 -0.1)">
       <use xlink:href="#Helvetica-30"/>
       <use xlink:href="#Helvetica-2e" x="55.615234"/>
       <use xlink:href="#Helvetica-32" x="83.398438"/>
      </g>
     </g>
    </g>
    <g id="ytick_18">
     <g id="line2d_37">
      <g>
       <use xlink:href="#m2d8b900539" x="683.5925" y="113.605191" style="stroke: #000000; stroke-width: 0.8"/>
      </g>
     </g>
     <g id="text_47">
      <!-- 0.4 -->
      <g transform="translate(662.6925 117.19191) scale(0.1 -0.1)">
       <use xlink:href="#Helvetica-30"/>
       <use xlink:href="#Helvetica-2e" x="55.615234"/>
       <use xlink:href="#Helvetica-34" x="83.398438"/>
      </g>
     </g>
    </g>
    <g id="ytick_19">
     <g id="line2d_38">
      <g>
       <use xlink:href="#m2d8b900539" x="683.5925" y="86.547059" style="stroke: #000000; stroke-width: 0.8"/>
      </g>
     </g>
     <g id="text_48">
      <!-- 0.6 -->
      <g transform="translate(662.6925 90.133778) scale(0.1 -0.1)">
       <use xlink:href="#Helvetica-30"/>
       <use xlink:href="#Helvetica-2e" x="55.615234"/>
       <use xlink:href="#Helvetica-36" x="83.398438"/>
      </g>
     </g>
    </g>
    <g id="ytick_20">
     <g id="line2d_39">
      <g>
       <use xlink:href="#m2d8b900539" x="683.5925" y="59.488927" style="stroke: #000000; stroke-width: 0.8"/>
      </g>
     </g>
     <g id="text_49">
      <!-- 0.8 -->
      <g transform="translate(662.6925 63.075646) scale(0.1 -0.1)">
       <use xlink:href="#Helvetica-30"/>
       <use xlink:href="#Helvetica-2e" x="55.615234"/>
       <use xlink:href="#Helvetica-38" x="83.398438"/>
      </g>
     </g>
    </g>
    <g id="ytick_21">
     <g id="line2d_40">
      <g>
       <use xlink:href="#m2d8b900539" x="683.5925" y="32.430795" style="stroke: #000000; stroke-width: 0.8"/>
      </g>
     </g>
     <g id="text_50">
      <!-- 1.0 -->
      <g transform="translate(662.6925 36.017514) scale(0.1 -0.1)">
       <use xlink:href="#Helvetica-31"/>
       <use xlink:href="#Helvetica-2e" x="55.615234"/>
       <use xlink:href="#Helvetica-30" x="83.398438"/>
      </g>
     </g>
    </g>
    <g id="text_51">
     <!-- Hellinger Distance -->
     <g transform="translate(656.48 140.435625) rotate(-90) scale(0.1 -0.1)">
      <defs>
       <path id="Helvetica-48" d="M 503 4591
L 1131 4591
L 1131 2694
L 3519 2694
L 3519 4591
L 4147 4591
L 4147 0
L 3519 0
L 3519 2147
L 1131 2147
L 1131 0
L 503 0
L 503 4591
z
" transform="scale(0.015625)"/>
      </defs>
      <use xlink:href="#Helvetica-48"/>
      <use xlink:href="#Helvetica-65" x="72.216797"/>
      <use xlink:href="#Helvetica-6c" x="127.832031"/>
      <use xlink:href="#Helvetica-6c" x="150.048828"/>
      <use xlink:href="#Helvetica-69" x="172.265625"/>
      <use xlink:href="#Helvetica-6e" x="194.482422"/>
      <use xlink:href="#Helvetica-67" x="250.097656"/>
      <use xlink:href="#Helvetica-65" x="305.712891"/>
      <use xlink:href="#Helvetica-72" x="361.328125"/>
      <use xlink:href="#Helvetica-20" x="394.628906"/>
      <use xlink:href="#Helvetica-44" x="422.412109"/>
      <use xlink:href="#Helvetica-69" x="494.628906"/>
      <use xlink:href="#Helvetica-73" x="516.845703"/>
      <use xlink:href="#Helvetica-74" x="566.845703"/>
      <use xlink:href="#Helvetica-61" x="594.628906"/>
      <use xlink:href="#Helvetica-6e" x="650.244141"/>
      <use xlink:href="#Helvetica-63" x="705.859375"/>
      <use xlink:href="#Helvetica-65" x="755.859375"/>
     </g>
    </g>
   </g>
   <g id="line2d_41">
    <path d="M 691.301932 167.234003
L 693.504627 166.903786
L 695.707321 166.139785
L 697.910016 165.112211
L 700.112711 163.723416
L 702.315406 162.022571
L 704.518101 160.031857
L 706.720795 157.735793
L 708.92349 155.206775
L 711.126185 152.461035
L 713.32888 149.485068
L 715.531575 146.280023
L 717.734269 142.865059
L 719.936964 139.154955
L 722.139659 135.335445
L 724.342354 131.463257
L 726.545049 127.52752
L 728.747744 123.580314
L 730.950438 119.46995
L 733.153133 115.275753
L 735.355828 111.118948
L 737.558523 107.121044
L 739.761218 103.162994
L 741.963912 98.776095
L 744.166607 94.758987
L 746.369302 91.009501
L 748.571997 87.098069
L 750.774692 83.070204
L 752.977386 79.441289
L 755.180081 76.000543
L 757.382776 72.651859
L 759.585471 69.463599
L 761.788166 66.623884
L 763.99086 63.709784
L 766.193555 60.824434
L 768.39625 58.54154
L 770.598945 56.218861
L 772.80164 54.072724
L 775.004334 51.723515
L 777.207029 49.38447
L 779.409724 47.474216
L 781.612419 45.918564
L 783.815114 44.538987
L 786.017808 42.970234
L 788.220503 41.773059
L 790.423198 40.736442
L 792.625893 39.601292
L 794.828588 38.567989
L 797.031282 37.751539
L 799.233977 37.049089
L 801.436672 36.484069
L 803.639367 35.906566
L 805.842062 35.489047
L 808.044756 34.892028
L 810.247451 34.495048
L 812.450146 34.196529
L 814.652841 33.84643
L 816.855536 33.530579
L 819.058231 33.288481
L 821.260925 33.070208
L 823.46362 32.998077
L 825.666315 32.880844
L 827.86901 32.806577
L 830.071705 32.688349
L 832.274399 32.612128
L 834.477094 32.532924
L 836.679789 32.523579
L 838.882484 32.501417
L 841.085179 32.47661
L 843.287873 32.450702
L 845.490568 32.435305
" clip-path="url(#p6719191f4c)" style="fill: none; stroke: #dd4040; stroke-width: 1.5; stroke-linecap: square"/>
   </g>
   <g id="patch_24">
    <path d="M 683.5925 174.04
L 683.5925 25.6875
" style="fill: none; stroke: #000000; stroke-width: 0.8; stroke-linejoin: miter; stroke-linecap: square"/>
   </g>
   <g id="patch_25">
    <path d="M 853.2 174.04
L 853.2 25.6875
" style="fill: none; stroke: #000000; stroke-width: 0.8; stroke-linejoin: miter; stroke-linecap: square"/>
   </g>
   <g id="patch_26">
    <path d="M 683.5925 174.04
L 853.2 174.04
" style="fill: none; stroke: #000000; stroke-width: 0.8; stroke-linejoin: miter; stroke-linecap: square"/>
   </g>
   <g id="patch_27">
    <path d="M 683.5925 25.6875
L 853.2 25.6875
" style="fill: none; stroke: #000000; stroke-width: 0.8; stroke-linejoin: miter; stroke-linecap: square"/>
   </g>
   <g id="text_52">
    <!-- Hellinger Distance -->
    <g transform="translate(719.71 19.6875) scale(0.12 -0.12)">
     <use xlink:href="#Helvetica-48"/>
     <use xlink:href="#Helvetica-65" x="72.216797"/>
     <use xlink:href="#Helvetica-6c" x="127.832031"/>
     <use xlink:href="#Helvetica-6c" x="150.048828"/>
     <use xlink:href="#Helvetica-69" x="172.265625"/>
     <use xlink:href="#Helvetica-6e" x="194.482422"/>
     <use xlink:href="#Helvetica-67" x="250.097656"/>
     <use xlink:href="#Helvetica-65" x="305.712891"/>
     <use xlink:href="#Helvetica-72" x="361.328125"/>
     <use xlink:href="#Helvetica-20" x="394.628906"/>
     <use xlink:href="#Helvetica-44" x="422.412109"/>
     <use xlink:href="#Helvetica-69" x="494.628906"/>
     <use xlink:href="#Helvetica-73" x="516.845703"/>
     <use xlink:href="#Helvetica-74" x="566.845703"/>
     <use xlink:href="#Helvetica-61" x="594.628906"/>
     <use xlink:href="#Helvetica-6e" x="650.244141"/>
     <use xlink:href="#Helvetica-63" x="705.859375"/>
     <use xlink:href="#Helvetica-65" x="755.859375"/>
    </g>
   </g>
   <g id="legend_4">
    <g id="patch_28">
     <path d="M 690.5925 47.945312
L 755.384688 47.945312
Q 757.384688 47.945312 757.384688 45.945312
L 757.384688 32.6875
Q 757.384688 30.6875 755.384688 30.6875
L 690.5925 30.6875
Q 688.5925 30.6875 688.5925 32.6875
L 688.5925 45.945312
Q 688.5925 47.945312 690.5925 47.945312
z
" style="fill: #ffffff; opacity: 0.8; stroke: #cccccc; stroke-linejoin: miter"/>
    </g>
    <g id="patch_29">
     <path d="M 692.5925 41.860938
L 712.5925 41.860938
L 712.5925 34.860938
L 692.5925 34.860938
z
" style="fill: #f8dcdc; stroke: #f8dcdc; stroke-linejoin: miter"/>
    </g>
    <g id="text_53">
     <!-- 95% CI -->
     <g transform="translate(720.5925 41.860938) scale(0.1 -0.1)">
      <use xlink:href="#Helvetica-39"/>
      <use xlink:href="#Helvetica-35" x="55.615234"/>
      <use xlink:href="#Helvetica-25" x="111.230469"/>
      <use xlink:href="#Helvetica-20" x="200.146484"/>
      <use xlink:href="#Helvetica-43" x="227.929688"/>
      <use xlink:href="#Helvetica-49" x="300.146484"/>
     </g>
    </g>
   </g>
  </g>
 </g>
 <defs>
  <clipPath id="pa7cd9d3fad">
   <rect x="37.55" y="25.6875" width="169.6075" height="148.3525"/>
  </clipPath>
  <clipPath id="pedfb0cb6d1">
   <rect x="252.8975" y="25.6875" width="169.6075" height="148.3525"/>
  </clipPath>
  <clipPath id="p05a2662237">
   <rect x="468.245" y="25.6875" width="169.6075" height="148.3525"/>
  </clipPath>
  <clipPath id="p6719191f4c">
   <rect x="683.5925" y="25.6875" width="169.6075" height="148.3525"/>
  </clipPath>
 </defs>
</svg>
