<?xml version="1.0" encoding="utf-8" standalone="no"?>
<!DOCTYPE svg PUBLIC "-//W3C//DTD SVG 1.1//EN"
  "http://www.w3.org/Graphics/SVG/1.1/DTD/svg11.dtd">
<svg xmlns:xlink="http://www.w3.org/1999/xlink" width="864pt" height="216pt" viewBox="0 0 864 216" xmlns="http://www.w3.org/2000/svg" version="1.1">
 <metadata>
  <rdf:RDF xmlns:dc="http://purl.org/dc/elements/1.1/" xmlns:cc="http://creativecommons.org/ns#" xmlns:rdf="http://www.w3.org/1999/02/22-rdf-syntax-ns#">
   <cc:Work>
    <dc:type rdf:resource="http://purl.org/dc/dcmitype/StillImage"/>
    <dc:date>2023-03-27T17:06:51.641513</dc:date>
    <dc:format>image/svg+xml</dc:format>
    <dc:creator>
     <cc:Agent>
      <dc:title>Matplotlib v3.6.2, https://matplotlib.org/</dc:title>
     </cc:Agent>
    </dc:creator>
   </cc:Work>
  </rdf:RDF>
 </metadata>
 <defs>
  <style type="text/css">*{stroke-linejoin: round; stroke-linecap: butt}</style>
 </defs>
 <g id="figure_1">
  <g id="patch_1">
   <path d="M 0 216
L 864 216
L 864 0
L 0 0
z
" style="fill: #ffffff"/>
  </g>
  <g id="axes_1">
   <g id="patch_2">
    <path d="M 37.55 174.04
L 207.1575 174.04
L 207.1575 25.6875
L 37.55 25.6875
z
" style="fill: #ffffff"/>
   </g>
   <g id="PolyCollection_1">
    <defs>
     <path id="mee96ea995b" d="M 45.259432 -51.241398
L 45.259432 -48.703295
L 47.462127 -49.825768
L 49.664821 -51.641256
L 51.867516 -53.519044
L 54.070211 -55.40138
L 56.272906 -57.285204
L 58.475601 -59.170124
L 60.678295 -61.055782
L 62.88099 -62.941918
L 65.083685 -64.828208
L 67.28638 -66.714593
L 69.489075 -68.600981
L 71.691769 -70.487437
L 73.894464 -72.37395
L 76.097159 -74.260475
L 78.299854 -76.147053
L 80.502549 -78.033614
L 82.705244 -79.920154
L 84.907938 -81.806695
L 87.110633 -83.693235
L 89.313328 -85.579776
L 91.516023 -87.466316
L 93.718718 -89.352856
L 95.921412 -91.239397
L 98.124107 -93.125937
L 100.326802 -95.012478
L 102.529497 -96.899018
L 104.732192 -98.785559
L 106.934886 -100.672099
L 109.137581 -102.55864
L 111.340276 -104.44518
L 113.542971 -106.331721
L 115.745666 -108.218261
L 117.94836 -110.104801
L 120.151055 -111.991342
L 122.35375 -113.877882
L 124.556445 -115.764423
L 126.75914 -117.650963
L 128.961834 -119.537504
L 131.164529 -121.424044
L 133.367224 -123.310585
L 135.569919 -125.197125
L 137.772614 -127.083666
L 139.975308 -128.970206
L 142.178003 -130.856746
L 144.380698 -132.743287
L 146.583393 -134.629827
L 148.786088 -136.516368
L 150.988782 -138.402908
L 153.191477 -140.289449
L 155.394172 -142.175989
L 157.596867 -144.06253
L 159.799562 -145.94907
L 162.002256 -147.83561
L 164.204951 -149.722151
L 166.407646 -151.608691
L 168.610341 -153.495232
L 170.813036 -155.381772
L 173.015731 -157.268313
L 175.218425 -159.154853
L 177.42112 -161.041394
L 179.623815 -162.927934
L 181.82651 -164.814475
L 184.029205 -166.701015
L 186.231899 -168.587555
L 188.434594 -170.474096
L 190.637289 -172.360636
L 192.839984 -174.247177
L 195.042679 -176.133717
L 197.245373 -178.020258
L 199.448068 -179.906798
L 199.448068 -183.569205
L 199.448068 -183.569205
L 197.245373 -181.682664
L 195.042679 -179.796124
L 192.839984 -177.909583
L 190.637289 -176.023043
L 188.434594 -174.136502
L 186.231899 -172.249962
L 184.029205 -170.363421
L 181.82651 -168.476881
L 179.623815 -166.59034
L 177.42112 -164.7038
L 175.218425 -162.81726
L 173.015731 -160.930719
L 170.813036 -159.044179
L 168.610341 -157.157638
L 166.407646 -155.271098
L 164.204951 -153.384557
L 162.002256 -151.498017
L 159.799562 -149.611476
L 157.596867 -147.724936
L 155.394172 -145.838396
L 153.191477 -143.951855
L 150.988782 -142.065315
L 148.786088 -140.178774
L 146.583393 -138.292234
L 144.380698 -136.405693
L 142.178003 -134.519153
L 139.975308 -132.632612
L 137.772614 -130.746072
L 135.569919 -128.859531
L 133.367224 -126.972991
L 131.164529 -125.086451
L 128.961834 -123.19991
L 126.75914 -121.31337
L 124.556445 -119.426829
L 122.35375 -117.540289
L 120.151055 -115.653748
L 117.94836 -113.767208
L 115.745666 -111.880667
L 113.542971 -109.994127
L 111.340276 -108.107587
L 109.137581 -106.221046
L 106.934886 -104.334506
L 104.732192 -102.447965
L 102.529497 -100.561425
L 100.326802 -98.674884
L 98.124107 -96.788344
L 95.921412 -94.901803
L 93.718718 -93.015263
L 91.516023 -91.128722
L 89.313328 -89.242182
L 87.110633 -87.355642
L 84.907938 -85.469101
L 82.705244 -83.582561
L 80.502549 -81.69602
L 78.299854 -79.809508
L 76.097159 -77.923021
L 73.894464 -76.03649
L 71.691769 -74.149979
L 69.489075 -72.263486
L 67.28638 -70.376975
L 65.083685 -68.490514
L 62.88099 -66.604121
L 60.678295 -64.717765
L 58.475601 -62.831324
L 56.272906 -60.944721
L 54.070211 -59.057999
L 51.867516 -57.171428
L 49.664821 -55.284251
L 47.462127 -53.372608
L 45.259432 -51.241398
z
" style="stroke: #f8dcdc"/>
    </defs>
    <g clip-path="url(#p03e699f7ed)">
     <use xlink:href="#mee96ea995b" x="0" y="216" style="fill: #f8dcdc; stroke: #f8dcdc"/>
    </g>
   </g>
   <g id="matplotlib.axis_1">
    <g id="xtick_1">
     <g id="line2d_1">
      <defs>
       <path id="m4a35247e7c" d="M 0 0
L 0 3.5
" style="stroke: #000000; stroke-width: 0.8"/>
      </defs>
      <g>
       <use xlink:href="#m4a35247e7c" x="45.259432" y="174.04" style="stroke: #000000; stroke-width: 0.8"/>
      </g>
     </g>
     <g id="text_1">
      <!-- 0 -->
      <g transform="translate(42.478963 188.213437) scale(0.1 -0.1)">
       <defs>
        <path id="Helvetica-30" d="M 1731 4475
Q 2600 4475 2988 3759
Q 3288 3206 3288 2244
Q 3288 1331 3016 734
Q 2622 -122 1728 -122
Q 922 -122 528 578
Q 200 1163 200 2147
Q 200 2909 397 3456
Q 766 4475 1731 4475
z
M 1725 391
Q 2163 391 2422 778
Q 2681 1166 2681 2222
Q 2681 2984 2493 3476
Q 2306 3969 1766 3969
Q 1269 3969 1039 3501
Q 809 3034 809 2125
Q 809 1441 956 1025
Q 1181 391 1725 391
z
" transform="scale(0.015625)"/>
       </defs>
       <use xlink:href="#Helvetica-30"/>
      </g>
     </g>
    </g>
    <g id="xtick_2">
     <g id="line2d_2">
      <g>
       <use xlink:href="#m4a35247e7c" x="89.313328" y="174.04" style="stroke: #000000; stroke-width: 0.8"/>
      </g>
     </g>
     <g id="text_2">
      <!-- 2 -->
      <g transform="translate(86.532859 188.213437) scale(0.1 -0.1)">
       <defs>
        <path id="Helvetica-32" d="M 200 0
Q 231 578 439 1006
Q 647 1434 1250 1784
L 1850 2131
Q 2253 2366 2416 2531
Q 2672 2791 2672 3125
Q 2672 3516 2437 3745
Q 2203 3975 1813 3975
Q 1234 3975 1013 3538
Q 894 3303 881 2888
L 309 2888
Q 319 3472 525 3841
Q 891 4491 1816 4491
Q 2584 4491 2939 4075
Q 3294 3659 3294 3150
Q 3294 2613 2916 2231
Q 2697 2009 2131 1694
L 1703 1456
Q 1397 1288 1222 1134
Q 909 863 828 531
L 3272 531
L 3272 0
L 200 0
z
" transform="scale(0.015625)"/>
       </defs>
       <use xlink:href="#Helvetica-32"/>
      </g>
     </g>
    </g>
    <g id="xtick_3">
     <g id="line2d_3">
      <g>
       <use xlink:href="#m4a35247e7c" x="133.367224" y="174.04" style="stroke: #000000; stroke-width: 0.8"/>
      </g>
     </g>
     <g id="text_3">
      <!-- 4 -->
      <g transform="translate(130.586755 188.213437) scale(0.1 -0.1)">
       <defs>
        <path id="Helvetica-34" d="M 2116 1584
L 2116 3613
L 681 1584
L 2116 1584
z
M 2125 0
L 2125 1094
L 163 1094
L 163 1644
L 2213 4488
L 2688 4488
L 2688 1584
L 3347 1584
L 3347 1094
L 2688 1094
L 2688 0
L 2125 0
z
" transform="scale(0.015625)"/>
       </defs>
       <use xlink:href="#Helvetica-34"/>
      </g>
     </g>
    </g>
    <g id="xtick_4">
     <g id="line2d_4">
      <g>
       <use xlink:href="#m4a35247e7c" x="177.42112" y="174.04" style="stroke: #000000; stroke-width: 0.8"/>
      </g>
     </g>
     <g id="text_4">
      <!-- 6 -->
      <g transform="translate(174.640651 188.213437) scale(0.1 -0.1)">
       <defs>
        <path id="Helvetica-36" d="M 1872 4494
Q 2622 4494 2917 4105
Q 3213 3716 3213 3303
L 2656 3303
Q 2606 3569 2497 3719
Q 2294 4000 1881 4000
Q 1409 4000 1131 3564
Q 853 3128 822 2316
Q 1016 2600 1309 2741
Q 1578 2866 1909 2866
Q 2472 2866 2890 2506
Q 3309 2147 3309 1434
Q 3309 825 2912 354
Q 2516 -116 1781 -116
Q 1153 -116 697 361
Q 241 838 241 1966
Q 241 2800 444 3381
Q 834 4494 1872 4494
z
M 1831 384
Q 2275 384 2495 682
Q 2716 981 2716 1388
Q 2716 1731 2519 2042
Q 2322 2353 1803 2353
Q 1441 2353 1167 2112
Q 894 1872 894 1388
Q 894 963 1142 673
Q 1391 384 1831 384
z
" transform="scale(0.015625)"/>
       </defs>
       <use xlink:href="#Helvetica-36"/>
      </g>
     </g>
    </g>
    <g id="text_5">
     <!-- Mean of Analysis Distribution -->
     <g transform="translate(57.884219 201.572812) scale(0.1 -0.1)">
      <defs>
       <path id="Helvetica-4d" d="M 472 4591
L 1363 4591
L 2681 709
L 3991 4591
L 4872 4591
L 4872 0
L 4281 0
L 4281 2709
Q 4281 2850 4287 3175
Q 4294 3500 4294 3872
L 2984 0
L 2369 0
L 1050 3872
L 1050 3731
Q 1050 3563 1058 3217
Q 1066 2872 1066 2709
L 1066 0
L 472 0
L 472 4591
z
" transform="scale(0.015625)"/>
       <path id="Helvetica-65" d="M 1806 3422
Q 2163 3422 2497 3255
Q 2831 3088 3006 2822
Q 3175 2569 3231 2231
Q 3281 2000 3281 1494
L 828 1494
Q 844 984 1069 676
Q 1294 369 1766 369
Q 2206 369 2469 659
Q 2619 828 2681 1050
L 3234 1050
Q 3213 866 3089 639
Q 2966 413 2813 269
Q 2556 19 2178 -69
Q 1975 -119 1719 -119
Q 1094 -119 659 336
Q 225 791 225 1609
Q 225 2416 662 2919
Q 1100 3422 1806 3422
z
M 2703 1941
Q 2669 2306 2544 2525
Q 2313 2931 1772 2931
Q 1384 2931 1121 2651
Q 859 2372 844 1941
L 2703 1941
z
M 1753 3428
L 1753 3428
z
" transform="scale(0.015625)"/>
       <path id="Helvetica-61" d="M 844 891
Q 844 647 1022 506
Q 1200 366 1444 366
Q 1741 366 2019 503
Q 2488 731 2488 1250
L 2488 1703
Q 2384 1638 2221 1594
Q 2059 1550 1903 1531
L 1563 1488
Q 1256 1447 1103 1359
Q 844 1213 844 891
z
M 2206 2028
Q 2400 2053 2466 2191
Q 2503 2266 2503 2406
Q 2503 2694 2298 2823
Q 2094 2953 1713 2953
Q 1272 2953 1088 2716
Q 984 2584 953 2325
L 428 2325
Q 444 2944 830 3186
Q 1216 3428 1725 3428
Q 2316 3428 2684 3203
Q 3050 2978 3050 2503
L 3050 575
Q 3050 488 3086 434
Q 3122 381 3238 381
Q 3275 381 3322 386
Q 3369 391 3422 400
L 3422 -16
Q 3291 -53 3222 -62
Q 3153 -72 3034 -72
Q 2744 -72 2613 134
Q 2544 244 2516 444
Q 2344 219 2022 53
Q 1700 -113 1313 -113
Q 847 -113 551 170
Q 256 453 256 878
Q 256 1344 547 1600
Q 838 1856 1309 1916
L 2206 2028
z
M 1741 3428
L 1741 3428
z
" transform="scale(0.015625)"/>
       <path id="Helvetica-6e" d="M 413 3347
L 947 3347
L 947 2872
Q 1184 3166 1450 3294
Q 1716 3422 2041 3422
Q 2753 3422 3003 2925
Q 3141 2653 3141 2147
L 3141 0
L 2569 0
L 2569 2109
Q 2569 2416 2478 2603
Q 2328 2916 1934 2916
Q 1734 2916 1606 2875
Q 1375 2806 1200 2600
Q 1059 2434 1017 2257
Q 975 2081 975 1753
L 975 0
L 413 0
L 413 3347
z
M 1734 3428
L 1734 3428
z
" transform="scale(0.015625)"/>
       <path id="Helvetica-20" transform="scale(0.015625)"/>
       <path id="Helvetica-6f" d="M 1741 363
Q 2300 363 2508 786
Q 2716 1209 2716 1728
Q 2716 2197 2566 2491
Q 2328 2953 1747 2953
Q 1231 2953 997 2559
Q 763 2166 763 1609
Q 763 1075 997 719
Q 1231 363 1741 363
z
M 1763 3444
Q 2409 3444 2856 3012
Q 3303 2581 3303 1744
Q 3303 934 2909 406
Q 2516 -122 1688 -122
Q 997 -122 590 345
Q 184 813 184 1600
Q 184 2444 612 2944
Q 1041 3444 1763 3444
z
M 1744 3428
L 1744 3428
z
" transform="scale(0.015625)"/>
       <path id="Helvetica-66" d="M 553 3856
Q 566 4206 675 4369
Q 872 4656 1434 4656
Q 1488 4656 1544 4653
Q 1600 4650 1672 4644
L 1672 4131
Q 1584 4138 1545 4139
Q 1506 4141 1472 4141
Q 1216 4141 1166 4008
Q 1116 3875 1116 3331
L 1672 3331
L 1672 2888
L 1109 2888
L 1109 0
L 553 0
L 553 2888
L 88 2888
L 88 3331
L 553 3331
L 553 3856
z
" transform="scale(0.015625)"/>
       <path id="Helvetica-41" d="M 2844 1881
L 2147 3909
L 1406 1881
L 2844 1881
z
M 1822 4591
L 2525 4591
L 4191 0
L 3509 0
L 3044 1375
L 1228 1375
L 731 0
L 94 0
L 1822 4591
z
" transform="scale(0.015625)"/>
       <path id="Helvetica-6c" d="M 428 4591
L 991 4591
L 991 0
L 428 0
L 428 4591
z
" transform="scale(0.015625)"/>
       <path id="Helvetica-79" d="M 2503 3347
L 3125 3347
Q 3006 3025 2597 1878
Q 2291 1016 2084 472
Q 1597 -809 1397 -1090
Q 1197 -1372 709 -1372
Q 591 -1372 527 -1362
Q 463 -1353 369 -1328
L 369 -816
Q 516 -856 581 -865
Q 647 -875 697 -875
Q 853 -875 926 -823
Q 1000 -772 1050 -697
Q 1066 -672 1162 -440
Q 1259 -209 1303 -97
L 66 3347
L 703 3347
L 1600 622
L 2503 3347
z
M 1597 3428
L 1597 3428
z
" transform="scale(0.015625)"/>
       <path id="Helvetica-73" d="M 747 1050
Q 772 769 888 619
Q 1100 347 1625 347
Q 1938 347 2175 483
Q 2413 619 2413 903
Q 2413 1119 2222 1231
Q 2100 1300 1741 1391
L 1294 1503
Q 866 1609 663 1741
Q 300 1969 300 2372
Q 300 2847 642 3140
Q 984 3434 1563 3434
Q 2319 3434 2653 2991
Q 2863 2709 2856 2384
L 2325 2384
Q 2309 2575 2191 2731
Q 1997 2953 1519 2953
Q 1200 2953 1036 2831
Q 872 2709 872 2509
Q 872 2291 1088 2159
Q 1213 2081 1456 2022
L 1828 1931
Q 2434 1784 2641 1647
Q 2969 1431 2969 969
Q 2969 522 2630 197
Q 2291 -128 1597 -128
Q 850 -128 539 211
Q 228 550 206 1050
L 747 1050
z
M 1578 3428
L 1578 3428
z
" transform="scale(0.015625)"/>
       <path id="Helvetica-69" d="M 413 3331
L 984 3331
L 984 0
L 413 0
L 413 3331
z
M 413 4591
L 984 4591
L 984 3953
L 413 3953
L 413 4591
z
" transform="scale(0.015625)"/>
       <path id="Helvetica-44" d="M 2250 531
Q 2566 531 2769 597
Q 3131 719 3363 1066
Q 3547 1344 3628 1778
Q 3675 2038 3675 2259
Q 3675 3113 3336 3584
Q 2997 4056 2244 4056
L 1141 4056
L 1141 531
L 2250 531
z
M 516 4591
L 2375 4591
Q 3322 4591 3844 3919
Q 4309 3313 4309 2366
Q 4309 1634 4034 1044
Q 3550 0 2369 0
L 516 0
L 516 4591
z
" transform="scale(0.015625)"/>
       <path id="Helvetica-74" d="M 525 4281
L 1094 4281
L 1094 3347
L 1628 3347
L 1628 2888
L 1094 2888
L 1094 703
Q 1094 528 1213 469
Q 1278 434 1431 434
Q 1472 434 1519 436
Q 1566 438 1628 444
L 1628 0
Q 1531 -28 1426 -40
Q 1322 -53 1200 -53
Q 806 -53 665 148
Q 525 350 525 672
L 525 2888
L 72 2888
L 72 3347
L 525 3347
L 525 4281
z
" transform="scale(0.015625)"/>
       <path id="Helvetica-72" d="M 428 3347
L 963 3347
L 963 2769
Q 1028 2938 1284 3180
Q 1541 3422 1875 3422
Q 1891 3422 1928 3419
Q 1966 3416 2056 3406
L 2056 2813
Q 2006 2822 1964 2825
Q 1922 2828 1872 2828
Q 1447 2828 1219 2554
Q 991 2281 991 1925
L 991 0
L 428 0
L 428 3347
z
" transform="scale(0.015625)"/>
       <path id="Helvetica-62" d="M 369 4606
L 916 4606
L 916 2941
Q 1100 3181 1356 3307
Q 1613 3434 1913 3434
Q 2538 3434 2927 3004
Q 3316 2575 3316 1738
Q 3316 944 2931 419
Q 2547 -106 1866 -106
Q 1484 -106 1222 78
Q 1066 188 888 428
L 888 0
L 369 0
L 369 4606
z
M 1831 391
Q 2288 391 2514 753
Q 2741 1116 2741 1709
Q 2741 2238 2514 2584
Q 2288 2931 1847 2931
Q 1463 2931 1173 2647
Q 884 2363 884 1709
Q 884 1238 1003 944
Q 1225 391 1831 391
z
" transform="scale(0.015625)"/>
       <path id="Helvetica-75" d="M 975 3347
L 975 1125
Q 975 869 1056 706
Q 1206 406 1616 406
Q 2203 406 2416 931
Q 2531 1213 2531 1703
L 2531 3347
L 3094 3347
L 3094 0
L 2563 0
L 2569 494
Q 2459 303 2297 172
Q 1975 -91 1516 -91
Q 800 -91 541 388
Q 400 644 400 1072
L 400 3347
L 975 3347
z
M 1747 3428
L 1747 3428
z
" transform="scale(0.015625)"/>
      </defs>
      <use xlink:href="#Helvetica-4d"/>
      <use xlink:href="#Helvetica-65" x="83.300781"/>
      <use xlink:href="#Helvetica-61" x="138.916016"/>
      <use xlink:href="#Helvetica-6e" x="194.53125"/>
      <use xlink:href="#Helvetica-20" x="250.146484"/>
      <use xlink:href="#Helvetica-6f" x="277.929688"/>
      <use xlink:href="#Helvetica-66" x="333.544922"/>
      <use xlink:href="#Helvetica-20" x="361.328125"/>
      <use xlink:href="#Helvetica-41" x="389.111328"/>
      <use xlink:href="#Helvetica-6e" x="455.810547"/>
      <use xlink:href="#Helvetica-61" x="511.425781"/>
      <use xlink:href="#Helvetica-6c" x="567.041016"/>
      <use xlink:href="#Helvetica-79" x="589.257812"/>
      <use xlink:href="#Helvetica-73" x="639.257812"/>
      <use xlink:href="#Helvetica-69" x="689.257812"/>
      <use xlink:href="#Helvetica-73" x="711.474609"/>
      <use xlink:href="#Helvetica-20" x="761.474609"/>
      <use xlink:href="#Helvetica-44" x="789.257812"/>
      <use xlink:href="#Helvetica-69" x="861.474609"/>
      <use xlink:href="#Helvetica-73" x="883.691406"/>
      <use xlink:href="#Helvetica-74" x="933.691406"/>
      <use xlink:href="#Helvetica-72" x="961.474609"/>
      <use xlink:href="#Helvetica-69" x="994.775391"/>
      <use xlink:href="#Helvetica-62" x="1016.992188"/>
      <use xlink:href="#Helvetica-75" x="1072.607422"/>
      <use xlink:href="#Helvetica-74" x="1128.222656"/>
      <use xlink:href="#Helvetica-69" x="1156.005859"/>
      <use xlink:href="#Helvetica-6f" x="1178.222656"/>
      <use xlink:href="#Helvetica-6e" x="1233.837891"/>
     </g>
    </g>
   </g>
   <g id="matplotlib.axis_2">
    <g id="ytick_1">
     <g id="line2d_5">
      <defs>
       <path id="mee247d14cc" d="M 0 0
L -3.5 0
" style="stroke: #000000; stroke-width: 0.8"/>
      </defs>
      <g>
       <use xlink:href="#mee247d14cc" x="37.55" y="167.217596" style="stroke: #000000; stroke-width: 0.8"/>
      </g>
     </g>
     <g id="text_6">
      <!-- 0 -->
      <g transform="translate(24.989063 170.804315) scale(0.1 -0.1)">
       <use xlink:href="#Helvetica-30"/>
      </g>
     </g>
    </g>
    <g id="ytick_2">
     <g id="line2d_6">
      <g>
       <use xlink:href="#mee247d14cc" x="37.55" y="129.486787" style="stroke: #000000; stroke-width: 0.8"/>
      </g>
     </g>
     <g id="text_7">
      <!-- 2 -->
      <g transform="translate(24.989063 133.073506) scale(0.1 -0.1)">
       <use xlink:href="#Helvetica-32"/>
      </g>
     </g>
    </g>
    <g id="ytick_3">
     <g id="line2d_7">
      <g>
       <use xlink:href="#mee247d14cc" x="37.55" y="91.755978" style="stroke: #000000; stroke-width: 0.8"/>
      </g>
     </g>
     <g id="text_8">
      <!-- 4 -->
      <g transform="translate(24.989063 95.342697) scale(0.1 -0.1)">
       <use xlink:href="#Helvetica-34"/>
      </g>
     </g>
    </g>
    <g id="ytick_4">
     <g id="line2d_8">
      <g>
       <use xlink:href="#mee247d14cc" x="37.55" y="54.025169" style="stroke: #000000; stroke-width: 0.8"/>
      </g>
     </g>
     <g id="text_9">
      <!-- 6 -->
      <g transform="translate(24.989063 57.611888) scale(0.1 -0.1)">
       <use xlink:href="#Helvetica-36"/>
      </g>
     </g>
    </g>
    <g id="text_10">
     <!-- Wasserstein Distance -->
     <g transform="translate(18.904688 148.211406) rotate(-90) scale(0.1 -0.1)">
      <defs>
       <path id="Helvetica-57" d="M 791 4591
L 1656 856
L 2694 4591
L 3369 4591
L 4406 856
L 5272 4591
L 5953 4591
L 4747 0
L 4094 0
L 3034 3806
L 1969 0
L 1316 0
L 116 4591
L 791 4591
z
" transform="scale(0.015625)"/>
       <path id="Helvetica-63" d="M 1703 3444
Q 2269 3444 2623 3169
Q 2978 2894 3050 2222
L 2503 2222
Q 2453 2531 2275 2736
Q 2097 2941 1703 2941
Q 1166 2941 934 2416
Q 784 2075 784 1575
Q 784 1072 996 728
Q 1209 384 1666 384
Q 2016 384 2220 598
Q 2425 813 2503 1184
L 3050 1184
Q 2956 519 2581 211
Q 2206 -97 1622 -97
Q 966 -97 575 383
Q 184 863 184 1581
Q 184 2463 612 2953
Q 1041 3444 1703 3444
z
M 1616 3428
L 1616 3428
z
" transform="scale(0.015625)"/>
      </defs>
      <use xlink:href="#Helvetica-57"/>
      <use xlink:href="#Helvetica-61" x="94.384766"/>
      <use xlink:href="#Helvetica-73" x="150"/>
      <use xlink:href="#Helvetica-73" x="200"/>
      <use xlink:href="#Helvetica-65" x="250"/>
      <use xlink:href="#Helvetica-72" x="305.615234"/>
      <use xlink:href="#Helvetica-73" x="338.916016"/>
      <use xlink:href="#Helvetica-74" x="388.916016"/>
      <use xlink:href="#Helvetica-65" x="416.699219"/>
      <use xlink:href="#Helvetica-69" x="472.314453"/>
      <use xlink:href="#Helvetica-6e" x="494.53125"/>
      <use xlink:href="#Helvetica-20" x="550.146484"/>
      <use xlink:href="#Helvetica-44" x="577.929688"/>
      <use xlink:href="#Helvetica-69" x="650.146484"/>
      <use xlink:href="#Helvetica-73" x="672.363281"/>
      <use xlink:href="#Helvetica-74" x="722.363281"/>
      <use xlink:href="#Helvetica-61" x="750.146484"/>
      <use xlink:href="#Helvetica-6e" x="805.761719"/>
      <use xlink:href="#Helvetica-63" x="861.376953"/>
      <use xlink:href="#Helvetica-65" x="911.376953"/>
     </g>
    </g>
   </g>
   <g id="line2d_9">
    <path d="M 45.259432 166.027653
L 47.462127 164.400812
L 49.664821 162.537247
L 51.867516 160.654764
L 54.070211 158.770311
L 56.272906 156.885037
L 58.475601 154.999276
L 60.678295 153.113226
L 62.88099 151.226981
L 65.083685 149.340639
L 67.28638 147.454216
L 69.489075 145.567766
L 71.691769 143.681292
L 73.894464 141.79478
L 76.097159 139.908252
L 78.299854 138.021719
L 80.502549 136.135183
L 82.705244 134.248643
L 84.907938 132.362102
L 87.110633 130.475562
L 89.313328 128.589021
L 91.516023 126.702481
L 93.718718 124.81594
L 95.921412 122.9294
L 98.124107 121.042859
L 100.326802 119.156319
L 102.529497 117.269779
L 104.732192 115.383238
L 106.934886 113.496698
L 109.137581 111.610157
L 111.340276 109.723617
L 113.542971 107.837076
L 115.745666 105.950536
L 117.94836 104.063995
L 120.151055 102.177455
L 122.35375 100.290914
L 124.556445 98.404374
L 126.75914 96.517834
L 128.961834 94.631293
L 131.164529 92.744753
L 133.367224 90.858212
L 135.569919 88.971672
L 137.772614 87.085131
L 139.975308 85.198591
L 142.178003 83.31205
L 144.380698 81.42551
L 146.583393 79.538969
L 148.786088 77.652429
L 150.988782 75.765889
L 153.191477 73.879348
L 155.394172 71.992808
L 157.596867 70.106267
L 159.799562 68.219727
L 162.002256 66.333186
L 164.204951 64.446646
L 166.407646 62.560105
L 168.610341 60.673565
L 170.813036 58.787025
L 173.015731 56.900484
L 175.218425 55.013944
L 177.42112 53.127403
L 179.623815 51.240863
L 181.82651 49.354322
L 184.029205 47.467782
L 186.231899 45.581241
L 188.434594 43.694701
L 190.637289 41.80816
L 192.839984 39.92162
L 195.042679 38.03508
L 197.245373 36.148539
L 199.448068 34.261999
" clip-path="url(#p03e699f7ed)" style="fill: none; stroke: #dd4040; stroke-width: 1.5; stroke-linecap: square"/>
   </g>
   <g id="patch_3">
    <path d="M 37.55 174.04
L 37.55 25.6875
" style="fill: none; stroke: #000000; stroke-width: 0.8; stroke-linejoin: miter; stroke-linecap: square"/>
   </g>
   <g id="patch_4">
    <path d="M 207.1575 174.04
L 207.1575 25.6875
" style="fill: none; stroke: #000000; stroke-width: 0.8; stroke-linejoin: miter; stroke-linecap: square"/>
   </g>
   <g id="patch_5">
    <path d="M 37.55 174.04
L 207.1575 174.04
" style="fill: none; stroke: #000000; stroke-width: 0.8; stroke-linejoin: miter; stroke-linecap: square"/>
   </g>
   <g id="patch_6">
    <path d="M 37.55 25.6875
L 207.1575 25.6875
" style="fill: none; stroke: #000000; stroke-width: 0.8; stroke-linejoin: miter; stroke-linecap: square"/>
   </g>
   <g id="text_11">
    <!-- Wasserstein Distance -->
    <g transform="translate(64.336562 19.6875) scale(0.12 -0.12)">
     <use xlink:href="#Helvetica-57"/>
     <use xlink:href="#Helvetica-61" x="94.384766"/>
     <use xlink:href="#Helvetica-73" x="150"/>
     <use xlink:href="#Helvetica-73" x="200"/>
     <use xlink:href="#Helvetica-65" x="250"/>
     <use xlink:href="#Helvetica-72" x="305.615234"/>
     <use xlink:href="#Helvetica-73" x="338.916016"/>
     <use xlink:href="#Helvetica-74" x="388.916016"/>
     <use xlink:href="#Helvetica-65" x="416.699219"/>
     <use xlink:href="#Helvetica-69" x="472.314453"/>
     <use xlink:href="#Helvetica-6e" x="494.53125"/>
     <use xlink:href="#Helvetica-20" x="550.146484"/>
     <use xlink:href="#Helvetica-44" x="577.929688"/>
     <use xlink:href="#Helvetica-69" x="650.146484"/>
     <use xlink:href="#Helvetica-73" x="672.363281"/>
     <use xlink:href="#Helvetica-74" x="722.363281"/>
     <use xlink:href="#Helvetica-61" x="750.146484"/>
     <use xlink:href="#Helvetica-6e" x="805.761719"/>
     <use xlink:href="#Helvetica-63" x="861.376953"/>
     <use xlink:href="#Helvetica-65" x="911.376953"/>
    </g>
   </g>
   <g id="legend_1">
    <g id="patch_7">
     <path d="M 44.55 47.945312
L 113.507813 47.945312
Q 115.507813 47.945312 115.507813 45.945312
L 115.507813 32.6875
Q 115.507813 30.6875 113.507813 30.6875
L 44.55 30.6875
Q 42.55 30.6875 42.55 32.6875
L 42.55 45.945312
Q 42.55 47.945312 44.55 47.945312
z
" style="fill: #ffffff; opacity: 0.8; stroke: #cccccc; stroke-linejoin: miter"/>
    </g>
    <g id="patch_8">
     <path d="M 46.55 41.860938
L 66.55 41.860938
L 66.55 34.860938
L 46.55 34.860938
z
" style="fill: #f8dcdc; stroke: #f8dcdc; stroke-linejoin: miter"/>
    </g>
    <g id="text_12">
     <!-- +/- 3 SD -->
     <g transform="translate(74.55 41.860938) scale(0.1 -0.1)">
      <defs>
       <path id="Helvetica-2b" d="M 288 1369
L 288 1894
L 1650 1894
L 1650 3266
L 2184 3266
L 2184 1894
L 3547 1894
L 3547 1369
L 2184 1369
L 2184 0
L 1650 0
L 1650 1369
L 288 1369
z
" transform="scale(0.015625)"/>
       <path id="Helvetica-2f" d="M 1456 4591
L 1931 4591
L 475 0
L 0 0
L 1456 4591
z
" transform="scale(0.015625)"/>
       <path id="Helvetica-2d" d="M 266 2072
L 1834 2072
L 1834 1494
L 266 1494
L 266 2072
z
" transform="scale(0.015625)"/>
       <path id="Helvetica-33" d="M 1663 -122
Q 869 -122 511 314
Q 153 750 153 1375
L 741 1375
Q 778 941 903 744
Q 1122 391 1694 391
Q 2138 391 2406 628
Q 2675 866 2675 1241
Q 2675 1703 2392 1887
Q 2109 2072 1606 2072
Q 1550 2072 1492 2070
Q 1434 2069 1375 2066
L 1375 2563
Q 1463 2553 1522 2550
Q 1581 2547 1650 2547
Q 1966 2547 2169 2647
Q 2525 2822 2525 3272
Q 2525 3606 2287 3787
Q 2050 3969 1734 3969
Q 1172 3969 956 3594
Q 838 3388 822 3006
L 266 3006
Q 266 3506 466 3856
Q 809 4481 1675 4481
Q 2359 4481 2734 4176
Q 3109 3872 3109 3294
Q 3109 2881 2888 2625
Q 2750 2466 2531 2375
Q 2884 2278 3082 2001
Q 3281 1725 3281 1325
Q 3281 684 2859 281
Q 2438 -122 1663 -122
z
" transform="scale(0.015625)"/>
       <path id="Helvetica-53" d="M 894 1481
Q 916 1091 1078 847
Q 1388 391 2169 391
Q 2519 391 2806 491
Q 3363 684 3363 1184
Q 3363 1559 3128 1719
Q 2891 1875 2384 1991
L 1763 2131
Q 1153 2269 900 2434
Q 463 2722 463 3294
Q 463 3913 891 4309
Q 1319 4706 2103 4706
Q 2825 4706 3329 4357
Q 3834 4009 3834 3244
L 3250 3244
Q 3203 3613 3050 3809
Q 2766 4169 2084 4169
Q 1534 4169 1293 3937
Q 1053 3706 1053 3400
Q 1053 3063 1334 2906
Q 1519 2806 2169 2656
L 2813 2509
Q 3278 2403 3531 2219
Q 3969 1897 3969 1284
Q 3969 522 3414 194
Q 2859 -134 2125 -134
Q 1269 -134 784 303
Q 300 738 309 1481
L 894 1481
z
M 2150 4716
L 2150 4716
z
" transform="scale(0.015625)"/>
      </defs>
      <use xlink:href="#Helvetica-2b"/>
      <use xlink:href="#Helvetica-2f" x="58.398438"/>
      <use xlink:href="#Helvetica-2d" x="86.181641"/>
      <use xlink:href="#Helvetica-20" x="119.482422"/>
      <use xlink:href="#Helvetica-33" x="147.265625"/>
      <use xlink:href="#Helvetica-20" x="202.880859"/>
      <use xlink:href="#Helvetica-53" x="230.664062"/>
      <use xlink:href="#Helvetica-44" x="297.363281"/>
     </g>
    </g>
   </g>
  </g>
  <g id="axes_2">
   <g id="patch_9">
    <path d="M 252.8975 174.04
L 422.505 174.04
L 422.505 25.6875
L 252.8975 25.6875
z
" style="fill: #ffffff"/>
   </g>
   <g id="PolyCollection_2">
    <defs>
     <path id="m0150d40392" d="M 260.606932 -58.379412
L 260.606932 -48.703295
L 262.809627 -51.447199
L 265.012321 -55.542363
L 267.215016 -60.53668
L 269.417711 -65.972752
L 271.620406 -71.329888
L 273.823101 -76.728705
L 276.025795 -81.911606
L 278.22849 -87.174592
L 280.431185 -92.404548
L 282.63388 -97.411376
L 284.836575 -102.207683
L 287.039269 -106.794652
L 289.241964 -111.408725
L 291.444659 -115.846264
L 293.647354 -120.074619
L 295.850049 -124.079735
L 298.052744 -127.832954
L 300.255438 -131.586888
L 302.458133 -135.155974
L 304.660828 -138.523515
L 306.863523 -141.635113
L 309.066218 -144.606502
L 311.268912 -147.531066
L 313.471607 -150.24025
L 315.674302 -152.81736
L 317.876997 -155.134379
L 320.079692 -157.364052
L 322.282386 -159.513278
L 324.485081 -161.510692
L 326.687776 -163.373962
L 328.890471 -165.044908
L 331.093166 -166.646398
L 333.29586 -168.141528
L 335.498555 -169.552969
L 337.70125 -170.827715
L 339.903945 -171.97288
L 342.10664 -173.093336
L 344.309334 -174.102337
L 346.512029 -175.057352
L 348.714724 -175.886044
L 350.917419 -176.635236
L 353.120114 -177.35884
L 355.322808 -178.012806
L 357.525503 -178.618306
L 359.728198 -179.138501
L 361.930893 -179.607315
L 364.133588 -180.044205
L 366.336282 -180.439471
L 368.538977 -180.795655
L 370.741672 -181.101406
L 372.944367 -181.388128
L 375.147062 -181.6301
L 377.349756 -181.847805
L 379.552451 -182.038996
L 381.755146 -182.209709
L 383.957841 -182.362864
L 386.160536 -182.495605
L 388.363231 -182.600917
L 390.565925 -182.717362
L 392.76862 -182.805209
L 394.971315 -182.894972
L 397.17401 -182.957446
L 399.376705 -183.023801
L 401.579399 -183.065987
L 403.782094 -183.098867
L 405.984789 -183.133997
L 408.187484 -183.161478
L 410.390179 -183.179418
L 412.592873 -183.184964
L 414.795568 -183.204691
L 414.795568 -183.323881
L 414.795568 -183.323881
L 412.592873 -183.340227
L 410.390179 -183.344902
L 408.187484 -183.358785
L 405.984789 -183.379113
L 403.782094 -183.403126
L 401.579399 -183.423315
L 399.376705 -183.447603
L 397.17401 -183.481169
L 394.971315 -183.504825
L 392.76862 -183.534313
L 390.565925 -183.553526
L 388.363231 -183.569205
L 386.160536 -183.563521
L 383.957841 -183.543144
L 381.755146 -183.513272
L 379.552451 -183.440928
L 377.349756 -183.353464
L 375.147062 -183.250011
L 372.944367 -183.122495
L 370.741672 -182.976983
L 368.538977 -182.766306
L 366.336282 -182.563663
L 364.133588 -182.302025
L 361.930893 -182.018667
L 359.728198 -181.664415
L 357.525503 -181.255278
L 355.322808 -180.845198
L 353.120114 -180.354847
L 350.917419 -179.821279
L 348.714724 -179.190093
L 346.512029 -178.48108
L 344.309334 -177.771396
L 342.10664 -176.946591
L 339.903945 -176.062456
L 337.70125 -175.033585
L 335.498555 -173.940834
L 333.29586 -172.800123
L 331.093166 -171.513104
L 328.890471 -170.133677
L 326.687776 -168.593808
L 324.485081 -166.991849
L 322.282386 -165.284975
L 320.079692 -163.423206
L 317.876997 -161.416037
L 315.674302 -159.18626
L 313.471607 -156.93229
L 311.268912 -154.511132
L 309.066218 -151.939257
L 306.863523 -149.168129
L 304.660828 -146.176027
L 302.458133 -143.10029
L 300.255438 -139.878299
L 298.052744 -136.453571
L 295.850049 -132.752311
L 293.647354 -128.910797
L 291.444659 -124.975333
L 289.241964 -120.898653
L 287.039269 -116.625396
L 284.836575 -112.089964
L 282.63388 -107.357791
L 280.431185 -102.59109
L 278.22849 -97.71489
L 276.025795 -92.677895
L 273.823101 -87.40102
L 271.620406 -82.100276
L 269.417711 -76.802122
L 267.215016 -71.577033
L 265.012321 -66.448207
L 262.809627 -61.613
L 260.606932 -58.379412
z
" style="stroke: #f8dcdc"/>
    </defs>
    <g clip-path="url(#pb4f55aae94)">
     <use xlink:href="#m0150d40392" x="0" y="216" style="fill: #f8dcdc; stroke: #f8dcdc"/>
    </g>
   </g>
   <g id="matplotlib.axis_3">
    <g id="xtick_5">
     <g id="line2d_10">
      <g>
       <use xlink:href="#m4a35247e7c" x="260.606932" y="174.04" style="stroke: #000000; stroke-width: 0.8"/>
      </g>
     </g>
     <g id="text_13">
      <!-- 0 -->
      <g transform="translate(257.826463 188.213437) scale(0.1 -0.1)">
       <use xlink:href="#Helvetica-30"/>
      </g>
     </g>
    </g>
    <g id="xtick_6">
     <g id="line2d_11">
      <g>
       <use xlink:href="#m4a35247e7c" x="304.660828" y="174.04" style="stroke: #000000; stroke-width: 0.8"/>
      </g>
     </g>
     <g id="text_14">
      <!-- 2 -->
      <g transform="translate(301.880359 188.213437) scale(0.1 -0.1)">
       <use xlink:href="#Helvetica-32"/>
      </g>
     </g>
    </g>
    <g id="xtick_7">
     <g id="line2d_12">
      <g>
       <use xlink:href="#m4a35247e7c" x="348.714724" y="174.04" style="stroke: #000000; stroke-width: 0.8"/>
      </g>
     </g>
     <g id="text_15">
      <!-- 4 -->
      <g transform="translate(345.934255 188.213437) scale(0.1 -0.1)">
       <use xlink:href="#Helvetica-34"/>
      </g>
     </g>
    </g>
    <g id="xtick_8">
     <g id="line2d_13">
      <g>
       <use xlink:href="#m4a35247e7c" x="392.76862" y="174.04" style="stroke: #000000; stroke-width: 0.8"/>
      </g>
     </g>
     <g id="text_16">
      <!-- 6 -->
      <g transform="translate(389.988151 188.213437) scale(0.1 -0.1)">
       <use xlink:href="#Helvetica-36"/>
      </g>
     </g>
    </g>
    <g id="text_17">
     <!-- Mean of Analysis Distribution -->
     <g transform="translate(273.231719 201.572812) scale(0.1 -0.1)">
      <use xlink:href="#Helvetica-4d"/>
      <use xlink:href="#Helvetica-65" x="83.300781"/>
      <use xlink:href="#Helvetica-61" x="138.916016"/>
      <use xlink:href="#Helvetica-6e" x="194.53125"/>
      <use xlink:href="#Helvetica-20" x="250.146484"/>
      <use xlink:href="#Helvetica-6f" x="277.929688"/>
      <use xlink:href="#Helvetica-66" x="333.544922"/>
      <use xlink:href="#Helvetica-20" x="361.328125"/>
      <use xlink:href="#Helvetica-41" x="389.111328"/>
      <use xlink:href="#Helvetica-6e" x="455.810547"/>
      <use xlink:href="#Helvetica-61" x="511.425781"/>
      <use xlink:href="#Helvetica-6c" x="567.041016"/>
      <use xlink:href="#Helvetica-79" x="589.257812"/>
      <use xlink:href="#Helvetica-73" x="639.257812"/>
      <use xlink:href="#Helvetica-69" x="689.257812"/>
      <use xlink:href="#Helvetica-73" x="711.474609"/>
      <use xlink:href="#Helvetica-20" x="761.474609"/>
      <use xlink:href="#Helvetica-44" x="789.257812"/>
      <use xlink:href="#Helvetica-69" x="861.474609"/>
      <use xlink:href="#Helvetica-73" x="883.691406"/>
      <use xlink:href="#Helvetica-74" x="933.691406"/>
      <use xlink:href="#Helvetica-72" x="961.474609"/>
      <use xlink:href="#Helvetica-69" x="994.775391"/>
      <use xlink:href="#Helvetica-62" x="1016.992188"/>
      <use xlink:href="#Helvetica-75" x="1072.607422"/>
      <use xlink:href="#Helvetica-74" x="1128.222656"/>
      <use xlink:href="#Helvetica-69" x="1156.005859"/>
      <use xlink:href="#Helvetica-6f" x="1178.222656"/>
      <use xlink:href="#Helvetica-6e" x="1233.837891"/>
     </g>
    </g>
   </g>
   <g id="matplotlib.axis_4">
    <g id="ytick_5">
     <g id="line2d_14">
      <g>
       <use xlink:href="#mee247d14cc" x="252.8975" y="172.541823" style="stroke: #000000; stroke-width: 0.8"/>
      </g>
     </g>
     <g id="text_18">
      <!-- 0.0 -->
      <g transform="translate(231.9975 176.128542) scale(0.1 -0.1)">
       <defs>
        <path id="Helvetica-2e" d="M 547 681
L 1200 681
L 1200 0
L 547 0
L 547 681
z
" transform="scale(0.015625)"/>
       </defs>
       <use xlink:href="#Helvetica-30"/>
       <use xlink:href="#Helvetica-2e" x="55.615234"/>
       <use xlink:href="#Helvetica-30" x="83.398438"/>
      </g>
     </g>
    </g>
    <g id="ytick_6">
     <g id="line2d_15">
      <g>
       <use xlink:href="#mee247d14cc" x="252.8975" y="144.580128" style="stroke: #000000; stroke-width: 0.8"/>
      </g>
     </g>
     <g id="text_19">
      <!-- 0.2 -->
      <g transform="translate(231.9975 148.166847) scale(0.1 -0.1)">
       <use xlink:href="#Helvetica-30"/>
       <use xlink:href="#Helvetica-2e" x="55.615234"/>
       <use xlink:href="#Helvetica-32" x="83.398438"/>
      </g>
     </g>
    </g>
    <g id="ytick_7">
     <g id="line2d_16">
      <g>
       <use xlink:href="#mee247d14cc" x="252.8975" y="116.618433" style="stroke: #000000; stroke-width: 0.8"/>
      </g>
     </g>
     <g id="text_20">
      <!-- 0.4 -->
      <g transform="translate(231.9975 120.205152) scale(0.1 -0.1)">
       <use xlink:href="#Helvetica-30"/>
       <use xlink:href="#Helvetica-2e" x="55.615234"/>
       <use xlink:href="#Helvetica-34" x="83.398438"/>
      </g>
     </g>
    </g>
    <g id="ytick_8">
     <g id="line2d_17">
      <g>
       <use xlink:href="#mee247d14cc" x="252.8975" y="88.656737" style="stroke: #000000; stroke-width: 0.8"/>
      </g>
     </g>
     <g id="text_21">
      <!-- 0.6 -->
      <g transform="translate(231.9975 92.243456) scale(0.1 -0.1)">
       <use xlink:href="#Helvetica-30"/>
       <use xlink:href="#Helvetica-2e" x="55.615234"/>
       <use xlink:href="#Helvetica-36" x="83.398438"/>
      </g>
     </g>
    </g>
    <g id="ytick_9">
     <g id="line2d_18">
      <g>
       <use xlink:href="#mee247d14cc" x="252.8975" y="60.695042" style="stroke: #000000; stroke-width: 0.8"/>
      </g>
     </g>
     <g id="text_22">
      <!-- 0.8 -->
      <g transform="translate(231.9975 64.281761) scale(0.1 -0.1)">
       <defs>
        <path id="Helvetica-38" d="M 1741 2600
Q 2113 2600 2322 2808
Q 2531 3016 2531 3303
Q 2531 3553 2331 3762
Q 2131 3972 1722 3972
Q 1316 3972 1134 3762
Q 953 3553 953 3272
Q 953 2956 1187 2778
Q 1422 2600 1741 2600
z
M 1775 384
Q 2166 384 2423 595
Q 2681 806 2681 1225
Q 2681 1659 2415 1884
Q 2150 2109 1734 2109
Q 1331 2109 1076 1879
Q 822 1650 822 1244
Q 822 894 1055 639
Q 1288 384 1775 384
z
M 975 2384
Q 741 2484 609 2619
Q 363 2869 363 3269
Q 363 3769 725 4128
Q 1088 4488 1753 4488
Q 2397 4488 2762 4148
Q 3128 3809 3128 3356
Q 3128 2938 2916 2678
Q 2797 2531 2547 2391
Q 2825 2263 2984 2097
Q 3281 1784 3281 1284
Q 3281 694 2884 283
Q 2488 -128 1763 -128
Q 1109 -128 657 226
Q 206 581 206 1256
Q 206 1653 400 1942
Q 594 2231 975 2384
z
" transform="scale(0.015625)"/>
       </defs>
       <use xlink:href="#Helvetica-30"/>
       <use xlink:href="#Helvetica-2e" x="55.615234"/>
       <use xlink:href="#Helvetica-38" x="83.398438"/>
      </g>
     </g>
    </g>
    <g id="ytick_10">
     <g id="line2d_19">
      <g>
       <use xlink:href="#mee247d14cc" x="252.8975" y="32.733347" style="stroke: #000000; stroke-width: 0.8"/>
      </g>
     </g>
     <g id="text_23">
      <!-- 1.0 -->
      <g transform="translate(231.9975 36.320065) scale(0.1 -0.1)">
       <defs>
        <path id="Helvetica-31" d="M 613 3169
L 613 3600
Q 1222 3659 1462 3798
Q 1703 3938 1822 4456
L 2266 4456
L 2266 0
L 1666 0
L 1666 3169
L 613 3169
z
" transform="scale(0.015625)"/>
       </defs>
       <use xlink:href="#Helvetica-31"/>
       <use xlink:href="#Helvetica-2e" x="55.615234"/>
       <use xlink:href="#Helvetica-30" x="83.398438"/>
      </g>
     </g>
    </g>
    <g id="text_24">
     <!-- Jensen-Shannon Distance -->
     <g transform="translate(225.913125 158.509844) rotate(-90) scale(0.1 -0.1)">
      <defs>
       <path id="Helvetica-4a" d="M 2741 1369
Q 2741 788 2569 466
Q 2250 -122 1356 -122
Q 841 -122 475 158
Q 109 438 109 1153
L 109 1481
L 694 1481
L 694 1153
Q 694 778 861 589
Q 1028 400 1381 400
Q 1878 400 2031 741
Q 2125 950 2125 1531
L 2125 4591
L 2741 4591
L 2741 1369
z
" transform="scale(0.015625)"/>
       <path id="Helvetica-68" d="M 413 4606
L 975 4606
L 975 2894
Q 1175 3147 1334 3250
Q 1606 3428 2013 3428
Q 2741 3428 3000 2919
Q 3141 2641 3141 2147
L 3141 0
L 2563 0
L 2563 2109
Q 2563 2478 2469 2650
Q 2316 2925 1894 2925
Q 1544 2925 1259 2684
Q 975 2444 975 1775
L 975 0
L 413 0
L 413 4606
z
" transform="scale(0.015625)"/>
      </defs>
      <use xlink:href="#Helvetica-4a"/>
      <use xlink:href="#Helvetica-65" x="50"/>
      <use xlink:href="#Helvetica-6e" x="105.615234"/>
      <use xlink:href="#Helvetica-73" x="161.230469"/>
      <use xlink:href="#Helvetica-65" x="211.230469"/>
      <use xlink:href="#Helvetica-6e" x="266.845703"/>
      <use xlink:href="#Helvetica-2d" x="322.460938"/>
      <use xlink:href="#Helvetica-53" x="355.761719"/>
      <use xlink:href="#Helvetica-68" x="422.460938"/>
      <use xlink:href="#Helvetica-61" x="478.076172"/>
      <use xlink:href="#Helvetica-6e" x="533.691406"/>
      <use xlink:href="#Helvetica-6e" x="589.306641"/>
      <use xlink:href="#Helvetica-6f" x="644.921875"/>
      <use xlink:href="#Helvetica-6e" x="700.537109"/>
      <use xlink:href="#Helvetica-20" x="756.152344"/>
      <use xlink:href="#Helvetica-44" x="783.935547"/>
      <use xlink:href="#Helvetica-69" x="856.152344"/>
      <use xlink:href="#Helvetica-73" x="878.369141"/>
      <use xlink:href="#Helvetica-74" x="928.369141"/>
      <use xlink:href="#Helvetica-61" x="956.152344"/>
      <use xlink:href="#Helvetica-6e" x="1011.767578"/>
      <use xlink:href="#Helvetica-63" x="1067.382812"/>
      <use xlink:href="#Helvetica-65" x="1117.382812"/>
     </g>
    </g>
   </g>
   <g id="line2d_20">
    <path d="M 260.606932 162.458646
L 262.809627 159.469901
L 265.012321 155.004715
L 267.215016 149.943143
L 269.417711 144.612563
L 271.620406 139.284918
L 273.823101 133.935138
L 276.025795 128.70525
L 278.22849 123.555259
L 280.431185 118.502181
L 282.63388 113.615416
L 284.836575 108.851176
L 287.039269 104.289976
L 289.241964 99.846311
L 291.444659 95.589202
L 293.647354 91.507292
L 295.850049 87.583977
L 298.052744 83.856737
L 300.255438 80.267406
L 302.458133 76.871868
L 304.660828 73.650229
L 306.863523 70.598379
L 309.066218 67.727121
L 311.268912 64.978901
L 313.471607 62.41373
L 315.674302 59.99819
L 317.876997 57.724792
L 320.079692 55.606371
L 322.282386 53.600873
L 324.485081 51.748729
L 326.687776 50.016115
L 328.890471 48.410708
L 331.093166 46.920249
L 333.29586 45.529174
L 335.498555 44.253098
L 337.70125 43.06935
L 339.903945 41.982332
L 342.10664 40.980037
L 344.309334 40.063133
L 346.512029 39.230784
L 348.714724 38.461932
L 350.917419 37.771742
L 353.120114 37.143157
L 355.322808 36.570998
L 357.525503 36.063208
L 359.728198 35.598542
L 361.930893 35.187009
L 364.133588 34.826885
L 366.336282 34.498433
L 368.538977 34.21902
L 370.741672 33.960806
L 372.944367 33.744689
L 375.147062 33.559944
L 377.349756 33.399365
L 379.552451 33.260038
L 381.755146 33.138509
L 383.957841 33.046996
L 386.160536 32.970437
L 388.363231 32.914939
L 390.565925 32.864556
L 392.76862 32.830239
L 394.971315 32.800102
L 397.17401 32.780693
L 399.376705 32.764298
L 401.579399 32.755349
L 403.782094 32.749004
L 405.984789 32.743445
L 408.187484 32.739869
L 410.390179 32.73784
L 412.592873 32.737405
L 414.795568 32.735714
" clip-path="url(#pb4f55aae94)" style="fill: none; stroke: #dd4040; stroke-width: 1.5; stroke-linecap: square"/>
   </g>
   <g id="patch_10">
    <path d="M 252.8975 174.04
L 252.8975 25.6875
" style="fill: none; stroke: #000000; stroke-width: 0.8; stroke-linejoin: miter; stroke-linecap: square"/>
   </g>
   <g id="patch_11">
    <path d="M 422.505 174.04
L 422.505 25.6875
" style="fill: none; stroke: #000000; stroke-width: 0.8; stroke-linejoin: miter; stroke-linecap: square"/>
   </g>
   <g id="patch_12">
    <path d="M 252.8975 174.04
L 422.505 174.04
" style="fill: none; stroke: #000000; stroke-width: 0.8; stroke-linejoin: miter; stroke-linecap: square"/>
   </g>
   <g id="patch_13">
    <path d="M 252.8975 25.6875
L 422.505 25.6875
" style="fill: none; stroke: #000000; stroke-width: 0.8; stroke-linejoin: miter; stroke-linecap: square"/>
   </g>
   <g id="text_25">
    <!-- Jensen-Shannon Distance -->
    <g transform="translate(267.325937 19.6875) scale(0.12 -0.12)">
     <use xlink:href="#Helvetica-4a"/>
     <use xlink:href="#Helvetica-65" x="50"/>
     <use xlink:href="#Helvetica-6e" x="105.615234"/>
     <use xlink:href="#Helvetica-73" x="161.230469"/>
     <use xlink:href="#Helvetica-65" x="211.230469"/>
     <use xlink:href="#Helvetica-6e" x="266.845703"/>
     <use xlink:href="#Helvetica-2d" x="322.460938"/>
     <use xlink:href="#Helvetica-53" x="355.761719"/>
     <use xlink:href="#Helvetica-68" x="422.460938"/>
     <use xlink:href="#Helvetica-61" x="478.076172"/>
     <use xlink:href="#Helvetica-6e" x="533.691406"/>
     <use xlink:href="#Helvetica-6e" x="589.306641"/>
     <use xlink:href="#Helvetica-6f" x="644.921875"/>
     <use xlink:href="#Helvetica-6e" x="700.537109"/>
     <use xlink:href="#Helvetica-20" x="756.152344"/>
     <use xlink:href="#Helvetica-44" x="783.935547"/>
     <use xlink:href="#Helvetica-69" x="856.152344"/>
     <use xlink:href="#Helvetica-73" x="878.369141"/>
     <use xlink:href="#Helvetica-74" x="928.369141"/>
     <use xlink:href="#Helvetica-61" x="956.152344"/>
     <use xlink:href="#Helvetica-6e" x="1011.767578"/>
     <use xlink:href="#Helvetica-63" x="1067.382812"/>
     <use xlink:href="#Helvetica-65" x="1117.382812"/>
    </g>
   </g>
   <g id="legend_2">
    <g id="patch_14">
     <path d="M 346.547187 169.04
L 415.505 169.04
Q 417.505 169.04 417.505 167.04
L 417.505 153.782188
Q 417.505 151.782188 415.505 151.782188
L 346.547187 151.782188
Q 344.547187 151.782188 344.547187 153.782188
L 344.547187 167.04
Q 344.547187 169.04 346.547187 169.04
z
" style="fill: #ffffff; opacity: 0.8; stroke: #cccccc; stroke-linejoin: miter"/>
    </g>
    <g id="patch_15">
     <path d="M 348.547187 162.955625
L 368.547187 162.955625
L 368.547187 155.955625
L 348.547187 155.955625
z
" style="fill: #f8dcdc; stroke: #f8dcdc; stroke-linejoin: miter"/>
    </g>
    <g id="text_26">
     <!-- +/- 3 SD -->
     <g transform="translate(376.547187 162.955625) scale(0.1 -0.1)">
      <use xlink:href="#Helvetica-2b"/>
      <use xlink:href="#Helvetica-2f" x="58.398438"/>
      <use xlink:href="#Helvetica-2d" x="86.181641"/>
      <use xlink:href="#Helvetica-20" x="119.482422"/>
      <use xlink:href="#Helvetica-33" x="147.265625"/>
      <use xlink:href="#Helvetica-20" x="202.880859"/>
      <use xlink:href="#Helvetica-53" x="230.664062"/>
      <use xlink:href="#Helvetica-44" x="297.363281"/>
     </g>
    </g>
   </g>
  </g>
  <g id="axes_3">
   <g id="patch_16">
    <path d="M 468.245 174.04
L 637.8525 174.04
L 637.8525 25.6875
L 468.245 25.6875
z
" style="fill: #ffffff"/>
   </g>
   <g id="PolyCollection_3">
    <defs>
     <path id="m42884fa4f9" d="M 475.954432 -59.2077
L 475.954432 -48.703295
L 478.157127 -53.273666
L 480.359821 -58.295406
L 482.562516 -63.458077
L 484.765211 -68.732985
L 486.967906 -73.950379
L 489.170601 -79.061889
L 491.373295 -84.202796
L 493.57599 -89.400101
L 495.778685 -94.545516
L 497.98138 -99.429213
L 500.184075 -104.150415
L 502.386769 -108.692071
L 504.589464 -112.944006
L 506.792159 -116.969149
L 508.994854 -120.801285
L 511.197549 -124.467526
L 513.400244 -127.971667
L 515.602938 -131.605565
L 517.805633 -135.376203
L 520.008328 -138.957423
L 522.211023 -142.228112
L 524.413718 -145.334635
L 526.616412 -148.152883
L 528.819107 -150.726876
L 531.021802 -153.192907
L 533.224497 -155.566849
L 535.427192 -157.566895
L 537.629886 -159.529339
L 539.832581 -161.438796
L 542.035276 -163.254654
L 544.237971 -164.99158
L 546.440666 -166.581634
L 548.64336 -168.015766
L 550.846055 -169.299428
L 553.04875 -170.496348
L 555.251445 -171.527695
L 557.45414 -172.651016
L 559.656834 -173.618563
L 561.859529 -174.625446
L 564.062224 -175.570878
L 566.264919 -176.401636
L 568.467614 -177.121917
L 570.670308 -177.753692
L 572.873003 -178.367802
L 575.075698 -178.983814
L 577.278393 -179.569546
L 579.481088 -180.083027
L 581.683782 -180.516157
L 583.886477 -180.906579
L 586.089172 -181.25307
L 588.291867 -181.527569
L 590.494562 -181.74669
L 592.697256 -181.956142
L 594.899951 -182.120662
L 597.102646 -182.29142
L 599.305341 -182.452375
L 601.508036 -182.586074
L 603.710731 -182.7012
L 605.913425 -182.812672
L 608.11612 -182.892547
L 610.318815 -182.969195
L 612.52151 -183.037
L 614.724205 -183.087771
L 616.926899 -183.129232
L 619.129594 -183.155338
L 621.332289 -183.179516
L 623.534984 -183.199498
L 625.737679 -183.214139
L 627.940373 -183.216881
L 630.143068 -183.232671
L 630.143068 -183.328075
L 630.143068 -183.328075
L 627.940373 -183.341159
L 625.737679 -183.343359
L 623.534984 -183.354752
L 621.332289 -183.36932
L 619.129594 -183.385378
L 616.926899 -183.401741
L 614.724205 -183.428044
L 612.52151 -183.453371
L 610.318815 -183.487613
L 608.11612 -183.514999
L 605.913425 -183.536409
L 603.710731 -183.556935
L 601.508036 -183.569205
L 599.305341 -183.563778
L 597.102646 -183.547714
L 594.899951 -183.4884
L 592.697256 -183.390909
L 590.494562 -183.288005
L 588.291867 -183.174199
L 586.089172 -183.052433
L 583.886477 -182.937157
L 581.683782 -182.752129
L 579.481088 -182.518863
L 577.278393 -182.237109
L 575.075698 -181.886314
L 572.873003 -181.44562
L 570.670308 -180.925613
L 568.467614 -180.387001
L 566.264919 -179.867601
L 564.062224 -179.359072
L 561.859529 -178.706995
L 559.656834 -177.953965
L 557.45414 -177.037632
L 555.251445 -176.137946
L 553.04875 -175.090529
L 550.846055 -174.086341
L 548.64336 -173.079031
L 546.440666 -171.983999
L 544.237971 -170.718458
L 542.035276 -169.287434
L 539.832581 -167.666834
L 537.629886 -165.930332
L 535.427192 -164.091452
L 533.224497 -162.246325
L 531.021802 -160.430798
L 528.819107 -158.383095
L 526.616412 -156.015691
L 524.413718 -153.468669
L 522.211023 -150.81853
L 520.008328 -147.9233
L 517.805633 -144.857886
L 515.602938 -141.501176
L 513.400244 -137.785776
L 511.197549 -133.91788
L 508.994854 -130.399932
L 506.792159 -126.904423
L 504.589464 -123.270618
L 502.386769 -119.445686
L 500.184075 -115.320951
L 497.98138 -110.948099
L 495.778685 -106.159043
L 493.57599 -101.389725
L 491.373295 -96.382678
L 489.170601 -91.097281
L 486.967906 -85.822006
L 484.765211 -80.517819
L 482.562516 -75.274394
L 480.359821 -70.014009
L 478.157127 -64.646798
L 475.954432 -59.2077
z
" style="stroke: #f8dcdc"/>
    </defs>
    <g clip-path="url(#pe40274f65f)">
     <use xlink:href="#m42884fa4f9" x="0" y="216" style="fill: #f8dcdc; stroke: #f8dcdc"/>
    </g>
   </g>
   <g id="matplotlib.axis_5">
    <g id="xtick_9">
     <g id="line2d_21">
      <g>
       <use xlink:href="#m4a35247e7c" x="475.954432" y="174.04" style="stroke: #000000; stroke-width: 0.8"/>
      </g>
     </g>
     <g id="text_27">
      <!-- 0 -->
      <g transform="translate(473.173963 188.213437) scale(0.1 -0.1)">
       <use xlink:href="#Helvetica-30"/>
      </g>
     </g>
    </g>
    <g id="xtick_10">
     <g id="line2d_22">
      <g>
       <use xlink:href="#m4a35247e7c" x="520.008328" y="174.04" style="stroke: #000000; stroke-width: 0.8"/>
      </g>
     </g>
     <g id="text_28">
      <!-- 2 -->
      <g transform="translate(517.227859 188.213437) scale(0.1 -0.1)">
       <use xlink:href="#Helvetica-32"/>
      </g>
     </g>
    </g>
    <g id="xtick_11">
     <g id="line2d_23">
      <g>
       <use xlink:href="#m4a35247e7c" x="564.062224" y="174.04" style="stroke: #000000; stroke-width: 0.8"/>
      </g>
     </g>
     <g id="text_29">
      <!-- 4 -->
      <g transform="translate(561.281755 188.213437) scale(0.1 -0.1)">
       <use xlink:href="#Helvetica-34"/>
      </g>
     </g>
    </g>
    <g id="xtick_12">
     <g id="line2d_24">
      <g>
       <use xlink:href="#m4a35247e7c" x="608.11612" y="174.04" style="stroke: #000000; stroke-width: 0.8"/>
      </g>
     </g>
     <g id="text_30">
      <!-- 6 -->
      <g transform="translate(605.335651 188.213437) scale(0.1 -0.1)">
       <use xlink:href="#Helvetica-36"/>
      </g>
     </g>
    </g>
    <g id="text_31">
     <!-- Mean of Analysis Distribution -->
     <g transform="translate(488.579219 201.572812) scale(0.1 -0.1)">
      <use xlink:href="#Helvetica-4d"/>
      <use xlink:href="#Helvetica-65" x="83.300781"/>
      <use xlink:href="#Helvetica-61" x="138.916016"/>
      <use xlink:href="#Helvetica-6e" x="194.53125"/>
      <use xlink:href="#Helvetica-20" x="250.146484"/>
      <use xlink:href="#Helvetica-6f" x="277.929688"/>
      <use xlink:href="#Helvetica-66" x="333.544922"/>
      <use xlink:href="#Helvetica-20" x="361.328125"/>
      <use xlink:href="#Helvetica-41" x="389.111328"/>
      <use xlink:href="#Helvetica-6e" x="455.810547"/>
      <use xlink:href="#Helvetica-61" x="511.425781"/>
      <use xlink:href="#Helvetica-6c" x="567.041016"/>
      <use xlink:href="#Helvetica-79" x="589.257812"/>
      <use xlink:href="#Helvetica-73" x="639.257812"/>
      <use xlink:href="#Helvetica-69" x="689.257812"/>
      <use xlink:href="#Helvetica-73" x="711.474609"/>
      <use xlink:href="#Helvetica-20" x="761.474609"/>
      <use xlink:href="#Helvetica-44" x="789.257812"/>
      <use xlink:href="#Helvetica-69" x="861.474609"/>
      <use xlink:href="#Helvetica-73" x="883.691406"/>
      <use xlink:href="#Helvetica-74" x="933.691406"/>
      <use xlink:href="#Helvetica-72" x="961.474609"/>
      <use xlink:href="#Helvetica-69" x="994.775391"/>
      <use xlink:href="#Helvetica-62" x="1016.992188"/>
      <use xlink:href="#Helvetica-75" x="1072.607422"/>
      <use xlink:href="#Helvetica-74" x="1128.222656"/>
      <use xlink:href="#Helvetica-69" x="1156.005859"/>
      <use xlink:href="#Helvetica-6f" x="1178.222656"/>
      <use xlink:href="#Helvetica-6e" x="1233.837891"/>
     </g>
    </g>
   </g>
   <g id="matplotlib.axis_6">
    <g id="ytick_11">
     <g id="line2d_25">
      <g>
       <use xlink:href="#mee247d14cc" x="468.245" y="168.053973" style="stroke: #000000; stroke-width: 0.8"/>
      </g>
     </g>
     <g id="text_32">
      <!-- 0.0 -->
      <g transform="translate(447.345 171.640691) scale(0.1 -0.1)">
       <use xlink:href="#Helvetica-30"/>
       <use xlink:href="#Helvetica-2e" x="55.615234"/>
       <use xlink:href="#Helvetica-30" x="83.398438"/>
      </g>
     </g>
    </g>
    <g id="ytick_12">
     <g id="line2d_26">
      <g>
       <use xlink:href="#mee247d14cc" x="468.245" y="140.986724" style="stroke: #000000; stroke-width: 0.8"/>
      </g>
     </g>
     <g id="text_33">
      <!-- 0.2 -->
      <g transform="translate(447.345 144.573443) scale(0.1 -0.1)">
       <use xlink:href="#Helvetica-30"/>
       <use xlink:href="#Helvetica-2e" x="55.615234"/>
       <use xlink:href="#Helvetica-32" x="83.398438"/>
      </g>
     </g>
    </g>
    <g id="ytick_13">
     <g id="line2d_27">
      <g>
       <use xlink:href="#mee247d14cc" x="468.245" y="113.919476" style="stroke: #000000; stroke-width: 0.8"/>
      </g>
     </g>
     <g id="text_34">
      <!-- 0.4 -->
      <g transform="translate(447.345 117.506195) scale(0.1 -0.1)">
       <use xlink:href="#Helvetica-30"/>
       <use xlink:href="#Helvetica-2e" x="55.615234"/>
       <use xlink:href="#Helvetica-34" x="83.398438"/>
      </g>
     </g>
    </g>
    <g id="ytick_14">
     <g id="line2d_28">
      <g>
       <use xlink:href="#mee247d14cc" x="468.245" y="86.852228" style="stroke: #000000; stroke-width: 0.8"/>
      </g>
     </g>
     <g id="text_35">
      <!-- 0.6 -->
      <g transform="translate(447.345 90.438947) scale(0.1 -0.1)">
       <use xlink:href="#Helvetica-30"/>
       <use xlink:href="#Helvetica-2e" x="55.615234"/>
       <use xlink:href="#Helvetica-36" x="83.398438"/>
      </g>
     </g>
    </g>
    <g id="ytick_15">
     <g id="line2d_29">
      <g>
       <use xlink:href="#mee247d14cc" x="468.245" y="59.78498" style="stroke: #000000; stroke-width: 0.8"/>
      </g>
     </g>
     <g id="text_36">
      <!-- 0.8 -->
      <g transform="translate(447.345 63.371699) scale(0.1 -0.1)">
       <use xlink:href="#Helvetica-30"/>
       <use xlink:href="#Helvetica-2e" x="55.615234"/>
       <use xlink:href="#Helvetica-38" x="83.398438"/>
      </g>
     </g>
    </g>
    <g id="ytick_16">
     <g id="line2d_30">
      <g>
       <use xlink:href="#mee247d14cc" x="468.245" y="32.717732" style="stroke: #000000; stroke-width: 0.8"/>
      </g>
     </g>
     <g id="text_37">
      <!-- 1.0 -->
      <g transform="translate(447.345 36.304451) scale(0.1 -0.1)">
       <use xlink:href="#Helvetica-31"/>
       <use xlink:href="#Helvetica-2e" x="55.615234"/>
       <use xlink:href="#Helvetica-30" x="83.398438"/>
      </g>
     </g>
    </g>
    <g id="text_38">
     <!-- Kolmogorov-Smirnov Statistic -->
     <g transform="translate(441.1325 165.437187) rotate(-90) scale(0.1 -0.1)">
      <defs>
       <path id="Helvetica-4b" d="M 488 4591
L 1094 4591
L 1094 2353
L 3331 4591
L 4191 4591
L 2281 2741
L 4244 0
L 3434 0
L 1828 2303
L 1094 1600
L 1094 0
L 488 0
L 488 4591
z
" transform="scale(0.015625)"/>
       <path id="Helvetica-6d" d="M 413 3347
L 969 3347
L 969 2872
Q 1169 3119 1331 3231
Q 1609 3422 1963 3422
Q 2363 3422 2606 3225
Q 2744 3113 2856 2894
Q 3044 3163 3297 3292
Q 3550 3422 3866 3422
Q 4541 3422 4784 2934
Q 4916 2672 4916 2228
L 4916 0
L 4331 0
L 4331 2325
Q 4331 2659 4164 2784
Q 3997 2909 3756 2909
Q 3425 2909 3186 2687
Q 2947 2466 2947 1947
L 2947 0
L 2375 0
L 2375 2184
Q 2375 2525 2294 2681
Q 2166 2916 1816 2916
Q 1497 2916 1236 2669
Q 975 2422 975 1775
L 975 0
L 413 0
L 413 3347
z
" transform="scale(0.015625)"/>
       <path id="Helvetica-67" d="M 1594 3406
Q 1988 3406 2281 3213
Q 2441 3103 2606 2894
L 2606 3316
L 3125 3316
L 3125 272
Q 3125 -366 2938 -734
Q 2588 -1416 1616 -1416
Q 1075 -1416 706 -1173
Q 338 -931 294 -416
L 866 -416
Q 906 -641 1028 -763
Q 1219 -950 1628 -950
Q 2275 -950 2475 -494
Q 2594 -225 2584 466
Q 2416 209 2178 84
Q 1941 -41 1550 -41
Q 1006 -41 598 345
Q 191 731 191 1622
Q 191 2463 602 2934
Q 1013 3406 1594 3406
z
M 2606 1688
Q 2606 2309 2350 2609
Q 2094 2909 1697 2909
Q 1103 2909 884 2353
Q 769 2056 769 1575
Q 769 1009 998 714
Q 1228 419 1616 419
Q 2222 419 2469 966
Q 2606 1275 2606 1688
z
M 1659 3428
L 1659 3428
z
" transform="scale(0.015625)"/>
       <path id="Helvetica-76" d="M 688 3347
L 1581 622
L 2516 3347
L 3131 3347
L 1869 0
L 1269 0
L 34 3347
L 688 3347
z
" transform="scale(0.015625)"/>
      </defs>
      <use xlink:href="#Helvetica-4b"/>
      <use xlink:href="#Helvetica-6f" x="66.699219"/>
      <use xlink:href="#Helvetica-6c" x="122.314453"/>
      <use xlink:href="#Helvetica-6d" x="144.53125"/>
      <use xlink:href="#Helvetica-6f" x="227.832031"/>
      <use xlink:href="#Helvetica-67" x="283.447266"/>
      <use xlink:href="#Helvetica-6f" x="339.0625"/>
      <use xlink:href="#Helvetica-72" x="394.677734"/>
      <use xlink:href="#Helvetica-6f" x="427.978516"/>
      <use xlink:href="#Helvetica-76" x="483.59375"/>
      <use xlink:href="#Helvetica-2d" x="533.59375"/>
      <use xlink:href="#Helvetica-53" x="566.894531"/>
      <use xlink:href="#Helvetica-6d" x="633.59375"/>
      <use xlink:href="#Helvetica-69" x="716.894531"/>
      <use xlink:href="#Helvetica-72" x="739.111328"/>
      <use xlink:href="#Helvetica-6e" x="772.412109"/>
      <use xlink:href="#Helvetica-6f" x="828.027344"/>
      <use xlink:href="#Helvetica-76" x="883.642578"/>
      <use xlink:href="#Helvetica-20" x="933.642578"/>
      <use xlink:href="#Helvetica-53" x="961.425781"/>
      <use xlink:href="#Helvetica-74" x="1028.125"/>
      <use xlink:href="#Helvetica-61" x="1055.908203"/>
      <use xlink:href="#Helvetica-74" x="1111.523438"/>
      <use xlink:href="#Helvetica-69" x="1139.306641"/>
      <use xlink:href="#Helvetica-73" x="1161.523438"/>
      <use xlink:href="#Helvetica-74" x="1211.523438"/>
      <use xlink:href="#Helvetica-69" x="1239.306641"/>
      <use xlink:href="#Helvetica-63" x="1261.523438"/>
     </g>
    </g>
   </g>
   <g id="line2d_31">
    <path d="M 475.954432 162.044502
L 478.157127 157.039768
L 480.359821 151.845292
L 482.562516 146.633764
L 484.765211 141.374598
L 486.967906 136.113808
L 489.170601 130.920415
L 491.373295 125.707263
L 493.57599 120.605087
L 495.778685 115.64772
L 497.98138 110.811344
L 500.184075 106.264317
L 502.386769 101.931122
L 504.589464 97.892688
L 506.792159 94.063214
L 508.994854 90.399391
L 511.197549 86.807297
L 513.400244 83.121279
L 515.602938 79.446629
L 517.805633 75.882955
L 520.008328 72.559639
L 522.211023 69.476679
L 524.413718 66.598348
L 526.616412 63.915713
L 528.819107 61.445015
L 531.021802 59.188147
L 533.224497 57.093413
L 535.427192 55.170826
L 537.629886 53.270164
L 539.832581 51.447185
L 542.035276 49.728956
L 544.237971 48.144981
L 546.440666 46.717184
L 548.64336 45.452602
L 550.846055 44.307116
L 553.04875 43.206561
L 555.251445 42.167179
L 557.45414 41.155676
L 559.656834 40.213736
L 561.859529 39.33378
L 564.062224 38.535025
L 566.264919 37.865381
L 568.467614 37.245541
L 570.670308 36.660347
L 572.873003 36.093289
L 575.075698 35.564936
L 577.278393 35.096673
L 579.481088 34.699055
L 581.683782 34.365857
L 583.886477 34.078132
L 586.089172 33.847248
L 588.291867 33.649116
L 590.494562 33.482653
L 592.697256 33.326475
L 594.899951 33.195469
L 597.102646 33.080433
L 599.305341 32.991923
L 601.508036 32.922361
L 603.710731 32.870933
L 605.913425 32.82546
L 608.11612 32.796227
L 610.318815 32.771596
L 612.52151 32.754814
L 614.724205 32.742093
L 616.926899 32.734514
L 619.129594 32.729642
L 621.332289 32.725582
L 623.534984 32.722875
L 625.737679 32.721251
L 627.940373 32.72098
L 630.143068 32.719627
" clip-path="url(#pe40274f65f)" style="fill: none; stroke: #dd4040; stroke-width: 1.5; stroke-linecap: square"/>
   </g>
   <g id="patch_17">
    <path d="M 468.245 174.04
L 468.245 25.6875
" style="fill: none; stroke: #000000; stroke-width: 0.8; stroke-linejoin: miter; stroke-linecap: square"/>
   </g>
   <g id="patch_18">
    <path d="M 637.8525 174.04
L 637.8525 25.6875
" style="fill: none; stroke: #000000; stroke-width: 0.8; stroke-linejoin: miter; stroke-linecap: square"/>
   </g>
   <g id="patch_19">
    <path d="M 468.245 174.04
L 637.8525 174.04
" style="fill: none; stroke: #000000; stroke-width: 0.8; stroke-linejoin: miter; stroke-linecap: square"/>
   </g>
   <g id="patch_20">
    <path d="M 468.245 25.6875
L 637.8525 25.6875
" style="fill: none; stroke: #000000; stroke-width: 0.8; stroke-linejoin: miter; stroke-linecap: square"/>
   </g>
   <g id="text_39">
    <!-- Kolmogorov-Smirnov Statistic -->
    <g transform="translate(474.360625 19.6875) scale(0.12 -0.12)">
     <use xlink:href="#Helvetica-4b"/>
     <use xlink:href="#Helvetica-6f" x="66.699219"/>
     <use xlink:href="#Helvetica-6c" x="122.314453"/>
     <use xlink:href="#Helvetica-6d" x="144.53125"/>
     <use xlink:href="#Helvetica-6f" x="227.832031"/>
     <use xlink:href="#Helvetica-67" x="283.447266"/>
     <use xlink:href="#Helvetica-6f" x="339.0625"/>
     <use xlink:href="#Helvetica-72" x="394.677734"/>
     <use xlink:href="#Helvetica-6f" x="427.978516"/>
     <use xlink:href="#Helvetica-76" x="483.59375"/>
     <use xlink:href="#Helvetica-2d" x="533.59375"/>
     <use xlink:href="#Helvetica-53" x="566.894531"/>
     <use xlink:href="#Helvetica-6d" x="633.59375"/>
     <use xlink:href="#Helvetica-69" x="716.894531"/>
     <use xlink:href="#Helvetica-72" x="739.111328"/>
     <use xlink:href="#Helvetica-6e" x="772.412109"/>
     <use xlink:href="#Helvetica-6f" x="828.027344"/>
     <use xlink:href="#Helvetica-76" x="883.642578"/>
     <use xlink:href="#Helvetica-20" x="933.642578"/>
     <use xlink:href="#Helvetica-53" x="961.425781"/>
     <use xlink:href="#Helvetica-74" x="1028.125"/>
     <use xlink:href="#Helvetica-61" x="1055.908203"/>
     <use xlink:href="#Helvetica-74" x="1111.523438"/>
     <use xlink:href="#Helvetica-69" x="1139.306641"/>
     <use xlink:href="#Helvetica-73" x="1161.523438"/>
     <use xlink:href="#Helvetica-74" x="1211.523438"/>
     <use xlink:href="#Helvetica-69" x="1239.306641"/>
     <use xlink:href="#Helvetica-63" x="1261.523438"/>
    </g>
   </g>
   <g id="legend_3">
    <g id="patch_21">
     <path d="M 561.894687 169.04
L 630.8525 169.04
Q 632.8525 169.04 632.8525 167.04
L 632.8525 153.782188
Q 632.8525 151.782188 630.8525 151.782188
L 561.894687 151.782188
Q 559.894687 151.782188 559.894687 153.782188
L 559.894687 167.04
Q 559.894687 169.04 561.894687 169.04
z
" style="fill: #ffffff; opacity: 0.8; stroke: #cccccc; stroke-linejoin: miter"/>
    </g>
    <g id="patch_22">
     <path d="M 563.894687 162.955625
L 583.894687 162.955625
L 583.894687 155.955625
L 563.894687 155.955625
z
" style="fill: #f8dcdc; stroke: #f8dcdc; stroke-linejoin: miter"/>
    </g>
    <g id="text_40">
     <!-- +/- 3 SD -->
     <g transform="translate(591.894687 162.955625) scale(0.1 -0.1)">
      <use xlink:href="#Helvetica-2b"/>
      <use xlink:href="#Helvetica-2f" x="58.398438"/>
      <use xlink:href="#Helvetica-2d" x="86.181641"/>
      <use xlink:href="#Helvetica-20" x="119.482422"/>
      <use xlink:href="#Helvetica-33" x="147.265625"/>
      <use xlink:href="#Helvetica-20" x="202.880859"/>
      <use xlink:href="#Helvetica-53" x="230.664062"/>
      <use xlink:href="#Helvetica-44" x="297.363281"/>
     </g>
    </g>
   </g>
  </g>
  <g id="axes_4">
   <g id="patch_23">
    <path d="M 683.5925 174.04
L 853.2 174.04
L 853.2 25.6875
L 683.5925 25.6875
z
" style="fill: #ffffff"/>
   </g>
   <g id="PolyCollection_4">
    <defs>
     <path id="mc99bb00f13" d="M 691.301932 -49.736154
L 691.301932 -48.703295
L 693.504627 -48.839108
L 695.707321 -49.226152
L 697.910016 -49.964355
L 700.112711 -50.982552
L 702.315406 -52.349898
L 704.518101 -53.997176
L 706.720795 -55.959164
L 708.92349 -58.148176
L 711.126185 -60.603922
L 713.32888 -63.239443
L 715.531575 -66.050065
L 717.734269 -69.192535
L 719.936964 -72.48354
L 722.139659 -75.874225
L 724.342354 -79.513064
L 726.545049 -83.198884
L 728.747744 -87.062024
L 730.950438 -90.874004
L 733.153133 -94.589114
L 735.355828 -98.521708
L 737.558523 -102.531188
L 739.761218 -106.482026
L 741.963912 -110.329176
L 744.166607 -114.179078
L 746.369302 -117.88272
L 748.571997 -121.826395
L 750.774692 -125.536636
L 752.977386 -128.94783
L 755.180081 -132.351433
L 757.382776 -135.510909
L 759.585471 -138.89689
L 761.788166 -142.236282
L 763.99086 -144.952018
L 766.193555 -147.789328
L 768.39625 -150.324975
L 770.598945 -152.934076
L 772.80164 -155.467499
L 775.004334 -157.766426
L 777.207029 -159.741046
L 779.409724 -161.604439
L 781.612419 -163.475754
L 783.815114 -165.123188
L 786.017808 -166.757729
L 788.220503 -168.504237
L 790.423198 -170.012586
L 792.625893 -171.177259
L 794.828588 -172.442639
L 797.031282 -173.492193
L 799.233977 -174.45579
L 801.436672 -175.371761
L 803.639367 -176.202621
L 805.842062 -176.906602
L 808.044756 -177.546291
L 810.247451 -178.079255
L 812.450146 -178.568098
L 814.652841 -179.075425
L 816.855536 -179.523099
L 819.058231 -179.953974
L 821.260925 -180.334856
L 823.46362 -180.665373
L 825.666315 -180.915484
L 827.86901 -181.150878
L 830.071705 -181.410747
L 832.274399 -181.584977
L 834.477094 -181.793161
L 836.679789 -181.945556
L 838.882484 -182.066325
L 841.085179 -182.16925
L 843.287873 -182.263059
L 845.490568 -182.352155
L 845.490568 -183.171082
L 845.490568 -183.171082
L 843.287873 -183.23246
L 841.085179 -183.294009
L 838.882484 -183.347929
L 836.679789 -183.404898
L 834.477094 -183.455909
L 832.274399 -183.496397
L 830.071705 -183.515699
L 827.86901 -183.569205
L 825.666315 -183.558568
L 823.46362 -183.535458
L 821.260925 -183.52788
L 819.058231 -183.496065
L 816.855536 -183.441721
L 814.652841 -183.341748
L 812.450146 -183.204069
L 810.247451 -182.945587
L 808.044756 -182.641142
L 805.842062 -182.349309
L 803.639367 -182.075175
L 801.436672 -181.834426
L 799.233977 -181.429438
L 797.031282 -180.899019
L 794.828588 -180.241389
L 792.625893 -179.478512
L 790.423198 -178.409104
L 788.220503 -177.520261
L 786.017808 -176.610742
L 783.815114 -175.26822
L 781.612419 -173.935771
L 779.409724 -172.505744
L 777.207029 -170.675435
L 775.004334 -168.671305
L 772.80164 -166.757761
L 770.598945 -164.877948
L 768.39625 -162.737498
L 766.193555 -160.286147
L 763.99086 -157.500597
L 761.788166 -154.37765
L 759.585471 -151.66636
L 757.382776 -148.629904
L 755.180081 -145.285965
L 752.977386 -141.771809
L 750.774692 -138.085192
L 748.571997 -134.233001
L 746.369302 -130.580952
L 744.166607 -126.56363
L 741.963912 -122.454172
L 739.761218 -118.068295
L 737.558523 -113.821736
L 735.355828 -109.693173
L 733.153133 -105.467533
L 730.950438 -101.205459
L 728.747744 -97.038313
L 726.545049 -93.082805
L 724.342354 -88.967247
L 722.139659 -84.995994
L 719.936964 -80.901604
L 717.734269 -77.108811
L 715.531575 -73.463964
L 713.32888 -69.91107
L 711.126185 -66.627015
L 708.92349 -63.660754
L 706.720795 -60.892355
L 704.518101 -58.425839
L 702.315406 -56.195753
L 700.112711 -54.280725
L 697.910016 -52.613744
L 695.707321 -51.30164
L 693.504627 -50.30688
L 691.301932 -49.736154
z
" style="stroke: #f8dcdc"/>
    </defs>
    <g clip-path="url(#p4872f49a1b)">
     <use xlink:href="#mc99bb00f13" x="0" y="216" style="fill: #f8dcdc; stroke: #f8dcdc"/>
    </g>
   </g>
   <g id="matplotlib.axis_7">
    <g id="xtick_13">
     <g id="line2d_32">
      <g>
       <use xlink:href="#m4a35247e7c" x="691.301932" y="174.04" style="stroke: #000000; stroke-width: 0.8"/>
      </g>
     </g>
     <g id="text_41">
      <!-- 0 -->
      <g transform="translate(688.521463 188.213437) scale(0.1 -0.1)">
       <use xlink:href="#Helvetica-30"/>
      </g>
     </g>
    </g>
    <g id="xtick_14">
     <g id="line2d_33">
      <g>
       <use xlink:href="#m4a35247e7c" x="735.355828" y="174.04" style="stroke: #000000; stroke-width: 0.8"/>
      </g>
     </g>
     <g id="text_42">
      <!-- 2 -->
      <g transform="translate(732.575359 188.213437) scale(0.1 -0.1)">
       <use xlink:href="#Helvetica-32"/>
      </g>
     </g>
    </g>
    <g id="xtick_15">
     <g id="line2d_34">
      <g>
       <use xlink:href="#m4a35247e7c" x="779.409724" y="174.04" style="stroke: #000000; stroke-width: 0.8"/>
      </g>
     </g>
     <g id="text_43">
      <!-- 4 -->
      <g transform="translate(776.629255 188.213437) scale(0.1 -0.1)">
       <use xlink:href="#Helvetica-34"/>
      </g>
     </g>
    </g>
    <g id="xtick_16">
     <g id="line2d_35">
      <g>
       <use xlink:href="#m4a35247e7c" x="823.46362" y="174.04" style="stroke: #000000; stroke-width: 0.8"/>
      </g>
     </g>
     <g id="text_44">
      <!-- 6 -->
      <g transform="translate(820.683151 188.213437) scale(0.1 -0.1)">
       <use xlink:href="#Helvetica-36"/>
      </g>
     </g>
    </g>
    <g id="text_45">
     <!-- Mean of Analysis Distribution -->
     <g transform="translate(703.926719 201.572812) scale(0.1 -0.1)">
      <use xlink:href="#Helvetica-4d"/>
      <use xlink:href="#Helvetica-65" x="83.300781"/>
      <use xlink:href="#Helvetica-61" x="138.916016"/>
      <use xlink:href="#Helvetica-6e" x="194.53125"/>
      <use xlink:href="#Helvetica-20" x="250.146484"/>
      <use xlink:href="#Helvetica-6f" x="277.929688"/>
      <use xlink:href="#Helvetica-66" x="333.544922"/>
      <use xlink:href="#Helvetica-20" x="361.328125"/>
      <use xlink:href="#Helvetica-41" x="389.111328"/>
      <use xlink:href="#Helvetica-6e" x="455.810547"/>
      <use xlink:href="#Helvetica-61" x="511.425781"/>
      <use xlink:href="#Helvetica-6c" x="567.041016"/>
      <use xlink:href="#Helvetica-79" x="589.257812"/>
      <use xlink:href="#Helvetica-73" x="639.257812"/>
      <use xlink:href="#Helvetica-69" x="689.257812"/>
      <use xlink:href="#Helvetica-73" x="711.474609"/>
      <use xlink:href="#Helvetica-20" x="761.474609"/>
      <use xlink:href="#Helvetica-44" x="789.257812"/>
      <use xlink:href="#Helvetica-69" x="861.474609"/>
      <use xlink:href="#Helvetica-73" x="883.691406"/>
      <use xlink:href="#Helvetica-74" x="933.691406"/>
      <use xlink:href="#Helvetica-72" x="961.474609"/>
      <use xlink:href="#Helvetica-69" x="994.775391"/>
      <use xlink:href="#Helvetica-62" x="1016.992188"/>
      <use xlink:href="#Helvetica-75" x="1072.607422"/>
      <use xlink:href="#Helvetica-74" x="1128.222656"/>
      <use xlink:href="#Helvetica-69" x="1156.005859"/>
      <use xlink:href="#Helvetica-6f" x="1178.222656"/>
      <use xlink:href="#Helvetica-6e" x="1233.837891"/>
     </g>
    </g>
   </g>
   <g id="matplotlib.axis_8">
    <g id="ytick_17">
     <g id="line2d_36">
      <g>
       <use xlink:href="#mee247d14cc" x="683.5925" y="167.202744" style="stroke: #000000; stroke-width: 0.8"/>
      </g>
     </g>
     <g id="text_46">
      <!-- 0.0 -->
      <g transform="translate(662.6925 170.789463) scale(0.1 -0.1)">
       <use xlink:href="#Helvetica-30"/>
       <use xlink:href="#Helvetica-2e" x="55.615234"/>
       <use xlink:href="#Helvetica-30" x="83.398438"/>
      </g>
     </g>
    </g>
    <g id="ytick_18">
     <g id="line2d_37">
      <g>
       <use xlink:href="#mee247d14cc" x="683.5925" y="140.402078" style="stroke: #000000; stroke-width: 0.8"/>
      </g>
     </g>
     <g id="text_47">
      <!-- 0.2 -->
      <g transform="translate(662.6925 143.988796) scale(0.1 -0.1)">
       <use xlink:href="#Helvetica-30"/>
       <use xlink:href="#Helvetica-2e" x="55.615234"/>
       <use xlink:href="#Helvetica-32" x="83.398438"/>
      </g>
     </g>
    </g>
    <g id="ytick_19">
     <g id="line2d_38">
      <g>
       <use xlink:href="#mee247d14cc" x="683.5925" y="113.601411" style="stroke: #000000; stroke-width: 0.8"/>
      </g>
     </g>
     <g id="text_48">
      <!-- 0.4 -->
      <g transform="translate(662.6925 117.18813) scale(0.1 -0.1)">
       <use xlink:href="#Helvetica-30"/>
       <use xlink:href="#Helvetica-2e" x="55.615234"/>
       <use xlink:href="#Helvetica-34" x="83.398438"/>
      </g>
     </g>
    </g>
    <g id="ytick_20">
     <g id="line2d_39">
      <g>
       <use xlink:href="#mee247d14cc" x="683.5925" y="86.800744" style="stroke: #000000; stroke-width: 0.8"/>
      </g>
     </g>
     <g id="text_49">
      <!-- 0.6 -->
      <g transform="translate(662.6925 90.387463) scale(0.1 -0.1)">
       <use xlink:href="#Helvetica-30"/>
       <use xlink:href="#Helvetica-2e" x="55.615234"/>
       <use xlink:href="#Helvetica-36" x="83.398438"/>
      </g>
     </g>
    </g>
    <g id="ytick_21">
     <g id="line2d_40">
      <g>
       <use xlink:href="#mee247d14cc" x="683.5925" y="60.000078" style="stroke: #000000; stroke-width: 0.8"/>
      </g>
     </g>
     <g id="text_50">
      <!-- 0.8 -->
      <g transform="translate(662.6925 63.586796) scale(0.1 -0.1)">
       <use xlink:href="#Helvetica-30"/>
       <use xlink:href="#Helvetica-2e" x="55.615234"/>
       <use xlink:href="#Helvetica-38" x="83.398438"/>
      </g>
     </g>
    </g>
    <g id="ytick_22">
     <g id="line2d_41">
      <g>
       <use xlink:href="#mee247d14cc" x="683.5925" y="33.199411" style="stroke: #000000; stroke-width: 0.8"/>
      </g>
     </g>
     <g id="text_51">
      <!-- 1.0 -->
      <g transform="translate(662.6925 36.78613) scale(0.1 -0.1)">
       <use xlink:href="#Helvetica-31"/>
       <use xlink:href="#Helvetica-2e" x="55.615234"/>
       <use xlink:href="#Helvetica-30" x="83.398438"/>
      </g>
     </g>
    </g>
    <g id="text_52">
     <!-- Hellinger Distance -->
     <g transform="translate(656.48 140.435625) rotate(-90) scale(0.1 -0.1)">
      <defs>
       <path id="Helvetica-48" d="M 503 4591
L 1131 4591
L 1131 2694
L 3519 2694
L 3519 4591
L 4147 4591
L 4147 0
L 3519 0
L 3519 2147
L 1131 2147
L 1131 0
L 503 0
L 503 4591
z
" transform="scale(0.015625)"/>
      </defs>
      <use xlink:href="#Helvetica-48"/>
      <use xlink:href="#Helvetica-65" x="72.216797"/>
      <use xlink:href="#Helvetica-6c" x="127.832031"/>
      <use xlink:href="#Helvetica-6c" x="150.048828"/>
      <use xlink:href="#Helvetica-69" x="172.265625"/>
      <use xlink:href="#Helvetica-6e" x="194.482422"/>
      <use xlink:href="#Helvetica-67" x="250.097656"/>
      <use xlink:href="#Helvetica-65" x="305.712891"/>
      <use xlink:href="#Helvetica-72" x="361.328125"/>
      <use xlink:href="#Helvetica-20" x="394.628906"/>
      <use xlink:href="#Helvetica-44" x="422.412109"/>
      <use xlink:href="#Helvetica-69" x="494.628906"/>
      <use xlink:href="#Helvetica-73" x="516.845703"/>
      <use xlink:href="#Helvetica-74" x="566.845703"/>
      <use xlink:href="#Helvetica-61" x="594.628906"/>
      <use xlink:href="#Helvetica-6e" x="650.244141"/>
      <use xlink:href="#Helvetica-63" x="705.859375"/>
      <use xlink:href="#Helvetica-65" x="755.859375"/>
     </g>
    </g>
   </g>
   <g id="line2d_42">
    <path d="M 691.301932 166.780275
L 693.504627 166.427006
L 695.707321 165.736104
L 697.910016 164.71095
L 700.112711 163.368362
L 702.315406 161.727174
L 704.518101 159.788493
L 706.720795 157.574241
L 708.92349 155.095535
L 711.126185 152.384532
L 713.32888 149.424743
L 715.531575 146.242986
L 717.734269 142.849327
L 719.936964 139.307428
L 722.139659 135.564891
L 724.342354 131.759845
L 726.545049 127.859156
L 728.747744 123.949831
L 730.950438 119.960268
L 733.153133 115.971676
L 735.355828 111.89256
L 737.558523 107.823538
L 739.761218 103.724839
L 741.963912 99.608326
L 744.166607 95.628646
L 746.369302 91.768164
L 748.571997 87.970302
L 750.774692 84.189086
L 752.977386 80.64018
L 755.180081 77.181301
L 757.382776 73.929594
L 759.585471 70.718375
L 761.788166 67.693034
L 763.99086 64.773693
L 766.193555 61.962263
L 768.39625 59.468763
L 770.598945 57.093988
L 772.80164 54.88737
L 775.004334 52.781135
L 777.207029 50.79176
L 779.409724 48.944908
L 781.612419 47.294238
L 783.815114 45.804296
L 786.017808 44.315765
L 788.220503 42.987751
L 790.423198 41.789155
L 792.625893 40.672114
L 794.828588 39.657986
L 797.031282 38.804394
L 799.233977 38.057386
L 801.436672 37.396907
L 803.639367 36.861102
L 805.842062 36.372044
L 808.044756 35.906284
L 810.247451 35.487579
L 812.450146 35.113917
L 814.652841 34.791413
L 816.855536 34.51759
L 819.058231 34.274981
L 821.260925 34.068632
L 823.46362 33.899584
L 825.666315 33.762974
L 827.86901 33.639959
L 830.071705 33.536777
L 832.274399 33.459313
L 834.477094 33.375465
L 836.679789 33.324773
L 838.882484 33.292873
L 841.085179 33.268371
L 843.287873 33.25224
L 845.490568 33.238381
" clip-path="url(#p4872f49a1b)" style="fill: none; stroke: #dd4040; stroke-width: 1.5; stroke-linecap: square"/>
   </g>
   <g id="patch_24">
    <path d="M 683.5925 174.04
L 683.5925 25.6875
" style="fill: none; stroke: #000000; stroke-width: 0.8; stroke-linejoin: miter; stroke-linecap: square"/>
   </g>
   <g id="patch_25">
    <path d="M 853.2 174.04
L 853.2 25.6875
" style="fill: none; stroke: #000000; stroke-width: 0.8; stroke-linejoin: miter; stroke-linecap: square"/>
   </g>
   <g id="patch_26">
    <path d="M 683.5925 174.04
L 853.2 174.04
" style="fill: none; stroke: #000000; stroke-width: 0.8; stroke-linejoin: miter; stroke-linecap: square"/>
   </g>
   <g id="patch_27">
    <path d="M 683.5925 25.6875
L 853.2 25.6875
" style="fill: none; stroke: #000000; stroke-width: 0.8; stroke-linejoin: miter; stroke-linecap: square"/>
   </g>
   <g id="text_53">
    <!-- Hellinger Distance -->
    <g transform="translate(719.71 19.6875) scale(0.12 -0.12)">
     <use xlink:href="#Helvetica-48"/>
     <use xlink:href="#Helvetica-65" x="72.216797"/>
     <use xlink:href="#Helvetica-6c" x="127.832031"/>
     <use xlink:href="#Helvetica-6c" x="150.048828"/>
     <use xlink:href="#Helvetica-69" x="172.265625"/>
     <use xlink:href="#Helvetica-6e" x="194.482422"/>
     <use xlink:href="#Helvetica-67" x="250.097656"/>
     <use xlink:href="#Helvetica-65" x="305.712891"/>
     <use xlink:href="#Helvetica-72" x="361.328125"/>
     <use xlink:href="#Helvetica-20" x="394.628906"/>
     <use xlink:href="#Helvetica-44" x="422.412109"/>
     <use xlink:href="#Helvetica-69" x="494.628906"/>
     <use xlink:href="#Helvetica-73" x="516.845703"/>
     <use xlink:href="#Helvetica-74" x="566.845703"/>
     <use xlink:href="#Helvetica-61" x="594.628906"/>
     <use xlink:href="#Helvetica-6e" x="650.244141"/>
     <use xlink:href="#Helvetica-63" x="705.859375"/>
     <use xlink:href="#Helvetica-65" x="755.859375"/>
    </g>
   </g>
   <g id="legend_4">
    <g id="patch_28">
     <path d="M 690.5925 47.945312
L 759.550313 47.945312
Q 761.550313 47.945312 761.550313 45.945312
L 761.550313 32.6875
Q 761.550313 30.6875 759.550313 30.6875
L 690.5925 30.6875
Q 688.5925 30.6875 688.5925 32.6875
L 688.5925 45.945312
Q 688.5925 47.945312 690.5925 47.945312
z
" style="fill: #ffffff; opacity: 0.8; stroke: #cccccc; stroke-linejoin: miter"/>
    </g>
    <g id="patch_29">
     <path d="M 692.5925 41.860938
L 712.5925 41.860938
L 712.5925 34.860938
L 692.5925 34.860938
z
" style="fill: #f8dcdc; stroke: #f8dcdc; stroke-linejoin: miter"/>
    </g>
    <g id="text_54">
     <!-- +/- 3 SD -->
     <g transform="translate(720.5925 41.860938) scale(0.1 -0.1)">
      <use xlink:href="#Helvetica-2b"/>
      <use xlink:href="#Helvetica-2f" x="58.398438"/>
      <use xlink:href="#Helvetica-2d" x="86.181641"/>
      <use xlink:href="#Helvetica-20" x="119.482422"/>
      <use xlink:href="#Helvetica-33" x="147.265625"/>
      <use xlink:href="#Helvetica-20" x="202.880859"/>
      <use xlink:href="#Helvetica-53" x="230.664062"/>
      <use xlink:href="#Helvetica-44" x="297.363281"/>
     </g>
    </g>
   </g>
  </g>
 </g>
 <defs>
  <clipPath id="p03e699f7ed">
   <rect x="37.55" y="25.6875" width="169.6075" height="148.3525"/>
  </clipPath>
  <clipPath id="pb4f55aae94">
   <rect x="252.8975" y="25.6875" width="169.6075" height="148.3525"/>
  </clipPath>
  <clipPath id="pe40274f65f">
   <rect x="468.245" y="25.6875" width="169.6075" height="148.3525"/>
  </clipPath>
  <clipPath id="p4872f49a1b">
   <rect x="683.5925" y="25.6875" width="169.6075" height="148.3525"/>
  </clipPath>
 </defs>
</svg>
