<svg class="main-svg" xmlns="http://www.w3.org/2000/svg" xmlns:xlink="http://www.w3.org/1999/xlink" width="700" height="500" style="" viewBox="0 0 700 500"><rect x="0" y="0" width="700" height="500" style="fill: rgb(255, 255, 255); fill-opacity: 1;"/><defs id="defs-7f0dd9"><g class="clips"><clipPath id="clip7f0dd9xyplot" class="plotclip"><rect width="540" height="287"/></clipPath><clipPath class="axesclip" id="clip7f0dd9x"><rect x="80" y="0" width="540" height="500"/></clipPath><clipPath class="axesclip" id="clip7f0dd9y"><rect x="0" y="100" width="700" height="287"/></clipPath><clipPath class="axesclip" id="clip7f0dd9xy"><rect x="80" y="100" width="540" height="287"/></clipPath></g><g class="gradients"/><g class="patterns"/></defs><g class="bglayer"/><g class="layer-below"><g class="imagelayer"/><g class="shapelayer"/></g><g class="cartesianlayer"><g class="subplot xy"><g class="layer-subplot"><g class="shapelayer"/><g class="imagelayer"/></g><g class="minor-gridlayer"><g class="x"/><g class="y"/></g><g class="gridlayer"><g class="x"/><g class="y"/></g><g class="zerolinelayer"/><path class="xlines-below"/><path class="ylines-below"/><g class="overlines-below"/><g class="xaxislayer-below"/><g class="yaxislayer-below"/><g class="overaxes-below"/><g class="plot" transform="translate(80,100)" clip-path="url(#clip7f0dd9xyplot)"><g class="scatterlayer mlayer"><g class="trace scatter traceccc359" style="stroke-miterlimit: 2;"><g class="fills"><g><path class="js-fill" d="M23.94,272.65L23.94,14.35L23.41,14.35L23.3,17.98L23.29,18.14L22.11,25.86L22.07,26.02L19.33,33.12L19.25,33.27L5.16,50.94L5.04,51.09L1.69,56.14L1.61,56.3L0.38,60.24L0.36,60.4L0.59,64.18L0.62,64.34L2.85,69.23L2.96,69.39L11.58,79.64L11.72,79.79L18.45,88.62L18.54,88.78L21.32,94.77L21.38,94.93L23.17,102.97L23.19,103.13L23.86,172.36L23.85,172.52L22.91,185.76L22.88,185.92L20.87,193.33L20.81,193.49L17.36,199.95L17.25,200.11L6.94,212.25L6.8,212.41L2.38,218.09L2.28,218.25L0.38,222.5L0.33,222.66L0.05,226.29L0.06,226.45L1.52,231.02L1.6,231.18L9.58,241.27L9.73,241.43L16.75,249.78L16.86,249.94L20.5,256.41L20.57,256.56L22.65,263.66L22.68,263.82L23.41,272.65Z" style="fill: rgb(0, 200, 229); fill-opacity: 0.2; stroke-width: 0;"/></g></g><g class="errorbars"/><g class="lines"><path class="js-line" d="M23.41,272.65L22.68,263.82L22.65,263.66L20.57,256.56L20.5,256.41L16.86,249.94L16.75,249.78L9.73,241.43L9.58,241.27L1.6,231.18L1.52,231.02L0.06,226.45L0.05,226.29L0.33,222.66L0.38,222.5L2.28,218.25L2.38,218.09L6.8,212.41L6.94,212.25L17.25,200.11L17.36,199.95L20.81,193.49L20.87,193.33L22.88,185.92L22.91,185.76L23.85,172.52L23.86,172.36L23.19,103.13L23.17,102.97L21.38,94.93L21.32,94.77L18.54,88.78L18.45,88.62L11.72,79.79L11.58,79.64L2.96,69.39L2.85,69.23L0.62,64.34L0.59,64.18L0.36,60.4L0.38,60.24L1.61,56.3L1.69,56.14L5.04,51.09L5.16,50.94L19.25,33.27L19.33,33.12L22.07,26.02L22.11,25.86L23.29,18.14L23.3,17.98L23.41,14.35" style="vector-effect: non-scaling-stroke; fill: none; stroke: rgb(0, 200, 229); stroke-opacity: 1; stroke-width: 1px; opacity: 1;"/></g><g class="points"/><g class="text"/></g><g class="trace scatter trace159f5c" style="stroke-miterlimit: 2;"><g class="fills"/><g class="errorbars"/><g class="lines"><path class="js-line" d="M23.94,272.65L23.94,14.35" style="vector-effect: non-scaling-stroke; fill: none; stroke: rgb(0, 0, 0); stroke-opacity: 0; stroke-width: 1px; opacity: 1;"/></g><g class="points"/><g class="text"/></g><g class="trace scatter trace118964" style="stroke-miterlimit: 2; opacity: 1;"><g class="fills"/><g class="errorbars"/><g class="lines"><path class="js-line" d="M23.94,225.5L0,225.5" style="vector-effect: non-scaling-stroke; fill: none; stroke: rgb(0, 200, 229); stroke-opacity: 1; stroke-width: 1px; opacity: 1; stroke-dasharray: 3px, 3px;"/></g><g class="points"/><g class="text"/></g><g class="trace scatter trace5c64db" style="stroke-miterlimit: 2; opacity: 1;"><g class="fills"/><g class="errorbars"/><g class="lines"><path class="js-line" d="M23.94,185.6L22.93,185.6" style="vector-effect: non-scaling-stroke; fill: none; stroke: rgb(0, 200, 229); stroke-opacity: 1; stroke-width: 1px; opacity: 1; stroke-dasharray: 3px, 3px;"/></g><g class="points"/><g class="text"/></g><g class="trace scatter tracec85166" style="stroke-miterlimit: 2; opacity: 1;"><g class="fills"/><g class="errorbars"/><g class="lines"><path class="js-line" d="M23.94,61.82L0.29,61.82" style="vector-effect: non-scaling-stroke; fill: none; stroke: rgb(0, 200, 229); stroke-opacity: 1; stroke-width: 1px; opacity: 1; stroke-dasharray: 3px, 3px;"/></g><g class="points"/><g class="text"/></g><g class="trace scatter traced6e3f8" style="stroke-miterlimit: 2;"><g class="fills"><g><path class="js-fill" d="M49.97,272.65L49.97,14.35L49.44,14.35L49.12,20.34L49.1,20.5L47.45,28.23L47.39,28.38L44.57,34.53L44.48,34.69L31.21,50.93L31.08,51.09L28.07,55.51L27.98,55.67L26.43,60.24L26.41,60.4L26.64,64.18L26.68,64.34L28.71,68.91L28.8,69.07L37.05,79L37.19,79.16L43.49,87.05L43.59,87.2L47.35,94.77L47.4,94.93L49.2,102.97L49.22,103.13L49.88,172.36L49.88,172.52L49.23,183.71L49.21,183.87L47.75,190.97L47.7,191.12L44.54,198.22L44.45,198.38L33.44,211.94L33.3,212.1L29.27,217.14L29.16,217.3L26.86,221.87L26.81,222.03L26.36,226.45L26.38,226.6L27.88,231.18L27.97,231.33L36.92,242.53L37.06,242.69L42.29,249L42.41,249.15L46.36,255.93L46.43,256.09L48.66,263.5L48.69,263.66L49.44,272.65Z" style="fill: rgb(0, 200, 229); fill-opacity: 0.2; stroke-width: 0;"/></g></g><g class="errorbars"/><g class="lines"><path class="js-line" d="M49.44,272.65L48.69,263.66L48.66,263.5L46.43,256.09L46.36,255.93L42.41,249.15L42.29,249L37.06,242.69L36.92,242.53L27.97,231.33L27.88,231.18L26.38,226.6L26.36,226.45L26.81,222.03L26.86,221.87L29.16,217.3L29.27,217.14L33.3,212.1L33.44,211.94L44.45,198.38L44.54,198.22L47.7,191.12L47.75,190.97L49.21,183.87L49.23,183.71L49.88,172.52L49.88,172.36L49.22,103.13L49.2,102.97L47.4,94.93L47.35,94.77L43.59,87.2L43.49,87.05L37.19,79.16L37.05,79L28.8,69.07L28.71,68.91L26.68,64.34L26.64,64.18L26.41,60.4L26.43,60.24L27.98,55.67L28.07,55.51L31.08,51.09L31.21,50.93L44.48,34.69L44.57,34.53L47.39,28.38L47.45,28.23L49.1,20.5L49.12,20.34L49.44,14.35" style="vector-effect: non-scaling-stroke; fill: none; stroke: rgb(0, 200, 229); stroke-opacity: 1; stroke-width: 1px; opacity: 1;"/></g><g class="points"/><g class="text"/></g><g class="trace scatter tracedd30e1" style="stroke-miterlimit: 2;"><g class="fills"/><g class="errorbars"/><g class="lines"><path class="js-line" d="M49.97,272.65L49.97,14.35" style="vector-effect: non-scaling-stroke; fill: none; stroke: rgb(0, 0, 0); stroke-opacity: 0; stroke-width: 1px; opacity: 1;"/></g><g class="points"/><g class="text"/></g><g class="trace scatter trace4752d3" style="stroke-miterlimit: 2; opacity: 1;"><g class="fills"/><g class="errorbars"/><g class="lines"><path class="js-line" d="M49.97,225.34L26.3,225.34" style="vector-effect: non-scaling-stroke; fill: none; stroke: rgb(0, 200, 229); stroke-opacity: 1; stroke-width: 1px; opacity: 1; stroke-dasharray: 3px, 3px;"/></g><g class="points"/><g class="text"/></g><g class="trace scatter trace058dfc" style="stroke-miterlimit: 2; opacity: 1;"><g class="fills"/><g class="errorbars"/><g class="lines"><path class="js-line" d="M49.97,175.35L49.81,175.35" style="vector-effect: non-scaling-stroke; fill: none; stroke: rgb(0, 200, 229); stroke-opacity: 1; stroke-width: 1px; opacity: 1; stroke-dasharray: 3px, 3px;"/></g><g class="points"/><g class="text"/></g><g class="trace scatter tracefdfdb3" style="stroke-miterlimit: 2; opacity: 1;"><g class="fills"/><g class="errorbars"/><g class="lines"><path class="js-line" d="M49.97,61.66L26.34,61.66" style="vector-effect: non-scaling-stroke; fill: none; stroke: rgb(0, 200, 229); stroke-opacity: 1; stroke-width: 1px; opacity: 1; stroke-dasharray: 3px, 3px;"/></g><g class="points"/><g class="text"/></g><g class="trace scatter tracea565a6" style="stroke-miterlimit: 2;"><g class="fills"><g><path class="js-fill" d="M75.81,272.64L75.81,14.36L75.29,14.36L74.73,22.09L74.71,22.24L73.31,28.08L73.26,28.24L70.44,34.38L70.34,34.54L60.27,47L60.12,47.16L54.58,53.94L54.48,54.1L52.26,58.83L52.22,58.98L51.94,62.77L51.96,62.93L53.38,67.34L53.46,67.5L64.71,81.22L64.85,81.37L69.25,87.05L69.36,87.21L72.43,92.88L72.5,93.04L75.04,102.98L75.06,103.13L75.8,162.26L75.8,162.42L75.35,181.19L75.34,181.34L74.01,189.7L73.97,189.86L71.07,197.27L70.99,197.43L58.82,213.04L58.69,213.19L54.65,218.87L54.57,219.03L53.01,223.29L52.98,223.44L53.05,227.54L53.08,227.7L54.6,231.64L54.68,231.8L62.44,241.74L62.58,241.89L69.22,250.25L69.32,250.41L72.37,256.08L72.44,256.24L74.51,263.34L74.54,263.5L75.29,272.64Z" style="fill: rgb(0, 200, 229); fill-opacity: 0.2; stroke-width: 0;"/></g></g><g class="errorbars"/><g class="lines"><path class="js-line" d="M75.29,272.64L74.54,263.5L74.51,263.34L72.44,256.24L72.37,256.08L69.32,250.41L69.22,250.25L62.58,241.89L62.44,241.74L54.68,231.8L54.6,231.64L53.08,227.7L53.05,227.54L52.98,223.44L53.01,223.29L54.57,219.03L54.65,218.87L58.69,213.19L58.82,213.04L70.99,197.43L71.07,197.27L73.97,189.86L74.01,189.7L75.34,181.34L75.35,181.19L75.8,162.42L75.8,162.26L75.06,103.13L75.04,102.98L72.5,93.04L72.43,92.88L69.36,87.21L69.25,87.05L64.85,81.37L64.71,81.22L53.46,67.5L53.38,67.34L51.96,62.93L51.94,62.77L52.22,58.98L52.26,58.83L54.48,54.1L54.58,53.94L60.12,47.16L60.27,47L70.34,34.54L70.44,34.38L73.26,28.24L73.31,28.08L74.71,22.24L74.73,22.09L75.29,14.36" style="vector-effect: non-scaling-stroke; fill: none; stroke: rgb(0, 200, 229); stroke-opacity: 1; stroke-width: 1px; opacity: 1;"/></g><g class="points"/><g class="text"/></g><g class="trace scatter trace322dac" style="stroke-miterlimit: 2;"><g class="fills"/><g class="errorbars"/><g class="lines"><path class="js-line" d="M75.81,272.64L75.81,14.36" style="vector-effect: non-scaling-stroke; fill: none; stroke: rgb(0, 0, 0); stroke-opacity: 0; stroke-width: 1px; opacity: 1;"/></g><g class="points"/><g class="text"/></g><g class="trace scatter trace622f4e" style="stroke-miterlimit: 2; opacity: 1;"><g class="fills"/><g class="errorbars"/><g class="lines"><path class="js-line" d="M75.81,224.86L52.83,224.86" style="vector-effect: non-scaling-stroke; fill: none; stroke: rgb(0, 200, 229); stroke-opacity: 1; stroke-width: 1px; opacity: 1; stroke-dasharray: 3px, 3px;"/></g><g class="points"/><g class="text"/></g><g class="trace scatter traceb1e4c9" style="stroke-miterlimit: 2; opacity: 1;"><g class="fills"/><g class="errorbars"/><g class="lines"><path class="js-line" d="M75.81,94.15L72.94,94.15" style="vector-effect: non-scaling-stroke; fill: none; stroke: rgb(0, 200, 229); stroke-opacity: 1; stroke-width: 1px; opacity: 1; stroke-dasharray: 3px, 3px;"/></g><g class="points"/><g class="text"/></g><g class="trace scatter trace2983e0" style="stroke-miterlimit: 2; opacity: 1;"><g class="fills"/><g class="errorbars"/><g class="lines"><path class="js-line" d="M75.81,61.35L51.88,61.35" style="vector-effect: non-scaling-stroke; fill: none; stroke: rgb(0, 200, 229); stroke-opacity: 1; stroke-width: 1px; opacity: 1; stroke-dasharray: 3px, 3px;"/></g><g class="points"/><g class="text"/></g><g class="trace scatter trace216a7a" style="stroke-miterlimit: 2;"><g class="fills"><g><path class="js-fill" d="M101.46,272.65L101.46,14.35L100.94,14.35L100.61,20.34L100.59,20.5L99.18,27.44L99.14,27.6L96.14,34.38L96.05,34.54L83.71,49.67L83.57,49.83L79.96,54.72L79.86,54.88L78.12,58.98L78.08,59.14L77.87,63.08L77.89,63.24L79.34,67.49L79.42,67.65L90.19,80.9L90.33,81.05L94.96,87.05L95.07,87.2L98.84,94.77L98.89,94.93L100.69,102.97L100.71,103.13L101.45,161.95L101.45,162.11L101,181.03L100.99,181.19L99.42,190.49L99.37,190.65L96.75,197.11L96.66,197.27L83.11,214.46L82.99,214.62L79.59,219.82L79.51,219.98L78.3,224.08L78.28,224.24L78.53,227.86L78.57,228.02L80.87,233.07L80.97,233.23L88.93,242.84L89.07,243L94.9,250.41L95,250.57L98.72,257.98L98.78,258.14L100.17,263.5L100.2,263.66L100.94,272.65Z" style="fill: rgb(0, 200, 229); fill-opacity: 0.2; stroke-width: 0;"/></g></g><g class="errorbars"/><g class="lines"><path class="js-line" d="M100.94,272.65L100.2,263.66L100.17,263.5L98.78,258.14L98.72,257.98L95,250.57L94.9,250.41L89.07,243L88.93,242.84L80.97,233.23L80.87,233.07L78.57,228.02L78.53,227.86L78.28,224.24L78.3,224.08L79.51,219.98L79.59,219.82L82.99,214.62L83.11,214.46L96.66,197.27L96.75,197.11L99.37,190.65L99.42,190.49L100.99,181.19L101,181.03L101.45,162.11L101.45,161.95L100.71,103.13L100.69,102.97L98.89,94.93L98.84,94.77L95.07,87.2L94.96,87.05L90.33,81.05L90.19,80.9L79.42,67.65L79.34,67.49L77.89,63.24L77.87,63.08L78.08,59.14L78.12,58.98L79.86,54.88L79.96,54.72L83.57,49.83L83.71,49.67L96.05,34.54L96.14,34.38L99.14,27.6L99.18,27.44L100.59,20.5L100.61,20.34L100.94,14.35" style="vector-effect: non-scaling-stroke; fill: none; stroke: rgb(0, 200, 229); stroke-opacity: 1; stroke-width: 1px; opacity: 1;"/></g><g class="points"/><g class="text"/></g><g class="trace scatter tracec346f0" style="stroke-miterlimit: 2;"><g class="fills"/><g class="errorbars"/><g class="lines"><path class="js-line" d="M101.46,272.65L101.46,14.35" style="vector-effect: non-scaling-stroke; fill: none; stroke: rgb(0, 0, 0); stroke-opacity: 0; stroke-width: 1px; opacity: 1;"/></g><g class="points"/><g class="text"/></g><g class="trace scatter trace1bf11a" style="stroke-miterlimit: 2; opacity: 1;"><g class="fills"/><g class="errorbars"/><g class="lines"><path class="js-line" d="M101.46,225.18L78.23,225.18" style="vector-effect: non-scaling-stroke; fill: none; stroke: rgb(0, 200, 229); stroke-opacity: 1; stroke-width: 1px; opacity: 1; stroke-dasharray: 3px, 3px;"/></g><g class="points"/><g class="text"/></g><g class="trace scatter trace165d2a" style="stroke-miterlimit: 2; opacity: 1;"><g class="fills"/><g class="errorbars"/><g class="lines"><path class="js-line" d="M101.46,98.72L99.95,98.72" style="vector-effect: non-scaling-stroke; fill: none; stroke: rgb(0, 200, 229); stroke-opacity: 1; stroke-width: 1px; opacity: 1; stroke-dasharray: 3px, 3px;"/></g><g class="points"/><g class="text"/></g><g class="trace scatter trace88a7f0" style="stroke-miterlimit: 2; opacity: 1;"><g class="fills"/><g class="errorbars"/><g class="lines"><path class="js-line" d="M101.46,61.5L77.78,61.5" style="vector-effect: non-scaling-stroke; fill: none; stroke: rgb(0, 200, 229); stroke-opacity: 1; stroke-width: 1px; opacity: 1; stroke-dasharray: 3px, 3px;"/></g><g class="points"/><g class="text"/></g><g class="trace scatter trace6dc264" style="stroke-miterlimit: 2;"><g class="fills"><g><path class="js-fill" d="M127.1,272.64L127.1,14.36L126.56,14.36L126.26,20.03L126.24,20.19L124.44,28.39L124.38,28.55L121.79,34.07L121.7,34.23L109.34,49.05L109.2,49.21L104.81,54.88L104.72,55.04L103.01,58.98L102.97,59.14L102.74,62.92L102.76,63.08L104.03,67.02L104.11,67.18L114.47,79.8L114.62,79.95L121.03,88L121.13,88.15L124.56,95.25L124.61,95.41L126.34,103.29L126.36,103.45L127.01,172.51L127.01,172.67L126.37,183.71L126.35,183.87L124.84,191.12L124.8,191.28L121.71,198.22L121.61,198.37L108.39,214.61L108.26,214.77L104.94,219.82L104.87,219.98L103.65,223.92L103.63,224.08L104.03,228.49L104.08,228.65L107.33,234.64L107.45,234.8L114.12,242.52L114.26,242.68L120.56,250.57L120.66,250.72L123.64,256.24L123.71,256.4L125.8,263.5L125.82,263.65L126.56,272.64Z" style="fill: rgb(0, 200, 229); fill-opacity: 0.2; stroke-width: 0;"/></g></g><g class="errorbars"/><g class="lines"><path class="js-line" d="M126.56,272.64L125.82,263.65L125.8,263.5L123.71,256.4L123.64,256.24L120.66,250.72L120.56,250.57L114.26,242.68L114.12,242.52L107.45,234.8L107.33,234.64L104.08,228.65L104.03,228.49L103.63,224.08L103.65,223.92L104.87,219.98L104.94,219.82L108.26,214.77L108.39,214.61L121.61,198.37L121.71,198.22L124.8,191.28L124.84,191.12L126.35,183.87L126.37,183.71L127.01,172.67L127.01,172.51L126.36,103.45L126.34,103.29L124.61,95.41L124.56,95.25L121.13,88.15L121.03,88L114.62,79.95L114.47,79.8L104.11,67.18L104.03,67.02L102.76,63.08L102.74,62.92L102.97,59.14L103.01,58.98L104.72,55.04L104.81,54.88L109.2,49.21L109.34,49.05L121.7,34.23L121.79,34.07L124.38,28.55L124.44,28.39L126.24,20.19L126.26,20.03L126.56,14.36" style="vector-effect: non-scaling-stroke; fill: none; stroke: rgb(0, 200, 229); stroke-opacity: 1; stroke-width: 1px; opacity: 1;"/></g><g class="points"/><g class="text"/></g><g class="trace scatter trace57a28a" style="stroke-miterlimit: 2;"><g class="fills"/><g class="errorbars"/><g class="lines"><path class="js-line" d="M127.1,272.64L127.1,14.36" style="vector-effect: non-scaling-stroke; fill: none; stroke: rgb(0, 0, 0); stroke-opacity: 0; stroke-width: 1px; opacity: 1;"/></g><g class="points"/><g class="text"/></g><g class="trace scatter trace83b1ba" style="stroke-miterlimit: 2; opacity: 1;"><g class="fills"/><g class="errorbars"/><g class="lines"><path class="js-line" d="M127.1,224.86L103.57,224.86" style="vector-effect: non-scaling-stroke; fill: none; stroke: rgb(0, 200, 229); stroke-opacity: 1; stroke-width: 1px; opacity: 1; stroke-dasharray: 3px, 3px;"/></g><g class="points"/><g class="text"/></g><g class="trace scatter trace10e2dc" style="stroke-miterlimit: 2; opacity: 1;"><g class="fills"/><g class="errorbars"/><g class="lines"><path class="js-line" d="M127.1,94.62L124.34,94.62" style="vector-effect: non-scaling-stroke; fill: none; stroke: rgb(0, 200, 229); stroke-opacity: 1; stroke-width: 1px; opacity: 1; stroke-dasharray: 3px, 3px;"/></g><g class="points"/><g class="text"/></g><g class="trace scatter trace194421" style="stroke-miterlimit: 2; opacity: 1;"><g class="fills"/><g class="errorbars"/><g class="lines"><path class="js-line" d="M127.1,61.35L102.66,61.35" style="vector-effect: non-scaling-stroke; fill: none; stroke: rgb(0, 200, 229); stroke-opacity: 1; stroke-width: 1px; opacity: 1; stroke-dasharray: 3px, 3px;"/></g><g class="points"/><g class="text"/></g><g class="trace scatter traceaf41dd" style="stroke-miterlimit: 2;"><g class="fills"><g><path class="js-fill" d="M153.32,272.65L153.32,14.35L152.8,14.35L152.68,17.98L152.67,18.13L151.06,27.44L151.01,27.6L147.83,34.69L147.74,34.85L137.69,47.31L137.55,47.47L132.46,53.77L132.35,53.93L130.06,58.82L130.02,58.98L129.78,63.08L129.8,63.23L131.16,67.33L131.24,67.49L142.21,81.05L142.35,81.21L147.25,87.68L147.35,87.83L150.65,94.62L150.71,94.77L152.55,102.97L152.57,103.13L153.22,173.3L153.22,173.46L152.61,183.55L152.59,183.71L151.1,190.97L151.05,191.12L147.89,198.22L147.8,198.38L136.63,212.1L136.49,212.25L131.98,218.09L131.88,218.25L130,222.5L129.96,222.66L129.77,227.08L129.8,227.23L131.92,232.44L132.02,232.6L137.97,240.01L138.11,240.17L145.64,249L145.75,249.15L149.71,255.93L149.78,256.09L152.02,263.5L152.05,263.66L152.8,272.65Z" style="fill: rgb(0, 200, 229); fill-opacity: 0.2; stroke-width: 0;"/></g></g><g class="errorbars"/><g class="lines"><path class="js-line" d="M152.8,272.65L152.05,263.66L152.02,263.5L149.78,256.09L149.71,255.93L145.75,249.15L145.64,249L138.11,240.17L137.97,240.01L132.02,232.6L131.92,232.44L129.8,227.23L129.77,227.08L129.96,222.66L130,222.5L131.88,218.25L131.98,218.09L136.49,212.25L136.63,212.1L147.8,198.38L147.89,198.22L151.05,191.12L151.1,190.97L152.59,183.71L152.61,183.55L153.22,173.46L153.22,173.3L152.57,103.13L152.55,102.97L150.71,94.77L150.65,94.62L147.35,87.83L147.25,87.68L142.35,81.21L142.21,81.05L131.24,67.49L131.16,67.33L129.8,63.23L129.78,63.08L130.02,58.98L130.06,58.82L132.35,53.93L132.46,53.77L137.55,47.47L137.69,47.31L147.74,34.85L147.83,34.69L151.01,27.6L151.06,27.44L152.67,18.13L152.68,17.98L152.8,14.35" style="vector-effect: non-scaling-stroke; fill: none; stroke: rgb(0, 200, 229); stroke-opacity: 1; stroke-width: 1px; opacity: 1;"/></g><g class="points"/><g class="text"/></g><g class="trace scatter trace627b26" style="stroke-miterlimit: 2;"><g class="fills"/><g class="errorbars"/><g class="lines"><path class="js-line" d="M153.32,272.65L153.32,14.35" style="vector-effect: non-scaling-stroke; fill: none; stroke: rgb(0, 0, 0); stroke-opacity: 0; stroke-width: 1px; opacity: 1;"/></g><g class="points"/><g class="text"/></g><g class="trace scatter trace58fb02" style="stroke-miterlimit: 2; opacity: 1;"><g class="fills"/><g class="errorbars"/><g class="lines"><path class="js-line" d="M153.32,225.34L129.63,225.34" style="vector-effect: non-scaling-stroke; fill: none; stroke: rgb(0, 200, 229); stroke-opacity: 1; stroke-width: 1px; opacity: 1; stroke-dasharray: 3px, 3px;"/></g><g class="points"/><g class="text"/></g><g class="trace scatter trace118261" style="stroke-miterlimit: 2; opacity: 1;"><g class="fills"/><g class="errorbars"/><g class="lines"><path class="js-line" d="M153.32,177.4L153.09,177.4" style="vector-effect: non-scaling-stroke; fill: none; stroke: rgb(0, 200, 229); stroke-opacity: 1; stroke-width: 1px; opacity: 1; stroke-dasharray: 3px, 3px;"/></g><g class="points"/><g class="text"/></g><g class="trace scatter trace01bc7d" style="stroke-miterlimit: 2; opacity: 1;"><g class="fills"/><g class="errorbars"/><g class="lines"><path class="js-line" d="M153.32,61.66L129.68,61.66" style="vector-effect: non-scaling-stroke; fill: none; stroke: rgb(0, 200, 229); stroke-opacity: 1; stroke-width: 1px; opacity: 1; stroke-dasharray: 3px, 3px;"/></g><g class="points"/><g class="text"/></g><g class="trace scatter trace97805b" style="stroke-miterlimit: 2;"><g class="fills"><g><path class="js-fill" d="M179.2,272.64L179.2,14.36L178.69,14.36L178.27,21.14L178.25,21.3L176.91,27.6L176.86,27.76L173.59,35.02L173.49,35.17L166.31,44.48L166.17,44.63L158.82,53.46L158.71,53.62L156.43,58.19L156.38,58.35L155.89,62.14L155.89,62.29L157.04,66.71L157.11,66.87L169.43,82.48L169.56,82.63L173.69,88.47L173.78,88.63L176.67,94.93L176.73,95.09L178.44,102.98L178.46,103.13L179.11,172.67L179.11,172.83L178.73,181.34L178.72,181.5L177.36,190.02L177.32,190.17L174.32,197.74L174.23,197.9L163.66,211.78L163.53,211.93L158.99,218.08L158.9,218.24L157.11,222.5L157.07,222.66L156.83,226.6L156.85,226.76L158.03,230.7L158.1,230.86L165.46,240.95L165.6,241.1L171.92,248.99L172.03,249.15L175.71,255.77L175.78,255.93L177.93,263.34L177.96,263.5L178.69,272.64Z" style="fill: rgb(0, 200, 229); fill-opacity: 0.2; stroke-width: 0;"/></g></g><g class="errorbars"/><g class="lines"><path class="js-line" d="M178.69,272.64L177.96,263.5L177.93,263.34L175.78,255.93L175.71,255.77L172.03,249.15L171.92,248.99L165.6,241.1L165.46,240.95L158.1,230.86L158.03,230.7L156.85,226.76L156.83,226.6L157.07,222.66L157.11,222.5L158.9,218.24L158.99,218.08L163.53,211.93L163.66,211.78L174.23,197.9L174.32,197.74L177.32,190.17L177.36,190.02L178.72,181.5L178.73,181.34L179.11,172.83L179.11,172.67L178.46,103.13L178.44,102.98L176.73,95.09L176.67,94.93L173.78,88.63L173.69,88.47L169.56,82.63L169.43,82.48L157.11,66.87L157.04,66.71L155.89,62.29L155.89,62.14L156.38,58.35L156.43,58.19L158.71,53.62L158.82,53.46L166.17,44.63L166.31,44.48L173.49,35.17L173.59,35.02L176.86,27.76L176.91,27.6L178.25,21.3L178.27,21.14L178.69,14.36" style="vector-effect: non-scaling-stroke; fill: none; stroke: rgb(0, 200, 229); stroke-opacity: 1; stroke-width: 1px; opacity: 1;"/></g><g class="points"/><g class="text"/></g><g class="trace scatter tracef38305" style="stroke-miterlimit: 2;"><g class="fills"/><g class="errorbars"/><g class="lines"><path class="js-line" d="M179.2,272.64L179.2,14.36" style="vector-effect: non-scaling-stroke; fill: none; stroke: rgb(0, 0, 0); stroke-opacity: 0; stroke-width: 1px; opacity: 1;"/></g><g class="points"/><g class="text"/></g><g class="trace scatter trace601790" style="stroke-miterlimit: 2; opacity: 1;"><g class="fills"/><g class="errorbars"/><g class="lines"><path class="js-line" d="M179.2,224.86L156.76,224.86" style="vector-effect: non-scaling-stroke; fill: none; stroke: rgb(0, 200, 229); stroke-opacity: 1; stroke-width: 1px; opacity: 1; stroke-dasharray: 3px, 3px;"/></g><g class="points"/><g class="text"/></g><g class="trace scatter trace8810a9" style="stroke-miterlimit: 2; opacity: 1;"><g class="fills"/><g class="errorbars"/><g class="lines"><path class="js-line" d="M179.2,94.46L176.51,94.46" style="vector-effect: non-scaling-stroke; fill: none; stroke: rgb(0, 200, 229); stroke-opacity: 1; stroke-width: 1px; opacity: 1; stroke-dasharray: 3px, 3px;"/></g><g class="points"/><g class="text"/></g><g class="trace scatter trace790a1b" style="stroke-miterlimit: 2; opacity: 1;"><g class="fills"/><g class="errorbars"/><g class="lines"><path class="js-line" d="M179.2,61.35L155.88,61.35" style="vector-effect: non-scaling-stroke; fill: none; stroke: rgb(0, 200, 229); stroke-opacity: 1; stroke-width: 1px; opacity: 1; stroke-dasharray: 3px, 3px;"/></g><g class="points"/><g class="text"/></g><g class="trace scatter tracee8f177" style="stroke-miterlimit: 2;"><g class="fills"><g><path class="js-fill" d="M204.21,272.64L204.21,14.36L203.69,14.36L203.37,20.19L203.35,20.35L201.53,28.55L201.47,28.71L197.8,35.96L197.7,36.12L186.95,48.73L186.81,48.89L182.39,54.57L182.29,54.73L180.27,59.61L180.24,59.77L180.34,64.03L180.38,64.19L182.3,68.6L182.4,68.76L193.15,81.37L193.29,81.53L197.7,87.21L197.81,87.37L201.6,94.93L201.65,95.09L203.45,103.13L203.47,103.29L204.13,172.51L204.12,172.67L203.49,183.71L203.48,183.87L201.48,192.7L201.42,192.85L197.22,200.9L197.11,201.05L189.29,210.51L189.15,210.67L183.86,217.29L183.75,217.45L181.6,221.87L181.55,222.02L181.11,226.44L181.13,226.6L182.76,231.49L182.85,231.64L191.02,242.05L191.16,242.21L197.03,249.46L197.14,249.62L200.61,255.77L200.68,255.93L202.93,263.49L202.96,263.65L203.69,272.64Z" style="fill: rgb(0, 200, 229); fill-opacity: 0.2; stroke-width: 0;"/></g></g><g class="errorbars"/><g class="lines"><path class="js-line" d="M203.69,272.64L202.96,263.65L202.93,263.49L200.68,255.93L200.61,255.77L197.14,249.62L197.03,249.46L191.16,242.21L191.02,242.05L182.85,231.64L182.76,231.49L181.13,226.6L181.11,226.44L181.55,222.02L181.6,221.87L183.75,217.45L183.86,217.29L189.15,210.67L189.29,210.51L197.11,201.05L197.22,200.9L201.42,192.85L201.48,192.7L203.48,183.87L203.49,183.71L204.12,172.67L204.13,172.51L203.47,103.29L203.45,103.13L201.65,95.09L201.6,94.93L197.81,87.37L197.7,87.21L193.29,81.53L193.15,81.37L182.4,68.76L182.3,68.6L180.38,64.19L180.34,64.03L180.24,59.77L180.27,59.61L182.29,54.73L182.39,54.57L186.81,48.89L186.95,48.73L197.7,36.12L197.8,35.96L201.47,28.71L201.53,28.55L203.35,20.35L203.37,20.19L203.69,14.36" style="vector-effect: non-scaling-stroke; fill: none; stroke: rgb(0, 200, 229); stroke-opacity: 1; stroke-width: 1px; opacity: 1;"/></g><g class="points"/><g class="text"/></g><g class="trace scatter trace20d769" style="stroke-miterlimit: 2;"><g class="fills"/><g class="errorbars"/><g class="lines"><path class="js-line" d="M204.21,272.64L204.21,14.36" style="vector-effect: non-scaling-stroke; fill: none; stroke: rgb(0, 0, 0); stroke-opacity: 0; stroke-width: 1px; opacity: 1;"/></g><g class="points"/><g class="text"/></g><g class="trace scatter trace657de6" style="stroke-miterlimit: 2; opacity: 1;"><g class="fills"/><g class="errorbars"/><g class="lines"><path class="js-line" d="M204.21,224.86L181.06,224.86" style="vector-effect: non-scaling-stroke; fill: none; stroke: rgb(0, 200, 229); stroke-opacity: 1; stroke-width: 1px; opacity: 1; stroke-dasharray: 3px, 3px;"/></g><g class="points"/><g class="text"/></g><g class="trace scatter tracec86ee3" style="stroke-miterlimit: 2; opacity: 1;"><g class="fills"/><g class="errorbars"/><g class="lines"><path class="js-line" d="M204.21,93.99L201.25,93.99" style="vector-effect: non-scaling-stroke; fill: none; stroke: rgb(0, 200, 229); stroke-opacity: 1; stroke-width: 1px; opacity: 1; stroke-dasharray: 3px, 3px;"/></g><g class="points"/><g class="text"/></g><g class="trace scatter tracea5486d" style="stroke-miterlimit: 2; opacity: 1;"><g class="fills"/><g class="errorbars"/><g class="lines"><path class="js-line" d="M204.21,61.19L180.08,61.19" style="vector-effect: non-scaling-stroke; fill: none; stroke: rgb(0, 200, 229); stroke-opacity: 1; stroke-width: 1px; opacity: 1; stroke-dasharray: 3px, 3px;"/></g><g class="points"/><g class="text"/></g><g class="trace scatter trace3479bc" style="stroke-miterlimit: 2;"><g class="fills"><g><path class="js-fill" d="M230.06,272.65L230.06,14.35L229.54,14.35L228.95,22.39L228.93,22.55L227.29,29.02L227.23,29.17L223.22,36.9L223.11,37.06L215.42,46.36L215.27,46.52L210.03,52.83L209.92,52.99L207.41,57.56L207.36,57.72L206.64,61.5L206.64,61.66L207.73,66.55L207.8,66.71L220.37,82.63L220.5,82.79L224.89,89.1L224.98,89.25L227.41,94.62L227.47,94.77L229.3,102.97L229.32,103.13L230.05,161.79L230.05,161.95L229.81,177.72L229.81,177.88L229.01,186.08L228.99,186.23L227.28,192.86L227.23,193.01L222.79,201.37L222.67,201.53L214.42,211.46L214.28,211.62L209.86,217.3L209.76,217.46L207.62,221.87L207.57,222.03L207.14,226.44L207.16,226.6L208.86,231.65L208.95,231.81L216.7,241.74L216.84,241.9L222.83,249.31L222.94,249.47L226.49,255.78L226.56,255.93L228.76,263.34L228.79,263.5L229.54,272.65Z" style="fill: rgb(0, 200, 229); fill-opacity: 0.2; stroke-width: 0;"/></g></g><g class="errorbars"/><g class="lines"><path class="js-line" d="M229.54,272.65L228.79,263.5L228.76,263.34L226.56,255.93L226.49,255.78L222.94,249.47L222.83,249.31L216.84,241.9L216.7,241.74L208.95,231.81L208.86,231.65L207.16,226.6L207.14,226.44L207.57,222.03L207.62,221.87L209.76,217.46L209.86,217.3L214.28,211.62L214.42,211.46L222.67,201.53L222.79,201.37L227.23,193.01L227.28,192.86L228.99,186.23L229.01,186.08L229.81,177.88L229.81,177.72L230.05,161.95L230.05,161.79L229.32,103.13L229.3,102.97L227.47,94.77L227.41,94.62L224.98,89.25L224.89,89.1L220.5,82.79L220.37,82.63L207.8,66.71L207.73,66.55L206.64,61.66L206.64,61.5L207.36,57.72L207.41,57.56L209.92,52.99L210.03,52.83L215.27,46.52L215.42,46.36L223.11,37.06L223.22,36.9L227.23,29.17L227.29,29.02L228.93,22.55L228.95,22.39L229.54,14.35" style="vector-effect: non-scaling-stroke; fill: none; stroke: rgb(0, 200, 229); stroke-opacity: 1; stroke-width: 1px; opacity: 1;"/></g><g class="points"/><g class="text"/></g><g class="trace scatter trace06f43b" style="stroke-miterlimit: 2;"><g class="fills"/><g class="errorbars"/><g class="lines"><path class="js-line" d="M230.06,272.65L230.06,14.35" style="vector-effect: non-scaling-stroke; fill: none; stroke: rgb(0, 0, 0); stroke-opacity: 0; stroke-width: 1px; opacity: 1;"/></g><g class="points"/><g class="text"/></g><g class="trace scatter trace615782" style="stroke-miterlimit: 2; opacity: 1;"><g class="fills"/><g class="errorbars"/><g class="lines"><path class="js-line" d="M230.06,225.18L207.08,225.18" style="vector-effect: non-scaling-stroke; fill: none; stroke: rgb(0, 200, 229); stroke-opacity: 1; stroke-width: 1px; opacity: 1; stroke-dasharray: 3px, 3px;"/></g><g class="points"/><g class="text"/></g><g class="trace scatter trace411bfc" style="stroke-miterlimit: 2; opacity: 1;"><g class="fills"/><g class="errorbars"/><g class="lines"><path class="js-line" d="M230.06,98.72L228.57,98.72" style="vector-effect: non-scaling-stroke; fill: none; stroke: rgb(0, 200, 229); stroke-opacity: 1; stroke-width: 1px; opacity: 1; stroke-dasharray: 3px, 3px;"/></g><g class="points"/><g class="text"/></g><g class="trace scatter traceca915d" style="stroke-miterlimit: 2; opacity: 1;"><g class="fills"/><g class="errorbars"/><g class="lines"><path class="js-line" d="M230.06,61.5L206.64,61.5" style="vector-effect: non-scaling-stroke; fill: none; stroke: rgb(0, 200, 229); stroke-opacity: 1; stroke-width: 1px; opacity: 1; stroke-dasharray: 3px, 3px;"/></g><g class="points"/><g class="text"/></g><g class="trace scatter trace9e618e" style="stroke-miterlimit: 2;"><g class="fills"><g><path class="js-fill" d="M255.42,272.65L255.42,14.35L254.9,14.35L254.89,15.14L254.89,15.3L254.3,22.4L254.28,22.55L252.45,29.49L252.39,29.65L249.93,34.69L249.84,34.85L242.8,44L242.66,44.16L235.82,52.04L235.7,52.2L232.6,57.56L232.55,57.72L231.83,62.13L231.84,62.29L232.93,66.55L233,66.71L245.79,82.79L245.92,82.95L250.21,89.1L250.3,89.26L252.75,94.62L252.81,94.77L254.65,102.97L254.67,103.13L255.42,146.34L255.42,146.5L255.33,172.51L255.33,172.67L254.68,183.87L254.66,184.03L253.16,191.28L253.11,191.44L249.76,198.85L249.66,199.01L241.24,209.73L241.1,209.89L235.13,217.3L235.03,217.46L232.89,221.87L232.84,222.03L232.4,226.44L232.42,226.6L234.05,231.49L234.13,231.65L242,241.74L242.14,241.9L247.59,248.52L247.71,248.68L251.83,255.77L251.9,255.93L254.12,263.34L254.15,263.5L254.9,272.65Z" style="fill: rgb(0, 200, 229); fill-opacity: 0.2; stroke-width: 0;"/></g></g><g class="errorbars"/><g class="lines"><path class="js-line" d="M254.9,272.65L254.15,263.5L254.12,263.34L251.9,255.93L251.83,255.77L247.71,248.68L247.59,248.52L242.14,241.9L242,241.74L234.13,231.65L234.05,231.49L232.42,226.6L232.4,226.44L232.84,222.03L232.89,221.87L235.03,217.46L235.13,217.3L241.1,209.89L241.24,209.73L249.66,199.01L249.76,198.85L253.11,191.44L253.16,191.28L254.66,184.03L254.68,183.87L255.33,172.67L255.33,172.51L255.42,146.5L255.42,146.34L254.67,103.13L254.65,102.97L252.81,94.77L252.75,94.62L250.3,89.26L250.21,89.1L245.92,82.95L245.79,82.79L233,66.71L232.93,66.55L231.84,62.29L231.83,62.13L232.55,57.72L232.6,57.56L235.7,52.2L235.82,52.04L242.66,44.16L242.8,44L249.84,34.85L249.93,34.69L252.39,29.65L252.45,29.49L254.28,22.55L254.3,22.4L254.89,15.3L254.89,15.14L254.9,14.35" style="vector-effect: non-scaling-stroke; fill: none; stroke: rgb(0, 200, 229); stroke-opacity: 1; stroke-width: 1px; opacity: 1;"/></g><g class="points"/><g class="text"/></g><g class="trace scatter trace3f1708" style="stroke-miterlimit: 2;"><g class="fills"/><g class="errorbars"/><g class="lines"><path class="js-line" d="M255.42,272.65L255.42,14.35" style="vector-effect: non-scaling-stroke; fill: none; stroke: rgb(0, 0, 0); stroke-opacity: 0; stroke-width: 1px; opacity: 1;"/></g><g class="points"/><g class="text"/></g><g class="trace scatter trace42607e" style="stroke-miterlimit: 2; opacity: 1;"><g class="fills"/><g class="errorbars"/><g class="lines"><path class="js-line" d="M255.42,225.03L232.35,225.03" style="vector-effect: non-scaling-stroke; fill: none; stroke: rgb(0, 200, 229); stroke-opacity: 1; stroke-width: 1px; opacity: 1; stroke-dasharray: 3px, 3px;"/></g><g class="points"/><g class="text"/></g><g class="trace scatter trace888b50" style="stroke-miterlimit: 2; opacity: 1;"><g class="fills"/><g class="errorbars"/><g class="lines"><path class="js-line" d="M255.42,97.77L253.7,97.77" style="vector-effect: non-scaling-stroke; fill: none; stroke: rgb(0, 200, 229); stroke-opacity: 1; stroke-width: 1px; opacity: 1; stroke-dasharray: 3px, 3px;"/></g><g class="points"/><g class="text"/></g><g class="trace scatter trace02bf5f" style="stroke-miterlimit: 2; opacity: 1;"><g class="fills"/><g class="errorbars"/><g class="lines"><path class="js-line" d="M255.42,61.5L231.82,61.5" style="vector-effect: non-scaling-stroke; fill: none; stroke: rgb(0, 200, 229); stroke-opacity: 1; stroke-width: 1px; opacity: 1; stroke-dasharray: 3px, 3px;"/></g><g class="points"/><g class="text"/></g><g class="trace scatter trace68cbc0" style="stroke-miterlimit: 2;"><g class="fills"><g><path class="js-fill" d="M280.93,272.59L280.93,14.41L280.4,14.41L279.84,21.82L279.82,21.98L278,28.91L277.94,29.07L275.04,34.74L274.94,34.9L261.07,50.66L260.93,50.82L257.72,55.08L257.62,55.23L255.8,59.65L255.77,59.8L255.71,63.11L255.73,63.27L257.3,67.53L257.38,67.69L264.22,76.04L264.38,76.2L271.59,83.92L271.72,84.08L275.57,89.44L275.67,89.59L278.43,95.58L278.49,95.74L280.16,103.31L280.18,103.47L280.69,177.86L280.68,178.02L279.52,188.11L279.49,188.26L277.17,195.36L277.1,195.51L273.62,201.5L273.51,201.66L265.4,211.43L265.26,211.59L260.44,217.9L260.35,218.05L258.38,222.62L258.34,222.78L258.21,227.19L258.24,227.35L259.81,231.61L259.89,231.77L267.6,241.7L267.74,241.85L273.72,249.26L273.83,249.42L277.51,256.04L277.57,256.2L279.64,263.29L279.67,263.45L280.4,272.59Z" style="fill: rgb(59, 2, 128); fill-opacity: 0.2; stroke-width: 0;"/></g></g><g class="errorbars"/><g class="lines"><path class="js-line" d="M280.4,272.59L279.67,263.45L279.64,263.29L277.57,256.2L277.51,256.04L273.83,249.42L273.72,249.26L267.74,241.85L267.6,241.7L259.89,231.77L259.81,231.61L258.24,227.35L258.21,227.19L258.34,222.78L258.38,222.62L260.35,218.05L260.44,217.9L265.26,211.59L265.4,211.43L273.51,201.66L273.62,201.5L277.1,195.51L277.17,195.36L279.49,188.26L279.52,188.11L280.68,178.02L280.69,177.86L280.18,103.47L280.16,103.31L278.49,95.74L278.43,95.58L275.67,89.59L275.57,89.44L271.72,84.08L271.59,83.92L264.38,76.2L264.22,76.04L257.38,67.69L257.3,67.53L255.73,63.27L255.71,63.11L255.77,59.8L255.8,59.65L257.62,55.23L257.72,55.08L260.93,50.82L261.07,50.66L274.94,34.9L275.04,34.74L277.94,29.07L278,28.91L279.82,21.98L279.84,21.82L280.4,14.41" style="vector-effect: non-scaling-stroke; fill: none; stroke: rgb(59, 2, 128); stroke-opacity: 1; stroke-width: 1px; opacity: 1;"/></g><g class="points"/><g class="text"/></g><g class="trace scatter trace08dabe" style="stroke-miterlimit: 2;"><g class="fills"/><g class="errorbars"/><g class="lines"><path class="js-line" d="M280.93,272.59L280.93,14.41" style="vector-effect: non-scaling-stroke; fill: none; stroke: rgb(0, 0, 0); stroke-opacity: 0; stroke-width: 1px; opacity: 1;"/></g><g class="points"/><g class="text"/></g><g class="trace scatter tracec0ce91" style="stroke-miterlimit: 2; opacity: 1;"><g class="fills"/><g class="errorbars"/><g class="lines"><path class="js-line" d="M280.93,224.2L258.1,224.2" style="vector-effect: non-scaling-stroke; fill: none; stroke: rgb(59, 2, 128); stroke-opacity: 1; stroke-width: 1px; opacity: 1; stroke-dasharray: 3px, 3px;"/></g><g class="points"/><g class="text"/></g><g class="trace scatter traced3e225" style="stroke-miterlimit: 2; opacity: 1;"><g class="fills"/><g class="errorbars"/><g class="lines"><path class="js-line" d="M280.93,87.86L274.57,87.86" style="vector-effect: non-scaling-stroke; fill: none; stroke: rgb(59, 2, 128); stroke-opacity: 1; stroke-width: 1px; opacity: 1; stroke-dasharray: 3px, 3px;"/></g><g class="points"/><g class="text"/></g><g class="trace scatter trace8f2d0a" style="stroke-miterlimit: 2; opacity: 1;"><g class="fills"/><g class="errorbars"/><g class="lines"><path class="js-line" d="M280.93,60.75L255.64,60.75" style="vector-effect: non-scaling-stroke; fill: none; stroke: rgb(59, 2, 128); stroke-opacity: 1; stroke-width: 1px; opacity: 1; stroke-dasharray: 3px, 3px;"/></g><g class="points"/><g class="text"/></g><g class="trace scatter trace562c29" style="stroke-miterlimit: 2;"><g class="fills"><g><path class="js-fill" d="M307.26,272.65L307.26,14.35L306.74,14.35L306.62,18.14L306.61,18.29L305.4,26.18L305.36,26.34L302.53,33.59L302.44,33.75L291.5,47.94L291.36,48.1L287.06,53.62L286.96,53.77L284.81,58.19L284.76,58.35L284.29,62.45L284.3,62.61L285.47,66.86L285.55,67.02L297.49,82.32L297.62,82.47L301.82,88.47L301.92,88.62L304.71,94.77L304.77,94.93L306.49,102.82L306.51,102.97L307.19,171.73L307.18,171.88L306.81,180.87L306.8,181.03L305.86,187.81L305.83,187.97L303.59,194.91L303.52,195.06L300.38,200.58L300.27,200.74L291.85,210.83L291.71,210.99L286.03,218.24L285.94,218.4L284.16,222.5L284.12,222.66L283.89,226.76L283.91,226.92L285.44,231.33L285.53,231.49L292.47,240.48L292.62,240.64L300.1,249.62L300.21,249.78L303.82,256.25L303.88,256.41L305.97,263.5L305.99,263.66L306.74,272.65Z" style="fill: rgb(59, 2, 128); fill-opacity: 0.2; stroke-width: 0;"/></g></g><g class="errorbars"/><g class="lines"><path class="js-line" d="M306.74,272.65L305.99,263.66L305.97,263.5L303.88,256.41L303.82,256.25L300.21,249.78L300.1,249.62L292.62,240.64L292.47,240.48L285.53,231.49L285.44,231.33L283.91,226.92L283.89,226.76L284.12,222.66L284.16,222.5L285.94,218.4L286.03,218.24L291.71,210.99L291.85,210.83L300.27,200.74L300.38,200.58L303.52,195.06L303.59,194.91L305.83,187.97L305.86,187.81L306.8,181.03L306.81,180.87L307.18,171.88L307.19,171.73L306.51,102.97L306.49,102.82L304.77,94.93L304.71,94.77L301.92,88.62L301.82,88.47L297.62,82.47L297.49,82.32L285.55,67.02L285.47,66.86L284.3,62.61L284.29,62.45L284.76,58.35L284.81,58.19L286.96,53.77L287.06,53.62L291.36,48.1L291.5,47.94L302.44,33.75L302.53,33.59L305.36,26.34L305.4,26.18L306.61,18.29L306.62,18.14L306.74,14.35" style="vector-effect: non-scaling-stroke; fill: none; stroke: rgb(59, 2, 128); stroke-opacity: 1; stroke-width: 1px; opacity: 1;"/></g><g class="points"/><g class="text"/></g><g class="trace scatter trace9453e2" style="stroke-miterlimit: 2;"><g class="fills"/><g class="errorbars"/><g class="lines"><path class="js-line" d="M307.26,272.65L307.26,14.35" style="vector-effect: non-scaling-stroke; fill: none; stroke: rgb(0, 0, 0); stroke-opacity: 0; stroke-width: 1px; opacity: 1;"/></g><g class="points"/><g class="text"/></g><g class="trace scatter trace3a30f5" style="stroke-miterlimit: 2; opacity: 1;"><g class="fills"/><g class="errorbars"/><g class="lines"><path class="js-line" d="M307.26,225.5L283.79,225.5" style="vector-effect: non-scaling-stroke; fill: none; stroke: rgb(59, 2, 128); stroke-opacity: 1; stroke-width: 1px; opacity: 1; stroke-dasharray: 3px, 3px;"/></g><g class="points"/><g class="text"/></g><g class="trace scatter trace04eb41" style="stroke-miterlimit: 2; opacity: 1;"><g class="fills"/><g class="errorbars"/><g class="lines"><path class="js-line" d="M307.26,188.44L305.73,188.44" style="vector-effect: non-scaling-stroke; fill: none; stroke: rgb(59, 2, 128); stroke-opacity: 1; stroke-width: 1px; opacity: 1; stroke-dasharray: 3px, 3px;"/></g><g class="points"/><g class="text"/></g><g class="trace scatter tracea0e683" style="stroke-miterlimit: 2; opacity: 1;"><g class="fills"/><g class="errorbars"/><g class="lines"><path class="js-line" d="M307.26,61.82L284.26,61.82" style="vector-effect: non-scaling-stroke; fill: none; stroke: rgb(59, 2, 128); stroke-opacity: 1; stroke-width: 1px; opacity: 1; stroke-dasharray: 3px, 3px;"/></g><g class="points"/><g class="text"/></g><g class="trace scatter trace06cfc5" style="stroke-miterlimit: 2;"><g class="fills"><g><path class="js-fill" d="M332.67,272.65L332.67,14.35L332.14,14.35L331.82,20.34L331.8,20.5L330.14,28.23L330.09,28.39L327.16,34.69L327.07,34.85L319.86,44.16L319.71,44.31L312.29,52.99L312.18,53.14L309.76,57.56L309.7,57.72L308.98,62.13L308.99,62.29L310.08,66.55L310.15,66.71L323,82.79L323.13,82.95L327.25,88.78L327.35,88.94L330.04,94.77L330.1,94.93L331.9,102.97L331.92,103.13L332.66,161.79L332.66,161.95L331.96,183.4L331.94,183.55L330.2,191.6L330.15,191.75L327.32,197.9L327.23,198.06L314.26,213.67L314.13,213.83L310.72,218.4L310.62,218.56L308.89,222.5L308.85,222.66L308.56,226.29L308.57,226.44L309.96,230.86L310.04,231.02L321.62,245.05L321.76,245.21L326.58,251.52L326.68,251.68L329.88,258.14L329.94,258.3L331.36,263.66L331.39,263.82L332.14,272.65Z" style="fill: rgb(59, 2, 128); fill-opacity: 0.2; stroke-width: 0;"/></g></g><g class="errorbars"/><g class="lines"><path class="js-line" d="M332.14,272.65L331.39,263.82L331.36,263.66L329.94,258.3L329.88,258.14L326.68,251.68L326.58,251.52L321.76,245.21L321.62,245.05L310.04,231.02L309.96,230.86L308.57,226.44L308.56,226.29L308.85,222.66L308.89,222.5L310.62,218.56L310.72,218.4L314.13,213.83L314.26,213.67L327.23,198.06L327.32,197.9L330.15,191.75L330.2,191.6L331.94,183.55L331.96,183.4L332.66,161.95L332.66,161.79L331.92,103.13L331.9,102.97L330.1,94.93L330.04,94.77L327.35,88.94L327.25,88.78L323.13,82.95L323,82.79L310.15,66.71L310.08,66.55L308.99,62.29L308.98,62.13L309.7,57.72L309.76,57.56L312.18,53.14L312.29,52.99L319.71,44.31L319.86,44.16L327.07,34.85L327.16,34.69L330.09,28.39L330.14,28.23L331.8,20.5L331.82,20.34L332.14,14.35" style="vector-effect: non-scaling-stroke; fill: none; stroke: rgb(59, 2, 128); stroke-opacity: 1; stroke-width: 1px; opacity: 1;"/></g><g class="points"/><g class="text"/></g><g class="trace scatter tracecb6f8f" style="stroke-miterlimit: 2;"><g class="fills"/><g class="errorbars"/><g class="lines"><path class="js-line" d="M332.67,272.65L332.67,14.35" style="vector-effect: non-scaling-stroke; fill: none; stroke: rgb(0, 0, 0); stroke-opacity: 0; stroke-width: 1px; opacity: 1;"/></g><g class="points"/><g class="text"/></g><g class="trace scatter trace35c2c3" style="stroke-miterlimit: 2; opacity: 1;"><g class="fills"/><g class="errorbars"/><g class="lines"><path class="js-line" d="M332.67,225.5L308.51,225.5" style="vector-effect: non-scaling-stroke; fill: none; stroke: rgb(59, 2, 128); stroke-opacity: 1; stroke-width: 1px; opacity: 1; stroke-dasharray: 3px, 3px;"/></g><g class="points"/><g class="text"/></g><g class="trace scatter trace971510" style="stroke-miterlimit: 2; opacity: 1;"><g class="fills"/><g class="errorbars"/><g class="lines"><path class="js-line" d="M332.67,188.28L331.13,188.28" style="vector-effect: non-scaling-stroke; fill: none; stroke: rgb(59, 2, 128); stroke-opacity: 1; stroke-width: 1px; opacity: 1; stroke-dasharray: 3px, 3px;"/></g><g class="points"/><g class="text"/></g><g class="trace scatter trace93522c" style="stroke-miterlimit: 2; opacity: 1;"><g class="fills"/><g class="errorbars"/><g class="lines"><path class="js-line" d="M332.67,61.82L308.97,61.82" style="vector-effect: non-scaling-stroke; fill: none; stroke: rgb(59, 2, 128); stroke-opacity: 1; stroke-width: 1px; opacity: 1; stroke-dasharray: 3px, 3px;"/></g><g class="points"/><g class="text"/></g><g class="trace scatter trace8b527f" style="stroke-miterlimit: 2;"><g class="fills"><g><path class="js-fill" d="M358.82,272.65L358.82,14.35L358.3,14.35L358.3,15.3L358.29,15.46L357.38,24.29L357.35,24.44L355.12,31.38L355.05,31.54L352.13,36.74L352.02,36.9L346.1,44.31L345.96,44.47L338.28,53.77L338.18,53.93L336.11,58.19L336.06,58.35L335.61,62.76L335.63,62.92L337.17,67.65L337.25,67.81L349.07,82.47L349.2,82.63L353.69,89.1L353.78,89.25L356.3,94.93L356.35,95.09L358.05,102.82L358.07,102.97L358.74,172.36L358.74,172.51L358.01,184.34L357.99,184.5L356.6,190.96L356.56,191.12L353.4,198.22L353.3,198.38L342.14,212.1L342,212.25L337.9,217.46L337.79,217.61L335.65,222.03L335.6,222.19L335.2,226.44L335.22,226.6L336.72,231.18L336.8,231.33L343.47,240.01L343.62,240.16L351.6,249.63L351.71,249.78L355.42,256.41L355.48,256.56L357.52,263.5L357.55,263.66L358.3,272.65Z" style="fill: rgb(59, 2, 128); fill-opacity: 0.2; stroke-width: 0;"/></g></g><g class="errorbars"/><g class="lines"><path class="js-line" d="M358.3,272.65L357.55,263.66L357.52,263.5L355.48,256.56L355.42,256.41L351.71,249.78L351.6,249.63L343.62,240.16L343.47,240.01L336.8,231.33L336.72,231.18L335.22,226.6L335.2,226.44L335.6,222.19L335.65,222.03L337.79,217.61L337.9,217.46L342,212.25L342.14,212.1L353.3,198.38L353.4,198.22L356.56,191.12L356.6,190.96L357.99,184.5L358.01,184.34L358.74,172.51L358.74,172.36L358.07,102.97L358.05,102.82L356.35,95.09L356.3,94.93L353.78,89.25L353.69,89.1L349.2,82.63L349.07,82.47L337.25,67.81L337.17,67.65L335.63,62.92L335.61,62.76L336.06,58.35L336.11,58.19L338.18,53.93L338.28,53.77L345.96,44.47L346.1,44.31L352.02,36.9L352.13,36.74L355.05,31.54L355.12,31.38L357.35,24.44L357.38,24.29L358.29,15.46L358.3,15.3L358.3,14.35" style="vector-effect: non-scaling-stroke; fill: none; stroke: rgb(59, 2, 128); stroke-opacity: 1; stroke-width: 1px; opacity: 1;"/></g><g class="points"/><g class="text"/></g><g class="trace scatter trace78764c" style="stroke-miterlimit: 2;"><g class="fills"/><g class="errorbars"/><g class="lines"><path class="js-line" d="M358.82,272.65L358.82,14.35" style="vector-effect: non-scaling-stroke; fill: none; stroke: rgb(0, 0, 0); stroke-opacity: 0; stroke-width: 1px; opacity: 1;"/></g><g class="points"/><g class="text"/></g><g class="trace scatter trace472eaa" style="stroke-miterlimit: 2; opacity: 1;"><g class="fills"/><g class="errorbars"/><g class="lines"><path class="js-line" d="M358.82,225.5L335.14,225.5" style="vector-effect: non-scaling-stroke; fill: none; stroke: rgb(59, 2, 128); stroke-opacity: 1; stroke-width: 1px; opacity: 1; stroke-dasharray: 3px, 3px;"/></g><g class="points"/><g class="text"/></g><g class="trace scatter trace722edf" style="stroke-miterlimit: 2; opacity: 1;"><g class="fills"/><g class="errorbars"/><g class="lines"><path class="js-line" d="M358.82,187.81L357.42,187.81" style="vector-effect: non-scaling-stroke; fill: none; stroke: rgb(59, 2, 128); stroke-opacity: 1; stroke-width: 1px; opacity: 1; stroke-dasharray: 3px, 3px;"/></g><g class="points"/><g class="text"/></g><g class="trace scatter tracee29c2a" style="stroke-miterlimit: 2; opacity: 1;"><g class="fills"/><g class="errorbars"/><g class="lines"><path class="js-line" d="M358.82,61.82L335.55,61.82" style="vector-effect: non-scaling-stroke; fill: none; stroke: rgb(59, 2, 128); stroke-opacity: 1; stroke-width: 1px; opacity: 1; stroke-dasharray: 3px, 3px;"/></g><g class="points"/><g class="text"/></g><g class="trace scatter trace2fa9ed" style="stroke-miterlimit: 2;"><g class="fills"><g><path class="js-fill" d="M384.49,272.65L384.49,14.35L383.97,14.35L383.64,20.35L383.63,20.5L382.22,27.44L382.17,27.6L378.99,34.7L378.89,34.85L371.7,44.16L371.55,44.32L364.84,52.04L364.72,52.2L361.73,57.25L361.67,57.4L360.83,61.5L360.83,61.66L361.93,66.55L362.01,66.71L374.83,82.79L374.96,82.95L378.99,88.63L379.09,88.78L381.87,94.77L381.93,94.93L383.72,102.97L383.74,103.13L384.48,162.11L384.48,162.26L384.03,181.19L384.01,181.34L382.68,189.7L382.64,189.86L379.74,197.27L379.66,197.43L367.48,213.04L367.35,213.2L363.77,218.09L363.67,218.24L361.8,222.66L361.76,222.82L361.54,226.44L361.56,226.6L363.26,231.65L363.35,231.8L371.11,241.74L371.25,241.9L377.25,249.31L377.36,249.47L381.05,256.09L381.11,256.25L383.19,263.34L383.22,263.5L383.97,272.65Z" style="fill: rgb(59, 2, 128); fill-opacity: 0.2; stroke-width: 0;"/></g></g><g class="errorbars"/><g class="lines"><path class="js-line" d="M383.97,272.65L383.22,263.5L383.19,263.34L381.11,256.25L381.05,256.09L377.36,249.47L377.25,249.31L371.25,241.9L371.11,241.74L363.35,231.8L363.26,231.65L361.56,226.6L361.54,226.44L361.76,222.82L361.8,222.66L363.67,218.24L363.77,218.09L367.35,213.2L367.48,213.04L379.66,197.43L379.74,197.27L382.64,189.86L382.68,189.7L384.01,181.34L384.03,181.19L384.48,162.26L384.48,162.11L383.74,103.13L383.72,102.97L381.93,94.93L381.87,94.77L379.09,88.78L378.99,88.63L374.96,82.95L374.83,82.79L362.01,66.71L361.93,66.55L360.83,61.66L360.83,61.5L361.67,57.4L361.73,57.25L364.72,52.2L364.84,52.04L371.55,44.32L371.7,44.16L378.89,34.85L378.99,34.7L382.17,27.6L382.22,27.44L383.63,20.5L383.64,20.35L383.97,14.35" style="vector-effect: non-scaling-stroke; fill: none; stroke: rgb(59, 2, 128); stroke-opacity: 1; stroke-width: 1px; opacity: 1;"/></g><g class="points"/><g class="text"/></g><g class="trace scatter trace31df03" style="stroke-miterlimit: 2;"><g class="fills"/><g class="errorbars"/><g class="lines"><path class="js-line" d="M384.49,272.65L384.49,14.35" style="vector-effect: non-scaling-stroke; fill: none; stroke: rgb(0, 0, 0); stroke-opacity: 0; stroke-width: 1px; opacity: 1;"/></g><g class="points"/><g class="text"/></g><g class="trace scatter traceaba83b" style="stroke-miterlimit: 2; opacity: 1;"><g class="fills"/><g class="errorbars"/><g class="lines"><path class="js-line" d="M384.49,225.02L361.48,225.02" style="vector-effect: non-scaling-stroke; fill: none; stroke: rgb(59, 2, 128); stroke-opacity: 1; stroke-width: 1px; opacity: 1; stroke-dasharray: 3px, 3px;"/></g><g class="points"/><g class="text"/></g><g class="trace scatter trace78656b" style="stroke-miterlimit: 2; opacity: 1;"><g class="fills"/><g class="errorbars"/><g class="lines"><path class="js-line" d="M384.49,96.51L382.42,96.51" style="vector-effect: non-scaling-stroke; fill: none; stroke: rgb(59, 2, 128); stroke-opacity: 1; stroke-width: 1px; opacity: 1; stroke-dasharray: 3px, 3px;"/></g><g class="points"/><g class="text"/></g><g class="trace scatter trace15c5a4" style="stroke-miterlimit: 2; opacity: 1;"><g class="fills"/><g class="errorbars"/><g class="lines"><path class="js-line" d="M384.49,61.35L360.83,61.35" style="vector-effect: non-scaling-stroke; fill: none; stroke: rgb(59, 2, 128); stroke-opacity: 1; stroke-width: 1px; opacity: 1; stroke-dasharray: 3px, 3px;"/></g><g class="points"/><g class="text"/></g><g class="trace scatter tracef51e32" style="stroke-miterlimit: 2;"><g class="fills"><g><path class="js-fill" d="M409.99,272.56L409.99,14.44L409.46,14.44L408.79,22.48L408.76,22.64L407.09,28.78L407.03,28.94L404.13,34.61L404.03,34.77L390.78,49.74L390.64,49.9L386.54,55.1L386.44,55.26L384.65,59.51L384.62,59.67L384.64,63.77L384.68,63.92L386.81,68.65L386.92,68.81L393.3,76.21L393.46,76.37L400.04,83.31L400.18,83.46L404.88,89.92L404.97,90.08L407.48,95.6L407.54,95.75L409.22,103.32L409.24,103.48L409.91,172.81L409.9,172.97L409.27,184L409.25,184.16L407.72,191.56L407.67,191.72L404.14,199.44L404.04,199.6L392.99,213.46L392.86,213.62L389.36,218.66L389.27,218.82L387.63,223.23L387.6,223.39L387.62,227.33L387.65,227.49L389.33,231.9L389.42,232.06L396.3,241.04L396.43,241.2L402.21,248.29L402.32,248.45L406.55,255.85L406.61,256.01L408.69,263.1L408.72,263.26L409.46,272.56Z" style="fill: rgb(59, 2, 128); fill-opacity: 0.2; stroke-width: 0;"/></g></g><g class="errorbars"/><g class="lines"><path class="js-line" d="M409.46,272.56L408.72,263.26L408.69,263.1L406.61,256.01L406.55,255.85L402.32,248.45L402.21,248.29L396.43,241.2L396.3,241.04L389.42,232.06L389.33,231.9L387.65,227.49L387.62,227.33L387.6,223.39L387.63,223.23L389.27,218.82L389.36,218.66L392.86,213.62L392.99,213.46L404.04,199.6L404.14,199.44L407.67,191.72L407.72,191.56L409.25,184.16L409.27,184L409.9,172.97L409.91,172.81L409.24,103.48L409.22,103.32L407.54,95.75L407.48,95.6L404.97,90.08L404.88,89.92L400.18,83.46L400.04,83.31L393.46,76.37L393.3,76.21L386.92,68.81L386.81,68.65L384.68,63.92L384.64,63.77L384.62,59.67L384.65,59.51L386.44,55.26L386.54,55.1L390.64,49.9L390.78,49.74L404.03,34.77L404.13,34.61L407.03,28.94L407.09,28.78L408.76,22.64L408.79,22.48L409.46,14.44" style="vector-effect: non-scaling-stroke; fill: none; stroke: rgb(59, 2, 128); stroke-opacity: 1; stroke-width: 1px; opacity: 1;"/></g><g class="points"/><g class="text"/></g><g class="trace scatter trace11faf4" style="stroke-miterlimit: 2;"><g class="fills"/><g class="errorbars"/><g class="lines"><path class="js-line" d="M409.99,272.56L409.99,14.44" style="vector-effect: non-scaling-stroke; fill: none; stroke: rgb(0, 0, 0); stroke-opacity: 0; stroke-width: 1px; opacity: 1;"/></g><g class="points"/><g class="text"/></g><g class="trace scatter trace94642b" style="stroke-miterlimit: 2; opacity: 1;"><g class="fills"/><g class="errorbars"/><g class="lines"><path class="js-line" d="M409.99,224.02L387.51,224.02" style="vector-effect: non-scaling-stroke; fill: none; stroke: rgb(59, 2, 128); stroke-opacity: 1; stroke-width: 1px; opacity: 1; stroke-dasharray: 3px, 3px;"/></g><g class="points"/><g class="text"/></g><g class="trace scatter tracedc611b" style="stroke-miterlimit: 2; opacity: 1;"><g class="fills"/><g class="errorbars"/><g class="lines"><path class="js-line" d="M409.99,86.3L402.47,86.3" style="vector-effect: non-scaling-stroke; fill: none; stroke: rgb(59, 2, 128); stroke-opacity: 1; stroke-width: 1px; opacity: 1; stroke-dasharray: 3px, 3px;"/></g><g class="points"/><g class="text"/></g><g class="trace scatter trace5bc317" style="stroke-miterlimit: 2; opacity: 1;"><g class="fills"/><g class="errorbars"/><g class="lines"><path class="js-line" d="M409.99,60.46L384.49,60.46" style="vector-effect: non-scaling-stroke; fill: none; stroke: rgb(59, 2, 128); stroke-opacity: 1; stroke-width: 1px; opacity: 1; stroke-dasharray: 3px, 3px;"/></g><g class="points"/><g class="text"/></g><g class="trace scatter trace1d7433" style="stroke-miterlimit: 2;"><g class="fills"><g><path class="js-fill" d="M436.25,272.56L436.25,14.44L435.73,14.44L435.72,15.22L435.72,15.38L435.17,21.84L435.15,22L433.63,28.15L433.58,28.3L430.21,35.08L430.11,35.24L419.04,48L418.89,48.16L413.99,53.99L413.88,54.15L411.72,58.4L411.67,58.56L411.22,62.5L411.24,62.66L412.47,66.76L412.54,66.91L424.54,81.1L424.69,81.25L430.28,88.34L430.38,88.5L433.74,95.44L433.79,95.59L435.49,103.32L435.51,103.47L436.25,162.25L436.25,162.41L435.79,181.48L435.78,181.64L433.97,191.72L433.92,191.88L431.38,197.87L431.3,198.03L422.94,209.37L422.8,209.53L416.87,217.09L416.77,217.25L414.58,221.82L414.53,221.98L414.08,226.23L414.1,226.39L415.35,230.8L415.43,230.96L423.17,241.52L423.31,241.68L429.97,250.34L430.07,250.5L432.79,255.7L432.86,255.86L434.97,263.11L435,263.27L435.73,272.56Z" style="fill: rgb(59, 2, 128); fill-opacity: 0.2; stroke-width: 0;"/></g></g><g class="errorbars"/><g class="lines"><path class="js-line" d="M435.73,272.56L435,263.27L434.97,263.11L432.86,255.86L432.79,255.7L430.07,250.5L429.97,250.34L423.31,241.68L423.17,241.52L415.43,230.96L415.35,230.8L414.1,226.39L414.08,226.23L414.53,221.98L414.58,221.82L416.77,217.25L416.87,217.09L422.8,209.53L422.94,209.37L431.3,198.03L431.38,197.87L433.92,191.88L433.97,191.72L435.78,181.64L435.79,181.48L436.25,162.41L436.25,162.25L435.51,103.47L435.49,103.32L433.79,95.59L433.74,95.44L430.38,88.5L430.28,88.34L424.69,81.25L424.54,81.1L412.54,66.91L412.47,66.76L411.24,62.66L411.22,62.5L411.67,58.56L411.72,58.4L413.88,54.15L413.99,53.99L418.89,48.16L419.04,48L430.11,35.24L430.21,35.08L433.58,28.3L433.63,28.15L435.15,22L435.17,21.84L435.72,15.38L435.72,15.22L435.73,14.44" style="vector-effect: non-scaling-stroke; fill: none; stroke: rgb(59, 2, 128); stroke-opacity: 1; stroke-width: 1px; opacity: 1;"/></g><g class="points"/><g class="text"/></g><g class="trace scatter trace78bf61" style="stroke-miterlimit: 2;"><g class="fills"/><g class="errorbars"/><g class="lines"><path class="js-line" d="M436.25,272.56L436.25,14.44" style="vector-effect: non-scaling-stroke; fill: none; stroke: rgb(0, 0, 0); stroke-opacity: 0; stroke-width: 1px; opacity: 1;"/></g><g class="points"/><g class="text"/></g><g class="trace scatter tracebc4f96" style="stroke-miterlimit: 2; opacity: 1;"><g class="fills"/><g class="errorbars"/><g class="lines"><path class="js-line" d="M436.25,224.03L414.12,224.03" style="vector-effect: non-scaling-stroke; fill: none; stroke: rgb(59, 2, 128); stroke-opacity: 1; stroke-width: 1px; opacity: 1; stroke-dasharray: 3px, 3px;"/></g><g class="points"/><g class="text"/></g><g class="trace scatter tracea7ffef" style="stroke-miterlimit: 2; opacity: 1;"><g class="fills"/><g class="errorbars"/><g class="lines"><path class="js-line" d="M436.25,86.61L429.1,86.61" style="vector-effect: non-scaling-stroke; fill: none; stroke: rgb(59, 2, 128); stroke-opacity: 1; stroke-width: 1px; opacity: 1; stroke-dasharray: 3px, 3px;"/></g><g class="points"/><g class="text"/></g><g class="trace scatter trace16d9f5" style="stroke-miterlimit: 2; opacity: 1;"><g class="fills"/><g class="errorbars"/><g class="lines"><path class="js-line" d="M436.25,60.61L411.24,60.61" style="vector-effect: non-scaling-stroke; fill: none; stroke: rgb(59, 2, 128); stroke-opacity: 1; stroke-width: 1px; opacity: 1; stroke-dasharray: 3px, 3px;"/></g><g class="points"/><g class="text"/></g><g class="trace scatter trace28ad51" style="stroke-miterlimit: 2;"><g class="fills"><g><path class="js-fill" d="M462.05,272.57L462.05,14.43L461.53,14.43L461.15,20.57L461.13,20.73L459.61,27.66L459.56,27.82L456.92,33.65L456.83,33.81L442.65,50.52L442.51,50.67L438.85,55.72L438.76,55.87L437.34,59.66L437.31,59.81L437.25,63.12L437.27,63.28L438.99,67.85L439.08,68.01L450.26,80.93L450.41,81.09L456.01,88.18L456.11,88.34L459.44,95.12L459.49,95.27L461.28,103.15L461.3,103.31L462.05,159.42L462.05,159.58L461.96,172.97L461.96,173.13L461.32,184.16L461.3,184.32L459.45,192.67L459.4,192.83L456.55,198.97L456.46,199.13L452.39,204.96L452.27,205.12L443.27,216.15L443.16,216.31L440.45,221.51L440.4,221.67L439.83,225.92L439.84,226.08L441.13,230.81L441.21,230.97L448.15,240.58L448.29,240.74L454.72,248.78L454.83,248.93L458.59,255.71L458.66,255.87L460.77,263.12L460.79,263.28L461.53,272.57Z" style="fill: rgb(59, 2, 128); fill-opacity: 0.2; stroke-width: 0;"/></g></g><g class="errorbars"/><g class="lines"><path class="js-line" d="M461.53,272.57L460.79,263.28L460.77,263.12L458.66,255.87L458.59,255.71L454.83,248.93L454.72,248.78L448.29,240.74L448.15,240.58L441.21,230.97L441.13,230.81L439.84,226.08L439.83,225.92L440.4,221.67L440.45,221.51L443.16,216.31L443.27,216.15L452.27,205.12L452.39,204.96L456.46,199.13L456.55,198.97L459.4,192.83L459.45,192.67L461.3,184.32L461.32,184.16L461.96,173.13L461.96,172.97L462.05,159.58L462.05,159.42L461.3,103.31L461.28,103.15L459.49,95.27L459.44,95.12L456.11,88.34L456.01,88.18L450.41,81.09L450.26,80.93L439.08,68.01L438.99,67.85L437.27,63.28L437.25,63.12L437.31,59.81L437.34,59.66L438.76,55.87L438.85,55.72L442.51,50.67L442.65,50.52L456.83,33.81L456.92,33.65L459.56,27.82L459.61,27.66L461.13,20.73L461.15,20.57L461.53,14.43" style="vector-effect: non-scaling-stroke; fill: none; stroke: rgb(59, 2, 128); stroke-opacity: 1; stroke-width: 1px; opacity: 1;"/></g><g class="points"/><g class="text"/></g><g class="trace scatter trace57ab91" style="stroke-miterlimit: 2;"><g class="fills"/><g class="errorbars"/><g class="lines"><path class="js-line" d="M462.05,272.57L462.05,14.43" style="vector-effect: non-scaling-stroke; fill: none; stroke: rgb(0, 0, 0); stroke-opacity: 0; stroke-width: 1px; opacity: 1;"/></g><g class="points"/><g class="text"/></g><g class="trace scatter trace63e019" style="stroke-miterlimit: 2; opacity: 1;"><g class="fills"/><g class="errorbars"/><g class="lines"><path class="js-line" d="M462.05,224.19L439.87,224.19" style="vector-effect: non-scaling-stroke; fill: none; stroke: rgb(59, 2, 128); stroke-opacity: 1; stroke-width: 1px; opacity: 1; stroke-dasharray: 3px, 3px;"/></g><g class="points"/><g class="text"/></g><g class="trace scatter traceb2dba3" style="stroke-miterlimit: 2; opacity: 1;"><g class="fills"/><g class="errorbars"/><g class="lines"><path class="js-line" d="M462.05,87.08L455.27,87.08" style="vector-effect: non-scaling-stroke; fill: none; stroke: rgb(59, 2, 128); stroke-opacity: 1; stroke-width: 1px; opacity: 1; stroke-dasharray: 3px, 3px;"/></g><g class="points"/><g class="text"/></g><g class="trace scatter trace6ff5e6" style="stroke-miterlimit: 2; opacity: 1;"><g class="fills"/><g class="errorbars"/><g class="lines"><path class="js-line" d="M462.05,60.6L437.19,60.6" style="vector-effect: non-scaling-stroke; fill: none; stroke: rgb(59, 2, 128); stroke-opacity: 1; stroke-width: 1px; opacity: 1; stroke-dasharray: 3px, 3px;"/></g><g class="points"/><g class="text"/></g><g class="trace scatter tracedb9fb9" style="stroke-miterlimit: 2;"><g class="fills"><g><path class="js-fill" d="M487.79,272.61L487.79,14.39L487.25,14.39L487.15,17.54L487.14,17.7L485.59,26.84L485.54,27L482.64,33.62L482.55,33.78L468.34,50.49L468.2,50.65L464.99,54.9L464.89,55.06L463.15,59L463.11,59.16L462.92,63.26L462.95,63.41L464.63,67.83L464.73,67.99L476.07,81.07L476.21,81.23L481.8,88.32L481.9,88.48L485.26,95.42L485.31,95.58L487.02,103.3L487.04,103.46L487.7,172.66L487.7,172.82L487.06,183.86L487.04,184.02L485.07,192.69L485.01,192.84L482.23,198.68L482.14,198.83L471.95,211.6L471.81,211.76L467.49,217.28L467.39,217.44L465.23,221.85L465.18,222.01L464.71,226.11L464.72,226.27L465.84,230.36L465.91,230.52L474.61,242.03L474.75,242.19L480.51,249.28L480.62,249.44L484.33,256.06L484.39,256.22L486.48,263.31L486.51,263.47L487.25,272.61Z" style="fill: rgb(59, 2, 128); fill-opacity: 0.2; stroke-width: 0;"/></g></g><g class="errorbars"/><g class="lines"><path class="js-line" d="M487.25,272.61L486.51,263.47L486.48,263.31L484.39,256.22L484.33,256.06L480.62,249.44L480.51,249.28L474.75,242.19L474.61,242.03L465.91,230.52L465.84,230.36L464.72,226.27L464.71,226.11L465.18,222.01L465.23,221.85L467.39,217.44L467.49,217.28L471.81,211.76L471.95,211.6L482.14,198.83L482.23,198.68L485.01,192.84L485.07,192.69L487.04,184.02L487.06,183.86L487.7,172.82L487.7,172.66L487.04,103.46L487.02,103.3L485.31,95.58L485.26,95.42L481.9,88.48L481.8,88.32L476.21,81.23L476.07,81.07L464.73,67.99L464.63,67.83L462.95,63.41L462.92,63.26L463.11,59.16L463.15,59L464.89,55.06L464.99,54.9L468.2,50.65L468.34,50.49L482.55,33.78L482.64,33.62L485.54,27L485.59,26.84L487.14,17.7L487.15,17.54L487.25,14.39" style="vector-effect: non-scaling-stroke; fill: none; stroke: rgb(59, 2, 128); stroke-opacity: 1; stroke-width: 1px; opacity: 1;"/></g><g class="points"/><g class="text"/></g><g class="trace scatter tracebf3c6f" style="stroke-miterlimit: 2;"><g class="fills"/><g class="errorbars"/><g class="lines"><path class="js-line" d="M487.79,272.61L487.79,14.39" style="vector-effect: non-scaling-stroke; fill: none; stroke: rgb(0, 0, 0); stroke-opacity: 0; stroke-width: 1px; opacity: 1;"/></g><g class="points"/><g class="text"/></g><g class="trace scatter trace4fa5ae" style="stroke-miterlimit: 2; opacity: 1;"><g class="fills"/><g class="errorbars"/><g class="lines"><path class="js-line" d="M487.79,224.53L464.71,224.53" style="vector-effect: non-scaling-stroke; fill: none; stroke: rgb(59, 2, 128); stroke-opacity: 1; stroke-width: 1px; opacity: 1; stroke-dasharray: 3px, 3px;"/></g><g class="points"/><g class="text"/></g><g class="trace scatter trace7fa5a5" style="stroke-miterlimit: 2; opacity: 1;"><g class="fills"/><g class="errorbars"/><g class="lines"><path class="js-line" d="M487.79,89.74L482.67,89.74" style="vector-effect: non-scaling-stroke; fill: none; stroke: rgb(59, 2, 128); stroke-opacity: 1; stroke-width: 1px; opacity: 1; stroke-dasharray: 3px, 3px;"/></g><g class="points"/><g class="text"/></g><g class="trace scatter trace8cdaf7" style="stroke-miterlimit: 2; opacity: 1;"><g class="fills"/><g class="errorbars"/><g class="lines"><path class="js-line" d="M487.79,60.89L462.82,60.89" style="vector-effect: non-scaling-stroke; fill: none; stroke: rgb(59, 2, 128); stroke-opacity: 1; stroke-width: 1px; opacity: 1; stroke-dasharray: 3px, 3px;"/></g><g class="points"/><g class="text"/></g><g class="trace scatter tracee6d896" style="stroke-miterlimit: 2;"><g class="fills"><g><path class="js-fill" d="M514.06,272.46L514.06,14.54L513.53,14.54L512.99,21.62L512.96,21.78L511.45,27.92L511.4,28.08L508.3,34.38L508.2,34.53L495.13,49.18L494.98,49.34L490.24,55.16L490.14,55.32L488.5,58.94L488.46,59.1L488.21,63.04L488.24,63.19L489.64,67.13L489.72,67.29L502.61,81.77L502.76,81.93L508.15,88.7L508.25,88.86L511.55,95.63L511.6,95.79L513.29,103.35L513.31,103.5L513.82,178.14L513.81,178.3L513,186.65L512.98,186.8L511.5,192.79L511.45,192.94L509.01,198.45L508.92,198.61L502.43,207.75L502.3,207.9L495.25,216.88L495.15,217.04L492.89,221.76L492.85,221.92L492.42,226.64L492.44,226.8L493.75,231.05L493.82,231.21L502.02,242.39L502.15,242.54L506.65,248.37L506.76,248.53L510.6,255.46L510.66,255.61L512.77,262.86L512.79,263.02L513.53,272.46Z" style="fill: rgb(59, 2, 128); fill-opacity: 0.2; stroke-width: 0;"/></g></g><g class="errorbars"/><g class="lines"><path class="js-line" d="M513.53,272.46L512.79,263.02L512.77,262.86L510.66,255.61L510.6,255.46L506.76,248.53L506.65,248.37L502.15,242.54L502.02,242.39L493.82,231.21L493.75,231.05L492.44,226.8L492.42,226.64L492.85,221.92L492.89,221.76L495.15,217.04L495.25,216.88L502.3,207.9L502.43,207.75L508.92,198.61L509.01,198.45L511.45,192.94L511.5,192.79L512.98,186.8L513,186.65L513.81,178.3L513.82,178.14L513.31,103.5L513.29,103.35L511.6,95.79L511.55,95.63L508.25,88.86L508.15,88.7L502.76,81.93L502.61,81.77L489.72,67.29L489.64,67.13L488.24,63.19L488.21,63.04L488.46,59.1L488.5,58.94L490.14,55.32L490.24,55.16L494.98,49.34L495.13,49.18L508.2,34.53L508.3,34.38L511.4,28.08L511.45,27.92L512.96,21.78L512.99,21.62L513.53,14.54" style="vector-effect: non-scaling-stroke; fill: none; stroke: rgb(59, 2, 128); stroke-opacity: 1; stroke-width: 1px; opacity: 1;"/></g><g class="points"/><g class="text"/></g><g class="trace scatter tracef3dcab" style="stroke-miterlimit: 2;"><g class="fills"/><g class="errorbars"/><g class="lines"><path class="js-line" d="M514.06,272.46L514.06,14.54" style="vector-effect: non-scaling-stroke; fill: none; stroke: rgb(0, 0, 0); stroke-opacity: 0; stroke-width: 1px; opacity: 1;"/></g><g class="points"/><g class="text"/></g><g class="trace scatter tracecf35fc" style="stroke-miterlimit: 2; opacity: 1;"><g class="fills"/><g class="errorbars"/><g class="lines"><path class="js-line" d="M514.06,223.33L492.52,223.33" style="vector-effect: non-scaling-stroke; fill: none; stroke: rgb(59, 2, 128); stroke-opacity: 1; stroke-width: 1px; opacity: 1; stroke-dasharray: 3px, 3px;"/></g><g class="points"/><g class="text"/></g><g class="trace scatter tracea5ee42" style="stroke-miterlimit: 2; opacity: 1;"><g class="fills"/><g class="errorbars"/><g class="lines"><path class="js-line" d="M514.06,83.66L504.32,83.66" style="vector-effect: non-scaling-stroke; fill: none; stroke: rgb(59, 2, 128); stroke-opacity: 1; stroke-width: 1px; opacity: 1; stroke-dasharray: 3px, 3px;"/></g><g class="points"/><g class="text"/></g><g class="trace scatter trace845ba7" style="stroke-miterlimit: 2; opacity: 1;"><g class="fills"/><g class="errorbars"/><g class="lines"><path class="js-line" d="M514.06,60.04L488.25,60.04" style="vector-effect: non-scaling-stroke; fill: none; stroke: rgb(59, 2, 128); stroke-opacity: 1; stroke-width: 1px; opacity: 1; stroke-dasharray: 3px, 3px;"/></g><g class="points"/><g class="text"/></g><g class="trace scatter trace18228b" style="stroke-miterlimit: 2;"><g class="fills"><g><path class="js-fill" d="M0,0Z" style="stroke-width: 0; fill: rgb(0, 200, 229); fill-opacity: 0.2;"/></g></g><g class="errorbars"/><g class="lines"/><g class="points"/><g class="text"/></g><g class="trace scatter traceec7404" style="stroke-miterlimit: 2;"><g class="fills"/><g class="errorbars"/><g class="lines"/><g class="points"/><g class="text"/></g><g class="trace scatter tracea39219" style="stroke-miterlimit: 2;"><g class="fills"><g><path class="js-fill" d="M0,0Z" style="stroke-width: 0; fill: rgb(59, 2, 128); fill-opacity: 0.2;"/></g></g><g class="errorbars"/><g class="lines"/><g class="points"/><g class="text"/></g><g class="trace scatter trace955761" style="stroke-miterlimit: 2;"><g class="fills"/><g class="errorbars"/><g class="lines"/><g class="points"/><g class="text"/></g><g class="trace scatter trace8b4481" style="stroke-miterlimit: 2;"><g class="fills"><g><path class="js-fill" d="M0,0Z" style="stroke-width: 0; fill: rgb(221, 64, 64); fill-opacity: 0.2;"/></g></g><g class="errorbars"/><g class="lines"/><g class="points"/><g class="text"/></g><g class="trace scatter traceabbd16" style="stroke-miterlimit: 2;"><g class="fills"/><g class="errorbars"/><g class="lines"/><g class="points"/><g class="text"/></g><g class="trace scatter trace8f0ae2" style="stroke-miterlimit: 2; opacity: 1;"><g class="fills"/><g class="errorbars"/><g class="lines"/><g class="points"/><g class="text"/></g></g></g><g class="overplot"/><path class="xlines-above crisp" d="M79,387.5H621M79,99.5H621" style="fill: none; stroke-width: 1px; stroke: rgb(102, 102, 102); stroke-opacity: 1;"/><path class="ylines-above crisp" d="M79.5,100V387M620.5,100V387" style="fill: none; stroke-width: 1px; stroke: rgb(102, 102, 102); stroke-opacity: 1;"/><g class="overlines-above"/><g class="xaxislayer-above"><g class="xtick"><text text-anchor="middle" x="0" y="402.4" transform="translate(154.11,0)" style="font-family: 'Open Sans', verdana, arial, sans-serif; font-size: 12px; fill: rgb(42, 63, 95); fill-opacity: 1; white-space: pre; opacity: 1;">2015</text></g><g class="xtick"><text text-anchor="middle" x="0" y="402.4" style="font-family: 'Open Sans', verdana, arial, sans-serif; font-size: 12px; fill: rgb(42, 63, 95); fill-opacity: 1; white-space: pre; opacity: 1;" transform="translate(231.68,0)">2016</text></g><g class="xtick"><text text-anchor="middle" x="0" y="402.4" style="font-family: 'Open Sans', verdana, arial, sans-serif; font-size: 12px; fill: rgb(42, 63, 95); fill-opacity: 1; white-space: pre; opacity: 1;" transform="translate(309.46000000000004,0)">2017</text></g><g class="xtick"><text text-anchor="middle" x="0" y="402.4" style="font-family: 'Open Sans', verdana, arial, sans-serif; font-size: 12px; fill: rgb(42, 63, 95); fill-opacity: 1; white-space: pre; opacity: 1;" transform="translate(387.04,0)">2018</text></g><g class="xtick"><text text-anchor="middle" x="0" y="402.4" style="font-family: 'Open Sans', verdana, arial, sans-serif; font-size: 12px; fill: rgb(42, 63, 95); fill-opacity: 1; white-space: pre; opacity: 1;" transform="translate(464.61,0)">2019</text></g><g class="xtick"><text text-anchor="middle" x="0" y="402.4" style="font-family: 'Open Sans', verdana, arial, sans-serif; font-size: 12px; fill: rgb(42, 63, 95); fill-opacity: 1; white-space: pre; opacity: 1;" transform="translate(542.1800000000001,0)">2020</text></g><g class="xtick"><text text-anchor="middle" x="0" y="402.4" style="font-family: 'Open Sans', verdana, arial, sans-serif; font-size: 12px; fill: rgb(42, 63, 95); fill-opacity: 1; white-space: pre; opacity: 1;" transform="translate(619.96,0)">2021</text></g></g><g class="yaxislayer-above"><g class="ytick"><text text-anchor="end" x="76.6" y="4.199999999999999" transform="translate(0,325.31)" style="font-family: 'Open Sans', verdana, arial, sans-serif; font-size: 12px; fill: rgb(42, 63, 95); fill-opacity: 1; white-space: pre; opacity: 1;">0</text></g><g class="ytick"><text text-anchor="end" x="76.6" y="4.199999999999999" style="font-family: 'Open Sans', verdana, arial, sans-serif; font-size: 12px; fill: rgb(42, 63, 95); fill-opacity: 1; white-space: pre; opacity: 1;" transform="translate(0,243.48)">0.5</text></g><g class="ytick"><text text-anchor="end" x="76.6" y="4.199999999999999" style="font-family: 'Open Sans', verdana, arial, sans-serif; font-size: 12px; fill: rgb(42, 63, 95); fill-opacity: 1; white-space: pre; opacity: 1;" transform="translate(0,161.66)">1</text></g></g><g class="overaxes-above"/></g></g><g class="polarlayer"/><g class="smithlayer"/><g class="ternarylayer"/><g class="geolayer"/><g class="funnelarealayer"/><g class="pielayer"/><g class="iciclelayer"/><g class="treemaplayer"/><g class="sunburstlayer"/><g class="glimages"/><defs id="topdefs-7f0dd9"><g class="clips"/><clipPath id="legend7f0dd9"><rect width="512" height="29" x="0" y="0"/></clipPath></defs><g class="layer-above"><g class="imagelayer"/><g class="shapelayer"/></g><g class="infolayer"><g class="legend" pointer-events="all" transform="translate(80,458.75)"><rect class="bg" shape-rendering="crispEdges" width="512" height="29" x="0" y="0" style="stroke: rgb(68, 68, 68); stroke-opacity: 1; fill: rgb(255, 255, 255); fill-opacity: 1; stroke-width: 0px;"/><g class="scrollbox" transform="" clip-path="url(#legend7f0dd9)"><g class="groups"><g class="traces" transform="translate(0,14.5)" style="opacity: 1;"><text class="legendtext" text-anchor="start" x="40" y="4.680000000000001" style="font-family: 'Open Sans', verdana, arial, sans-serif; font-size: 12px; fill: rgb(42, 63, 95); fill-opacity: 1; white-space: pre;">Reference period</text><g class="layers"><g class="legendfill"><path class="js-fill" d="M5,-2h30v6h-30z" style="stroke-width: 0; fill: rgb(0, 200, 229); fill-opacity: 0.2;"/></g><g class="legendlines"><path class="js-line" d="M5,-2h30" style="fill: none; stroke: rgb(0, 200, 229); stroke-opacity: 1; stroke-width: 1px;"/></g><g class="legendsymbols"><g class="legendpoints"/></g></g><rect class="legendtoggle" x="0" y="-9.5" width="134.5625" height="19" style="fill: rgb(0, 0, 0); fill-opacity: 0;"/></g><g class="traces" transform="translate(137.0625,14.5)" style="opacity: 1;"><text class="legendtext" text-anchor="start" x="40" y="4.680000000000001" style="font-family: 'Open Sans', verdana, arial, sans-serif; font-size: 12px; fill: rgb(42, 63, 95); fill-opacity: 1; white-space: pre;">Analysis period</text><g class="layers"><g class="legendfill"><path class="js-fill" d="M5,-2h30v6h-30z" style="stroke-width: 0; fill: rgb(59, 2, 128); fill-opacity: 0.2;"/></g><g class="legendlines"><path class="js-line" d="M5,-2h30" style="fill: none; stroke: rgb(59, 2, 128); stroke-opacity: 1; stroke-width: 1px;"/></g><g class="legendsymbols"><g class="legendpoints"/></g></g><rect class="legendtoggle" x="0" y="-9.5" width="123.875" height="19" style="fill: rgb(0, 0, 0); fill-opacity: 0;"/></g><g class="traces" transform="translate(263.4375,14.5)" style="opacity: 1;"><text class="legendtext" text-anchor="start" x="40" y="4.680000000000001" style="font-family: 'Open Sans', verdana, arial, sans-serif; font-size: 12px; fill: rgb(42, 63, 95); fill-opacity: 1; white-space: pre;">Period with data drift</text><g class="layers"><g class="legendfill"><path class="js-fill" d="M5,-2h30v6h-30z" style="stroke-width: 0; fill: rgb(221, 64, 64); fill-opacity: 0.2;"/></g><g class="legendlines"><path class="js-line" d="M5,-2h30" style="fill: none; stroke: rgb(0, 0, 0); stroke-opacity: 0; stroke-width: 1px;"/></g><g class="legendsymbols"><g class="legendpoints"/></g></g><rect class="legendtoggle" x="0" y="-9.5" width="152.5625" height="19" style="fill: rgb(0, 0, 0); fill-opacity: 0;"/></g><g class="traces" transform="translate(418.5,14.5)" style="opacity: 1;"><text class="legendtext" text-anchor="start" x="40" y="4.680000000000001" style="font-family: 'Open Sans', verdana, arial, sans-serif; font-size: 12px; fill: rgb(42, 63, 95); fill-opacity: 1; white-space: pre;">Quartiles</text><g class="layers" style="opacity: 1;"><g class="legendfill"/><g class="legendlines"><path class="js-line" d="M5,0h30" style="fill: none; stroke: rgb(102, 102, 102); stroke-opacity: 1; stroke-dasharray: 3px, 3px; stroke-width: 1px;"/></g><g class="legendsymbols"><g class="legendpoints"/></g></g><rect class="legendtoggle" x="0" y="-9.5" width="90.53125" height="19" style="fill: rgb(0, 0, 0); fill-opacity: 0;"/></g></g></g><rect class="scrollbar" rx="20" ry="3" width="0" height="0" x="0" y="0" style="fill: rgb(128, 139, 164); fill-opacity: 1;"/></g><g class="g-gtitle"><text class="gtitle" x="35" y="50" text-anchor="start" dy="0em" style="font-family: 'Open Sans', verdana, arial, sans-serif; font-size: 17px; fill: rgb(42, 63, 95); opacity: 1; font-weight: normal; white-space: pre;">Distribution over time for y_pred</text></g><g class="g-xtitle"><text class="xtitle" x="350" y="430.20625" text-anchor="middle" style="font-family: 'Open Sans', verdana, arial, sans-serif; font-size: 14px; fill: rgb(42, 63, 95); opacity: 1; font-weight: normal; white-space: pre;">Time</text></g><g class="g-ytitle"><text class="ytitle" transform="rotate(-90,35.10625,243.5)" x="35.10625" y="243.5" text-anchor="middle" style="font-family: 'Open Sans', verdana, arial, sans-serif; font-size: 14px; fill: rgb(42, 63, 95); opacity: 1; font-weight: normal; white-space: pre;">y_pred</text></g></g></svg>