<svg class="main-svg" xmlns="http://www.w3.org/2000/svg" xmlns:xlink="http://www.w3.org/1999/xlink" width="700" height="500" style="" viewBox="0 0 700 500"><rect x="0" y="0" width="700" height="500" style="fill: rgb(255, 255, 255); fill-opacity: 1;"/><defs id="defs-a6d4f9"><g class="clips"><clipPath id="clipa6d4f9xyplot" class="plotclip"><rect width="540" height="272"/></clipPath><clipPath class="axesclip" id="clipa6d4f9x"><rect x="80" y="0" width="540" height="500"/></clipPath><clipPath class="axesclip" id="clipa6d4f9y"><rect x="0" y="100" width="700" height="272"/></clipPath><clipPath class="axesclip" id="clipa6d4f9xy"><rect x="80" y="100" width="540" height="272"/></clipPath></g><g class="gradients"/><g class="patterns"/></defs><g class="bglayer"/><g class="layer-below"><g class="imagelayer"/><g class="shapelayer"/></g><g class="cartesianlayer"><g class="subplot xy"><g class="layer-subplot"><g class="shapelayer"/><g class="imagelayer"/></g><g class="minor-gridlayer"><g class="x"/><g class="y"/></g><g class="gridlayer"><g class="x"/><g class="y"/></g><g class="zerolinelayer"/><path class="xlines-below"/><path class="ylines-below"/><g class="overlines-below"/><g class="xaxislayer-below"/><g class="yaxislayer-below"/><g class="overaxes-below"/><g class="plot" transform="translate(80,100)" clip-path="url(#clipa6d4f9xyplot)"><g class="scatterlayer mlayer"><g class="trace scatter trace2b7724" style="stroke-miterlimit: 2;"><g class="fills"><g><path class="js-fill" d="M25.57,258.34L25.57,13.66L25.31,13.66L25.3,15.15L25.3,15.3L24.59,23.81L24.57,23.96L22.59,30.84L22.53,30.99L19.6,36.21L19.5,36.36L7.97,48.91L7.83,49.06L3.36,54.44L3.26,54.59L1.41,58.62L1.37,58.77L1.15,62.36L1.17,62.5L2.73,66.99L2.81,67.14L9.76,76.25L9.88,76.4L16.23,84.61L16.32,84.76L19.55,90.89L19.61,91.04L21.8,98.21L21.83,98.36L23.29,109.26L23.3,109.41L24.02,141.53L24.02,141.68L23.7,157.66L23.7,157.81L23.05,168.27L23.04,168.42L21.35,177.53L21.31,177.68L18.04,185.3L17.95,185.45L4.99,201.13L4.86,201.28L1.4,206.21L1.33,206.36L0.11,209.94L0.09,210.09L0.38,213.98L0.43,214.13L2.4,218.01L2.5,218.16L11.82,227.87L11.98,228.02L18.19,234.59L18.31,234.74L22.26,241.01L22.33,241.16L24.53,248.33L24.56,248.48L25.31,258.34Z" style="fill: rgb(0, 200, 229); fill-opacity: 0.2; stroke-width: 0;"/></g></g><g class="errorbars"/><g class="lines"><path class="js-line" d="M25.31,258.34L24.56,248.48L24.53,248.33L22.33,241.16L22.26,241.01L18.31,234.74L18.19,234.59L11.98,228.02L11.82,227.87L2.5,218.16L2.4,218.01L0.43,214.13L0.38,213.98L0.09,210.09L0.11,209.94L1.33,206.36L1.4,206.21L4.86,201.28L4.99,201.13L17.95,185.45L18.04,185.3L21.31,177.68L21.35,177.53L23.04,168.42L23.05,168.27L23.7,157.81L23.7,157.66L24.02,141.68L24.02,141.53L23.3,109.41L23.29,109.26L21.83,98.36L21.8,98.21L19.61,91.04L19.55,90.89L16.32,84.76L16.23,84.61L9.88,76.4L9.76,76.25L2.81,67.14L2.73,66.99L1.17,62.5L1.15,62.36L1.37,58.77L1.41,58.62L3.26,54.59L3.36,54.44L7.83,49.06L7.97,48.91L19.5,36.36L19.6,36.21L22.53,30.99L22.59,30.84L24.57,23.96L24.59,23.81L25.3,15.3L25.3,15.15L25.31,13.66" style="vector-effect: non-scaling-stroke; fill: none; stroke: rgb(0, 200, 229); stroke-opacity: 1; stroke-width: 1px; opacity: 1;"/></g><g class="points"/><g class="text"/></g><g class="trace scatter trace0acb3e" style="stroke-miterlimit: 2;"><g class="fills"/><g class="errorbars"/><g class="lines"><path class="js-line" d="M25.57,258.34L25.57,13.66" style="vector-effect: non-scaling-stroke; fill: none; stroke: rgb(0, 0, 0); stroke-opacity: 0; stroke-width: 1px; opacity: 1;"/></g><g class="points"/><g class="text"/></g><g class="trace scatter tracee37d53" style="stroke-miterlimit: 2; opacity: 1;"><g class="fills"/><g class="errorbars"/><g class="lines"><path class="js-line" d="M25.57,209.2L0.26,209.2" style="vector-effect: non-scaling-stroke; fill: none; stroke: rgb(0, 200, 229); stroke-opacity: 1; stroke-width: 1px; opacity: 1; stroke-dasharray: 3px, 3px;"/></g><g class="points"/><g class="text"/></g><g class="trace scatter tracefa8bd2" style="stroke-miterlimit: 2; opacity: 1;"><g class="fills"/><g class="errorbars"/><g class="lines"><path class="js-line" d="M25.57,143.17L24,143.17" style="vector-effect: non-scaling-stroke; fill: none; stroke: rgb(0, 200, 229); stroke-opacity: 1; stroke-width: 1px; opacity: 1; stroke-dasharray: 3px, 3px;"/></g><g class="points"/><g class="text"/></g><g class="trace scatter tracee4501e" style="stroke-miterlimit: 2; opacity: 1;"><g class="fills"/><g class="errorbars"/><g class="lines"><path class="js-line" d="M25.57,64L1.49,64" style="vector-effect: non-scaling-stroke; fill: none; stroke: rgb(0, 200, 229); stroke-opacity: 1; stroke-width: 1px; opacity: 1; stroke-dasharray: 3px, 3px;"/></g><g class="points"/><g class="text"/></g><g class="trace scatter trace8cf43a" style="stroke-miterlimit: 2;"><g class="fills"><g><path class="js-fill" d="M51.51,258.24L51.51,13.76L51.26,13.76L50.54,23.91L50.51,24.06L49.02,29.73L48.97,29.88L45.58,36.3L45.48,36.44L37.57,45.4L37.42,45.55L30.99,52.42L30.87,52.56L28.33,56.59L28.26,56.74L27.3,60.48L27.29,60.62L27.92,64.65L27.97,64.8L40.63,82.12L40.74,82.27L45.21,90.18L45.27,90.33L47.36,97.04L47.39,97.19L49.19,112.86L49.2,113.01L49.94,146.75L49.94,146.9L49.55,163.31L49.55,163.46L48.83,170.78L48.81,170.93L46.41,180.33L46.35,180.48L42.97,186.9L42.87,187.05L33.58,198.09L33.45,198.24L28.87,203.76L28.76,203.91L26.65,207.94L26.6,208.09L26.12,211.97L26.13,212.12L27.77,216.75L27.86,216.9L39.62,229.44L39.77,229.59L44.71,235.11L44.83,235.26L48.26,240.93L48.33,241.08L50.49,248.24L50.52,248.39L51.26,258.24Z" style="fill: rgb(0, 200, 229); fill-opacity: 0.2; stroke-width: 0;"/></g></g><g class="errorbars"/><g class="lines"><path class="js-line" d="M51.26,258.24L50.52,248.39L50.49,248.24L48.33,241.08L48.26,240.93L44.83,235.26L44.71,235.11L39.77,229.59L39.62,229.44L27.86,216.9L27.77,216.75L26.13,212.12L26.12,211.97L26.6,208.09L26.65,207.94L28.76,203.91L28.87,203.76L33.45,198.24L33.58,198.09L42.87,187.05L42.97,186.9L46.35,180.48L46.41,180.33L48.81,170.93L48.83,170.78L49.55,163.46L49.55,163.31L49.94,146.9L49.94,146.75L49.2,113.01L49.19,112.86L47.39,97.19L47.36,97.04L45.27,90.33L45.21,90.18L40.74,82.27L40.63,82.12L27.97,64.8L27.92,64.65L27.29,60.62L27.3,60.48L28.26,56.74L28.33,56.59L30.87,52.56L30.99,52.42L37.42,45.55L37.57,45.4L45.48,36.44L45.58,36.3L48.97,29.88L49.02,29.73L50.51,24.06L50.54,23.91L51.26,13.76" style="vector-effect: non-scaling-stroke; fill: none; stroke: rgb(0, 200, 229); stroke-opacity: 1; stroke-width: 1px; opacity: 1;"/></g><g class="points"/><g class="text"/></g><g class="trace scatter trace00eefd" style="stroke-miterlimit: 2;"><g class="fills"/><g class="errorbars"/><g class="lines"><path class="js-line" d="M51.51,258.24L51.51,13.76" style="vector-effect: non-scaling-stroke; fill: none; stroke: rgb(0, 0, 0); stroke-opacity: 0; stroke-width: 1px; opacity: 1;"/></g><g class="points"/><g class="text"/></g><g class="trace scatter tracec40d3f" style="stroke-miterlimit: 2; opacity: 1;"><g class="fills"/><g class="errorbars"/><g class="lines"><path class="js-line" d="M51.51,209.14L26.31,209.14" style="vector-effect: non-scaling-stroke; fill: none; stroke: rgb(0, 200, 229); stroke-opacity: 1; stroke-width: 1px; opacity: 1; stroke-dasharray: 3px, 3px;"/></g><g class="points"/><g class="text"/></g><g class="trace scatter traced5a606" style="stroke-miterlimit: 2; opacity: 1;"><g class="fills"/><g class="errorbars"/><g class="lines"><path class="js-line" d="M51.51,140.33L49.93,140.33" style="vector-effect: non-scaling-stroke; fill: none; stroke: rgb(0, 200, 229); stroke-opacity: 1; stroke-width: 1px; opacity: 1; stroke-dasharray: 3px, 3px;"/></g><g class="points"/><g class="text"/></g><g class="trace scatter tracef8e5d1" style="stroke-miterlimit: 2; opacity: 1;"><g class="fills"/><g class="errorbars"/><g class="lines"><path class="js-line" d="M51.51,64.21L27.77,64.21" style="vector-effect: non-scaling-stroke; fill: none; stroke: rgb(0, 200, 229); stroke-opacity: 1; stroke-width: 1px; opacity: 1; stroke-dasharray: 3px, 3px;"/></g><g class="points"/><g class="text"/></g><g class="trace scatter tracec331c8" style="stroke-miterlimit: 2;"><g class="fills"><g><path class="js-fill" d="M77.28,258.24L77.28,13.76L77.03,13.76L76.98,16.45L76.98,16.6L76.33,23.62L76.31,23.76L74.78,29.59L74.73,29.73L71.52,35.85L71.42,36L60.6,47.79L60.45,47.94L55.28,53.76L55.18,53.91L52.87,58.54L52.83,58.69L52.59,62.27L52.61,62.42L54.09,66.75L54.17,66.9L61.37,76.3L61.5,76.45L67.74,84.51L67.83,84.66L71.12,90.93L71.18,91.08L73.49,98.84L73.52,98.99L74.97,109.73L74.99,109.88L75.35,158.69L75.34,158.84L74.41,171.37L74.39,171.52L72.53,179.43L72.48,179.58L69.41,186.15L69.32,186.3L59.4,198.83L59.27,198.98L55.17,204.36L55.07,204.51L53.1,209.13L53.07,209.28L53.03,212.86L53.05,213.01L54.83,217.34L54.92,217.49L64.95,228.53L65.1,228.68L70.39,234.65L70.5,234.8L74.01,240.62L74.08,240.77L76.27,248.09L76.29,248.24L77.03,258.24Z" style="fill: rgb(0, 200, 229); fill-opacity: 0.2; stroke-width: 0;"/></g></g><g class="errorbars"/><g class="lines"><path class="js-line" d="M77.03,258.24L76.29,248.24L76.27,248.09L74.08,240.77L74.01,240.62L70.5,234.8L70.39,234.65L65.1,228.68L64.95,228.53L54.92,217.49L54.83,217.34L53.05,213.01L53.03,212.86L53.07,209.28L53.1,209.13L55.07,204.51L55.17,204.36L59.27,198.98L59.4,198.83L69.32,186.3L69.41,186.15L72.48,179.58L72.53,179.43L74.39,171.52L74.41,171.37L75.34,158.84L75.35,158.69L74.99,109.88L74.97,109.73L73.52,98.99L73.49,98.84L71.18,91.08L71.12,90.93L67.83,84.66L67.74,84.51L61.5,76.45L61.37,76.3L54.17,66.9L54.09,66.75L52.61,62.42L52.59,62.27L52.83,58.69L52.87,58.54L55.18,53.91L55.28,53.76L60.45,47.94L60.6,47.79L71.42,36L71.52,35.85L74.73,29.73L74.78,29.59L76.31,23.76L76.33,23.62L76.98,16.6L76.98,16.45L77.03,13.76" style="vector-effect: non-scaling-stroke; fill: none; stroke: rgb(0, 200, 229); stroke-opacity: 1; stroke-width: 1px; opacity: 1;"/></g><g class="points"/><g class="text"/></g><g class="trace scatter tracecefbfe" style="stroke-miterlimit: 2;"><g class="fills"/><g class="errorbars"/><g class="lines"><path class="js-line" d="M77.28,258.24L77.28,13.76" style="vector-effect: non-scaling-stroke; fill: none; stroke: rgb(0, 0, 0); stroke-opacity: 0; stroke-width: 1px; opacity: 1;"/></g><g class="points"/><g class="text"/></g><g class="trace scatter traced7cddd" style="stroke-miterlimit: 2; opacity: 1;"><g class="fills"/><g class="errorbars"/><g class="lines"><path class="js-line" d="M77.28,208.39L53.29,208.39" style="vector-effect: non-scaling-stroke; fill: none; stroke: rgb(0, 200, 229); stroke-opacity: 1; stroke-width: 1px; opacity: 1; stroke-dasharray: 3px, 3px;"/></g><g class="points"/><g class="text"/></g><g class="trace scatter trace207b3f" style="stroke-miterlimit: 2; opacity: 1;"><g class="fills"/><g class="errorbars"/><g class="lines"><path class="js-line" d="M77.28,125.55L75.7,125.55" style="vector-effect: non-scaling-stroke; fill: none; stroke: rgb(0, 200, 229); stroke-opacity: 1; stroke-width: 1px; opacity: 1; stroke-dasharray: 3px, 3px;"/></g><g class="points"/><g class="text"/></g><g class="trace scatter trace186e76" style="stroke-miterlimit: 2; opacity: 1;"><g class="fills"/><g class="errorbars"/><g class="lines"><path class="js-line" d="M77.28,63.46L52.81,63.46" style="vector-effect: non-scaling-stroke; fill: none; stroke: rgb(0, 200, 229); stroke-opacity: 1; stroke-width: 1px; opacity: 1; stroke-dasharray: 3px, 3px;"/></g><g class="points"/><g class="text"/></g><g class="trace scatter trace7aef3c" style="stroke-miterlimit: 2;"><g class="fills"><g><path class="js-fill" d="M102.84,258.33L102.84,13.67L102.59,13.67L102.15,21.88L102.13,22.03L100.77,28.46L100.72,28.6L97.89,34.73L97.8,34.88L92.81,41.3L92.67,41.45L83.27,51.16L83.14,51.31L79.86,55.94L79.79,56.09L78.57,59.82L78.55,59.97L78.85,63.86L78.9,64L81.03,68.49L81.12,68.64L86.79,75.8L86.92,75.95L92.18,82.53L92.29,82.68L96.74,90.59L96.8,90.74L98.95,97.76L98.98,97.91L100.54,110.16L100.55,110.31L101.29,143.62L101.29,143.77L101.09,157.96L101.09,158.11L100.07,171.25L100.05,171.4L98.18,179.32L98.13,179.47L95.15,185.89L95.06,186.04L85.54,197.99L85.4,198.14L80.15,204.71L80.06,204.86L78.23,208.89L78.19,209.04L78.02,212.92L78.05,213.07L79.63,217.11L79.72,217.26L90.73,229.21L90.88,229.35L95.95,235.03L96.07,235.18L99.52,240.86L99.59,241.01L101.82,248.32L101.84,248.47L102.59,258.33Z" style="fill: rgb(0, 200, 229); fill-opacity: 0.2; stroke-width: 0;"/></g></g><g class="errorbars"/><g class="lines"><path class="js-line" d="M102.59,258.33L101.84,248.47L101.82,248.32L99.59,241.01L99.52,240.86L96.07,235.18L95.95,235.03L90.88,229.35L90.73,229.21L79.72,217.26L79.63,217.11L78.05,213.07L78.02,212.92L78.19,209.04L78.23,208.89L80.06,204.86L80.15,204.71L85.4,198.14L85.54,197.99L95.06,186.04L95.15,185.89L98.13,179.47L98.18,179.32L100.05,171.4L100.07,171.25L101.09,158.11L101.09,157.96L101.29,143.77L101.29,143.62L100.55,110.31L100.54,110.16L98.98,97.91L98.95,97.76L96.8,90.74L96.74,90.59L92.29,82.68L92.18,82.53L86.92,75.95L86.79,75.8L81.12,68.64L81.03,68.49L78.9,64L78.85,63.86L78.55,59.97L78.57,59.82L79.79,56.09L79.86,55.94L83.14,51.31L83.27,51.16L92.67,41.45L92.81,41.3L97.8,34.88L97.89,34.73L100.72,28.6L100.77,28.46L102.13,22.03L102.15,21.88L102.59,13.67" style="vector-effect: non-scaling-stroke; fill: none; stroke: rgb(0, 200, 229); stroke-opacity: 1; stroke-width: 1px; opacity: 1;"/></g><g class="points"/><g class="text"/></g><g class="trace scatter trace048506" style="stroke-miterlimit: 2;"><g class="fills"/><g class="errorbars"/><g class="lines"><path class="js-line" d="M102.84,258.33L102.84,13.67" style="vector-effect: non-scaling-stroke; fill: none; stroke: rgb(0, 0, 0); stroke-opacity: 0; stroke-width: 1px; opacity: 1;"/></g><g class="points"/><g class="text"/></g><g class="trace scatter trace0b6eed" style="stroke-miterlimit: 2; opacity: 1;"><g class="fills"/><g class="errorbars"/><g class="lines"><path class="js-line" d="M102.84,209.04L78.19,209.04" style="vector-effect: non-scaling-stroke; fill: none; stroke: rgb(0, 200, 229); stroke-opacity: 1; stroke-width: 1px; opacity: 1; stroke-dasharray: 3px, 3px;"/></g><g class="points"/><g class="text"/></g><g class="trace scatter trace78bbfa" style="stroke-miterlimit: 2; opacity: 1;"><g class="fills"/><g class="errorbars"/><g class="lines"><path class="js-line" d="M102.84,135.4L101.27,135.4" style="vector-effect: non-scaling-stroke; fill: none; stroke: rgb(0, 200, 229); stroke-opacity: 1; stroke-width: 1px; opacity: 1; stroke-dasharray: 3px, 3px;"/></g><g class="points"/><g class="text"/></g><g class="trace scatter traceb9aa5f" style="stroke-miterlimit: 2; opacity: 1;"><g class="fills"/><g class="errorbars"/><g class="lines"><path class="js-line" d="M102.84,63.86L78.85,63.86" style="vector-effect: non-scaling-stroke; fill: none; stroke: rgb(0, 200, 229); stroke-opacity: 1; stroke-width: 1px; opacity: 1; stroke-dasharray: 3px, 3px;"/></g><g class="points"/><g class="text"/></g><g class="trace scatter trace0d093c" style="stroke-miterlimit: 2;"><g class="fills"><g><path class="js-fill" d="M128.4,258.26L128.4,13.74L128.14,13.74L127.45,23.59L127.42,23.74L125.94,29.41L125.89,29.56L122.79,35.53L122.69,35.68L112.73,46.58L112.57,46.73L107.11,52.4L106.98,52.55L104.24,56.73L104.17,56.88L103.17,61.06L103.17,61.21L104.08,65.39L104.14,65.54L116.26,81.21L116.37,81.36L121.16,88.83L121.23,88.98L124.52,98.68L124.55,98.83L126.09,110.92L126.11,111.07L126.85,139.88L126.85,140.03L126.46,157.05L126.46,157.2L125.67,168.69L125.66,168.84L123.94,178.1L123.9,178.25L120.58,186.01L120.49,186.16L111,198.1L110.86,198.25L106.19,203.92L106.09,204.07L103.91,208.25L103.86,208.4L103.39,212.28L103.41,212.43L105.05,217.06L105.14,217.21L117.81,230.79L117.96,230.94L122.44,236.32L122.55,236.47L125.12,240.95L125.19,241.09L127.37,248.26L127.39,248.41L128.14,258.26Z" style="fill: rgb(0, 200, 229); fill-opacity: 0.2; stroke-width: 0;"/></g></g><g class="errorbars"/><g class="lines"><path class="js-line" d="M128.14,258.26L127.39,248.41L127.37,248.26L125.19,241.09L125.12,240.95L122.55,236.47L122.44,236.32L117.96,230.94L117.81,230.79L105.14,217.21L105.05,217.06L103.41,212.43L103.39,212.28L103.86,208.4L103.91,208.25L106.09,204.07L106.19,203.92L110.86,198.25L111,198.1L120.49,186.16L120.58,186.01L123.9,178.25L123.94,178.1L125.66,168.84L125.67,168.69L126.46,157.2L126.46,157.05L126.85,140.03L126.85,139.88L126.11,111.07L126.09,110.92L124.55,98.83L124.52,98.68L121.23,88.98L121.16,88.83L116.37,81.36L116.26,81.21L104.14,65.54L104.08,65.39L103.17,61.21L103.17,61.06L104.17,56.88L104.24,56.73L106.98,52.55L107.11,52.4L112.57,46.73L112.73,46.58L122.69,35.68L122.79,35.53L125.89,29.56L125.94,29.41L127.42,23.74L127.45,23.59L128.14,13.74" style="vector-effect: non-scaling-stroke; fill: none; stroke: rgb(0, 200, 229); stroke-opacity: 1; stroke-width: 1px; opacity: 1;"/></g><g class="points"/><g class="text"/></g><g class="trace scatter trace3435a4" style="stroke-miterlimit: 2;"><g class="fills"/><g class="errorbars"/><g class="lines"><path class="js-line" d="M128.4,258.26L128.4,13.74" style="vector-effect: non-scaling-stroke; fill: none; stroke: rgb(0, 0, 0); stroke-opacity: 0; stroke-width: 1px; opacity: 1;"/></g><g class="points"/><g class="text"/></g><g class="trace scatter traced9b43b" style="stroke-miterlimit: 2; opacity: 1;"><g class="fills"/><g class="errorbars"/><g class="lines"><path class="js-line" d="M128.4,208.7L103.76,208.7" style="vector-effect: non-scaling-stroke; fill: none; stroke: rgb(0, 200, 229); stroke-opacity: 1; stroke-width: 1px; opacity: 1; stroke-dasharray: 3px, 3px;"/></g><g class="points"/><g class="text"/></g><g class="trace scatter tracef33aac" style="stroke-miterlimit: 2; opacity: 1;"><g class="fills"/><g class="errorbars"/><g class="lines"><path class="js-line" d="M128.4,127.19L126.77,127.19" style="vector-effect: non-scaling-stroke; fill: none; stroke: rgb(0, 200, 229); stroke-opacity: 1; stroke-width: 1px; opacity: 1; stroke-dasharray: 3px, 3px;"/></g><g class="points"/><g class="text"/></g><g class="trace scatter trace984bcd" style="stroke-miterlimit: 2; opacity: 1;"><g class="fills"/><g class="errorbars"/><g class="lines"><path class="js-line" d="M128.4,63.6L103.48,63.6" style="vector-effect: non-scaling-stroke; fill: none; stroke: rgb(0, 200, 229); stroke-opacity: 1; stroke-width: 1px; opacity: 1; stroke-dasharray: 3px, 3px;"/></g><g class="points"/><g class="text"/></g><g class="trace scatter trace7224f0" style="stroke-miterlimit: 2;"><g class="fills"><g><path class="js-fill" d="M154.54,258.25L154.54,13.75L154.29,13.75L154.25,16.74L154.24,16.89L153.45,24.65L153.43,24.8L152.03,29.87L151.97,30.02L148.57,36.44L148.47,36.59L138.61,47.49L138.46,47.64L132.95,53.91L132.85,54.06L130.86,57.79L130.8,57.94L130.23,61.97L130.24,62.12L131.28,66L131.35,66.15L135.56,72.56L135.68,72.71L144.94,84.5L145.03,84.65L148.38,91.07L148.44,91.22L150.7,98.83L150.73,98.98L153.06,132.27L153.06,132.42L153.04,143.91L153.04,144.06L152.44,164.21L152.43,164.36L151.31,173.46L151.28,173.61L149.25,180.63L149.19,180.78L145.7,187.35L145.6,187.5L135.25,199.73L135.12,199.88L131.41,204.66L131.31,204.81L129.38,209.29L129.35,209.44L129.29,212.72L129.31,212.87L130.81,216.75L130.9,216.9L142.63,229.44L142.78,229.59L148.72,236.45L148.82,236.6L151.98,242.57L152.04,242.72L153.52,248.25L153.55,248.39L154.29,258.25Z" style="fill: rgb(0, 200, 229); fill-opacity: 0.2; stroke-width: 0;"/></g></g><g class="errorbars"/><g class="lines"><path class="js-line" d="M154.29,258.25L153.55,248.39L153.52,248.25L152.04,242.72L151.98,242.57L148.82,236.6L148.72,236.45L142.78,229.59L142.63,229.44L130.9,216.9L130.81,216.75L129.31,212.87L129.29,212.72L129.35,209.44L129.38,209.29L131.31,204.81L131.41,204.66L135.12,199.88L135.25,199.73L145.6,187.5L145.7,187.35L149.19,180.78L149.25,180.63L151.28,173.61L151.31,173.46L152.43,164.36L152.44,164.21L153.04,144.06L153.04,143.91L153.06,132.42L153.06,132.27L150.73,98.98L150.7,98.83L148.44,91.22L148.38,91.07L145.03,84.65L144.94,84.5L135.68,72.71L135.56,72.56L131.35,66.15L131.28,66L130.24,62.12L130.23,61.97L130.8,57.94L130.86,57.79L132.85,54.06L132.95,53.91L138.46,47.64L138.61,47.49L148.47,36.59L148.57,36.44L151.97,30.02L152.03,29.87L153.43,24.8L153.45,24.65L154.24,16.89L154.25,16.74L154.29,13.75" style="vector-effect: non-scaling-stroke; fill: none; stroke: rgb(0, 200, 229); stroke-opacity: 1; stroke-width: 1px; opacity: 1;"/></g><g class="points"/><g class="text"/></g><g class="trace scatter trace1fd469" style="stroke-miterlimit: 2;"><g class="fills"/><g class="errorbars"/><g class="lines"><path class="js-line" d="M154.54,258.25L154.54,13.75" style="vector-effect: non-scaling-stroke; fill: none; stroke: rgb(0, 0, 0); stroke-opacity: 0; stroke-width: 1px; opacity: 1;"/></g><g class="points"/><g class="text"/></g><g class="trace scatter trace2292d7" style="stroke-miterlimit: 2; opacity: 1;"><g class="fills"/><g class="errorbars"/><g class="lines"><path class="js-line" d="M154.54,208.99L129.45,208.99" style="vector-effect: non-scaling-stroke; fill: none; stroke: rgb(0, 200, 229); stroke-opacity: 1; stroke-width: 1px; opacity: 1; stroke-dasharray: 3px, 3px;"/></g><g class="points"/><g class="text"/></g><g class="trace scatter trace2c2d50" style="stroke-miterlimit: 2; opacity: 1;"><g class="fills"/><g class="errorbars"/><g class="lines"><path class="js-line" d="M154.54,139.88L153.07,139.88" style="vector-effect: non-scaling-stroke; fill: none; stroke: rgb(0, 200, 229); stroke-opacity: 1; stroke-width: 1px; opacity: 1; stroke-dasharray: 3px, 3px;"/></g><g class="points"/><g class="text"/></g><g class="trace scatter trace77df9d" style="stroke-miterlimit: 2; opacity: 1;"><g class="fills"/><g class="errorbars"/><g class="lines"><path class="js-line" d="M154.54,64.2L130.63,64.2" style="vector-effect: non-scaling-stroke; fill: none; stroke: rgb(0, 200, 229); stroke-opacity: 1; stroke-width: 1px; opacity: 1; stroke-dasharray: 3px, 3px;"/></g><g class="points"/><g class="text"/></g><g class="trace scatter trace5bc80b" style="stroke-miterlimit: 2;"><g class="fills"><g><path class="js-fill" d="M180.34,258.16L180.34,13.84L180.1,13.84L180.04,16.83L180.04,16.98L179.06,25.63L179.03,25.78L176.78,32.34L176.71,32.49L172.39,39.05L172.26,39.2L162.96,48.89L162.82,49.04L158.86,53.67L158.75,53.82L156.62,57.84L156.57,57.99L156.11,61.87L156.13,62.02L157.55,66.49L157.63,66.64L164.7,75.89L164.83,76.04L169.91,82.31L170.02,82.45L173.76,88.72L173.83,88.87L176.41,96.47L176.45,96.62L177.96,108.26L177.97,108.41L178.71,143.91L178.71,144.05L178.18,163.15L178.17,163.29L177.32,171.35L177.3,171.5L175.24,180L175.18,180.15L171.64,187.46L171.55,187.61L163.33,198.2L163.21,198.35L158.76,204.31L158.67,204.46L156.79,209.08L156.77,209.23L156.75,212.81L156.78,212.96L158.81,217.74L158.91,217.88L167.7,227.73L167.84,227.88L173.36,234.14L173.48,234.29L177.39,241L177.45,241.15L179.34,247.86L179.37,248.01L180.1,258.16Z" style="fill: rgb(0, 200, 229); fill-opacity: 0.2; stroke-width: 0;"/></g></g><g class="errorbars"/><g class="lines"><path class="js-line" d="M180.1,258.16L179.37,248.01L179.34,247.86L177.45,241.15L177.39,241L173.48,234.29L173.36,234.14L167.84,227.88L167.7,227.73L158.91,217.88L158.81,217.74L156.78,212.96L156.75,212.81L156.77,209.23L156.79,209.08L158.67,204.46L158.76,204.31L163.21,198.35L163.33,198.2L171.55,187.61L171.64,187.46L175.18,180.15L175.24,180L177.3,171.5L177.32,171.35L178.17,163.29L178.18,163.15L178.71,144.05L178.71,143.91L177.97,108.41L177.96,108.26L176.45,96.62L176.41,96.47L173.83,88.87L173.76,88.72L170.02,82.45L169.91,82.31L164.83,76.04L164.7,75.89L157.63,66.64L157.55,66.49L156.13,62.02L156.11,61.87L156.57,57.99L156.62,57.84L158.75,53.82L158.86,53.67L162.82,49.04L162.96,48.89L172.26,39.2L172.39,39.05L176.71,32.49L176.78,32.34L179.03,25.78L179.06,25.63L180.04,16.98L180.04,16.83L180.1,13.84" style="vector-effect: non-scaling-stroke; fill: none; stroke: rgb(0, 200, 229); stroke-opacity: 1; stroke-width: 1px; opacity: 1;"/></g><g class="points"/><g class="text"/></g><g class="trace scatter traceaaba0a" style="stroke-miterlimit: 2;"><g class="fills"/><g class="errorbars"/><g class="lines"><path class="js-line" d="M180.34,258.16L180.34,13.84" style="vector-effect: non-scaling-stroke; fill: none; stroke: rgb(0, 0, 0); stroke-opacity: 0; stroke-width: 1px; opacity: 1;"/></g><g class="points"/><g class="text"/></g><g class="trace scatter tracec85b35" style="stroke-miterlimit: 2; opacity: 1;"><g class="fills"/><g class="errorbars"/><g class="lines"><path class="js-line" d="M180.34,208.19L157.01,208.19" style="vector-effect: non-scaling-stroke; fill: none; stroke: rgb(0, 200, 229); stroke-opacity: 1; stroke-width: 1px; opacity: 1; stroke-dasharray: 3px, 3px;"/></g><g class="points"/><g class="text"/></g><g class="trace scatter tracec1db8d" style="stroke-miterlimit: 2; opacity: 1;"><g class="fills"/><g class="errorbars"/><g class="lines"><path class="js-line" d="M180.34,129.14L178.62,129.14" style="vector-effect: non-scaling-stroke; fill: none; stroke: rgb(0, 200, 229); stroke-opacity: 1; stroke-width: 1px; opacity: 1; stroke-dasharray: 3px, 3px;"/></g><g class="points"/><g class="text"/></g><g class="trace scatter trace7a8911" style="stroke-miterlimit: 2; opacity: 1;"><g class="fills"/><g class="errorbars"/><g class="lines"><path class="js-line" d="M180.34,63.51L156.39,63.51" style="vector-effect: non-scaling-stroke; fill: none; stroke: rgb(0, 200, 229); stroke-opacity: 1; stroke-width: 1px; opacity: 1; stroke-dasharray: 3px, 3px;"/></g><g class="points"/><g class="text"/></g><g class="trace scatter trace1b81a0" style="stroke-miterlimit: 2;"><g class="fills"><g><path class="js-fill" d="M205.27,258.32L205.27,13.68L205.02,13.68L204.82,19.36L204.8,19.51L203.66,26.68L203.63,26.83L201.75,31.9L201.68,32.05L198.07,37.73L197.96,37.88L188.35,47.88L188.2,48.03L183.01,53.86L182.91,54.01L180.96,57.59L180.9,57.74L180.3,61.62L180.31,61.77L181.69,66.4L181.77,66.55L189.77,76.86L189.9,77.01L195.86,84.62L195.95,84.77L199.19,90.9L199.26,91.05L201.39,98.07L201.42,98.21L203.09,112.1L203.1,112.25L203.85,144.81L203.85,144.96L203.44,162.29L203.43,162.43L202.61,170.35L202.59,170.5L200.53,179.01L200.48,179.16L197.38,185.73L197.29,185.88L185.67,200.37L185.55,200.52L182.27,205.15L182.18,205.3L180.72,209.03L180.69,209.18L180.62,212.62L180.64,212.77L182.37,217.1L182.46,217.25L193.01,228.75L193.16,228.9L198.35,234.72L198.46,234.87L201.99,240.69L202.06,240.84L204.26,248.16L204.28,248.31L205.02,258.32Z" style="fill: rgb(0, 200, 229); fill-opacity: 0.2; stroke-width: 0;"/></g></g><g class="errorbars"/><g class="lines"><path class="js-line" d="M205.02,258.32L204.28,248.31L204.26,248.16L202.06,240.84L201.99,240.69L198.46,234.87L198.35,234.72L193.16,228.9L193.01,228.75L182.46,217.25L182.37,217.1L180.64,212.77L180.62,212.62L180.69,209.18L180.72,209.03L182.18,205.3L182.27,205.15L185.55,200.52L185.67,200.37L197.29,185.88L197.38,185.73L200.48,179.16L200.53,179.01L202.59,170.5L202.61,170.35L203.43,162.43L203.44,162.29L203.85,144.96L203.85,144.81L203.1,112.25L203.09,112.1L201.42,98.21L201.39,98.07L199.26,91.05L199.19,90.9L195.95,84.77L195.86,84.62L189.9,77.01L189.77,76.86L181.77,66.55L181.69,66.4L180.31,61.77L180.3,61.62L180.9,57.74L180.96,57.59L182.91,54.01L183.01,53.86L188.2,48.03L188.35,47.88L197.96,37.88L198.07,37.73L201.68,32.05L201.75,31.9L203.63,26.83L203.66,26.68L204.8,19.51L204.82,19.36L205.02,13.68" style="vector-effect: non-scaling-stroke; fill: none; stroke: rgb(0, 200, 229); stroke-opacity: 1; stroke-width: 1px; opacity: 1;"/></g><g class="points"/><g class="text"/></g><g class="trace scatter trace2ecc98" style="stroke-miterlimit: 2;"><g class="fills"/><g class="errorbars"/><g class="lines"><path class="js-line" d="M205.27,258.32L205.27,13.68" style="vector-effect: non-scaling-stroke; fill: none; stroke: rgb(0, 0, 0); stroke-opacity: 0; stroke-width: 1px; opacity: 1;"/></g><g class="points"/><g class="text"/></g><g class="trace scatter trace3f1155" style="stroke-miterlimit: 2; opacity: 1;"><g class="fills"/><g class="errorbars"/><g class="lines"><path class="js-line" d="M205.27,208.58L180.83,208.58" style="vector-effect: non-scaling-stroke; fill: none; stroke: rgb(0, 200, 229); stroke-opacity: 1; stroke-width: 1px; opacity: 1; stroke-dasharray: 3px, 3px;"/></g><g class="points"/><g class="text"/></g><g class="trace scatter trace067cb8" style="stroke-miterlimit: 2; opacity: 1;"><g class="fills"/><g class="errorbars"/><g class="lines"><path class="js-line" d="M205.27,126.29L203.66,126.29" style="vector-effect: non-scaling-stroke; fill: none; stroke: rgb(0, 200, 229); stroke-opacity: 1; stroke-width: 1px; opacity: 1; stroke-dasharray: 3px, 3px;"/></g><g class="points"/><g class="text"/></g><g class="trace scatter trace8cf1ab" style="stroke-miterlimit: 2; opacity: 1;"><g class="fills"/><g class="errorbars"/><g class="lines"><path class="js-line" d="M205.27,63.42L180.57,63.42" style="vector-effect: non-scaling-stroke; fill: none; stroke: rgb(0, 200, 229); stroke-opacity: 1; stroke-width: 1px; opacity: 1; stroke-dasharray: 3px, 3px;"/></g><g class="points"/><g class="text"/></g><g class="trace scatter trace9417ea" style="stroke-miterlimit: 2;"><g class="fills"><g><path class="js-fill" d="M231.04,258.36L231.04,13.64L230.79,13.64L230.35,22L230.33,22.15L228.56,29.77L228.5,29.92L226,35L225.91,35.15L213.74,48.9L213.59,49.05L209.52,53.83L209.41,53.98L207.3,58.01L207.25,58.16L206.77,61.9L206.78,62.05L207.75,65.78L207.81,65.93L215.02,75.94L215.15,76.09L221.62,84.46L221.72,84.61L224.94,90.73L225,90.88L227.25,98.35L227.28,98.5L228.99,113.29L229,113.44L229.75,140.33L229.75,140.48L229.47,155.87L229.46,156.02L228.62,167.97L228.61,168.12L226.71,177.98L226.67,178.13L224.07,184.56L223.99,184.71L220.15,190.68L220.04,190.83L214.36,197.55L214.23,197.7L208.77,204.58L208.68,204.73L206.79,208.91L206.75,209.06L206.57,212.94L206.6,213.09L208.34,217.43L208.43,217.57L216.86,226.99L217.01,227.14L224.15,234.91L224.26,235.05L227.78,240.88L227.84,241.03L230.03,248.35L230.06,248.5L230.79,258.36Z" style="fill: rgb(0, 200, 229); fill-opacity: 0.2; stroke-width: 0;"/></g></g><g class="errorbars"/><g class="lines"><path class="js-line" d="M230.79,258.36L230.06,248.5L230.03,248.35L227.84,241.03L227.78,240.88L224.26,235.05L224.15,234.91L217.01,227.14L216.86,226.99L208.43,217.57L208.34,217.43L206.6,213.09L206.57,212.94L206.75,209.06L206.79,208.91L208.68,204.73L208.77,204.58L214.23,197.7L214.36,197.55L220.04,190.83L220.15,190.68L223.99,184.71L224.07,184.56L226.67,178.13L226.71,177.98L228.61,168.12L228.62,167.97L229.46,156.02L229.47,155.87L229.75,140.48L229.75,140.33L229,113.44L228.99,113.29L227.28,98.5L227.25,98.35L225,90.88L224.94,90.73L221.72,84.61L221.62,84.46L215.15,76.09L215.02,75.94L207.81,65.93L207.75,65.78L206.78,62.05L206.77,61.9L207.25,58.16L207.3,58.01L209.41,53.98L209.52,53.83L213.59,49.05L213.74,48.9L225.91,35.15L226,35L228.5,29.92L228.56,29.77L230.33,22.15L230.35,22L230.79,13.64" style="vector-effect: non-scaling-stroke; fill: none; stroke: rgb(0, 200, 229); stroke-opacity: 1; stroke-width: 1px; opacity: 1;"/></g><g class="points"/><g class="text"/></g><g class="trace scatter trace2b4a96" style="stroke-miterlimit: 2;"><g class="fills"/><g class="errorbars"/><g class="lines"><path class="js-line" d="M231.04,258.36L231.04,13.64" style="vector-effect: non-scaling-stroke; fill: none; stroke: rgb(0, 0, 0); stroke-opacity: 0; stroke-width: 1px; opacity: 1;"/></g><g class="points"/><g class="text"/></g><g class="trace scatter tracec3a043" style="stroke-miterlimit: 2; opacity: 1;"><g class="fills"/><g class="errorbars"/><g class="lines"><path class="js-line" d="M231.04,209.06L206.75,209.06" style="vector-effect: non-scaling-stroke; fill: none; stroke: rgb(0, 200, 229); stroke-opacity: 1; stroke-width: 1px; opacity: 1; stroke-dasharray: 3px, 3px;"/></g><g class="points"/><g class="text"/></g><g class="trace scatter trace7c4ef4" style="stroke-miterlimit: 2; opacity: 1;"><g class="fills"/><g class="errorbars"/><g class="lines"><path class="js-line" d="M231.04,132.12L229.68,132.12" style="vector-effect: non-scaling-stroke; fill: none; stroke: rgb(0, 200, 229); stroke-opacity: 1; stroke-width: 1px; opacity: 1; stroke-dasharray: 3px, 3px;"/></g><g class="points"/><g class="text"/></g><g class="trace scatter trace86d70e" style="stroke-miterlimit: 2; opacity: 1;"><g class="fills"/><g class="errorbars"/><g class="lines"><path class="js-line" d="M231.04,63.84L207.08,63.84" style="vector-effect: non-scaling-stroke; fill: none; stroke: rgb(0, 200, 229); stroke-opacity: 1; stroke-width: 1px; opacity: 1; stroke-dasharray: 3px, 3px;"/></g><g class="points"/><g class="text"/></g><g class="trace scatter trace40d53d" style="stroke-miterlimit: 2;"><g class="fills"><g><path class="js-fill" d="M256.32,258.28L256.32,13.72L256.07,13.72L255.64,21.93L255.62,22.08L253.81,29.84L253.75,29.99L250.35,36.41L250.25,36.56L240.22,47.61L240.07,47.76L234.68,53.88L234.58,54.03L232.47,58.06L232.43,58.21L232.01,62.54L232.03,62.69L233.61,67.17L233.69,67.32L240.37,76.13L240.5,76.28L246.74,84.34L246.84,84.49L250.09,90.61L250.15,90.76L252.34,97.93L252.38,98.08L254.18,113.45L254.19,113.6L254.93,141.38L254.93,141.52L254.6,157.65L254.6,157.8L253.57,171.09L253.55,171.24L251.64,179.3L251.59,179.45L248.59,185.87L248.5,186.02L237.98,199.16L237.85,199.31L233.85,204.53L233.75,204.68L231.84,209.16L231.81,209.31L231.74,212.74L231.76,212.89L233.59,217.37L233.68,217.52L247.12,232L247.25,232.15L251.32,237.53L251.41,237.68L253.76,242.46L253.82,242.61L255.29,248.13L255.32,248.28L256.07,258.28Z" style="fill: rgb(0, 200, 229); fill-opacity: 0.2; stroke-width: 0;"/></g></g><g class="errorbars"/><g class="lines"><path class="js-line" d="M256.07,258.28L255.32,248.28L255.29,248.13L253.82,242.61L253.76,242.46L251.41,237.68L251.32,237.53L247.25,232.15L247.12,232L233.68,217.52L233.59,217.37L231.76,212.89L231.74,212.74L231.81,209.31L231.84,209.16L233.75,204.68L233.85,204.53L237.85,199.31L237.98,199.16L248.5,186.02L248.59,185.87L251.59,179.45L251.64,179.3L253.55,171.24L253.57,171.09L254.6,157.8L254.6,157.65L254.93,141.52L254.93,141.38L254.19,113.6L254.18,113.45L252.38,98.08L252.34,97.93L250.15,90.76L250.09,90.61L246.84,84.49L246.74,84.34L240.5,76.28L240.37,76.13L233.69,67.32L233.61,67.17L232.03,62.69L232.01,62.54L232.43,58.21L232.47,58.06L234.58,54.03L234.68,53.88L240.07,47.76L240.22,47.61L250.25,36.56L250.35,36.41L253.75,29.99L253.81,29.84L255.62,22.08L255.64,21.93L256.07,13.72" style="vector-effect: non-scaling-stroke; fill: none; stroke: rgb(0, 200, 229); stroke-opacity: 1; stroke-width: 1px; opacity: 1;"/></g><g class="points"/><g class="text"/></g><g class="trace scatter trace89f6e0" style="stroke-miterlimit: 2;"><g class="fills"/><g class="errorbars"/><g class="lines"><path class="js-line" d="M256.32,258.28L256.32,13.72" style="vector-effect: non-scaling-stroke; fill: none; stroke: rgb(0, 0, 0); stroke-opacity: 0; stroke-width: 1px; opacity: 1;"/></g><g class="points"/><g class="text"/></g><g class="trace scatter tracee09840" style="stroke-miterlimit: 2; opacity: 1;"><g class="fills"/><g class="errorbars"/><g class="lines"><path class="js-line" d="M256.32,208.86L231.91,208.86" style="vector-effect: non-scaling-stroke; fill: none; stroke: rgb(0, 200, 229); stroke-opacity: 1; stroke-width: 1px; opacity: 1; stroke-dasharray: 3px, 3px;"/></g><g class="points"/><g class="text"/></g><g class="trace scatter trace390832" style="stroke-miterlimit: 2; opacity: 1;"><g class="fills"/><g class="errorbars"/><g class="lines"><path class="js-line" d="M256.32,130.92L254.89,130.92" style="vector-effect: non-scaling-stroke; fill: none; stroke: rgb(0, 200, 229); stroke-opacity: 1; stroke-width: 1px; opacity: 1; stroke-dasharray: 3px, 3px;"/></g><g class="points"/><g class="text"/></g><g class="trace scatter trace5543a6" style="stroke-miterlimit: 2; opacity: 1;"><g class="fills"/><g class="errorbars"/><g class="lines"><path class="js-line" d="M256.32,63.88L232.28,63.88" style="vector-effect: non-scaling-stroke; fill: none; stroke: rgb(0, 200, 229); stroke-opacity: 1; stroke-width: 1px; opacity: 1; stroke-dasharray: 3px, 3px;"/></g><g class="points"/><g class="text"/></g><g class="trace scatter trace25ef78" style="stroke-miterlimit: 2;"><g class="fills"><g><path class="js-fill" d="M281.75,258.13L281.75,13.87L281.5,13.87L281.46,16.4L281.45,16.55L280.8,23.56L280.78,23.71L278.87,30.42L278.81,30.57L275.43,36.39L275.32,36.54L262.96,49.06L262.81,49.21L258.2,54.28L258.09,54.43L256.07,58.16L256.02,58.31L255.52,61.59L255.52,61.74L256.66,65.91L256.73,66.06L266.53,78.14L266.67,78.29L272.34,85.45L272.44,85.6L275.54,91.41L275.6,91.56L277.76,98.57L277.79,98.72L279.28,110.05L279.3,110.2L279.71,159.41L279.7,159.56L278.78,172.09L278.75,172.24L276.99,179.84L276.93,179.99L273.95,186.4L273.87,186.55L263.77,199.23L263.64,199.38L259.66,204.6L259.57,204.75L257.81,208.62L257.77,208.77L257.48,212.2L257.49,212.35L258.79,216.38L258.87,216.53L264.73,223.83L264.88,223.98L274.25,233.82L274.37,233.97L278.47,240.53L278.53,240.68L280.74,247.99L280.76,248.14L281.5,258.13Z" style="fill: rgb(59, 2, 128); fill-opacity: 0.2; stroke-width: 0;"/></g></g><g class="errorbars"/><g class="lines"><path class="js-line" d="M281.5,258.13L280.76,248.14L280.74,247.99L278.53,240.68L278.47,240.53L274.37,233.97L274.25,233.82L264.88,223.98L264.73,223.83L258.87,216.53L258.79,216.38L257.49,212.35L257.48,212.2L257.77,208.77L257.81,208.62L259.57,204.75L259.66,204.6L263.64,199.38L263.77,199.23L273.87,186.55L273.95,186.4L276.93,179.99L276.99,179.84L278.75,172.24L278.78,172.09L279.7,159.56L279.71,159.41L279.3,110.2L279.28,110.05L277.79,98.72L277.76,98.57L275.6,91.56L275.54,91.41L272.44,85.6L272.34,85.45L266.67,78.29L266.53,78.14L256.73,66.06L256.66,65.91L255.52,61.74L255.52,61.59L256.02,58.31L256.07,58.16L258.09,54.43L258.2,54.28L262.81,49.21L262.96,49.06L275.32,36.54L275.43,36.39L278.81,30.57L278.87,30.42L280.78,23.71L280.8,23.56L281.45,16.55L281.46,16.4L281.5,13.87" style="vector-effect: non-scaling-stroke; fill: none; stroke: rgb(59, 2, 128); stroke-opacity: 1; stroke-width: 1px; opacity: 1;"/></g><g class="points"/><g class="text"/></g><g class="trace scatter tracedef69e" style="stroke-miterlimit: 2;"><g class="fills"/><g class="errorbars"/><g class="lines"><path class="js-line" d="M281.75,258.13L281.75,13.87" style="vector-effect: non-scaling-stroke; fill: none; stroke: rgb(0, 0, 0); stroke-opacity: 0; stroke-width: 1px; opacity: 1;"/></g><g class="points"/><g class="text"/></g><g class="trace scatter traceb1deed" style="stroke-miterlimit: 2; opacity: 1;"><g class="fills"/><g class="errorbars"/><g class="lines"><path class="js-line" d="M281.75,207.73L258.1,207.73" style="vector-effect: non-scaling-stroke; fill: none; stroke: rgb(59, 2, 128); stroke-opacity: 1; stroke-width: 1px; opacity: 1; stroke-dasharray: 3px, 3px;"/></g><g class="points"/><g class="text"/></g><g class="trace scatter trace9c0b2b" style="stroke-miterlimit: 2; opacity: 1;"><g class="fills"/><g class="errorbars"/><g class="lines"><path class="js-line" d="M281.75,110.95L279.35,110.95" style="vector-effect: non-scaling-stroke; fill: none; stroke: rgb(59, 2, 128); stroke-opacity: 1; stroke-width: 1px; opacity: 1; stroke-dasharray: 3px, 3px;"/></g><g class="points"/><g class="text"/></g><g class="trace scatter trace1d223e" style="stroke-miterlimit: 2; opacity: 1;"><g class="fills"/><g class="errorbars"/><g class="lines"><path class="js-line" d="M281.75,63.08L255.69,63.08" style="vector-effect: non-scaling-stroke; fill: none; stroke: rgb(59, 2, 128); stroke-opacity: 1; stroke-width: 1px; opacity: 1; stroke-dasharray: 3px, 3px;"/></g><g class="points"/><g class="text"/></g><g class="trace scatter traceb80314" style="stroke-miterlimit: 2;"><g class="fills"><g><path class="js-fill" d="M307.99,258.21L307.99,13.79L307.75,13.79L307.29,22.3L307.28,22.45L305.9,28.86L305.85,29.01L302.85,35.43L302.75,35.58L295.06,44.83L294.91,44.98L288.35,51.99L288.23,52.14L285.25,56.77L285.18,56.92L284.21,60.65L284.2,60.8L284.86,65.12L284.92,65.27L297.4,82.58L297.51,82.73L302.12,90.94L302.18,91.09L304.27,97.8L304.31,97.95L305.68,107.65L305.7,107.8L306.44,131.37L306.44,131.52L306.39,143.46L306.39,143.61L305.89,161.66L305.88,161.81L305.01,171.21L304.99,171.36L303.62,177.78L303.58,177.93L301.07,184.2L301,184.35L287.16,201.95L287.04,202.1L284.09,206.73L284.03,206.88L283.05,210.46L283.04,210.61L283.44,214.04L283.48,214.19L285.68,218.37L285.78,218.52L294.13,227.32L294.28,227.47L301.17,234.93L301.28,235.08L304.72,240.75L304.78,240.9L306.99,248.21L307.01,248.36L307.75,258.21Z" style="fill: rgb(59, 2, 128); fill-opacity: 0.2; stroke-width: 0;"/></g></g><g class="errorbars"/><g class="lines"><path class="js-line" d="M307.75,258.21L307.01,248.36L306.99,248.21L304.78,240.9L304.72,240.75L301.28,235.08L301.17,234.93L294.28,227.47L294.13,227.32L285.78,218.52L285.68,218.37L283.48,214.19L283.44,214.04L283.04,210.61L283.05,210.46L284.03,206.88L284.09,206.73L287.04,202.1L287.16,201.95L301,184.35L301.07,184.2L303.58,177.93L303.62,177.78L304.99,171.36L305.01,171.21L305.88,161.81L305.89,161.66L306.39,143.61L306.39,143.46L306.44,131.52L306.44,131.37L305.7,107.8L305.68,107.65L304.31,97.95L304.27,97.8L302.18,91.09L302.12,90.94L297.51,82.73L297.4,82.58L284.92,65.27L284.86,65.12L284.2,60.8L284.21,60.65L285.18,56.92L285.25,56.77L288.23,52.14L288.35,51.99L294.91,44.98L295.06,44.83L302.75,35.58L302.85,35.43L305.85,29.01L305.9,28.86L307.28,22.45L307.29,22.3L307.75,13.79" style="vector-effect: non-scaling-stroke; fill: none; stroke: rgb(59, 2, 128); stroke-opacity: 1; stroke-width: 1px; opacity: 1;"/></g><g class="points"/><g class="text"/></g><g class="trace scatter trace8771a2" style="stroke-miterlimit: 2;"><g class="fills"/><g class="errorbars"/><g class="lines"><path class="js-line" d="M307.99,258.21L307.99,13.79" style="vector-effect: non-scaling-stroke; fill: none; stroke: rgb(0, 0, 0); stroke-opacity: 0; stroke-width: 1px; opacity: 1;"/></g><g class="points"/><g class="text"/></g><g class="trace scatter tracebd837a" style="stroke-miterlimit: 2; opacity: 1;"><g class="fills"/><g class="errorbars"/><g class="lines"><path class="js-line" d="M307.99,209.12L283.26,209.12" style="vector-effect: non-scaling-stroke; fill: none; stroke: rgb(59, 2, 128); stroke-opacity: 1; stroke-width: 1px; opacity: 1; stroke-dasharray: 3px, 3px;"/></g><g class="points"/><g class="text"/></g><g class="trace scatter trace777812" style="stroke-miterlimit: 2; opacity: 1;"><g class="fills"/><g class="errorbars"/><g class="lines"><path class="js-line" d="M307.99,145.85L306.36,145.85" style="vector-effect: non-scaling-stroke; fill: none; stroke: rgb(59, 2, 128); stroke-opacity: 1; stroke-width: 1px; opacity: 1; stroke-dasharray: 3px, 3px;"/></g><g class="points"/><g class="text"/></g><g class="trace scatter trace505c91" style="stroke-miterlimit: 2; opacity: 1;"><g class="fills"/><g class="errorbars"/><g class="lines"><path class="js-line" d="M307.99,64.38L284.62,64.38" style="vector-effect: non-scaling-stroke; fill: none; stroke: rgb(59, 2, 128); stroke-opacity: 1; stroke-width: 1px; opacity: 1; stroke-dasharray: 3px, 3px;"/></g><g class="points"/><g class="text"/></g><g class="trace scatter trace641df2" style="stroke-miterlimit: 2;"><g class="fills"><g><path class="js-fill" d="M333.32,258.4L333.32,13.6L333.07,13.6L333.02,16.59L333.02,16.74L332.36,23.76L332.34,23.91L330.39,30.79L330.33,30.94L327.53,36.02L327.43,36.17L321.9,42.74L321.76,42.89L313.39,51.41L313.26,51.56L309.76,56.64L309.69,56.79L308.66,61.13L308.66,61.27L309.57,65.46L309.63,65.61L314.71,73.08L314.84,73.23L322.77,82.8L322.88,82.95L327.34,90.87L327.4,91.02L329.57,98.19L329.6,98.34L331.17,110.89L331.18,111.04L331.93,142.43L331.93,142.58L331.3,163.2L331.29,163.35L330.05,173.36L330.02,173.51L327.99,180.54L327.93,180.69L324.82,186.66L324.72,186.81L313.32,200.11L313.19,200.26L309.55,204.9L309.45,205.05L307.56,209.38L307.53,209.53L307.55,213.27L307.59,213.42L309.5,217.6L309.6,217.75L317.64,226.27L317.8,226.42L325.5,234.19L325.62,234.34L329.22,239.57L329.31,239.72L331.59,245.4L331.63,245.55L333.07,258.4Z" style="fill: rgb(59, 2, 128); fill-opacity: 0.2; stroke-width: 0;"/></g></g><g class="errorbars"/><g class="lines"><path class="js-line" d="M333.07,258.4L331.63,245.55L331.59,245.4L329.31,239.72L329.22,239.57L325.62,234.34L325.5,234.19L317.8,226.42L317.64,226.27L309.6,217.75L309.5,217.6L307.59,213.42L307.55,213.27L307.53,209.53L307.56,209.38L309.45,205.05L309.55,204.9L313.19,200.26L313.32,200.11L324.72,186.81L324.82,186.66L327.93,180.69L327.99,180.54L330.02,173.51L330.05,173.36L331.29,163.35L331.3,163.2L331.93,142.58L331.93,142.43L331.18,111.04L331.17,110.89L329.6,98.34L329.57,98.19L327.4,91.02L327.34,90.87L322.88,82.95L322.77,82.8L314.84,73.23L314.71,73.08L309.63,65.61L309.57,65.46L308.66,61.27L308.66,61.13L309.69,56.79L309.76,56.64L313.26,51.56L313.39,51.41L321.76,42.89L321.9,42.74L327.43,36.17L327.53,36.02L330.33,30.94L330.39,30.79L332.34,23.91L332.36,23.76L333.02,16.74L333.02,16.59L333.07,13.6" style="vector-effect: non-scaling-stroke; fill: none; stroke: rgb(59, 2, 128); stroke-opacity: 1; stroke-width: 1px; opacity: 1;"/></g><g class="points"/><g class="text"/></g><g class="trace scatter trace73c9f2" style="stroke-miterlimit: 2;"><g class="fills"/><g class="errorbars"/><g class="lines"><path class="js-line" d="M333.32,258.4L333.32,13.6" style="vector-effect: non-scaling-stroke; fill: none; stroke: rgb(0, 0, 0); stroke-opacity: 0; stroke-width: 1px; opacity: 1;"/></g><g class="points"/><g class="text"/></g><g class="trace scatter tracef06573" style="stroke-miterlimit: 2; opacity: 1;"><g class="fills"/><g class="errorbars"/><g class="lines"><path class="js-line" d="M333.32,209.38L307.56,209.38" style="vector-effect: non-scaling-stroke; fill: none; stroke: rgb(59, 2, 128); stroke-opacity: 1; stroke-width: 1px; opacity: 1; stroke-dasharray: 3px, 3px;"/></g><g class="points"/><g class="text"/></g><g class="trace scatter tracef907f4" style="stroke-miterlimit: 2; opacity: 1;"><g class="fills"/><g class="errorbars"/><g class="lines"><path class="js-line" d="M333.32,147.51L331.88,147.51" style="vector-effect: non-scaling-stroke; fill: none; stroke: rgb(59, 2, 128); stroke-opacity: 1; stroke-width: 1px; opacity: 1; stroke-dasharray: 3px, 3px;"/></g><g class="points"/><g class="text"/></g><g class="trace scatter traceed67da" style="stroke-miterlimit: 2; opacity: 1;"><g class="fills"/><g class="errorbars"/><g class="lines"><path class="js-line" d="M333.32,64.11L309.09,64.11" style="vector-effect: non-scaling-stroke; fill: none; stroke: rgb(59, 2, 128); stroke-opacity: 1; stroke-width: 1px; opacity: 1; stroke-dasharray: 3px, 3px;"/></g><g class="points"/><g class="text"/></g><g class="trace scatter tracec71e0b" style="stroke-miterlimit: 2;"><g class="fills"><g><path class="js-fill" d="M359.4,258.23L359.4,13.77L359.15,13.77L358.43,23.92L358.4,24.07L356.91,29.74L356.86,29.89L353.48,36.31L353.37,36.46L345.47,45.41L345.32,45.56L339.23,51.98L339.11,52.13L335.94,57.2L335.89,57.35L335.17,61.53L335.18,61.68L336.11,65.41L336.17,65.56L341.46,73.32L341.59,73.47L349.91,83.91L350.01,84.06L353.26,90.18L353.33,90.33L355.57,97.79L355.6,97.94L357.25,111.67L357.26,111.82L358,138.84L358,138.98L357.14,162.86L357.12,163.01L355.79,173.46L355.76,173.61L353.12,182.12L353.05,182.27L349.69,188.23L349.58,188.38L342.23,197.34L342.1,197.49L337.34,203.31L337.24,203.46L334.91,207.93L334.86,208.08L334.39,211.52L334.39,211.67L335.65,215.99L335.73,216.14L348.89,230.62L349.03,230.77L353.38,235.99L353.49,236.14L356.14,240.77L356.21,240.92L358.37,248.08L358.4,248.23L359.15,258.23Z" style="fill: rgb(59, 2, 128); fill-opacity: 0.2; stroke-width: 0;"/></g></g><g class="errorbars"/><g class="lines"><path class="js-line" d="M359.15,258.23L358.4,248.23L358.37,248.08L356.21,240.92L356.14,240.77L353.49,236.14L353.38,235.99L349.03,230.77L348.89,230.62L335.73,216.14L335.65,215.99L334.39,211.67L334.39,211.52L334.86,208.08L334.91,207.93L337.24,203.46L337.34,203.31L342.1,197.49L342.23,197.34L349.58,188.38L349.69,188.23L353.05,182.27L353.12,182.12L355.76,173.61L355.79,173.46L357.12,163.01L357.14,162.86L358,138.98L358,138.84L357.26,111.82L357.25,111.67L355.6,97.94L355.57,97.79L353.33,90.33L353.26,90.18L350.01,84.06L349.91,83.91L341.59,73.47L341.46,73.32L336.17,65.56L336.11,65.41L335.18,61.68L335.17,61.53L335.89,57.35L335.94,57.2L339.11,52.13L339.23,51.98L345.32,45.56L345.47,45.41L353.37,36.46L353.48,36.31L356.86,29.89L356.91,29.74L358.4,24.07L358.43,23.92L359.15,13.77" style="vector-effect: non-scaling-stroke; fill: none; stroke: rgb(59, 2, 128); stroke-opacity: 1; stroke-width: 1px; opacity: 1;"/></g><g class="points"/><g class="text"/></g><g class="trace scatter trace6cc32f" style="stroke-miterlimit: 2;"><g class="fills"/><g class="errorbars"/><g class="lines"><path class="js-line" d="M359.4,258.23L359.4,13.77" style="vector-effect: non-scaling-stroke; fill: none; stroke: rgb(0, 0, 0); stroke-opacity: 0; stroke-width: 1px; opacity: 1;"/></g><g class="points"/><g class="text"/></g><g class="trace scatter trace952347" style="stroke-miterlimit: 2; opacity: 1;"><g class="fills"/><g class="errorbars"/><g class="lines"><path class="js-line" d="M359.4,208.83L334.65,208.83" style="vector-effect: non-scaling-stroke; fill: none; stroke: rgb(59, 2, 128); stroke-opacity: 1; stroke-width: 1px; opacity: 1; stroke-dasharray: 3px, 3px;"/></g><g class="points"/><g class="text"/></g><g class="trace scatter trace129bca" style="stroke-miterlimit: 2; opacity: 1;"><g class="fills"/><g class="errorbars"/><g class="lines"><path class="js-line" d="M359.4,145.7L357.9,145.7" style="vector-effect: non-scaling-stroke; fill: none; stroke: rgb(59, 2, 128); stroke-opacity: 1; stroke-width: 1px; opacity: 1; stroke-dasharray: 3px, 3px;"/></g><g class="points"/><g class="text"/></g><g class="trace scatter trace6a1308" style="stroke-miterlimit: 2; opacity: 1;"><g class="fills"/><g class="errorbars"/><g class="lines"><path class="js-line" d="M359.4,64.07L335.62,64.07" style="vector-effect: non-scaling-stroke; fill: none; stroke: rgb(59, 2, 128); stroke-opacity: 1; stroke-width: 1px; opacity: 1; stroke-dasharray: 3px, 3px;"/></g><g class="points"/><g class="text"/></g><g class="trace scatter trace7d0520" style="stroke-miterlimit: 2;"><g class="fills"><g><path class="js-fill" d="M384.98,258.29L384.98,13.71L384.73,13.71L384.29,21.78L384.28,21.93L382.5,29.54L382.44,29.69L379.24,35.81L379.14,35.96L368.14,47.91L367.99,48.06L362.94,53.73L362.83,53.88L360.7,57.91L360.65,58.06L360.18,61.49L360.19,61.64L361.54,66.27L361.62,66.42L369.78,76.87L369.91,77.02L375.89,84.64L375.98,84.79L379.09,90.61L379.15,90.76L381.21,97.33L381.24,97.48L382.77,109.42L382.78,109.57L383.52,140.93L383.52,141.08L383.22,156.75L383.22,156.9L382.16,170.34L382.14,170.49L380.64,177.36L380.6,177.51L377.76,184.38L377.68,184.53L366.12,199.76L366,199.91L362.14,205.58L362.07,205.73L360.82,209.61L360.8,209.76L361.08,213.64L361.12,213.79L362.78,217.37L362.87,217.52L372.56,228.27L372.71,228.42L378.97,235.74L379.07,235.89L381.7,240.52L381.77,240.67L383.96,247.98L383.99,248.13L384.73,258.29Z" style="fill: rgb(59, 2, 128); fill-opacity: 0.2; stroke-width: 0;"/></g></g><g class="errorbars"/><g class="lines"><path class="js-line" d="M384.73,258.29L383.99,248.13L383.96,247.98L381.77,240.67L381.7,240.52L379.07,235.89L378.97,235.74L372.71,228.42L372.56,228.27L362.87,217.52L362.78,217.37L361.12,213.79L361.08,213.64L360.8,209.76L360.82,209.61L362.07,205.73L362.14,205.58L366,199.91L366.12,199.76L377.68,184.53L377.76,184.38L380.6,177.51L380.64,177.36L382.14,170.49L382.16,170.34L383.22,156.9L383.22,156.75L383.52,141.08L383.52,140.93L382.78,109.57L382.77,109.42L381.24,97.48L381.21,97.33L379.15,90.76L379.09,90.61L375.98,84.79L375.89,84.64L369.91,77.02L369.78,76.87L361.62,66.42L361.54,66.27L360.19,61.64L360.18,61.49L360.65,58.06L360.7,57.91L362.83,53.88L362.94,53.73L367.99,48.06L368.14,47.91L379.14,35.96L379.24,35.81L382.44,29.69L382.5,29.54L384.28,21.93L384.29,21.78L384.73,13.71" style="vector-effect: non-scaling-stroke; fill: none; stroke: rgb(59, 2, 128); stroke-opacity: 1; stroke-width: 1px; opacity: 1;"/></g><g class="points"/><g class="text"/></g><g class="trace scatter trace2af051" style="stroke-miterlimit: 2;"><g class="fills"/><g class="errorbars"/><g class="lines"><path class="js-line" d="M384.98,258.29L384.98,13.71" style="vector-effect: non-scaling-stroke; fill: none; stroke: rgb(0, 0, 0); stroke-opacity: 0; stroke-width: 1px; opacity: 1;"/></g><g class="points"/><g class="text"/></g><g class="trace scatter trace771b13" style="stroke-miterlimit: 2; opacity: 1;"><g class="fills"/><g class="errorbars"/><g class="lines"><path class="js-line" d="M384.98,208.27L361.09,208.27" style="vector-effect: non-scaling-stroke; fill: none; stroke: rgb(59, 2, 128); stroke-opacity: 1; stroke-width: 1px; opacity: 1; stroke-dasharray: 3px, 3px;"/></g><g class="points"/><g class="text"/></g><g class="trace scatter tracebb2f20" style="stroke-miterlimit: 2; opacity: 1;"><g class="fills"/><g class="errorbars"/><g class="lines"><path class="js-line" d="M384.98,128.83L383.47,128.83" style="vector-effect: non-scaling-stroke; fill: none; stroke: rgb(59, 2, 128); stroke-opacity: 1; stroke-width: 1px; opacity: 1; stroke-dasharray: 3px, 3px;"/></g><g class="points"/><g class="text"/></g><g class="trace scatter tracea4a24f" style="stroke-miterlimit: 2; opacity: 1;"><g class="fills"/><g class="errorbars"/><g class="lines"><path class="js-line" d="M384.98,63.29L360.43,63.29" style="vector-effect: non-scaling-stroke; fill: none; stroke: rgb(59, 2, 128); stroke-opacity: 1; stroke-width: 1px; opacity: 1; stroke-dasharray: 3px, 3px;"/></g><g class="points"/><g class="text"/></g><g class="trace scatter tracedcd13d" style="stroke-miterlimit: 2;"><g class="fills"><g><path class="js-fill" d="M410.4,254.31L410.4,17.69L410.26,17.69L410.02,24.48L410.01,24.62L408.56,32.86L408.51,33L405.9,38.78L405.81,38.92L391.82,54.52L391.69,54.67L387.91,59.87L387.83,60.01L386.56,64.06L386.54,64.2L387.01,68.68L387.06,68.83L390.77,75.9L390.87,76.05L397.9,86.31L397.98,86.45L401.95,94.4L402.01,94.54L404.96,105.23L404.98,105.37L407.2,132.68L407.2,132.82L406.94,147.85L406.94,147.99L406.23,158.97L406.22,159.11L403.82,174.43L403.78,174.57L401.24,182.37L401.18,182.52L395.62,193.21L395.53,193.35L390.81,201.73L390.75,201.87L389.45,206.21L389.43,206.35L389.64,210.68L389.68,210.83L391.41,214.87L391.49,215.02L399.35,224.55L399.48,224.7L404.22,230.48L404.32,230.62L407.51,236.25L407.58,236.4L409.48,243.04L409.51,243.19L410.26,254.31Z" style="fill: rgb(221, 64, 64); fill-opacity: 0.2; stroke-width: 0;"/></g></g><g class="errorbars"/><g class="lines"><path class="js-line" d="M410.26,254.31L409.51,243.19L409.48,243.04L407.58,236.4L407.51,236.25L404.32,230.62L404.22,230.48L399.48,224.7L399.35,224.55L391.49,215.02L391.41,214.87L389.68,210.83L389.64,210.68L389.43,206.35L389.45,206.21L390.75,201.87L390.81,201.73L395.53,193.35L395.62,193.21L401.18,182.52L401.24,182.37L403.78,174.57L403.82,174.43L406.22,159.11L406.23,158.97L406.94,147.99L406.94,147.85L407.2,132.82L407.2,132.68L404.98,105.37L404.96,105.23L402.01,94.54L401.95,94.4L397.98,86.45L397.9,86.31L390.87,76.05L390.77,75.9L387.06,68.83L387.01,68.68L386.54,64.2L386.56,64.06L387.83,60.01L387.91,59.87L391.69,54.67L391.82,54.52L405.81,38.92L405.9,38.78L408.51,33L408.56,32.86L410.01,24.62L410.02,24.48L410.26,17.69" style="vector-effect: non-scaling-stroke; fill: none; stroke: rgb(59, 2, 128); stroke-opacity: 1; stroke-width: 1px; opacity: 1;"/></g><g class="points"/><g class="text"/></g><g class="trace scatter tracec89e3a" style="stroke-miterlimit: 2;"><g class="fills"/><g class="errorbars"/><g class="lines"><path class="js-line" d="M410.4,254.31L410.4,17.69" style="vector-effect: non-scaling-stroke; fill: none; stroke: rgb(0, 0, 0); stroke-opacity: 0; stroke-width: 1px; opacity: 1;"/></g><g class="points"/><g class="text"/></g><g class="trace scatter trace3c5995" style="stroke-miterlimit: 2; opacity: 1;"><g class="fills"/><g class="errorbars"/><g class="lines"><path class="js-line" d="M410.4,200.57L391.35,200.57" style="vector-effect: non-scaling-stroke; fill: none; stroke: rgb(221, 64, 64); stroke-opacity: 1; stroke-width: 1px; opacity: 1; stroke-dasharray: 3px, 3px;"/></g><g class="points"/><g class="text"/></g><g class="trace scatter traceb0157b" style="stroke-miterlimit: 2; opacity: 1;"><g class="fills"/><g class="errorbars"/><g class="lines"><path class="js-line" d="M410.4,119.24L406.65,119.24" style="vector-effect: non-scaling-stroke; fill: none; stroke: rgb(221, 64, 64); stroke-opacity: 1; stroke-width: 1px; opacity: 1; stroke-dasharray: 3px, 3px;"/></g><g class="points"/><g class="text"/></g><g class="trace scatter tracef5796b" style="stroke-miterlimit: 2; opacity: 1;"><g class="fills"/><g class="errorbars"/><g class="lines"><path class="js-line" d="M410.4,69.12L387.15,69.12" style="vector-effect: non-scaling-stroke; fill: none; stroke: rgb(221, 64, 64); stroke-opacity: 1; stroke-width: 1px; opacity: 1; stroke-dasharray: 3px, 3px;"/></g><g class="points"/><g class="text"/></g><g class="trace scatter traceffb021" style="stroke-miterlimit: 2;"><g class="fills"><g><path class="js-fill" d="M436.58,254.59L436.58,17.41L436.43,17.41L435.93,26.68L435.92,26.82L434.29,33.77L434.23,33.92L430.86,40.29L430.76,40.43L420.36,51.87L420.22,52.02L416.27,56.65L416.17,56.79L413.93,60.99L413.88,61.14L413.32,65.19L413.33,65.34L414.41,69.68L414.47,69.83L418.03,76.05L418.13,76.2L425.42,87.49L425.5,87.64L428.29,93.72L428.35,93.86L430.91,102.99L430.94,103.13L432.59,116.16L432.6,116.31L433.01,153.38L433,153.52L431.99,166.7L431.97,166.84L429.99,176.83L429.95,176.98L427.87,182.77L427.81,182.91L421.96,193.34L421.86,193.49L417.35,200.87L417.27,201.01L415.66,205.36L415.62,205.5L415.45,209.56L415.47,209.7L417.44,214.92L417.53,215.06L424.09,223.17L424.22,223.31L430.29,230.55L430.4,230.7L433.68,236.49L433.74,236.64L435.67,243.44L435.69,243.59L436.43,254.59Z" style="fill: rgb(221, 64, 64); fill-opacity: 0.2; stroke-width: 0;"/></g></g><g class="errorbars"/><g class="lines"><path class="js-line" d="M436.43,254.59L435.69,243.59L435.67,243.44L433.74,236.64L433.68,236.49L430.4,230.7L430.29,230.55L424.22,223.31L424.09,223.17L417.53,215.06L417.44,214.92L415.47,209.7L415.45,209.56L415.62,205.5L415.66,205.36L417.27,201.01L417.35,200.87L421.86,193.49L421.96,193.34L427.81,182.91L427.87,182.77L429.95,176.98L429.99,176.83L431.97,166.84L431.99,166.7L433,153.52L433.01,153.38L432.6,116.31L432.59,116.16L430.94,103.13L430.91,102.99L428.35,93.86L428.29,93.72L425.5,87.64L425.42,87.49L418.13,76.2L418.03,76.05L414.47,69.83L414.41,69.68L413.33,65.34L413.32,65.19L413.88,61.14L413.93,60.99L416.17,56.79L416.27,56.65L420.22,52.02L420.36,51.87L430.76,40.43L430.86,40.29L434.23,33.92L434.29,33.77L435.92,26.82L435.93,26.68L436.43,17.41" style="vector-effect: non-scaling-stroke; fill: none; stroke: rgb(59, 2, 128); stroke-opacity: 1; stroke-width: 1px; opacity: 1;"/></g><g class="points"/><g class="text"/></g><g class="trace scatter traced23773" style="stroke-miterlimit: 2;"><g class="fills"/><g class="errorbars"/><g class="lines"><path class="js-line" d="M436.58,254.59L436.58,17.41" style="vector-effect: non-scaling-stroke; fill: none; stroke: rgb(0, 0, 0); stroke-opacity: 0; stroke-width: 1px; opacity: 1;"/></g><g class="points"/><g class="text"/></g><g class="trace scatter trace697264" style="stroke-miterlimit: 2; opacity: 1;"><g class="fills"/><g class="errorbars"/><g class="lines"><path class="js-line" d="M436.58,201.45L417.06,201.45" style="vector-effect: non-scaling-stroke; fill: none; stroke: rgb(221, 64, 64); stroke-opacity: 1; stroke-width: 1px; opacity: 1; stroke-dasharray: 3px, 3px;"/></g><g class="points"/><g class="text"/></g><g class="trace scatter tracea8fd6d" style="stroke-miterlimit: 2; opacity: 1;"><g class="fills"/><g class="errorbars"/><g class="lines"><path class="js-line" d="M436.58,120.8L432.91,120.8" style="vector-effect: non-scaling-stroke; fill: none; stroke: rgb(221, 64, 64); stroke-opacity: 1; stroke-width: 1px; opacity: 1; stroke-dasharray: 3px, 3px;"/></g><g class="points"/><g class="text"/></g><g class="trace scatter trace651ffa" style="stroke-miterlimit: 2; opacity: 1;"><g class="fills"/><g class="errorbars"/><g class="lines"><path class="js-line" d="M436.58,68.81L414.08,68.81" style="vector-effect: non-scaling-stroke; fill: none; stroke: rgb(221, 64, 64); stroke-opacity: 1; stroke-width: 1px; opacity: 1; stroke-dasharray: 3px, 3px;"/></g><g class="points"/><g class="text"/></g><g class="trace scatter trace1bc218" style="stroke-miterlimit: 2;"><g class="fills"><g><path class="js-fill" d="M462.3,254.33L462.3,17.67L462.16,17.67L462.16,18.1L462.16,18.25L461.48,28.65L461.45,28.8L459.98,34.57L459.93,34.72L456.37,41.37L456.26,41.51L447.64,51.19L447.5,51.33L442.28,57.4L442.18,57.55L439.9,62.03L439.86,62.17L439.39,66.22L439.4,66.36L440.98,71.85L441.05,71.99L446.02,80.23L446.11,80.37L452.32,91.21L452.39,91.36L455.4,99.74L455.44,99.88L457.76,111.73L457.78,111.87L459.25,134.55L459.25,134.7L458.82,152.33L458.82,152.47L457.74,165.76L457.72,165.91L455.86,175.44L455.82,175.59L452.87,183.68L452.8,183.82L444.76,197.69L444.68,197.84L441.96,203.47L441.91,203.62L441.17,208.09L441.18,208.24L442.08,212.43L442.14,212.57L456.01,230.34L456.11,230.49L459.46,236.41L459.52,236.56L461.39,243.2L461.42,243.35L462.16,254.33Z" style="fill: rgb(221, 64, 64); fill-opacity: 0.2; stroke-width: 0;"/></g></g><g class="errorbars"/><g class="lines"><path class="js-line" d="M462.16,254.33L461.42,243.35L461.39,243.2L459.52,236.56L459.46,236.41L456.11,230.49L456.01,230.34L442.14,212.57L442.08,212.43L441.18,208.24L441.17,208.09L441.91,203.62L441.96,203.47L444.68,197.84L444.76,197.69L452.8,183.82L452.87,183.68L455.82,175.59L455.86,175.44L457.72,165.91L457.74,165.76L458.82,152.47L458.82,152.33L459.25,134.7L459.25,134.55L457.78,111.87L457.76,111.73L455.44,99.88L455.4,99.74L452.39,91.36L452.32,91.21L446.11,80.37L446.02,80.23L441.05,71.99L440.98,71.85L439.4,66.36L439.39,66.22L439.86,62.17L439.9,62.03L442.18,57.55L442.28,57.4L447.5,51.33L447.64,51.19L456.26,41.51L456.37,41.37L459.93,34.72L459.98,34.57L461.45,28.8L461.48,28.65L462.16,18.25L462.16,18.1L462.16,17.67" style="vector-effect: non-scaling-stroke; fill: none; stroke: rgb(59, 2, 128); stroke-opacity: 1; stroke-width: 1px; opacity: 1;"/></g><g class="points"/><g class="text"/></g><g class="trace scatter traced733e0" style="stroke-miterlimit: 2;"><g class="fills"/><g class="errorbars"/><g class="lines"><path class="js-line" d="M462.3,254.33L462.3,17.67" style="vector-effect: non-scaling-stroke; fill: none; stroke: rgb(0, 0, 0); stroke-opacity: 0; stroke-width: 1px; opacity: 1;"/></g><g class="points"/><g class="text"/></g><g class="trace scatter trace8b48e4" style="stroke-miterlimit: 2; opacity: 1;"><g class="fills"/><g class="errorbars"/><g class="lines"><path class="js-line" d="M462.3,201.16L442.9,201.16" style="vector-effect: non-scaling-stroke; fill: none; stroke: rgb(221, 64, 64); stroke-opacity: 1; stroke-width: 1px; opacity: 1; stroke-dasharray: 3px, 3px;"/></g><g class="points"/><g class="text"/></g><g class="trace scatter tracebfb4e6" style="stroke-miterlimit: 2; opacity: 1;"><g class="fills"/><g class="errorbars"/><g class="lines"><path class="js-line" d="M462.3,120.83L458.7,120.83" style="vector-effect: non-scaling-stroke; fill: none; stroke: rgb(221, 64, 64); stroke-opacity: 1; stroke-width: 1px; opacity: 1; stroke-dasharray: 3px, 3px;"/></g><g class="points"/><g class="text"/></g><g class="trace scatter trace38e06f" style="stroke-miterlimit: 2; opacity: 1;"><g class="fills"/><g class="errorbars"/><g class="lines"><path class="js-line" d="M462.3,69.68L440.11,69.68" style="vector-effect: non-scaling-stroke; fill: none; stroke: rgb(221, 64, 64); stroke-opacity: 1; stroke-width: 1px; opacity: 1; stroke-dasharray: 3px, 3px;"/></g><g class="points"/><g class="text"/></g><g class="trace scatter trace41c9c3" style="stroke-miterlimit: 2;"><g class="fills"><g><path class="js-fill" d="M487.95,254.76L487.95,17.24L487.79,17.24L487.63,23.04L487.62,23.19L486.45,31.16L486.41,31.31L484,37.4L483.92,37.54L469.26,54.51L469.14,54.65L465.76,59.44L465.69,59.58L464.38,63.79L464.36,63.93L464.81,68.28L464.86,68.43L476.2,86.55L476.29,86.7L480.64,95.69L480.69,95.83L483.31,106.85L483.33,107L484.62,122.8L484.63,122.95L484.28,152.53L484.27,152.68L483,167.32L482.98,167.47L480.98,177.47L480.93,177.62L478.34,184.43L478.27,184.58L474.32,191.39L474.22,191.54L467.98,200.96L467.9,201.11L466.08,205.6L466.05,205.75L465.83,209.52L465.84,209.66L467.4,214.16L467.48,214.3L473.5,221.84L473.64,221.99L480.61,229.67L480.73,229.82L484.8,236.34L484.86,236.49L487.03,243.74L487.05,243.88L487.79,254.76Z" style="fill: rgb(221, 64, 64); fill-opacity: 0.2; stroke-width: 0;"/></g></g><g class="errorbars"/><g class="lines"><path class="js-line" d="M487.79,254.76L487.05,243.88L487.03,243.74L484.86,236.49L484.8,236.34L480.73,229.82L480.61,229.67L473.64,221.99L473.5,221.84L467.48,214.3L467.4,214.16L465.84,209.66L465.83,209.52L466.05,205.75L466.08,205.6L467.9,201.11L467.98,200.96L474.22,191.54L474.32,191.39L478.27,184.58L478.34,184.43L480.93,177.62L480.98,177.47L482.98,167.47L483,167.32L484.27,152.68L484.28,152.53L484.63,122.95L484.62,122.8L483.33,107L483.31,106.85L480.69,95.83L480.64,95.69L476.29,86.7L476.2,86.55L464.86,68.43L464.81,68.28L464.36,63.93L464.38,63.79L465.69,59.58L465.76,59.44L469.14,54.65L469.26,54.51L483.92,37.54L484,37.4L486.41,31.31L486.45,31.16L487.62,23.19L487.63,23.04L487.79,17.24" style="vector-effect: non-scaling-stroke; fill: none; stroke: rgb(59, 2, 128); stroke-opacity: 1; stroke-width: 1px; opacity: 1;"/></g><g class="points"/><g class="text"/></g><g class="trace scatter trace507655" style="stroke-miterlimit: 2;"><g class="fills"/><g class="errorbars"/><g class="lines"><path class="js-line" d="M487.95,254.76L487.95,17.24" style="vector-effect: non-scaling-stroke; fill: none; stroke: rgb(0, 0, 0); stroke-opacity: 0; stroke-width: 1px; opacity: 1;"/></g><g class="points"/><g class="text"/></g><g class="trace scatter traceac6999" style="stroke-miterlimit: 2; opacity: 1;"><g class="fills"/><g class="errorbars"/><g class="lines"><path class="js-line" d="M487.95,202.12L467.37,202.12" style="vector-effect: non-scaling-stroke; fill: none; stroke: rgb(221, 64, 64); stroke-opacity: 1; stroke-width: 1px; opacity: 1; stroke-dasharray: 3px, 3px;"/></g><g class="points"/><g class="text"/></g><g class="trace scatter trace4104d6" style="stroke-miterlimit: 2; opacity: 1;"><g class="fills"/><g class="errorbars"/><g class="lines"><path class="js-line" d="M487.95,126.14L484.73,126.14" style="vector-effect: non-scaling-stroke; fill: none; stroke: rgb(221, 64, 64); stroke-opacity: 1; stroke-width: 1px; opacity: 1; stroke-dasharray: 3px, 3px;"/></g><g class="points"/><g class="text"/></g><g class="trace scatter trace6660bc" style="stroke-miterlimit: 2; opacity: 1;"><g class="fills"/><g class="errorbars"/><g class="lines"><path class="js-line" d="M487.95,69.01L465.05,69.01" style="vector-effect: non-scaling-stroke; fill: none; stroke: rgb(221, 64, 64); stroke-opacity: 1; stroke-width: 1px; opacity: 1; stroke-dasharray: 3px, 3px;"/></g><g class="points"/><g class="text"/></g><g class="trace scatter trace2cf0d8" style="stroke-miterlimit: 2;"><g class="fills"><g><path class="js-fill" d="M514.14,254.42L514.14,17.58L513.99,17.58L513.63,25.53L513.61,25.68L512.09,33.05L512.04,33.2L509.75,38.11L509.67,38.26L502.08,47.37L501.93,47.51L493.43,56.33L493.32,56.48L490.84,60.67L490.78,60.81L490.03,64.43L490.02,64.57L490.87,69.05L490.93,69.2L493.63,74.26L493.72,74.4L500.67,84.53L500.76,84.67L504.98,92.62L505.04,92.77L507.88,101.44L507.92,101.59L509.95,114.02L509.97,114.17L510.71,126.31L510.72,126.46L510.52,153.35L510.52,153.49L509.15,169.26L509.13,169.4L506.84,179.23L506.79,179.38L496.35,199.19L496.27,199.33L494.11,204.39L494.07,204.53L493.6,208.44L493.6,208.58L494.65,212.92L494.71,213.07L500.24,221.02L500.37,221.16L507.85,230.13L507.95,230.27L511.68,237.21L511.73,237.36L513.21,243L513.24,243.14L513.99,254.42Z" style="fill: rgb(221, 64, 64); fill-opacity: 0.2; stroke-width: 0;"/></g></g><g class="errorbars"/><g class="lines"><path class="js-line" d="M513.99,254.42L513.24,243.14L513.21,243L511.73,237.36L511.68,237.21L507.95,230.27L507.85,230.13L500.37,221.16L500.24,221.02L494.71,213.07L494.65,212.92L493.6,208.58L493.6,208.44L494.07,204.53L494.11,204.39L496.27,199.33L496.35,199.19L506.79,179.38L506.84,179.23L509.13,169.4L509.15,169.26L510.52,153.49L510.52,153.35L510.72,126.46L510.71,126.31L509.97,114.17L509.95,114.02L507.92,101.59L507.88,101.44L505.04,92.77L504.98,92.62L500.76,84.67L500.67,84.53L493.72,74.4L493.63,74.26L490.93,69.2L490.87,69.05L490.02,64.57L490.03,64.43L490.78,60.81L490.84,60.67L493.32,56.48L493.43,56.33L501.93,47.51L502.08,47.37L509.67,38.26L509.75,38.11L512.04,33.2L512.09,33.05L513.61,25.68L513.63,25.53L513.99,17.58" style="vector-effect: non-scaling-stroke; fill: none; stroke: rgb(59, 2, 128); stroke-opacity: 1; stroke-width: 1px; opacity: 1;"/></g><g class="points"/><g class="text"/></g><g class="trace scatter trace833a24" style="stroke-miterlimit: 2;"><g class="fills"/><g class="errorbars"/><g class="lines"><path class="js-line" d="M514.14,254.42L514.14,17.58" style="vector-effect: non-scaling-stroke; fill: none; stroke: rgb(0, 0, 0); stroke-opacity: 0; stroke-width: 1px; opacity: 1;"/></g><g class="points"/><g class="text"/></g><g class="trace scatter tracecd1a68" style="stroke-miterlimit: 2; opacity: 1;"><g class="fills"/><g class="errorbars"/><g class="lines"><path class="js-line" d="M514.14,200.2L495.81,200.2" style="vector-effect: non-scaling-stroke; fill: none; stroke: rgb(221, 64, 64); stroke-opacity: 1; stroke-width: 1px; opacity: 1; stroke-dasharray: 3px, 3px;"/></g><g class="points"/><g class="text"/></g><g class="trace scatter trace1116fe" style="stroke-miterlimit: 2; opacity: 1;"><g class="fills"/><g class="errorbars"/><g class="lines"><path class="js-line" d="M514.14,113.3L509.88,113.3" style="vector-effect: non-scaling-stroke; fill: none; stroke: rgb(221, 64, 64); stroke-opacity: 1; stroke-width: 1px; opacity: 1; stroke-dasharray: 3px, 3px;"/></g><g class="points"/><g class="text"/></g><g class="trace scatter tracef4f98c" style="stroke-miterlimit: 2; opacity: 1;"><g class="fills"/><g class="errorbars"/><g class="lines"><path class="js-line" d="M514.14,68.33L490.62,68.33" style="vector-effect: non-scaling-stroke; fill: none; stroke: rgb(221, 64, 64); stroke-opacity: 1; stroke-width: 1px; opacity: 1; stroke-dasharray: 3px, 3px;"/></g><g class="points"/><g class="text"/></g><g class="trace scatter tracecd15a7" style="stroke-miterlimit: 2;"><g class="fills"><g><path class="js-fill" d="M0,0Z" style="stroke-width: 0; fill: rgb(0, 200, 229); fill-opacity: 0.2;"/></g></g><g class="errorbars"/><g class="lines"/><g class="points"/><g class="text"/></g><g class="trace scatter tracef1dce2" style="stroke-miterlimit: 2;"><g class="fills"/><g class="errorbars"/><g class="lines"/><g class="points"/><g class="text"/></g><g class="trace scatter trace1bb255" style="stroke-miterlimit: 2;"><g class="fills"><g><path class="js-fill" d="M0,0Z" style="stroke-width: 0; fill: rgb(59, 2, 128); fill-opacity: 0.2;"/></g></g><g class="errorbars"/><g class="lines"/><g class="points"/><g class="text"/></g><g class="trace scatter trace2ce8ce" style="stroke-miterlimit: 2;"><g class="fills"/><g class="errorbars"/><g class="lines"/><g class="points"/><g class="text"/></g><g class="trace scatter tracee024c2" style="stroke-miterlimit: 2;"><g class="fills"><g><path class="js-fill" d="M0,0Z" style="stroke-width: 0; fill: rgb(221, 64, 64); fill-opacity: 0.2;"/></g></g><g class="errorbars"/><g class="lines"/><g class="points"/><g class="text"/></g><g class="trace scatter tracedbfacb" style="stroke-miterlimit: 2;"><g class="fills"/><g class="errorbars"/><g class="lines"/><g class="points"/><g class="text"/></g><g class="trace scatter trace215efc" style="stroke-miterlimit: 2; opacity: 1;"><g class="fills"/><g class="errorbars"/><g class="lines"/><g class="points"/><g class="text"/></g></g></g><g class="overplot"/><path class="xlines-above crisp" d="M79,372.5H621M79,99.5H621" style="fill: none; stroke-width: 1px; stroke: rgb(102, 102, 102); stroke-opacity: 1;"/><path class="ylines-above crisp" d="M79.5,100V372M620.5,100V372" style="fill: none; stroke-width: 1px; stroke: rgb(102, 102, 102); stroke-opacity: 1;"/><g class="overlines-above"/><g class="xaxislayer-above"><g class="xtick"><text text-anchor="middle" x="0" y="387.4" transform="translate(155.57999999999998,0)" style="font-family: 'Open Sans', verdana, arial, sans-serif; font-size: 12px; fill: rgb(42, 63, 95); fill-opacity: 1; white-space: pre; opacity: 1;">2015</text></g><g class="xtick"><text text-anchor="middle" x="0" y="387.4" style="font-family: 'Open Sans', verdana, arial, sans-serif; font-size: 12px; fill: rgb(42, 63, 95); fill-opacity: 1; white-space: pre; opacity: 1;" transform="translate(232.91,0)">2016</text></g><g class="xtick"><text text-anchor="middle" x="0" y="387.4" style="font-family: 'Open Sans', verdana, arial, sans-serif; font-size: 12px; fill: rgb(42, 63, 95); fill-opacity: 1; white-space: pre; opacity: 1;" transform="translate(310.45,0)">2017</text></g><g class="xtick"><text text-anchor="middle" x="0" y="387.4" style="font-family: 'Open Sans', verdana, arial, sans-serif; font-size: 12px; fill: rgb(42, 63, 95); fill-opacity: 1; white-space: pre; opacity: 1;" transform="translate(387.77,0)">2018</text></g><g class="xtick"><text text-anchor="middle" x="0" y="387.4" style="font-family: 'Open Sans', verdana, arial, sans-serif; font-size: 12px; fill: rgb(42, 63, 95); fill-opacity: 1; white-space: pre; opacity: 1;" transform="translate(465.1,0)">2019</text></g><g class="xtick"><text text-anchor="middle" x="0" y="387.4" style="font-family: 'Open Sans', verdana, arial, sans-serif; font-size: 12px; fill: rgb(42, 63, 95); fill-opacity: 1; white-space: pre; opacity: 1;" transform="translate(542.4200000000001,0)">2020</text></g><g class="xtick"><text text-anchor="middle" x="0" y="387.4" style="font-family: 'Open Sans', verdana, arial, sans-serif; font-size: 12px; fill: rgb(42, 63, 95); fill-opacity: 1; white-space: pre; opacity: 1;" transform="translate(619.96,0)">2021</text></g></g><g class="yaxislayer-above"><g class="ytick"><text text-anchor="end" x="76.6" y="4.199999999999999" transform="translate(0,316.89)" style="font-family: 'Open Sans', verdana, arial, sans-serif; font-size: 12px; fill: rgb(42, 63, 95); fill-opacity: 1; white-space: pre; opacity: 1;">0</text></g><g class="ytick"><text text-anchor="end" x="76.6" y="4.199999999999999" style="font-family: 'Open Sans', verdana, arial, sans-serif; font-size: 12px; fill: rgb(42, 63, 95); fill-opacity: 1; white-space: pre; opacity: 1;" transform="translate(0,235.99)">0.5</text></g><g class="ytick"><text text-anchor="end" x="76.6" y="4.199999999999999" style="font-family: 'Open Sans', verdana, arial, sans-serif; font-size: 12px; fill: rgb(42, 63, 95); fill-opacity: 1; white-space: pre; opacity: 1;" transform="translate(0,155.07999999999998)">1</text></g></g><g class="overaxes-above"/></g></g><g class="polarlayer"/><g class="smithlayer"/><g class="ternarylayer"/><g class="geolayer"/><g class="funnelarealayer"/><g class="pielayer"/><g class="iciclelayer"/><g class="treemaplayer"/><g class="sunburstlayer"/><g class="glimages"/><defs id="topdefs-a6d4f9"><g class="clips"/><clipPath id="legenda6d4f9"><rect width="517" height="48" x="0" y="0"/></clipPath></defs><g class="layer-above"><g class="imagelayer"/><g class="shapelayer"/></g><g class="infolayer"><g class="legend" pointer-events="all" transform="translate(80,440)"><rect class="bg" shape-rendering="crispEdges" width="517" height="48" x="0" y="0" style="stroke: rgb(68, 68, 68); stroke-opacity: 1; fill: rgb(255, 255, 255); fill-opacity: 1; stroke-width: 0px;"/><g class="scrollbox" transform="" clip-path="url(#legenda6d4f9)"><g class="groups"><g class="traces" transform="translate(0,14.5)" style="opacity: 1;"><text class="legendtext" text-anchor="start" x="40" y="4.680000000000001" style="font-family: 'Open Sans', verdana, arial, sans-serif; font-size: 12px; fill: rgb(42, 63, 95); fill-opacity: 1; white-space: pre;">Reference period</text><g class="layers"><g class="legendfill"><path class="js-fill" d="M5,-2h30v6h-30z" style="stroke-width: 0; fill: rgb(0, 200, 229); fill-opacity: 0.2;"/></g><g class="legendlines"><path class="js-line" d="M5,-2h30" style="fill: none; stroke: rgb(0, 200, 229); stroke-opacity: 1; stroke-width: 1px;"/></g><g class="legendsymbols"><g class="legendpoints"/></g></g><rect class="legendtoggle" x="0" y="-9.5" width="144.640625" height="19" style="fill: rgb(0, 0, 0); fill-opacity: 0;"/></g><g class="traces" transform="translate(172.109375,14.5)" style="opacity: 1;"><text class="legendtext" text-anchor="start" x="40" y="4.680000000000001" style="font-family: 'Open Sans', verdana, arial, sans-serif; font-size: 12px; fill: rgb(42, 63, 95); fill-opacity: 1; white-space: pre;">Analysis period</text><g class="layers"><g class="legendfill"><path class="js-fill" d="M5,-2h30v6h-30z" style="stroke-width: 0; fill: rgb(59, 2, 128); fill-opacity: 0.2;"/></g><g class="legendlines"><path class="js-line" d="M5,-2h30" style="fill: none; stroke: rgb(59, 2, 128); stroke-opacity: 1; stroke-width: 1px;"/></g><g class="legendsymbols"><g class="legendpoints"/></g></g><rect class="legendtoggle" x="0" y="-9.5" width="133.71875" height="19" style="fill: rgb(0, 0, 0); fill-opacity: 0;"/></g><g class="traces" transform="translate(344.21875,14.5)" style="opacity: 1;"><text class="legendtext" text-anchor="start" x="40" y="4.680000000000001" style="font-family: 'Open Sans', verdana, arial, sans-serif; font-size: 12px; fill: rgb(42, 63, 95); fill-opacity: 1; white-space: pre;">Period with data drift</text><g class="layers"><g class="legendfill"><path class="js-fill" d="M5,-2h30v6h-30z" style="stroke-width: 0; fill: rgb(221, 64, 64); fill-opacity: 0.2;"/></g><g class="legendlines"><path class="js-line" d="M5,-2h30" style="fill: none; stroke: rgb(0, 0, 0); stroke-opacity: 0; stroke-width: 1px;"/></g><g class="legendsymbols"><g class="legendpoints"/></g></g><rect class="legendtoggle" x="0" y="-9.5" width="169.609375" height="19" style="fill: rgb(0, 0, 0); fill-opacity: 0;"/></g><g class="traces" transform="translate(0,33.5)" style="opacity: 1;"><text class="legendtext" text-anchor="start" x="40" y="4.680000000000001" style="font-family: 'Open Sans', verdana, arial, sans-serif; font-size: 12px; fill: rgb(42, 63, 95); fill-opacity: 1; white-space: pre;">Quartiles</text><g class="layers" style="opacity: 1;"><g class="legendfill"/><g class="legendlines"><path class="js-line" d="M5,0h30" style="fill: none; stroke: rgb(102, 102, 102); stroke-opacity: 1; stroke-dasharray: 3px, 3px; stroke-width: 1px;"/></g><g class="legendsymbols"><g class="legendpoints"/></g></g><rect class="legendtoggle" x="0" y="-9.5" width="96.59375" height="19" style="fill: rgb(0, 0, 0); fill-opacity: 0;"/></g></g></g><rect class="scrollbar" rx="20" ry="3" width="0" height="0" x="0" y="0" style="fill: rgb(128, 139, 164); fill-opacity: 1;"/></g><g class="g-gtitle"><text class="gtitle" x="35" y="50" text-anchor="start" dy="0em" style="font-family: 'Open Sans', verdana, arial, sans-serif; font-size: 17px; fill: rgb(42, 63, 95); opacity: 1; font-weight: normal; white-space: pre;">Distribution over time for y_pred_proba</text></g><g class="g-xtitle"><text class="xtitle" x="350" y="414.70625" text-anchor="middle" style="font-family: 'Open Sans', verdana, arial, sans-serif; font-size: 14px; fill: rgb(42, 63, 95); opacity: 1; font-weight: normal; white-space: pre;">Time</text></g><g class="g-ytitle"><text class="ytitle" transform="rotate(-90,32.16875,236)" x="32.16875" y="236" text-anchor="middle" style="font-family: 'Open Sans', verdana, arial, sans-serif; font-size: 14px; fill: rgb(42, 63, 95); opacity: 1; font-weight: normal; white-space: pre;">y_pred_proba</text></g></g></svg>