<svg class="main-svg" xmlns="http://www.w3.org/2000/svg" xmlns:xlink="http://www.w3.org/1999/xlink" width="700" height="500" style="" viewBox="0 0 700 500"><rect x="0" y="0" width="700" height="500" style="fill: rgb(255, 255, 255); fill-opacity: 1;"/><defs id="defs-a62e3d"><g class="clips"><clipPath id="clipa62e3dxyplot" class="plotclip"><rect width="540" height="272"/></clipPath><clipPath class="axesclip" id="clipa62e3dx"><rect x="80" y="0" width="540" height="500"/></clipPath><clipPath class="axesclip" id="clipa62e3dy"><rect x="0" y="100" width="700" height="272"/></clipPath><clipPath class="axesclip" id="clipa62e3dxy"><rect x="80" y="100" width="540" height="272"/></clipPath></g><g class="gradients"/><g class="patterns"/></defs><g class="bglayer"/><g class="layer-below"><g class="imagelayer"/><g class="shapelayer"/></g><g class="cartesianlayer"><g class="subplot xy"><g class="layer-subplot"><g class="shapelayer"/><g class="imagelayer"/></g><g class="minor-gridlayer"><g class="x"/><g class="y"/></g><g class="gridlayer"><g class="x"/><g class="y"/></g><g class="zerolinelayer"/><path class="xlines-below"/><path class="ylines-below"/><g class="overlines-below"/><g class="xaxislayer-below"/><g class="yaxislayer-below"/><g class="overaxes-below"/><g class="plot" transform="translate(80,100)" clip-path="url(#clipa62e3dxyplot)"><g class="scatterlayer mlayer"><g class="trace scatter trace523035" style="stroke-miterlimit: 2;"><g class="fills"><g><path class="js-fill" d="M23.94,258.4L23.94,13.6L23.41,13.6L23.3,17.04L23.29,17.19L22.34,23.61L22.3,23.76L20.59,28.84L20.53,28.99L17.03,34.97L16.92,35.12L9.15,43.94L9.01,44.09L3.06,50.96L2.96,51.11L0.62,55.9L0.59,56.04L0.38,59.78L0.4,59.93L1.93,64.11L2.01,64.26L12.55,76.52L12.69,76.67L17.76,82.95L17.86,83.09L21.38,89.97L21.43,90.12L23.17,97.59L23.19,97.74L23.94,150.8L23.94,150.94L23.85,163.5L23.85,163.65L23.22,173.96L23.2,174.11L21.23,182.33L21.17,182.48L18.45,187.86L18.36,188.01L7.08,201.01L6.94,201.16L2.28,206.84L2.19,206.99L0.38,210.87L0.33,211.02L0.1,214.91L0.12,215.06L1.52,218.94L1.6,219.09L8.28,227.31L8.42,227.46L16.64,236.58L16.75,236.73L20.5,243.01L20.57,243.16L22.65,249.88L22.68,250.03L23.41,258.4Z" style="fill: rgb(0, 200, 229); fill-opacity: 0.2; stroke-width: 0;"/></g></g><g class="errorbars"/><g class="lines"><path class="js-line" d="M23.41,258.4L22.68,250.03L22.65,249.88L20.57,243.16L20.5,243.01L16.75,236.73L16.64,236.58L8.42,227.46L8.28,227.31L1.6,219.09L1.52,218.94L0.12,215.06L0.1,214.91L0.33,211.02L0.38,210.87L2.19,206.99L2.28,206.84L6.94,201.16L7.08,201.01L18.36,188.01L18.45,187.86L21.17,182.48L21.23,182.33L23.2,174.11L23.22,173.96L23.85,163.65L23.85,163.5L23.94,150.94L23.94,150.8L23.19,97.74L23.17,97.59L21.43,90.12L21.38,89.97L17.86,83.09L17.76,82.95L12.69,76.67L12.55,76.52L2.01,64.26L1.93,64.11L0.4,59.93L0.38,59.78L0.59,56.04L0.62,55.9L2.96,51.11L3.06,50.96L9.01,44.09L9.15,43.94L16.92,35.12L17.03,34.97L20.53,28.99L20.59,28.84L22.3,23.76L22.34,23.61L23.29,17.19L23.3,17.04L23.41,13.6" style="vector-effect: non-scaling-stroke; fill: none; stroke: rgb(0, 200, 229); stroke-opacity: 1; stroke-width: 1px; opacity: 1;"/></g><g class="points"/><g class="text"/></g><g class="trace scatter trace1e8fc1" style="stroke-miterlimit: 2;"><g class="fills"/><g class="errorbars"/><g class="lines"><path class="js-line" d="M23.94,258.4L23.94,13.6" style="vector-effect: non-scaling-stroke; fill: none; stroke: rgb(0, 0, 0); stroke-opacity: 0; stroke-width: 1px; opacity: 1;"/></g><g class="points"/><g class="text"/></g><g class="trace scatter tracefc54cb" style="stroke-miterlimit: 2; opacity: 1;"><g class="fills"/><g class="errorbars"/><g class="lines"><path class="js-line" d="M23.94,213.71L0,213.71" style="vector-effect: non-scaling-stroke; fill: none; stroke: rgb(0, 200, 229); stroke-opacity: 1; stroke-width: 1px; opacity: 1; stroke-dasharray: 3px, 3px;"/></g><g class="points"/><g class="text"/></g><g class="trace scatter traceb4d5e3" style="stroke-miterlimit: 2; opacity: 1;"><g class="fills"/><g class="errorbars"/><g class="lines"><path class="js-line" d="M23.94,175.9L22.93,175.9" style="vector-effect: non-scaling-stroke; fill: none; stroke: rgb(0, 200, 229); stroke-opacity: 1; stroke-width: 1px; opacity: 1; stroke-dasharray: 3px, 3px;"/></g><g class="points"/><g class="text"/></g><g class="trace scatter trace304c8e" style="stroke-miterlimit: 2; opacity: 1;"><g class="fills"/><g class="errorbars"/><g class="lines"><path class="js-line" d="M23.94,58.59L0.29,58.59" style="vector-effect: non-scaling-stroke; fill: none; stroke: rgb(0, 200, 229); stroke-opacity: 1; stroke-width: 1px; opacity: 1; stroke-dasharray: 3px, 3px;"/></g><g class="points"/><g class="text"/></g><g class="trace scatter trace527419" style="stroke-miterlimit: 2;"><g class="fills"><g><path class="js-fill" d="M49.97,258.4L49.97,13.6L49.44,13.6L48.85,21.22L48.82,21.37L47.23,27.35L47.17,27.5L44.38,33.03L44.29,33.18L37.9,41.1L37.76,41.25L29.76,50.07L29.65,50.22L27.25,54.25L27.18,54.4L26.34,58.29L26.34,58.44L27.44,63.07L27.52,63.22L40.19,78.31L40.32,78.46L44.75,84.44L44.84,84.59L47.4,89.97L47.46,90.12L49.2,97.59L49.22,97.74L49.96,153.34L49.96,153.49L49.72,168.28L49.71,168.43L48.91,176.2L48.89,176.35L47.22,182.48L47.17,182.63L44.35,188.16L44.26,188.31L32.33,202.06L32.2,202.21L28.56,206.84L28.46,206.99L26.52,211.47L26.49,211.62L26.45,215.21L26.48,215.36L27.97,219.24L28.05,219.39L36.63,229.56L36.78,229.71L42.74,236.58L42.85,236.73L46.5,242.86L46.56,243.01L48.66,249.73L48.69,249.88L49.44,258.4Z" style="fill: rgb(0, 200, 229); fill-opacity: 0.2; stroke-width: 0;"/></g></g><g class="errorbars"/><g class="lines"><path class="js-line" d="M49.44,258.4L48.69,249.88L48.66,249.73L46.56,243.01L46.5,242.86L42.85,236.73L42.74,236.58L36.78,229.71L36.63,229.56L28.05,219.39L27.97,219.24L26.48,215.36L26.45,215.21L26.49,211.62L26.52,211.47L28.46,206.99L28.56,206.84L32.2,202.21L32.33,202.06L44.26,188.31L44.35,188.16L47.17,182.63L47.22,182.48L48.89,176.35L48.91,176.2L49.71,168.43L49.72,168.28L49.96,153.49L49.96,153.34L49.22,97.74L49.2,97.59L47.46,90.12L47.4,89.97L44.84,84.59L44.75,84.44L40.32,78.46L40.19,78.31L27.52,63.22L27.44,63.07L26.34,58.44L26.34,58.29L27.18,54.4L27.25,54.25L29.65,50.22L29.76,50.07L37.76,41.25L37.9,41.1L44.29,33.18L44.38,33.03L47.17,27.5L47.23,27.35L48.82,21.37L48.85,21.22L49.44,13.6" style="vector-effect: non-scaling-stroke; fill: none; stroke: rgb(0, 200, 229); stroke-opacity: 1; stroke-width: 1px; opacity: 1;"/></g><g class="points"/><g class="text"/></g><g class="trace scatter trace29fb60" style="stroke-miterlimit: 2;"><g class="fills"/><g class="errorbars"/><g class="lines"><path class="js-line" d="M49.97,258.4L49.97,13.6" style="vector-effect: non-scaling-stroke; fill: none; stroke: rgb(0, 0, 0); stroke-opacity: 0; stroke-width: 1px; opacity: 1;"/></g><g class="points"/><g class="text"/></g><g class="trace scatter trace1767f5" style="stroke-miterlimit: 2; opacity: 1;"><g class="fills"/><g class="errorbars"/><g class="lines"><path class="js-line" d="M49.97,213.56L26.3,213.56" style="vector-effect: non-scaling-stroke; fill: none; stroke: rgb(0, 200, 229); stroke-opacity: 1; stroke-width: 1px; opacity: 1; stroke-dasharray: 3px, 3px;"/></g><g class="points"/><g class="text"/></g><g class="trace scatter trace0001f0" style="stroke-miterlimit: 2; opacity: 1;"><g class="fills"/><g class="errorbars"/><g class="lines"><path class="js-line" d="M49.97,166.19L49.81,166.19" style="vector-effect: non-scaling-stroke; fill: none; stroke: rgb(0, 200, 229); stroke-opacity: 1; stroke-width: 1px; opacity: 1; stroke-dasharray: 3px, 3px;"/></g><g class="points"/><g class="text"/></g><g class="trace scatter trace19ea72" style="stroke-miterlimit: 2; opacity: 1;"><g class="fills"/><g class="errorbars"/><g class="lines"><path class="js-line" d="M49.97,58.44L26.34,58.44" style="vector-effect: non-scaling-stroke; fill: none; stroke: rgb(0, 200, 229); stroke-opacity: 1; stroke-width: 1px; opacity: 1; stroke-dasharray: 3px, 3px;"/></g><g class="points"/><g class="text"/></g><g class="trace scatter trace3311af" style="stroke-miterlimit: 2;"><g class="fills"><g><path class="js-fill" d="M75.81,258.39L75.81,13.61L75.29,13.61L74.98,19.14L74.96,19.29L73.56,25.86L73.52,26.01L71.14,31.39L71.06,31.54L56.81,48.28L56.68,48.43L53.3,53.21L53.22,53.36L51.98,57.1L51.96,57.25L52.15,60.68L52.18,60.83L54.28,65.32L54.38,65.46L62.74,74.88L62.88,75.03L69.57,82.95L69.67,83.1L72.43,88.03L72.5,88.18L75.04,97.59L75.06,97.74L75.81,150.94L75.81,151.09L75.72,163.65L75.72,163.8L75.06,174.41L75.04,174.56L73.52,181.43L73.47,181.58L69.99,188.75L69.89,188.9L60.3,200.26L60.17,200.41L55.6,205.94L55.5,206.09L53.26,210.57L53.22,210.72L52.89,214.75L52.91,214.9L54.68,219.69L54.77,219.84L62.16,228.8L62.3,228.95L69.53,237.62L69.63,237.77L72.37,242.7L72.44,242.85L74.51,249.57L74.54,249.72L75.29,258.39Z" style="fill: rgb(0, 200, 229); fill-opacity: 0.2; stroke-width: 0;"/></g></g><g class="errorbars"/><g class="lines"><path class="js-line" d="M75.29,258.39L74.54,249.72L74.51,249.57L72.44,242.85L72.37,242.7L69.63,237.77L69.53,237.62L62.3,228.95L62.16,228.8L54.77,219.84L54.68,219.69L52.91,214.9L52.89,214.75L53.22,210.72L53.26,210.57L55.5,206.09L55.6,205.94L60.17,200.41L60.3,200.26L69.89,188.9L69.99,188.75L73.47,181.58L73.52,181.43L75.04,174.56L75.06,174.41L75.72,163.8L75.72,163.65L75.81,151.09L75.81,150.94L75.06,97.74L75.04,97.59L72.5,88.18L72.43,88.03L69.67,83.1L69.57,82.95L62.88,75.03L62.74,74.88L54.38,65.46L54.28,65.32L52.18,60.83L52.15,60.68L51.96,57.25L51.98,57.1L53.22,53.36L53.3,53.21L56.68,48.43L56.81,48.28L71.06,31.54L71.14,31.39L73.52,26.01L73.56,25.86L74.96,19.29L74.98,19.14L75.29,13.61" style="vector-effect: non-scaling-stroke; fill: none; stroke: rgb(0, 200, 229); stroke-opacity: 1; stroke-width: 1px; opacity: 1;"/></g><g class="points"/><g class="text"/></g><g class="trace scatter trace4a49d8" style="stroke-miterlimit: 2;"><g class="fills"/><g class="errorbars"/><g class="lines"><path class="js-line" d="M75.81,258.39L75.81,13.61" style="vector-effect: non-scaling-stroke; fill: none; stroke: rgb(0, 0, 0); stroke-opacity: 0; stroke-width: 1px; opacity: 1;"/></g><g class="points"/><g class="text"/></g><g class="trace scatter traceea906c" style="stroke-miterlimit: 2; opacity: 1;"><g class="fills"/><g class="errorbars"/><g class="lines"><path class="js-line" d="M75.81,213.11L52.83,213.11" style="vector-effect: non-scaling-stroke; fill: none; stroke: rgb(0, 200, 229); stroke-opacity: 1; stroke-width: 1px; opacity: 1; stroke-dasharray: 3px, 3px;"/></g><g class="points"/><g class="text"/></g><g class="trace scatter tracebb336b" style="stroke-miterlimit: 2; opacity: 1;"><g class="fills"/><g class="errorbars"/><g class="lines"><path class="js-line" d="M75.81,89.23L72.94,89.23" style="vector-effect: non-scaling-stroke; fill: none; stroke: rgb(0, 200, 229); stroke-opacity: 1; stroke-width: 1px; opacity: 1; stroke-dasharray: 3px, 3px;"/></g><g class="points"/><g class="text"/></g><g class="trace scatter trace1aa2da" style="stroke-miterlimit: 2; opacity: 1;"><g class="fills"/><g class="errorbars"/><g class="lines"><path class="js-line" d="M75.81,58.14L51.88,58.14" style="vector-effect: non-scaling-stroke; fill: none; stroke: rgb(0, 200, 229); stroke-opacity: 1; stroke-width: 1px; opacity: 1; stroke-dasharray: 3px, 3px;"/></g><g class="points"/><g class="text"/></g><g class="trace scatter trace122c47" style="stroke-miterlimit: 2;"><g class="fills"><g><path class="js-fill" d="M101.46,258.4L101.46,13.6L100.94,13.6L100.34,21.22L100.31,21.37L98.71,27.35L98.66,27.5L94.54,34.97L94.43,35.12L86.65,43.94L86.51,44.09L80.55,50.96L80.45,51.11L78.45,54.85L78.39,55L77.79,58.88L77.8,59.03L78.89,63.07L78.96,63.22L91.66,78.31L91.79,78.46L96.23,84.44L96.32,84.59L98.89,89.97L98.94,90.12L100.69,97.59L100.71,97.74L101.37,163.65L101.36,163.8L100.72,174.26L100.7,174.41L99.18,181.28L99.13,181.43L95.76,188.46L95.66,188.61L87.33,198.62L87.19,198.77L81.03,205.94L80.93,206.09L78.77,210.28L78.72,210.43L78.24,214.01L78.25,214.16L79.4,218.35L79.47,218.5L91.49,232.99L91.62,233.14L96.17,239.27L96.26,239.42L98.66,244.35L98.72,244.5L100.17,249.73L100.2,249.88L100.94,258.4Z" style="fill: rgb(0, 200, 229); fill-opacity: 0.2; stroke-width: 0;"/></g></g><g class="errorbars"/><g class="lines"><path class="js-line" d="M100.94,258.4L100.2,249.88L100.17,249.73L98.72,244.5L98.66,244.35L96.26,239.42L96.17,239.27L91.62,233.14L91.49,232.99L79.47,218.5L79.4,218.35L78.25,214.16L78.24,214.01L78.72,210.43L78.77,210.28L80.93,206.09L81.03,205.94L87.19,198.77L87.33,198.62L95.66,188.61L95.76,188.46L99.13,181.43L99.18,181.28L100.7,174.41L100.72,174.26L101.36,163.8L101.37,163.65L100.71,97.74L100.69,97.59L98.94,90.12L98.89,89.97L96.32,84.59L96.23,84.44L91.79,78.46L91.66,78.31L78.96,63.22L78.89,63.07L77.8,59.03L77.79,58.88L78.39,55L78.45,54.85L80.45,51.11L80.55,50.96L86.51,44.09L86.65,43.94L94.43,35.12L94.54,34.97L98.66,27.5L98.71,27.35L100.31,21.37L100.34,21.22L100.94,13.6" style="vector-effect: non-scaling-stroke; fill: none; stroke: rgb(0, 200, 229); stroke-opacity: 1; stroke-width: 1px; opacity: 1;"/></g><g class="points"/><g class="text"/></g><g class="trace scatter trace4296c5" style="stroke-miterlimit: 2;"><g class="fills"/><g class="errorbars"/><g class="lines"><path class="js-line" d="M101.46,258.4L101.46,13.6" style="vector-effect: non-scaling-stroke; fill: none; stroke: rgb(0, 0, 0); stroke-opacity: 0; stroke-width: 1px; opacity: 1;"/></g><g class="points"/><g class="text"/></g><g class="trace scatter trace75ccd8" style="stroke-miterlimit: 2; opacity: 1;"><g class="fills"/><g class="errorbars"/><g class="lines"><path class="js-line" d="M101.46,213.41L78.23,213.41" style="vector-effect: non-scaling-stroke; fill: none; stroke: rgb(0, 200, 229); stroke-opacity: 1; stroke-width: 1px; opacity: 1; stroke-dasharray: 3px, 3px;"/></g><g class="points"/><g class="text"/></g><g class="trace scatter trace1ea53e" style="stroke-miterlimit: 2; opacity: 1;"><g class="fills"/><g class="errorbars"/><g class="lines"><path class="js-line" d="M101.46,93.56L99.95,93.56" style="vector-effect: non-scaling-stroke; fill: none; stroke: rgb(0, 200, 229); stroke-opacity: 1; stroke-width: 1px; opacity: 1; stroke-dasharray: 3px, 3px;"/></g><g class="points"/><g class="text"/></g><g class="trace scatter trace4a596d" style="stroke-miterlimit: 2; opacity: 1;"><g class="fills"/><g class="errorbars"/><g class="lines"><path class="js-line" d="M101.46,58.29L77.78,58.29" style="vector-effect: non-scaling-stroke; fill: none; stroke: rgb(0, 200, 229); stroke-opacity: 1; stroke-width: 1px; opacity: 1; stroke-dasharray: 3px, 3px;"/></g><g class="points"/><g class="text"/></g><g class="trace scatter tracec428dd" style="stroke-miterlimit: 2;"><g class="fills"><g><path class="js-fill" d="M127.1,258.39L127.1,13.61L126.56,13.61L126.56,14.21L126.56,14.36L125.65,22.72L125.62,22.87L123.83,28.4L123.77,28.55L120.5,34.23L120.39,34.38L109.62,46.19L109.48,46.34L105.42,51.12L105.31,51.27L103.19,55.3L103.14,55.45L102.7,59.34L102.72,59.49L104.11,63.67L104.19,63.82L115.9,77.12L116.04,77.27L120.92,83.25L121.03,83.4L124.56,90.27L124.61,90.42L126.34,97.89L126.36,98.04L127.09,153.34L127.09,153.48L126.85,168.28L126.85,168.43L126.05,176.2L126.03,176.35L124.37,182.48L124.31,182.63L121.42,188.3L121.33,188.45L110.38,201.16L110.25,201.31L105.81,206.83L105.71,206.98L103.93,210.87L103.89,211.02L103.62,214.61L103.64,214.76L105.21,219.24L105.3,219.39L113.83,229.55L113.97,229.7L119.8,236.42L119.91,236.57L123.58,242.7L123.64,242.85L125.8,249.72L125.82,249.87L126.56,258.39Z" style="fill: rgb(0, 200, 229); fill-opacity: 0.2; stroke-width: 0;"/></g></g><g class="errorbars"/><g class="lines"><path class="js-line" d="M126.56,258.39L125.82,249.87L125.8,249.72L123.64,242.85L123.58,242.7L119.91,236.57L119.8,236.42L113.97,229.7L113.83,229.55L105.3,219.39L105.21,219.24L103.64,214.76L103.62,214.61L103.89,211.02L103.93,210.87L105.71,206.98L105.81,206.83L110.25,201.31L110.38,201.16L121.33,188.45L121.42,188.3L124.31,182.63L124.37,182.48L126.03,176.35L126.05,176.2L126.85,168.43L126.85,168.28L127.09,153.48L127.09,153.34L126.36,98.04L126.34,97.89L124.61,90.42L124.56,90.27L121.03,83.4L120.92,83.25L116.04,77.27L115.9,77.12L104.19,63.82L104.11,63.67L102.72,59.49L102.7,59.34L103.14,55.45L103.19,55.3L105.31,51.27L105.42,51.12L109.48,46.34L109.62,46.19L120.39,34.38L120.5,34.23L123.77,28.55L123.83,28.4L125.62,22.87L125.65,22.72L126.56,14.36L126.56,14.21L126.56,13.61" style="vector-effect: non-scaling-stroke; fill: none; stroke: rgb(0, 200, 229); stroke-opacity: 1; stroke-width: 1px; opacity: 1;"/></g><g class="points"/><g class="text"/></g><g class="trace scatter tracecc6d76" style="stroke-miterlimit: 2;"><g class="fills"/><g class="errorbars"/><g class="lines"><path class="js-line" d="M127.1,258.39L127.1,13.61" style="vector-effect: non-scaling-stroke; fill: none; stroke: rgb(0, 0, 0); stroke-opacity: 0; stroke-width: 1px; opacity: 1;"/></g><g class="points"/><g class="text"/></g><g class="trace scatter trace7a2564" style="stroke-miterlimit: 2; opacity: 1;"><g class="fills"/><g class="errorbars"/><g class="lines"><path class="js-line" d="M127.1,213.11L103.57,213.11" style="vector-effect: non-scaling-stroke; fill: none; stroke: rgb(0, 200, 229); stroke-opacity: 1; stroke-width: 1px; opacity: 1; stroke-dasharray: 3px, 3px;"/></g><g class="points"/><g class="text"/></g><g class="trace scatter trace586d77" style="stroke-miterlimit: 2; opacity: 1;"><g class="fills"/><g class="errorbars"/><g class="lines"><path class="js-line" d="M127.1,89.67L124.34,89.67" style="vector-effect: non-scaling-stroke; fill: none; stroke: rgb(0, 200, 229); stroke-opacity: 1; stroke-width: 1px; opacity: 1; stroke-dasharray: 3px, 3px;"/></g><g class="points"/><g class="text"/></g><g class="trace scatter tracecf4ed2" style="stroke-miterlimit: 2; opacity: 1;"><g class="fills"/><g class="errorbars"/><g class="lines"><path class="js-line" d="M127.1,58.14L102.66,58.14" style="vector-effect: non-scaling-stroke; fill: none; stroke: rgb(0, 200, 229); stroke-opacity: 1; stroke-width: 1px; opacity: 1; stroke-dasharray: 3px, 3px;"/></g><g class="points"/><g class="text"/></g><g class="trace scatter trace0179e8" style="stroke-miterlimit: 2;"><g class="fills"><g><path class="js-fill" d="M153.32,258.4L153.32,13.6L152.8,13.6L152.79,14.35L152.79,14.5L152.2,21.22L152.18,21.37L150.53,27.5L150.47,27.65L146.42,34.97L146.31,35.12L138.54,43.94L138.4,44.09L133.11,50.07L133,50.22L130.47,54.55L130.41,54.7L129.69,58.88L129.7,59.03L130.79,63.07L130.86,63.22L143.54,78.31L143.67,78.46L148.11,84.44L148.2,84.59L150.76,89.97L150.81,90.12L152.55,97.59L152.57,97.74L153.24,163.5L153.23,163.65L152.55,174.41L152.53,174.56L151.1,180.98L151.05,181.13L148.6,186.66L148.52,186.81L134.61,203.25L134.48,203.4L131.01,208.33L130.94,208.48L129.72,212.22L129.7,212.37L129.9,215.81L129.93,215.96L132.22,220.74L132.32,220.89L140.12,229.71L140.26,229.85L146.09,236.58L146.2,236.73L149.85,242.86L149.92,243.01L152.02,249.73L152.05,249.88L152.8,258.4Z" style="fill: rgb(0, 200, 229); fill-opacity: 0.2; stroke-width: 0;"/></g></g><g class="errorbars"/><g class="lines"><path class="js-line" d="M152.8,258.4L152.05,249.88L152.02,249.73L149.92,243.01L149.85,242.86L146.2,236.73L146.09,236.58L140.26,229.85L140.12,229.71L132.32,220.89L132.22,220.74L129.93,215.96L129.9,215.81L129.7,212.37L129.72,212.22L130.94,208.48L131.01,208.33L134.48,203.4L134.61,203.25L148.52,186.81L148.6,186.66L151.05,181.13L151.1,180.98L152.53,174.56L152.55,174.41L153.23,163.65L153.24,163.5L152.57,97.74L152.55,97.59L150.81,90.12L150.76,89.97L148.2,84.59L148.11,84.44L143.67,78.46L143.54,78.31L130.86,63.22L130.79,63.07L129.7,59.03L129.69,58.88L130.41,54.7L130.47,54.55L133,50.22L133.11,50.07L138.4,44.09L138.54,43.94L146.31,35.12L146.42,34.97L150.47,27.65L150.53,27.5L152.18,21.37L152.2,21.22L152.79,14.5L152.79,14.35L152.8,13.6" style="vector-effect: non-scaling-stroke; fill: none; stroke: rgb(0, 200, 229); stroke-opacity: 1; stroke-width: 1px; opacity: 1;"/></g><g class="points"/><g class="text"/></g><g class="trace scatter tracee8a56c" style="stroke-miterlimit: 2;"><g class="fills"/><g class="errorbars"/><g class="lines"><path class="js-line" d="M153.32,258.4L153.32,13.6" style="vector-effect: non-scaling-stroke; fill: none; stroke: rgb(0, 0, 0); stroke-opacity: 0; stroke-width: 1px; opacity: 1;"/></g><g class="points"/><g class="text"/></g><g class="trace scatter tracef8359a" style="stroke-miterlimit: 2; opacity: 1;"><g class="fills"/><g class="errorbars"/><g class="lines"><path class="js-line" d="M153.32,213.56L129.63,213.56" style="vector-effect: non-scaling-stroke; fill: none; stroke: rgb(0, 200, 229); stroke-opacity: 1; stroke-width: 1px; opacity: 1; stroke-dasharray: 3px, 3px;"/></g><g class="points"/><g class="text"/></g><g class="trace scatter trace555a13" style="stroke-miterlimit: 2; opacity: 1;"><g class="fills"/><g class="errorbars"/><g class="lines"><path class="js-line" d="M153.32,168.13L153.09,168.13" style="vector-effect: non-scaling-stroke; fill: none; stroke: rgb(0, 200, 229); stroke-opacity: 1; stroke-width: 1px; opacity: 1; stroke-dasharray: 3px, 3px;"/></g><g class="points"/><g class="text"/></g><g class="trace scatter traceaf7b38" style="stroke-miterlimit: 2; opacity: 1;"><g class="fills"/><g class="errorbars"/><g class="lines"><path class="js-line" d="M153.32,58.44L129.68,58.44" style="vector-effect: non-scaling-stroke; fill: none; stroke: rgb(0, 200, 229); stroke-opacity: 1; stroke-width: 1px; opacity: 1; stroke-dasharray: 3px, 3px;"/></g><g class="points"/><g class="text"/></g><g class="trace scatter trace445fff" style="stroke-miterlimit: 2;"><g class="fills"><g><path class="js-fill" d="M179.2,258.39L179.2,13.61L178.69,13.61L178.07,21.38L178.04,21.53L176.44,27.51L176.38,27.66L173.49,33.33L173.4,33.48L164.9,43.65L164.76,43.8L158.71,50.82L158.61,50.97L156.43,55.15L156.38,55.3L155.93,59.49L155.95,59.64L157.58,64.27L157.67,64.42L167.7,76.22L167.84,76.37L173.01,82.8L173.11,82.95L176.62,89.82L176.67,89.97L178.44,97.59L178.46,97.74L179.19,153.93L179.19,154.08L178.68,172.46L178.67,172.61L177.36,180.08L177.32,180.23L175.04,186.06L174.97,186.21L161.98,202.65L161.85,202.8L158.38,207.73L158.3,207.88L156.84,212.21L156.82,212.36L157.05,215.95L157.08,216.1L158.84,220.13L158.93,220.28L165.06,227.91L165.19,228.06L171.81,235.83L171.92,235.98L175.64,242.25L175.71,242.4L177.93,249.57L177.96,249.72L178.69,258.39Z" style="fill: rgb(0, 200, 229); fill-opacity: 0.2; stroke-width: 0;"/></g></g><g class="errorbars"/><g class="lines"><path class="js-line" d="M178.69,258.39L177.96,249.72L177.93,249.57L175.71,242.4L175.64,242.25L171.92,235.98L171.81,235.83L165.19,228.06L165.06,227.91L158.93,220.28L158.84,220.13L157.08,216.1L157.05,215.95L156.82,212.36L156.84,212.21L158.3,207.88L158.38,207.73L161.85,202.8L161.98,202.65L174.97,186.21L175.04,186.06L177.32,180.23L177.36,180.08L178.67,172.61L178.68,172.46L179.19,154.08L179.19,153.93L178.46,97.74L178.44,97.59L176.67,89.97L176.62,89.82L173.11,82.95L173.01,82.8L167.84,76.37L167.7,76.22L157.67,64.42L157.58,64.27L155.95,59.64L155.93,59.49L156.38,55.3L156.43,55.15L158.61,50.97L158.71,50.82L164.76,43.8L164.9,43.65L173.4,33.48L173.49,33.33L176.38,27.66L176.44,27.51L178.04,21.53L178.07,21.38L178.69,13.61" style="vector-effect: non-scaling-stroke; fill: none; stroke: rgb(0, 200, 229); stroke-opacity: 1; stroke-width: 1px; opacity: 1;"/></g><g class="points"/><g class="text"/></g><g class="trace scatter trace0ec844" style="stroke-miterlimit: 2;"><g class="fills"/><g class="errorbars"/><g class="lines"><path class="js-line" d="M179.2,258.39L179.2,13.61" style="vector-effect: non-scaling-stroke; fill: none; stroke: rgb(0, 0, 0); stroke-opacity: 0; stroke-width: 1px; opacity: 1;"/></g><g class="points"/><g class="text"/></g><g class="trace scatter trace6b1de6" style="stroke-miterlimit: 2; opacity: 1;"><g class="fills"/><g class="errorbars"/><g class="lines"><path class="js-line" d="M179.2,213.11L156.76,213.11" style="vector-effect: non-scaling-stroke; fill: none; stroke: rgb(0, 200, 229); stroke-opacity: 1; stroke-width: 1px; opacity: 1; stroke-dasharray: 3px, 3px;"/></g><g class="points"/><g class="text"/></g><g class="trace scatter traced4a359" style="stroke-miterlimit: 2; opacity: 1;"><g class="fills"/><g class="errorbars"/><g class="lines"><path class="js-line" d="M179.2,89.52L176.51,89.52" style="vector-effect: non-scaling-stroke; fill: none; stroke: rgb(0, 200, 229); stroke-opacity: 1; stroke-width: 1px; opacity: 1; stroke-dasharray: 3px, 3px;"/></g><g class="points"/><g class="text"/></g><g class="trace scatter trace7496f4" style="stroke-miterlimit: 2; opacity: 1;"><g class="fills"/><g class="errorbars"/><g class="lines"><path class="js-line" d="M179.2,58.14L155.88,58.14" style="vector-effect: non-scaling-stroke; fill: none; stroke: rgb(0, 200, 229); stroke-opacity: 1; stroke-width: 1px; opacity: 1; stroke-dasharray: 3px, 3px;"/></g><g class="points"/><g class="text"/></g><g class="trace scatter trace1505eb" style="stroke-miterlimit: 2;"><g class="fills"><g><path class="js-fill" d="M204.21,258.39L204.21,13.61L203.69,13.61L203.37,19.14L203.35,19.29L201.94,25.86L201.9,26.01L198.79,32.59L198.7,32.74L190.87,42.15L190.72,42.3L183.45,50.22L183.34,50.37L181,54.26L180.93,54.41L180.07,58.44L180.07,58.59L181.13,62.92L181.2,63.07L194.5,78.62L194.63,78.76L198.98,84.59L199.07,84.74L201.65,90.12L201.71,90.27L203.45,97.74L203.47,97.89L204.21,150.5L204.21,150.64L204.13,163.05L204.13,163.2L203.73,171.87L203.72,172.01L202.4,179.79L202.36,179.93L199.44,186.96L199.35,187.11L187.1,201.9L186.97,202.05L182.9,207.43L182.82,207.58L181.28,211.47L181.24,211.62L181.23,215.35L181.25,215.5L182.85,219.54L182.93,219.69L190.6,228.95L190.74,229.1L196.92,236.27L197.03,236.42L200.75,242.7L200.81,242.85L202.93,249.72L202.96,249.87L203.69,258.39Z" style="fill: rgb(0, 200, 229); fill-opacity: 0.2; stroke-width: 0;"/></g></g><g class="errorbars"/><g class="lines"><path class="js-line" d="M203.69,258.39L202.96,249.87L202.93,249.72L200.81,242.85L200.75,242.7L197.03,236.42L196.92,236.27L190.74,229.1L190.6,228.95L182.93,219.69L182.85,219.54L181.25,215.5L181.23,215.35L181.24,211.62L181.28,211.47L182.82,207.58L182.9,207.43L186.97,202.05L187.1,201.9L199.35,187.11L199.44,186.96L202.36,179.93L202.4,179.79L203.72,172.01L203.73,171.87L204.13,163.2L204.13,163.05L204.21,150.64L204.21,150.5L203.47,97.89L203.45,97.74L201.71,90.27L201.65,90.12L199.07,84.74L198.98,84.59L194.63,78.76L194.5,78.62L181.2,63.07L181.13,62.92L180.07,58.59L180.07,58.44L180.93,54.41L181,54.26L183.34,50.37L183.45,50.22L190.72,42.3L190.87,42.15L198.7,32.74L198.79,32.59L201.9,26.01L201.94,25.86L203.35,19.29L203.37,19.14L203.69,13.61" style="vector-effect: non-scaling-stroke; fill: none; stroke: rgb(0, 200, 229); stroke-opacity: 1; stroke-width: 1px; opacity: 1;"/></g><g class="points"/><g class="text"/></g><g class="trace scatter traced4a7d9" style="stroke-miterlimit: 2;"><g class="fills"/><g class="errorbars"/><g class="lines"><path class="js-line" d="M204.21,258.39L204.21,13.61" style="vector-effect: non-scaling-stroke; fill: none; stroke: rgb(0, 0, 0); stroke-opacity: 0; stroke-width: 1px; opacity: 1;"/></g><g class="points"/><g class="text"/></g><g class="trace scatter trace134588" style="stroke-miterlimit: 2; opacity: 1;"><g class="fills"/><g class="errorbars"/><g class="lines"><path class="js-line" d="M204.21,213.11L181.06,213.11" style="vector-effect: non-scaling-stroke; fill: none; stroke: rgb(0, 200, 229); stroke-opacity: 1; stroke-width: 1px; opacity: 1; stroke-dasharray: 3px, 3px;"/></g><g class="points"/><g class="text"/></g><g class="trace scatter trace4b804d" style="stroke-miterlimit: 2; opacity: 1;"><g class="fills"/><g class="errorbars"/><g class="lines"><path class="js-line" d="M204.21,89.08L201.25,89.08" style="vector-effect: non-scaling-stroke; fill: none; stroke: rgb(0, 200, 229); stroke-opacity: 1; stroke-width: 1px; opacity: 1; stroke-dasharray: 3px, 3px;"/></g><g class="points"/><g class="text"/></g><g class="trace scatter trace7900b8" style="stroke-miterlimit: 2; opacity: 1;"><g class="fills"/><g class="errorbars"/><g class="lines"><path class="js-line" d="M204.21,57.99L180.08,57.99" style="vector-effect: non-scaling-stroke; fill: none; stroke: rgb(0, 200, 229); stroke-opacity: 1; stroke-width: 1px; opacity: 1; stroke-dasharray: 3px, 3px;"/></g><g class="points"/><g class="text"/></g><g class="trace scatter trace1f74a2" style="stroke-miterlimit: 2;"><g class="fills"><g><path class="js-fill" d="M230.06,258.4L230.06,13.6L229.54,13.6L229.2,19.43L229.19,19.58L227.76,26.16L227.71,26.31L224.43,33.18L224.33,33.33L215.7,43.64L215.56,43.79L210.03,50.07L209.92,50.22L207.3,54.85L207.25,55L206.65,58.88L206.66,59.03L207.8,63.22L207.88,63.37L220.24,78.16L220.37,78.31L224.8,84.29L224.89,84.44L227.52,89.97L227.57,90.12L229.3,97.59L229.32,97.74L229.97,163.65L229.97,163.8L229.33,174.26L229.31,174.41L227.76,181.43L227.71,181.58L225.23,187.11L225.15,187.26L213.21,201.76L213.07,201.91L209.37,206.69L209.27,206.84L207.44,210.87L207.4,211.02L207.25,215.36L207.28,215.51L208.95,219.69L209.04,219.84L216.42,228.81L216.56,228.96L223.68,237.48L223.78,237.62L226.62,242.71L226.69,242.86L228.76,249.58L228.79,249.73L229.54,258.4Z" style="fill: rgb(0, 200, 229); fill-opacity: 0.2; stroke-width: 0;"/></g></g><g class="errorbars"/><g class="lines"><path class="js-line" d="M229.54,258.4L228.79,249.73L228.76,249.58L226.69,242.86L226.62,242.71L223.78,237.62L223.68,237.48L216.56,228.96L216.42,228.81L209.04,219.84L208.95,219.69L207.28,215.51L207.25,215.36L207.4,211.02L207.44,210.87L209.27,206.84L209.37,206.69L213.07,201.91L213.21,201.76L225.15,187.26L225.23,187.11L227.71,181.58L227.76,181.43L229.31,174.41L229.33,174.26L229.97,163.8L229.97,163.65L229.32,97.74L229.3,97.59L227.57,90.12L227.52,89.97L224.89,84.44L224.8,84.29L220.37,78.31L220.24,78.16L207.88,63.37L207.8,63.22L206.66,59.03L206.65,58.88L207.25,55L207.3,54.85L209.92,50.22L210.03,50.07L215.56,43.79L215.7,43.64L224.33,33.33L224.43,33.18L227.71,26.31L227.76,26.16L229.19,19.58L229.2,19.43L229.54,13.6" style="vector-effect: non-scaling-stroke; fill: none; stroke: rgb(0, 200, 229); stroke-opacity: 1; stroke-width: 1px; opacity: 1;"/></g><g class="points"/><g class="text"/></g><g class="trace scatter trace0b27ec" style="stroke-miterlimit: 2;"><g class="fills"/><g class="errorbars"/><g class="lines"><path class="js-line" d="M230.06,258.4L230.06,13.6" style="vector-effect: non-scaling-stroke; fill: none; stroke: rgb(0, 0, 0); stroke-opacity: 0; stroke-width: 1px; opacity: 1;"/></g><g class="points"/><g class="text"/></g><g class="trace scatter trace0e4059" style="stroke-miterlimit: 2; opacity: 1;"><g class="fills"/><g class="errorbars"/><g class="lines"><path class="js-line" d="M230.06,213.41L207.08,213.41" style="vector-effect: non-scaling-stroke; fill: none; stroke: rgb(0, 200, 229); stroke-opacity: 1; stroke-width: 1px; opacity: 1; stroke-dasharray: 3px, 3px;"/></g><g class="points"/><g class="text"/></g><g class="trace scatter traceb470dd" style="stroke-miterlimit: 2; opacity: 1;"><g class="fills"/><g class="errorbars"/><g class="lines"><path class="js-line" d="M230.06,93.56L228.57,93.56" style="vector-effect: non-scaling-stroke; fill: none; stroke: rgb(0, 200, 229); stroke-opacity: 1; stroke-width: 1px; opacity: 1; stroke-dasharray: 3px, 3px;"/></g><g class="points"/><g class="text"/></g><g class="trace scatter trace63d619" style="stroke-miterlimit: 2; opacity: 1;"><g class="fills"/><g class="errorbars"/><g class="lines"><path class="js-line" d="M230.06,58.29L206.64,58.29" style="vector-effect: non-scaling-stroke; fill: none; stroke: rgb(0, 200, 229); stroke-opacity: 1; stroke-width: 1px; opacity: 1; stroke-dasharray: 3px, 3px;"/></g><g class="points"/><g class="text"/></g><g class="trace scatter trace005ec0" style="stroke-miterlimit: 2;"><g class="fills"><g><path class="js-fill" d="M255.42,258.4L255.42,13.6L254.9,13.6L254.58,19.28L254.56,19.43L253.15,26.01L253.11,26.16L249.84,33.03L249.75,33.18L240.67,43.94L240.52,44.09L235.24,50.07L235.13,50.22L232.49,54.85L232.44,55L231.83,58.89L231.84,59.03L232.93,63.07L233,63.22L245.53,78.16L245.66,78.31L250.21,84.44L250.3,84.59L252.86,89.97L252.91,90.12L254.65,97.59L254.67,97.74L255.33,163.65L255.33,163.8L254.37,176.35L254.34,176.5L252.63,182.78L252.57,182.93L249.66,188.61L249.57,188.75L241.66,198.32L241.52,198.47L235.13,205.94L235.03,206.09L232.89,210.28L232.84,210.42L232.4,214.61L232.42,214.76L234.13,219.54L234.22,219.69L241.86,228.96L242,229.11L248.05,236.13L248.16,236.28L251.97,242.71L252.03,242.85L254.12,249.58L254.15,249.73L254.9,258.4Z" style="fill: rgb(0, 200, 229); fill-opacity: 0.2; stroke-width: 0;"/></g></g><g class="errorbars"/><g class="lines"><path class="js-line" d="M254.9,258.4L254.15,249.73L254.12,249.58L252.03,242.85L251.97,242.71L248.16,236.28L248.05,236.13L242,229.11L241.86,228.96L234.22,219.69L234.13,219.54L232.42,214.76L232.4,214.61L232.84,210.42L232.89,210.28L235.03,206.09L235.13,205.94L241.52,198.47L241.66,198.32L249.57,188.75L249.66,188.61L252.57,182.93L252.63,182.78L254.34,176.5L254.37,176.35L255.33,163.8L255.33,163.65L254.67,97.74L254.65,97.59L252.91,90.12L252.86,89.97L250.3,84.59L250.21,84.44L245.66,78.31L245.53,78.16L233,63.22L232.93,63.07L231.84,59.03L231.83,58.89L232.44,55L232.49,54.85L235.13,50.22L235.24,50.07L240.52,44.09L240.67,43.94L249.75,33.18L249.84,33.03L253.11,26.16L253.15,26.01L254.56,19.43L254.58,19.28L254.9,13.6" style="vector-effect: non-scaling-stroke; fill: none; stroke: rgb(0, 200, 229); stroke-opacity: 1; stroke-width: 1px; opacity: 1;"/></g><g class="points"/><g class="text"/></g><g class="trace scatter trace77ed5b" style="stroke-miterlimit: 2;"><g class="fills"/><g class="errorbars"/><g class="lines"><path class="js-line" d="M255.42,258.4L255.42,13.6" style="vector-effect: non-scaling-stroke; fill: none; stroke: rgb(0, 0, 0); stroke-opacity: 0; stroke-width: 1px; opacity: 1;"/></g><g class="points"/><g class="text"/></g><g class="trace scatter tracee139a2" style="stroke-miterlimit: 2; opacity: 1;"><g class="fills"/><g class="errorbars"/><g class="lines"><path class="js-line" d="M255.42,213.26L232.35,213.26" style="vector-effect: non-scaling-stroke; fill: none; stroke: rgb(0, 200, 229); stroke-opacity: 1; stroke-width: 1px; opacity: 1; stroke-dasharray: 3px, 3px;"/></g><g class="points"/><g class="text"/></g><g class="trace scatter trace1ace23" style="stroke-miterlimit: 2; opacity: 1;"><g class="fills"/><g class="errorbars"/><g class="lines"><path class="js-line" d="M255.42,92.66L253.7,92.66" style="vector-effect: non-scaling-stroke; fill: none; stroke: rgb(0, 200, 229); stroke-opacity: 1; stroke-width: 1px; opacity: 1; stroke-dasharray: 3px, 3px;"/></g><g class="points"/><g class="text"/></g><g class="trace scatter tracecf2484" style="stroke-miterlimit: 2; opacity: 1;"><g class="fills"/><g class="errorbars"/><g class="lines"><path class="js-line" d="M255.42,58.29L231.82,58.29" style="vector-effect: non-scaling-stroke; fill: none; stroke: rgb(0, 200, 229); stroke-opacity: 1; stroke-width: 1px; opacity: 1; stroke-dasharray: 3px, 3px;"/></g><g class="points"/><g class="text"/></g><g class="trace scatter traceb43389" style="stroke-miterlimit: 2;"><g class="fills"><g><path class="js-fill" d="M280.93,258.34L280.93,13.66L280.4,13.66L280.09,18.89L280.07,19.04L278.29,26.65L278.23,26.8L274.94,33.08L274.83,33.23L265.38,43.68L265.22,43.83L258.66,50.85L258.55,51L256.14,55.33L256.09,55.48L255.63,59.22L255.65,59.37L256.88,63.25L256.96,63.4L271.46,79.39L271.59,79.53L275.76,85.06L275.85,85.21L278.38,90.44L278.43,90.59L280.16,97.91L280.18,98.06L280.93,153.78L280.93,153.93L280.47,171.85L280.45,172L278.67,181.41L278.62,181.56L276.07,187.24L275.99,187.39L264.19,201.73L264.05,201.88L260.35,206.66L260.25,206.81L258.38,210.99L258.34,211.14L258.12,214.72L258.14,214.87L259.89,219.65L259.98,219.8L264.58,225.78L264.71,225.93L273.61,236.08L273.72,236.23L277.44,242.51L277.51,242.66L279.64,249.53L279.67,249.68L280.4,258.34Z" style="fill: rgb(59, 2, 128); fill-opacity: 0.2; stroke-width: 0;"/></g></g><g class="errorbars"/><g class="lines"><path class="js-line" d="M280.4,258.34L279.67,249.68L279.64,249.53L277.51,242.66L277.44,242.51L273.72,236.23L273.61,236.08L264.71,225.93L264.58,225.78L259.98,219.8L259.89,219.65L258.14,214.87L258.12,214.72L258.34,211.14L258.38,210.99L260.25,206.81L260.35,206.66L264.05,201.88L264.19,201.73L275.99,187.39L276.07,187.24L278.62,181.56L278.67,181.41L280.45,172L280.47,171.85L280.93,153.93L280.93,153.78L280.18,98.06L280.16,97.91L278.43,90.59L278.38,90.44L275.85,85.21L275.76,85.06L271.59,79.53L271.46,79.39L256.96,63.4L256.88,63.25L255.65,59.37L255.63,59.22L256.09,55.48L256.14,55.33L258.55,51L258.66,50.85L265.22,43.83L265.38,43.68L274.83,33.23L274.94,33.08L278.23,26.8L278.29,26.65L280.07,19.04L280.09,18.89L280.4,13.66" style="vector-effect: non-scaling-stroke; fill: none; stroke: rgb(59, 2, 128); stroke-opacity: 1; stroke-width: 1px; opacity: 1;"/></g><g class="points"/><g class="text"/></g><g class="trace scatter trace0c0b8e" style="stroke-miterlimit: 2;"><g class="fills"/><g class="errorbars"/><g class="lines"><path class="js-line" d="M280.93,258.34L280.93,13.66" style="vector-effect: non-scaling-stroke; fill: none; stroke: rgb(0, 0, 0); stroke-opacity: 0; stroke-width: 1px; opacity: 1;"/></g><g class="points"/><g class="text"/></g><g class="trace scatter traceb46d23" style="stroke-miterlimit: 2; opacity: 1;"><g class="fills"/><g class="errorbars"/><g class="lines"><path class="js-line" d="M280.93,212.48L258.1,212.48" style="vector-effect: non-scaling-stroke; fill: none; stroke: rgb(59, 2, 128); stroke-opacity: 1; stroke-width: 1px; opacity: 1; stroke-dasharray: 3px, 3px;"/></g><g class="points"/><g class="text"/></g><g class="trace scatter traced06b25" style="stroke-miterlimit: 2; opacity: 1;"><g class="fills"/><g class="errorbars"/><g class="lines"><path class="js-line" d="M280.93,83.27L274.57,83.27" style="vector-effect: non-scaling-stroke; fill: none; stroke: rgb(59, 2, 128); stroke-opacity: 1; stroke-width: 1px; opacity: 1; stroke-dasharray: 3px, 3px;"/></g><g class="points"/><g class="text"/></g><g class="trace scatter trace1c7df9" style="stroke-miterlimit: 2; opacity: 1;"><g class="fills"/><g class="errorbars"/><g class="lines"><path class="js-line" d="M280.93,57.58L255.64,57.58" style="vector-effect: non-scaling-stroke; fill: none; stroke: rgb(59, 2, 128); stroke-opacity: 1; stroke-width: 1px; opacity: 1; stroke-dasharray: 3px, 3px;"/></g><g class="points"/><g class="text"/></g><g class="trace scatter trace2a85f4" style="stroke-miterlimit: 2;"><g class="fills"><g><path class="js-fill" d="M307.26,258.4L307.26,13.6L306.74,13.6L306.61,17.34L306.6,17.49L304.96,26.31L304.91,26.45L301.45,33.63L301.35,33.78L293.02,43.79L292.88,43.94L287.06,50.81L286.96,50.96L284.81,55.15L284.76,55.3L284.28,59.03L284.29,59.18L285.4,63.22L285.47,63.37L297.36,77.86L297.49,78.01L302.01,84.14L302.1,84.29L304.71,89.82L304.77,89.97L306.49,97.44L306.51,97.59L307.17,163.5L307.17,163.65L306.53,174.11L306.51,174.26L305.01,181.13L304.96,181.28L301.6,188.31L301.5,188.46L295.66,195.78L295.52,195.93L287.87,204.3L287.75,204.45L284.88,208.93L284.81,209.08L283.82,212.82L283.81,212.97L284.58,217.45L284.64,217.6L287.8,222.68L287.91,222.83L293.9,229.4L294.04,229.55L299.99,236.43L300.1,236.58L303.82,242.86L303.88,243L305.97,249.73L305.99,249.88L306.74,258.4Z" style="fill: rgb(59, 2, 128); fill-opacity: 0.2; stroke-width: 0;"/></g></g><g class="errorbars"/><g class="lines"><path class="js-line" d="M306.74,258.4L305.99,249.88L305.97,249.73L303.88,243L303.82,242.86L300.1,236.58L299.99,236.43L294.04,229.55L293.9,229.4L287.91,222.83L287.8,222.68L284.64,217.6L284.58,217.45L283.81,212.97L283.82,212.82L284.81,209.08L284.88,208.93L287.75,204.45L287.87,204.3L295.52,195.93L295.66,195.78L301.5,188.46L301.6,188.31L304.96,181.28L305.01,181.13L306.51,174.26L306.53,174.11L307.17,163.65L307.17,163.5L306.51,97.59L306.49,97.44L304.77,89.97L304.71,89.82L302.1,84.29L302.01,84.14L297.49,78.01L297.36,77.86L285.47,63.37L285.4,63.22L284.29,59.18L284.28,59.03L284.76,55.3L284.81,55.15L286.96,50.96L287.06,50.81L292.88,43.94L293.02,43.79L301.35,33.78L301.45,33.63L304.91,26.45L304.96,26.31L306.6,17.49L306.61,17.34L306.74,13.6" style="vector-effect: non-scaling-stroke; fill: none; stroke: rgb(59, 2, 128); stroke-opacity: 1; stroke-width: 1px; opacity: 1;"/></g><g class="points"/><g class="text"/></g><g class="trace scatter trace7c7271" style="stroke-miterlimit: 2;"><g class="fills"/><g class="errorbars"/><g class="lines"><path class="js-line" d="M307.26,258.4L307.26,13.6" style="vector-effect: non-scaling-stroke; fill: none; stroke: rgb(0, 0, 0); stroke-opacity: 0; stroke-width: 1px; opacity: 1;"/></g><g class="points"/><g class="text"/></g><g class="trace scatter trace360ff6" style="stroke-miterlimit: 2; opacity: 1;"><g class="fills"/><g class="errorbars"/><g class="lines"><path class="js-line" d="M307.26,213.71L283.79,213.71" style="vector-effect: non-scaling-stroke; fill: none; stroke: rgb(59, 2, 128); stroke-opacity: 1; stroke-width: 1px; opacity: 1; stroke-dasharray: 3px, 3px;"/></g><g class="points"/><g class="text"/></g><g class="trace scatter traceb395a5" style="stroke-miterlimit: 2; opacity: 1;"><g class="fills"/><g class="errorbars"/><g class="lines"><path class="js-line" d="M307.26,178.59L305.73,178.59" style="vector-effect: non-scaling-stroke; fill: none; stroke: rgb(59, 2, 128); stroke-opacity: 1; stroke-width: 1px; opacity: 1; stroke-dasharray: 3px, 3px;"/></g><g class="points"/><g class="text"/></g><g class="trace scatter trace795cee" style="stroke-miterlimit: 2; opacity: 1;"><g class="fills"/><g class="errorbars"/><g class="lines"><path class="js-line" d="M307.26,58.59L284.26,58.59" style="vector-effect: non-scaling-stroke; fill: none; stroke: rgb(59, 2, 128); stroke-opacity: 1; stroke-width: 1px; opacity: 1; stroke-dasharray: 3px, 3px;"/></g><g class="points"/><g class="text"/></g><g class="trace scatter trace60cd38" style="stroke-miterlimit: 2;"><g class="fills"><g><path class="js-fill" d="M332.67,258.4L332.67,13.6L332.14,13.6L332.13,14.35L332.13,14.5L331.54,21.22L331.52,21.37L329.38,28.7L329.31,28.85L325.74,34.97L325.63,35.12L317.85,43.94L317.71,44.09L312.41,50.07L312.29,50.22L309.64,54.85L309.59,55L308.98,58.88L308.99,59.03L310.08,63.07L310.15,63.22L321.39,76.67L321.53,76.82L326.48,82.95L326.58,83.1L330.1,89.97L330.15,90.12L331.9,97.59L331.92,97.74L332.58,163.35L332.58,163.5L331.94,173.96L331.92,174.11L330.45,180.83L330.4,180.98L327.32,187.56L327.23,187.71L314.4,202.35L314.26,202.5L310.72,206.99L310.62,207.14L308.89,210.87L308.85,211.02L308.56,214.46L308.57,214.61L310.04,218.94L310.12,219.09L319.49,230L319.64,230.15L324.83,235.98L324.95,236.13L329.19,243L329.26,243.15L331.07,248.53L331.11,248.68L332.14,258.4Z" style="fill: rgb(59, 2, 128); fill-opacity: 0.2; stroke-width: 0;"/></g></g><g class="errorbars"/><g class="lines"><path class="js-line" d="M332.14,258.4L331.11,248.68L331.07,248.53L329.26,243.15L329.19,243L324.95,236.13L324.83,235.98L319.64,230.15L319.49,230L310.12,219.09L310.04,218.94L308.57,214.61L308.56,214.46L308.85,211.02L308.89,210.87L310.62,207.14L310.72,206.99L314.26,202.5L314.4,202.35L327.23,187.71L327.32,187.56L330.4,180.98L330.45,180.83L331.92,174.11L331.94,173.96L332.58,163.5L332.58,163.35L331.92,97.74L331.9,97.59L330.15,90.12L330.1,89.97L326.58,83.1L326.48,82.95L321.53,76.82L321.39,76.67L310.15,63.22L310.08,63.07L308.99,59.03L308.98,58.88L309.59,55L309.64,54.85L312.29,50.22L312.41,50.07L317.71,44.09L317.85,43.94L325.63,35.12L325.74,34.97L329.31,28.85L329.38,28.7L331.52,21.37L331.54,21.22L332.13,14.5L332.13,14.35L332.14,13.6" style="vector-effect: non-scaling-stroke; fill: none; stroke: rgb(59, 2, 128); stroke-opacity: 1; stroke-width: 1px; opacity: 1;"/></g><g class="points"/><g class="text"/></g><g class="trace scatter trace4cee43" style="stroke-miterlimit: 2;"><g class="fills"/><g class="errorbars"/><g class="lines"><path class="js-line" d="M332.67,258.4L332.67,13.6" style="vector-effect: non-scaling-stroke; fill: none; stroke: rgb(0, 0, 0); stroke-opacity: 0; stroke-width: 1px; opacity: 1;"/></g><g class="points"/><g class="text"/></g><g class="trace scatter tracebd3222" style="stroke-miterlimit: 2; opacity: 1;"><g class="fills"/><g class="errorbars"/><g class="lines"><path class="js-line" d="M332.67,213.71L308.51,213.71" style="vector-effect: non-scaling-stroke; fill: none; stroke: rgb(59, 2, 128); stroke-opacity: 1; stroke-width: 1px; opacity: 1; stroke-dasharray: 3px, 3px;"/></g><g class="points"/><g class="text"/></g><g class="trace scatter traceab5e26" style="stroke-miterlimit: 2; opacity: 1;"><g class="fills"/><g class="errorbars"/><g class="lines"><path class="js-line" d="M332.67,178.44L331.13,178.44" style="vector-effect: non-scaling-stroke; fill: none; stroke: rgb(59, 2, 128); stroke-opacity: 1; stroke-width: 1px; opacity: 1; stroke-dasharray: 3px, 3px;"/></g><g class="points"/><g class="text"/></g><g class="trace scatter trace437127" style="stroke-miterlimit: 2; opacity: 1;"><g class="fills"/><g class="errorbars"/><g class="lines"><path class="js-line" d="M332.67,58.59L308.97,58.59" style="vector-effect: non-scaling-stroke; fill: none; stroke: rgb(59, 2, 128); stroke-opacity: 1; stroke-width: 1px; opacity: 1; stroke-dasharray: 3px, 3px;"/></g><g class="points"/><g class="text"/></g><g class="trace scatter trace249645" style="stroke-miterlimit: 2;"><g class="fills"><g><path class="js-fill" d="M358.82,258.4L358.82,13.6L358.3,13.6L358.18,17.19L358.17,17.34L356.94,24.81L356.9,24.96L354.04,31.83L353.95,31.98L341.65,46.78L341.52,46.93L337.34,52.46L337.26,52.61L335.75,56.49L335.72,56.64L335.72,60.23L335.75,60.38L337.34,64.41L337.43,64.56L345.4,74.13L345.54,74.28L352.65,82.8L352.75,82.95L356.25,89.82L356.3,89.97L358.05,97.44L358.07,97.59L358.82,142.28L358.82,142.43L358.81,153.78L358.81,153.93L358.36,171.57L358.35,171.72L357.01,179.64L356.96,179.79L354.19,186.51L354.11,186.66L340.12,203.25L340,203.4L336.53,208.33L336.45,208.48L335.28,211.92L335.25,212.07L335.45,215.95L335.49,216.1L337.63,220.59L337.73,220.74L345.48,229.55L345.62,229.7L351.48,236.43L351.6,236.58L355.35,242.86L355.42,243.01L357.52,249.73L357.55,249.88L358.3,258.4Z" style="fill: rgb(59, 2, 128); fill-opacity: 0.2; stroke-width: 0;"/></g></g><g class="errorbars"/><g class="lines"><path class="js-line" d="M358.3,258.4L357.55,249.88L357.52,249.73L355.42,243.01L355.35,242.86L351.6,236.58L351.48,236.43L345.62,229.7L345.48,229.55L337.73,220.74L337.63,220.59L335.49,216.1L335.45,215.95L335.25,212.07L335.28,211.92L336.45,208.48L336.53,208.33L340,203.4L340.12,203.25L354.11,186.66L354.19,186.51L356.96,179.79L357.01,179.64L358.35,171.72L358.36,171.57L358.81,153.93L358.81,153.78L358.82,142.43L358.82,142.28L358.07,97.59L358.05,97.44L356.3,89.97L356.25,89.82L352.75,82.95L352.65,82.8L345.54,74.28L345.4,74.13L337.43,64.56L337.34,64.41L335.75,60.38L335.72,60.23L335.72,56.64L335.75,56.49L337.26,52.61L337.34,52.46L341.52,46.93L341.65,46.78L353.95,31.98L354.04,31.83L356.9,24.96L356.94,24.81L358.17,17.34L358.18,17.19L358.3,13.6" style="vector-effect: non-scaling-stroke; fill: none; stroke: rgb(59, 2, 128); stroke-opacity: 1; stroke-width: 1px; opacity: 1;"/></g><g class="points"/><g class="text"/></g><g class="trace scatter trace82ad80" style="stroke-miterlimit: 2;"><g class="fills"/><g class="errorbars"/><g class="lines"><path class="js-line" d="M358.82,258.4L358.82,13.6" style="vector-effect: non-scaling-stroke; fill: none; stroke: rgb(0, 0, 0); stroke-opacity: 0; stroke-width: 1px; opacity: 1;"/></g><g class="points"/><g class="text"/></g><g class="trace scatter trace7e1d9e" style="stroke-miterlimit: 2; opacity: 1;"><g class="fills"/><g class="errorbars"/><g class="lines"><path class="js-line" d="M358.82,213.71L335.14,213.71" style="vector-effect: non-scaling-stroke; fill: none; stroke: rgb(59, 2, 128); stroke-opacity: 1; stroke-width: 1px; opacity: 1; stroke-dasharray: 3px, 3px;"/></g><g class="points"/><g class="text"/></g><g class="trace scatter tracef0c359" style="stroke-miterlimit: 2; opacity: 1;"><g class="fills"/><g class="errorbars"/><g class="lines"><path class="js-line" d="M358.82,178L357.42,178" style="vector-effect: non-scaling-stroke; fill: none; stroke: rgb(59, 2, 128); stroke-opacity: 1; stroke-width: 1px; opacity: 1; stroke-dasharray: 3px, 3px;"/></g><g class="points"/><g class="text"/></g><g class="trace scatter trace9dd21a" style="stroke-miterlimit: 2; opacity: 1;"><g class="fills"/><g class="errorbars"/><g class="lines"><path class="js-line" d="M358.82,58.59L335.55,58.59" style="vector-effect: non-scaling-stroke; fill: none; stroke: rgb(59, 2, 128); stroke-opacity: 1; stroke-width: 1px; opacity: 1; stroke-dasharray: 3px, 3px;"/></g><g class="points"/><g class="text"/></g><g class="trace scatter trace84f866" style="stroke-miterlimit: 2;"><g class="fills"><g><path class="js-fill" d="M384.49,258.4L384.49,13.6L383.97,13.6L383.86,16.89L383.85,17.04L383.02,23.02L382.99,23.17L381.2,28.7L381.14,28.85L377.57,34.98L377.46,35.12L369.69,43.94L369.55,44.09L363.6,50.97L363.5,51.12L361.39,55.15L361.34,55.3L360.88,59.48L360.9,59.63L362.47,64.12L362.56,64.27L373.1,76.52L373.23,76.67L378.31,82.95L378.41,83.1L381.93,89.97L381.98,90.12L383.72,97.59L383.74,97.74L384.4,163.65L384.4,163.8L383.76,174.26L383.74,174.41L382.19,181.43L382.14,181.58L378.66,188.75L378.56,188.9L368.42,200.86L368.28,201.01L363.31,207.43L363.23,207.58L361.67,211.62L361.64,211.77L361.65,215.36L361.68,215.5L363.35,219.69L363.44,219.84L370.83,228.81L370.97,228.95L377.14,236.13L377.25,236.28L380.98,242.55L381.05,242.7L383.19,249.58L383.22,249.73L383.97,258.4Z" style="fill: rgb(59, 2, 128); fill-opacity: 0.2; stroke-width: 0;"/></g></g><g class="errorbars"/><g class="lines"><path class="js-line" d="M383.97,258.4L383.22,249.73L383.19,249.58L381.05,242.7L380.98,242.55L377.25,236.28L377.14,236.13L370.97,228.95L370.83,228.81L363.44,219.84L363.35,219.69L361.68,215.5L361.65,215.36L361.64,211.77L361.67,211.62L363.23,207.58L363.31,207.43L368.28,201.01L368.42,200.86L378.56,188.9L378.66,188.75L382.14,181.58L382.19,181.43L383.74,174.41L383.76,174.26L384.4,163.8L384.4,163.65L383.74,97.74L383.72,97.59L381.98,90.12L381.93,89.97L378.41,83.1L378.31,82.95L373.23,76.67L373.1,76.52L362.56,64.27L362.47,64.12L360.9,59.63L360.88,59.48L361.34,55.3L361.39,55.15L363.5,51.12L363.6,50.97L369.55,44.09L369.69,43.94L377.46,35.12L377.57,34.98L381.14,28.85L381.2,28.7L382.99,23.17L383.02,23.02L383.85,17.04L383.86,16.89L383.97,13.6" style="vector-effect: non-scaling-stroke; fill: none; stroke: rgb(59, 2, 128); stroke-opacity: 1; stroke-width: 1px; opacity: 1;"/></g><g class="points"/><g class="text"/></g><g class="trace scatter trace295d0e" style="stroke-miterlimit: 2;"><g class="fills"/><g class="errorbars"/><g class="lines"><path class="js-line" d="M384.49,258.4L384.49,13.6" style="vector-effect: non-scaling-stroke; fill: none; stroke: rgb(0, 0, 0); stroke-opacity: 0; stroke-width: 1px; opacity: 1;"/></g><g class="points"/><g class="text"/></g><g class="trace scatter tracefe6161" style="stroke-miterlimit: 2; opacity: 1;"><g class="fills"/><g class="errorbars"/><g class="lines"><path class="js-line" d="M384.49,213.26L361.48,213.26" style="vector-effect: non-scaling-stroke; fill: none; stroke: rgb(59, 2, 128); stroke-opacity: 1; stroke-width: 1px; opacity: 1; stroke-dasharray: 3px, 3px;"/></g><g class="points"/><g class="text"/></g><g class="trace scatter trace084fdb" style="stroke-miterlimit: 2; opacity: 1;"><g class="fills"/><g class="errorbars"/><g class="lines"><path class="js-line" d="M384.49,91.47L382.42,91.47" style="vector-effect: non-scaling-stroke; fill: none; stroke: rgb(59, 2, 128); stroke-opacity: 1; stroke-width: 1px; opacity: 1; stroke-dasharray: 3px, 3px;"/></g><g class="points"/><g class="text"/></g><g class="trace scatter tracefe20c9" style="stroke-miterlimit: 2; opacity: 1;"><g class="fills"/><g class="errorbars"/><g class="lines"><path class="js-line" d="M384.49,58.14L360.83,58.14" style="vector-effect: non-scaling-stroke; fill: none; stroke: rgb(59, 2, 128); stroke-opacity: 1; stroke-width: 1px; opacity: 1; stroke-dasharray: 3px, 3px;"/></g><g class="points"/><g class="text"/></g><g class="trace scatter trace30c15c" style="stroke-miterlimit: 2;"><g class="fills"><g><path class="js-fill" d="M409.99,258.31L409.99,13.69L409.46,13.69L409.16,18.77L409.14,18.92L407.83,25.19L407.79,25.34L404.9,31.61L404.81,31.76L390.93,46.99L390.78,47.14L386.54,52.22L386.44,52.37L384.65,56.4L384.62,56.55L384.53,59.84L384.55,59.98L386.14,64.02L386.23,64.17L392.84,71.78L392.99,71.93L400.58,79.55L400.72,79.7L404.88,85.22L404.97,85.37L407.48,90.6L407.54,90.75L409.22,97.92L409.24,98.07L409.92,163.18L409.92,163.33L409.52,171.99L409.51,172.14L408.17,180.06L408.13,180.21L405.14,187.37L405.05,187.52L393.77,201.41L393.64,201.56L389.72,206.64L389.63,206.79L387.77,210.97L387.73,211.12L387.51,214.7L387.52,214.85L388.77,218.74L388.84,218.89L396.02,228.14L396.16,228.29L402.55,235.76L402.66,235.91L406.55,242.48L406.61,242.63L408.69,249.35L408.72,249.5L409.46,258.31Z" style="fill: rgb(59, 2, 128); fill-opacity: 0.2; stroke-width: 0;"/></g></g><g class="errorbars"/><g class="lines"><path class="js-line" d="M409.46,258.31L408.72,249.5L408.69,249.35L406.61,242.63L406.55,242.48L402.66,235.91L402.55,235.76L396.16,228.29L396.02,228.14L388.84,218.89L388.77,218.74L387.52,214.85L387.51,214.7L387.73,211.12L387.77,210.97L389.63,206.79L389.72,206.64L393.64,201.56L393.77,201.41L405.05,187.52L405.14,187.37L408.13,180.21L408.17,180.06L409.51,172.14L409.52,171.99L409.92,163.33L409.92,163.18L409.24,98.07L409.22,97.92L407.54,90.75L407.48,90.6L404.97,85.37L404.88,85.22L400.72,79.7L400.58,79.55L392.99,71.93L392.84,71.78L386.23,64.17L386.14,64.02L384.55,59.98L384.53,59.84L384.62,56.55L384.65,56.4L386.44,52.37L386.54,52.22L390.78,47.14L390.93,46.99L404.81,31.76L404.9,31.61L407.79,25.34L407.83,25.19L409.14,18.92L409.16,18.77L409.46,13.69" style="vector-effect: non-scaling-stroke; fill: none; stroke: rgb(59, 2, 128); stroke-opacity: 1; stroke-width: 1px; opacity: 1;"/></g><g class="points"/><g class="text"/></g><g class="trace scatter tracee1faf1" style="stroke-miterlimit: 2;"><g class="fills"/><g class="errorbars"/><g class="lines"><path class="js-line" d="M409.99,258.31L409.99,13.69" style="vector-effect: non-scaling-stroke; fill: none; stroke: rgb(0, 0, 0); stroke-opacity: 0; stroke-width: 1px; opacity: 1;"/></g><g class="points"/><g class="text"/></g><g class="trace scatter trace8be0b8" style="stroke-miterlimit: 2; opacity: 1;"><g class="fills"/><g class="errorbars"/><g class="lines"><path class="js-line" d="M409.99,212.31L387.51,212.31" style="vector-effect: non-scaling-stroke; fill: none; stroke: rgb(59, 2, 128); stroke-opacity: 1; stroke-width: 1px; opacity: 1; stroke-dasharray: 3px, 3px;"/></g><g class="points"/><g class="text"/></g><g class="trace scatter trace616970" style="stroke-miterlimit: 2; opacity: 1;"><g class="fills"/><g class="errorbars"/><g class="lines"><path class="js-line" d="M409.99,81.79L402.47,81.79" style="vector-effect: non-scaling-stroke; fill: none; stroke: rgb(59, 2, 128); stroke-opacity: 1; stroke-width: 1px; opacity: 1; stroke-dasharray: 3px, 3px;"/></g><g class="points"/><g class="text"/></g><g class="trace scatter trace0840cb" style="stroke-miterlimit: 2; opacity: 1;"><g class="fills"/><g class="errorbars"/><g class="lines"><path class="js-line" d="M409.99,57.3L384.49,57.3" style="vector-effect: non-scaling-stroke; fill: none; stroke: rgb(59, 2, 128); stroke-opacity: 1; stroke-width: 1px; opacity: 1; stroke-dasharray: 3px, 3px;"/></g><g class="points"/><g class="text"/></g><g class="trace scatter trace05ffcb" style="stroke-miterlimit: 2;"><g class="fills"><g><path class="js-fill" d="M436.25,258.32L436.25,13.68L435.73,13.68L435.61,16.82L435.6,16.97L434.48,23.99L434.44,24.14L432.48,29.36L432.41,29.51L428.44,35.64L428.32,35.79L419.34,45.19L419.19,45.34L413.88,51.32L413.78,51.47L411.72,55.35L411.67,55.5L411.22,59.23L411.24,59.38L412.47,63.27L412.54,63.42L425.26,77.6L425.4,77.75L431.06,84.92L431.15,85.07L433.68,90.3L433.74,90.45L435.49,97.92L435.51,98.06L436.25,153.77L436.25,153.92L436.01,168.71L436,168.86L435.18,176.77L435.15,176.92L433.38,183.34L433.32,183.49L430,189.77L429.9,189.92L421.86,199.62L421.73,199.77L416.87,205.75L416.77,205.9L414.58,210.23L414.53,210.38L414.11,214.71L414.13,214.86L415.43,218.89L415.5,219.04L424.38,230.24L424.51,230.39L429.87,237.11L429.97,237.26L432.79,242.34L432.86,242.49L434.97,249.36L435,249.51L435.73,258.32Z" style="fill: rgb(59, 2, 128); fill-opacity: 0.2; stroke-width: 0;"/></g></g><g class="errorbars"/><g class="lines"><path class="js-line" d="M435.73,258.32L435,249.51L434.97,249.36L432.86,242.49L432.79,242.34L429.97,237.26L429.87,237.11L424.51,230.39L424.38,230.24L415.5,219.04L415.43,218.89L414.13,214.86L414.11,214.71L414.53,210.38L414.58,210.23L416.77,205.9L416.87,205.75L421.73,199.77L421.86,199.62L429.9,189.92L430,189.77L433.32,183.49L433.38,183.34L435.15,176.92L435.18,176.77L436,168.86L436.01,168.71L436.25,153.92L436.25,153.77L435.51,98.06L435.49,97.92L433.74,90.45L433.68,90.3L431.15,85.07L431.06,84.92L425.4,77.75L425.26,77.6L412.54,63.42L412.47,63.27L411.24,59.38L411.22,59.23L411.67,55.5L411.72,55.35L413.78,51.47L413.88,51.32L419.19,45.34L419.34,45.19L428.32,35.79L428.44,35.64L432.41,29.51L432.48,29.36L434.44,24.14L434.48,23.99L435.6,16.97L435.61,16.82L435.73,13.68" style="vector-effect: non-scaling-stroke; fill: none; stroke: rgb(59, 2, 128); stroke-opacity: 1; stroke-width: 1px; opacity: 1;"/></g><g class="points"/><g class="text"/></g><g class="trace scatter trace690127" style="stroke-miterlimit: 2;"><g class="fills"/><g class="errorbars"/><g class="lines"><path class="js-line" d="M436.25,258.32L436.25,13.68" style="vector-effect: non-scaling-stroke; fill: none; stroke: rgb(0, 0, 0); stroke-opacity: 0; stroke-width: 1px; opacity: 1;"/></g><g class="points"/><g class="text"/></g><g class="trace scatter trace1c643d" style="stroke-miterlimit: 2; opacity: 1;"><g class="fills"/><g class="errorbars"/><g class="lines"><path class="js-line" d="M436.25,212.32L414.12,212.32" style="vector-effect: non-scaling-stroke; fill: none; stroke: rgb(59, 2, 128); stroke-opacity: 1; stroke-width: 1px; opacity: 1; stroke-dasharray: 3px, 3px;"/></g><g class="points"/><g class="text"/></g><g class="trace scatter tracedefab0" style="stroke-miterlimit: 2; opacity: 1;"><g class="fills"/><g class="errorbars"/><g class="lines"><path class="js-line" d="M436.25,82.08L429.1,82.08" style="vector-effect: non-scaling-stroke; fill: none; stroke: rgb(59, 2, 128); stroke-opacity: 1; stroke-width: 1px; opacity: 1; stroke-dasharray: 3px, 3px;"/></g><g class="points"/><g class="text"/></g><g class="trace scatter trace5cc3ed" style="stroke-miterlimit: 2; opacity: 1;"><g class="fills"/><g class="errorbars"/><g class="lines"><path class="js-line" d="M436.25,57.44L411.24,57.44" style="vector-effect: non-scaling-stroke; fill: none; stroke: rgb(59, 2, 128); stroke-opacity: 1; stroke-width: 1px; opacity: 1; stroke-dasharray: 3px, 3px;"/></g><g class="points"/><g class="text"/></g><g class="trace scatter tracef63ce2" style="stroke-miterlimit: 2;"><g class="fills"><g><path class="js-fill" d="M462.05,258.33L462.05,13.67L461.53,13.67L461.23,18.9L461.21,19.05L459.81,25.62L459.76,25.77L456.83,32.04L456.73,32.19L442.79,47.73L442.65,47.88L438.94,52.66L438.85,52.81L437.41,56.24L437.37,56.39L437.27,59.97L437.3,60.12L438.99,64.31L439.08,64.46L443.72,70.13L443.86,70.28L452.48,79.09L452.61,79.24L456.88,84.92L456.97,85.07L459.49,90.3L459.55,90.44L461.28,97.76L461.3,97.91L462.05,153.77L462.05,153.92L461.81,168.71L461.8,168.86L460.98,176.78L460.95,176.93L459.23,183.2L459.17,183.35L455.98,189.47L455.88,189.62L449.79,197.24L449.66,197.39L443.38,204.71L443.27,204.86L440.62,209.49L440.56,209.64L439.82,213.52L439.82,213.67L440.67,217.7L440.73,217.85L454.61,235.62L454.72,235.77L458.59,242.35L458.66,242.5L460.77,249.37L460.79,249.52L461.53,258.33Z" style="fill: rgb(59, 2, 128); fill-opacity: 0.2; stroke-width: 0;"/></g></g><g class="errorbars"/><g class="lines"><path class="js-line" d="M461.53,258.33L460.79,249.52L460.77,249.37L458.66,242.5L458.59,242.35L454.72,235.77L454.61,235.62L440.73,217.85L440.67,217.7L439.82,213.67L439.82,213.52L440.56,209.64L440.62,209.49L443.27,204.86L443.38,204.71L449.66,197.39L449.79,197.24L455.88,189.62L455.98,189.47L459.17,183.35L459.23,183.2L460.95,176.93L460.98,176.78L461.8,168.86L461.81,168.71L462.05,153.92L462.05,153.77L461.3,97.91L461.28,97.76L459.55,90.44L459.49,90.3L456.97,85.07L456.88,84.92L452.61,79.24L452.48,79.09L443.86,70.28L443.72,70.13L439.08,64.46L438.99,64.31L437.3,60.12L437.27,59.97L437.37,56.39L437.41,56.24L438.85,52.81L438.94,52.66L442.65,47.88L442.79,47.73L456.73,32.19L456.83,32.04L459.76,25.77L459.81,25.62L461.21,19.05L461.23,18.9L461.53,13.67" style="vector-effect: non-scaling-stroke; fill: none; stroke: rgb(59, 2, 128); stroke-opacity: 1; stroke-width: 1px; opacity: 1;"/></g><g class="points"/><g class="text"/></g><g class="trace scatter tracea76ae3" style="stroke-miterlimit: 2;"><g class="fills"/><g class="errorbars"/><g class="lines"><path class="js-line" d="M462.05,258.33L462.05,13.67" style="vector-effect: non-scaling-stroke; fill: none; stroke: rgb(0, 0, 0); stroke-opacity: 0; stroke-width: 1px; opacity: 1;"/></g><g class="points"/><g class="text"/></g><g class="trace scatter trace810f93" style="stroke-miterlimit: 2; opacity: 1;"><g class="fills"/><g class="errorbars"/><g class="lines"><path class="js-line" d="M462.05,212.47L439.87,212.47" style="vector-effect: non-scaling-stroke; fill: none; stroke: rgb(59, 2, 128); stroke-opacity: 1; stroke-width: 1px; opacity: 1; stroke-dasharray: 3px, 3px;"/></g><g class="points"/><g class="text"/></g><g class="trace scatter trace57fcac" style="stroke-miterlimit: 2; opacity: 1;"><g class="fills"/><g class="errorbars"/><g class="lines"><path class="js-line" d="M462.05,82.53L455.27,82.53" style="vector-effect: non-scaling-stroke; fill: none; stroke: rgb(59, 2, 128); stroke-opacity: 1; stroke-width: 1px; opacity: 1; stroke-dasharray: 3px, 3px;"/></g><g class="points"/><g class="text"/></g><g class="trace scatter trace54c90b" style="stroke-miterlimit: 2; opacity: 1;"><g class="fills"/><g class="errorbars"/><g class="lines"><path class="js-line" d="M462.05,57.44L437.19,57.44" style="vector-effect: non-scaling-stroke; fill: none; stroke: rgb(59, 2, 128); stroke-opacity: 1; stroke-width: 1px; opacity: 1; stroke-dasharray: 3px, 3px;"/></g><g class="points"/><g class="text"/></g><g class="trace scatter tracefdb459" style="stroke-miterlimit: 2;"><g class="fills"><g><path class="js-fill" d="M487.79,258.37L487.79,13.63L487.25,13.63L487.25,14.08L487.25,14.23L486.68,20.81L486.66,20.96L485.12,26.78L485.06,26.93L481.67,33.36L481.57,33.51L469.61,46.5L469.47,46.65L465.5,51.29L465.39,51.43L463.33,55.32L463.28,55.47L462.84,59.35L462.86,59.5L464.13,63.39L464.21,63.54L476.78,77.58L476.92,77.73L481.7,83.56L481.8,83.71L485.26,90.43L485.31,90.58L487.02,97.9L487.04,98.05L487.78,153.48L487.78,153.63L487.54,168.42L487.54,168.57L486.6,177.09L486.58,177.24L485.01,182.76L484.95,182.91L482.04,188.59L481.95,188.74L472.08,200.4L471.95,200.54L466.99,206.67L466.9,206.82L465.05,210.85L465.01,211L464.74,214.59L464.75,214.74L466.46,219.52L466.55,219.67L474.2,228.93L474.34,229.08L480.4,236.1L480.51,236.25L484.33,242.68L484.39,242.83L486.48,249.55L486.51,249.7L487.25,258.37Z" style="fill: rgb(59, 2, 128); fill-opacity: 0.2; stroke-width: 0;"/></g></g><g class="errorbars"/><g class="lines"><path class="js-line" d="M487.25,258.37L486.51,249.7L486.48,249.55L484.39,242.83L484.33,242.68L480.51,236.25L480.4,236.1L474.34,229.08L474.2,228.93L466.55,219.67L466.46,219.52L464.75,214.74L464.74,214.59L465.01,211L465.05,210.85L466.9,206.82L466.99,206.67L471.95,200.54L472.08,200.4L481.95,188.74L482.04,188.59L484.95,182.91L485.01,182.76L486.58,177.24L486.6,177.09L487.54,168.57L487.54,168.42L487.78,153.63L487.78,153.48L487.04,98.05L487.02,97.9L485.31,90.58L485.26,90.43L481.8,83.71L481.7,83.56L476.92,77.73L476.78,77.58L464.21,63.54L464.13,63.39L462.86,59.5L462.84,59.35L463.28,55.47L463.33,55.32L465.39,51.43L465.5,51.29L469.47,46.65L469.61,46.5L481.57,33.51L481.67,33.36L485.06,26.93L485.12,26.78L486.66,20.96L486.68,20.81L487.25,14.23L487.25,14.08L487.25,13.63" style="vector-effect: non-scaling-stroke; fill: none; stroke: rgb(59, 2, 128); stroke-opacity: 1; stroke-width: 1px; opacity: 1;"/></g><g class="points"/><g class="text"/></g><g class="trace scatter trace02d386" style="stroke-miterlimit: 2;"><g class="fills"/><g class="errorbars"/><g class="lines"><path class="js-line" d="M487.79,258.37L487.79,13.63" style="vector-effect: non-scaling-stroke; fill: none; stroke: rgb(0, 0, 0); stroke-opacity: 0; stroke-width: 1px; opacity: 1;"/></g><g class="points"/><g class="text"/></g><g class="trace scatter trace5962a8" style="stroke-miterlimit: 2; opacity: 1;"><g class="fills"/><g class="errorbars"/><g class="lines"><path class="js-line" d="M487.79,212.8L464.71,212.8" style="vector-effect: non-scaling-stroke; fill: none; stroke: rgb(59, 2, 128); stroke-opacity: 1; stroke-width: 1px; opacity: 1; stroke-dasharray: 3px, 3px;"/></g><g class="points"/><g class="text"/></g><g class="trace scatter trace1dbe29" style="stroke-miterlimit: 2; opacity: 1;"><g class="fills"/><g class="errorbars"/><g class="lines"><path class="js-line" d="M487.79,85.05L482.67,85.05" style="vector-effect: non-scaling-stroke; fill: none; stroke: rgb(59, 2, 128); stroke-opacity: 1; stroke-width: 1px; opacity: 1; stroke-dasharray: 3px, 3px;"/></g><g class="points"/><g class="text"/></g><g class="trace scatter trace6ad9ee" style="stroke-miterlimit: 2; opacity: 1;"><g class="fills"/><g class="errorbars"/><g class="lines"><path class="js-line" d="M487.79,57.71L462.82,57.71" style="vector-effect: non-scaling-stroke; fill: none; stroke: rgb(59, 2, 128); stroke-opacity: 1; stroke-width: 1px; opacity: 1; stroke-dasharray: 3px, 3px;"/></g><g class="points"/><g class="text"/></g><g class="trace scatter trace0fadfd" style="stroke-miterlimit: 2;"><g class="fills"><g><path class="js-fill" d="M514.06,258.22L514.06,13.78L513.53,13.78L513.53,13.93L513.52,14.08L512.96,20.64L512.94,20.79L510.98,27.66L510.91,27.81L507.13,34.22L507.02,34.37L497.44,44.37L497.29,44.52L491.32,50.79L491.2,50.94L488.64,55.41L488.59,55.56L488.14,59.14L488.16,59.29L489.72,63.77L489.81,63.92L501.87,76.75L502.02,76.9L508.05,83.92L508.15,84.07L511.55,90.63L511.6,90.78L513.29,97.95L513.31,98.09L513.97,164.21L513.96,164.35L513.3,174.95L513.28,175.1L511.71,182.11L511.66,182.26L508.92,188.23L508.84,188.38L503.07,196.14L502.94,196.29L495.25,205.54L495.15,205.69L492.89,210.17L492.85,210.32L492.37,214.2L492.38,214.35L493.82,219.12L493.9,219.27L499.27,226.59L499.4,226.73L506.55,235.24L506.65,235.39L510.6,242.11L510.66,242.25L512.77,249.12L512.79,249.27L513.53,258.22Z" style="fill: rgb(59, 2, 128); fill-opacity: 0.2; stroke-width: 0;"/></g></g><g class="errorbars"/><g class="lines"><path class="js-line" d="M513.53,258.22L512.79,249.27L512.77,249.12L510.66,242.25L510.6,242.11L506.65,235.39L506.55,235.24L499.4,226.73L499.27,226.59L493.9,219.27L493.82,219.12L492.38,214.35L492.37,214.2L492.85,210.32L492.89,210.17L495.15,205.69L495.25,205.54L502.94,196.29L503.07,196.14L508.84,188.38L508.92,188.23L511.66,182.26L511.71,182.11L513.28,175.1L513.3,174.95L513.96,164.35L513.97,164.21L513.31,98.09L513.29,97.95L511.6,90.78L511.55,90.63L508.15,84.07L508.05,83.92L502.02,76.9L501.87,76.75L489.81,63.92L489.72,63.77L488.16,59.29L488.14,59.14L488.59,55.56L488.64,55.41L491.2,50.94L491.32,50.79L497.29,44.52L497.44,44.37L507.02,34.37L507.13,34.22L510.91,27.81L510.98,27.66L512.94,20.79L512.96,20.64L513.52,14.08L513.53,13.93L513.53,13.78" style="vector-effect: non-scaling-stroke; fill: none; stroke: rgb(59, 2, 128); stroke-opacity: 1; stroke-width: 1px; opacity: 1;"/></g><g class="points"/><g class="text"/></g><g class="trace scatter trace43add8" style="stroke-miterlimit: 2;"><g class="fills"/><g class="errorbars"/><g class="lines"><path class="js-line" d="M514.06,258.22L514.06,13.78" style="vector-effect: non-scaling-stroke; fill: none; stroke: rgb(0, 0, 0); stroke-opacity: 0; stroke-width: 1px; opacity: 1;"/></g><g class="points"/><g class="text"/></g><g class="trace scatter trace20e49b" style="stroke-miterlimit: 2; opacity: 1;"><g class="fills"/><g class="errorbars"/><g class="lines"><path class="js-line" d="M514.06,211.66L492.52,211.66" style="vector-effect: non-scaling-stroke; fill: none; stroke: rgb(59, 2, 128); stroke-opacity: 1; stroke-width: 1px; opacity: 1; stroke-dasharray: 3px, 3px;"/></g><g class="points"/><g class="text"/></g><g class="trace scatter trace2d6b35" style="stroke-miterlimit: 2; opacity: 1;"><g class="fills"/><g class="errorbars"/><g class="lines"><path class="js-line" d="M514.06,79.29L504.32,79.29" style="vector-effect: non-scaling-stroke; fill: none; stroke: rgb(59, 2, 128); stroke-opacity: 1; stroke-width: 1px; opacity: 1; stroke-dasharray: 3px, 3px;"/></g><g class="points"/><g class="text"/></g><g class="trace scatter tracef07c3b" style="stroke-miterlimit: 2; opacity: 1;"><g class="fills"/><g class="errorbars"/><g class="lines"><path class="js-line" d="M514.06,56.91L488.25,56.91" style="vector-effect: non-scaling-stroke; fill: none; stroke: rgb(59, 2, 128); stroke-opacity: 1; stroke-width: 1px; opacity: 1; stroke-dasharray: 3px, 3px;"/></g><g class="points"/><g class="text"/></g><g class="trace scatter trace462e69" style="stroke-miterlimit: 2;"><g class="fills"><g><path class="js-fill" d="M0,0Z" style="stroke-width: 0; fill: rgb(0, 200, 229); fill-opacity: 0.2;"/></g></g><g class="errorbars"/><g class="lines"/><g class="points"/><g class="text"/></g><g class="trace scatter traced86b26" style="stroke-miterlimit: 2;"><g class="fills"/><g class="errorbars"/><g class="lines"/><g class="points"/><g class="text"/></g><g class="trace scatter trace31f5f6" style="stroke-miterlimit: 2;"><g class="fills"><g><path class="js-fill" d="M0,0Z" style="stroke-width: 0; fill: rgb(59, 2, 128); fill-opacity: 0.2;"/></g></g><g class="errorbars"/><g class="lines"/><g class="points"/><g class="text"/></g><g class="trace scatter traceefc774" style="stroke-miterlimit: 2;"><g class="fills"/><g class="errorbars"/><g class="lines"/><g class="points"/><g class="text"/></g><g class="trace scatter trace49afa8" style="stroke-miterlimit: 2;"><g class="fills"><g><path class="js-fill" d="M0,0Z" style="stroke-width: 0; fill: rgb(221, 64, 64); fill-opacity: 0.2;"/></g></g><g class="errorbars"/><g class="lines"/><g class="points"/><g class="text"/></g><g class="trace scatter trace9b5ebb" style="stroke-miterlimit: 2;"><g class="fills"/><g class="errorbars"/><g class="lines"/><g class="points"/><g class="text"/></g><g class="trace scatter trace0cdfee" style="stroke-miterlimit: 2; opacity: 1;"><g class="fills"/><g class="errorbars"/><g class="lines"/><g class="points"/><g class="text"/></g></g></g><g class="overplot"/><path class="xlines-above crisp" d="M79,372.5H621M79,99.5H621" style="fill: none; stroke-width: 1px; stroke: rgb(102, 102, 102); stroke-opacity: 1;"/><path class="ylines-above crisp" d="M79.5,100V372M620.5,100V372" style="fill: none; stroke-width: 1px; stroke: rgb(102, 102, 102); stroke-opacity: 1;"/><g class="overlines-above"/><g class="xaxislayer-above"><g class="xtick"><text text-anchor="middle" x="0" y="387.4" transform="translate(154.11,0)" style="font-family: 'Open Sans', verdana, arial, sans-serif; font-size: 12px; fill: rgb(42, 63, 95); fill-opacity: 1; white-space: pre; opacity: 1;">2015</text></g><g class="xtick"><text text-anchor="middle" x="0" y="387.4" style="font-family: 'Open Sans', verdana, arial, sans-serif; font-size: 12px; fill: rgb(42, 63, 95); fill-opacity: 1; white-space: pre; opacity: 1;" transform="translate(231.68,0)">2016</text></g><g class="xtick"><text text-anchor="middle" x="0" y="387.4" style="font-family: 'Open Sans', verdana, arial, sans-serif; font-size: 12px; fill: rgb(42, 63, 95); fill-opacity: 1; white-space: pre; opacity: 1;" transform="translate(309.46000000000004,0)">2017</text></g><g class="xtick"><text text-anchor="middle" x="0" y="387.4" style="font-family: 'Open Sans', verdana, arial, sans-serif; font-size: 12px; fill: rgb(42, 63, 95); fill-opacity: 1; white-space: pre; opacity: 1;" transform="translate(387.04,0)">2018</text></g><g class="xtick"><text text-anchor="middle" x="0" y="387.4" style="font-family: 'Open Sans', verdana, arial, sans-serif; font-size: 12px; fill: rgb(42, 63, 95); fill-opacity: 1; white-space: pre; opacity: 1;" transform="translate(464.61,0)">2019</text></g><g class="xtick"><text text-anchor="middle" x="0" y="387.4" style="font-family: 'Open Sans', verdana, arial, sans-serif; font-size: 12px; fill: rgb(42, 63, 95); fill-opacity: 1; white-space: pre; opacity: 1;" transform="translate(542.1800000000001,0)">2020</text></g><g class="xtick"><text text-anchor="middle" x="0" y="387.4" style="font-family: 'Open Sans', verdana, arial, sans-serif; font-size: 12px; fill: rgb(42, 63, 95); fill-opacity: 1; white-space: pre; opacity: 1;" transform="translate(619.96,0)">2021</text></g></g><g class="yaxislayer-above"><g class="ytick"><text text-anchor="end" x="76.6" y="4.199999999999999" transform="translate(0,313.53)" style="font-family: 'Open Sans', verdana, arial, sans-serif; font-size: 12px; fill: rgb(42, 63, 95); fill-opacity: 1; white-space: pre; opacity: 1;">0</text></g><g class="ytick"><text text-anchor="end" x="76.6" y="4.199999999999999" style="font-family: 'Open Sans', verdana, arial, sans-serif; font-size: 12px; fill: rgb(42, 63, 95); fill-opacity: 1; white-space: pre; opacity: 1;" transform="translate(0,235.99)">0.5</text></g><g class="ytick"><text text-anchor="end" x="76.6" y="4.199999999999999" style="font-family: 'Open Sans', verdana, arial, sans-serif; font-size: 12px; fill: rgb(42, 63, 95); fill-opacity: 1; white-space: pre; opacity: 1;" transform="translate(0,158.44)">1</text></g></g><g class="overaxes-above"/></g></g><g class="polarlayer"/><g class="smithlayer"/><g class="ternarylayer"/><g class="geolayer"/><g class="funnelarealayer"/><g class="pielayer"/><g class="iciclelayer"/><g class="treemaplayer"/><g class="sunburstlayer"/><g class="glimages"/><defs id="topdefs-a62e3d"><g class="clips"/><clipPath id="legenda62e3d"><rect width="517" height="48" x="0" y="0"/></clipPath></defs><g class="layer-above"><g class="imagelayer"/><g class="shapelayer"/></g><g class="infolayer"><g class="legend" pointer-events="all" transform="translate(80,440)"><rect class="bg" shape-rendering="crispEdges" width="517" height="48" x="0" y="0" style="stroke: rgb(68, 68, 68); stroke-opacity: 1; fill: rgb(255, 255, 255); fill-opacity: 1; stroke-width: 0px;"/><g class="scrollbox" transform="" clip-path="url(#legenda62e3d)"><g class="groups"><g class="traces" transform="translate(0,14.5)" style="opacity: 1;"><text class="legendtext" text-anchor="start" x="40" y="4.680000000000001" style="font-family: 'Open Sans', verdana, arial, sans-serif; font-size: 12px; fill: rgb(42, 63, 95); fill-opacity: 1; white-space: pre;">Reference period</text><g class="layers"><g class="legendfill"><path class="js-fill" d="M5,-2h30v6h-30z" style="stroke-width: 0; fill: rgb(0, 200, 229); fill-opacity: 0.2;"/></g><g class="legendlines"><path class="js-line" d="M5,-2h30" style="fill: none; stroke: rgb(0, 200, 229); stroke-opacity: 1; stroke-width: 1px;"/></g><g class="legendsymbols"><g class="legendpoints"/></g></g><rect class="legendtoggle" x="0" y="-9.5" width="144.640625" height="19" style="fill: rgb(0, 0, 0); fill-opacity: 0;"/></g><g class="traces" transform="translate(172.109375,14.5)" style="opacity: 1;"><text class="legendtext" text-anchor="start" x="40" y="4.680000000000001" style="font-family: 'Open Sans', verdana, arial, sans-serif; font-size: 12px; fill: rgb(42, 63, 95); fill-opacity: 1; white-space: pre;">Analysis period</text><g class="layers"><g class="legendfill"><path class="js-fill" d="M5,-2h30v6h-30z" style="stroke-width: 0; fill: rgb(59, 2, 128); fill-opacity: 0.2;"/></g><g class="legendlines"><path class="js-line" d="M5,-2h30" style="fill: none; stroke: rgb(59, 2, 128); stroke-opacity: 1; stroke-width: 1px;"/></g><g class="legendsymbols"><g class="legendpoints"/></g></g><rect class="legendtoggle" x="0" y="-9.5" width="133.71875" height="19" style="fill: rgb(0, 0, 0); fill-opacity: 0;"/></g><g class="traces" transform="translate(344.21875,14.5)" style="opacity: 1;"><text class="legendtext" text-anchor="start" x="40" y="4.680000000000001" style="font-family: 'Open Sans', verdana, arial, sans-serif; font-size: 12px; fill: rgb(42, 63, 95); fill-opacity: 1; white-space: pre;">Period with data drift</text><g class="layers"><g class="legendfill"><path class="js-fill" d="M5,-2h30v6h-30z" style="stroke-width: 0; fill: rgb(221, 64, 64); fill-opacity: 0.2;"/></g><g class="legendlines"><path class="js-line" d="M5,-2h30" style="fill: none; stroke: rgb(0, 0, 0); stroke-opacity: 0; stroke-width: 1px;"/></g><g class="legendsymbols"><g class="legendpoints"/></g></g><rect class="legendtoggle" x="0" y="-9.5" width="169.609375" height="19" style="fill: rgb(0, 0, 0); fill-opacity: 0;"/></g><g class="traces" transform="translate(0,33.5)" style="opacity: 1;"><text class="legendtext" text-anchor="start" x="40" y="4.680000000000001" style="font-family: 'Open Sans', verdana, arial, sans-serif; font-size: 12px; fill: rgb(42, 63, 95); fill-opacity: 1; white-space: pre;">Quartiles</text><g class="layers" style="opacity: 1;"><g class="legendfill"/><g class="legendlines"><path class="js-line" d="M5,0h30" style="fill: none; stroke: rgb(102, 102, 102); stroke-opacity: 1; stroke-dasharray: 3px, 3px; stroke-width: 1px;"/></g><g class="legendsymbols"><g class="legendpoints"/></g></g><rect class="legendtoggle" x="0" y="-9.5" width="96.59375" height="19" style="fill: rgb(0, 0, 0); fill-opacity: 0;"/></g></g></g><rect class="scrollbar" rx="20" ry="3" width="0" height="0" x="0" y="0" style="fill: rgb(128, 139, 164); fill-opacity: 1;"/></g><g class="g-gtitle"><text class="gtitle" x="35" y="50" text-anchor="start" dy="0em" style="font-family: 'Open Sans', verdana, arial, sans-serif; font-size: 17px; fill: rgb(42, 63, 95); opacity: 1; font-weight: normal; white-space: pre;">Distribution over time for y_pred</text></g><g class="g-xtitle"><text class="xtitle" x="350" y="414.70625" text-anchor="middle" style="font-family: 'Open Sans', verdana, arial, sans-serif; font-size: 14px; fill: rgb(42, 63, 95); opacity: 1; font-weight: normal; white-space: pre;">Time</text></g><g class="g-ytitle"><text class="ytitle" transform="rotate(-90,32.16875,236)" x="32.16875" y="236" text-anchor="middle" style="font-family: 'Open Sans', verdana, arial, sans-serif; font-size: 14px; fill: rgb(42, 63, 95); opacity: 1; font-weight: normal; white-space: pre;">y_pred</text></g></g></svg>