<svg class="main-svg" xmlns="http://www.w3.org/2000/svg" xmlns:xlink="http://www.w3.org/1999/xlink" width="700" height="500" style="" viewBox="0 0 700 500"><rect x="0" y="0" width="700" height="500" style="fill: rgb(255, 255, 255); fill-opacity: 1;"/><defs id="defs-1af171"><g class="clips"><clipPath id="clip1af171xyplot" class="plotclip"><rect width="521" height="272"/></clipPath><clipPath class="axesclip" id="clip1af171x"><rect x="99" y="0" width="521" height="500"/></clipPath><clipPath class="axesclip" id="clip1af171y"><rect x="0" y="100" width="700" height="272"/></clipPath><clipPath class="axesclip" id="clip1af171xy"><rect x="99" y="100" width="521" height="272"/></clipPath></g><g class="gradients"/><g class="patterns"/></defs><g class="bglayer"/><g class="layer-below"><g class="imagelayer"/><g class="shapelayer"/></g><g class="cartesianlayer"><g class="subplot xy"><g class="layer-subplot"><g class="shapelayer"/><g class="imagelayer"/></g><g class="gridlayer"><g class="x"/><g class="y"/></g><g class="zerolinelayer"/><path class="xlines-below"/><path class="ylines-below"/><g class="overlines-below"/><g class="xaxislayer-below"/><g class="yaxislayer-below"/><g class="overaxes-below"/><g class="plot" transform="translate(99,100)" clip-path="url(#clip1af171xyplot)"><g class="scatterlayer mlayer"><g class="trace scatter trace5d735a" style="stroke-miterlimit: 2;"><g class="fills"><g><path class="js-fill" d="M146.18,29.55L502.33,29.55L502.33,29.55L422.26,29.47L421.91,29.46L414.6,28.18L414.25,28.11L411.12,28.75L410.77,28.91L182.74,29.55L182.39,29.55L175.43,29.28L175.08,29.23L171.25,27.8L170.9,27.57L164.29,18.37L163.94,17.92L159.76,15.52L159.41,15.23L157.67,13.6L157.32,13.63L153.5,25.27L153.15,26.24L151.75,28.58L151.41,28.87L146.18,29.55Z" style="fill: rgb(221, 64, 64); fill-opacity: 0.2; stroke-width: 0;"/></g></g><g class="errorbars"/><g class="lines"><path class="js-line" d="M146.18,29.55L151.41,28.87L151.75,28.58L153.15,26.24L153.5,25.27L157.32,13.63L157.67,13.6L159.41,15.23L159.76,15.52L163.94,17.92L164.29,18.37L170.9,27.57L171.25,27.8L175.08,29.23L175.43,29.28L182.39,29.55L182.74,29.55L410.77,28.91L411.12,28.75L414.25,28.11L414.6,28.18L421.91,29.46L422.26,29.47L502.33,29.55" style="vector-effect: non-scaling-stroke; fill: none; stroke: rgb(59, 2, 128); stroke-opacity: 1; stroke-width: 1px; opacity: 1;"/></g><g class="points"/><g class="text"/></g><g class="trace scatter trace98406d" style="stroke-miterlimit: 2;"><g class="fills"/><g class="errorbars"/><g class="lines"><path class="js-line" d="M146.18,29.55L502.33,29.55" style="vector-effect: non-scaling-stroke; fill: none; stroke: rgb(0, 0, 0); stroke-opacity: 0; stroke-width: 1px; opacity: 1;"/></g><g class="points"/><g class="text"/></g><g class="trace scatter trace563722" style="stroke-miterlimit: 2; opacity: 1;"><g class="fills"/><g class="errorbars"/><g class="lines"><path class="js-line" d="M157.67,29.55L157.67,13.6" style="vector-effect: non-scaling-stroke; fill: none; stroke: rgb(221, 64, 64); stroke-opacity: 1; stroke-width: 1px; opacity: 1; stroke-dasharray: 3px, 3px;"/></g><g class="points"/><g class="text"/></g><g class="trace scatter tracec677bd" style="stroke-miterlimit: 2; opacity: 1;"><g class="fills"/><g class="errorbars"/><g class="lines"><path class="js-line" d="M161.15,29.55L161.15,15.92" style="vector-effect: non-scaling-stroke; fill: none; stroke: rgb(221, 64, 64); stroke-opacity: 1; stroke-width: 1px; opacity: 1; stroke-dasharray: 3px, 3px;"/></g><g class="points"/><g class="text"/></g><g class="trace scatter trace24f01d" style="stroke-miterlimit: 2; opacity: 1;"><g class="fills"/><g class="errorbars"/><g class="lines"><path class="js-line" d="M164.98,29.55L164.98,19.37" style="vector-effect: non-scaling-stroke; fill: none; stroke: rgb(221, 64, 64); stroke-opacity: 1; stroke-width: 1px; opacity: 1; stroke-dasharray: 3px, 3px;"/></g><g class="points"/><g class="text"/></g><g class="trace scatter trace9dae2f" style="stroke-miterlimit: 2;"><g class="fills"><g><path class="js-fill" d="M134.09,49.57L387.4,49.57L387.4,49.57L380.96,49.44L380.71,49.42L373.78,48.22L373.53,48.15L369.07,46.28L368.83,46.13L363.13,41.84L362.88,41.69L360.41,40.99L360.16,41.01L354.22,44.56L353.97,44.72L351,45.95L350.75,45.97L345.8,44.3L345.55,44.19L343.07,43.66L342.83,43.69L338.62,46.24L338.37,46.44L334.66,48.74L334.41,48.83L174.95,49.53L174.7,49.53L163.81,48.91L163.56,48.88L155.88,48.79L155.63,48.82L134.09,49.57Z" style="fill: rgb(221, 64, 64); fill-opacity: 0.2; stroke-width: 0;"/></g></g><g class="errorbars"/><g class="lines"><path class="js-line" d="M134.09,49.57L155.63,48.82L155.88,48.79L163.56,48.88L163.81,48.91L174.7,49.53L174.95,49.53L334.41,48.83L334.66,48.74L338.37,46.44L338.62,46.24L342.83,43.69L343.07,43.66L345.55,44.19L345.8,44.3L350.75,45.97L351,45.95L353.97,44.72L354.22,44.56L360.16,41.01L360.41,40.99L362.88,41.69L363.13,41.84L368.83,46.13L369.07,46.28L373.53,48.15L373.78,48.22L380.71,49.42L380.96,49.44L387.4,49.57" style="vector-effect: non-scaling-stroke; fill: none; stroke: rgb(59, 2, 128); stroke-opacity: 1; stroke-width: 1px; opacity: 1;"/></g><g class="points"/><g class="text"/></g><g class="trace scatter trace0e64d6" style="stroke-miterlimit: 2;"><g class="fills"/><g class="errorbars"/><g class="lines"><path class="js-line" d="M134.09,49.57L387.4,49.57" style="vector-effect: non-scaling-stroke; fill: none; stroke: rgb(0, 0, 0); stroke-opacity: 0; stroke-width: 1px; opacity: 1;"/></g><g class="points"/><g class="text"/></g><g class="trace scatter trace71634c" style="stroke-miterlimit: 2; opacity: 1;"><g class="fills"/><g class="errorbars"/><g class="lines"><path class="js-line" d="M344.31,49.57L344.31,43.75" style="vector-effect: non-scaling-stroke; fill: none; stroke: rgb(221, 64, 64); stroke-opacity: 1; stroke-width: 1px; opacity: 1; stroke-dasharray: 3px, 3px;"/></g><g class="points"/><g class="text"/></g><g class="trace scatter trace6a2f7c" style="stroke-miterlimit: 2; opacity: 1;"><g class="fills"/><g class="errorbars"/><g class="lines"><path class="js-line" d="M355.95,49.57L355.95,43.27" style="vector-effect: non-scaling-stroke; fill: none; stroke: rgb(221, 64, 64); stroke-opacity: 1; stroke-width: 1px; opacity: 1; stroke-dasharray: 3px, 3px;"/></g><g class="points"/><g class="text"/></g><g class="trace scatter trace289f6d" style="stroke-miterlimit: 2; opacity: 1;"><g class="fills"/><g class="errorbars"/><g class="lines"><path class="js-line" d="M362.64,49.57L362.64,41.56" style="vector-effect: non-scaling-stroke; fill: none; stroke: rgb(221, 64, 64); stroke-opacity: 1; stroke-width: 1px; opacity: 1; stroke-dasharray: 3px, 3px;"/></g><g class="points"/><g class="text"/></g><g class="trace scatter traceb586a2" style="stroke-miterlimit: 2;"><g class="fills"><g><path class="js-fill" d="M348.53,70.25L510.56,70.25L510.56,70.25L425.98,70.17L425.82,70.17L416.64,70L416.48,70.01L410.14,69.95L409.99,69.93L395.73,70.07L395.57,70.07L386.55,69.93L386.39,69.94L383.06,69.46L382.9,69.4L380.53,69.17L380.37,69.21L377.68,69.6L377.52,69.58L375.62,68.58L375.46,68.4L370.87,55.46L370.71,54.96L369.28,51.24L369.12,51.03L368.96,50.9L366.27,56.28L366.11,56.55L363.9,56.22L363.74,56.25L361.84,61.38L361.68,62.03L359.94,67.5L359.78,67.79L358.04,69.47L357.88,69.54L348.53,70.25Z" style="fill: rgb(221, 64, 64); fill-opacity: 0.2; stroke-width: 0;"/></g></g><g class="errorbars"/><g class="lines"><path class="js-line" d="M348.53,70.25L357.88,69.54L358.04,69.47L359.78,67.79L359.94,67.5L361.68,62.03L361.84,61.38L363.74,56.25L363.9,56.22L366.11,56.55L366.27,56.28L368.96,50.9L369.12,51.03L369.28,51.24L370.71,54.96L370.87,55.46L375.46,68.4L375.62,68.58L377.52,69.58L377.68,69.6L380.37,69.21L380.53,69.17L382.9,69.4L383.06,69.46L386.39,69.94L386.55,69.93L395.57,70.07L395.73,70.07L409.99,69.93L410.14,69.95L416.48,70.01L416.64,70L425.82,70.17L425.98,70.17L510.56,70.25" style="vector-effect: non-scaling-stroke; fill: none; stroke: rgb(59, 2, 128); stroke-opacity: 1; stroke-width: 1px; opacity: 1;"/></g><g class="points"/><g class="text"/></g><g class="trace scatter trace42a84c" style="stroke-miterlimit: 2;"><g class="fills"/><g class="errorbars"/><g class="lines"><path class="js-line" d="M348.53,70.25L510.56,70.25" style="vector-effect: non-scaling-stroke; fill: none; stroke: rgb(0, 0, 0); stroke-opacity: 0; stroke-width: 1px; opacity: 1;"/></g><g class="points"/><g class="text"/></g><g class="trace scatter trace197c0c" style="stroke-miterlimit: 2; opacity: 1;"><g class="fills"/><g class="errorbars"/><g class="lines"><path class="js-line" d="M364.85,70.25L364.85,56.8" style="vector-effect: non-scaling-stroke; fill: none; stroke: rgb(221, 64, 64); stroke-opacity: 1; stroke-width: 1px; opacity: 1; stroke-dasharray: 3px, 3px;"/></g><g class="points"/><g class="text"/></g><g class="trace scatter trace268b23" style="stroke-miterlimit: 2; opacity: 1;"><g class="fills"/><g class="errorbars"/><g class="lines"><path class="js-line" d="M368.17,70.25L368.17,51.35" style="vector-effect: non-scaling-stroke; fill: none; stroke: rgb(221, 64, 64); stroke-opacity: 1; stroke-width: 1px; opacity: 1; stroke-dasharray: 3px, 3px;"/></g><g class="points"/><g class="text"/></g><g class="trace scatter trace904202" style="stroke-miterlimit: 2; opacity: 1;"><g class="fills"/><g class="errorbars"/><g class="lines"><path class="js-line" d="M371.18,70.25L371.18,56.46" style="vector-effect: non-scaling-stroke; fill: none; stroke: rgb(221, 64, 64); stroke-opacity: 1; stroke-width: 1px; opacity: 1; stroke-dasharray: 3px, 3px;"/></g><g class="points"/><g class="text"/></g><g class="trace scatter trace621ac5" style="stroke-miterlimit: 2;"><g class="fills"><g><path class="js-fill" d="M352.8,90.93L387.08,90.93L387.08,90.92L382.69,90.16L382.66,90.15L378.03,83.8L378,83.75L372.87,72.63L372.84,72.55L371.87,70.97L371.83,70.95L371.73,70.92L370.19,74.58L370.16,74.73L368.22,83.78L368.18,83.87L364.53,87.59L364.5,87.62L362.75,87.16L362.72,87.13L359.5,86.92L359.47,86.92L355.31,90.14L355.28,90.17L352.8,90.92Z" style="fill: rgb(221, 64, 64); fill-opacity: 0.2; stroke-width: 0;"/></g></g><g class="errorbars"/><g class="lines"><path class="js-line" d="M352.8,90.92L355.28,90.17L355.31,90.14L359.47,86.92L359.5,86.92L362.72,87.13L362.75,87.16L364.5,87.62L364.53,87.59L368.18,83.87L368.22,83.78L370.16,74.73L370.19,74.58L371.73,70.92L371.83,70.95L371.87,70.97L372.84,72.55L372.87,72.63L378,83.75L378.03,83.8L382.66,90.15L382.69,90.16L387.08,90.92" style="vector-effect: non-scaling-stroke; fill: none; stroke: rgb(59, 2, 128); stroke-opacity: 1; stroke-width: 1px; opacity: 1;"/></g><g class="points"/><g class="text"/></g><g class="trace scatter traced91085" style="stroke-miterlimit: 2;"><g class="fills"/><g class="errorbars"/><g class="lines"><path class="js-line" d="M352.8,90.93L387.08,90.93" style="vector-effect: non-scaling-stroke; fill: none; stroke: rgb(0, 0, 0); stroke-opacity: 0; stroke-width: 1px; opacity: 1;"/></g><g class="points"/><g class="text"/></g><g class="trace scatter tracea59222" style="stroke-miterlimit: 2; opacity: 1;"><g class="fills"/><g class="errorbars"/><g class="lines"><path class="js-line" d="M368.25,90.93L368.25,83.68" style="vector-effect: non-scaling-stroke; fill: none; stroke: rgb(221, 64, 64); stroke-opacity: 1; stroke-width: 1px; opacity: 1; stroke-dasharray: 3px, 3px;"/></g><g class="points"/><g class="text"/></g><g class="trace scatter tracec270a9" style="stroke-miterlimit: 2; opacity: 1;"><g class="fills"/><g class="errorbars"/><g class="lines"><path class="js-line" d="M371.7,90.93L371.7,70.92" style="vector-effect: non-scaling-stroke; fill: none; stroke: rgb(221, 64, 64); stroke-opacity: 1; stroke-width: 1px; opacity: 1; stroke-dasharray: 3px, 3px;"/></g><g class="points"/><g class="text"/></g><g class="trace scatter trace5c7e42" style="stroke-miterlimit: 2; opacity: 1;"><g class="fills"/><g class="errorbars"/><g class="lines"><path class="js-line" d="M374.62,90.93L374.62,77.47" style="vector-effect: non-scaling-stroke; fill: none; stroke: rgb(221, 64, 64); stroke-opacity: 1; stroke-width: 1px; opacity: 1; stroke-dasharray: 3px, 3px;"/></g><g class="points"/><g class="text"/></g><g class="trace scatter trace05e3ef" style="stroke-miterlimit: 2;"><g class="fills"><g><path class="js-fill" d="M0,110.95L521,110.95L521,110.94L450.21,110.87L449.7,110.86L352.43,110.19L351.92,110.2L225.61,110.94L225.1,110.94L152.79,110.25L152.28,110.23L106.44,109.49L105.93,109.49L69.26,110.18L68.75,110.19L0,110.94Z" style="fill: rgb(221, 64, 64); fill-opacity: 0.2; stroke-width: 0;"/></g></g><g class="errorbars"/><g class="lines"><path class="js-line" d="M0,110.94L68.75,110.19L69.26,110.18L105.93,109.49L106.44,109.49L152.28,110.23L152.79,110.25L225.1,110.94L225.61,110.94L351.92,110.2L352.43,110.19L449.7,110.86L450.21,110.87L521,110.94" style="vector-effect: non-scaling-stroke; fill: none; stroke: rgb(59, 2, 128); stroke-opacity: 1; stroke-width: 1px; opacity: 1;"/></g><g class="points"/><g class="text"/></g><g class="trace scatter trace31fd02" style="stroke-miterlimit: 2;"><g class="fills"/><g class="errorbars"/><g class="lines"><path class="js-line" d="M0,110.95L521,110.95" style="vector-effect: non-scaling-stroke; fill: none; stroke: rgb(0, 0, 0); stroke-opacity: 0; stroke-width: 1px; opacity: 1;"/></g><g class="points"/><g class="text"/></g><g class="trace scatter tracefe6a8a" style="stroke-miterlimit: 2; opacity: 1;"><g class="fills"/><g class="errorbars"/><g class="lines"><path class="js-line" d="M100.84,110.95L100.84,109.53" style="vector-effect: non-scaling-stroke; fill: none; stroke: rgb(221, 64, 64); stroke-opacity: 1; stroke-width: 1px; opacity: 1; stroke-dasharray: 3px, 3px;"/></g><g class="points"/><g class="text"/></g><g class="trace scatter traced3b85b" style="stroke-miterlimit: 2; opacity: 1;"><g class="fills"/><g class="errorbars"/><g class="lines"><path class="js-line" d="M139.54,110.95L139.54,109.92" style="vector-effect: non-scaling-stroke; fill: none; stroke: rgb(221, 64, 64); stroke-opacity: 1; stroke-width: 1px; opacity: 1; stroke-dasharray: 3px, 3px;"/></g><g class="points"/><g class="text"/></g><g class="trace scatter trace362104" style="stroke-miterlimit: 2; opacity: 1;"><g class="fills"/><g class="errorbars"/><g class="lines"><path class="js-line" d="M353.44,110.95L353.44,110.18" style="vector-effect: non-scaling-stroke; fill: none; stroke: rgb(221, 64, 64); stroke-opacity: 1; stroke-width: 1px; opacity: 1; stroke-dasharray: 3px, 3px;"/></g><g class="points"/><g class="text"/></g><g class="trace scatter trace2556c3" style="stroke-miterlimit: 2;"><g class="fills"><g><path class="js-fill" d="M96.73,131.63L239.1,131.63L239.1,131.63L213.07,131.54L212.93,131.55L204.03,131.02L203.89,131L199.85,129.54L199.71,129.47L196.93,128.24L196.79,128.22L192.89,129.91L192.76,129.99L181.2,131.07L181.07,131.07L176.06,130.7L175.92,130.67L172.72,129.26L172.58,129.14L168.82,123.4L168.68,123.13L166.87,120.21L166.73,120.07L165.48,119.62L165.34,119.67L162.7,123.56L162.56,123.84L160.19,127.81L160.05,127.97L155.18,130.85L155.04,130.9L140.01,131.63L139.87,131.63L117.33,131.57L117.19,131.56L113.71,130.97L113.57,130.91L109.26,126.19L109.12,126.02L107.59,124.88L107.45,124.88L104.25,128.41L104.11,128.61L102.02,130.81L101.88,130.89L96.73,131.63Z" style="fill: rgb(221, 64, 64); fill-opacity: 0.2; stroke-width: 0;"/></g></g><g class="errorbars"/><g class="lines"><path class="js-line" d="M96.73,131.63L101.88,130.89L102.02,130.81L104.11,128.61L104.25,128.41L107.45,124.88L107.59,124.88L109.12,126.02L109.26,126.19L113.57,130.91L113.71,130.97L117.19,131.56L117.33,131.57L139.87,131.63L140.01,131.63L155.04,130.9L155.18,130.85L160.05,127.97L160.19,127.81L162.56,123.84L162.7,123.56L165.34,119.67L165.48,119.62L166.73,120.07L166.87,120.21L168.68,123.13L168.82,123.4L172.58,129.14L172.72,129.26L175.92,130.67L176.06,130.7L181.07,131.07L181.2,131.07L192.76,129.99L192.89,129.91L196.79,128.22L196.93,128.24L199.71,129.47L199.85,129.54L203.89,131L204.03,131.02L212.93,131.55L213.07,131.54L239.1,131.63" style="vector-effect: non-scaling-stroke; fill: none; stroke: rgb(59, 2, 128); stroke-opacity: 1; stroke-width: 1px; opacity: 1;"/></g><g class="points"/><g class="text"/></g><g class="trace scatter trace13ae76" style="stroke-miterlimit: 2;"><g class="fills"/><g class="errorbars"/><g class="lines"><path class="js-line" d="M96.73,131.63L239.1,131.63" style="vector-effect: non-scaling-stroke; fill: none; stroke: rgb(0, 0, 0); stroke-opacity: 0; stroke-width: 1px; opacity: 1;"/></g><g class="points"/><g class="text"/></g><g class="trace scatter trace0c9e10" style="stroke-miterlimit: 2; opacity: 1;"><g class="fills"/><g class="errorbars"/><g class="lines"><path class="js-line" d="M157.41,131.63L157.41,129.84" style="vector-effect: non-scaling-stroke; fill: none; stroke: rgb(221, 64, 64); stroke-opacity: 1; stroke-width: 1px; opacity: 1; stroke-dasharray: 3px, 3px;"/></g><g class="points"/><g class="text"/></g><g class="trace scatter trace0df810" style="stroke-miterlimit: 2; opacity: 1;"><g class="fills"/><g class="errorbars"/><g class="lines"><path class="js-line" d="M165.48,131.63L165.48,119.62" style="vector-effect: non-scaling-stroke; fill: none; stroke: rgb(221, 64, 64); stroke-opacity: 1; stroke-width: 1px; opacity: 1; stroke-dasharray: 3px, 3px;"/></g><g class="points"/><g class="text"/></g><g class="trace scatter traceff454e" style="stroke-miterlimit: 2; opacity: 1;"><g class="fills"/><g class="errorbars"/><g class="lines"><path class="js-line" d="M171.19,131.63L171.19,127.6" style="vector-effect: non-scaling-stroke; fill: none; stroke: rgb(221, 64, 64); stroke-opacity: 1; stroke-width: 1px; opacity: 1; stroke-dasharray: 3px, 3px;"/></g><g class="points"/><g class="text"/></g><g class="trace scatter trace90fdde" style="stroke-miterlimit: 2;"><g class="fills"><g><path class="js-fill" d="M57.3,151.65L300.03,151.65L300.03,151.64L292.67,151.64L292.44,151.64L261.35,151.09L261.12,151.08L226.47,150.38L226.24,150.38L198.24,150.8L198,150.81L160.51,151.49L160.27,151.49L139.16,150.39L138.92,150.37L120.65,148.87L120.41,148.86L90.04,150.87L89.8,150.89L57.3,151.64Z" style="fill: rgb(221, 64, 64); fill-opacity: 0.2; stroke-width: 0;"/></g></g><g class="errorbars"/><g class="lines"><path class="js-line" d="M57.3,151.64L89.8,150.89L90.04,150.87L120.41,148.86L120.65,148.87L138.92,150.37L139.16,150.39L160.27,151.49L160.51,151.49L198,150.81L198.24,150.8L226.24,150.38L226.47,150.38L261.12,151.08L261.35,151.09L292.44,151.64L292.67,151.64L300.03,151.64" style="vector-effect: non-scaling-stroke; fill: none; stroke: rgb(59, 2, 128); stroke-opacity: 1; stroke-width: 1px; opacity: 1;"/></g><g class="points"/><g class="text"/></g><g class="trace scatter trace58999e" style="stroke-miterlimit: 2;"><g class="fills"/><g class="errorbars"/><g class="lines"><path class="js-line" d="M57.3,151.65L300.03,151.65" style="vector-effect: non-scaling-stroke; fill: none; stroke: rgb(0, 0, 0); stroke-opacity: 0; stroke-width: 1px; opacity: 1;"/></g><g class="points"/><g class="text"/></g><g class="trace scatter trace3eb86c" style="stroke-miterlimit: 2; opacity: 1;"><g class="fills"/><g class="errorbars"/><g class="lines"><path class="js-line" d="M114.24,151.65L114.24,148.83" style="vector-effect: non-scaling-stroke; fill: none; stroke: rgb(221, 64, 64); stroke-opacity: 1; stroke-width: 1px; opacity: 1; stroke-dasharray: 3px, 3px;"/></g><g class="points"/><g class="text"/></g><g class="trace scatter trace8f6c8d" style="stroke-miterlimit: 2; opacity: 1;"><g class="fills"/><g class="errorbars"/><g class="lines"><path class="js-line" d="M135.84,151.65L135.84,150.08" style="vector-effect: non-scaling-stroke; fill: none; stroke: rgb(221, 64, 64); stroke-opacity: 1; stroke-width: 1px; opacity: 1; stroke-dasharray: 3px, 3px;"/></g><g class="points"/><g class="text"/></g><g class="trace scatter trace57ff45" style="stroke-miterlimit: 2; opacity: 1;"><g class="fills"/><g class="errorbars"/><g class="lines"><path class="js-line" d="M219.83,151.65L219.83,150.43" style="vector-effect: non-scaling-stroke; fill: none; stroke: rgb(221, 64, 64); stroke-opacity: 1; stroke-width: 1px; opacity: 1; stroke-dasharray: 3px, 3px;"/></g><g class="points"/><g class="text"/></g><g class="trace scatter traceb80ccf" style="stroke-miterlimit: 2;"><g class="fills"><g><path class="js-fill" d="M121.8,172.33L147.09,172.33L147.09,172.32L145.34,172.2L145.31,172.19L143.16,170.82L143.14,170.8L140.69,165.82L140.66,165.75L137.77,159.64L137.75,159.6L133.3,156.45L133.27,156.44L131.54,156.63L131.52,156.65L128.8,159.18L128.77,159.21L125.12,168.94L125.09,169.02L123.93,171.54L123.9,171.57L121.8,172.32Z" style="fill: rgb(221, 64, 64); fill-opacity: 0.2; stroke-width: 0;"/></g></g><g class="errorbars"/><g class="lines"><path class="js-line" d="M121.8,172.32L123.9,171.57L123.93,171.54L125.09,169.02L125.12,168.94L128.77,159.21L128.8,159.18L131.52,156.65L131.54,156.63L133.27,156.44L133.3,156.45L137.75,159.6L137.77,159.64L140.66,165.75L140.69,165.82L143.14,170.8L143.16,170.82L145.31,172.19L145.34,172.2L147.09,172.32" style="vector-effect: non-scaling-stroke; fill: none; stroke: rgb(59, 2, 128); stroke-opacity: 1; stroke-width: 1px; opacity: 1;"/></g><g class="points"/><g class="text"/></g><g class="trace scatter trace0285a8" style="stroke-miterlimit: 2;"><g class="fills"/><g class="errorbars"/><g class="lines"><path class="js-line" d="M121.8,172.33L147.09,172.33" style="vector-effect: non-scaling-stroke; fill: none; stroke: rgb(0, 0, 0); stroke-opacity: 0; stroke-width: 1px; opacity: 1;"/></g><g class="points"/><g class="text"/></g><g class="trace scatter traceb3c52f" style="stroke-miterlimit: 2; opacity: 1;"><g class="fills"/><g class="errorbars"/><g class="lines"><path class="js-line" d="M129.96,172.33L129.96,157.81" style="vector-effect: non-scaling-stroke; fill: none; stroke: rgb(221, 64, 64); stroke-opacity: 1; stroke-width: 1px; opacity: 1; stroke-dasharray: 3px, 3px;"/></g><g class="points"/><g class="text"/></g><g class="trace scatter tracef19ab8" style="stroke-miterlimit: 2; opacity: 1;"><g class="fills"/><g class="errorbars"/><g class="lines"><path class="js-line" d="M133.32,172.33L133.32,156.47" style="vector-effect: non-scaling-stroke; fill: none; stroke: rgb(221, 64, 64); stroke-opacity: 1; stroke-width: 1px; opacity: 1; stroke-dasharray: 3px, 3px;"/></g><g class="points"/><g class="text"/></g><g class="trace scatter tracec30667" style="stroke-miterlimit: 2; opacity: 1;"><g class="fills"/><g class="errorbars"/><g class="lines"><path class="js-line" d="M136.81,172.33L136.81,158.17" style="vector-effect: non-scaling-stroke; fill: none; stroke: rgb(221, 64, 64); stroke-opacity: 1; stroke-width: 1px; opacity: 1; stroke-dasharray: 3px, 3px;"/></g><g class="points"/><g class="text"/></g><g class="trace scatter trace51a364" style="stroke-miterlimit: 2;"><g class="fills"><g><path class="js-fill" d="M50,193.02L236.48,193.02L236.48,193.01L178.33,193L178.15,193L162.47,192.92L162.29,192.92L151.72,191.89L151.54,191.86L145.34,190.56L145.16,190.5L128.93,187.29L128.75,187.25L117.81,188.63L117.63,188.67L110.89,190.49L110.7,190.55L105.05,192.25L104.87,192.28L50,193.01Z" style="fill: rgb(221, 64, 64); fill-opacity: 0.2; stroke-width: 0;"/></g></g><g class="errorbars"/><g class="lines"><path class="js-line" d="M50,193.01L104.87,192.28L105.05,192.25L110.7,190.55L110.89,190.49L117.63,188.67L117.81,188.63L128.75,187.25L128.93,187.29L145.16,190.5L145.34,190.56L151.54,191.86L151.72,191.89L162.29,192.92L162.47,192.92L178.15,193L178.33,193L236.48,193.01" style="vector-effect: non-scaling-stroke; fill: none; stroke: rgb(59, 2, 128); stroke-opacity: 1; stroke-width: 1px; opacity: 1;"/></g><g class="points"/><g class="text"/></g><g class="trace scatter trace4d3f18" style="stroke-miterlimit: 2;"><g class="fills"/><g class="errorbars"/><g class="lines"><path class="js-line" d="M50,193.02L236.48,193.02" style="vector-effect: non-scaling-stroke; fill: none; stroke: rgb(0, 0, 0); stroke-opacity: 0; stroke-width: 1px; opacity: 1;"/></g><g class="points"/><g class="text"/></g><g class="trace scatter trace527294" style="stroke-miterlimit: 2; opacity: 1;"><g class="fills"/><g class="errorbars"/><g class="lines"><path class="js-line" d="M119.27,193.02L119.27,188.33" style="vector-effect: non-scaling-stroke; fill: none; stroke: rgb(221, 64, 64); stroke-opacity: 1; stroke-width: 1px; opacity: 1; stroke-dasharray: 3px, 3px;"/></g><g class="points"/><g class="text"/></g><g class="trace scatter trace202b5b" style="stroke-miterlimit: 2; opacity: 1;"><g class="fills"/><g class="errorbars"/><g class="lines"><path class="js-line" d="M127.84,193.02L127.84,187.13" style="vector-effect: non-scaling-stroke; fill: none; stroke: rgb(221, 64, 64); stroke-opacity: 1; stroke-width: 1px; opacity: 1; stroke-dasharray: 3px, 3px;"/></g><g class="points"/><g class="text"/></g><g class="trace scatter trace0bbf00" style="stroke-miterlimit: 2; opacity: 1;"><g class="fills"/><g class="errorbars"/><g class="lines"><path class="js-line" d="M137.5,193.02L137.5,188.66" style="vector-effect: non-scaling-stroke; fill: none; stroke: rgb(221, 64, 64); stroke-opacity: 1; stroke-width: 1px; opacity: 1; stroke-dasharray: 3px, 3px;"/></g><g class="points"/><g class="text"/></g><g class="trace scatter trace62b25c" style="stroke-miterlimit: 2;"><g class="fills"><g><path class="js-fill" d="M24.09,211.7L239.92,211.7L239.92,211.7L217.14,211.64L216.93,211.64L196.67,210.35L196.46,210.32L185.7,209.06L185.49,209.04L167.13,210.26L166.92,210.29L124.51,210.71L124.3,210.72L99.83,209.11L99.62,209.1L74.93,210.93L74.72,210.95L24.09,211.7Z" style="fill: rgb(221, 64, 64); fill-opacity: 0.2; stroke-width: 0;"/></g></g><g class="errorbars"/><g class="lines"><path class="js-line" d="M24.09,211.7L74.72,210.95L74.93,210.93L99.62,209.1L99.83,209.11L124.3,210.72L124.51,210.71L166.92,210.29L167.13,210.26L185.49,209.04L185.7,209.06L196.46,210.32L196.67,210.35L216.93,211.64L217.14,211.64L239.92,211.7" style="vector-effect: non-scaling-stroke; fill: none; stroke: rgb(59, 2, 128); stroke-opacity: 1; stroke-width: 1px; opacity: 1;"/></g><g class="points"/><g class="text"/></g><g class="trace scatter trace00a5ea" style="stroke-miterlimit: 2;"><g class="fills"/><g class="errorbars"/><g class="lines"><path class="js-line" d="M24.09,211.7L239.92,211.7" style="vector-effect: non-scaling-stroke; fill: none; stroke: rgb(0, 0, 0); stroke-opacity: 0; stroke-width: 1px; opacity: 1;"/></g><g class="points"/><g class="text"/></g><g class="trace scatter trace43e5cc" style="stroke-miterlimit: 2; opacity: 1;"><g class="fills"/><g class="errorbars"/><g class="lines"><path class="js-line" d="M98.77,211.7L98.77,209.06" style="vector-effect: non-scaling-stroke; fill: none; stroke: rgb(221, 64, 64); stroke-opacity: 1; stroke-width: 1px; opacity: 1; stroke-dasharray: 3px, 3px;"/></g><g class="points"/><g class="text"/></g><g class="trace scatter tracefe022a" style="stroke-miterlimit: 2; opacity: 1;"><g class="fills"/><g class="errorbars"/><g class="lines"><path class="js-line" d="M135.06,211.7L135.06,210.64" style="vector-effect: non-scaling-stroke; fill: none; stroke: rgb(221, 64, 64); stroke-opacity: 1; stroke-width: 1px; opacity: 1; stroke-dasharray: 3px, 3px;"/></g><g class="points"/><g class="text"/></g><g class="trace scatter tracef6d478" style="stroke-miterlimit: 2; opacity: 1;"><g class="fills"/><g class="errorbars"/><g class="lines"><path class="js-line" d="M178.53,211.7L178.53,209.02" style="vector-effect: non-scaling-stroke; fill: none; stroke: rgb(221, 64, 64); stroke-opacity: 1; stroke-width: 1px; opacity: 1; stroke-dasharray: 3px, 3px;"/></g><g class="points"/><g class="text"/></g><g class="trace scatter trace719ff6" style="stroke-miterlimit: 2;"><g class="fills"><g><path class="js-fill" d="M46.46,232.38L317.71,232.38L317.71,232.38L300.74,232.34L300.47,232.34L291.99,232.1L291.72,232.08L274.75,227.79L274.49,227.71L267.33,225.01L267.06,224.95L264.15,224.85L263.88,224.9L257.78,229.26L257.52,229.47L253.81,231.5L253.54,231.58L246.91,232.33L246.65,232.34L214.83,231.34L214.56,231.33L207.67,231.62L207.41,231.66L179.03,232.38L178.77,232.38L154.38,232.19L154.11,232.18L136.61,232.25L136.35,232.25L124.68,231.62L124.41,231.58L117.52,231.62L117.26,231.66L46.46,232.38Z" style="fill: rgb(221, 64, 64); fill-opacity: 0.2; stroke-width: 0;"/></g></g><g class="errorbars"/><g class="lines"><path class="js-line" d="M46.46,232.38L117.26,231.66L117.52,231.62L124.41,231.58L124.68,231.62L136.35,232.25L136.61,232.25L154.11,232.18L154.38,232.19L178.77,232.38L179.03,232.38L207.41,231.66L207.67,231.62L214.56,231.33L214.83,231.34L246.65,232.34L246.91,232.33L253.54,231.58L253.81,231.5L257.52,229.47L257.78,229.26L263.88,224.9L264.15,224.85L267.06,224.95L267.33,225.01L274.49,227.71L274.75,227.79L291.72,232.08L291.99,232.1L300.47,232.34L300.74,232.34L317.71,232.38" style="vector-effect: non-scaling-stroke; fill: none; stroke: rgb(59, 2, 128); stroke-opacity: 1; stroke-width: 1px; opacity: 1;"/></g><g class="points"/><g class="text"/></g><g class="trace scatter trace59fa73" style="stroke-miterlimit: 2;"><g class="fills"/><g class="errorbars"/><g class="lines"><path class="js-line" d="M46.46,232.38L317.71,232.38" style="vector-effect: non-scaling-stroke; fill: none; stroke: rgb(0, 0, 0); stroke-opacity: 0; stroke-width: 1px; opacity: 1;"/></g><g class="points"/><g class="text"/></g><g class="trace scatter trace05c16b" style="stroke-miterlimit: 2; opacity: 1;"><g class="fills"/><g class="errorbars"/><g class="lines"><path class="js-line" d="M256.46,232.38L256.46,230.24" style="vector-effect: non-scaling-stroke; fill: none; stroke: rgb(221, 64, 64); stroke-opacity: 1; stroke-width: 1px; opacity: 1; stroke-dasharray: 3px, 3px;"/></g><g class="points"/><g class="text"/></g><g class="trace scatter traced27329" style="stroke-miterlimit: 2; opacity: 1;"><g class="fills"/><g class="errorbars"/><g class="lines"><path class="js-line" d="M265.47,232.38L265.47,224.74" style="vector-effect: non-scaling-stroke; fill: none; stroke: rgb(221, 64, 64); stroke-opacity: 1; stroke-width: 1px; opacity: 1; stroke-dasharray: 3px, 3px;"/></g><g class="points"/><g class="text"/></g><g class="trace scatter trace68f4d2" style="stroke-miterlimit: 2; opacity: 1;"><g class="fills"/><g class="errorbars"/><g class="lines"><path class="js-line" d="M273.43,232.38L273.43,227.37" style="vector-effect: non-scaling-stroke; fill: none; stroke: rgb(221, 64, 64); stroke-opacity: 1; stroke-width: 1px; opacity: 1; stroke-dasharray: 3px, 3px;"/></g><g class="points"/><g class="text"/></g><g class="trace scatter traceab7903" style="stroke-miterlimit: 2;"><g class="fills"><g><path class="js-fill" d="M45.25,252.4L370.22,252.4L370.22,252.39L45.25,252.39Z" style="fill: rgb(221, 64, 64); fill-opacity: 0.2; stroke-width: 0;"/></g></g><g class="errorbars"/><g class="lines"><path class="js-line" d="M45.25,252.39L370.22,252.39" style="vector-effect: non-scaling-stroke; fill: none; stroke: rgb(59, 2, 128); stroke-opacity: 1; stroke-width: 1px; opacity: 1;"/></g><g class="points"/><g class="text"/></g><g class="trace scatter trace9df66e" style="stroke-miterlimit: 2;"><g class="fills"/><g class="errorbars"/><g class="lines"><path class="js-line" d="M45.25,252.4L370.22,252.4" style="vector-effect: non-scaling-stroke; fill: none; stroke: rgb(0, 0, 0); stroke-opacity: 0; stroke-width: 1px; opacity: 1;"/></g><g class="points"/><g class="text"/></g><g class="trace scatter traceed02f2" style="stroke-miterlimit: 2; opacity: 1;"><g class="fills"/><g class="errorbars"/><g class="lines"><path class="js-line" d="M141.28,252.4L141.28,251.85" style="vector-effect: non-scaling-stroke; fill: none; stroke: rgb(221, 64, 64); stroke-opacity: 1; stroke-width: 1px; opacity: 1; stroke-dasharray: 3px, 3px;"/></g><g class="points"/><g class="text"/></g><g class="trace scatter trace945e17" style="stroke-miterlimit: 2; opacity: 1;"><g class="fills"/><g class="errorbars"/><g class="lines"><path class="js-line" d="M171.8,252.4L171.8,252.02" style="vector-effect: non-scaling-stroke; fill: none; stroke: rgb(221, 64, 64); stroke-opacity: 1; stroke-width: 1px; opacity: 1; stroke-dasharray: 3px, 3px;"/></g><g class="points"/><g class="text"/></g><g class="trace scatter tracec81313" style="stroke-miterlimit: 2; opacity: 1;"><g class="fills"/><g class="errorbars"/><g class="lines"><path class="js-line" d="M279.91,252.4L279.91,252.05" style="vector-effect: non-scaling-stroke; fill: none; stroke: rgb(221, 64, 64); stroke-opacity: 1; stroke-width: 1px; opacity: 1; stroke-dasharray: 3px, 3px;"/></g><g class="points"/><g class="text"/></g><g class="trace scatter tracefcb604" style="stroke-miterlimit: 2;"><g class="fills"><g><path class="js-fill" d="M0,0Z" style="stroke-width: 0; fill: rgb(0, 200, 229); fill-opacity: 0.2;"/></g></g><g class="errorbars"/><g class="lines"/><g class="points"/><g class="text"/></g><g class="trace scatter trace2864ef" style="stroke-miterlimit: 2;"><g class="fills"/><g class="errorbars"/><g class="lines"/><g class="points"/><g class="text"/></g><g class="trace scatter trace18d89c" style="stroke-miterlimit: 2;"><g class="fills"><g><path class="js-fill" d="M0,0Z" style="stroke-width: 0; fill: rgb(59, 2, 128); fill-opacity: 0.2;"/></g></g><g class="errorbars"/><g class="lines"/><g class="points"/><g class="text"/></g><g class="trace scatter traced890b7" style="stroke-miterlimit: 2;"><g class="fills"/><g class="errorbars"/><g class="lines"/><g class="points"/><g class="text"/></g><g class="trace scatter traceb56a28" style="stroke-miterlimit: 2;"><g class="fills"><g><path class="js-fill" d="M0,0Z" style="stroke-width: 0; fill: rgb(221, 64, 64); fill-opacity: 0.2;"/></g></g><g class="errorbars"/><g class="lines"/><g class="points"/><g class="text"/></g><g class="trace scatter trace590ee8" style="stroke-miterlimit: 2;"><g class="fills"/><g class="errorbars"/><g class="lines"/><g class="points"/><g class="text"/></g><g class="trace scatter trace5244a8" style="stroke-miterlimit: 2; opacity: 1;"><g class="fills"/><g class="errorbars"/><g class="lines"/><g class="points"/><g class="text"/></g></g></g><g class="overplot"/><path class="xlines-above crisp" style="fill: none; stroke-width: 1px; stroke: rgb(102, 102, 102); stroke-opacity: 1;" d="M98,372.5H621M98,99.5H621"/><path class="ylines-above crisp" style="fill: none; stroke-width: 1px; stroke: rgb(102, 102, 102); stroke-opacity: 1;" d="M98.5,100V372M620.5,100V372"/><g class="overlines-above"/><g class="xaxislayer-above"><g class="xtick"><text text-anchor="middle" x="0" y="387.4" transform="translate(132.07,0)" style="font-family: 'Open Sans', verdana, arial, sans-serif; font-size: 12px; fill: rgb(42, 63, 95); fill-opacity: 1; white-space: pre; opacity: 1;">−124</text></g><g class="xtick"><text text-anchor="middle" x="0" y="387.4" style="font-family: 'Open Sans', verdana, arial, sans-serif; font-size: 12px; fill: rgb(42, 63, 95); fill-opacity: 1; white-space: pre; opacity: 1;" transform="translate(229.78,0)">−122</text></g><g class="xtick"><text text-anchor="middle" x="0" y="387.4" style="font-family: 'Open Sans', verdana, arial, sans-serif; font-size: 12px; fill: rgb(42, 63, 95); fill-opacity: 1; white-space: pre; opacity: 1;" transform="translate(327.5,0)">−120</text></g><g class="xtick"><text text-anchor="middle" x="0" y="387.4" style="font-family: 'Open Sans', verdana, arial, sans-serif; font-size: 12px; fill: rgb(42, 63, 95); fill-opacity: 1; white-space: pre; opacity: 1;" transform="translate(425.21,0)">−118</text></g><g class="xtick"><text text-anchor="middle" x="0" y="387.4" style="font-family: 'Open Sans', verdana, arial, sans-serif; font-size: 12px; fill: rgb(42, 63, 95); fill-opacity: 1; white-space: pre; opacity: 1;" transform="translate(522.9300000000001,0)">−116</text></g></g><g class="yaxislayer-above"><g class="ytick"><text text-anchor="end" x="95.6" y="4.199999999999999" transform="translate(0,352.4)" style="font-family: 'Open Sans', verdana, arial, sans-serif; font-size: 12px; fill: rgb(42, 63, 95); fill-opacity: 1; white-space: pre; opacity: 1;">May 2022</text></g><g class="ytick"><text text-anchor="end" x="95.6" y="4.199999999999999" style="font-family: 'Open Sans', verdana, arial, sans-serif; font-size: 12px; fill: rgb(42, 63, 95); fill-opacity: 1; white-space: pre; opacity: 1;" transform="translate(0,311.7)">Mar 2022</text></g><g class="ytick"><text text-anchor="end" x="95.6" y="4.199999999999999" style="font-family: 'Open Sans', verdana, arial, sans-serif; font-size: 12px; fill: rgb(42, 63, 95); fill-opacity: 1; white-space: pre; opacity: 1;" transform="translate(0,272.33000000000004)">Jan 2022</text></g><g class="ytick"><text text-anchor="end" x="95.6" y="4.199999999999999" style="font-family: 'Open Sans', verdana, arial, sans-serif; font-size: 12px; fill: rgb(42, 63, 95); fill-opacity: 1; white-space: pre; opacity: 1;" transform="translate(0,231.63)">Nov 2021</text></g><g class="ytick"><text text-anchor="end" x="95.6" y="4.199999999999999" style="font-family: 'Open Sans', verdana, arial, sans-serif; font-size: 12px; fill: rgb(42, 63, 95); fill-opacity: 1; white-space: pre; opacity: 1;" transform="translate(0,190.93)">Sep 2021</text></g><g class="ytick"><text text-anchor="end" x="95.6" y="4.199999999999999" style="font-family: 'Open Sans', verdana, arial, sans-serif; font-size: 12px; fill: rgb(42, 63, 95); fill-opacity: 1; white-space: pre; opacity: 1;" transform="translate(0,149.57)">Jul 2021</text></g><g class="ytick"><text text-anchor="end" x="95.6" y="4.199999999999999" style="font-family: 'Open Sans', verdana, arial, sans-serif; font-size: 12px; fill: rgb(42, 63, 95); fill-opacity: 1; white-space: pre; opacity: 1;" transform="translate(0,108.87)">May 2021</text></g></g><g class="overaxes-above"/></g></g><g class="polarlayer"/><g class="smithlayer"/><g class="ternarylayer"/><g class="geolayer"/><g class="funnelarealayer"/><g class="pielayer"/><g class="iciclelayer"/><g class="treemaplayer"/><g class="sunburstlayer"/><g class="glimages"/><defs id="topdefs-1af171"><g class="clips"/><clipPath id="legend1af171"><rect width="366" height="48" x="0" y="0"/></clipPath></defs><g class="layer-above"><g class="imagelayer"/><g class="shapelayer"/></g><g class="infolayer"><g class="legend" pointer-events="all" transform="translate(99,440)"><rect class="bg" shape-rendering="crispEdges" style="stroke: rgb(68, 68, 68); stroke-opacity: 1; fill: rgb(255, 255, 255); fill-opacity: 1; stroke-width: 0px;" width="366" height="48" x="0" y="0"/><g class="scrollbox" transform="" clip-path="url(#legend1af171)"><g class="groups"><g class="traces" style="opacity: 1;" transform="translate(0,14.5)"><text class="legendtext" text-anchor="start" x="40" y="4.680000000000001" style="font-family: 'Open Sans', verdana, arial, sans-serif; font-size: 12px; fill: rgb(42, 63, 95); fill-opacity: 1; white-space: pre;">Reference period</text><g class="layers"><g class="legendfill"><path class="js-fill" d="M5,-2h30v6h-30z" style="stroke-width: 0; fill: rgb(0, 200, 229); fill-opacity: 0.2;"/></g><g class="legendlines"><path class="js-line" d="M5,-2h30" style="fill: none; stroke: rgb(0, 200, 229); stroke-opacity: 1; stroke-width: 1px;"/></g><g class="legendsymbols"><g class="legendpoints"/></g></g><rect class="legendtoggle" x="0" y="-9.5" width="144.359375" height="19" style="fill: rgb(0, 0, 0); fill-opacity: 0;"/></g><g class="traces" style="opacity: 1;" transform="translate(228.59375,14.5)"><text class="legendtext" text-anchor="start" x="40" y="4.680000000000001" style="font-family: 'Open Sans', verdana, arial, sans-serif; font-size: 12px; fill: rgb(42, 63, 95); fill-opacity: 1; white-space: pre;">Analysis period</text><g class="layers"><g class="legendfill"><path class="js-fill" d="M5,-2h30v6h-30z" style="stroke-width: 0; fill: rgb(59, 2, 128); fill-opacity: 0.2;"/></g><g class="legendlines"><path class="js-line" d="M5,-2h30" style="fill: none; stroke: rgb(59, 2, 128); stroke-opacity: 1; stroke-width: 1px;"/></g><g class="legendsymbols"><g class="legendpoints"/></g></g><rect class="legendtoggle" x="0" y="-9.5" width="134.53125" height="19" style="fill: rgb(0, 0, 0); fill-opacity: 0;"/></g><g class="traces" style="opacity: 1;" transform="translate(0,33.5)"><text class="legendtext" text-anchor="start" x="40" y="4.680000000000001" style="font-family: 'Open Sans', verdana, arial, sans-serif; font-size: 12px; fill: rgb(42, 63, 95); fill-opacity: 1; white-space: pre;">Period with probable data drift</text><g class="layers"><g class="legendfill"><path class="js-fill" d="M5,-2h30v6h-30z" style="stroke-width: 0; fill: rgb(221, 64, 64); fill-opacity: 0.2;"/></g><g class="legendlines"><path class="js-line" d="M5,-2h30" style="fill: none; stroke: rgb(0, 0, 0); stroke-opacity: 0; stroke-width: 1px;"/></g><g class="legendsymbols"><g class="legendpoints"/></g></g><rect class="legendtoggle" x="0" y="-9.5" width="226.09375" height="19" style="fill: rgb(0, 0, 0); fill-opacity: 0;"/></g><g class="traces" style="opacity: 1;" transform="translate(228.59375,33.5)"><text class="legendtext" text-anchor="start" x="40" y="4.680000000000001" style="font-family: 'Open Sans', verdana, arial, sans-serif; font-size: 12px; fill: rgb(42, 63, 95); fill-opacity: 1; white-space: pre;">Quartiles</text><g class="layers" style="opacity: 1;"><g class="legendfill"/><g class="legendlines"><path class="js-line" d="M5,0h30" style="fill: none; stroke: rgb(102, 102, 102); stroke-opacity: 1; stroke-dasharray: 3px, 3px; stroke-width: 1px;"/></g><g class="legendsymbols"><g class="legendpoints"/></g></g><rect class="legendtoggle" x="0" y="-9.5" width="96.734375" height="19" style="fill: rgb(0, 0, 0); fill-opacity: 0;"/></g></g></g><rect class="scrollbar" rx="20" ry="3" width="0" height="0" style="fill: rgb(128, 139, 164); fill-opacity: 1;" x="0" y="0"/></g><g class="g-gtitle"><text class="gtitle" x="35" y="50" text-anchor="start" dy="0em" style="font-family: 'Open Sans', verdana, arial, sans-serif; font-size: 17px; fill: rgb(42, 63, 95); opacity: 1; font-weight: normal; white-space: pre;">Longitude: distribution over time</text></g><g class="g-xtitle"><text class="xtitle" x="359.5" y="414.6125" text-anchor="middle" style="font-family: 'Open Sans', verdana, arial, sans-serif; font-size: 14px; fill: rgb(42, 63, 95); opacity: 1; font-weight: normal; white-space: pre;">Longitude</text></g><g class="g-ytitle" transform="translate(2.6748046875,0)"><text class="ytitle" transform="rotate(-90,11.731250000000003,236)" x="11.731250000000003" y="236" text-anchor="middle" style="font-family: 'Open Sans', verdana, arial, sans-serif; font-size: 14px; fill: rgb(42, 63, 95); opacity: 1; font-weight: normal; white-space: pre;">Time</text></g></g></svg>
