<svg class="main-svg" xmlns="http://www.w3.org/2000/svg" xmlns:xlink="http://www.w3.org/1999/xlink" width="700" height="500" style="" viewBox="0 0 700 500"><rect x="0" y="0" width="700" height="500" style="fill: rgb(255, 255, 255); fill-opacity: 1;"/><defs id="defs-fee942"><g class="clips"><clipPath id="clipfee942xyplot" class="plotclip"><rect width="540" height="287"/></clipPath><clipPath class="axesclip" id="clipfee942x"><rect x="80" y="0" width="540" height="500"/></clipPath><clipPath class="axesclip" id="clipfee942y"><rect x="0" y="100" width="700" height="287"/></clipPath><clipPath class="axesclip" id="clipfee942xy"><rect x="80" y="100" width="540" height="287"/></clipPath></g><g class="gradients"/><g class="patterns"/></defs><g class="bglayer"/><g class="layer-below"><g class="imagelayer"/><g class="shapelayer"/></g><g class="cartesianlayer"><g class="subplot xy"><g class="layer-subplot"><g class="shapelayer"/><g class="imagelayer"/></g><g class="gridlayer"><g class="x"/><g class="y"/></g><g class="zerolinelayer"/><path class="xlines-below"/><path class="ylines-below"/><g class="overlines-below"/><g class="xaxislayer-below"/><g class="yaxislayer-below"/><g class="overaxes-below"/><g class="plot" transform="translate(80,100)" clip-path="url(#clipfee942xyplot)"><g class="scatterlayer mlayer"><g class="trace scatter tracea885e4" style="stroke-miterlimit: 2;"><g class="fills"><g><path class="js-fill" d="M32.26,87.04L32.26,263.61L32.25,263.61L31.85,261.01L31.13,260.15L31.33,258.42L31.7,257.55L32.26,240.24L32.26,239.37L32.04,223.79L31.79,222.93L30.26,221.2L29.26,220.33L30.92,218.6L32,217.74L32.26,109.54L32.26,108.68L32.09,102.62L31.8,101.75L29.76,100.02L27.64,99.16L7.12,95.69L4.14,94.83L0,93.1L0.68,92.23L12.58,91.37L25.36,90.5L30.84,89.63L32.03,88.77L32.26,87.04Z" style="fill: rgb(221, 64, 64); fill-opacity: 0.2; stroke-width: 0;"/></g></g><g class="errorbars"/><g class="lines"><path class="js-line" d="M32.26,87.04L32.03,88.77L30.84,89.63L25.36,90.5L12.58,91.37L0.68,92.23L0,93.1L4.14,94.83L7.12,95.69L27.64,99.16L29.76,100.02L31.8,101.75L32.09,102.62L32.26,108.68L32.26,109.54L32,217.74L30.92,218.6L29.26,220.33L30.26,221.2L31.79,222.93L32.04,223.79L32.26,239.37L32.26,240.24L31.7,257.55L31.33,258.42L31.13,260.15L31.85,261.01L32.25,263.61" style="vector-effect: non-scaling-stroke; fill: none; stroke: rgb(59, 2, 128); stroke-opacity: 1; stroke-width: 1px; opacity: 1;"/></g><g class="points"/><g class="text"/></g><g class="trace scatter trace7925ca" style="stroke-miterlimit: 2;"><g class="fills"/><g class="errorbars"/><g class="lines"><path class="js-line" d="M32.26,87.04L32.26,263.61" style="vector-effect: non-scaling-stroke; fill: none; stroke: rgb(0, 0, 0); stroke-opacity: 0; stroke-width: 1px; opacity: 1;"/></g><g class="points"/><g class="text"/></g><g class="trace scatter trace39d17e" style="stroke-miterlimit: 2; opacity: 1;"><g class="fills"/><g class="errorbars"/><g class="lines"><path class="js-line" d="M32.26,93.1L0,93.1" style="vector-effect: non-scaling-stroke; fill: none; stroke: rgb(221, 64, 64); stroke-opacity: 1; stroke-width: 1px; opacity: 1; stroke-dasharray: 3px, 3px;"/></g><g class="points"/><g class="text"/></g><g class="trace scatter trace9f132c" style="stroke-miterlimit: 2; opacity: 1;"><g class="fills"/><g class="errorbars"/><g class="lines"><path class="js-line" d="M32.26,94.83L4.14,94.83" style="vector-effect: non-scaling-stroke; fill: none; stroke: rgb(221, 64, 64); stroke-opacity: 1; stroke-width: 1px; opacity: 1; stroke-dasharray: 3px, 3px;"/></g><g class="points"/><g class="text"/></g><g class="trace scatter trace78d143" style="stroke-miterlimit: 2; opacity: 1;"><g class="fills"/><g class="errorbars"/><g class="lines"><path class="js-line" d="M32.26,96.56L12.16,96.56" style="vector-effect: non-scaling-stroke; fill: none; stroke: rgb(221, 64, 64); stroke-opacity: 1; stroke-width: 1px; opacity: 1; stroke-dasharray: 3px, 3px;"/></g><g class="points"/><g class="text"/></g><g class="trace scatter trace99f0e0" style="stroke-miterlimit: 2;"><g class="fills"><g><path class="js-fill" d="M74,81.03L74,206.61L73.99,206.61L73.65,203.53L73.41,202.91L70.75,199.84L69.89,199.22L63.85,196.76L61.75,196.14L56.61,194.3L56.11,193.68L59.29,191.83L61.26,191.22L65.98,189.37L66.5,188.76L61.99,185.68L61.64,185.06L69.45,181.98L71.08,181.37L73.05,180.14L73.52,179.52L74,143.2L74,142.59L73.92,101.34L73.92,100.72L72.11,94.57L71.99,93.95L73.06,90.26L73.28,89.64L73.99,81.03Z" style="fill: rgb(221, 64, 64); fill-opacity: 0.2; stroke-width: 0;"/></g></g><g class="errorbars"/><g class="lines"><path class="js-line" d="M73.99,81.03L73.28,89.64L73.06,90.26L71.99,93.95L72.11,94.57L73.92,100.72L73.92,101.34L74,142.59L74,143.2L73.52,179.52L73.05,180.14L71.08,181.37L69.45,181.98L61.64,185.06L61.99,185.68L66.5,188.76L65.98,189.37L61.26,191.22L59.29,191.83L56.11,193.68L56.61,194.3L61.75,196.14L63.85,196.76L69.89,199.22L70.75,199.84L73.41,202.91L73.65,203.53L73.99,206.61" style="vector-effect: non-scaling-stroke; fill: none; stroke: rgb(59, 2, 128); stroke-opacity: 1; stroke-width: 1px; opacity: 1;"/></g><g class="points"/><g class="text"/></g><g class="trace scatter tracecd3540" style="stroke-miterlimit: 2;"><g class="fills"/><g class="errorbars"/><g class="lines"><path class="js-line" d="M74,81.03L74,206.61" style="vector-effect: non-scaling-stroke; fill: none; stroke: rgb(0, 0, 0); stroke-opacity: 0; stroke-width: 1px; opacity: 1;"/></g><g class="points"/><g class="text"/></g><g class="trace scatter trace0c1bec" style="stroke-miterlimit: 2; opacity: 1;"><g class="fills"/><g class="errorbars"/><g class="lines"><path class="js-line" d="M74,185.68L61.99,185.68" style="vector-effect: non-scaling-stroke; fill: none; stroke: rgb(221, 64, 64); stroke-opacity: 1; stroke-width: 1px; opacity: 1; stroke-dasharray: 3px, 3px;"/></g><g class="points"/><g class="text"/></g><g class="trace scatter trace0f4d1c" style="stroke-miterlimit: 2; opacity: 1;"><g class="fills"/><g class="errorbars"/><g class="lines"><path class="js-line" d="M74,191.22L61.26,191.22" style="vector-effect: non-scaling-stroke; fill: none; stroke: rgb(221, 64, 64); stroke-opacity: 1; stroke-width: 1px; opacity: 1; stroke-dasharray: 3px, 3px;"/></g><g class="points"/><g class="text"/></g><g class="trace scatter tracedbef0e" style="stroke-miterlimit: 2; opacity: 1;"><g class="fills"/><g class="errorbars"/><g class="lines"><path class="js-line" d="M74,194.91L57.87,194.91" style="vector-effect: non-scaling-stroke; fill: none; stroke: rgb(221, 64, 64); stroke-opacity: 1; stroke-width: 1px; opacity: 1; stroke-dasharray: 3px, 3px;"/></g><g class="points"/><g class="text"/></g><g class="trace scatter tracef2390c" style="stroke-miterlimit: 2;"><g class="fills"><g><path class="js-fill" d="M117.12,187.65L117.12,267.98L117.11,267.98L117.09,263.65L117.05,263.26L116.32,258.93L116.37,258.53L117.12,240.02L117.12,239.63L117,227.82L116.98,227.42L116.59,221.52L116.71,221.12L116.7,218.76L116.53,218.37L116.66,212.46L116.68,212.07L116.98,208.52L116.83,208.13L116.44,206.55L116.54,206.16L115.13,204.59L114.75,204.19L115.45,203.01L115.76,202.62L115.5,201.83L114.75,201.43L80.31,198.28L77.05,197.89L85.67,196.71L88.98,196.32L89.48,195.92L88.26,195.53L88.12,195.13L91.25,194.74L97.27,194.35L112.53,193.17L114.46,192.77L116.04,191.98L116.37,191.59L117.11,187.65Z" style="fill: rgb(221, 64, 64); fill-opacity: 0.2; stroke-width: 0;"/></g></g><g class="errorbars"/><g class="lines"><path class="js-line" d="M117.11,187.65L116.37,191.59L116.04,191.98L114.46,192.77L112.53,193.17L97.27,194.35L91.25,194.74L88.12,195.13L88.26,195.53L89.48,195.92L88.98,196.32L85.67,196.71L77.05,197.89L80.31,198.28L114.75,201.43L115.5,201.83L115.76,202.62L115.45,203.01L114.75,204.19L115.13,204.59L116.54,206.16L116.44,206.55L116.83,208.13L116.98,208.52L116.68,212.07L116.66,212.46L116.53,218.37L116.7,218.76L116.71,221.12L116.59,221.52L116.98,227.42L117,227.82L117.12,239.63L117.12,240.02L116.37,258.53L116.32,258.93L117.05,263.26L117.09,263.65L117.11,267.98" style="vector-effect: non-scaling-stroke; fill: none; stroke: rgb(59, 2, 128); stroke-opacity: 1; stroke-width: 1px; opacity: 1;"/></g><g class="points"/><g class="text"/></g><g class="trace scatter trace4d75a2" style="stroke-miterlimit: 2;"><g class="fills"/><g class="errorbars"/><g class="lines"><path class="js-line" d="M117.12,187.65L117.12,267.98" style="vector-effect: non-scaling-stroke; fill: none; stroke: rgb(0, 0, 0); stroke-opacity: 0; stroke-width: 1px; opacity: 1;"/></g><g class="points"/><g class="text"/></g><g class="trace scatter tracee2db53" style="stroke-miterlimit: 2; opacity: 1;"><g class="fills"/><g class="errorbars"/><g class="lines"><path class="js-line" d="M117.12,195.92L89.48,195.92" style="vector-effect: non-scaling-stroke; fill: none; stroke: rgb(221, 64, 64); stroke-opacity: 1; stroke-width: 1px; opacity: 1; stroke-dasharray: 3px, 3px;"/></g><g class="points"/><g class="text"/></g><g class="trace scatter trace21823e" style="stroke-miterlimit: 2; opacity: 1;"><g class="fills"/><g class="errorbars"/><g class="lines"><path class="js-line" d="M117.12,197.5L77.21,197.5" style="vector-effect: non-scaling-stroke; fill: none; stroke: rgb(221, 64, 64); stroke-opacity: 1; stroke-width: 1px; opacity: 1; stroke-dasharray: 3px, 3px;"/></g><g class="points"/><g class="text"/></g><g class="trace scatter tracea996c5" style="stroke-miterlimit: 2; opacity: 1;"><g class="fills"/><g class="errorbars"/><g class="lines"><path class="js-line" d="M117.12,199.07L90.44,199.07" style="vector-effect: non-scaling-stroke; fill: none; stroke: rgb(221, 64, 64); stroke-opacity: 1; stroke-width: 1px; opacity: 1; stroke-dasharray: 3px, 3px;"/></g><g class="points"/><g class="text"/></g><g class="trace scatter traceb6619b" style="stroke-miterlimit: 2;"><g class="fills"><g><path class="js-fill" d="M160.24,189.77L160.24,206.77L160.22,206.77L158.8,204.77L158.69,204.69L119.94,199.52L119.38,199.44L118.51,199.19L142.96,197.61L144.22,197.52L152.66,195.77L152.99,195.69L153.73,195.36L151.75,194.52L151.55,194.44L151.26,194.27L151.64,193.44L151.71,193.36L159.14,190.86L159.36,190.77L160.22,189.77Z" style="fill: rgb(221, 64, 64); fill-opacity: 0.2; stroke-width: 0;"/></g></g><g class="errorbars"/><g class="lines"><path class="js-line" d="M160.22,189.77L159.36,190.77L159.14,190.86L151.71,193.36L151.64,193.44L151.26,194.27L151.55,194.44L151.75,194.52L153.73,195.36L152.99,195.69L152.66,195.77L144.22,197.52L142.96,197.61L118.51,199.19L119.38,199.44L119.94,199.52L158.69,204.69L158.8,204.77L160.22,206.77" style="vector-effect: non-scaling-stroke; fill: none; stroke: rgb(59, 2, 128); stroke-opacity: 1; stroke-width: 1px; opacity: 1;"/></g><g class="points"/><g class="text"/></g><g class="trace scatter tracefeb099" style="stroke-miterlimit: 2;"><g class="fills"/><g class="errorbars"/><g class="lines"><path class="js-line" d="M160.24,189.77L160.24,206.77" style="vector-effect: non-scaling-stroke; fill: none; stroke: rgb(0, 0, 0); stroke-opacity: 0; stroke-width: 1px; opacity: 1;"/></g><g class="points"/><g class="text"/></g><g class="trace scatter trace425f0f" style="stroke-miterlimit: 2; opacity: 1;"><g class="fills"/><g class="errorbars"/><g class="lines"><path class="js-line" d="M160.24,197.44L145.32,197.44" style="vector-effect: non-scaling-stroke; fill: none; stroke: rgb(221, 64, 64); stroke-opacity: 1; stroke-width: 1px; opacity: 1; stroke-dasharray: 3px, 3px;"/></g><g class="points"/><g class="text"/></g><g class="trace scatter trace582668" style="stroke-miterlimit: 2; opacity: 1;"><g class="fills"/><g class="errorbars"/><g class="lines"><path class="js-line" d="M160.24,199.19L118.51,199.19" style="vector-effect: non-scaling-stroke; fill: none; stroke: rgb(221, 64, 64); stroke-opacity: 1; stroke-width: 1px; opacity: 1; stroke-dasharray: 3px, 3px;"/></g><g class="points"/><g class="text"/></g><g class="trace scatter traced11308" style="stroke-miterlimit: 2; opacity: 1;"><g class="fills"/><g class="errorbars"/><g class="lines"><path class="js-line" d="M160.24,200.61L131.99,200.61" style="vector-effect: non-scaling-stroke; fill: none; stroke: rgb(221, 64, 64); stroke-opacity: 1; stroke-width: 1px; opacity: 1; stroke-dasharray: 3px, 3px;"/></g><g class="points"/><g class="text"/></g><g class="trace scatter tracea91a4c" style="stroke-miterlimit: 2;"><g class="fills"><g><path class="js-fill" d="M201.97,14.35L201.97,272.65L201.95,272.65L201.96,266.32L201.96,265.05L200.32,204.28L200.29,203.01L201.16,175.15L201.23,173.89L201.94,121.97L201.93,120.71L199.1,75.13L199.03,73.86L201.18,39.67L201.27,38.41L201.94,14.35Z" style="fill: rgb(221, 64, 64); fill-opacity: 0.2; stroke-width: 0;"/></g></g><g class="errorbars"/><g class="lines"><path class="js-line" d="M201.94,14.35L201.27,38.41L201.18,39.67L199.03,73.86L199.1,75.13L201.93,120.71L201.94,121.97L201.23,173.89L201.16,175.15L200.29,203.01L200.32,204.28L201.96,265.05L201.96,266.32L201.95,272.65" style="vector-effect: non-scaling-stroke; fill: none; stroke: rgb(59, 2, 128); stroke-opacity: 1; stroke-width: 1px; opacity: 1;"/></g><g class="points"/><g class="text"/></g><g class="trace scatter trace1b23db" style="stroke-miterlimit: 2;"><g class="fills"/><g class="errorbars"/><g class="lines"><path class="js-line" d="M201.97,14.35L201.97,272.65" style="vector-effect: non-scaling-stroke; fill: none; stroke: rgb(0, 0, 0); stroke-opacity: 0; stroke-width: 1px; opacity: 1;"/></g><g class="points"/><g class="text"/></g><g class="trace scatter trace4fc364" style="stroke-miterlimit: 2; opacity: 1;"><g class="fills"/><g class="errorbars"/><g class="lines"><path class="js-line" d="M201.97,65L198.99,65" style="vector-effect: non-scaling-stroke; fill: none; stroke: rgb(221, 64, 64); stroke-opacity: 1; stroke-width: 1px; opacity: 1; stroke-dasharray: 3px, 3px;"/></g><g class="points"/><g class="text"/></g><g class="trace scatter tracec90d70" style="stroke-miterlimit: 2; opacity: 1;"><g class="fills"/><g class="errorbars"/><g class="lines"><path class="js-line" d="M201.97,83.99L199.85,83.99" style="vector-effect: non-scaling-stroke; fill: none; stroke: rgb(221, 64, 64); stroke-opacity: 1; stroke-width: 1px; opacity: 1; stroke-dasharray: 3px, 3px;"/></g><g class="points"/><g class="text"/></g><g class="trace scatter trace315cbc" style="stroke-miterlimit: 2; opacity: 1;"><g class="fills"/><g class="errorbars"/><g class="lines"><path class="js-line" d="M201.97,190.35L200.36,190.35" style="vector-effect: non-scaling-stroke; fill: none; stroke: rgb(221, 64, 64); stroke-opacity: 1; stroke-width: 1px; opacity: 1; stroke-dasharray: 3px, 3px;"/></g><g class="points"/><g class="text"/></g><g class="trace scatter traceb27c58" style="stroke-miterlimit: 2;"><g class="fills"><g><path class="js-fill" d="M245.1,62.45L245.1,133.03L245.09,133.03L244.91,120.23L244.93,119.88L244.14,116.42L243.98,116.08L238.38,112.62L238.02,112.27L242.43,109.85L242.97,109.5L243.29,108.46L243.18,108.12L243.35,106.39L243.5,106.04L243.92,103.28L243.83,102.93L241.73,100.85L240.95,100.51L229.06,98.43L226.24,98.09L220.31,97.05L219.99,96.7L233.32,94.63L235.63,94.28L240.75,92.9L241.51,92.55L244.32,90.82L244.6,90.47L245.09,74.56L245.08,74.21L244.66,71.79L244.41,71.45L232.11,68.33L231.15,67.99L237.94,66.26L240,65.91L243.86,64.87L244.42,64.53L245.09,62.45Z" style="fill: rgb(221, 64, 64); fill-opacity: 0.2; stroke-width: 0;"/></g></g><g class="errorbars"/><g class="lines"><path class="js-line" d="M245.09,62.45L244.42,64.53L243.86,64.87L240,65.91L237.94,66.26L231.15,67.99L232.11,68.33L244.41,71.45L244.66,71.79L245.08,74.21L245.09,74.56L244.6,90.47L244.32,90.82L241.51,92.55L240.75,92.9L235.63,94.28L233.32,94.63L219.99,96.7L220.31,97.05L226.24,98.09L229.06,98.43L240.95,100.51L241.73,100.85L243.83,102.93L243.92,103.28L243.5,106.04L243.35,106.39L243.18,108.12L243.29,108.46L242.97,109.5L242.43,109.85L238.02,112.27L238.38,112.62L243.98,116.08L244.14,116.42L244.93,119.88L244.91,120.23L245.09,133.03" style="vector-effect: non-scaling-stroke; fill: none; stroke: rgb(59, 2, 128); stroke-opacity: 1; stroke-width: 1px; opacity: 1;"/></g><g class="points"/><g class="text"/></g><g class="trace scatter trace4c9bc8" style="stroke-miterlimit: 2;"><g class="fills"/><g class="errorbars"/><g class="lines"><path class="js-line" d="M245.1,62.45L245.1,133.03" style="vector-effect: non-scaling-stroke; fill: none; stroke: rgb(0, 0, 0); stroke-opacity: 0; stroke-width: 1px; opacity: 1;"/></g><g class="points"/><g class="text"/></g><g class="trace scatter trace98de06" style="stroke-miterlimit: 2; opacity: 1;"><g class="fills"/><g class="errorbars"/><g class="lines"><path class="js-line" d="M245.1,92.55L241.51,92.55" style="vector-effect: non-scaling-stroke; fill: none; stroke: rgb(221, 64, 64); stroke-opacity: 1; stroke-width: 1px; opacity: 1; stroke-dasharray: 3px, 3px;"/></g><g class="points"/><g class="text"/></g><g class="trace scatter traceb901a5" style="stroke-miterlimit: 2; opacity: 1;"><g class="fills"/><g class="errorbars"/><g class="lines"><path class="js-line" d="M245.1,96.7L219.99,96.7" style="vector-effect: non-scaling-stroke; fill: none; stroke: rgb(221, 64, 64); stroke-opacity: 1; stroke-width: 1px; opacity: 1; stroke-dasharray: 3px, 3px;"/></g><g class="points"/><g class="text"/></g><g class="trace scatter trace701b7a" style="stroke-miterlimit: 2; opacity: 1;"><g class="fills"/><g class="errorbars"/><g class="lines"><path class="js-line" d="M245.1,99.47L236.69,99.47" style="vector-effect: non-scaling-stroke; fill: none; stroke: rgb(221, 64, 64); stroke-opacity: 1; stroke-width: 1px; opacity: 1; stroke-dasharray: 3px, 3px;"/></g><g class="points"/><g class="text"/></g><g class="trace scatter tracec48aa6" style="stroke-miterlimit: 2;"><g class="fills"><g><path class="js-fill" d="M286.83,42.84L286.83,163.18L286.82,163.18L286.74,155.51L286.73,154.92L284.79,139.59L284.69,139L284.32,121.89L284.34,121.3L285.23,111.86L285.32,111.27L286.52,101.83L286.56,101.24L286.34,92.39L286.27,91.8L281.68,77.05L281.5,76.47L280.91,71.75L280.96,71.16L283.76,62.9L284.01,62.31L286.04,55.82L286.15,55.23L286.81,42.84Z" style="fill: rgb(221, 64, 64); fill-opacity: 0.2; stroke-width: 0;"/></g></g><g class="errorbars"/><g class="lines"><path class="js-line" d="M286.81,42.84L286.15,55.23L286.04,55.82L284.01,62.31L283.76,62.9L280.96,71.16L280.91,71.75L281.5,76.47L281.68,77.05L286.27,91.8L286.34,92.39L286.56,101.24L286.52,101.83L285.32,111.27L285.23,111.86L284.34,121.3L284.32,121.89L284.69,139L284.79,139.59L286.73,154.92L286.74,155.51L286.82,163.18" style="vector-effect: non-scaling-stroke; fill: none; stroke: rgb(59, 2, 128); stroke-opacity: 1; stroke-width: 1px; opacity: 1;"/></g><g class="points"/><g class="text"/></g><g class="trace scatter trace18f758" style="stroke-miterlimit: 2;"><g class="fills"/><g class="errorbars"/><g class="lines"><path class="js-line" d="M286.83,42.84L286.83,163.18" style="vector-effect: non-scaling-stroke; fill: none; stroke: rgb(0, 0, 0); stroke-opacity: 0; stroke-width: 1px; opacity: 1;"/></g><g class="points"/><g class="text"/></g><g class="trace scatter tracef1e83e" style="stroke-miterlimit: 2; opacity: 1;"><g class="fills"/><g class="errorbars"/><g class="lines"><path class="js-line" d="M286.83,71.16L280.96,71.16" style="vector-effect: non-scaling-stroke; fill: none; stroke: rgb(221, 64, 64); stroke-opacity: 1; stroke-width: 1px; opacity: 1; stroke-dasharray: 3px, 3px;"/></g><g class="points"/><g class="text"/></g><g class="trace scatter tracefdcf17" style="stroke-miterlimit: 2; opacity: 1;"><g class="fills"/><g class="errorbars"/><g class="lines"><path class="js-line" d="M286.83,81.77L283.5,81.77" style="vector-effect: non-scaling-stroke; fill: none; stroke: rgb(221, 64, 64); stroke-opacity: 1; stroke-width: 1px; opacity: 1; stroke-dasharray: 3px, 3px;"/></g><g class="points"/><g class="text"/></g><g class="trace scatter trace342215" style="stroke-miterlimit: 2; opacity: 1;"><g class="fills"/><g class="errorbars"/><g class="lines"><path class="js-line" d="M286.83,123.66L284.28,123.66" style="vector-effect: non-scaling-stroke; fill: none; stroke: rgb(221, 64, 64); stroke-opacity: 1; stroke-width: 1px; opacity: 1; stroke-dasharray: 3px, 3px;"/></g><g class="points"/><g class="text"/></g><g class="trace scatter trace041d38" style="stroke-miterlimit: 2;"><g class="fills"><g><path class="js-fill" d="M329.95,74.92L329.95,87.45L329.93,87.45L329.65,86.59L329.58,86.53L304.75,83.03L304.3,82.97L297,80.69L296.84,80.63L296.4,80.32L299.22,79.09L299.43,79.03L322.71,76.57L323.52,76.51L328.89,75.84L329.09,75.78L329.93,74.92Z" style="fill: rgb(221, 64, 64); fill-opacity: 0.2; stroke-width: 0;"/></g></g><g class="errorbars"/><g class="lines"><path class="js-line" d="M329.93,74.92L329.09,75.78L328.89,75.84L323.52,76.51L322.71,76.57L299.43,79.03L299.22,79.09L296.4,80.32L296.84,80.63L297,80.69L304.3,82.97L304.75,83.03L329.58,86.53L329.65,86.59L329.93,87.45" style="vector-effect: non-scaling-stroke; fill: none; stroke: rgb(59, 2, 128); stroke-opacity: 1; stroke-width: 1px; opacity: 1;"/></g><g class="points"/><g class="text"/></g><g class="trace scatter trace10a77b" style="stroke-miterlimit: 2;"><g class="fills"/><g class="errorbars"/><g class="lines"><path class="js-line" d="M329.95,74.92L329.95,87.45" style="vector-effect: non-scaling-stroke; fill: none; stroke: rgb(0, 0, 0); stroke-opacity: 0; stroke-width: 1px; opacity: 1;"/></g><g class="points"/><g class="text"/></g><g class="trace scatter tracebc246f" style="stroke-miterlimit: 2; opacity: 1;"><g class="fills"/><g class="errorbars"/><g class="lines"><path class="js-line" d="M329.95,78.97L299.66,78.97" style="vector-effect: non-scaling-stroke; fill: none; stroke: rgb(221, 64, 64); stroke-opacity: 1; stroke-width: 1px; opacity: 1; stroke-dasharray: 3px, 3px;"/></g><g class="points"/><g class="text"/></g><g class="trace scatter trace07b2ab" style="stroke-miterlimit: 2; opacity: 1;"><g class="fills"/><g class="errorbars"/><g class="lines"><path class="js-line" d="M329.95,80.63L296.84,80.63" style="vector-effect: non-scaling-stroke; fill: none; stroke: rgb(221, 64, 64); stroke-opacity: 1; stroke-width: 1px; opacity: 1; stroke-dasharray: 3px, 3px;"/></g><g class="points"/><g class="text"/></g><g class="trace scatter trace612f35" style="stroke-miterlimit: 2; opacity: 1;"><g class="fills"/><g class="errorbars"/><g class="lines"><path class="js-line" d="M329.95,82.35L300.31,82.35" style="vector-effect: non-scaling-stroke; fill: none; stroke: rgb(221, 64, 64); stroke-opacity: 1; stroke-width: 1px; opacity: 1; stroke-dasharray: 3px, 3px;"/></g><g class="points"/><g class="text"/></g><g class="trace scatter traceb985d6" style="stroke-miterlimit: 2;"><g class="fills"><g><path class="js-fill" d="M373.07,39.21L373.07,131.67L373.07,131.67L373.05,102.66L373.06,102.21L372.8,94.5L372.73,94.05L370.55,89.52L370.26,89.06L365.56,84.99L364.99,84.53L363.99,82.72L363.94,82.27L361.27,78.64L360.94,78.19L360.91,76.37L361.2,75.92L370.86,67.31L371.28,66.86L372.27,64.14L372.34,63.69L373.07,39.21Z" style="fill: rgb(221, 64, 64); fill-opacity: 0.2; stroke-width: 0;"/></g></g><g class="errorbars"/><g class="lines"><path class="js-line" d="M373.07,39.21L372.34,63.69L372.27,64.14L371.28,66.86L370.86,67.31L361.2,75.92L360.91,76.37L360.94,78.19L361.27,78.64L363.94,82.27L363.99,82.72L364.99,84.53L365.56,84.99L370.26,89.06L370.55,89.52L372.73,94.05L372.8,94.5L373.06,102.21L373.05,102.66L373.07,131.67" style="vector-effect: non-scaling-stroke; fill: none; stroke: rgb(59, 2, 128); stroke-opacity: 1; stroke-width: 1px; opacity: 1;"/></g><g class="points"/><g class="text"/></g><g class="trace scatter trace0cd2bc" style="stroke-miterlimit: 2;"><g class="fills"/><g class="errorbars"/><g class="lines"><path class="js-line" d="M373.07,39.21L373.07,131.67" style="vector-effect: non-scaling-stroke; fill: none; stroke: rgb(0, 0, 0); stroke-opacity: 0; stroke-width: 1px; opacity: 1;"/></g><g class="points"/><g class="text"/></g><g class="trace scatter tracecee8c9" style="stroke-miterlimit: 2; opacity: 1;"><g class="fills"/><g class="errorbars"/><g class="lines"><path class="js-line" d="M373.07,73.66L363.29,73.66" style="vector-effect: non-scaling-stroke; fill: none; stroke: rgb(221, 64, 64); stroke-opacity: 1; stroke-width: 1px; opacity: 1; stroke-dasharray: 3px, 3px;"/></g><g class="points"/><g class="text"/></g><g class="trace scatter trace47839d" style="stroke-miterlimit: 2; opacity: 1;"><g class="fills"/><g class="errorbars"/><g class="lines"><path class="js-line" d="M373.07,77.73L360.72,77.73" style="vector-effect: non-scaling-stroke; fill: none; stroke: rgb(221, 64, 64); stroke-opacity: 1; stroke-width: 1px; opacity: 1; stroke-dasharray: 3px, 3px;"/></g><g class="points"/><g class="text"/></g><g class="trace scatter trace792b16" style="stroke-miterlimit: 2; opacity: 1;"><g class="fills"/><g class="errorbars"/><g class="lines"><path class="js-line" d="M373.07,82.72L363.99,82.72" style="vector-effect: non-scaling-stroke; fill: none; stroke: rgb(221, 64, 64); stroke-opacity: 1; stroke-width: 1px; opacity: 1; stroke-dasharray: 3px, 3px;"/></g><g class="points"/><g class="text"/></g><g class="trace scatter trace56555d" style="stroke-miterlimit: 2;"><g class="fills"><g><path class="js-fill" d="M412.02,26.33L412.02,133.33L412.02,133.33L412.01,127.04L412,126.51L411.54,118.65L411.45,118.12L407.06,108.16L406.84,107.63L406.25,104.48L406.29,103.96L408.11,99.24L408.39,98.71L410.31,93.99L410.41,93.47L409.95,74.06L409.91,73.54L407.38,66.19L407.17,65.67L406.41,62L406.44,61.47L409.08,54.65L409.34,54.13L411.22,48.88L411.33,48.36L412.02,26.33Z" style="fill: rgb(221, 64, 64); fill-opacity: 0.2; stroke-width: 0;"/></g></g><g class="errorbars"/><g class="lines"><path class="js-line" d="M412.02,26.33L411.33,48.36L411.22,48.88L409.34,54.13L409.08,54.65L406.44,61.47L406.41,62L407.17,65.67L407.38,66.19L409.91,73.54L409.95,74.06L410.41,93.47L410.31,93.99L408.39,98.71L408.11,99.24L406.29,103.96L406.25,104.48L406.84,107.63L407.06,108.16L411.45,118.12L411.54,118.65L412,126.51L412.01,127.04L412.02,133.33" style="vector-effect: non-scaling-stroke; fill: none; stroke: rgb(59, 2, 128); stroke-opacity: 1; stroke-width: 1px; opacity: 1;"/></g><g class="points"/><g class="text"/></g><g class="trace scatter traceb0547d" style="stroke-miterlimit: 2;"><g class="fills"/><g class="errorbars"/><g class="lines"><path class="js-line" d="M412.02,26.33L412.02,133.33" style="vector-effect: non-scaling-stroke; fill: none; stroke: rgb(0, 0, 0); stroke-opacity: 0; stroke-width: 1px; opacity: 1;"/></g><g class="points"/><g class="text"/></g><g class="trace scatter trace54ccf0" style="stroke-miterlimit: 2; opacity: 1;"><g class="fills"/><g class="errorbars"/><g class="lines"><path class="js-line" d="M412.02,63.57L406.55,63.57" style="vector-effect: non-scaling-stroke; fill: none; stroke: rgb(221, 64, 64); stroke-opacity: 1; stroke-width: 1px; opacity: 1; stroke-dasharray: 3px, 3px;"/></g><g class="points"/><g class="text"/></g><g class="trace scatter trace329da5" style="stroke-miterlimit: 2; opacity: 1;"><g class="fills"/><g class="errorbars"/><g class="lines"><path class="js-line" d="M412.02,81.4L409.81,81.4" style="vector-effect: non-scaling-stroke; fill: none; stroke: rgb(221, 64, 64); stroke-opacity: 1; stroke-width: 1px; opacity: 1; stroke-dasharray: 3px, 3px;"/></g><g class="points"/><g class="text"/></g><g class="trace scatter traced81f11" style="stroke-miterlimit: 2; opacity: 1;"><g class="fills"/><g class="errorbars"/><g class="lines"><path class="js-line" d="M412.02,102.91L406.5,102.91" style="vector-effect: non-scaling-stroke; fill: none; stroke: rgb(221, 64, 64); stroke-opacity: 1; stroke-width: 1px; opacity: 1; stroke-dasharray: 3px, 3px;"/></g><g class="points"/><g class="text"/></g><g class="trace scatter trace258410" style="stroke-miterlimit: 2;"><g class="fills"><g><path class="js-fill" d="M455.15,37.45L455.15,171.93L455.14,171.93L455.08,166L455.08,165.34L454.74,160.06L454.52,159.4L451.52,156.77L450.43,156.11L447.67,152.81L447,152.15L441.11,148.2L440.1,147.54L439.22,146.22L439.56,145.56L451.37,141.61L452.72,140.95L454.25,139.63L454.63,138.97L455.05,129.74L455.03,129.08L452.98,121.17L452.88,120.51L454.83,115.24L455,114.58L455.11,94.8L455.08,94.14L454.32,89.53L454.07,88.87L454,86.23L454.21,85.57L454.94,80.96L454.93,80.3L453.22,75.69L452.98,75.03L454.18,71.73L454.45,71.07L455.14,37.45Z" style="fill: rgb(221, 64, 64); fill-opacity: 0.2; stroke-width: 0;"/></g></g><g class="errorbars"/><g class="lines"><path class="js-line" d="M455.14,37.45L454.45,71.07L454.18,71.73L452.98,75.03L453.22,75.69L454.93,80.3L454.94,80.96L454.21,85.57L454,86.23L454.07,88.87L454.32,89.53L455.08,94.14L455.11,94.8L455,114.58L454.83,115.24L452.88,120.51L452.98,121.17L455.03,129.08L455.05,129.74L454.63,138.97L454.25,139.63L452.72,140.95L451.37,141.61L439.56,145.56L439.22,146.22L440.1,147.54L441.11,148.2L447,152.15L447.67,152.81L450.43,156.11L451.52,156.77L454.52,159.4L454.74,160.06L455.08,165.34L455.08,166L455.14,171.93" style="vector-effect: non-scaling-stroke; fill: none; stroke: rgb(59, 2, 128); stroke-opacity: 1; stroke-width: 1px; opacity: 1;"/></g><g class="points"/><g class="text"/></g><g class="trace scatter traced0c532" style="stroke-miterlimit: 2;"><g class="fills"/><g class="errorbars"/><g class="lines"><path class="js-line" d="M455.15,37.45L455.15,171.93" style="vector-effect: non-scaling-stroke; fill: none; stroke: rgb(0, 0, 0); stroke-opacity: 0; stroke-width: 1px; opacity: 1;"/></g><g class="points"/><g class="text"/></g><g class="trace scatter traceea957f" style="stroke-miterlimit: 2; opacity: 1;"><g class="fills"/><g class="errorbars"/><g class="lines"><path class="js-line" d="M455.15,141.61L451.37,141.61" style="vector-effect: non-scaling-stroke; fill: none; stroke: rgb(221, 64, 64); stroke-opacity: 1; stroke-width: 1px; opacity: 1; stroke-dasharray: 3px, 3px;"/></g><g class="points"/><g class="text"/></g><g class="trace scatter traced79df4" style="stroke-miterlimit: 2; opacity: 1;"><g class="fills"/><g class="errorbars"/><g class="lines"><path class="js-line" d="M455.15,146.22L439.22,146.22" style="vector-effect: non-scaling-stroke; fill: none; stroke: rgb(221, 64, 64); stroke-opacity: 1; stroke-width: 1px; opacity: 1; stroke-dasharray: 3px, 3px;"/></g><g class="points"/><g class="text"/></g><g class="trace scatter trace681efe" style="stroke-miterlimit: 2; opacity: 1;"><g class="fills"/><g class="errorbars"/><g class="lines"><path class="js-line" d="M455.15,150.18L444.52,150.18" style="vector-effect: non-scaling-stroke; fill: none; stroke: rgb(221, 64, 64); stroke-opacity: 1; stroke-width: 1px; opacity: 1; stroke-dasharray: 3px, 3px;"/></g><g class="points"/><g class="text"/></g><g class="trace scatter tracee2082a" style="stroke-miterlimit: 2;"><g class="fills"><g><path class="js-fill" d="M496.88,36.85L496.88,198.12L496.86,198.12L496.84,194.96L496.82,193.38L494.44,163.34L494.33,161.75L496.28,136.46L496.4,134.88L496.6,119.07L496.53,117.48L494.82,103.25L494.53,101.67L492.95,90.61L492.88,89.03L495.93,65.31L496.11,63.73L496.86,36.85Z" style="fill: rgb(221, 64, 64); fill-opacity: 0.2; stroke-width: 0;"/></g></g><g class="errorbars"/><g class="lines"><path class="js-line" d="M496.86,36.85L496.11,63.73L495.93,65.31L492.88,89.03L492.95,90.61L494.53,101.67L494.82,103.25L496.53,117.48L496.6,119.07L496.4,134.88L496.28,136.46L494.33,161.75L494.44,163.34L496.82,193.38L496.84,194.96L496.86,198.12" style="vector-effect: non-scaling-stroke; fill: none; stroke: rgb(59, 2, 128); stroke-opacity: 1; stroke-width: 1px; opacity: 1;"/></g><g class="points"/><g class="text"/></g><g class="trace scatter trace9958d6" style="stroke-miterlimit: 2;"><g class="fills"/><g class="errorbars"/><g class="lines"><path class="js-line" d="M496.88,36.85L496.88,198.12" style="vector-effect: non-scaling-stroke; fill: none; stroke: rgb(0, 0, 0); stroke-opacity: 0; stroke-width: 1px; opacity: 1;"/></g><g class="points"/><g class="text"/></g><g class="trace scatter trace1c4135" style="stroke-miterlimit: 2; opacity: 1;"><g class="fills"/><g class="errorbars"/><g class="lines"><path class="js-line" d="M496.88,84.28L493.02,84.28" style="vector-effect: non-scaling-stroke; fill: none; stroke: rgb(221, 64, 64); stroke-opacity: 1; stroke-width: 1px; opacity: 1; stroke-dasharray: 3px, 3px;"/></g><g class="points"/><g class="text"/></g><g class="trace scatter trace3e41ac" style="stroke-miterlimit: 2; opacity: 1;"><g class="fills"/><g class="errorbars"/><g class="lines"><path class="js-line" d="M496.88,100.09L494.24,100.09" style="vector-effect: non-scaling-stroke; fill: none; stroke: rgb(221, 64, 64); stroke-opacity: 1; stroke-width: 1px; opacity: 1; stroke-dasharray: 3px, 3px;"/></g><g class="points"/><g class="text"/></g><g class="trace scatter trace1e6591" style="stroke-miterlimit: 2; opacity: 1;"><g class="fills"/><g class="errorbars"/><g class="lines"><path class="js-line" d="M496.88,153.85L494.39,153.85" style="vector-effect: non-scaling-stroke; fill: none; stroke: rgb(221, 64, 64); stroke-opacity: 1; stroke-width: 1px; opacity: 1; stroke-dasharray: 3px, 3px;"/></g><g class="points"/><g class="text"/></g><g class="trace scatter trace4b0b8c" style="stroke-miterlimit: 2;"><g class="fills"><g><path class="js-fill" d="M0,0Z" style="stroke-width: 0; fill: rgb(0, 200, 229); fill-opacity: 0.2;"/></g></g><g class="errorbars"/><g class="lines"/><g class="points"/><g class="text"/></g><g class="trace scatter tracee10dc1" style="stroke-miterlimit: 2;"><g class="fills"/><g class="errorbars"/><g class="lines"/><g class="points"/><g class="text"/></g><g class="trace scatter tracee89f0b" style="stroke-miterlimit: 2;"><g class="fills"><g><path class="js-fill" d="M0,0Z" style="stroke-width: 0; fill: rgb(59, 2, 128); fill-opacity: 0.2;"/></g></g><g class="errorbars"/><g class="lines"/><g class="points"/><g class="text"/></g><g class="trace scatter trace92352a" style="stroke-miterlimit: 2;"><g class="fills"/><g class="errorbars"/><g class="lines"/><g class="points"/><g class="text"/></g><g class="trace scatter trace663c38" style="stroke-miterlimit: 2;"><g class="fills"><g><path class="js-fill" d="M0,0Z" style="stroke-width: 0; fill: rgb(221, 64, 64); fill-opacity: 0.2;"/></g></g><g class="errorbars"/><g class="lines"/><g class="points"/><g class="text"/></g><g class="trace scatter tracead7e89" style="stroke-miterlimit: 2;"><g class="fills"/><g class="errorbars"/><g class="lines"/><g class="points"/><g class="text"/></g><g class="trace scatter tracef8e4fd" style="stroke-miterlimit: 2; opacity: 1;"><g class="fills"/><g class="errorbars"/><g class="lines"/><g class="points"/><g class="text"/></g></g></g><g class="overplot"/><path class="xlines-above crisp" d="M79,387.5H621M79,99.5H621" style="fill: none; stroke-width: 1px; stroke: rgb(102, 102, 102); stroke-opacity: 1;"/><path class="ylines-above crisp" d="M79.5,100V387M620.5,100V387" style="fill: none; stroke-width: 1px; stroke: rgb(102, 102, 102); stroke-opacity: 1;"/><g class="overlines-above"/><g class="xaxislayer-above"><g class="xtick"><text text-anchor="middle" x="0" y="402.4" transform="translate(154,0)" style="font-family: 'Open Sans', verdana, arial, sans-serif; font-size: 12px; fill: rgb(42, 63, 95); fill-opacity: 1; white-space: pre; opacity: 1;">Jul 2021</text></g><g class="xtick"><text text-anchor="middle" x="0" y="402.4" style="font-family: 'Open Sans', verdana, arial, sans-serif; font-size: 12px; fill: rgb(42, 63, 95); fill-opacity: 1; white-space: pre; opacity: 1;" transform="translate(240.24,0)">Sep 2021</text></g><g class="xtick"><text text-anchor="middle" x="0" y="402.4" style="font-family: 'Open Sans', verdana, arial, sans-serif; font-size: 12px; fill: rgb(42, 63, 95); fill-opacity: 1; white-space: pre; opacity: 1;" transform="translate(325.1,0)">Nov 2021</text></g><g class="xtick"><text text-anchor="middle" x="0" y="402.4" style="font-family: 'Open Sans', verdana, arial, sans-serif; font-size: 12px; fill: rgb(42, 63, 95); fill-opacity: 1; white-space: pre; opacity: 1;" transform="translate(409.95,0)">Jan 2022</text></g><g class="xtick"><text text-anchor="middle" x="0" y="402.4" style="font-family: 'Open Sans', verdana, arial, sans-serif; font-size: 12px; fill: rgb(42, 63, 95); fill-opacity: 1; white-space: pre; opacity: 1;" transform="translate(492.02,0)">Mar 2022</text></g><g class="xtick"><text text-anchor="middle" x="0" y="402.4" style="font-family: 'Open Sans', verdana, arial, sans-serif; font-size: 12px; fill: rgb(42, 63, 95); fill-opacity: 1; white-space: pre; opacity: 1;" transform="translate(576.88,0)">May 2022</text></g></g><g class="yaxislayer-above"><g class="ytick"><text text-anchor="end" x="76.6" y="4.199999999999999" transform="translate(0,373.73)" style="font-family: 'Open Sans', verdana, arial, sans-serif; font-size: 12px; fill: rgb(42, 63, 95); fill-opacity: 1; white-space: pre; opacity: 1;">−114</text></g><g class="ytick"><text text-anchor="end" x="76.6" y="4.199999999999999" style="font-family: 'Open Sans', verdana, arial, sans-serif; font-size: 12px; fill: rgb(42, 63, 95); fill-opacity: 1; white-space: pre; opacity: 1;" transform="translate(0,325.14)">−116</text></g><g class="ytick"><text text-anchor="end" x="76.6" y="4.199999999999999" style="font-family: 'Open Sans', verdana, arial, sans-serif; font-size: 12px; fill: rgb(42, 63, 95); fill-opacity: 1; white-space: pre; opacity: 1;" transform="translate(0,276.55)">−118</text></g><g class="ytick"><text text-anchor="end" x="76.6" y="4.199999999999999" style="font-family: 'Open Sans', verdana, arial, sans-serif; font-size: 12px; fill: rgb(42, 63, 95); fill-opacity: 1; white-space: pre; opacity: 1;" transform="translate(0,227.97)">−120</text></g><g class="ytick"><text text-anchor="end" x="76.6" y="4.199999999999999" style="font-family: 'Open Sans', verdana, arial, sans-serif; font-size: 12px; fill: rgb(42, 63, 95); fill-opacity: 1; white-space: pre; opacity: 1;" transform="translate(0,179.38)">−122</text></g><g class="ytick"><text text-anchor="end" x="76.6" y="4.199999999999999" style="font-family: 'Open Sans', verdana, arial, sans-serif; font-size: 12px; fill: rgb(42, 63, 95); fill-opacity: 1; white-space: pre; opacity: 1;" transform="translate(0,130.79)">−124</text></g></g><g class="overaxes-above"/></g></g><g class="polarlayer"/><g class="smithlayer"/><g class="ternarylayer"/><g class="geolayer"/><g class="funnelarealayer"/><g class="pielayer"/><g class="iciclelayer"/><g class="treemaplayer"/><g class="sunburstlayer"/><g class="glimages"/><defs id="topdefs-fee942"><g class="clips"/><clipPath id="legendfee942"><rect width="512" height="29" x="0" y="0"/></clipPath></defs><g class="layer-above"><g class="imagelayer"/><g class="shapelayer"/></g><g class="infolayer"><g class="legend" pointer-events="all" transform="translate(80,458.75)"><rect class="bg" shape-rendering="crispEdges" style="stroke: rgb(68, 68, 68); stroke-opacity: 1; fill: rgb(255, 255, 255); fill-opacity: 1; stroke-width: 0px;" width="512" height="29" x="0" y="0"/><g class="scrollbox" transform="" clip-path="url(#legendfee942)"><g class="groups"><g class="traces" transform="translate(0,14.5)" style="opacity: 1;"><text class="legendtext" text-anchor="start" x="40" y="4.680000000000001" style="font-family: 'Open Sans', verdana, arial, sans-serif; font-size: 12px; fill: rgb(42, 63, 95); fill-opacity: 1; white-space: pre;">Reference period</text><g class="layers"><g class="legendfill"><path class="js-fill" d="M5,-2h30v6h-30z" style="stroke-width: 0; fill: rgb(0, 200, 229); fill-opacity: 0.2;"/></g><g class="legendlines"><path class="js-line" d="M5,-2h30" style="fill: none; stroke: rgb(0, 200, 229); stroke-opacity: 1; stroke-width: 1px;"/></g><g class="legendsymbols"><g class="legendpoints"/></g></g><rect class="legendtoggle" x="0" y="-9.5" width="134.5625" height="19" style="fill: rgb(0, 0, 0); fill-opacity: 0;"/></g><g class="traces" transform="translate(137.0625,14.5)" style="opacity: 1;"><text class="legendtext" text-anchor="start" x="40" y="4.680000000000001" style="font-family: 'Open Sans', verdana, arial, sans-serif; font-size: 12px; fill: rgb(42, 63, 95); fill-opacity: 1; white-space: pre;">Analysis period</text><g class="layers"><g class="legendfill"><path class="js-fill" d="M5,-2h30v6h-30z" style="stroke-width: 0; fill: rgb(59, 2, 128); fill-opacity: 0.2;"/></g><g class="legendlines"><path class="js-line" d="M5,-2h30" style="fill: none; stroke: rgb(59, 2, 128); stroke-opacity: 1; stroke-width: 1px;"/></g><g class="legendsymbols"><g class="legendpoints"/></g></g><rect class="legendtoggle" x="0" y="-9.5" width="123.875" height="19" style="fill: rgb(0, 0, 0); fill-opacity: 0;"/></g><g class="traces" transform="translate(263.4375,14.5)" style="opacity: 1;"><text class="legendtext" text-anchor="start" x="40" y="4.680000000000001" style="font-family: 'Open Sans', verdana, arial, sans-serif; font-size: 12px; fill: rgb(42, 63, 95); fill-opacity: 1; white-space: pre;">Period with data drift</text><g class="layers"><g class="legendfill"><path class="js-fill" d="M5,-2h30v6h-30z" style="stroke-width: 0; fill: rgb(221, 64, 64); fill-opacity: 0.2;"/></g><g class="legendlines"><path class="js-line" d="M5,-2h30" style="fill: none; stroke: rgb(0, 0, 0); stroke-opacity: 0; stroke-width: 1px;"/></g><g class="legendsymbols"><g class="legendpoints"/></g></g><rect class="legendtoggle" x="0" y="-9.5" width="152.5625" height="19" style="fill: rgb(0, 0, 0); fill-opacity: 0;"/></g><g class="traces" transform="translate(418.5,14.5)" style="opacity: 1;"><text class="legendtext" text-anchor="start" x="40" y="4.680000000000001" style="font-family: 'Open Sans', verdana, arial, sans-serif; font-size: 12px; fill: rgb(42, 63, 95); fill-opacity: 1; white-space: pre;">Quartiles</text><g class="layers" style="opacity: 1;"><g class="legendfill"/><g class="legendlines"><path class="js-line" d="M5,0h30" style="fill: none; stroke: rgb(102, 102, 102); stroke-opacity: 1; stroke-dasharray: 3px, 3px; stroke-width: 1px;"/></g><g class="legendsymbols"><g class="legendpoints"/></g></g><rect class="legendtoggle" x="0" y="-9.5" width="90.53125" height="19" style="fill: rgb(0, 0, 0); fill-opacity: 0;"/></g></g></g><rect class="scrollbar" rx="20" ry="3" width="0" height="0" style="fill: rgb(128, 139, 164); fill-opacity: 1;" x="0" y="0"/></g><g class="g-gtitle"><text class="gtitle" x="35" y="50" text-anchor="start" dy="0em" style="font-family: 'Open Sans', verdana, arial, sans-serif; font-size: 17px; fill: rgb(42, 63, 95); opacity: 1; font-weight: normal; white-space: pre;">Distribution over time for Longitude</text></g><g class="g-xtitle"><text class="xtitle" x="350" y="430.20625" text-anchor="middle" style="font-family: 'Open Sans', verdana, arial, sans-serif; font-size: 14px; fill: rgb(42, 63, 95); opacity: 1; font-weight: normal; white-space: pre;">Longitude</text></g><g class="g-ytitle"><text class="ytitle" transform="rotate(-90,24.762500000000003,243.5)" x="24.762500000000003" y="243.5" text-anchor="middle" style="font-family: 'Open Sans', verdana, arial, sans-serif; font-size: 14px; fill: rgb(42, 63, 95); opacity: 1; font-weight: normal; white-space: pre;">Time</text></g></g></svg>
