<svg class="main-svg" xmlns="http://www.w3.org/2000/svg" xmlns:xlink="http://www.w3.org/1999/xlink" width="700" height="500" style="" viewBox="0 0 700 500"><rect x="0" y="0" width="700" height="500" style="fill: rgb(255, 255, 255); fill-opacity: 1;"/><defs id="defs-0b670d"><g class="clips"><clipPath id="clip0b670dxyplot" class="plotclip"><rect width="521" height="272"/></clipPath><clipPath class="axesclip" id="clip0b670dx"><rect x="99" y="0" width="521" height="500"/></clipPath><clipPath class="axesclip" id="clip0b670dy"><rect x="0" y="100" width="700" height="272"/></clipPath><clipPath class="axesclip" id="clip0b670dxy"><rect x="99" y="100" width="521" height="272"/></clipPath></g><g class="gradients"/><g class="patterns"/></defs><g class="bglayer"/><g class="layer-below"><g class="imagelayer"/><g class="shapelayer"/></g><g class="cartesianlayer"><g class="subplot xy"><g class="layer-subplot"><g class="shapelayer"/><g class="imagelayer"/></g><g class="gridlayer"><g class="x"/><g class="y"/></g><g class="zerolinelayer"/><path class="xlines-below"/><path class="ylines-below"/><g class="overlines-below"/><g class="xaxislayer-below"/><g class="yaxislayer-below"/><g class="overaxes-below"/><g class="plot" transform="translate(99,100)" clip-path="url(#clip0b670dxyplot)"><g class="scatterlayer mlayer"><g class="trace scatter tracec46832" style="stroke-miterlimit: 2;"><g class="fills"><g><path class="js-fill" d="M116.72,33.29L350.3,33.29L350.3,33.28L350.07,33.28L349.85,33.27L348.25,32.57L348.02,32.22L345.96,22.82L345.74,21.37L344.59,16.23L344.37,15.79L343.68,15.42L343.45,15.45L340.26,13.64L340.03,13.6L337.74,20.72L337.52,21.76L335.46,29.87L335.23,30.44L331.35,32.51L331.12,32.61L134.08,33.06L133.85,33.07L131.11,32.36L130.88,32.22L128.6,31.62L128.37,31.64L124.71,32.45L124.49,32.55L116.72,33.28Z" style="fill: rgb(221, 64, 64); fill-opacity: 0.2; stroke-width: 0;"/></g></g><g class="errorbars"/><g class="lines"><path class="js-line" d="M116.72,33.28L124.49,32.55L124.71,32.45L128.37,31.64L128.6,31.62L130.88,32.22L131.11,32.36L133.85,33.07L134.08,33.06L331.12,32.61L331.35,32.51L335.23,30.44L335.46,29.87L337.52,21.76L337.74,20.72L340.03,13.6L340.26,13.64L343.45,15.45L343.68,15.42L344.37,15.79L344.59,16.23L345.74,21.37L345.96,22.82L348.02,32.22L348.25,32.57L349.85,33.27L350.07,33.28L350.3,33.28" style="vector-effect: non-scaling-stroke; fill: none; stroke: rgb(59, 2, 128); stroke-opacity: 1; stroke-width: 1px; opacity: 1;"/></g><g class="points"/><g class="text"/></g><g class="trace scatter tracee34404" style="stroke-miterlimit: 2;"><g class="fills"/><g class="errorbars"/><g class="lines"><path class="js-line" d="M116.72,33.29L350.3,33.29" style="vector-effect: non-scaling-stroke; fill: none; stroke: rgb(0, 0, 0); stroke-opacity: 0; stroke-width: 1px; opacity: 1;"/></g><g class="points"/><g class="text"/></g><g class="trace scatter traceaf2e72" style="stroke-miterlimit: 2; opacity: 1;"><g class="fills"/><g class="errorbars"/><g class="lines"><path class="js-line" d="M338.2,33.29L338.2,18.64" style="vector-effect: non-scaling-stroke; fill: none; stroke: rgb(221, 64, 64); stroke-opacity: 1; stroke-width: 1px; opacity: 1; stroke-dasharray: 3px, 3px;"/></g><g class="points"/><g class="text"/></g><g class="trace scatter tracea1de5d" style="stroke-miterlimit: 2; opacity: 1;"><g class="fills"/><g class="errorbars"/><g class="lines"><path class="js-line" d="M340.94,33.29L340.94,14.28" style="vector-effect: non-scaling-stroke; fill: none; stroke: rgb(221, 64, 64); stroke-opacity: 1; stroke-width: 1px; opacity: 1; stroke-dasharray: 3px, 3px;"/></g><g class="points"/><g class="text"/></g><g class="trace scatter trace8d63c8" style="stroke-miterlimit: 2; opacity: 1;"><g class="fills"/><g class="errorbars"/><g class="lines"><path class="js-line" d="M343.45,33.29L343.45,15.45" style="vector-effect: non-scaling-stroke; fill: none; stroke: rgb(221, 64, 64); stroke-opacity: 1; stroke-width: 1px; opacity: 1; stroke-dasharray: 3px, 3px;"/></g><g class="points"/><g class="text"/></g><g class="trace scatter tracecde383" style="stroke-miterlimit: 2;"><g class="fills"><g><path class="js-fill" d="M136.19,52.98L338.2,52.98L338.2,52.97L275.01,52.98L274.81,52.98L268.69,52.8L268.49,52.77L266.12,51.74L265.93,51.59L264.15,52.16L263.95,52.3L186.35,52.98L186.15,52.98L182.59,52.84L182.4,52.77L180.82,52.08L180.62,52.12L169.76,52.92L169.56,52.92L164.23,50.52L164.03,50.43L162.65,51.04L162.45,51.27L157.71,52.64L157.52,52.67L153.57,52.77L153.37,52.75L151.2,52.3L151,52.14L147.84,36.4L147.64,35.45L146.85,33.29L146.65,33.06L145.67,32.65L145.47,32.77L143.3,41.3L143.1,42.57L141.72,50.14L141.52,50.71L140.34,52.19L140.14,52.29L136.19,52.97Z" style="fill: rgb(221, 64, 64); fill-opacity: 0.2; stroke-width: 0;"/></g></g><g class="errorbars"/><g class="lines"><path class="js-line" d="M136.19,52.97L140.14,52.29L140.34,52.19L141.52,50.71L141.72,50.14L143.1,42.57L143.3,41.3L145.47,32.77L145.67,32.65L146.65,33.06L146.85,33.29L147.64,35.45L147.84,36.4L151,52.14L151.2,52.3L153.37,52.75L153.57,52.77L157.52,52.67L157.71,52.64L162.45,51.27L162.65,51.04L164.03,50.43L164.23,50.52L169.56,52.92L169.76,52.92L180.62,52.12L180.82,52.08L182.4,52.77L182.59,52.84L186.15,52.98L186.35,52.98L263.95,52.3L264.15,52.16L265.93,51.59L266.12,51.74L268.49,52.77L268.69,52.8L274.81,52.98L275.01,52.98L338.2,52.97" style="vector-effect: non-scaling-stroke; fill: none; stroke: rgb(59, 2, 128); stroke-opacity: 1; stroke-width: 1px; opacity: 1;"/></g><g class="points"/><g class="text"/></g><g class="trace scatter trace002ea4" style="stroke-miterlimit: 2;"><g class="fills"/><g class="errorbars"/><g class="lines"><path class="js-line" d="M136.19,52.98L338.2,52.98" style="vector-effect: non-scaling-stroke; fill: none; stroke: rgb(0, 0, 0); stroke-opacity: 0; stroke-width: 1px; opacity: 1;"/></g><g class="points"/><g class="text"/></g><g class="trace scatter traceeb0443" style="stroke-miterlimit: 2; opacity: 1;"><g class="fills"/><g class="errorbars"/><g class="lines"><path class="js-line" d="M144.68,52.98L144.68,34.48" style="vector-effect: non-scaling-stroke; fill: none; stroke: rgb(221, 64, 64); stroke-opacity: 1; stroke-width: 1px; opacity: 1; stroke-dasharray: 3px, 3px;"/></g><g class="points"/><g class="text"/></g><g class="trace scatter trace7e47dc" style="stroke-miterlimit: 2; opacity: 1;"><g class="fills"/><g class="errorbars"/><g class="lines"><path class="js-line" d="M146.65,52.98L146.65,33.06" style="vector-effect: non-scaling-stroke; fill: none; stroke: rgb(221, 64, 64); stroke-opacity: 1; stroke-width: 1px; opacity: 1; stroke-dasharray: 3px, 3px;"/></g><g class="points"/><g class="text"/></g><g class="trace scatter trace9f32e0" style="stroke-miterlimit: 2; opacity: 1;"><g class="fills"/><g class="errorbars"/><g class="lines"><path class="js-line" d="M148.83,52.98L148.83,42.98" style="vector-effect: non-scaling-stroke; fill: none; stroke: rgb(221, 64, 64); stroke-opacity: 1; stroke-width: 1px; opacity: 1; stroke-dasharray: 3px, 3px;"/></g><g class="points"/><g class="text"/></g><g class="trace scatter tracec33c42" style="stroke-miterlimit: 2;"><g class="fills"><g><path class="js-fill" d="M80.24,73.32L213.06,73.32L213.06,73.32L210.07,73.27L209.94,73.26L189.95,73.28L189.82,73.28L182.55,72.91L182.42,72.89L175.28,73.22L175.15,73.22L168.14,73.16L168.01,73.15L163.07,72.95L162.94,72.92L157.62,73.08L157.49,73.09L153.21,70.9L153.08,70.83L145.81,72.56L145.68,72.6L105.56,73.32L105.43,73.32L99.85,73.22L99.72,73.2L96.99,71.5L96.86,71.37L94.65,70.07L94.52,70.03L91.41,64.66L91.28,64.38L89.07,57.59L88.94,56.99L87.9,53.26L87.77,53.08L87.64,52.98L84.14,68.61L84.01,69.16L82.84,72.31L82.71,72.48L80.24,73.32Z" style="fill: rgb(221, 64, 64); fill-opacity: 0.2; stroke-width: 0;"/></g></g><g class="errorbars"/><g class="lines"><path class="js-line" d="M80.24,73.32L82.71,72.48L82.84,72.31L84.01,69.16L84.14,68.61L87.64,52.98L87.77,53.08L87.9,53.26L88.94,56.99L89.07,57.59L91.28,64.38L91.41,64.66L94.52,70.03L94.65,70.07L96.86,71.37L96.99,71.5L99.72,73.2L99.85,73.22L105.43,73.32L105.56,73.32L145.68,72.6L145.81,72.56L153.08,70.83L153.21,70.9L157.49,73.09L157.62,73.08L162.94,72.92L163.07,72.95L168.01,73.15L168.14,73.16L175.15,73.22L175.28,73.22L182.42,72.89L182.55,72.91L189.82,73.28L189.95,73.28L209.94,73.26L210.07,73.27L213.06,73.32" style="vector-effect: non-scaling-stroke; fill: none; stroke: rgb(59, 2, 128); stroke-opacity: 1; stroke-width: 1px; opacity: 1;"/></g><g class="points"/><g class="text"/></g><g class="trace scatter trace4dcbbd" style="stroke-miterlimit: 2;"><g class="fills"/><g class="errorbars"/><g class="lines"><path class="js-line" d="M80.24,73.32L213.06,73.32" style="vector-effect: non-scaling-stroke; fill: none; stroke: rgb(0, 0, 0); stroke-opacity: 0; stroke-width: 1px; opacity: 1;"/></g><g class="points"/><g class="text"/></g><g class="trace scatter traceb4f177" style="stroke-miterlimit: 2; opacity: 1;"><g class="fills"/><g class="errorbars"/><g class="lines"><path class="js-line" d="M86.99,73.32L86.99,53.79" style="vector-effect: non-scaling-stroke; fill: none; stroke: rgb(221, 64, 64); stroke-opacity: 1; stroke-width: 1px; opacity: 1; stroke-dasharray: 3px, 3px;"/></g><g class="points"/><g class="text"/></g><g class="trace scatter trace65e4b0" style="stroke-miterlimit: 2; opacity: 1;"><g class="fills"/><g class="errorbars"/><g class="lines"><path class="js-line" d="M89.2,73.32L89.2,58.2" style="vector-effect: non-scaling-stroke; fill: none; stroke: rgb(221, 64, 64); stroke-opacity: 1; stroke-width: 1px; opacity: 1; stroke-dasharray: 3px, 3px;"/></g><g class="points"/><g class="text"/></g><g class="trace scatter trace48f744" style="stroke-miterlimit: 2; opacity: 1;"><g class="fills"/><g class="errorbars"/><g class="lines"><path class="js-line" d="M93.75,73.32L93.75,69.5" style="vector-effect: non-scaling-stroke; fill: none; stroke: rgb(221, 64, 64); stroke-opacity: 1; stroke-width: 1px; opacity: 1; stroke-dasharray: 3px, 3px;"/></g><g class="points"/><g class="text"/></g><g class="trace scatter tracef5797e" style="stroke-miterlimit: 2;"><g class="fills"><g><path class="js-fill" d="M72.58,93.67L115.45,93.67L115.45,93.66L113.15,93.57L113.11,93.56L108.66,91.24L108.62,91.2L104.6,90.46L104.56,90.46L101.83,88.25L101.79,88.19L99.99,86.34L99.95,86.32L96.51,88.13L96.47,88.15L95.17,88.3L95.13,88.28L91.02,76.33L90.98,76.2L89.97,74.15L89.93,74.11L89.84,74.05L86.16,80.73L86.11,80.8L82.47,82.25L82.43,82.26L78.23,89.72L78.19,89.81L76.31,92.7L76.26,92.74L72.58,93.66Z" style="fill: rgb(221, 64, 64); fill-opacity: 0.2; stroke-width: 0;"/></g></g><g class="errorbars"/><g class="lines"><path class="js-line" d="M72.58,93.66L76.26,92.74L76.31,92.7L78.19,89.81L78.23,89.72L82.43,82.26L82.47,82.25L86.11,80.8L86.16,80.73L89.84,74.05L89.93,74.11L89.97,74.15L90.98,76.2L91.02,76.33L95.13,88.28L95.17,88.3L96.47,88.15L96.51,88.13L99.95,86.32L99.99,86.34L101.79,88.19L101.83,88.25L104.56,90.46L104.6,90.46L108.62,91.2L108.66,91.24L113.11,93.56L113.15,93.57L115.45,93.66" style="vector-effect: non-scaling-stroke; fill: none; stroke: rgb(59, 2, 128); stroke-opacity: 1; stroke-width: 1px; opacity: 1;"/></g><g class="points"/><g class="text"/></g><g class="trace scatter tracea5bbdc" style="stroke-miterlimit: 2;"><g class="fills"/><g class="errorbars"/><g class="lines"><path class="js-line" d="M72.58,93.67L115.45,93.67" style="vector-effect: non-scaling-stroke; fill: none; stroke: rgb(0, 0, 0); stroke-opacity: 0; stroke-width: 1px; opacity: 1;"/></g><g class="points"/><g class="text"/></g><g class="trace scatter trace98800a" style="stroke-miterlimit: 2; opacity: 1;"><g class="fills"/><g class="errorbars"/><g class="lines"><path class="js-line" d="M85.02,93.67L85.02,81.92" style="vector-effect: non-scaling-stroke; fill: none; stroke: rgb(221, 64, 64); stroke-opacity: 1; stroke-width: 1px; opacity: 1; stroke-dasharray: 3px, 3px;"/></g><g class="points"/><g class="text"/></g><g class="trace scatter trace57cee6" style="stroke-miterlimit: 2; opacity: 1;"><g class="fills"/><g class="errorbars"/><g class="lines"><path class="js-line" d="M89.55,93.67L89.55,73.98" style="vector-effect: non-scaling-stroke; fill: none; stroke: rgb(221, 64, 64); stroke-opacity: 1; stroke-width: 1px; opacity: 1; stroke-dasharray: 3px, 3px;"/></g><g class="points"/><g class="text"/></g><g class="trace scatter trace551a47" style="stroke-miterlimit: 2; opacity: 1;"><g class="fills"/><g class="errorbars"/><g class="lines"><path class="js-line" d="M95.25,93.67L95.25,88.34" style="vector-effect: non-scaling-stroke; fill: none; stroke: rgb(221, 64, 64); stroke-opacity: 1; stroke-width: 1px; opacity: 1; stroke-dasharray: 3px, 3px;"/></g><g class="points"/><g class="text"/></g><g class="trace scatter trace43ec5d" style="stroke-miterlimit: 2;"><g class="fills"><g><path class="js-fill" d="M0,113.36L389.04,113.36L389.04,113.17L378.02,112.78L377.64,112.76L363.94,111.37L363.56,111.31L350.25,108.21L349.87,108.09L328.58,99.36L328.2,99.19L317.93,95.19L317.55,95.07L309.56,93.3L309.18,93.26L301.58,93.16L301.2,93.2L293.59,94.69L293.21,94.8L272.29,103.38L271.91,103.54L260.5,107.92L260.12,108.04L247.19,111.17L246.81,111.23L235.4,112.55L235.02,112.58L198.52,113.3L198.14,113.3L175.7,112.86L175.32,112.85L162.39,111.88L162.01,111.84L145.27,109.07L144.89,108.98L123.98,103.82L123.6,103.73L112.19,101.81L111.81,101.78L101.16,101.62L100.78,101.65L63.51,109.5L63.13,109.57L49.44,111.74L49.06,111.79L26.62,113.12L26.24,113.13L0,113.17Z" style="fill: rgb(221, 64, 64); fill-opacity: 0.2; stroke-width: 0;"/></g></g><g class="errorbars"/><g class="lines"><path class="js-line" d="M0,113.17L26.24,113.13L26.62,113.12L49.06,111.79L49.44,111.74L63.13,109.57L63.51,109.5L100.78,101.65L101.16,101.62L111.81,101.78L112.19,101.81L123.6,103.73L123.98,103.82L144.89,108.98L145.27,109.07L162.01,111.84L162.39,111.88L175.32,112.85L175.7,112.86L198.14,113.3L198.52,113.3L235.02,112.58L235.4,112.55L246.81,111.23L247.19,111.17L260.12,108.04L260.5,107.92L271.91,103.54L272.29,103.38L293.21,94.8L293.59,94.69L301.2,93.2L301.58,93.16L309.18,93.26L309.56,93.3L317.55,95.07L317.93,95.19L328.2,99.19L328.58,99.36L349.87,108.09L350.25,108.21L363.56,111.31L363.94,111.37L377.64,112.76L378.02,112.78L389.04,113.17" style="vector-effect: non-scaling-stroke; fill: none; stroke: rgb(59, 2, 128); stroke-opacity: 1; stroke-width: 1px; opacity: 1;"/></g><g class="points"/><g class="text"/></g><g class="trace scatter trace5a090b" style="stroke-miterlimit: 2;"><g class="fills"/><g class="errorbars"/><g class="lines"><path class="js-line" d="M0,113.36L389.04,113.36" style="vector-effect: non-scaling-stroke; fill: none; stroke: rgb(0, 0, 0); stroke-opacity: 0; stroke-width: 1px; opacity: 1;"/></g><g class="points"/><g class="text"/></g><g class="trace scatter traceecf84d" style="stroke-miterlimit: 2; opacity: 1;"><g class="fills"/><g class="errorbars"/><g class="lines"><path class="js-line" d="M117.51,113.36L117.51,102.53" style="vector-effect: non-scaling-stroke; fill: none; stroke: rgb(221, 64, 64); stroke-opacity: 1; stroke-width: 1px; opacity: 1; stroke-dasharray: 3px, 3px;"/></g><g class="points"/><g class="text"/></g><g class="trace scatter tracedd016c" style="stroke-miterlimit: 2; opacity: 1;"><g class="fills"/><g class="errorbars"/><g class="lines"><path class="js-line" d="M281.8,113.36L281.8,99.13" style="vector-effect: non-scaling-stroke; fill: none; stroke: rgb(221, 64, 64); stroke-opacity: 1; stroke-width: 1px; opacity: 1; stroke-dasharray: 3px, 3px;"/></g><g class="points"/><g class="text"/></g><g class="trace scatter tracef54bb9" style="stroke-miterlimit: 2; opacity: 1;"><g class="fills"/><g class="errorbars"/><g class="lines"><path class="js-line" d="M311.84,113.36L311.84,93.65" style="vector-effect: non-scaling-stroke; fill: none; stroke: rgb(221, 64, 64); stroke-opacity: 1; stroke-width: 1px; opacity: 1; stroke-dasharray: 3px, 3px;"/></g><g class="points"/><g class="text"/></g><g class="trace scatter trace2c47c0" style="stroke-miterlimit: 2;"><g class="fills"><g><path class="js-fill" d="M177.69,133.7L333.96,133.7L333.96,133.7L329.83,133.59L329.68,133.58L326.78,132.82L326.62,132.74L322.8,128.88L322.65,128.67L319.29,123.36L319.14,123.04L316.08,115.49L315.93,115.2L314.86,114.04L314.71,114.01L311.04,120.96L310.89,121.25L309.82,122.36L309.67,122.37L307.22,118.39L307.07,118.01L305.54,115.05L305.39,114.89L304.32,114.74L304.17,114.86L300.35,124.98L300.2,125.46L298.06,130.72L297.91,130.98L296.07,132.92L295.92,133.01L227.03,133.7L226.88,133.7L207.33,131.52L207.17,131.51L199.08,129.45L198.92,129.41L195.41,130.31L195.26,130.37L192.05,130.63L191.9,130.6L185.02,132.93L184.87,132.98L177.69,133.7Z" style="fill: rgb(221, 64, 64); fill-opacity: 0.2; stroke-width: 0;"/></g></g><g class="errorbars"/><g class="lines"><path class="js-line" d="M177.69,133.7L184.87,132.98L185.02,132.93L191.9,130.6L192.05,130.63L195.26,130.37L195.41,130.31L198.92,129.41L199.08,129.45L207.17,131.51L207.33,131.52L226.88,133.7L227.03,133.7L295.92,133.01L296.07,132.92L297.91,130.98L298.06,130.72L300.2,125.46L300.35,124.98L304.17,114.86L304.32,114.74L305.39,114.89L305.54,115.05L307.07,118.01L307.22,118.39L309.67,122.37L309.82,122.36L310.89,121.25L311.04,120.96L314.71,114.01L314.86,114.04L315.93,115.2L316.08,115.49L319.14,123.04L319.29,123.36L322.65,128.67L322.8,128.88L326.62,132.74L326.78,132.82L329.68,133.58L329.83,133.59L333.96,133.7" style="vector-effect: non-scaling-stroke; fill: none; stroke: rgb(59, 2, 128); stroke-opacity: 1; stroke-width: 1px; opacity: 1;"/></g><g class="points"/><g class="text"/></g><g class="trace scatter tracea2f77b" style="stroke-miterlimit: 2;"><g class="fills"/><g class="errorbars"/><g class="lines"><path class="js-line" d="M177.69,133.7L333.96,133.7" style="vector-effect: non-scaling-stroke; fill: none; stroke: rgb(0, 0, 0); stroke-opacity: 0; stroke-width: 1px; opacity: 1;"/></g><g class="points"/><g class="text"/></g><g class="trace scatter trace67a975" style="stroke-miterlimit: 2; opacity: 1;"><g class="fills"/><g class="errorbars"/><g class="lines"><path class="js-line" d="M301.27,133.7L301.27,121.99" style="vector-effect: non-scaling-stroke; fill: none; stroke: rgb(221, 64, 64); stroke-opacity: 1; stroke-width: 1px; opacity: 1; stroke-dasharray: 3px, 3px;"/></g><g class="points"/><g class="text"/></g><g class="trace scatter tracea99630" style="stroke-miterlimit: 2; opacity: 1;"><g class="fills"/><g class="errorbars"/><g class="lines"><path class="js-line" d="M307.53,133.7L307.53,119.14" style="vector-effect: non-scaling-stroke; fill: none; stroke: rgb(221, 64, 64); stroke-opacity: 1; stroke-width: 1px; opacity: 1; stroke-dasharray: 3px, 3px;"/></g><g class="points"/><g class="text"/></g><g class="trace scatter traceed6c10" style="stroke-miterlimit: 2; opacity: 1;"><g class="fills"/><g class="errorbars"/><g class="lines"><path class="js-line" d="M314.86,133.7L314.86,114.04" style="vector-effect: non-scaling-stroke; fill: none; stroke: rgb(221, 64, 64); stroke-opacity: 1; stroke-width: 1px; opacity: 1; stroke-dasharray: 3px, 3px;"/></g><g class="points"/><g class="text"/></g><g class="trace scatter trace48006e" style="stroke-miterlimit: 2;"><g class="fills"><g><path class="js-fill" d="M104.35,153.39L354.01,153.39L354.01,153.26L344.74,152.98L344.49,152.96L334.24,151.65L334,151.59L326.68,149.34L326.43,149.24L317.16,144.29L316.92,144.13L305.45,136.59L305.2,136.45L299.34,133.83L299.1,133.76L293.98,133.05L293.73,133.06L288.61,134.02L288.36,134.11L269.57,145.38L269.33,145.53L262,149.24L261.76,149.34L253.22,151.83L252.98,151.88L242.24,153.05L241.99,153.06L226.37,153.17L226.13,153.17L213.93,152.38L213.68,152.36L203.68,150.62L203.43,150.57L183.18,143.75L182.93,143.66L174.39,141.15L174.15,141.1L167.8,140.39L167.56,140.39L160.48,141.11L160.24,141.16L145.1,146.48L144.86,146.58L134.12,150.34L133.88,150.41L122.65,152.5L122.41,152.53L104.35,153.26Z" style="fill: rgb(221, 64, 64); fill-opacity: 0.2; stroke-width: 0;"/></g></g><g class="errorbars"/><g class="lines"><path class="js-line" d="M104.35,153.26L122.41,152.53L122.65,152.5L133.88,150.41L134.12,150.34L144.86,146.58L145.1,146.48L160.24,141.16L160.48,141.11L167.56,140.39L167.8,140.39L174.15,141.1L174.39,141.15L182.93,143.66L183.18,143.75L203.43,150.57L203.68,150.62L213.68,152.36L213.93,152.38L226.13,153.17L226.37,153.17L241.99,153.06L242.24,153.05L252.98,151.88L253.22,151.83L261.76,149.34L262,149.24L269.33,145.53L269.57,145.38L288.36,134.11L288.61,134.02L293.73,133.06L293.98,133.05L299.1,133.76L299.34,133.83L305.2,136.45L305.45,136.59L316.92,144.13L317.16,144.29L326.43,149.24L326.68,149.34L334,151.59L334.24,151.65L344.49,152.96L344.74,152.98L354.01,153.26" style="vector-effect: non-scaling-stroke; fill: none; stroke: rgb(59, 2, 128); stroke-opacity: 1; stroke-width: 1px; opacity: 1;"/></g><g class="points"/><g class="text"/></g><g class="trace scatter trace543526" style="stroke-miterlimit: 2;"><g class="fills"/><g class="errorbars"/><g class="lines"><path class="js-line" d="M104.35,153.39L354.01,153.39" style="vector-effect: non-scaling-stroke; fill: none; stroke: rgb(0, 0, 0); stroke-opacity: 0; stroke-width: 1px; opacity: 1;"/></g><g class="points"/><g class="text"/></g><g class="trace scatter trace4e29be" style="stroke-miterlimit: 2; opacity: 1;"><g class="fills"/><g class="errorbars"/><g class="lines"><path class="js-line" d="M173.17,153.39L173.17,140.92" style="vector-effect: non-scaling-stroke; fill: none; stroke: rgb(221, 64, 64); stroke-opacity: 1; stroke-width: 1px; opacity: 1; stroke-dasharray: 3px, 3px;"/></g><g class="points"/><g class="text"/></g><g class="trace scatter trace098a19" style="stroke-miterlimit: 2; opacity: 1;"><g class="fills"/><g class="errorbars"/><g class="lines"><path class="js-line" d="M275.18,153.39L275.18,141.73" style="vector-effect: non-scaling-stroke; fill: none; stroke: rgb(221, 64, 64); stroke-opacity: 1; stroke-width: 1px; opacity: 1; stroke-dasharray: 3px, 3px;"/></g><g class="points"/><g class="text"/></g><g class="trace scatter traceb72b12" style="stroke-miterlimit: 2; opacity: 1;"><g class="fills"/><g class="errorbars"/><g class="lines"><path class="js-line" d="M297.64,153.39L297.64,133.4" style="vector-effect: non-scaling-stroke; fill: none; stroke: rgb(221, 64, 64); stroke-opacity: 1; stroke-width: 1px; opacity: 1; stroke-dasharray: 3px, 3px;"/></g><g class="points"/><g class="text"/></g><g class="trace scatter trace471324" style="stroke-miterlimit: 2;"><g class="fills"><g><path class="js-fill" d="M279.29,173.74L293.87,173.74L293.87,173.73L293.57,173.71L293.56,173.71L291.66,171.39L291.65,171.36L289.24,160.83L289.23,160.75L287.5,154.02L287.49,153.99L285.96,154.23L285.95,154.23L282.06,169.96L282.04,170.03L281.1,172.97L281.09,172.99L279.29,173.73Z" style="fill: rgb(221, 64, 64); fill-opacity: 0.2; stroke-width: 0;"/></g></g><g class="errorbars"/><g class="lines"><path class="js-line" d="M279.29,173.73L281.09,172.99L281.1,172.97L282.04,170.03L282.06,169.96L285.95,154.23L285.96,154.23L287.49,153.99L287.5,154.02L289.23,160.75L289.24,160.83L291.65,171.36L291.66,171.39L293.56,173.71L293.57,173.71L293.87,173.73" style="vector-effect: non-scaling-stroke; fill: none; stroke: rgb(59, 2, 128); stroke-opacity: 1; stroke-width: 1px; opacity: 1;"/></g><g class="points"/><g class="text"/></g><g class="trace scatter trace74af86" style="stroke-miterlimit: 2;"><g class="fills"/><g class="errorbars"/><g class="lines"><path class="js-line" d="M279.29,173.74L293.87,173.74" style="vector-effect: non-scaling-stroke; fill: none; stroke: rgb(0, 0, 0); stroke-opacity: 0; stroke-width: 1px; opacity: 1;"/></g><g class="points"/><g class="text"/></g><g class="trace scatter trace8ca242" style="stroke-miterlimit: 2; opacity: 1;"><g class="fills"/><g class="errorbars"/><g class="lines"><path class="js-line" d="M284.88,173.74L284.88,156.16" style="vector-effect: non-scaling-stroke; fill: none; stroke: rgb(221, 64, 64); stroke-opacity: 1; stroke-width: 1px; opacity: 1; stroke-dasharray: 3px, 3px;"/></g><g class="points"/><g class="text"/></g><g class="trace scatter tracee0ddfb" style="stroke-miterlimit: 2; opacity: 1;"><g class="fills"/><g class="errorbars"/><g class="lines"><path class="js-line" d="M286.55,173.74L286.55,153.79" style="vector-effect: non-scaling-stroke; fill: none; stroke: rgb(221, 64, 64); stroke-opacity: 1; stroke-width: 1px; opacity: 1; stroke-dasharray: 3px, 3px;"/></g><g class="points"/><g class="text"/></g><g class="trace scatter trace32f4d0" style="stroke-miterlimit: 2; opacity: 1;"><g class="fills"/><g class="errorbars"/><g class="lines"><path class="js-line" d="M288.2,173.74L288.2,156.59" style="vector-effect: non-scaling-stroke; fill: none; stroke: rgb(221, 64, 64); stroke-opacity: 1; stroke-width: 1px; opacity: 1; stroke-dasharray: 3px, 3px;"/></g><g class="points"/><g class="text"/></g><g class="trace scatter tracecd2a80" style="stroke-miterlimit: 2;"><g class="fills"><g><path class="js-fill" d="M231.09,194.08L521,194.08L521,194.05L508.81,194.04L508.53,194.04L486.71,193.23L486.43,193.21L461.49,192.47L461.2,192.47L450.72,192.08L450.43,192.06L435.41,189.16L435.13,189.1L428.05,188.12L427.76,188.11L407.07,192.39L406.79,192.45L373.07,193.83L372.78,193.83L355.5,193.96L355.21,193.96L345.29,193.32L345.01,193.29L331.97,190.44L331.69,190.37L324.04,188.83L323.76,188.8L315.54,188.94L315.25,188.97L307.89,189.42L307.6,189.4L302.22,188.42L301.93,188.32L286.35,178.7L286.06,178.53L281.25,176.27L280.96,176.19L276.71,175.74L276.43,175.77L272.18,177.01L271.89,177.15L265.09,181.84L264.81,182.07L256.59,188.52L256.31,188.71L250.92,191.54L250.64,191.65L244.41,193.29L244.12,193.34L231.09,194.05Z" style="fill: rgb(221, 64, 64); fill-opacity: 0.2; stroke-width: 0;"/></g></g><g class="errorbars"/><g class="lines"><path class="js-line" d="M231.09,194.05L244.12,193.34L244.41,193.29L250.64,191.65L250.92,191.54L256.31,188.71L256.59,188.52L264.81,182.07L265.09,181.84L271.89,177.15L272.18,177.01L276.43,175.77L276.71,175.74L280.96,176.19L281.25,176.27L286.06,178.53L286.35,178.7L301.93,188.32L302.22,188.42L307.6,189.4L307.89,189.42L315.25,188.97L315.54,188.94L323.76,188.8L324.04,188.83L331.69,190.37L331.97,190.44L345.01,193.29L345.29,193.32L355.21,193.96L355.5,193.96L372.78,193.83L373.07,193.83L406.79,192.45L407.07,192.39L427.76,188.11L428.05,188.12L435.13,189.1L435.41,189.16L450.43,192.06L450.72,192.08L461.2,192.47L461.49,192.47L486.43,193.21L486.71,193.23L508.53,194.04L508.81,194.04L521,194.05" style="vector-effect: non-scaling-stroke; fill: none; stroke: rgb(59, 2, 128); stroke-opacity: 1; stroke-width: 1px; opacity: 1;"/></g><g class="points"/><g class="text"/></g><g class="trace scatter trace0fb4ab" style="stroke-miterlimit: 2;"><g class="fills"/><g class="errorbars"/><g class="lines"><path class="js-line" d="M231.09,194.08L521,194.08" style="vector-effect: non-scaling-stroke; fill: none; stroke: rgb(0, 0, 0); stroke-opacity: 0; stroke-width: 1px; opacity: 1;"/></g><g class="points"/><g class="text"/></g><g class="trace scatter trace596736" style="stroke-miterlimit: 2; opacity: 1;"><g class="fills"/><g class="errorbars"/><g class="lines"><path class="js-line" d="M275.01,194.08L275.01,176.01" style="vector-effect: non-scaling-stroke; fill: none; stroke: rgb(221, 64, 64); stroke-opacity: 1; stroke-width: 1px; opacity: 1; stroke-dasharray: 3px, 3px;"/></g><g class="points"/><g class="text"/></g><g class="trace scatter trace2497fc" style="stroke-miterlimit: 2; opacity: 1;"><g class="fills"/><g class="errorbars"/><g class="lines"><path class="js-line" d="M291.45,194.08L291.45,182.21" style="vector-effect: non-scaling-stroke; fill: none; stroke: rgb(221, 64, 64); stroke-opacity: 1; stroke-width: 1px; opacity: 1; stroke-dasharray: 3px, 3px;"/></g><g class="points"/><g class="text"/></g><g class="trace scatter trace304dfc" style="stroke-miterlimit: 2; opacity: 1;"><g class="fills"/><g class="errorbars"/><g class="lines"><path class="js-line" d="M346.43,194.08L346.43,193.45" style="vector-effect: non-scaling-stroke; fill: none; stroke: rgb(221, 64, 64); stroke-opacity: 1; stroke-width: 1px; opacity: 1; stroke-dasharray: 3px, 3px;"/></g><g class="points"/><g class="text"/></g><g class="trace scatter trace7a22a4" style="stroke-miterlimit: 2;"><g class="fills"><g><path class="js-fill" d="M268.99,212.46L381.72,212.46L381.72,212.45L367.06,210.8L366.95,210.78L359.46,211.11L359.35,211.13L353.29,211.59L353.18,211.58L348,210.48L347.89,210.43L344.36,208.08L344.25,207.97L337.2,197.18L337.09,197L334.45,193.36L334.34,193.25L332.35,192.14L332.24,192.13L330.04,192.9L329.93,192.99L325.74,198.8L325.63,198.99L321.11,206.39L321,206.53L318.14,209.48L318.03,209.56L315.38,210.64L315.27,210.65L312.41,210.05L312.3,209.99L303.48,199.02L303.37,198.88L301.06,196.79L300.95,196.74L298.86,196.56L298.75,196.6L290.26,206.24L290.15,206.37L286.18,209.92L286.07,209.99L281.89,211.68L281.78,211.71L268.99,212.45Z" style="fill: rgb(221, 64, 64); fill-opacity: 0.2; stroke-width: 0;"/></g></g><g class="errorbars"/><g class="lines"><path class="js-line" d="M268.99,212.45L281.78,211.71L281.89,211.68L286.07,209.99L286.18,209.92L290.15,206.37L290.26,206.24L298.75,196.6L298.86,196.56L300.95,196.74L301.06,196.79L303.37,198.88L303.48,199.02L312.3,209.99L312.41,210.05L315.27,210.65L315.38,210.64L318.03,209.56L318.14,209.48L321,206.53L321.11,206.39L325.63,198.99L325.74,198.8L329.93,192.99L330.04,192.9L332.24,192.13L332.35,192.14L334.34,193.25L334.45,193.36L337.09,197L337.2,197.18L344.25,207.97L344.36,208.08L347.89,210.43L348,210.48L353.18,211.58L353.29,211.59L359.35,211.13L359.46,211.11L366.95,210.78L367.06,210.8L381.72,212.45" style="vector-effect: non-scaling-stroke; fill: none; stroke: rgb(59, 2, 128); stroke-opacity: 1; stroke-width: 1px; opacity: 1;"/></g><g class="points"/><g class="text"/></g><g class="trace scatter tracede86a8" style="stroke-miterlimit: 2;"><g class="fills"/><g class="errorbars"/><g class="lines"><path class="js-line" d="M268.99,212.46L381.72,212.46" style="vector-effect: non-scaling-stroke; fill: none; stroke: rgb(0, 0, 0); stroke-opacity: 0; stroke-width: 1px; opacity: 1;"/></g><g class="points"/><g class="text"/></g><g class="trace scatter trace6558f1" style="stroke-miterlimit: 2; opacity: 1;"><g class="fills"/><g class="errorbars"/><g class="lines"><path class="js-line" d="M301.17,212.46L301.17,196.85" style="vector-effect: non-scaling-stroke; fill: none; stroke: rgb(221, 64, 64); stroke-opacity: 1; stroke-width: 1px; opacity: 1; stroke-dasharray: 3px, 3px;"/></g><g class="points"/><g class="text"/></g><g class="trace scatter trace92bd38" style="stroke-miterlimit: 2; opacity: 1;"><g class="fills"/><g class="errorbars"/><g class="lines"><path class="js-line" d="M325.3,212.46L325.3,199.57" style="vector-effect: non-scaling-stroke; fill: none; stroke: rgb(221, 64, 64); stroke-opacity: 1; stroke-width: 1px; opacity: 1; stroke-dasharray: 3px, 3px;"/></g><g class="points"/><g class="text"/></g><g class="trace scatter trace403a49" style="stroke-miterlimit: 2; opacity: 1;"><g class="fills"/><g class="errorbars"/><g class="lines"><path class="js-line" d="M334.23,212.46L334.23,193.15" style="vector-effect: non-scaling-stroke; fill: none; stroke: rgb(221, 64, 64); stroke-opacity: 1; stroke-width: 1px; opacity: 1; stroke-dasharray: 3px, 3px;"/></g><g class="points"/><g class="text"/></g><g class="trace scatter trace3b329e" style="stroke-miterlimit: 2;"><g class="fills"><g><path class="js-fill" d="M83.43,232.8L514,232.8L514,232.72L492.11,232.76L491.69,232.76L467.7,232.35L467.28,232.34L439.5,230.42L439.08,230.38L417.61,228.62L417.19,228.6L373,230.16L372.58,230.17L323.76,229.06L323.33,229.04L297.24,229.62L296.82,229.64L284.61,229.49L284.19,229.45L274.93,227.76L274.51,227.65L260.62,222.48L260.2,222.3L249.68,218.29L249.26,218.16L242.1,216.8L241.68,216.77L234.95,217.05L234.53,217.12L210.96,225.42L210.54,225.56L203.38,227.48L202.96,227.56L196.65,228.08L196.23,228.08L188.65,227.01L188.23,226.9L165.92,216.51L165.5,216.31L158.35,213.76L157.93,213.67L152.03,213.13L151.61,213.15L145.3,214.34L144.88,214.48L135.2,218.95L134.78,219.19L122.99,225.61L122.57,225.82L113.73,229.31L113.31,229.44L104.05,231.47L103.63,231.54L83.43,232.72Z" style="fill: rgb(221, 64, 64); fill-opacity: 0.2; stroke-width: 0;"/></g></g><g class="errorbars"/><g class="lines"><path class="js-line" d="M83.43,232.72L103.63,231.54L104.05,231.47L113.31,229.44L113.73,229.31L122.57,225.82L122.99,225.61L134.78,219.19L135.2,218.95L144.88,214.48L145.3,214.34L151.61,213.15L152.03,213.13L157.93,213.67L158.35,213.76L165.5,216.31L165.92,216.51L188.23,226.9L188.65,227.01L196.23,228.08L196.65,228.08L202.96,227.56L203.38,227.48L210.54,225.56L210.96,225.42L234.53,217.12L234.95,217.05L241.68,216.77L242.1,216.8L249.26,218.16L249.68,218.29L260.2,222.3L260.62,222.48L274.51,227.65L274.93,227.76L284.19,229.45L284.61,229.49L296.82,229.64L297.24,229.62L323.33,229.04L323.76,229.06L372.58,230.17L373,230.16L417.19,228.6L417.61,228.62L439.08,230.38L439.5,230.42L467.28,232.34L467.7,232.35L491.69,232.76L492.11,232.76L514,232.72" style="vector-effect: non-scaling-stroke; fill: none; stroke: rgb(59, 2, 128); stroke-opacity: 1; stroke-width: 1px; opacity: 1;"/></g><g class="points"/><g class="text"/></g><g class="trace scatter trace0a04ba" style="stroke-miterlimit: 2;"><g class="fills"/><g class="errorbars"/><g class="lines"><path class="js-line" d="M83.43,232.8L514,232.8" style="vector-effect: non-scaling-stroke; fill: none; stroke: rgb(0, 0, 0); stroke-opacity: 0; stroke-width: 1px; opacity: 1;"/></g><g class="points"/><g class="text"/></g><g class="trace scatter tracef99f57" style="stroke-miterlimit: 2; opacity: 1;"><g class="fills"/><g class="errorbars"/><g class="lines"><path class="js-line" d="M157.93,232.8L157.93,213.67" style="vector-effect: non-scaling-stroke; fill: none; stroke: rgb(221, 64, 64); stroke-opacity: 1; stroke-width: 1px; opacity: 1; stroke-dasharray: 3px, 3px;"/></g><g class="points"/><g class="text"/></g><g class="trace scatter tracea228cf" style="stroke-miterlimit: 2; opacity: 1;"><g class="fills"/><g class="errorbars"/><g class="lines"><path class="js-line" d="M222.74,232.8L222.74,220.7" style="vector-effect: non-scaling-stroke; fill: none; stroke: rgb(221, 64, 64); stroke-opacity: 1; stroke-width: 1px; opacity: 1; stroke-dasharray: 3px, 3px;"/></g><g class="points"/><g class="text"/></g><g class="trace scatter traceb15b35" style="stroke-miterlimit: 2; opacity: 1;"><g class="fills"/><g class="errorbars"/><g class="lines"><path class="js-line" d="M270.3,232.8L270.3,226.34" style="vector-effect: non-scaling-stroke; fill: none; stroke: rgb(221, 64, 64); stroke-opacity: 1; stroke-width: 1px; opacity: 1; stroke-dasharray: 3px, 3px;"/></g><g class="points"/><g class="text"/></g><g class="trace scatter trace23fbeb" style="stroke-miterlimit: 2;"><g class="fills"><g><path class="js-fill" d="M44.33,252.49L485.08,252.49L485.08,252.46L441.09,252.16L440.23,252.14L371.23,247.37L370.36,247.31L350.52,246.59L349.66,246.59L295.32,250.61L294.46,250.67L263.41,252.12L262.55,252.13L227.19,252.03L226.32,252.01L188.37,250.09L187.51,250.03L160.77,248.67L159.91,248.65L91.77,251.67L90.91,251.7L44.33,252.45Z" style="fill: rgb(221, 64, 64); fill-opacity: 0.2; stroke-width: 0;"/></g></g><g class="errorbars"/><g class="lines"><path class="js-line" d="M44.33,252.45L90.91,251.7L91.77,251.67L159.91,248.65L160.77,248.67L187.51,250.03L188.37,250.09L226.32,252.01L227.19,252.03L262.55,252.13L263.41,252.12L294.46,250.67L295.32,250.61L349.66,246.59L350.52,246.59L370.36,247.31L371.23,247.37L440.23,252.14L441.09,252.16L485.08,252.46" style="vector-effect: non-scaling-stroke; fill: none; stroke: rgb(59, 2, 128); stroke-opacity: 1; stroke-width: 1px; opacity: 1;"/></g><g class="points"/><g class="text"/></g><g class="trace scatter trace1851ad" style="stroke-miterlimit: 2;"><g class="fills"/><g class="errorbars"/><g class="lines"><path class="js-line" d="M44.33,252.49L485.08,252.49" style="vector-effect: non-scaling-stroke; fill: none; stroke: rgb(0, 0, 0); stroke-opacity: 0; stroke-width: 1px; opacity: 1;"/></g><g class="points"/><g class="text"/></g><g class="trace scatter tracef32ce2" style="stroke-miterlimit: 2; opacity: 1;"><g class="fills"/><g class="errorbars"/><g class="lines"><path class="js-line" d="M167.67,252.49L167.67,248.88" style="vector-effect: non-scaling-stroke; fill: none; stroke: rgb(221, 64, 64); stroke-opacity: 1; stroke-width: 1px; opacity: 1; stroke-dasharray: 3px, 3px;"/></g><g class="points"/><g class="text"/></g><g class="trace scatter trace434d6a" style="stroke-miterlimit: 2; opacity: 1;"><g class="fills"/><g class="errorbars"/><g class="lines"><path class="js-line" d="M318.61,252.49L318.61,248.48" style="vector-effect: non-scaling-stroke; fill: none; stroke: rgb(221, 64, 64); stroke-opacity: 1; stroke-width: 1px; opacity: 1; stroke-dasharray: 3px, 3px;"/></g><g class="points"/><g class="text"/></g><g class="trace scatter trace037459" style="stroke-miterlimit: 2; opacity: 1;"><g class="fills"/><g class="errorbars"/><g class="lines"><path class="js-line" d="M360.01,252.49L360.01,246.75" style="vector-effect: non-scaling-stroke; fill: none; stroke: rgb(221, 64, 64); stroke-opacity: 1; stroke-width: 1px; opacity: 1; stroke-dasharray: 3px, 3px;"/></g><g class="points"/><g class="text"/></g><g class="trace scatter trace74b417" style="stroke-miterlimit: 2;"><g class="fills"><g><path class="js-fill" d="M0,0Z" style="stroke-width: 0; fill: rgb(0, 200, 229); fill-opacity: 0.2;"/></g></g><g class="errorbars"/><g class="lines"/><g class="points"/><g class="text"/></g><g class="trace scatter traceee37bb" style="stroke-miterlimit: 2;"><g class="fills"/><g class="errorbars"/><g class="lines"/><g class="points"/><g class="text"/></g><g class="trace scatter traced61bfd" style="stroke-miterlimit: 2;"><g class="fills"><g><path class="js-fill" d="M0,0Z" style="stroke-width: 0; fill: rgb(59, 2, 128); fill-opacity: 0.2;"/></g></g><g class="errorbars"/><g class="lines"/><g class="points"/><g class="text"/></g><g class="trace scatter trace9023b9" style="stroke-miterlimit: 2;"><g class="fills"/><g class="errorbars"/><g class="lines"/><g class="points"/><g class="text"/></g><g class="trace scatter tracebf8c88" style="stroke-miterlimit: 2;"><g class="fills"><g><path class="js-fill" d="M0,0Z" style="stroke-width: 0; fill: rgb(221, 64, 64); fill-opacity: 0.2;"/></g></g><g class="errorbars"/><g class="lines"/><g class="points"/><g class="text"/></g><g class="trace scatter trace671cd3" style="stroke-miterlimit: 2;"><g class="fills"/><g class="errorbars"/><g class="lines"/><g class="points"/><g class="text"/></g><g class="trace scatter trace8a517d" style="stroke-miterlimit: 2; opacity: 1;"><g class="fills"/><g class="errorbars"/><g class="lines"/><g class="points"/><g class="text"/></g></g></g><g class="overplot"/><path class="xlines-above crisp" d="M98,372.5H621M98,99.5H621" style="fill: none; stroke-width: 1px; stroke: rgb(102, 102, 102); stroke-opacity: 1;"/><path class="ylines-above crisp" d="M98.5,100V372M620.5,100V372" style="fill: none; stroke-width: 1px; stroke: rgb(102, 102, 102); stroke-opacity: 1;"/><g class="overlines-above"/><g class="xaxislayer-above"><g class="xtick"><text text-anchor="middle" x="0" y="387.4" transform="translate(154.46,0)" style="font-family: 'Open Sans', verdana, arial, sans-serif; font-size: 12px; fill: rgb(42, 63, 95); fill-opacity: 1; white-space: pre; opacity: 1;">32</text></g><g class="xtick"><text text-anchor="middle" x="0" y="387.4" style="font-family: 'Open Sans', verdana, arial, sans-serif; font-size: 12px; fill: rgb(42, 63, 95); fill-opacity: 1; white-space: pre; opacity: 1;" transform="translate(241.1,0)">34</text></g><g class="xtick"><text text-anchor="middle" x="0" y="387.4" style="font-family: 'Open Sans', verdana, arial, sans-serif; font-size: 12px; fill: rgb(42, 63, 95); fill-opacity: 1; white-space: pre; opacity: 1;" transform="translate(327.75,0)">36</text></g><g class="xtick"><text text-anchor="middle" x="0" y="387.4" style="font-family: 'Open Sans', verdana, arial, sans-serif; font-size: 12px; fill: rgb(42, 63, 95); fill-opacity: 1; white-space: pre; opacity: 1;" transform="translate(414.39,0)">38</text></g><g class="xtick"><text text-anchor="middle" x="0" y="387.4" style="font-family: 'Open Sans', verdana, arial, sans-serif; font-size: 12px; fill: rgb(42, 63, 95); fill-opacity: 1; white-space: pre; opacity: 1;" transform="translate(501.04,0)">40</text></g><g class="xtick"><text text-anchor="middle" x="0" y="387.4" style="font-family: 'Open Sans', verdana, arial, sans-serif; font-size: 12px; fill: rgb(42, 63, 95); fill-opacity: 1; white-space: pre; opacity: 1;" transform="translate(587.6800000000001,0)">42</text></g></g><g class="yaxislayer-above"><g class="ytick"><text text-anchor="end" x="95.6" y="4.199999999999999" transform="translate(0,352.49)" style="font-family: 'Open Sans', verdana, arial, sans-serif; font-size: 12px; fill: rgb(42, 63, 95); fill-opacity: 1; white-space: pre; opacity: 1;">May 2022</text></g><g class="ytick"><text text-anchor="end" x="95.6" y="4.199999999999999" style="font-family: 'Open Sans', verdana, arial, sans-serif; font-size: 12px; fill: rgb(42, 63, 95); fill-opacity: 1; white-space: pre; opacity: 1;" transform="translate(0,312.46000000000004)">Mar 2022</text></g><g class="ytick"><text text-anchor="end" x="95.6" y="4.199999999999999" style="font-family: 'Open Sans', verdana, arial, sans-serif; font-size: 12px; fill: rgb(42, 63, 95); fill-opacity: 1; white-space: pre; opacity: 1;" transform="translate(0,273.74)">Jan 2022</text></g><g class="ytick"><text text-anchor="end" x="95.6" y="4.199999999999999" style="font-family: 'Open Sans', verdana, arial, sans-serif; font-size: 12px; fill: rgb(42, 63, 95); fill-opacity: 1; white-space: pre; opacity: 1;" transform="translate(0,233.7)">Nov 2021</text></g><g class="ytick"><text text-anchor="end" x="95.6" y="4.199999999999999" style="font-family: 'Open Sans', verdana, arial, sans-serif; font-size: 12px; fill: rgb(42, 63, 95); fill-opacity: 1; white-space: pre; opacity: 1;" transform="translate(0,193.67000000000002)">Sep 2021</text></g><g class="ytick"><text text-anchor="end" x="95.6" y="4.199999999999999" style="font-family: 'Open Sans', verdana, arial, sans-serif; font-size: 12px; fill: rgb(42, 63, 95); fill-opacity: 1; white-space: pre; opacity: 1;" transform="translate(0,152.98)">Jul 2021</text></g><g class="ytick"><text text-anchor="end" x="95.6" y="4.199999999999999" style="font-family: 'Open Sans', verdana, arial, sans-serif; font-size: 12px; fill: rgb(42, 63, 95); fill-opacity: 1; white-space: pre; opacity: 1;" transform="translate(0,112.94)">May 2021</text></g></g><g class="overaxes-above"/></g></g><g class="polarlayer"/><g class="smithlayer"/><g class="ternarylayer"/><g class="geolayer"/><g class="funnelarealayer"/><g class="pielayer"/><g class="iciclelayer"/><g class="treemaplayer"/><g class="sunburstlayer"/><g class="glimages"/><defs id="topdefs-0b670d"><g class="clips"/><clipPath id="legend0b670d"><rect width="366" height="48" x="0" y="0"/></clipPath></defs><g class="layer-above"><g class="imagelayer"/><g class="shapelayer"/></g><g class="infolayer"><g class="legend" pointer-events="all" transform="translate(99,440)"><rect class="bg" shape-rendering="crispEdges" width="366" height="48" x="0" y="0" style="stroke: rgb(68, 68, 68); stroke-opacity: 1; fill: rgb(255, 255, 255); fill-opacity: 1; stroke-width: 0px;"/><g class="scrollbox" transform="" clip-path="url(#legend0b670d)"><g class="groups"><g class="traces" transform="translate(0,14.5)" style="opacity: 1;"><text class="legendtext" text-anchor="start" x="40" y="4.680000000000001" style="font-family: 'Open Sans', verdana, arial, sans-serif; font-size: 12px; fill: rgb(42, 63, 95); fill-opacity: 1; white-space: pre;">Reference period</text><g class="layers"><g class="legendfill"><path class="js-fill" d="M5,-2h30v6h-30z" style="stroke-width: 0; fill: rgb(0, 200, 229); fill-opacity: 0.2;"/></g><g class="legendlines"><path class="js-line" d="M5,-2h30" style="fill: none; stroke: rgb(0, 200, 229); stroke-opacity: 1; stroke-width: 1px;"/></g><g class="legendsymbols"><g class="legendpoints"/></g></g><rect class="legendtoggle" x="0" y="-9.5" width="144.359375" height="19" style="fill: rgb(0, 0, 0); fill-opacity: 0;"/></g><g class="traces" transform="translate(228.59375,14.5)" style="opacity: 1;"><text class="legendtext" text-anchor="start" x="40" y="4.680000000000001" style="font-family: 'Open Sans', verdana, arial, sans-serif; font-size: 12px; fill: rgb(42, 63, 95); fill-opacity: 1; white-space: pre;">Analysis period</text><g class="layers"><g class="legendfill"><path class="js-fill" d="M5,-2h30v6h-30z" style="stroke-width: 0; fill: rgb(59, 2, 128); fill-opacity: 0.2;"/></g><g class="legendlines"><path class="js-line" d="M5,-2h30" style="fill: none; stroke: rgb(59, 2, 128); stroke-opacity: 1; stroke-width: 1px;"/></g><g class="legendsymbols"><g class="legendpoints"/></g></g><rect class="legendtoggle" x="0" y="-9.5" width="134.53125" height="19" style="fill: rgb(0, 0, 0); fill-opacity: 0;"/></g><g class="traces" transform="translate(0,33.5)" style="opacity: 1;"><text class="legendtext" text-anchor="start" x="40" y="4.680000000000001" style="font-family: 'Open Sans', verdana, arial, sans-serif; font-size: 12px; fill: rgb(42, 63, 95); fill-opacity: 1; white-space: pre;">Period with probable data drift</text><g class="layers"><g class="legendfill"><path class="js-fill" d="M5,-2h30v6h-30z" style="stroke-width: 0; fill: rgb(221, 64, 64); fill-opacity: 0.2;"/></g><g class="legendlines"><path class="js-line" d="M5,-2h30" style="fill: none; stroke: rgb(0, 0, 0); stroke-opacity: 0; stroke-width: 1px;"/></g><g class="legendsymbols"><g class="legendpoints"/></g></g><rect class="legendtoggle" x="0" y="-9.5" width="226.09375" height="19" style="fill: rgb(0, 0, 0); fill-opacity: 0;"/></g><g class="traces" transform="translate(228.59375,33.5)" style="opacity: 1;"><text class="legendtext" text-anchor="start" x="40" y="4.680000000000001" style="font-family: 'Open Sans', verdana, arial, sans-serif; font-size: 12px; fill: rgb(42, 63, 95); fill-opacity: 1; white-space: pre;">Quartiles</text><g class="layers" style="opacity: 1;"><g class="legendfill"/><g class="legendlines"><path class="js-line" d="M5,0h30" style="fill: none; stroke: rgb(102, 102, 102); stroke-opacity: 1; stroke-dasharray: 3px, 3px; stroke-width: 1px;"/></g><g class="legendsymbols"><g class="legendpoints"/></g></g><rect class="legendtoggle" x="0" y="-9.5" width="96.734375" height="19" style="fill: rgb(0, 0, 0); fill-opacity: 0;"/></g></g></g><rect class="scrollbar" rx="20" ry="3" width="0" height="0" x="0" y="0" style="fill: rgb(128, 139, 164); fill-opacity: 1;"/></g><g class="g-gtitle"><text class="gtitle" x="35" y="50" text-anchor="start" dy="0em" style="font-family: 'Open Sans', verdana, arial, sans-serif; font-size: 17px; fill: rgb(42, 63, 95); opacity: 1; font-weight: normal; white-space: pre;">Latitude: distribution over time</text></g><g class="g-xtitle"><text class="xtitle" x="359.5" y="414.6125" text-anchor="middle" style="font-family: 'Open Sans', verdana, arial, sans-serif; font-size: 14px; fill: rgb(42, 63, 95); opacity: 1; font-weight: normal; white-space: pre;">Latitude</text></g><g class="g-ytitle" transform="translate(2.6748046875,0)"><text class="ytitle" transform="rotate(-90,11.731250000000003,236)" x="11.731250000000003" y="236" text-anchor="middle" style="font-family: 'Open Sans', verdana, arial, sans-serif; font-size: 14px; fill: rgb(42, 63, 95); opacity: 1; font-weight: normal; white-space: pre;">Time</text></g></g></svg>
