<svg class="main-svg" xmlns="http://www.w3.org/2000/svg" xmlns:xlink="http://www.w3.org/1999/xlink" width="700" height="500" style="" viewBox="0 0 700 500"><rect x="0" y="0" width="700" height="500" style="fill: rgb(255, 255, 255); fill-opacity: 1;"/><defs id="defs-15b327"><g class="clips"><clipPath id="clip15b327xyplot" class="plotclip"><rect width="540" height="320"/></clipPath><clipPath class="axesclip" id="clip15b327x"><rect x="80" y="0" width="540" height="500"/></clipPath><clipPath class="axesclip" id="clip15b327y"><rect x="0" y="100" width="700" height="320"/></clipPath><clipPath class="axesclip" id="clip15b327xy"><rect x="80" y="100" width="540" height="320"/></clipPath></g><g class="gradients"/><g class="patterns"/></defs><g class="bglayer"/><g class="layer-below"><g class="imagelayer"/><g class="shapelayer"/></g><g class="cartesianlayer"><g class="subplot xy"><g class="layer-subplot"><g class="shapelayer"/><g class="imagelayer"/></g><g class="minor-gridlayer"><g class="x"/><g class="y"/></g><g class="gridlayer"><g class="x"/><g class="y"/></g><g class="zerolinelayer"/><path class="xlines-below"/><path class="ylines-below"/><g class="overlines-below"/><g class="xaxislayer-below"/><g class="yaxislayer-below"/><g class="overaxes-below"/><g class="plot" transform="translate(80,100)" clip-path="url(#clip15b327xyplot)"><g class="scatterlayer mlayer"><g class="trace scatter trace71011e" style="stroke-miterlimit: 2;"><g class="fills"><g><path class="js-fill" d="M22.5,293.56L22.5,26.4L22.36,26.4L22.11,30.64L22.11,30.68L21.07,35.57L21.06,35.61L18.76,40.26L18.73,40.3L11.72,48.37L11.68,48.41L6.66,54.41L6.63,54.45L4.05,59.55L4.04,59.59L1.88,70.92L1.87,70.96L0.3,84.17L0.29,84.21L0.22,94.4L0.23,94.44L5.83,114.71L5.85,114.75L9,127.55L9.01,127.59L11.24,140.19L11.25,140.23L12,148.67L12.01,148.71L11.94,162.29L11.94,162.33L8.28,180.31L8.27,180.35L7.08,187.56L7.08,187.6L7.87,194.09L7.88,194.13L14.74,207.74L14.77,207.78L18.37,215.78L18.38,215.82L19.83,221.73L19.84,221.77L20.59,232.08L20.59,232.12L17.51,259.2L17.5,259.24L17.14,265.43L17.14,265.47L19.34,274.85L19.36,274.89L21.62,282.88L21.63,282.92L22.37,293.56Z" style="fill: rgb(0, 200, 229); fill-opacity: 0.2; stroke-width: 0;"/></g></g><g class="errorbars"/><g class="lines"><path class="js-line" d="M22.37,293.56L21.63,282.92L21.62,282.88L19.36,274.89L19.34,274.85L17.14,265.47L17.14,265.43L17.5,259.24L17.51,259.2L20.59,232.12L20.59,232.08L19.84,221.77L19.83,221.73L18.38,215.82L18.37,215.78L14.77,207.78L14.74,207.74L7.88,194.13L7.87,194.09L7.08,187.6L7.08,187.56L8.27,180.35L8.28,180.31L11.94,162.33L11.94,162.29L12.01,148.71L12,148.67L11.25,140.23L11.24,140.19L9.01,127.59L9,127.55L5.85,114.75L5.83,114.71L0.23,94.44L0.22,94.4L0.29,84.21L0.3,84.17L1.87,70.96L1.88,70.92L4.04,59.59L4.05,59.55L6.63,54.45L6.66,54.41L11.68,48.41L11.72,48.37L18.73,40.3L18.76,40.26L21.06,35.61L21.07,35.57L22.11,30.68L22.11,30.64L22.36,26.4" style="vector-effect: none; fill: none; stroke: rgb(0, 200, 229); stroke-opacity: 1; stroke-width: 1px; opacity: 1;"/></g><g class="points"/><g class="text"/></g><g class="trace scatter trace91bdb2" style="stroke-miterlimit: 2;"><g class="fills"/><g class="errorbars"/><g class="lines"><path class="js-line" d="M22.5,293.56L22.5,26.4" style="vector-effect: none; fill: none; stroke: rgb(0, 0, 0); stroke-opacity: 0; stroke-width: 1px; opacity: 1;"/></g><g class="points"/><g class="text"/></g><g class="trace scatter trace2e3202" style="stroke-miterlimit: 2; opacity: 1;"><g class="fills"/><g class="errorbars"/><g class="lines"><path class="js-line" d="M22.5,174.8L9.73,174.8" style="vector-effect: none; fill: none; stroke: rgb(0, 200, 229); stroke-opacity: 1; stroke-dasharray: 3px, 3px; stroke-width: 1px; opacity: 1;"/></g><g class="points"/><g class="text"/></g><g class="trace scatter trace0a7a46" style="stroke-miterlimit: 2; opacity: 1;"><g class="fills"/><g class="errorbars"/><g class="lines"><path class="js-line" d="M22.5,116.01L6.23,116.01" style="vector-effect: none; fill: none; stroke: rgb(0, 200, 229); stroke-opacity: 1; stroke-dasharray: 3px, 3px; stroke-width: 1px; opacity: 1;"/></g><g class="points"/><g class="text"/></g><g class="trace scatter trace2e8d19" style="stroke-miterlimit: 2; opacity: 1;"><g class="fills"/><g class="errorbars"/><g class="lines"><path class="js-line" d="M22.5,81.93L0.53,81.93" style="vector-effect: none; fill: none; stroke: rgb(0, 200, 229); stroke-opacity: 1; stroke-dasharray: 3px, 3px; stroke-width: 1px; opacity: 1;"/></g><g class="points"/><g class="text"/></g><g class="trace scatter trace312a7a" style="stroke-miterlimit: 2;"><g class="fills"><g><path class="js-fill" d="M45,294.31L45,25.65L44.84,25.65L44.82,26.35L44.82,26.39L44.06,32.87L44.06,32.91L42.26,37.62L42.24,37.66L35.32,46.11L35.28,46.15L29.64,52.26L29.61,52.3L26.96,56.77L26.94,56.81L22.85,85.84L22.84,85.88L22.64,94.32L22.65,94.36L25.83,107.24L25.85,107.28L30.22,119.5L30.23,119.54L32.95,129.99L32.96,130.03L35.24,142.25L35.25,142.29L36,153.44L36,153.48L35.52,163.36L35.52,163.41L33.35,175.87L33.34,175.91L31.44,185.67L31.44,185.71L31.55,192.51L31.56,192.56L38.89,210.68L38.91,210.72L41.21,217.24L41.22,217.28L42.53,226.83L42.53,226.87L41.95,237.49L41.95,237.53L39.55,250.98L39.54,251.02L37.75,259.88L37.74,259.92L37.66,265.62L37.67,265.66L42.12,278.04L42.14,278.08L44.09,284.43L44.1,284.47L44.84,294.31Z" style="fill: rgb(0, 200, 229); fill-opacity: 0.2; stroke-width: 0;"/></g></g><g class="errorbars"/><g class="lines"><path class="js-line" d="M44.84,294.31L44.1,284.47L44.09,284.43L42.14,278.08L42.12,278.04L37.67,265.66L37.66,265.62L37.74,259.92L37.75,259.88L39.54,251.02L39.55,250.98L41.95,237.53L41.95,237.49L42.53,226.87L42.53,226.83L41.22,217.28L41.21,217.24L38.91,210.72L38.89,210.68L31.56,192.56L31.55,192.51L31.44,185.71L31.44,185.67L33.34,175.91L33.35,175.87L35.52,163.41L35.52,163.36L36,153.48L36,153.44L35.25,142.29L35.24,142.25L32.96,130.03L32.95,129.99L30.23,119.54L30.22,119.5L25.85,107.28L25.83,107.24L22.65,94.36L22.64,94.32L22.84,85.88L22.85,85.84L26.94,56.81L26.96,56.77L29.61,52.3L29.64,52.26L35.28,46.15L35.32,46.11L42.24,37.66L42.26,37.62L44.06,32.91L44.06,32.87L44.82,26.39L44.82,26.35L44.84,25.65" style="vector-effect: none; fill: none; stroke: rgb(0, 200, 229); stroke-opacity: 1; stroke-width: 1px; opacity: 1;"/></g><g class="points"/><g class="text"/></g><g class="trace scatter tracecb9ebd" style="stroke-miterlimit: 2;"><g class="fills"/><g class="errorbars"/><g class="lines"><path class="js-line" d="M45,294.31L45,25.65" style="vector-effect: none; fill: none; stroke: rgb(0, 0, 0); stroke-opacity: 0; stroke-width: 1px; opacity: 1;"/></g><g class="points"/><g class="text"/></g><g class="trace scatter trace9c5b8f" style="stroke-miterlimit: 2; opacity: 1;"><g class="fills"/><g class="errorbars"/><g class="lines"><path class="js-line" d="M45,178.33L32.79,178.33" style="vector-effect: none; fill: none; stroke: rgb(0, 200, 229); stroke-opacity: 1; stroke-dasharray: 3px, 3px; stroke-width: 1px; opacity: 1;"/></g><g class="points"/><g class="text"/></g><g class="trace scatter trace81d189" style="stroke-miterlimit: 2; opacity: 1;"><g class="fills"/><g class="errorbars"/><g class="lines"><path class="js-line" d="M45,114.78L28.63,114.78" style="vector-effect: none; fill: none; stroke: rgb(0, 200, 229); stroke-opacity: 1; stroke-dasharray: 3px, 3px; stroke-width: 1px; opacity: 1;"/></g><g class="points"/><g class="text"/></g><g class="trace scatter tracebb201f" style="stroke-miterlimit: 2; opacity: 1;"><g class="fills"/><g class="errorbars"/><g class="lines"><path class="js-line" d="M45,81.08L23.55,81.08" style="vector-effect: none; fill: none; stroke: rgb(0, 200, 229); stroke-opacity: 1; stroke-dasharray: 3px, 3px; stroke-width: 1px; opacity: 1;"/></g><g class="points"/><g class="text"/></g><g class="trace scatter trace5fab5a" style="stroke-miterlimit: 2;"><g class="fills"><g><path class="js-fill" d="M67.5,296.9L67.5,23.07L67.3,23.07L67.27,24.57L67.27,24.61L66.61,30.67L66.6,30.71L64.84,35.89L64.82,35.94L52.36,50.73L52.32,50.77L48.54,55.99L48.51,56.04L46.75,60.3L46.73,60.34L45.2,74.3L45.2,74.34L45.05,84.54L45.05,84.58L50.88,118.93L50.89,118.97L52.92,139.69L52.92,139.74L55.91,169.36L55.92,169.41L58.99,184.78L59,184.82L62.86,202.63L62.87,202.67L63.62,209.9L63.63,209.94L63.16,219.42L63.15,219.47L60.46,229.33L60.44,229.37L55.13,244.79L55.12,244.83L52.59,254.9L52.58,254.94L52.2,260.96L52.2,261L53.47,266.02L53.49,266.06L61.16,277.22L61.19,277.26L64.32,282.15L64.35,282.19L66.54,288.29L66.55,288.33L67.3,296.9Z" style="fill: rgb(0, 200, 229); fill-opacity: 0.2; stroke-width: 0;"/></g></g><g class="errorbars"/><g class="lines"><path class="js-line" d="M67.3,296.9L66.55,288.33L66.54,288.29L64.35,282.19L64.32,282.15L61.19,277.26L61.16,277.22L53.49,266.06L53.47,266.02L52.2,261L52.2,260.96L52.58,254.94L52.59,254.9L55.12,244.83L55.13,244.79L60.44,229.37L60.46,229.33L63.15,219.47L63.16,219.42L63.63,209.94L63.62,209.9L62.87,202.67L62.86,202.63L59,184.82L58.99,184.78L55.92,169.41L55.91,169.36L52.92,139.74L52.92,139.69L50.89,118.97L50.88,118.93L45.05,84.58L45.05,84.54L45.2,74.34L45.2,74.3L46.73,60.34L46.75,60.3L48.51,56.04L48.54,55.99L52.32,50.77L52.36,50.73L64.82,35.94L64.84,35.89L66.6,30.71L66.61,30.67L67.27,24.61L67.27,24.57L67.3,23.07" style="vector-effect: none; fill: none; stroke: rgb(0, 200, 229); stroke-opacity: 1; stroke-width: 1px; opacity: 1;"/></g><g class="points"/><g class="text"/></g><g class="trace scatter trace462693" style="stroke-miterlimit: 2;"><g class="fills"/><g class="errorbars"/><g class="lines"><path class="js-line" d="M67.5,296.9L67.5,23.07" style="vector-effect: none; fill: none; stroke: rgb(0, 0, 0); stroke-opacity: 0; stroke-width: 1px; opacity: 1;"/></g><g class="points"/><g class="text"/></g><g class="trace scatter trace1ef4da" style="stroke-miterlimit: 2; opacity: 1;"><g class="fills"/><g class="errorbars"/><g class="lines"><path class="js-line" d="M67.5,189.55L60.18,189.55" style="vector-effect: none; fill: none; stroke: rgb(0, 200, 229); stroke-opacity: 1; stroke-dasharray: 3px, 3px; stroke-width: 1px; opacity: 1;"/></g><g class="points"/><g class="text"/></g><g class="trace scatter trace83f380" style="stroke-miterlimit: 2; opacity: 1;"><g class="fills"/><g class="errorbars"/><g class="lines"><path class="js-line" d="M67.5,124.78L51.74,124.78" style="vector-effect: none; fill: none; stroke: rgb(0, 200, 229); stroke-opacity: 1; stroke-dasharray: 3px, 3px; stroke-width: 1px; opacity: 1;"/></g><g class="points"/><g class="text"/></g><g class="trace scatter tracec5a666" style="stroke-miterlimit: 2; opacity: 1;"><g class="fills"/><g class="errorbars"/><g class="lines"><path class="js-line" d="M67.5,83.03L45.01,83.03" style="vector-effect: none; fill: none; stroke: rgb(0, 200, 229); stroke-opacity: 1; stroke-dasharray: 3px, 3px; stroke-width: 1px; opacity: 1;"/></g><g class="points"/><g class="text"/></g><g class="trace scatter trace1a3fde" style="stroke-miterlimit: 2;"><g class="fills"><g><path class="js-fill" d="M90,298.79L90,21.18L89.84,21.18L89.86,21.98L89.86,22.02L89.14,34.22L89.13,34.27L82.5,53.71L82.48,53.75L77.53,71.97L77.52,72.01L73.51,90.44L73.5,90.48L72.25,99.04L72.24,99.08L72,107.73L72,107.77L73.23,123.65L73.23,123.7L75.41,147.12L75.41,147.17L77.01,160.55L77.01,160.6L82.6,187.46L82.61,187.5L84.9,200.72L84.91,200.76L85.18,208.85L85.18,208.89L83.72,218.21L83.71,218.25L72.92,241.64L72.9,241.68L69.04,250.37L69.02,250.41L67.57,256.42L67.57,256.47L67.81,260.75L67.81,260.79L69.59,265.11L69.61,265.15L76.81,273.33L76.86,273.37L83.42,279.98L83.46,280.02L86.87,284.89L86.9,284.94L89.08,291.04L89.09,291.08L89.84,298.79Z" style="fill: rgb(0, 200, 229); fill-opacity: 0.2; stroke-width: 0;"/></g></g><g class="errorbars"/><g class="lines"><path class="js-line" d="M89.84,298.79L89.09,291.08L89.08,291.04L86.9,284.94L86.87,284.89L83.46,280.02L83.42,279.98L76.86,273.37L76.81,273.33L69.61,265.15L69.59,265.11L67.81,260.79L67.81,260.75L67.57,256.47L67.57,256.42L69.02,250.41L69.04,250.37L72.9,241.68L72.92,241.64L83.71,218.25L83.72,218.21L85.18,208.89L85.18,208.85L84.91,200.76L84.9,200.72L82.61,187.5L82.6,187.46L77.01,160.6L77.01,160.55L75.41,147.17L75.41,147.12L73.23,123.7L73.23,123.65L72,107.77L72,107.73L72.24,99.08L72.25,99.04L73.5,90.48L73.51,90.44L77.52,72.01L77.53,71.97L82.48,53.75L82.5,53.71L89.13,34.27L89.14,34.22L89.86,22.02L89.86,21.98L89.84,21.18" style="vector-effect: none; fill: none; stroke: rgb(0, 200, 229); stroke-opacity: 1; stroke-width: 1px; opacity: 1;"/></g><g class="points"/><g class="text"/></g><g class="trace scatter trace9c366c" style="stroke-miterlimit: 2;"><g class="fills"/><g class="errorbars"/><g class="lines"><path class="js-line" d="M90,298.79L90,21.18" style="vector-effect: none; fill: none; stroke: rgb(0, 0, 0); stroke-opacity: 0; stroke-width: 1px; opacity: 1;"/></g><g class="points"/><g class="text"/></g><g class="trace scatter trace32b4d4" style="stroke-miterlimit: 2; opacity: 1;"><g class="fills"/><g class="errorbars"/><g class="lines"><path class="js-line" d="M90,238.84L74.35,238.84" style="vector-effect: none; fill: none; stroke: rgb(0, 200, 229); stroke-opacity: 1; stroke-dasharray: 3px, 3px; stroke-width: 1px; opacity: 1;"/></g><g class="points"/><g class="text"/></g><g class="trace scatter trace75537d" style="stroke-miterlimit: 2; opacity: 1;"><g class="fills"/><g class="errorbars"/><g class="lines"><path class="js-line" d="M90,152.38L75.97,152.38" style="vector-effect: none; fill: none; stroke: rgb(0, 200, 229); stroke-opacity: 1; stroke-dasharray: 3px, 3px; stroke-width: 1px; opacity: 1;"/></g><g class="points"/><g class="text"/></g><g class="trace scatter trace2f0a53" style="stroke-miterlimit: 2; opacity: 1;"><g class="fills"/><g class="errorbars"/><g class="lines"><path class="js-line" d="M90,104.55L71.97,104.55" style="vector-effect: none; fill: none; stroke: rgb(0, 200, 229); stroke-opacity: 1; stroke-dasharray: 3px, 3px; stroke-width: 1px; opacity: 1;"/></g><g class="points"/><g class="text"/></g><g class="trace scatter tracef49ee3" style="stroke-miterlimit: 2;"><g class="fills"><g><path class="js-fill" d="M112.5,293.23L112.5,26.73L112.41,26.73L112.19,31.9L112.19,31.94L111.17,37.71L111.16,37.75L102.33,54.22L102.31,54.27L91.98,86.39L91.96,86.43L90.4,92.98L90.39,93.02L90.11,100.22L90.11,100.26L96.44,122.3L96.45,122.34L101.25,144.18L101.26,144.22L102.01,152.97L102.01,153.01L101.44,160.08L101.44,160.12L97.24,175.94L97.22,175.98L95.16,183.43L95.15,183.47L94.72,188.88L94.73,188.92L95.85,194.33L95.86,194.37L100.81,203.68L100.83,203.72L104.99,210.8L105.02,210.84L107.93,217.67L107.95,217.71L109.6,224.95L109.61,224.99L110.36,237.76L110.36,237.8L108.98,254.76L108.97,254.8L108.22,262.53L108.22,262.57L111.66,281.68L111.67,281.72L112.41,293.23Z" style="fill: rgb(0, 200, 229); fill-opacity: 0.2; stroke-width: 0;"/></g></g><g class="errorbars"/><g class="lines"><path class="js-line" d="M112.41,293.23L111.67,281.72L111.66,281.68L108.22,262.57L108.22,262.53L108.97,254.8L108.98,254.76L110.36,237.8L110.36,237.76L109.61,224.99L109.6,224.95L107.95,217.71L107.93,217.67L105.02,210.84L104.99,210.8L100.83,203.72L100.81,203.68L95.86,194.37L95.85,194.33L94.73,188.92L94.72,188.88L95.15,183.47L95.16,183.43L97.22,175.98L97.24,175.94L101.44,160.12L101.44,160.08L102.01,153.01L102.01,152.97L101.26,144.22L101.25,144.18L96.45,122.34L96.44,122.3L90.11,100.26L90.11,100.22L90.39,93.02L90.4,92.98L91.96,86.43L91.98,86.39L102.31,54.27L102.33,54.22L111.16,37.75L111.17,37.71L112.19,31.94L112.19,31.9L112.41,26.73" style="vector-effect: none; fill: none; stroke: rgb(0, 200, 229); stroke-opacity: 1; stroke-width: 1px; opacity: 1;"/></g><g class="points"/><g class="text"/></g><g class="trace scatter trace06ed1a" style="stroke-miterlimit: 2;"><g class="fills"/><g class="errorbars"/><g class="lines"><path class="js-line" d="M112.5,293.23L112.5,26.73" style="vector-effect: none; fill: none; stroke: rgb(0, 0, 0); stroke-opacity: 0; stroke-width: 1px; opacity: 1;"/></g><g class="points"/><g class="text"/></g><g class="trace scatter trace209764" style="stroke-miterlimit: 2; opacity: 1;"><g class="fills"/><g class="errorbars"/><g class="lines"><path class="js-line" d="M112.5,179.81L96.04,179.81" style="vector-effect: none; fill: none; stroke: rgb(0, 200, 229); stroke-opacity: 1; stroke-dasharray: 3px, 3px; stroke-width: 1px; opacity: 1;"/></g><g class="points"/><g class="text"/></g><g class="trace scatter tracea9c797" style="stroke-miterlimit: 2; opacity: 1;"><g class="fills"/><g class="errorbars"/><g class="lines"><path class="js-line" d="M112.5,125.11L97.19,125.11" style="vector-effect: none; fill: none; stroke: rgb(0, 200, 229); stroke-opacity: 1; stroke-dasharray: 3px, 3px; stroke-width: 1px; opacity: 1;"/></g><g class="points"/><g class="text"/></g><g class="trace scatter trace870779" style="stroke-miterlimit: 2; opacity: 1;"><g class="fills"/><g class="errorbars"/><g class="lines"><path class="js-line" d="M112.5,90.66L90.84,90.66" style="vector-effect: none; fill: none; stroke: rgb(0, 200, 229); stroke-opacity: 1; stroke-dasharray: 3px, 3px; stroke-width: 1px; opacity: 1;"/></g><g class="points"/><g class="text"/></g><g class="trace scatter trace58af53" style="stroke-miterlimit: 2;"><g class="fills"><g><path class="js-fill" d="M135,293.29L135,26.68L134.91,26.68L134.69,31.64L134.69,31.68L133.61,37.62L133.6,37.66L124.24,53.98L124.22,54.02L120.66,61.38L120.64,61.42L114.55,82.7L114.54,82.74L112.91,90.19L112.9,90.23L112.59,97.39L112.59,97.43L119.63,120.17L119.64,120.21L123.26,136.49L123.27,136.53L124.85,149.91L124.85,149.95L124.78,162.77L124.78,162.81L121.23,178.92L121.21,178.96L119.49,186.85L119.49,186.9L119.92,193.12L119.93,193.16L126.94,208.13L126.97,208.17L130.1,214.81L130.12,214.85L132.47,223.43L132.48,223.47L133.2,237.02L133.2,237.06L132.18,251.22L132.17,251.26L130.84,261.15L130.83,261.19L130.78,267.13L130.78,267.17L132.64,275.63L132.65,275.67L134.15,282.02L134.16,282.06L134.91,293.29Z" style="fill: rgb(0, 200, 229); fill-opacity: 0.2; stroke-width: 0;"/></g></g><g class="errorbars"/><g class="lines"><path class="js-line" d="M134.91,293.29L134.16,282.06L134.15,282.02L132.65,275.67L132.64,275.63L130.78,267.17L130.78,267.13L130.83,261.19L130.84,261.15L132.17,251.26L132.18,251.22L133.2,237.06L133.2,237.02L132.48,223.47L132.47,223.43L130.12,214.85L130.1,214.81L126.97,208.17L126.94,208.13L119.93,193.16L119.92,193.12L119.49,186.9L119.49,186.85L121.21,178.96L121.23,178.92L124.78,162.81L124.78,162.77L124.85,149.95L124.85,149.91L123.27,136.53L123.26,136.49L119.64,120.21L119.63,120.17L112.59,97.43L112.59,97.39L112.9,90.23L112.91,90.19L114.54,82.74L114.55,82.7L120.64,61.42L120.66,61.38L124.22,54.02L124.24,53.98L133.6,37.66L133.61,37.62L134.69,31.68L134.69,31.64L134.91,26.68" style="vector-effect: none; fill: none; stroke: rgb(0, 200, 229); stroke-opacity: 1; stroke-width: 1px; opacity: 1;"/></g><g class="points"/><g class="text"/></g><g class="trace scatter trace405bd6" style="stroke-miterlimit: 2;"><g class="fills"/><g class="errorbars"/><g class="lines"><path class="js-line" d="M135,293.29L135,26.68" style="vector-effect: none; fill: none; stroke: rgb(0, 0, 0); stroke-opacity: 0; stroke-width: 1px; opacity: 1;"/></g><g class="points"/><g class="text"/></g><g class="trace scatter trace29636c" style="stroke-miterlimit: 2; opacity: 1;"><g class="fills"/><g class="errorbars"/><g class="lines"><path class="js-line" d="M135,176.6L121.94,176.6" style="vector-effect: none; fill: none; stroke: rgb(0, 200, 229); stroke-opacity: 1; stroke-dasharray: 3px, 3px; stroke-width: 1px; opacity: 1;"/></g><g class="points"/><g class="text"/></g><g class="trace scatter trace05f46d" style="stroke-miterlimit: 2; opacity: 1;"><g class="fills"/><g class="errorbars"/><g class="lines"><path class="js-line" d="M135,119.56L119.44,119.56" style="vector-effect: none; fill: none; stroke: rgb(0, 200, 229); stroke-opacity: 1; stroke-dasharray: 3px, 3px; stroke-width: 1px; opacity: 1;"/></g><g class="points"/><g class="text"/></g><g class="trace scatter trace2d37d4" style="stroke-miterlimit: 2; opacity: 1;"><g class="fills"/><g class="errorbars"/><g class="lines"><path class="js-line" d="M135,87.09L113.49,87.09" style="vector-effect: none; fill: none; stroke: rgb(0, 200, 229); stroke-opacity: 1; stroke-dasharray: 3px, 3px; stroke-width: 1px; opacity: 1;"/></g><g class="points"/><g class="text"/></g><g class="trace scatter trace5475f8" style="stroke-miterlimit: 2;"><g class="fills"><g><path class="js-fill" d="M157.5,293.34L157.5,26.63L157.39,26.63L157.08,31.8L157.08,31.84L155.52,38.06L155.5,38.11L144.73,53L144.7,53.04L141.04,59.59L141.02,59.64L135.76,83.89L135.75,83.93L135,92.11L135,92.15L135.61,99.44L135.62,99.48L141.18,115.76L141.2,115.8L144.57,126.22L144.58,126.26L147.05,140.1L147.06,140.14L147.81,152.43L147.81,152.47L147.24,163.01L147.24,163.05L143.23,182.18L143.22,182.22L142.47,187.84L142.47,187.88L143.14,193.91L143.15,193.95L147.31,203.31L147.33,203.35L152.59,213.56L152.61,213.6L154.97,222.31L154.98,222.35L155.73,233.83L155.73,233.87L153,259.11L152.99,259.15L152.68,265.9L152.68,265.94L154.39,273.92L154.41,273.96L156.63,282.31L156.64,282.35L157.39,293.34Z" style="fill: rgb(0, 200, 229); fill-opacity: 0.2; stroke-width: 0;"/></g></g><g class="errorbars"/><g class="lines"><path class="js-line" d="M157.39,293.34L156.64,282.35L156.63,282.31L154.41,273.96L154.39,273.92L152.68,265.94L152.68,265.9L152.99,259.15L153,259.11L155.73,233.87L155.73,233.83L154.98,222.35L154.97,222.31L152.61,213.6L152.59,213.56L147.33,203.35L147.31,203.31L143.15,193.95L143.14,193.91L142.47,187.88L142.47,187.84L143.22,182.22L143.23,182.18L147.24,163.05L147.24,163.01L147.81,152.47L147.81,152.43L147.06,140.14L147.05,140.1L144.58,126.26L144.57,126.22L141.2,115.8L141.18,115.76L135.62,99.48L135.61,99.44L135,92.15L135,92.11L135.75,83.93L135.76,83.89L141.02,59.64L141.04,59.59L144.7,53.04L144.73,53L155.5,38.11L155.52,38.06L157.08,31.84L157.08,31.8L157.39,26.63" style="vector-effect: none; fill: none; stroke: rgb(0, 200, 229); stroke-opacity: 1; stroke-width: 1px; opacity: 1;"/></g><g class="points"/><g class="text"/></g><g class="trace scatter trace2be783" style="stroke-miterlimit: 2;"><g class="fills"/><g class="errorbars"/><g class="lines"><path class="js-line" d="M157.5,293.34L157.5,26.63" style="vector-effect: none; fill: none; stroke: rgb(0, 0, 0); stroke-opacity: 0; stroke-width: 1px; opacity: 1;"/></g><g class="points"/><g class="text"/></g><g class="trace scatter trace56c8db" style="stroke-miterlimit: 2; opacity: 1;"><g class="fills"/><g class="errorbars"/><g class="lines"><path class="js-line" d="M157.5,174.94L145.03,174.94" style="vector-effect: none; fill: none; stroke: rgb(0, 200, 229); stroke-opacity: 1; stroke-dasharray: 3px, 3px; stroke-width: 1px; opacity: 1;"/></g><g class="points"/><g class="text"/></g><g class="trace scatter trace7645cc" style="stroke-miterlimit: 2; opacity: 1;"><g class="fills"/><g class="errorbars"/><g class="lines"><path class="js-line" d="M157.5,115.8L141.2,115.8" style="vector-effect: none; fill: none; stroke: rgb(0, 200, 229); stroke-opacity: 1; stroke-dasharray: 3px, 3px; stroke-width: 1px; opacity: 1;"/></g><g class="points"/><g class="text"/></g><g class="trace scatter trace1810f2" style="stroke-miterlimit: 2; opacity: 1;"><g class="fills"/><g class="errorbars"/><g class="lines"><path class="js-line" d="M157.5,83.53L135.82,83.53" style="vector-effect: none; fill: none; stroke: rgb(0, 200, 229); stroke-opacity: 1; stroke-dasharray: 3px, 3px; stroke-width: 1px; opacity: 1;"/></g><g class="points"/><g class="text"/></g><g class="trace scatter trace1f1773" style="stroke-miterlimit: 2;"><g class="fills"><g><path class="js-fill" d="M180,292.48L180,27.48L179.88,27.48L179.53,32.54L179.53,32.58L177.8,38.65L177.78,38.69L173.66,44.79L173.62,44.83L166.47,53.12L166.44,53.16L163.28,58.54L163.26,58.58L161.43,64.28L161.42,64.32L157.84,86.97L157.84,87.01L157.54,94.21L157.54,94.25L158.36,100.6L158.36,100.64L161.71,111.68L161.73,111.72L164.79,120.9L164.81,120.94L168.5,136.63L168.51,136.67L169.97,148.15L169.97,148.19L170.03,159.23L170.03,159.27L166.08,182L166.07,182.04L165.33,189.12L165.33,189.16L166.42,195.14L166.44,195.18L171.61,205.9L171.63,205.94L175.31,213.62L175.33,213.66L177.6,221.75L177.61,221.79L178.36,231.09L178.36,231.13L174.92,260.86L174.92,260.9L174.81,266.36L174.81,266.4L176.96,274.73L176.97,274.77L179.12,282.21L179.13,282.25L179.88,292.48Z" style="fill: rgb(0, 200, 229); fill-opacity: 0.2; stroke-width: 0;"/></g></g><g class="errorbars"/><g class="lines"><path class="js-line" d="M179.88,292.48L179.13,282.25L179.12,282.21L176.97,274.77L176.96,274.73L174.81,266.4L174.81,266.36L174.92,260.9L174.92,260.86L178.36,231.13L178.36,231.09L177.61,221.79L177.6,221.75L175.33,213.66L175.31,213.62L171.63,205.94L171.61,205.9L166.44,195.18L166.42,195.14L165.33,189.16L165.33,189.12L166.07,182.04L166.08,182L170.03,159.27L170.03,159.23L169.97,148.19L169.97,148.15L168.51,136.67L168.5,136.63L164.81,120.94L164.79,120.9L161.73,111.72L161.71,111.68L158.36,100.64L158.36,100.6L157.54,94.25L157.54,94.21L157.84,87.01L157.84,86.97L161.42,64.32L161.43,64.28L163.26,58.58L163.28,58.54L166.44,53.16L166.47,53.12L173.62,44.83L173.66,44.79L177.78,38.69L177.8,38.65L179.53,32.58L179.53,32.54L179.88,27.48" style="vector-effect: none; fill: none; stroke: rgb(0, 200, 229); stroke-opacity: 1; stroke-width: 1px; opacity: 1;"/></g><g class="points"/><g class="text"/></g><g class="trace scatter trace9d99c1" style="stroke-miterlimit: 2;"><g class="fills"/><g class="errorbars"/><g class="lines"><path class="js-line" d="M180,292.48L180,27.48" style="vector-effect: none; fill: none; stroke: rgb(0, 0, 0); stroke-opacity: 0; stroke-width: 1px; opacity: 1;"/></g><g class="points"/><g class="text"/></g><g class="trace scatter traceab7fcf" style="stroke-miterlimit: 2; opacity: 1;"><g class="fills"/><g class="errorbars"/><g class="lines"><path class="js-line" d="M180,173.67L168.04,173.67" style="vector-effect: none; fill: none; stroke: rgb(0, 200, 229); stroke-opacity: 1; stroke-dasharray: 3px, 3px; stroke-width: 1px; opacity: 1;"/></g><g class="points"/><g class="text"/></g><g class="trace scatter tracef001e7" style="stroke-miterlimit: 2; opacity: 1;"><g class="fills"/><g class="errorbars"/><g class="lines"><path class="js-line" d="M180,115.6L163.1,115.6" style="vector-effect: none; fill: none; stroke: rgb(0, 200, 229); stroke-opacity: 1; stroke-dasharray: 3px, 3px; stroke-width: 1px; opacity: 1;"/></g><g class="points"/><g class="text"/></g><g class="trace scatter traceeedebb" style="stroke-miterlimit: 2; opacity: 1;"><g class="fills"/><g class="errorbars"/><g class="lines"><path class="js-line" d="M180,83.09L158.38,83.09" style="vector-effect: none; fill: none; stroke: rgb(0, 200, 229); stroke-opacity: 1; stroke-dasharray: 3px, 3px; stroke-width: 1px; opacity: 1;"/></g><g class="points"/><g class="text"/></g><g class="trace scatter tracef89251" style="stroke-miterlimit: 2;"><g class="fills"><g><path class="js-fill" d="M202.5,294.07L202.5,25.89L202.33,25.89L202.22,28.64L202.22,28.68L201.27,34.2L201.26,34.24L199.13,38.91L199.11,38.95L191.12,47.99L191.08,48.03L187.02,52.58L186.99,52.62L184.36,57.08L184.34,57.12L181.54,75.7L181.53,75.74L180.09,86.91L180.08,86.95L180.31,94.77L180.31,94.81L184.58,111.47L184.6,111.51L189.4,127.63L189.42,127.67L192.56,140.36L192.57,140.4L193.32,146.91L193.33,146.95L193.1,155.26L193.1,155.3L188.88,180.01L188.87,180.06L188.12,186.73L188.12,186.77L188.96,193.15L188.97,193.19L192.76,202.44L192.78,202.48L197.04,211.73L197.06,211.77L199.32,219.83L199.33,219.87L200.08,227.57L200.09,227.61L199.54,238.04L199.54,238.09L197.46,249.46L197.45,249.5L194.57,260.88L194.56,260.92L194.44,265.87L194.44,265.91L199.73,279.05L199.75,279.09L201.58,284.82L201.59,284.86L202.34,294.07Z" style="fill: rgb(59, 2, 128); fill-opacity: 0.2; stroke-width: 0;"/></g></g><g class="errorbars"/><g class="lines"><path class="js-line" d="M202.34,294.07L201.59,284.86L201.58,284.82L199.75,279.09L199.73,279.05L194.44,265.91L194.44,265.87L194.56,260.92L194.57,260.88L197.45,249.5L197.46,249.46L199.54,238.09L199.54,238.04L200.09,227.61L200.08,227.57L199.33,219.87L199.32,219.83L197.06,211.77L197.04,211.73L192.78,202.48L192.76,202.44L188.97,193.19L188.96,193.15L188.12,186.77L188.12,186.73L188.87,180.06L188.88,180.01L193.1,155.3L193.1,155.26L193.33,146.95L193.32,146.91L192.57,140.4L192.56,140.36L189.42,127.67L189.4,127.63L184.6,111.51L184.58,111.47L180.31,94.81L180.31,94.77L180.08,86.95L180.09,86.91L181.53,75.74L181.54,75.7L184.34,57.12L184.36,57.08L186.99,52.62L187.02,52.58L191.08,48.03L191.12,47.99L199.11,38.95L199.13,38.91L201.26,34.24L201.27,34.2L202.22,28.68L202.22,28.64L202.33,25.89" style="vector-effect: none; fill: none; stroke: rgb(59, 2, 128); stroke-opacity: 1; stroke-width: 1px; opacity: 1;"/></g><g class="points"/><g class="text"/></g><g class="trace scatter trace2a1b0f" style="stroke-miterlimit: 2;"><g class="fills"/><g class="errorbars"/><g class="lines"><path class="js-line" d="M202.5,294.07L202.5,25.89" style="vector-effect: none; fill: none; stroke: rgb(0, 0, 0); stroke-opacity: 0; stroke-width: 1px; opacity: 1;"/></g><g class="points"/><g class="text"/></g><g class="trace scatter trace61d9e8" style="stroke-miterlimit: 2; opacity: 1;"><g class="fills"/><g class="errorbars"/><g class="lines"><path class="js-line" d="M202.5,178.7L189.15,178.7" style="vector-effect: none; fill: none; stroke: rgb(59, 2, 128); stroke-opacity: 1; stroke-dasharray: 3px, 3px; stroke-width: 1px; opacity: 1;"/></g><g class="points"/><g class="text"/></g><g class="trace scatter trace45fab1" style="stroke-miterlimit: 2; opacity: 1;"><g class="fills"/><g class="errorbars"/><g class="lines"><path class="js-line" d="M202.5,116.09L186.08,116.09" style="vector-effect: none; fill: none; stroke: rgb(59, 2, 128); stroke-opacity: 1; stroke-dasharray: 3px, 3px; stroke-width: 1px; opacity: 1;"/></g><g class="points"/><g class="text"/></g><g class="trace scatter tracee49b55" style="stroke-miterlimit: 2; opacity: 1;"><g class="fills"/><g class="errorbars"/><g class="lines"><path class="js-line" d="M202.5,81.59L180.65,81.59" style="vector-effect: none; fill: none; stroke: rgb(59, 2, 128); stroke-opacity: 1; stroke-dasharray: 3px, 3px; stroke-width: 1px; opacity: 1;"/></g><g class="points"/><g class="text"/></g><g class="trace scatter trace3ccd33" style="stroke-miterlimit: 2;"><g class="fills"><g><path class="js-fill" d="M225,298.19L225,21.77L224.79,21.77L224.65,25.74L224.65,25.78L223.63,31.9L223.62,31.94L221.25,37.42L221.23,37.47L215.73,44.51L215.69,44.55L209.03,51.98L209,52.02L205.8,57.08L205.78,57.12L204.02,62.82L204.01,62.86L203.26,76.82L203.25,76.86L202.51,92.01L202.51,92.05L208.97,132.29L208.97,132.33L212.61,157.18L212.61,157.22L218.95,187.42L218.96,187.46L221.42,202.23L221.42,202.27L221.56,212.52L221.56,212.56L219.67,223.74L219.66,223.78L209.28,250.53L209.26,250.57L207.44,256.64L207.43,256.68L207.21,261.2L207.22,261.24L208.56,265.84L208.58,265.88L218.01,278.03L218.04,278.07L221.65,283.3L221.67,283.34L224.03,289.75L224.04,289.8L224.79,298.19Z" style="fill: rgb(59, 2, 128); fill-opacity: 0.2; stroke-width: 0;"/></g></g><g class="errorbars"/><g class="lines"><path class="js-line" d="M224.79,298.19L224.04,289.8L224.03,289.75L221.67,283.34L221.65,283.3L218.04,278.07L218.01,278.03L208.58,265.88L208.56,265.84L207.22,261.24L207.21,261.2L207.43,256.68L207.44,256.64L209.26,250.57L209.28,250.53L219.66,223.78L219.67,223.74L221.56,212.56L221.56,212.52L221.42,202.27L221.42,202.23L218.96,187.46L218.95,187.42L212.61,157.22L212.61,157.18L208.97,132.33L208.97,132.29L202.51,92.05L202.51,92.01L203.25,76.86L203.26,76.82L204.01,62.86L204.02,62.82L205.78,57.12L205.8,57.08L209,52.02L209.03,51.98L215.69,44.55L215.73,44.51L221.23,37.47L221.25,37.42L223.62,31.94L223.63,31.9L224.65,25.78L224.65,25.74L224.79,21.77" style="vector-effect: none; fill: none; stroke: rgb(59, 2, 128); stroke-opacity: 1; stroke-width: 1px; opacity: 1;"/></g><g class="points"/><g class="text"/></g><g class="trace scatter tracecbaef3" style="stroke-miterlimit: 2;"><g class="fills"/><g class="errorbars"/><g class="lines"><path class="js-line" d="M225,298.19L225,21.77" style="vector-effect: none; fill: none; stroke: rgb(0, 0, 0); stroke-opacity: 0; stroke-width: 1px; opacity: 1;"/></g><g class="points"/><g class="text"/></g><g class="trace scatter tracee8a746" style="stroke-miterlimit: 2; opacity: 1;"><g class="fills"/><g class="errorbars"/><g class="lines"><path class="js-line" d="M225,198.05L220.93,198.05" style="vector-effect: none; fill: none; stroke: rgb(59, 2, 128); stroke-opacity: 1; stroke-dasharray: 3px, 3px; stroke-width: 1px; opacity: 1;"/></g><g class="points"/><g class="text"/></g><g class="trace scatter traceefaf41" style="stroke-miterlimit: 2; opacity: 1;"><g class="fills"/><g class="errorbars"/><g class="lines"><path class="js-line" d="M225,124.23L207.9,124.23" style="vector-effect: none; fill: none; stroke: rgb(59, 2, 128); stroke-opacity: 1; stroke-dasharray: 3px, 3px; stroke-width: 1px; opacity: 1;"/></g><g class="points"/><g class="text"/></g><g class="trace scatter trace0fa33a" style="stroke-miterlimit: 2; opacity: 1;"><g class="fills"/><g class="errorbars"/><g class="lines"><path class="js-line" d="M225,84.08L202.79,84.08" style="vector-effect: none; fill: none; stroke: rgb(59, 2, 128); stroke-opacity: 1; stroke-dasharray: 3px, 3px; stroke-width: 1px; opacity: 1;"/></g><g class="points"/><g class="text"/></g><g class="trace scatter trace3ffb29" style="stroke-miterlimit: 2;"><g class="fills"><g><path class="js-fill" d="M247.5,298.99L247.5,20.97L247.33,20.97L246.82,31.2L246.81,31.24L244.75,39.26L244.73,39.3L239.7,48.89L239.68,48.93L234.78,57.59L234.75,57.63L231.89,64.71L231.87,64.76L229.28,75.15L229.27,75.19L226.94,88.6L226.93,88.64L226.18,98.32L226.18,98.36L229.47,131.66L229.47,131.71L232.02,150.42L232.02,150.46L238.28,179.9L238.29,179.94L241.93,196.45L241.94,196.49L242.69,203.83L242.7,203.87L242.55,211.47L242.55,211.51L241.09,219.1L241.08,219.15L233.42,237.01L233.4,237.05L226.99,250.67L226.97,250.71L225.18,256.61L225.18,256.65L225.19,261.02L225.2,261.06L226.81,265.26L226.84,265.3L239.68,278.92L239.72,278.97L243.77,284.14L243.8,284.18L246.04,289.19L246.05,289.23L247.33,298.99Z" style="fill: rgb(59, 2, 128); fill-opacity: 0.2; stroke-width: 0;"/></g></g><g class="errorbars"/><g class="lines"><path class="js-line" d="M247.33,298.99L246.05,289.23L246.04,289.19L243.8,284.18L243.77,284.14L239.72,278.97L239.68,278.92L226.84,265.3L226.81,265.26L225.2,261.06L225.19,261.02L225.18,256.65L225.18,256.61L226.97,250.71L226.99,250.67L233.4,237.05L233.42,237.01L241.08,219.15L241.09,219.1L242.55,211.51L242.55,211.47L242.7,203.87L242.69,203.83L241.94,196.49L241.93,196.45L238.29,179.94L238.28,179.9L232.02,150.46L232.02,150.42L229.47,131.71L229.47,131.66L226.18,98.36L226.18,98.32L226.93,88.64L226.94,88.6L229.27,75.19L229.28,75.15L231.87,64.76L231.89,64.71L234.75,57.63L234.78,57.59L239.68,48.93L239.7,48.89L244.73,39.3L244.75,39.26L246.81,31.24L246.82,31.2L247.33,20.97" style="vector-effect: none; fill: none; stroke: rgb(59, 2, 128); stroke-opacity: 1; stroke-width: 1px; opacity: 1;"/></g><g class="points"/><g class="text"/></g><g class="trace scatter traced00b9c" style="stroke-miterlimit: 2;"><g class="fills"/><g class="errorbars"/><g class="lines"><path class="js-line" d="M247.5,298.99L247.5,20.97" style="vector-effect: none; fill: none; stroke: rgb(0, 0, 0); stroke-opacity: 0; stroke-width: 1px; opacity: 1;"/></g><g class="points"/><g class="text"/></g><g class="trace scatter trace6ef547" style="stroke-miterlimit: 2; opacity: 1;"><g class="fills"/><g class="errorbars"/><g class="lines"><path class="js-line" d="M247.5,232.04L235.82,232.04" style="vector-effect: none; fill: none; stroke: rgb(59, 2, 128); stroke-opacity: 1; stroke-dasharray: 3px, 3px; stroke-width: 1px; opacity: 1;"/></g><g class="points"/><g class="text"/></g><g class="trace scatter traceff2953" style="stroke-miterlimit: 2; opacity: 1;"><g class="fills"/><g class="errorbars"/><g class="lines"><path class="js-line" d="M247.5,141.38L230.67,141.38" style="vector-effect: none; fill: none; stroke: rgb(59, 2, 128); stroke-opacity: 1; stroke-dasharray: 3px, 3px; stroke-width: 1px; opacity: 1;"/></g><g class="points"/><g class="text"/></g><g class="trace scatter tracea0f782" style="stroke-miterlimit: 2; opacity: 1;"><g class="fills"/><g class="errorbars"/><g class="lines"><path class="js-line" d="M247.5,96.83L226.21,96.83" style="vector-effect: none; fill: none; stroke: rgb(59, 2, 128); stroke-opacity: 1; stroke-dasharray: 3px, 3px; stroke-width: 1px; opacity: 1;"/></g><g class="points"/><g class="text"/></g><g class="trace scatter trace6c6f8b" style="stroke-miterlimit: 2;"><g class="fills"><g><path class="js-fill" d="M270,293.58L270,26.39L269.91,26.39L269.67,32.01L269.67,32.05L268.11,39.47L268.09,39.52L264.26,47.06L264.23,47.1L257.91,58.15L257.89,58.19L249.4,84.41L249.39,84.45L247.69,92.07L247.68,92.11L247.59,97.37L247.59,97.41L253.33,116.86L253.34,116.9L256.35,128.89L256.36,128.93L258.51,140.8L258.52,140.84L259.27,151.36L259.27,151.4L258.73,161.71L258.73,161.76L255.33,178.43L255.32,178.47L254.08,186.67L254.08,186.71L254.57,191.76L254.57,191.81L261.79,207.22L261.81,207.26L265.04,215.13L265.06,215.17L267,224.79L267.01,224.83L267.76,236.9L267.76,236.94L265.26,259.57L265.25,259.61L264.9,265.89L264.9,265.93L266.98,274.98L267,275.03L269.15,282.94L269.16,282.98L269.91,293.58Z" style="fill: rgb(59, 2, 128); fill-opacity: 0.2; stroke-width: 0;"/></g></g><g class="errorbars"/><g class="lines"><path class="js-line" d="M269.91,293.58L269.16,282.98L269.15,282.94L267,275.03L266.98,274.98L264.9,265.93L264.9,265.89L265.25,259.61L265.26,259.57L267.76,236.94L267.76,236.9L267.01,224.83L267,224.79L265.06,215.17L265.04,215.13L261.81,207.26L261.79,207.22L254.57,191.81L254.57,191.76L254.08,186.71L254.08,186.67L255.32,178.47L255.33,178.43L258.73,161.76L258.73,161.71L259.27,151.4L259.27,151.36L258.52,140.84L258.51,140.8L256.36,128.93L256.35,128.89L253.34,116.9L253.33,116.86L247.59,97.41L247.59,97.37L247.68,92.11L247.69,92.07L249.39,84.45L249.4,84.41L257.89,58.19L257.91,58.15L264.23,47.1L264.26,47.06L268.09,39.52L268.11,39.47L269.67,32.05L269.67,32.01L269.91,26.39" style="vector-effect: none; fill: none; stroke: rgb(59, 2, 128); stroke-opacity: 1; stroke-width: 1px; opacity: 1;"/></g><g class="points"/><g class="text"/></g><g class="trace scatter trace4d73db" style="stroke-miterlimit: 2;"><g class="fills"/><g class="errorbars"/><g class="lines"><path class="js-line" d="M270,293.58L270,26.39" style="vector-effect: none; fill: none; stroke: rgb(0, 0, 0); stroke-opacity: 0; stroke-width: 1px; opacity: 1;"/></g><g class="points"/><g class="text"/></g><g class="trace scatter trace2eb7cd" style="stroke-miterlimit: 2; opacity: 1;"><g class="fills"/><g class="errorbars"/><g class="lines"><path class="js-line" d="M270,178.51L255.31,178.51" style="vector-effect: none; fill: none; stroke: rgb(59, 2, 128); stroke-opacity: 1; stroke-dasharray: 3px, 3px; stroke-width: 1px; opacity: 1;"/></g><g class="points"/><g class="text"/></g><g class="trace scatter trace6ecc98" style="stroke-miterlimit: 2; opacity: 1;"><g class="fills"/><g class="errorbars"/><g class="lines"><path class="js-line" d="M270,123.26L255.09,123.26" style="vector-effect: none; fill: none; stroke: rgb(59, 2, 128); stroke-opacity: 1; stroke-dasharray: 3px, 3px; stroke-width: 1px; opacity: 1;"/></g><g class="points"/><g class="text"/></g><g class="trace scatter traced538bd" style="stroke-miterlimit: 2; opacity: 1;"><g class="fills"/><g class="errorbars"/><g class="lines"><path class="js-line" d="M270,89.18L248.16,89.18" style="vector-effect: none; fill: none; stroke: rgb(59, 2, 128); stroke-opacity: 1; stroke-dasharray: 3px, 3px; stroke-width: 1px; opacity: 1;"/></g><g class="points"/><g class="text"/></g><g class="trace scatter trace286d5f" style="stroke-miterlimit: 2;"><g class="fills"><g><path class="js-fill" d="M292.5,293.31L292.5,26.65L292.39,26.65L292.39,26.81L292.39,26.85L291.88,33.61L291.87,33.65L290.31,39.06L290.3,39.1L281.91,51.35L281.88,51.39L277.64,58.23L277.62,58.27L274.8,66.49L274.79,66.53L270.76,85.09L270.75,85.13L270,93.06L270,93.1L270.48,99.69L270.48,99.74L275.93,119.51L275.95,119.55L279.11,132.41L279.12,132.45L280.64,144.9L280.65,144.95L280.59,157.68L280.59,157.72L277.27,179.21L277.26,179.25L276.51,185.96L276.51,186.01L277.14,191.91L277.15,191.95L280.83,200.9L280.86,200.94L285.84,210.46L285.86,210.5L288.83,219.37L288.84,219.41L290.28,230.6L290.29,230.65L290.31,242.2L290.31,242.24L287.86,259.37L287.85,259.42L287.45,265.28L287.45,265.32L289.28,274.07L289.3,274.11L291.64,282.61L291.65,282.65L292.39,293.31Z" style="fill: rgb(59, 2, 128); fill-opacity: 0.2; stroke-width: 0;"/></g></g><g class="errorbars"/><g class="lines"><path class="js-line" d="M292.39,293.31L291.65,282.65L291.64,282.61L289.3,274.11L289.28,274.07L287.45,265.32L287.45,265.28L287.85,259.42L287.86,259.37L290.31,242.24L290.31,242.2L290.29,230.65L290.28,230.6L288.84,219.41L288.83,219.37L285.86,210.5L285.84,210.46L280.86,200.94L280.83,200.9L277.15,191.95L277.14,191.91L276.51,186.01L276.51,185.96L277.26,179.25L277.27,179.21L280.59,157.72L280.59,157.68L280.65,144.95L280.64,144.9L279.12,132.45L279.11,132.41L275.95,119.55L275.93,119.51L270.48,99.74L270.48,99.69L270,93.1L270,93.06L270.75,85.13L270.76,85.09L274.79,66.53L274.8,66.49L277.62,58.27L277.64,58.23L281.88,51.39L281.91,51.35L290.3,39.1L290.31,39.06L291.87,33.65L291.88,33.61L292.39,26.85L292.39,26.81L292.39,26.65" style="vector-effect: none; fill: none; stroke: rgb(59, 2, 128); stroke-opacity: 1; stroke-width: 1px; opacity: 1;"/></g><g class="points"/><g class="text"/></g><g class="trace scatter trace2581e6" style="stroke-miterlimit: 2;"><g class="fills"/><g class="errorbars"/><g class="lines"><path class="js-line" d="M292.5,293.31L292.5,26.65" style="vector-effect: none; fill: none; stroke: rgb(0, 0, 0); stroke-opacity: 0; stroke-width: 1px; opacity: 1;"/></g><g class="points"/><g class="text"/></g><g class="trace scatter trace929193" style="stroke-miterlimit: 2; opacity: 1;"><g class="fills"/><g class="errorbars"/><g class="lines"><path class="js-line" d="M292.5,175.63L277.96,175.63" style="vector-effect: none; fill: none; stroke: rgb(59, 2, 128); stroke-opacity: 1; stroke-dasharray: 3px, 3px; stroke-width: 1px; opacity: 1;"/></g><g class="points"/><g class="text"/></g><g class="trace scatter trace5724ff" style="stroke-miterlimit: 2; opacity: 1;"><g class="fills"/><g class="errorbars"/><g class="lines"><path class="js-line" d="M292.5,121.02L276.39,121.02" style="vector-effect: none; fill: none; stroke: rgb(59, 2, 128); stroke-opacity: 1; stroke-dasharray: 3px, 3px; stroke-width: 1px; opacity: 1;"/></g><g class="points"/><g class="text"/></g><g class="trace scatter trace29d2cc" style="stroke-miterlimit: 2; opacity: 1;"><g class="fills"/><g class="errorbars"/><g class="lines"><path class="js-line" d="M292.5,86.51L270.53,86.51" style="vector-effect: none; fill: none; stroke: rgb(59, 2, 128); stroke-opacity: 1; stroke-dasharray: 3px, 3px; stroke-width: 1px; opacity: 1;"/></g><g class="points"/><g class="text"/></g><g class="trace scatter trace3e2dff" style="stroke-miterlimit: 2;"><g class="fills"><g><path class="js-fill" d="M315,293.97L315,25.99L314.88,25.99L314.43,32.82L314.42,32.86L313.1,38.02L313.09,38.06L306.07,49.1L306.04,49.14L301.03,56.54L301.01,56.58L298.54,62.35L298.52,62.39L293.27,86.47L293.26,86.52L292.51,94.2L292.5,94.24L292.9,100.79L292.9,100.83L295.59,111.91L295.61,111.95L298.92,122.75L298.93,122.79L301.06,134.53L301.07,134.57L302.78,151.05L302.79,151.09L302.89,161.27L302.89,161.31L299.72,181.14L299.71,181.19L298.96,187.97L298.96,188.01L299.82,193.58L299.83,193.62L304.27,203.02L304.3,203.06L308.2,210.59L308.22,210.63L310.79,218.28L310.8,218.32L312.15,228.09L312.16,228.13L312.3,237.82L312.3,237.86L309.36,257.25L309.35,257.29L308.6,264.12L308.6,264.16L313.47,280.97L313.48,281.01L314.57,286.86L314.58,286.9L314.88,293.97Z" style="fill: rgb(59, 2, 128); fill-opacity: 0.2; stroke-width: 0;"/></g></g><g class="errorbars"/><g class="lines"><path class="js-line" d="M314.88,293.97L314.58,286.9L314.57,286.86L313.48,281.01L313.47,280.97L308.6,264.16L308.6,264.12L309.35,257.29L309.36,257.25L312.3,237.86L312.3,237.82L312.16,228.13L312.15,228.09L310.8,218.32L310.79,218.28L308.22,210.63L308.2,210.59L304.3,203.06L304.27,203.02L299.83,193.62L299.82,193.58L298.96,188.01L298.96,187.97L299.71,181.19L299.72,181.14L302.89,161.31L302.89,161.27L302.79,151.09L302.78,151.05L301.07,134.57L301.06,134.53L298.93,122.79L298.92,122.75L295.61,111.95L295.59,111.91L292.9,100.83L292.9,100.79L292.5,94.24L292.51,94.2L293.26,86.52L293.27,86.47L298.52,62.39L298.54,62.35L301.01,56.58L301.03,56.54L306.04,49.14L306.07,49.1L313.09,38.06L313.1,38.02L314.42,32.86L314.43,32.82L314.88,25.99" style="vector-effect: none; fill: none; stroke: rgb(59, 2, 128); stroke-opacity: 1; stroke-width: 1px; opacity: 1;"/></g><g class="points"/><g class="text"/></g><g class="trace scatter traceb3c05d" style="stroke-miterlimit: 2;"><g class="fills"/><g class="errorbars"/><g class="lines"><path class="js-line" d="M315,293.97L315,25.99" style="vector-effect: none; fill: none; stroke: rgb(0, 0, 0); stroke-opacity: 0; stroke-width: 1px; opacity: 1;"/></g><g class="points"/><g class="text"/></g><g class="trace scatter tracef45ecb" style="stroke-miterlimit: 2; opacity: 1;"><g class="fills"/><g class="errorbars"/><g class="lines"><path class="js-line" d="M315,178.24L300.33,178.24" style="vector-effect: none; fill: none; stroke: rgb(59, 2, 128); stroke-opacity: 1; stroke-dasharray: 3px, 3px; stroke-width: 1px; opacity: 1;"/></g><g class="points"/><g class="text"/></g><g class="trace scatter tracef4ee6e" style="stroke-miterlimit: 2; opacity: 1;"><g class="fills"/><g class="errorbars"/><g class="lines"><path class="js-line" d="M315,123.28L299.05,123.28" style="vector-effect: none; fill: none; stroke: rgb(59, 2, 128); stroke-opacity: 1; stroke-dasharray: 3px, 3px; stroke-width: 1px; opacity: 1;"/></g><g class="points"/><g class="text"/></g><g class="trace scatter trace00a979" style="stroke-miterlimit: 2; opacity: 1;"><g class="fills"/><g class="errorbars"/><g class="lines"><path class="js-line" d="M315,87.58L293.09,87.58" style="vector-effect: none; fill: none; stroke: rgb(59, 2, 128); stroke-opacity: 1; stroke-dasharray: 3px, 3px; stroke-width: 1px; opacity: 1;"/></g><g class="points"/><g class="text"/></g><g class="trace scatter tracedb14cb" style="stroke-miterlimit: 2;"><g class="fills"><g><path class="js-fill" d="M337.5,294.49L337.5,25.47L337.37,25.47L337.18,29.82L337.18,29.86L335.72,36.92L335.7,36.97L324.32,53.67L324.29,53.71L321.31,59.54L321.29,59.59L316.41,82.95L316.4,82.99L315.11,92.31L315.1,92.35L315.23,99.86L315.23,99.9L321.07,121.21L321.09,121.25L324.42,135L324.43,135.04L325.67,143.38L325.68,143.42L326.43,154.58L326.44,154.62L326.14,163L326.14,163.04L323.58,176.34L323.57,176.38L322.32,184.47L322.32,184.51L322.75,190.83L322.76,190.87L330.54,209.39L330.56,209.43L333.18,216.86L333.2,216.9L334.41,224.29L334.42,224.33L334.43,236.61L334.43,236.65L331.98,254.18L331.97,254.22L330.76,261.65L330.76,261.69L331.04,267.19L331.05,267.23L333.47,274.62L333.49,274.66L335.96,281.48L335.98,281.52L337.06,287.31L337.07,287.35L337.37,294.49Z" style="fill: rgb(59, 2, 128); fill-opacity: 0.2; stroke-width: 0;"/></g></g><g class="errorbars"/><g class="lines"><path class="js-line" d="M337.37,294.49L337.07,287.35L337.06,287.31L335.98,281.52L335.96,281.48L333.49,274.66L333.47,274.62L331.05,267.23L331.04,267.19L330.76,261.69L330.76,261.65L331.97,254.22L331.98,254.18L334.43,236.65L334.43,236.61L334.42,224.33L334.41,224.29L333.2,216.9L333.18,216.86L330.56,209.43L330.54,209.39L322.76,190.87L322.75,190.83L322.32,184.51L322.32,184.47L323.57,176.38L323.58,176.34L326.14,163.04L326.14,163L326.44,154.62L326.43,154.58L325.68,143.42L325.67,143.38L324.43,135.04L324.42,135L321.09,121.25L321.07,121.21L315.23,99.9L315.23,99.86L315.1,92.35L315.11,92.31L316.4,82.99L316.41,82.95L321.29,59.59L321.31,59.54L324.29,53.71L324.32,53.67L335.7,36.97L335.72,36.92L337.18,29.86L337.18,29.82L337.37,25.47" style="vector-effect: none; fill: none; stroke: rgb(59, 2, 128); stroke-opacity: 1; stroke-width: 1px; opacity: 1;"/></g><g class="points"/><g class="text"/></g><g class="trace scatter trace332209" style="stroke-miterlimit: 2;"><g class="fills"/><g class="errorbars"/><g class="lines"><path class="js-line" d="M337.5,294.49L337.5,25.47" style="vector-effect: none; fill: none; stroke: rgb(0, 0, 0); stroke-opacity: 0; stroke-width: 1px; opacity: 1;"/></g><g class="points"/><g class="text"/></g><g class="trace scatter trace8bb2ce" style="stroke-miterlimit: 2; opacity: 1;"><g class="fills"/><g class="errorbars"/><g class="lines"><path class="js-line" d="M337.5,178.19L323.18,178.19" style="vector-effect: none; fill: none; stroke: rgb(59, 2, 128); stroke-opacity: 1; stroke-dasharray: 3px, 3px; stroke-width: 1px; opacity: 1;"/></g><g class="points"/><g class="text"/></g><g class="trace scatter traceedcc73" style="stroke-miterlimit: 2; opacity: 1;"><g class="fills"/><g class="errorbars"/><g class="lines"><path class="js-line" d="M337.5,121.04L321.02,121.04" style="vector-effect: none; fill: none; stroke: rgb(59, 2, 128); stroke-opacity: 1; stroke-dasharray: 3px, 3px; stroke-width: 1px; opacity: 1;"/></g><g class="points"/><g class="text"/></g><g class="trace scatter traced6cbe4" style="stroke-miterlimit: 2; opacity: 1;"><g class="fills"/><g class="errorbars"/><g class="lines"><path class="js-line" d="M337.5,86.19L315.84,86.19" style="vector-effect: none; fill: none; stroke: rgb(59, 2, 128); stroke-opacity: 1; stroke-dasharray: 3px, 3px; stroke-width: 1px; opacity: 1;"/></g><g class="points"/><g class="text"/></g><g class="trace scatter trace94c1d0" style="stroke-miterlimit: 2;"><g class="fills"><g><path class="js-fill" d="M360,295.5L360,24.46L359.86,24.46L359.79,27.19L359.79,27.23L358.96,33.64L358.95,33.68L356.83,39.27L356.81,39.31L349.13,49.69L349.09,49.73L343.98,57.38L343.96,57.43L341.91,62.89L341.89,62.93L339.82,74.22L339.81,74.26L338.26,87.08L338.25,87.12L337.5,100.77L337.5,100.81L338.09,112.19L338.09,112.23L343.79,136.59L343.8,136.63L345.73,146.06L345.74,146.11L345.81,180.39L345.81,180.44L346.06,188.96L346.06,189L348.59,199.88L348.61,199.92L354.12,215.3L354.13,215.34L355.3,222.04L355.31,222.09L355.47,231.39L355.47,231.43L350.67,258.86L350.67,258.9L350.65,264.98L350.66,265.02L356.62,278.67L356.64,278.71L359.1,285.99L359.11,286.03L359.86,295.5Z" style="fill: rgb(59, 2, 128); fill-opacity: 0.2; stroke-width: 0;"/></g></g><g class="errorbars"/><g class="lines"><path class="js-line" d="M359.86,295.5L359.11,286.03L359.1,285.99L356.64,278.71L356.62,278.67L350.66,265.02L350.65,264.98L350.67,258.9L350.67,258.86L355.47,231.43L355.47,231.39L355.31,222.09L355.3,222.04L354.13,215.34L354.12,215.3L348.61,199.92L348.59,199.88L346.06,189L346.06,188.96L345.81,180.44L345.81,180.39L345.74,146.11L345.73,146.06L343.8,136.63L343.79,136.59L338.09,112.23L338.09,112.19L337.5,100.81L337.5,100.77L338.25,87.12L338.26,87.08L339.81,74.26L339.82,74.22L341.89,62.93L341.91,62.89L343.96,57.43L343.98,57.38L349.09,49.73L349.13,49.69L356.81,39.31L356.83,39.27L358.95,33.68L358.96,33.64L359.79,27.23L359.79,27.19L359.86,24.46" style="vector-effect: none; fill: none; stroke: rgb(59, 2, 128); stroke-opacity: 1; stroke-width: 1px; opacity: 1;"/></g><g class="points"/><g class="text"/></g><g class="trace scatter trace8de75b" style="stroke-miterlimit: 2;"><g class="fills"/><g class="errorbars"/><g class="lines"><path class="js-line" d="M360,295.5L360,24.46" style="vector-effect: none; fill: none; stroke: rgb(0, 0, 0); stroke-opacity: 0; stroke-width: 1px; opacity: 1;"/></g><g class="points"/><g class="text"/></g><g class="trace scatter trace0d23af" style="stroke-miterlimit: 2; opacity: 1;"><g class="fills"/><g class="errorbars"/><g class="lines"><path class="js-line" d="M360,180.89L345.8,180.89" style="vector-effect: none; fill: none; stroke: rgb(59, 2, 128); stroke-opacity: 1; stroke-dasharray: 3px, 3px; stroke-width: 1px; opacity: 1;"/></g><g class="points"/><g class="text"/></g><g class="trace scatter traceac1902" style="stroke-miterlimit: 2; opacity: 1;"><g class="fills"/><g class="errorbars"/><g class="lines"><path class="js-line" d="M360,126.09L340.83,126.09" style="vector-effect: none; fill: none; stroke: rgb(59, 2, 128); stroke-opacity: 1; stroke-dasharray: 3px, 3px; stroke-width: 1px; opacity: 1;"/></g><g class="points"/><g class="text"/></g><g class="trace scatter tracefdd0d5" style="stroke-miterlimit: 2; opacity: 1;"><g class="fills"/><g class="errorbars"/><g class="lines"><path class="js-line" d="M360,88.78L338.1,88.78" style="vector-effect: none; fill: none; stroke: rgb(59, 2, 128); stroke-opacity: 1; stroke-dasharray: 3px, 3px; stroke-width: 1px; opacity: 1;"/></g><g class="points"/><g class="text"/></g><g class="trace scatter traced67eb3" style="stroke-miterlimit: 2;"><g class="fills"><g><path class="js-fill" d="M382.5,299.01L382.5,20.99L382.34,20.99L381.91,29.13L381.9,29.22L380.61,35.08L380.58,35.16L370.8,52.3L370.75,52.39L367.78,58.58L367.75,58.67L363.12,80.65L363.1,80.73L360.76,94.23L360.75,94.31L360,105.68L360,105.77L366.07,160.76L366.08,160.85L369.39,178.16L369.41,178.25L373.97,196.41L373.99,196.49L375.92,206.51L375.93,206.59L376.22,214.31L376.22,214.4L374.06,226.62L374.04,226.7L367.21,252.5L367.19,252.59L366.46,259.38L366.46,259.46L367.51,264.64L367.54,264.72L375.82,277.37L375.88,277.45L379.69,283.82L379.72,283.9L381.58,289.84L381.6,289.93L382.34,299.01Z" style="fill: rgb(59, 2, 128); fill-opacity: 0.2; stroke-width: 0;"/></g></g><g class="errorbars"/><g class="lines"><path class="js-line" d="M382.34,299.01L381.6,289.93L381.58,289.84L379.72,283.9L379.69,283.82L375.88,277.45L375.82,277.37L367.54,264.72L367.51,264.64L366.46,259.46L366.46,259.38L367.19,252.59L367.21,252.5L374.04,226.7L374.06,226.62L376.22,214.4L376.22,214.31L375.93,206.59L375.92,206.51L373.99,196.49L373.97,196.41L369.41,178.25L369.39,178.16L366.08,160.85L366.07,160.76L360,105.77L360,105.68L360.75,94.31L360.76,94.23L363.1,80.73L363.12,80.65L367.75,58.67L367.78,58.58L370.75,52.39L370.8,52.3L380.58,35.16L380.61,35.08L381.9,29.22L381.91,29.13L382.34,20.99" style="vector-effect: none; fill: none; stroke: rgb(59, 2, 128); stroke-opacity: 1; stroke-width: 1px; opacity: 1;"/></g><g class="points"/><g class="text"/></g><g class="trace scatter trace92b962" style="stroke-miterlimit: 2;"><g class="fills"/><g class="errorbars"/><g class="lines"><path class="js-line" d="M382.5,299.01L382.5,20.99" style="vector-effect: none; fill: none; stroke: rgb(0, 0, 0); stroke-opacity: 0; stroke-width: 1px; opacity: 1;"/></g><g class="points"/><g class="text"/></g><g class="trace scatter traced17a9c" style="stroke-miterlimit: 2; opacity: 1;"><g class="fills"/><g class="errorbars"/><g class="lines"><path class="js-line" d="M382.5,197.51L374.23,197.51" style="vector-effect: none; fill: none; stroke: rgb(59, 2, 128); stroke-opacity: 1; stroke-dasharray: 3px, 3px; stroke-width: 1px; opacity: 1;"/></g><g class="points"/><g class="text"/></g><g class="trace scatter tracebd3422" style="stroke-miterlimit: 2; opacity: 1;"><g class="fills"/><g class="errorbars"/><g class="lines"><path class="js-line" d="M382.5,136.92L363.46,136.92" style="vector-effect: none; fill: none; stroke: rgb(59, 2, 128); stroke-opacity: 1; stroke-dasharray: 3px, 3px; stroke-width: 1px; opacity: 1;"/></g><g class="points"/><g class="text"/></g><g class="trace scatter tracea3193f" style="stroke-miterlimit: 2; opacity: 1;"><g class="fills"/><g class="errorbars"/><g class="lines"><path class="js-line" d="M382.5,95.42L360.62,95.42" style="vector-effect: none; fill: none; stroke: rgb(59, 2, 128); stroke-opacity: 1; stroke-dasharray: 3px, 3px; stroke-width: 1px; opacity: 1;"/></g><g class="points"/><g class="text"/></g><g class="trace scatter tracec226be" style="stroke-miterlimit: 2;"><g class="fills"><g><path class="js-fill" d="M405,304L405,16L404.85,16L404.82,18.46L404.82,18.55L404.07,27.52L404.06,27.6L402.11,34.64L402.07,34.73L388.45,55.3L388.4,55.38L385.24,61.45L385.21,61.54L383.35,68.22L383.33,68.31L382.59,76.4L382.58,76.48L382.68,90.9L382.68,90.99L384.34,112.62L384.34,112.7L389.17,144.35L389.18,144.44L394.88,173.54L394.9,173.63L397.43,189.63L397.44,189.71L398.19,201.14L398.2,201.23L398.23,213.98L398.23,214.07L397.01,225.85L396.99,225.93L392.16,242.64L392.13,242.73L389.43,251.43L389.41,251.52L388.67,257.58L388.67,257.67L389.61,263.47L389.64,263.56L397.61,277.45L397.67,277.54L402.01,285.54L402.04,285.63L404.09,293.01L404.1,293.1L404.85,304Z" style="fill: rgb(59, 2, 128); fill-opacity: 0.2; stroke-width: 0;"/></g></g><g class="errorbars"/><g class="lines"><path class="js-line" d="M404.85,304L404.1,293.1L404.09,293.01L402.04,285.63L402.01,285.54L397.67,277.54L397.61,277.45L389.64,263.56L389.61,263.47L388.67,257.67L388.67,257.58L389.41,251.52L389.43,251.43L392.13,242.73L392.16,242.64L396.99,225.93L397.01,225.85L398.23,214.07L398.23,213.98L398.2,201.23L398.19,201.14L397.44,189.71L397.43,189.63L394.9,173.63L394.88,173.54L389.18,144.44L389.17,144.35L384.34,112.7L384.34,112.62L382.68,90.99L382.68,90.9L382.58,76.48L382.59,76.4L383.33,68.31L383.35,68.22L385.21,61.54L385.24,61.45L388.4,55.38L388.45,55.3L402.07,34.73L402.11,34.64L404.06,27.6L404.07,27.52L404.82,18.55L404.82,18.46L404.85,16" style="vector-effect: none; fill: none; stroke: rgb(59, 2, 128); stroke-opacity: 1; stroke-width: 1px; opacity: 1;"/></g><g class="points"/><g class="text"/></g><g class="trace scatter trace2139e9" style="stroke-miterlimit: 2;"><g class="fills"/><g class="errorbars"/><g class="lines"><path class="js-line" d="M405,304L405,16" style="vector-effect: none; fill: none; stroke: rgb(0, 0, 0); stroke-opacity: 0; stroke-width: 1px; opacity: 1;"/></g><g class="points"/><g class="text"/></g><g class="trace scatter trace5426bd" style="stroke-miterlimit: 2; opacity: 1;"><g class="fills"/><g class="errorbars"/><g class="lines"><path class="js-line" d="M405,202.2L398.22,202.2" style="vector-effect: none; fill: none; stroke: rgb(59, 2, 128); stroke-opacity: 1; stroke-dasharray: 3px, 3px; stroke-width: 1px; opacity: 1;"/></g><g class="points"/><g class="text"/></g><g class="trace scatter trace848049" style="stroke-miterlimit: 2; opacity: 1;"><g class="fills"/><g class="errorbars"/><g class="lines"><path class="js-line" d="M405,128.79L386.6,128.79" style="vector-effect: none; fill: none; stroke: rgb(59, 2, 128); stroke-opacity: 1; stroke-dasharray: 3px, 3px; stroke-width: 1px; opacity: 1;"/></g><g class="points"/><g class="text"/></g><g class="trace scatter trace4a08df" style="stroke-miterlimit: 2; opacity: 1;"><g class="fills"/><g class="errorbars"/><g class="lines"><path class="js-line" d="M405,86.86L382.56,86.86" style="vector-effect: none; fill: none; stroke: rgb(59, 2, 128); stroke-opacity: 1; stroke-dasharray: 3px, 3px; stroke-width: 1px; opacity: 1;"/></g><g class="points"/><g class="text"/></g><g class="trace scatter trace8df01d" style="stroke-miterlimit: 2;"><g class="fills"><g><path class="js-fill" d="M427.5,298.53L427.5,21.47L427.39,21.47L427.09,28.91L427.08,29L425.53,36.86L425.5,36.95L414.13,56.48L414.08,56.57L410.94,63.25L410.91,63.33L406.64,83.8L406.63,83.88L405.19,95.64L405.18,95.72L405.36,111.37L405.36,111.45L406.63,128.62L406.64,128.71L410.28,147.14L410.31,147.23L414.46,166.93L414.47,167.02L421.74,209.3L421.76,209.39L423.13,219.96L423.14,220.05L423.21,231.46L423.21,231.55L421.11,247.45L421.09,247.53L419.1,258.1L419.09,258.19L418.99,263.6L418.99,263.68L424.51,279.84L424.54,279.92L426.62,287.45L426.64,287.53L427.39,298.53Z" style="fill: rgb(59, 2, 128); fill-opacity: 0.2; stroke-width: 0;"/></g></g><g class="errorbars"/><g class="lines"><path class="js-line" d="M427.39,298.53L426.64,287.53L426.62,287.45L424.54,279.92L424.51,279.84L418.99,263.68L418.99,263.6L419.09,258.19L419.1,258.1L421.09,247.53L421.11,247.45L423.21,231.55L423.21,231.46L423.14,220.05L423.13,219.96L421.76,209.39L421.74,209.3L414.47,167.02L414.46,166.93L410.31,147.23L410.28,147.14L406.64,128.71L406.63,128.62L405.36,111.45L405.36,111.37L405.18,95.72L405.19,95.64L406.63,83.88L406.64,83.8L410.91,63.33L410.94,63.25L414.08,56.57L414.13,56.48L425.5,36.95L425.53,36.86L427.08,29L427.09,28.91L427.39,21.47" style="vector-effect: none; fill: none; stroke: rgb(59, 2, 128); stroke-opacity: 1; stroke-width: 1px; opacity: 1;"/></g><g class="points"/><g class="text"/></g><g class="trace scatter traceaf016c" style="stroke-miterlimit: 2;"><g class="fills"/><g class="errorbars"/><g class="lines"><path class="js-line" d="M427.5,298.53L427.5,21.47" style="vector-effect: none; fill: none; stroke: rgb(0, 0, 0); stroke-opacity: 0; stroke-width: 1px; opacity: 1;"/></g><g class="points"/><g class="text"/></g><g class="trace scatter trace4b0ab2" style="stroke-miterlimit: 2; opacity: 1;"><g class="fills"/><g class="errorbars"/><g class="lines"><path class="js-line" d="M427.5,171.5L415.11,171.5" style="vector-effect: none; fill: none; stroke: rgb(59, 2, 128); stroke-opacity: 1; stroke-dasharray: 3px, 3px; stroke-width: 1px; opacity: 1;"/></g><g class="points"/><g class="text"/></g><g class="trace scatter tracefecb63" style="stroke-miterlimit: 2; opacity: 1;"><g class="fills"/><g class="errorbars"/><g class="lines"><path class="js-line" d="M427.5,125.41L406.32,125.41" style="vector-effect: none; fill: none; stroke: rgb(59, 2, 128); stroke-opacity: 1; stroke-dasharray: 3px, 3px; stroke-width: 1px; opacity: 1;"/></g><g class="points"/><g class="text"/></g><g class="trace scatter trace1cf1f9" style="stroke-miterlimit: 2; opacity: 1;"><g class="fills"/><g class="errorbars"/><g class="lines"><path class="js-line" d="M427.5,90.06L405.73,90.06" style="vector-effect: none; fill: none; stroke: rgb(59, 2, 128); stroke-opacity: 1; stroke-dasharray: 3px, 3px; stroke-width: 1px; opacity: 1;"/></g><g class="points"/><g class="text"/></g><g class="trace scatter trace220e8c" style="stroke-miterlimit: 2;"><g class="fills"><g><path class="js-fill" d="M450,295.84L450,24.16L449.9,24.16L449.35,31.95L449.34,32.04L447.78,37.76L447.75,37.84L437.3,53.27L437.24,53.35L433.5,59.57L433.46,59.65L430.67,67.86L430.65,67.95L429.32,77.9L429.31,77.98L427.57,93.9L427.57,93.99L427.8,101.86L427.8,101.95L434.99,132.05L435.01,132.13L436.33,141.42L436.34,141.51L437.09,154.11L437.1,154.19L436.18,178.57L436.18,178.66L436.44,187.2L436.45,187.28L444.21,209.26L444.24,209.34L446.78,219.63L446.79,219.71L447.54,231.65L447.54,231.73L447.07,242.1L447.07,242.18L445.7,253.54L445.69,253.63L444.96,263.58L444.97,263.66L447.46,276.18L447.49,276.27L449.14,283.48L449.16,283.56L449.9,295.84Z" style="fill: rgb(59, 2, 128); fill-opacity: 0.2; stroke-width: 0;"/></g></g><g class="errorbars"/><g class="lines"><path class="js-line" d="M449.9,295.84L449.16,283.56L449.14,283.48L447.49,276.27L447.46,276.18L444.97,263.66L444.96,263.58L445.69,253.63L445.7,253.54L447.07,242.18L447.07,242.1L447.54,231.73L447.54,231.65L446.79,219.71L446.78,219.63L444.24,209.34L444.21,209.26L436.45,187.28L436.44,187.2L436.18,178.66L436.18,178.57L437.1,154.19L437.09,154.11L436.34,141.51L436.33,141.42L435.01,132.13L434.99,132.05L427.8,101.95L427.8,101.86L427.57,93.99L427.57,93.9L429.31,77.98L429.32,77.9L430.65,67.95L430.67,67.86L433.46,59.65L433.5,59.57L437.24,53.35L437.3,53.27L447.75,37.84L447.78,37.76L449.34,32.04L449.35,31.95L449.9,24.16" style="vector-effect: none; fill: none; stroke: rgb(59, 2, 128); stroke-opacity: 1; stroke-width: 1px; opacity: 1;"/></g><g class="points"/><g class="text"/></g><g class="trace scatter trace5c91fa" style="stroke-miterlimit: 2;"><g class="fills"/><g class="errorbars"/><g class="lines"><path class="js-line" d="M450,295.84L450,24.16" style="vector-effect: none; fill: none; stroke: rgb(0, 0, 0); stroke-opacity: 0; stroke-width: 1px; opacity: 1;"/></g><g class="points"/><g class="text"/></g><g class="trace scatter trace1f6008" style="stroke-miterlimit: 2; opacity: 1;"><g class="fills"/><g class="errorbars"/><g class="lines"><path class="js-line" d="M450,169.78L436.85,169.78" style="vector-effect: none; fill: none; stroke: rgb(59, 2, 128); stroke-opacity: 1; stroke-dasharray: 3px, 3px; stroke-width: 1px; opacity: 1;"/></g><g class="points"/><g class="text"/></g><g class="trace scatter tracece8e70" style="stroke-miterlimit: 2; opacity: 1;"><g class="fills"/><g class="errorbars"/><g class="lines"><path class="js-line" d="M450,119.03L431.38,119.03" style="vector-effect: none; fill: none; stroke: rgb(59, 2, 128); stroke-opacity: 1; stroke-dasharray: 3px, 3px; stroke-width: 1px; opacity: 1;"/></g><g class="points"/><g class="text"/></g><g class="trace scatter tracedccb67" style="stroke-miterlimit: 2; opacity: 1;"><g class="fills"/><g class="errorbars"/><g class="lines"><path class="js-line" d="M450,85.36L428.47,85.36" style="vector-effect: none; fill: none; stroke: rgb(59, 2, 128); stroke-opacity: 1; stroke-dasharray: 3px, 3px; stroke-width: 1px; opacity: 1;"/></g><g class="points"/><g class="text"/></g><g class="trace scatter trace6cbe28" style="stroke-miterlimit: 2;"><g class="fills"><g><path class="js-fill" d="M472.5,295.66L472.5,24.34L472.39,24.34L472.02,31.05L472.01,31.13L470.55,37.51L470.52,37.59L461.67,52.17L461.61,52.25L458.31,58.3L458.27,58.38L452.43,79.08L452.41,79.17L450.34,90.35L450.33,90.43L450.05,97.8L450.05,97.88L456.45,127.7L456.47,127.78L459.62,148.16L459.63,148.24L460.38,156.69L460.39,156.77L460.26,170.68L460.25,170.77L459.5,183.19L459.49,183.27L459.83,189.4L459.84,189.48L467.19,209.77L467.22,209.86L469.48,218.39L469.5,218.47L470.25,228.49L470.25,228.57L468.58,247.12L468.56,247.21L466.15,261.62L466.15,261.7L466.28,266.42L466.29,266.5L469.53,277.27L469.56,277.35L471.63,284.81L471.64,284.89L472.39,295.66Z" style="fill: rgb(59, 2, 128); fill-opacity: 0.2; stroke-width: 0;"/></g></g><g class="errorbars"/><g class="lines"><path class="js-line" d="M472.39,295.66L471.64,284.89L471.63,284.81L469.56,277.35L469.53,277.27L466.29,266.5L466.28,266.42L466.15,261.7L466.15,261.62L468.56,247.21L468.58,247.12L470.25,228.57L470.25,228.49L469.5,218.47L469.48,218.39L467.22,209.86L467.19,209.77L459.84,189.48L459.83,189.4L459.49,183.27L459.5,183.19L460.25,170.77L460.26,170.68L460.39,156.77L460.38,156.69L459.63,148.24L459.62,148.16L456.47,127.78L456.45,127.7L450.05,97.88L450.05,97.8L450.33,90.43L450.34,90.35L452.41,79.17L452.43,79.08L458.27,58.38L458.31,58.3L461.61,52.25L461.67,52.17L470.52,37.59L470.55,37.51L472.01,31.13L472.02,31.05L472.39,24.34" style="vector-effect: none; fill: none; stroke: rgb(59, 2, 128); stroke-opacity: 1; stroke-width: 1px; opacity: 1;"/></g><g class="points"/><g class="text"/></g><g class="trace scatter trace2a22bf" style="stroke-miterlimit: 2;"><g class="fills"/><g class="errorbars"/><g class="lines"><path class="js-line" d="M472.5,295.66L472.5,24.34" style="vector-effect: none; fill: none; stroke: rgb(0, 0, 0); stroke-opacity: 0; stroke-width: 1px; opacity: 1;"/></g><g class="points"/><g class="text"/></g><g class="trace scatter trace64b326" style="stroke-miterlimit: 2; opacity: 1;"><g class="fills"/><g class="errorbars"/><g class="lines"><path class="js-line" d="M472.5,171.92L460.19,171.92" style="vector-effect: none; fill: none; stroke: rgb(59, 2, 128); stroke-opacity: 1; stroke-dasharray: 3px, 3px; stroke-width: 1px; opacity: 1;"/></g><g class="points"/><g class="text"/></g><g class="trace scatter tracec27cf5" style="stroke-miterlimit: 2; opacity: 1;"><g class="fills"/><g class="errorbars"/><g class="lines"><path class="js-line" d="M472.5,120.58L454.86,120.58" style="vector-effect: none; fill: none; stroke: rgb(59, 2, 128); stroke-opacity: 1; stroke-dasharray: 3px, 3px; stroke-width: 1px; opacity: 1;"/></g><g class="points"/><g class="text"/></g><g class="trace scatter traceb025f0" style="stroke-miterlimit: 2; opacity: 1;"><g class="fills"/><g class="errorbars"/><g class="lines"><path class="js-line" d="M472.5,87.03L450.81,87.03" style="vector-effect: none; fill: none; stroke: rgb(59, 2, 128); stroke-opacity: 1; stroke-dasharray: 3px, 3px; stroke-width: 1px; opacity: 1;"/></g><g class="points"/><g class="text"/></g><g class="trace scatter trace7e08f5" style="stroke-miterlimit: 2;"><g class="fills"><g><path class="js-fill" d="M495,295.97L495,24.03L494.87,24.03L494.55,29.92L494.54,30.01L492.88,36.9L492.85,36.98L489.13,43.54L489.07,43.62L481.64,53.75L481.59,53.83L478.7,59.81L478.67,59.89L475.06,75.16L475.04,75.25L472.81,87.95L472.8,88.03L472.56,96.08L472.57,96.16L474.86,112.43L474.88,112.52L477.36,127.21L477.38,127.29L480.45,147.05L480.46,147.13L481.2,163.07L481.2,163.15L480.78,172.53L480.77,172.62L480.02,181.66L480.01,181.75L480.66,189.05L480.68,189.13L486.71,203.5L486.75,203.58L489.79,211.3L489.82,211.38L491.82,221.67L491.83,221.76L491.94,231.88L491.93,231.97L488.4,253.38L488.38,253.47L487.23,260.36L487.22,260.44L487.52,266.08L487.53,266.17L492,278.2L492.03,278.29L494.1,285.34L494.12,285.43L494.87,295.97Z" style="fill: rgb(59, 2, 128); fill-opacity: 0.2; stroke-width: 0;"/></g></g><g class="errorbars"/><g class="lines"><path class="js-line" d="M494.87,295.97L494.12,285.43L494.1,285.34L492.03,278.29L492,278.2L487.53,266.17L487.52,266.08L487.22,260.44L487.23,260.36L488.38,253.47L488.4,253.38L491.93,231.97L491.94,231.88L491.83,221.76L491.82,221.67L489.82,211.38L489.79,211.3L486.75,203.58L486.71,203.5L480.68,189.13L480.66,189.05L480.01,181.75L480.02,181.66L480.77,172.62L480.78,172.53L481.2,163.15L481.2,163.07L480.46,147.13L480.45,147.05L477.38,127.29L477.36,127.21L474.88,112.52L474.86,112.43L472.57,96.16L472.56,96.08L472.8,88.03L472.81,87.95L475.04,75.25L475.06,75.16L478.67,59.89L478.7,59.81L481.59,53.83L481.64,53.75L489.07,43.62L489.13,43.54L492.85,36.98L492.88,36.9L494.54,30.01L494.55,29.92L494.87,24.03" style="vector-effect: none; fill: none; stroke: rgb(59, 2, 128); stroke-opacity: 1; stroke-width: 1px; opacity: 1;"/></g><g class="points"/><g class="text"/></g><g class="trace scatter trace84e36d" style="stroke-miterlimit: 2;"><g class="fills"/><g class="errorbars"/><g class="lines"><path class="js-line" d="M495,295.97L495,24.03" style="vector-effect: none; fill: none; stroke: rgb(0, 0, 0); stroke-opacity: 0; stroke-width: 1px; opacity: 1;"/></g><g class="points"/><g class="text"/></g><g class="trace scatter trace833bda" style="stroke-miterlimit: 2; opacity: 1;"><g class="fills"/><g class="errorbars"/><g class="lines"><path class="js-line" d="M495,175.44L480.51,175.44" style="vector-effect: none; fill: none; stroke: rgb(59, 2, 128); stroke-opacity: 1; stroke-dasharray: 3px, 3px; stroke-width: 1px; opacity: 1;"/></g><g class="points"/><g class="text"/></g><g class="trace scatter trace02fcd6" style="stroke-miterlimit: 2; opacity: 1;"><g class="fills"/><g class="errorbars"/><g class="lines"><path class="js-line" d="M495,124.3L476.88,124.3" style="vector-effect: none; fill: none; stroke: rgb(59, 2, 128); stroke-opacity: 1; stroke-dasharray: 3px, 3px; stroke-width: 1px; opacity: 1;"/></g><g class="points"/><g class="text"/></g><g class="trace scatter trace844f6b" style="stroke-miterlimit: 2; opacity: 1;"><g class="fills"/><g class="errorbars"/><g class="lines"><path class="js-line" d="M495,87.61L472.84,87.61" style="vector-effect: none; fill: none; stroke: rgb(59, 2, 128); stroke-opacity: 1; stroke-dasharray: 3px, 3px; stroke-width: 1px; opacity: 1;"/></g><g class="points"/><g class="text"/></g><g class="trace scatter traceae2799" style="stroke-miterlimit: 2;"><g class="fills"><g><path class="js-fill" d="M517.5,296.8L517.5,23.16L517.35,23.16L517.3,24.87L517.3,24.91L516.35,32.18L516.34,32.22L514.09,37.73L514.06,37.78L504.84,48.88L504.8,48.93L499.84,55.52L499.82,55.57L497.8,60.91L497.79,60.95L497.04,69.01L497.04,69.05L495.84,85.63L495.83,85.67L495.08,93.82L495.07,93.86L495.18,101.21L495.18,101.25L503.39,137.37L503.4,137.41L505.41,148.1L505.42,148.14L505.82,174.74L505.82,174.79L506.42,186.06L506.43,186.1L510.37,201.13L510.39,201.18L513.14,211.82L513.15,211.87L513.88,221.89L513.88,221.93L509.67,249.37L509.66,249.41L508.38,258.51L508.38,258.55L508.84,265.02L508.85,265.07L511.04,271.46L511.06,271.5L514.65,279.43L514.67,279.47L516.59,286.07L516.6,286.11L517.35,296.8Z" style="fill: rgb(59, 2, 128); fill-opacity: 0.2; stroke-width: 0;"/></g></g><g class="errorbars"/><g class="lines"><path class="js-line" d="M517.35,296.8L516.6,286.11L516.59,286.07L514.67,279.47L514.65,279.43L511.06,271.5L511.04,271.46L508.85,265.07L508.84,265.02L508.38,258.55L508.38,258.51L509.66,249.41L509.67,249.37L513.88,221.93L513.88,221.89L513.15,211.87L513.14,211.82L510.39,201.18L510.37,201.13L506.43,186.1L506.42,186.06L505.82,174.79L505.82,174.74L505.42,148.14L505.41,148.1L503.4,137.41L503.39,137.37L495.18,101.25L495.18,101.21L495.07,93.86L495.08,93.82L495.83,85.67L495.84,85.63L497.04,69.05L497.04,69.01L497.79,60.95L497.8,60.91L499.82,55.57L499.84,55.52L504.8,48.93L504.84,48.88L514.06,37.78L514.09,37.73L516.34,32.22L516.35,32.18L517.3,24.91L517.3,24.87L517.35,23.16" style="vector-effect: none; fill: none; stroke: rgb(59, 2, 128); stroke-opacity: 1; stroke-width: 1px; opacity: 1;"/></g><g class="points"/><g class="text"/></g><g class="trace scatter trace66c0fc" style="stroke-miterlimit: 2;"><g class="fills"/><g class="errorbars"/><g class="lines"><path class="js-line" d="M517.5,296.8L517.5,23.16" style="vector-effect: none; fill: none; stroke: rgb(0, 0, 0); stroke-opacity: 0; stroke-width: 1px; opacity: 1;"/></g><g class="points"/><g class="text"/></g><g class="trace scatter trace2ecb85" style="stroke-miterlimit: 2; opacity: 1;"><g class="fills"/><g class="errorbars"/><g class="lines"><path class="js-line" d="M517.5,174.53L505.82,174.53" style="vector-effect: none; fill: none; stroke: rgb(59, 2, 128); stroke-opacity: 1; stroke-dasharray: 3px, 3px; stroke-width: 1px; opacity: 1;"/></g><g class="points"/><g class="text"/></g><g class="trace scatter trace117335" style="stroke-miterlimit: 2; opacity: 1;"><g class="fills"/><g class="errorbars"/><g class="lines"><path class="js-line" d="M517.5,118.29L498.48,118.29" style="vector-effect: none; fill: none; stroke: rgb(59, 2, 128); stroke-opacity: 1; stroke-dasharray: 3px, 3px; stroke-width: 1px; opacity: 1;"/></g><g class="points"/><g class="text"/></g><g class="trace scatter trace90be89" style="stroke-miterlimit: 2; opacity: 1;"><g class="fills"/><g class="errorbars"/><g class="lines"><path class="js-line" d="M517.5,83L496.15,83" style="vector-effect: none; fill: none; stroke: rgb(59, 2, 128); stroke-opacity: 1; stroke-dasharray: 3px, 3px; stroke-width: 1px; opacity: 1;"/></g><g class="points"/><g class="text"/></g><g class="trace scatter trace3058a2" style="stroke-miterlimit: 2;"><g class="fills"><g><path class="js-fill" d="M540,299.42L540,20.54L539.86,20.54L539.61,26.63L539.61,26.67L538.36,33.52L538.35,33.57L536.13,38.8L536.11,38.84L529.14,48.21L529.1,48.25L522.74,56.12L522.71,56.16L519.29,62.55L519.27,62.59L517.88,68L517.87,68.04L517.52,74.85L517.52,74.89L518.23,83.19L518.23,83.23L522.93,106.47L522.94,106.51L528.44,133.41L528.45,133.45L535.17,186.86L535.18,186.9L537.04,206.56L537.04,206.6L536.85,214.6L536.85,214.65L533.56,231.12L533.54,231.16L529.34,245.76L529.33,245.8L527.7,253.25L527.69,253.29L527.34,259.84L527.34,259.88L528.32,264.91L528.33,264.95L533.25,274.78L533.28,274.82L537.14,282.23L537.16,282.27L539.1,288.95L539.11,288.99L539.86,299.42Z" style="fill: rgb(59, 2, 128); fill-opacity: 0.2; stroke-width: 0;"/></g></g><g class="errorbars"/><g class="lines"><path class="js-line" d="M539.86,299.42L539.11,288.99L539.1,288.95L537.16,282.27L537.14,282.23L533.28,274.82L533.25,274.78L528.33,264.95L528.32,264.91L527.34,259.88L527.34,259.84L527.69,253.29L527.7,253.25L529.33,245.8L529.34,245.76L533.54,231.16L533.56,231.12L536.85,214.65L536.85,214.6L537.04,206.6L537.04,206.56L535.18,186.9L535.17,186.86L528.45,133.45L528.44,133.41L522.94,106.51L522.93,106.47L518.23,83.23L518.23,83.19L517.52,74.89L517.52,74.85L517.87,68.04L517.88,68L519.27,62.59L519.29,62.55L522.71,56.16L522.74,56.12L529.1,48.25L529.14,48.21L536.11,38.84L536.13,38.8L538.35,33.57L538.36,33.52L539.61,26.67L539.61,26.63L539.86,20.54" style="vector-effect: none; fill: none; stroke: rgb(59, 2, 128); stroke-opacity: 1; stroke-width: 1px; opacity: 1;"/></g><g class="points"/><g class="text"/></g><g class="trace scatter tracedeb02c" style="stroke-miterlimit: 2;"><g class="fills"/><g class="errorbars"/><g class="lines"><path class="js-line" d="M540,299.42L540,20.54" style="vector-effect: none; fill: none; stroke: rgb(0, 0, 0); stroke-opacity: 0; stroke-width: 1px; opacity: 1;"/></g><g class="points"/><g class="text"/></g><g class="trace scatter trace7cf37f" style="stroke-miterlimit: 2; opacity: 1;"><g class="fills"/><g class="errorbars"/><g class="lines"><path class="js-line" d="M540,185.88L535.05,185.88" style="vector-effect: none; fill: none; stroke: rgb(59, 2, 128); stroke-opacity: 1; stroke-dasharray: 3px, 3px; stroke-width: 1px; opacity: 1;"/></g><g class="points"/><g class="text"/></g><g class="trace scatter trace92402c" style="stroke-miterlimit: 2; opacity: 1;"><g class="fills"/><g class="errorbars"/><g class="lines"><path class="js-line" d="M540,113.87L524.59,113.87" style="vector-effect: none; fill: none; stroke: rgb(59, 2, 128); stroke-opacity: 1; stroke-dasharray: 3px, 3px; stroke-width: 1px; opacity: 1;"/></g><g class="points"/><g class="text"/></g><g class="trace scatter trace7ca50b" style="stroke-miterlimit: 2; opacity: 1;"><g class="fills"/><g class="errorbars"/><g class="lines"><path class="js-line" d="M540,78.59L517.73,78.59" style="vector-effect: none; fill: none; stroke: rgb(59, 2, 128); stroke-opacity: 1; stroke-dasharray: 3px, 3px; stroke-width: 1px; opacity: 1;"/></g><g class="points"/><g class="text"/></g></g></g><g class="overplot"/><path class="xlines-above crisp" d="M79,420.5H621M79,99.5H621" style="fill: none; stroke-width: 1px; stroke: rgb(59, 2, 128); stroke-opacity: 1;"/><path class="ylines-above crisp" d="M79.5,100V420M620.5,100V420" style="fill: none; stroke-width: 1px; stroke: rgb(59, 2, 128); stroke-opacity: 1;"/><g class="overlines-above"/><g class="xaxislayer-above"><g class="xtick"><text text-anchor="middle" x="0" y="435.4" transform="translate(170,0)" style="font-family: 'Open Sans', verdana, arial, sans-serif; font-size: 12px; fill: rgb(42, 63, 95); fill-opacity: 1; white-space: pre; opacity: 1;"><tspan class="line" dy="0em" x="0" y="435.4">Dec 11</tspan><tspan class="line" dy="1.3em" x="0" y="435.4">2016</tspan></text></g><g class="xtick"><text text-anchor="middle" x="0" y="435.4" style="font-family: 'Open Sans', verdana, arial, sans-serif; font-size: 12px; fill: rgb(42, 63, 95); fill-opacity: 1; white-space: pre; opacity: 1;" transform="translate(327.5,0)">Dec 18</text></g><g class="xtick"><text text-anchor="middle" x="0" y="435.4" style="font-family: 'Open Sans', verdana, arial, sans-serif; font-size: 12px; fill: rgb(42, 63, 95); fill-opacity: 1; white-space: pre; opacity: 1;" transform="translate(485,0)">Dec 25</text></g></g><g class="yaxislayer-above"><g class="ytick"><text text-anchor="end" x="76.6" y="4.199999999999999" transform="translate(0,415.51)" style="font-family: 'Open Sans', verdana, arial, sans-serif; font-size: 12px; fill: rgb(42, 63, 95); fill-opacity: 1; white-space: pre; opacity: 1;">5</text></g><g class="ytick"><text text-anchor="end" x="76.6" y="4.199999999999999" style="font-family: 'Open Sans', verdana, arial, sans-serif; font-size: 12px; fill: rgb(42, 63, 95); fill-opacity: 1; white-space: pre; opacity: 1;" transform="translate(0,368.38)">0</text></g><g class="ytick"><text text-anchor="end" x="76.6" y="4.199999999999999" style="font-family: 'Open Sans', verdana, arial, sans-serif; font-size: 12px; fill: rgb(42, 63, 95); fill-opacity: 1; white-space: pre; opacity: 1;" transform="translate(0,321.25)">5</text></g><g class="ytick"><text text-anchor="end" x="76.6" y="4.199999999999999" style="font-family: 'Open Sans', verdana, arial, sans-serif; font-size: 12px; fill: rgb(42, 63, 95); fill-opacity: 1; white-space: pre; opacity: 1;" transform="translate(0,274.11)">10</text></g><g class="ytick"><text text-anchor="end" x="76.6" y="4.199999999999999" style="font-family: 'Open Sans', verdana, arial, sans-serif; font-size: 12px; fill: rgb(42, 63, 95); fill-opacity: 1; white-space: pre; opacity: 1;" transform="translate(0,226.98000000000002)">15</text></g><g class="ytick"><text text-anchor="end" x="76.6" y="4.199999999999999" style="font-family: 'Open Sans', verdana, arial, sans-serif; font-size: 12px; fill: rgb(42, 63, 95); fill-opacity: 1; white-space: pre; opacity: 1;" transform="translate(0,179.85)">20</text></g><g class="ytick"><text text-anchor="end" x="76.6" y="4.199999999999999" style="font-family: 'Open Sans', verdana, arial, sans-serif; font-size: 12px; fill: rgb(42, 63, 95); fill-opacity: 1; white-space: pre; opacity: 1;" transform="translate(0,132.72)">25</text></g></g><g class="overaxes-above"/></g></g><g class="polarlayer"/><g class="smithlayer"/><g class="ternarylayer"/><g class="geolayer"/><g class="funnelarealayer"/><g class="pielayer"/><g class="iciclelayer"/><g class="treemaplayer"/><g class="sunburstlayer"/><g class="glimages"/><defs id="topdefs-15b327"><g class="clips"/></defs><g class="layer-above"><g class="imagelayer"/><g class="shapelayer"/></g><g class="infolayer"><g class="g-gtitle"><text class="gtitle" x="35" y="50" text-anchor="start" dy="0em" style="font-family: 'Open Sans', verdana, arial, sans-serif; font-size: 17px; fill: rgb(42, 63, 95); opacity: 1; font-weight: normal; white-space: pre;">Column distributions</text></g><g class="g-xtitle"><text class="xtitle" x="350" y="477.8" text-anchor="middle" style="font-family: 'Open Sans', verdana, arial, sans-serif; font-size: 14px; fill: rgb(42, 63, 95); opacity: 1; font-weight: normal; white-space: pre;">Time</text></g><g class="g-ytitle"><text class="ytitle" transform="rotate(-90,34.840625,260)" x="34.840625" y="260" text-anchor="middle" style="font-family: 'Open Sans', verdana, arial, sans-serif; font-size: 14px; fill: rgb(42, 63, 95); opacity: 1; font-weight: normal; white-space: pre;">Values</text></g><g class="annotation" data-index="0" style="opacity: 1;"><g class="annotation-text-g" transform="rotate(0,350,87.99999999999999)"><g class="cursor-pointer" transform="translate(80,76)"><rect class="bg" x="0.5" y="0.5" width="540" height="23" style="stroke-width: 1px; stroke: rgb(0, 0, 0); stroke-opacity: 0; fill: rgb(0, 0, 0); fill-opacity: 0;"/><text class="annotation-text" text-anchor="middle" x="270.65625" y="18" style="font-family: 'Open Sans', verdana, arial, sans-serif; font-size: 16px; fill: rgb(42, 63, 95); fill-opacity: 1; white-space: pre;"><tspan style="font-weight:bold">pickup_time</tspan> distribution (alerts for <tspan style="font-weight:bold">Jensen-Shannon distance)</tspan></text></g></g></g></g></svg>