<svg class="main-svg" xmlns="http://www.w3.org/2000/svg" xmlns:xlink="http://www.w3.org/1999/xlink" width="700" height="500" style="" viewBox="0 0 700 500"><rect x="0" y="0" width="700" height="500" style="fill: rgb(255, 255, 255); fill-opacity: 1;"/><defs id="defs-c18555"><g class="clips"><clipPath id="clipc18555xyplot" class="plotclip"><rect width="540" height="272"/></clipPath><clipPath class="axesclip" id="clipc18555x"><rect x="80" y="0" width="540" height="500"/></clipPath><clipPath class="axesclip" id="clipc18555y"><rect x="0" y="100" width="700" height="272"/></clipPath><clipPath class="axesclip" id="clipc18555xy"><rect x="80" y="100" width="540" height="272"/></clipPath></g><g class="gradients"/><g class="patterns"/></defs><g class="bglayer"/><g class="layer-below"><g class="imagelayer"/><g class="shapelayer"/></g><g class="cartesianlayer"><g class="subplot xy"><g class="layer-subplot"><g class="shapelayer"/><g class="imagelayer"/></g><g class="gridlayer"><g class="x"/><g class="y"/></g><g class="zerolinelayer"/><path class="xlines-below"/><path class="ylines-below"/><g class="overlines-below"/><g class="xaxislayer-below"/><g class="yaxislayer-below"/><g class="overaxes-below"/><g class="plot" transform="translate(80,100)" clip-path="url(#clipc18555xyplot)"><g class="scatterlayer mlayer"><g class="trace scatter trace1b056b" style="stroke-miterlimit: 2;"><g class="fills"><g><path class="js-fill" d="M32.26,189.51L32.26,22.17L32.25,22.17L31.85,24.63L31.13,25.45L31.33,27.09L31.7,27.91L32.26,44.32L32.26,45.14L32.04,59.9L31.79,60.72L30.26,62.36L29.26,63.18L30.92,64.82L32,65.64L32.26,168.18L32.26,169L32.09,174.75L31.8,175.57L29.76,177.21L27.64,178.03L18.72,179.67L12.16,180.49L0,183.77L0.68,184.59L12.58,185.41L25.36,186.23L30.84,187.05L32.03,187.87L32.26,189.51Z" style="fill: rgb(221, 64, 64); fill-opacity: 0.2; stroke-width: 0;"/></g></g><g class="errorbars"/><g class="lines"><path class="js-line" d="M32.26,189.51L32.03,187.87L30.84,187.05L25.36,186.23L12.58,185.41L0.68,184.59L0,183.77L12.16,180.49L18.72,179.67L27.64,178.03L29.76,177.21L31.8,175.57L32.09,174.75L32.26,169L32.26,168.18L32,65.64L30.92,64.82L29.26,63.18L30.26,62.36L31.79,60.72L32.04,59.9L32.26,45.14L32.26,44.32L31.7,27.91L31.33,27.09L31.13,25.45L31.85,24.63L32.25,22.17" style="vector-effect: non-scaling-stroke; fill: none; stroke: rgb(59, 2, 128); stroke-opacity: 1; stroke-width: 1px; opacity: 1;"/></g><g class="points"/><g class="text"/></g><g class="trace scatter trace082d0d" style="stroke-miterlimit: 2;"><g class="fills"/><g class="errorbars"/><g class="lines"><path class="js-line" d="M32.26,189.51L32.26,22.17" style="vector-effect: non-scaling-stroke; fill: none; stroke: rgb(0, 0, 0); stroke-opacity: 0; stroke-width: 1px; opacity: 1;"/></g><g class="points"/><g class="text"/></g><g class="trace scatter trace84e138" style="stroke-miterlimit: 2; opacity: 1;"><g class="fills"/><g class="errorbars"/><g class="lines"><path class="js-line" d="M32.26,183.77L0,183.77" style="vector-effect: non-scaling-stroke; fill: none; stroke: rgb(221, 64, 64); stroke-opacity: 1; stroke-width: 1px; opacity: 1; stroke-dasharray: 3px, 3px;"/></g><g class="points"/><g class="text"/></g><g class="trace scatter trace0acfe5" style="stroke-miterlimit: 2; opacity: 1;"><g class="fills"/><g class="errorbars"/><g class="lines"><path class="js-line" d="M32.26,182.13L4.14,182.13" style="vector-effect: non-scaling-stroke; fill: none; stroke: rgb(221, 64, 64); stroke-opacity: 1; stroke-width: 1px; opacity: 1; stroke-dasharray: 3px, 3px;"/></g><g class="points"/><g class="text"/></g><g class="trace scatter tracebb80ba" style="stroke-miterlimit: 2; opacity: 1;"><g class="fills"/><g class="errorbars"/><g class="lines"><path class="js-line" d="M32.26,180.49L12.16,180.49" style="vector-effect: non-scaling-stroke; fill: none; stroke: rgb(221, 64, 64); stroke-opacity: 1; stroke-width: 1px; opacity: 1; stroke-dasharray: 3px, 3px;"/></g><g class="points"/><g class="text"/></g><g class="trace scatter trace75509b" style="stroke-miterlimit: 2;"><g class="fills"><g><path class="js-fill" d="M74,195.21L74,76.19L73.99,76.19L73.65,79.11L73.41,79.69L70.75,82.61L69.89,83.19L63.85,85.53L61.75,86.11L56.61,87.86L56.11,88.44L59.29,90.19L61.26,90.78L65.98,92.53L66.5,93.11L61.99,96.03L61.64,96.61L69.45,99.53L71.08,100.11L73.05,101.28L73.52,101.86L74,136.28L74,136.87L73.92,175.96L73.92,176.54L72.11,182.37L71.99,182.96L73.06,186.46L73.28,187.04L73.99,195.21Z" style="fill: rgb(221, 64, 64); fill-opacity: 0.2; stroke-width: 0;"/></g></g><g class="errorbars"/><g class="lines"><path class="js-line" d="M73.99,195.21L73.28,187.04L73.06,186.46L71.99,182.96L72.11,182.37L73.92,176.54L73.92,175.96L74,136.87L74,136.28L73.52,101.86L73.05,101.28L71.08,100.11L69.45,99.53L61.64,96.61L61.99,96.03L66.5,93.11L65.98,92.53L61.26,90.78L59.29,90.19L56.11,88.44L56.61,87.86L61.75,86.11L63.85,85.53L69.89,83.19L70.75,82.61L73.41,79.69L73.65,79.11L73.99,76.19" style="vector-effect: non-scaling-stroke; fill: none; stroke: rgb(59, 2, 128); stroke-opacity: 1; stroke-width: 1px; opacity: 1;"/></g><g class="points"/><g class="text"/></g><g class="trace scatter trace1ebf17" style="stroke-miterlimit: 2;"><g class="fills"/><g class="errorbars"/><g class="lines"><path class="js-line" d="M74,195.21L74,76.19" style="vector-effect: non-scaling-stroke; fill: none; stroke: rgb(0, 0, 0); stroke-opacity: 0; stroke-width: 1px; opacity: 1;"/></g><g class="points"/><g class="text"/></g><g class="trace scatter trace6f5376" style="stroke-miterlimit: 2; opacity: 1;"><g class="fills"/><g class="errorbars"/><g class="lines"><path class="js-line" d="M74,96.03L61.99,96.03" style="vector-effect: non-scaling-stroke; fill: none; stroke: rgb(221, 64, 64); stroke-opacity: 1; stroke-width: 1px; opacity: 1; stroke-dasharray: 3px, 3px;"/></g><g class="points"/><g class="text"/></g><g class="trace scatter trace4c1c3f" style="stroke-miterlimit: 2; opacity: 1;"><g class="fills"/><g class="errorbars"/><g class="lines"><path class="js-line" d="M74,90.78L61.26,90.78" style="vector-effect: non-scaling-stroke; fill: none; stroke: rgb(221, 64, 64); stroke-opacity: 1; stroke-width: 1px; opacity: 1; stroke-dasharray: 3px, 3px;"/></g><g class="points"/><g class="text"/></g><g class="trace scatter trace76f126" style="stroke-miterlimit: 2; opacity: 1;"><g class="fills"/><g class="errorbars"/><g class="lines"><path class="js-line" d="M74,87.28L57.87,87.28" style="vector-effect: non-scaling-stroke; fill: none; stroke: rgb(221, 64, 64); stroke-opacity: 1; stroke-width: 1px; opacity: 1; stroke-dasharray: 3px, 3px;"/></g><g class="points"/><g class="text"/></g><g class="trace scatter traceff4e54" style="stroke-miterlimit: 2;"><g class="fills"><g><path class="js-fill" d="M117.12,94.15L117.12,18.02L117.11,18.02L117.09,22.13L117.05,22.5L116.32,26.61L116.37,26.98L117.12,44.52L117.12,44.89L117,56.09L116.98,56.46L116.59,62.06L116.71,62.43L116.7,64.67L116.53,65.05L116.66,70.64L116.68,71.02L116.98,74.38L116.83,74.75L116.44,76.24L116.54,76.61L115.13,78.11L114.75,78.48L115.02,79.23L115.45,79.6L115.5,80.72L114.75,81.09L80.31,84.08L77.05,84.45L85.67,85.57L88.98,85.94L89.48,86.32L88.26,86.69L88.12,87.06L91.25,87.44L97.27,87.81L112.53,88.93L114.46,89.3L116.04,90.05L116.37,90.42L117.11,94.15Z" style="fill: rgb(221, 64, 64); fill-opacity: 0.2; stroke-width: 0;"/></g></g><g class="errorbars"/><g class="lines"><path class="js-line" d="M117.11,94.15L116.37,90.42L116.04,90.05L114.46,89.3L112.53,88.93L97.27,87.81L91.25,87.44L88.12,87.06L88.26,86.69L89.48,86.32L88.98,85.94L85.67,85.57L77.05,84.45L80.31,84.08L114.75,81.09L115.5,80.72L115.45,79.6L115.02,79.23L114.75,78.48L115.13,78.11L116.54,76.61L116.44,76.24L116.83,74.75L116.98,74.38L116.68,71.02L116.66,70.64L116.53,65.05L116.7,64.67L116.71,62.43L116.59,62.06L116.98,56.46L117,56.09L117.12,44.89L117.12,44.52L116.37,26.98L116.32,26.61L117.05,22.5L117.09,22.13L117.11,18.02" style="vector-effect: non-scaling-stroke; fill: none; stroke: rgb(59, 2, 128); stroke-opacity: 1; stroke-width: 1px; opacity: 1;"/></g><g class="points"/><g class="text"/></g><g class="trace scatter trace9de8a9" style="stroke-miterlimit: 2;"><g class="fills"/><g class="errorbars"/><g class="lines"><path class="js-line" d="M117.12,94.15L117.12,18.02" style="vector-effect: non-scaling-stroke; fill: none; stroke: rgb(0, 0, 0); stroke-opacity: 0; stroke-width: 1px; opacity: 1;"/></g><g class="points"/><g class="text"/></g><g class="trace scatter trace2130f0" style="stroke-miterlimit: 2; opacity: 1;"><g class="fills"/><g class="errorbars"/><g class="lines"><path class="js-line" d="M117.12,86.32L89.48,86.32" style="vector-effect: non-scaling-stroke; fill: none; stroke: rgb(221, 64, 64); stroke-opacity: 1; stroke-width: 1px; opacity: 1; stroke-dasharray: 3px, 3px;"/></g><g class="points"/><g class="text"/></g><g class="trace scatter trace856f80" style="stroke-miterlimit: 2; opacity: 1;"><g class="fills"/><g class="errorbars"/><g class="lines"><path class="js-line" d="M117.12,84.82L77.21,84.82" style="vector-effect: non-scaling-stroke; fill: none; stroke: rgb(221, 64, 64); stroke-opacity: 1; stroke-width: 1px; opacity: 1; stroke-dasharray: 3px, 3px;"/></g><g class="points"/><g class="text"/></g><g class="trace scatter traceec3bcf" style="stroke-miterlimit: 2; opacity: 1;"><g class="fills"/><g class="errorbars"/><g class="lines"><path class="js-line" d="M117.12,83.33L90.44,83.33" style="vector-effect: non-scaling-stroke; fill: none; stroke: rgb(221, 64, 64); stroke-opacity: 1; stroke-width: 1px; opacity: 1; stroke-dasharray: 3px, 3px;"/></g><g class="points"/><g class="text"/></g><g class="trace scatter trace62ef87" style="stroke-miterlimit: 2;"><g class="fills"><g><path class="js-fill" d="M160.24,92.14L160.24,76.04L160.22,76.04L159.94,76.98L159.87,77.06L157.74,78.48L157.48,78.56L120.62,82.83L119.94,82.91L118.51,83.22L141.56,84.64L142.96,84.72L152.66,86.46L152.99,86.54L153.73,86.85L151.75,87.64L151.55,87.72L151.18,87.96L151.48,88.51L151.57,88.59L159.14,91.12L159.36,91.2L160.22,92.14Z" style="fill: rgb(221, 64, 64); fill-opacity: 0.2; stroke-width: 0;"/></g></g><g class="errorbars"/><g class="lines"><path class="js-line" d="M160.22,92.14L159.36,91.2L159.14,91.12L151.57,88.59L151.48,88.51L151.18,87.96L151.55,87.72L151.75,87.64L153.73,86.85L152.99,86.54L152.66,86.46L142.96,84.72L141.56,84.64L118.51,83.22L119.94,82.91L120.62,82.83L157.48,78.56L157.74,78.48L159.87,77.06L159.94,76.98L160.22,76.04" style="vector-effect: non-scaling-stroke; fill: none; stroke: rgb(59, 2, 128); stroke-opacity: 1; stroke-width: 1px; opacity: 1;"/></g><g class="points"/><g class="text"/></g><g class="trace scatter tracef167ad" style="stroke-miterlimit: 2;"><g class="fills"/><g class="errorbars"/><g class="lines"><path class="js-line" d="M160.24,92.14L160.24,76.04" style="vector-effect: non-scaling-stroke; fill: none; stroke: rgb(0, 0, 0); stroke-opacity: 0; stroke-width: 1px; opacity: 1;"/></g><g class="points"/><g class="text"/></g><g class="trace scatter tracec3b185" style="stroke-miterlimit: 2; opacity: 1;"><g class="fills"/><g class="errorbars"/><g class="lines"><path class="js-line" d="M160.24,84.88L145.32,84.88" style="vector-effect: non-scaling-stroke; fill: none; stroke: rgb(221, 64, 64); stroke-opacity: 1; stroke-width: 1px; opacity: 1; stroke-dasharray: 3px, 3px;"/></g><g class="points"/><g class="text"/></g><g class="trace scatter tracebe484a" style="stroke-miterlimit: 2; opacity: 1;"><g class="fills"/><g class="errorbars"/><g class="lines"><path class="js-line" d="M160.24,83.22L118.51,83.22" style="vector-effect: non-scaling-stroke; fill: none; stroke: rgb(221, 64, 64); stroke-opacity: 1; stroke-width: 1px; opacity: 1; stroke-dasharray: 3px, 3px;"/></g><g class="points"/><g class="text"/></g><g class="trace scatter trace58b0dd" style="stroke-miterlimit: 2; opacity: 1;"><g class="fills"/><g class="errorbars"/><g class="lines"><path class="js-line" d="M160.24,81.88L131.99,81.88" style="vector-effect: non-scaling-stroke; fill: none; stroke: rgb(221, 64, 64); stroke-opacity: 1; stroke-width: 1px; opacity: 1; stroke-dasharray: 3px, 3px;"/></g><g class="points"/><g class="text"/></g><g class="trace scatter tracece9ab7" style="stroke-miterlimit: 2;"><g class="fills"><g><path class="js-fill" d="M201.97,258.4L201.97,13.6L201.95,13.6L201.96,19.6L201.96,20.8L200.32,78.4L200.29,79.6L201.16,106L201.23,107.2L201.94,156.4L201.93,157.6L199.1,200.8L199.03,202L201.18,234.4L201.27,235.6L201.94,258.4Z" style="fill: rgb(221, 64, 64); fill-opacity: 0.2; stroke-width: 0;"/></g></g><g class="errorbars"/><g class="lines"><path class="js-line" d="M201.94,258.4L201.27,235.6L201.18,234.4L199.03,202L199.1,200.8L201.93,157.6L201.94,156.4L201.23,107.2L201.16,106L200.29,79.6L200.32,78.4L201.96,20.8L201.96,19.6L201.95,13.6" style="vector-effect: non-scaling-stroke; fill: none; stroke: rgb(59, 2, 128); stroke-opacity: 1; stroke-width: 1px; opacity: 1;"/></g><g class="points"/><g class="text"/></g><g class="trace scatter tracecbc862" style="stroke-miterlimit: 2;"><g class="fills"/><g class="errorbars"/><g class="lines"><path class="js-line" d="M201.97,258.4L201.97,13.6" style="vector-effect: non-scaling-stroke; fill: none; stroke: rgb(0, 0, 0); stroke-opacity: 0; stroke-width: 1px; opacity: 1;"/></g><g class="points"/><g class="text"/></g><g class="trace scatter trace87222a" style="stroke-miterlimit: 2; opacity: 1;"><g class="fills"/><g class="errorbars"/><g class="lines"><path class="js-line" d="M201.97,210.4L198.99,210.4" style="vector-effect: non-scaling-stroke; fill: none; stroke: rgb(221, 64, 64); stroke-opacity: 1; stroke-width: 1px; opacity: 1; stroke-dasharray: 3px, 3px;"/></g><g class="points"/><g class="text"/></g><g class="trace scatter trace13cf32" style="stroke-miterlimit: 2; opacity: 1;"><g class="fills"/><g class="errorbars"/><g class="lines"><path class="js-line" d="M201.97,192.4L199.85,192.4" style="vector-effect: non-scaling-stroke; fill: none; stroke: rgb(221, 64, 64); stroke-opacity: 1; stroke-width: 1px; opacity: 1; stroke-dasharray: 3px, 3px;"/></g><g class="points"/><g class="text"/></g><g class="trace scatter tracee0ed62" style="stroke-miterlimit: 2; opacity: 1;"><g class="fills"/><g class="errorbars"/><g class="lines"><path class="js-line" d="M201.97,91.6L200.36,91.6" style="vector-effect: non-scaling-stroke; fill: none; stroke: rgb(221, 64, 64); stroke-opacity: 1; stroke-width: 1px; opacity: 1; stroke-dasharray: 3px, 3px;"/></g><g class="points"/><g class="text"/></g><g class="trace scatter trace470bbd" style="stroke-miterlimit: 2;"><g class="fills"><g><path class="js-fill" d="M245.1,212.81L245.1,145.92L245.09,145.92L244.91,158.06L244.93,158.38L244.14,161.66L243.98,161.99L238.38,165.27L238.02,165.6L242.43,167.89L242.97,168.22L243.29,169.2L243.18,169.53L243.35,171.17L243.5,171.5L243.92,174.12L243.83,174.45L241.73,176.42L240.95,176.75L229.06,178.71L226.24,179.04L220.31,180.02L219.99,180.35L233.32,182.32L235.63,182.65L240.75,183.96L241.51,184.29L244.32,185.93L244.6,186.25L245.09,201.34L245.08,201.67L244.66,203.96L244.41,204.29L232.11,207.24L231.15,207.57L231.1,207.9L237.94,209.21L240,209.54L243.86,210.52L244.42,210.85L245.09,212.81Z" style="fill: rgb(221, 64, 64); fill-opacity: 0.2; stroke-width: 0;"/></g></g><g class="errorbars"/><g class="lines"><path class="js-line" d="M245.09,212.81L244.42,210.85L243.86,210.52L240,209.54L237.94,209.21L231.1,207.9L231.15,207.57L232.11,207.24L244.41,204.29L244.66,203.96L245.08,201.67L245.09,201.34L244.6,186.25L244.32,185.93L241.51,184.29L240.75,183.96L235.63,182.65L233.32,182.32L219.99,180.35L220.31,180.02L226.24,179.04L229.06,178.71L240.95,176.75L241.73,176.42L243.83,174.45L243.92,174.12L243.5,171.5L243.35,171.17L243.18,169.53L243.29,169.2L242.97,168.22L242.43,167.89L238.02,165.6L238.38,165.27L243.98,161.99L244.14,161.66L244.93,158.38L244.91,158.06L245.09,145.92" style="vector-effect: non-scaling-stroke; fill: none; stroke: rgb(59, 2, 128); stroke-opacity: 1; stroke-width: 1px; opacity: 1;"/></g><g class="points"/><g class="text"/></g><g class="trace scatter tracef98e33" style="stroke-miterlimit: 2;"><g class="fills"/><g class="errorbars"/><g class="lines"><path class="js-line" d="M245.1,212.81L245.1,145.92" style="vector-effect: non-scaling-stroke; fill: none; stroke: rgb(0, 0, 0); stroke-opacity: 0; stroke-width: 1px; opacity: 1;"/></g><g class="points"/><g class="text"/></g><g class="trace scatter trace91d362" style="stroke-miterlimit: 2; opacity: 1;"><g class="fills"/><g class="errorbars"/><g class="lines"><path class="js-line" d="M245.1,184.29L241.51,184.29" style="vector-effect: non-scaling-stroke; fill: none; stroke: rgb(221, 64, 64); stroke-opacity: 1; stroke-width: 1px; opacity: 1; stroke-dasharray: 3px, 3px;"/></g><g class="points"/><g class="text"/></g><g class="trace scatter tracee822fb" style="stroke-miterlimit: 2; opacity: 1;"><g class="fills"/><g class="errorbars"/><g class="lines"><path class="js-line" d="M245.1,180.35L219.99,180.35" style="vector-effect: non-scaling-stroke; fill: none; stroke: rgb(221, 64, 64); stroke-opacity: 1; stroke-width: 1px; opacity: 1; stroke-dasharray: 3px, 3px;"/></g><g class="points"/><g class="text"/></g><g class="trace scatter traced6304c" style="stroke-miterlimit: 2; opacity: 1;"><g class="fills"/><g class="errorbars"/><g class="lines"><path class="js-line" d="M245.1,177.73L236.69,177.73" style="vector-effect: non-scaling-stroke; fill: none; stroke: rgb(221, 64, 64); stroke-opacity: 1; stroke-width: 1px; opacity: 1; stroke-dasharray: 3px, 3px;"/></g><g class="points"/><g class="text"/></g><g class="trace scatter trace995b39" style="stroke-miterlimit: 2;"><g class="fills"><g><path class="js-fill" d="M286.83,231.4L286.83,117.35L286.82,117.35L286.74,124.61L286.73,125.17L284.79,139.71L284.69,140.27L284.32,156.48L284.34,157.04L285.23,165.99L285.32,166.55L286.52,175.49L286.56,176.05L286.34,184.44L286.27,185L281.68,198.97L281.5,199.53L280.91,204L280.96,204.56L283.76,212.39L284.01,212.95L286.04,219.1L286.15,219.66L286.81,231.4Z" style="fill: rgb(221, 64, 64); fill-opacity: 0.2; stroke-width: 0;"/></g></g><g class="errorbars"/><g class="lines"><path class="js-line" d="M286.81,231.4L286.15,219.66L286.04,219.1L284.01,212.95L283.76,212.39L280.96,204.56L280.91,204L281.5,199.53L281.68,198.97L286.27,185L286.34,184.44L286.56,176.05L286.52,175.49L285.32,166.55L285.23,165.99L284.34,157.04L284.32,156.48L284.69,140.27L284.79,139.71L286.73,125.17L286.74,124.61L286.82,117.35" style="vector-effect: non-scaling-stroke; fill: none; stroke: rgb(59, 2, 128); stroke-opacity: 1; stroke-width: 1px; opacity: 1;"/></g><g class="points"/><g class="text"/></g><g class="trace scatter traced591e9" style="stroke-miterlimit: 2;"><g class="fills"/><g class="errorbars"/><g class="lines"><path class="js-line" d="M286.83,231.4L286.83,117.35" style="vector-effect: non-scaling-stroke; fill: none; stroke: rgb(0, 0, 0); stroke-opacity: 0; stroke-width: 1px; opacity: 1;"/></g><g class="points"/><g class="text"/></g><g class="trace scatter trace8757b4" style="stroke-miterlimit: 2; opacity: 1;"><g class="fills"/><g class="errorbars"/><g class="lines"><path class="js-line" d="M286.83,204.56L280.96,204.56" style="vector-effect: non-scaling-stroke; fill: none; stroke: rgb(221, 64, 64); stroke-opacity: 1; stroke-width: 1px; opacity: 1; stroke-dasharray: 3px, 3px;"/></g><g class="points"/><g class="text"/></g><g class="trace scatter tracee5a7a9" style="stroke-miterlimit: 2; opacity: 1;"><g class="fills"/><g class="errorbars"/><g class="lines"><path class="js-line" d="M286.83,194.5L283.5,194.5" style="vector-effect: non-scaling-stroke; fill: none; stroke: rgb(221, 64, 64); stroke-opacity: 1; stroke-width: 1px; opacity: 1; stroke-dasharray: 3px, 3px;"/></g><g class="points"/><g class="text"/></g><g class="trace scatter trace53a04f" style="stroke-miterlimit: 2; opacity: 1;"><g class="fills"/><g class="errorbars"/><g class="lines"><path class="js-line" d="M286.83,154.81L284.28,154.81" style="vector-effect: non-scaling-stroke; fill: none; stroke: rgb(221, 64, 64); stroke-opacity: 1; stroke-width: 1px; opacity: 1; stroke-dasharray: 3px, 3px;"/></g><g class="points"/><g class="text"/></g><g class="trace scatter trace5c711f" style="stroke-miterlimit: 2;"><g class="fills"><g><path class="js-fill" d="M329.95,201L329.95,189.12L329.93,189.12L329.75,189.82L329.7,189.88L304.3,193.37L303.85,193.43L297,195.53L296.84,195.58L296.4,195.87L299.43,197.1L299.66,197.16L322.71,199.43L323.52,199.49L328.89,200.13L329.09,200.18L329.93,201Z" style="fill: rgb(221, 64, 64); fill-opacity: 0.2; stroke-width: 0;"/></g></g><g class="errorbars"/><g class="lines"><path class="js-line" d="M329.93,201L329.09,200.18L328.89,200.13L323.52,199.49L322.71,199.43L299.66,197.16L299.43,197.1L296.4,195.87L296.84,195.58L297,195.53L303.85,193.43L304.3,193.37L329.7,189.88L329.75,189.82L329.93,189.12" style="vector-effect: non-scaling-stroke; fill: none; stroke: rgb(59, 2, 128); stroke-opacity: 1; stroke-width: 1px; opacity: 1;"/></g><g class="points"/><g class="text"/></g><g class="trace scatter trace5d383f" style="stroke-miterlimit: 2;"><g class="fills"/><g class="errorbars"/><g class="lines"><path class="js-line" d="M329.95,201L329.95,189.12" style="vector-effect: non-scaling-stroke; fill: none; stroke: rgb(0, 0, 0); stroke-opacity: 0; stroke-width: 1px; opacity: 1;"/></g><g class="points"/><g class="text"/></g><g class="trace scatter trace19b6c3" style="stroke-miterlimit: 2; opacity: 1;"><g class="fills"/><g class="errorbars"/><g class="lines"><path class="js-line" d="M329.95,197.16L299.66,197.16" style="vector-effect: non-scaling-stroke; fill: none; stroke: rgb(221, 64, 64); stroke-opacity: 1; stroke-width: 1px; opacity: 1; stroke-dasharray: 3px, 3px;"/></g><g class="points"/><g class="text"/></g><g class="trace scatter trace7b7e22" style="stroke-miterlimit: 2; opacity: 1;"><g class="fills"/><g class="errorbars"/><g class="lines"><path class="js-line" d="M329.95,195.58L296.84,195.58" style="vector-effect: non-scaling-stroke; fill: none; stroke: rgb(221, 64, 64); stroke-opacity: 1; stroke-width: 1px; opacity: 1; stroke-dasharray: 3px, 3px;"/></g><g class="points"/><g class="text"/></g><g class="trace scatter trace0ff082" style="stroke-miterlimit: 2; opacity: 1;"><g class="fills"/><g class="errorbars"/><g class="lines"><path class="js-line" d="M329.95,193.95L300.31,193.95" style="vector-effect: non-scaling-stroke; fill: none; stroke: rgb(221, 64, 64); stroke-opacity: 1; stroke-width: 1px; opacity: 1; stroke-dasharray: 3px, 3px;"/></g><g class="points"/><g class="text"/></g><g class="trace scatter trace566825" style="stroke-miterlimit: 2;"><g class="fills"><g><path class="js-fill" d="M373.07,234.84L373.07,147.22L373.07,147.22L373.06,175.13L373.06,175.56L372.8,182.44L372.73,182.87L370.55,187.16L370.26,187.59L365.56,191.46L364.99,191.89L363.99,193.6L363.94,194.03L361.27,197.47L360.94,197.9L360.91,199.62L361.2,200.05L370.86,208.21L371.28,208.64L372.27,211.21L372.34,211.64L373.07,234.84Z" style="fill: rgb(221, 64, 64); fill-opacity: 0.2; stroke-width: 0;"/></g></g><g class="errorbars"/><g class="lines"><path class="js-line" d="M373.07,234.84L372.34,211.64L372.27,211.21L371.28,208.64L370.86,208.21L361.2,200.05L360.91,199.62L360.94,197.9L361.27,197.47L363.94,194.03L363.99,193.6L364.99,191.89L365.56,191.46L370.26,187.59L370.55,187.16L372.73,182.87L372.8,182.44L373.06,175.56L373.06,175.13L373.07,147.22" style="vector-effect: non-scaling-stroke; fill: none; stroke: rgb(59, 2, 128); stroke-opacity: 1; stroke-width: 1px; opacity: 1;"/></g><g class="points"/><g class="text"/></g><g class="trace scatter trace84ffdf" style="stroke-miterlimit: 2;"><g class="fills"/><g class="errorbars"/><g class="lines"><path class="js-line" d="M373.07,234.84L373.07,147.22" style="vector-effect: non-scaling-stroke; fill: none; stroke: rgb(0, 0, 0); stroke-opacity: 0; stroke-width: 1px; opacity: 1;"/></g><g class="points"/><g class="text"/></g><g class="trace scatter trace93a8fe" style="stroke-miterlimit: 2; opacity: 1;"><g class="fills"/><g class="errorbars"/><g class="lines"><path class="js-line" d="M373.07,202.19L363.29,202.19" style="vector-effect: non-scaling-stroke; fill: none; stroke: rgb(221, 64, 64); stroke-opacity: 1; stroke-width: 1px; opacity: 1; stroke-dasharray: 3px, 3px;"/></g><g class="points"/><g class="text"/></g><g class="trace scatter tracef622d1" style="stroke-miterlimit: 2; opacity: 1;"><g class="fills"/><g class="errorbars"/><g class="lines"><path class="js-line" d="M373.07,198.33L360.72,198.33" style="vector-effect: non-scaling-stroke; fill: none; stroke: rgb(221, 64, 64); stroke-opacity: 1; stroke-width: 1px; opacity: 1; stroke-dasharray: 3px, 3px;"/></g><g class="points"/><g class="text"/></g><g class="trace scatter traceaf5df8" style="stroke-miterlimit: 2; opacity: 1;"><g class="fills"/><g class="errorbars"/><g class="lines"><path class="js-line" d="M373.07,193.6L363.99,193.6" style="vector-effect: non-scaling-stroke; fill: none; stroke: rgb(221, 64, 64); stroke-opacity: 1; stroke-width: 1px; opacity: 1; stroke-dasharray: 3px, 3px;"/></g><g class="points"/><g class="text"/></g><g class="trace scatter trace62f0f4" style="stroke-miterlimit: 2;"><g class="fills"><g><path class="js-fill" d="M412.02,247.05L412.02,145.63L412.02,145.63L412.01,150.61L412.01,151.1L411.62,159.06L411.54,159.55L407.06,169.5L406.84,169.99L406.25,172.98L406.29,173.47L408.11,177.95L408.39,178.45L410.31,182.92L410.41,183.42L409.95,201.81L409.91,202.31L407.38,209.27L407.17,209.76L406.41,213.24L406.44,213.74L409.08,220.2L409.34,220.7L411.22,225.67L411.33,226.17L412.02,247.05Z" style="fill: rgb(221, 64, 64); fill-opacity: 0.2; stroke-width: 0;"/></g></g><g class="errorbars"/><g class="lines"><path class="js-line" d="M412.02,247.05L411.33,226.17L411.22,225.67L409.34,220.7L409.08,220.2L406.44,213.74L406.41,213.24L407.17,209.76L407.38,209.27L409.91,202.31L409.95,201.81L410.41,183.42L410.31,182.92L408.39,178.45L408.11,177.95L406.29,173.47L406.25,172.98L406.84,169.99L407.06,169.5L411.54,159.55L411.62,159.06L412.01,151.1L412.01,150.61L412.02,145.63" style="vector-effect: non-scaling-stroke; fill: none; stroke: rgb(59, 2, 128); stroke-opacity: 1; stroke-width: 1px; opacity: 1;"/></g><g class="points"/><g class="text"/></g><g class="trace scatter tracecc1e96" style="stroke-miterlimit: 2;"><g class="fills"/><g class="errorbars"/><g class="lines"><path class="js-line" d="M412.02,247.05L412.02,145.63" style="vector-effect: non-scaling-stroke; fill: none; stroke: rgb(0, 0, 0); stroke-opacity: 0; stroke-width: 1px; opacity: 1;"/></g><g class="points"/><g class="text"/></g><g class="trace scatter trace09aee8" style="stroke-miterlimit: 2; opacity: 1;"><g class="fills"/><g class="errorbars"/><g class="lines"><path class="js-line" d="M412.02,211.75L406.55,211.75" style="vector-effect: non-scaling-stroke; fill: none; stroke: rgb(221, 64, 64); stroke-opacity: 1; stroke-width: 1px; opacity: 1; stroke-dasharray: 3px, 3px;"/></g><g class="points"/><g class="text"/></g><g class="trace scatter trace036e76" style="stroke-miterlimit: 2; opacity: 1;"><g class="fills"/><g class="errorbars"/><g class="lines"><path class="js-line" d="M412.02,194.85L409.81,194.85" style="vector-effect: non-scaling-stroke; fill: none; stroke: rgb(221, 64, 64); stroke-opacity: 1; stroke-width: 1px; opacity: 1; stroke-dasharray: 3px, 3px;"/></g><g class="points"/><g class="text"/></g><g class="trace scatter trace317537" style="stroke-miterlimit: 2; opacity: 1;"><g class="fills"/><g class="errorbars"/><g class="lines"><path class="js-line" d="M412.02,174.47L406.5,174.47" style="vector-effect: non-scaling-stroke; fill: none; stroke: rgb(221, 64, 64); stroke-opacity: 1; stroke-width: 1px; opacity: 1; stroke-dasharray: 3px, 3px;"/></g><g class="points"/><g class="text"/></g><g class="trace scatter trace17615b" style="stroke-miterlimit: 2;"><g class="fills"><g><path class="js-fill" d="M455.15,236.51L455.15,109.06L455.14,109.06L455.08,114.68L455.08,115.3L454.74,120.3L454.52,120.93L451.52,123.43L450.43,124.05L447.67,127.17L447,127.8L441.11,131.55L440.1,132.17L439.22,133.42L439.56,134.05L451.37,137.79L452.72,138.42L454.25,139.67L454.63,140.29L455.05,149.04L455.03,149.67L452.98,157.16L452.88,157.79L454.83,162.78L455,163.41L455.11,182.15L455.08,182.78L454.32,187.15L454.07,187.77L454,190.27L454.21,190.9L454.94,195.27L454.93,195.9L453.22,200.27L452.98,200.89L454.18,204.02L454.45,204.64L455.14,236.51Z" style="fill: rgb(221, 64, 64); fill-opacity: 0.2; stroke-width: 0;"/></g></g><g class="errorbars"/><g class="lines"><path class="js-line" d="M455.14,236.51L454.45,204.64L454.18,204.02L452.98,200.89L453.22,200.27L454.93,195.9L454.94,195.27L454.21,190.9L454,190.27L454.07,187.77L454.32,187.15L455.08,182.78L455.11,182.15L455,163.41L454.83,162.78L452.88,157.79L452.98,157.16L455.03,149.67L455.05,149.04L454.63,140.29L454.25,139.67L452.72,138.42L451.37,137.79L439.56,134.05L439.22,133.42L440.1,132.17L441.11,131.55L447,127.8L447.67,127.17L450.43,124.05L451.52,123.43L454.52,120.93L454.74,120.3L455.08,115.3L455.08,114.68L455.14,109.06" style="vector-effect: non-scaling-stroke; fill: none; stroke: rgb(59, 2, 128); stroke-opacity: 1; stroke-width: 1px; opacity: 1;"/></g><g class="points"/><g class="text"/></g><g class="trace scatter trace27a5c3" style="stroke-miterlimit: 2;"><g class="fills"/><g class="errorbars"/><g class="lines"><path class="js-line" d="M455.15,236.51L455.15,109.06" style="vector-effect: non-scaling-stroke; fill: none; stroke: rgb(0, 0, 0); stroke-opacity: 0; stroke-width: 1px; opacity: 1;"/></g><g class="points"/><g class="text"/></g><g class="trace scatter trace02392d" style="stroke-miterlimit: 2; opacity: 1;"><g class="fills"/><g class="errorbars"/><g class="lines"><path class="js-line" d="M455.15,137.79L451.37,137.79" style="vector-effect: non-scaling-stroke; fill: none; stroke: rgb(221, 64, 64); stroke-opacity: 1; stroke-width: 1px; opacity: 1; stroke-dasharray: 3px, 3px;"/></g><g class="points"/><g class="text"/></g><g class="trace scatter trace1b1a2b" style="stroke-miterlimit: 2; opacity: 1;"><g class="fills"/><g class="errorbars"/><g class="lines"><path class="js-line" d="M455.15,133.42L439.22,133.42" style="vector-effect: non-scaling-stroke; fill: none; stroke: rgb(221, 64, 64); stroke-opacity: 1; stroke-width: 1px; opacity: 1; stroke-dasharray: 3px, 3px;"/></g><g class="points"/><g class="text"/></g><g class="trace scatter trace022697" style="stroke-miterlimit: 2; opacity: 1;"><g class="fills"/><g class="errorbars"/><g class="lines"><path class="js-line" d="M455.15,129.67L444.52,129.67" style="vector-effect: non-scaling-stroke; fill: none; stroke: rgb(221, 64, 64); stroke-opacity: 1; stroke-width: 1px; opacity: 1; stroke-dasharray: 3px, 3px;"/></g><g class="points"/><g class="text"/></g><g class="trace scatter trace2e8784" style="stroke-miterlimit: 2;"><g class="fills"><g><path class="js-fill" d="M496.88,237.08L496.88,84.24L496.86,84.24L496.84,87.23L496.82,88.73L494.44,117.2L494.33,118.7L496.28,142.67L496.4,144.17L496.6,159.16L496.53,160.66L494.82,174.14L494.53,175.64L492.95,186.13L492.88,187.63L495.93,210.1L496.11,211.6L496.86,237.08Z" style="fill: rgb(221, 64, 64); fill-opacity: 0.2; stroke-width: 0;"/></g></g><g class="errorbars"/><g class="lines"><path class="js-line" d="M496.86,237.08L496.11,211.6L495.93,210.1L492.88,187.63L492.95,186.13L494.53,175.64L494.82,174.14L496.53,160.66L496.6,159.16L496.4,144.17L496.28,142.67L494.33,118.7L494.44,117.2L496.82,88.73L496.84,87.23L496.86,84.24" style="vector-effect: non-scaling-stroke; fill: none; stroke: rgb(59, 2, 128); stroke-opacity: 1; stroke-width: 1px; opacity: 1;"/></g><g class="points"/><g class="text"/></g><g class="trace scatter trace0f5577" style="stroke-miterlimit: 2;"><g class="fills"/><g class="errorbars"/><g class="lines"><path class="js-line" d="M496.88,237.08L496.88,84.24" style="vector-effect: non-scaling-stroke; fill: none; stroke: rgb(0, 0, 0); stroke-opacity: 0; stroke-width: 1px; opacity: 1;"/></g><g class="points"/><g class="text"/></g><g class="trace scatter trace47dc2e" style="stroke-miterlimit: 2; opacity: 1;"><g class="fills"/><g class="errorbars"/><g class="lines"><path class="js-line" d="M496.88,192.12L493.02,192.12" style="vector-effect: non-scaling-stroke; fill: none; stroke: rgb(221, 64, 64); stroke-opacity: 1; stroke-width: 1px; opacity: 1; stroke-dasharray: 3px, 3px;"/></g><g class="points"/><g class="text"/></g><g class="trace scatter trace757c88" style="stroke-miterlimit: 2; opacity: 1;"><g class="fills"/><g class="errorbars"/><g class="lines"><path class="js-line" d="M496.88,177.14L494.24,177.14" style="vector-effect: non-scaling-stroke; fill: none; stroke: rgb(221, 64, 64); stroke-opacity: 1; stroke-width: 1px; opacity: 1; stroke-dasharray: 3px, 3px;"/></g><g class="points"/><g class="text"/></g><g class="trace scatter trace62a2a6" style="stroke-miterlimit: 2; opacity: 1;"><g class="fills"/><g class="errorbars"/><g class="lines"><path class="js-line" d="M496.88,126.19L494.39,126.19" style="vector-effect: non-scaling-stroke; fill: none; stroke: rgb(221, 64, 64); stroke-opacity: 1; stroke-width: 1px; opacity: 1; stroke-dasharray: 3px, 3px;"/></g><g class="points"/><g class="text"/></g><g class="trace scatter tracefab9e0" style="stroke-miterlimit: 2;"><g class="fills"><g><path class="js-fill" d="M0,0Z" style="stroke-width: 0; fill: rgb(0, 200, 229); fill-opacity: 0.2;"/></g></g><g class="errorbars"/><g class="lines"/><g class="points"/><g class="text"/></g><g class="trace scatter trace8767ea" style="stroke-miterlimit: 2;"><g class="fills"/><g class="errorbars"/><g class="lines"/><g class="points"/><g class="text"/></g><g class="trace scatter trace07393d" style="stroke-miterlimit: 2;"><g class="fills"><g><path class="js-fill" d="M0,0Z" style="stroke-width: 0; fill: rgb(59, 2, 128); fill-opacity: 0.2;"/></g></g><g class="errorbars"/><g class="lines"/><g class="points"/><g class="text"/></g><g class="trace scatter traceb2a0ca" style="stroke-miterlimit: 2;"><g class="fills"/><g class="errorbars"/><g class="lines"/><g class="points"/><g class="text"/></g><g class="trace scatter trace54f1d5" style="stroke-miterlimit: 2;"><g class="fills"><g><path class="js-fill" d="M0,0Z" style="stroke-width: 0; fill: rgb(221, 64, 64); fill-opacity: 0.2;"/></g></g><g class="errorbars"/><g class="lines"/><g class="points"/><g class="text"/></g><g class="trace scatter trace7250f4" style="stroke-miterlimit: 2;"><g class="fills"/><g class="errorbars"/><g class="lines"/><g class="points"/><g class="text"/></g><g class="trace scatter trace554a17" style="stroke-miterlimit: 2; opacity: 1;"><g class="fills"/><g class="errorbars"/><g class="lines"/><g class="points"/><g class="text"/></g></g></g><g class="overplot"/><path class="xlines-above crisp" d="M79,372.5H621M79,99.5H621" style="fill: none; stroke-width: 1px; stroke: rgb(102, 102, 102); stroke-opacity: 1;"/><path class="ylines-above crisp" d="M79.5,100V372M620.5,100V372" style="fill: none; stroke-width: 1px; stroke: rgb(102, 102, 102); stroke-opacity: 1;"/><g class="overlines-above"/><g class="xaxislayer-above"><g class="xtick"><text text-anchor="middle" x="0" y="387.4" transform="translate(154,0)" style="font-family: 'Open Sans', verdana, arial, sans-serif; font-size: 12px; fill: rgb(42, 63, 95); fill-opacity: 1; white-space: pre; opacity: 1;">Jul 2021</text></g><g class="xtick"><text text-anchor="middle" x="0" y="387.4" style="font-family: 'Open Sans', verdana, arial, sans-serif; font-size: 12px; fill: rgb(42, 63, 95); fill-opacity: 1; white-space: pre; opacity: 1;" transform="translate(240.24,0)">Sep 2021</text></g><g class="xtick"><text text-anchor="middle" x="0" y="387.4" style="font-family: 'Open Sans', verdana, arial, sans-serif; font-size: 12px; fill: rgb(42, 63, 95); fill-opacity: 1; white-space: pre; opacity: 1;" transform="translate(325.1,0)">Nov 2021</text></g><g class="xtick"><text text-anchor="middle" x="0" y="387.4" style="font-family: 'Open Sans', verdana, arial, sans-serif; font-size: 12px; fill: rgb(42, 63, 95); fill-opacity: 1; white-space: pre; opacity: 1;" transform="translate(409.95,0)">Jan 2022</text></g><g class="xtick"><text text-anchor="middle" x="0" y="387.4" style="font-family: 'Open Sans', verdana, arial, sans-serif; font-size: 12px; fill: rgb(42, 63, 95); fill-opacity: 1; white-space: pre; opacity: 1;" transform="translate(492.02,0)">Mar 2022</text></g><g class="xtick"><text text-anchor="middle" x="0" y="387.4" style="font-family: 'Open Sans', verdana, arial, sans-serif; font-size: 12px; fill: rgb(42, 63, 95); fill-opacity: 1; white-space: pre; opacity: 1;" transform="translate(576.88,0)">May 2022</text></g></g><g class="yaxislayer-above"><g class="ytick"><text text-anchor="end" x="76.6" y="4.199999999999999" transform="translate(0,342.82)" style="font-family: 'Open Sans', verdana, arial, sans-serif; font-size: 12px; fill: rgb(42, 63, 95); fill-opacity: 1; white-space: pre; opacity: 1;">−124</text></g><g class="ytick"><text text-anchor="end" x="76.6" y="4.199999999999999" style="font-family: 'Open Sans', verdana, arial, sans-serif; font-size: 12px; fill: rgb(42, 63, 95); fill-opacity: 1; white-space: pre; opacity: 1;" transform="translate(0,296.77)">−122</text></g><g class="ytick"><text text-anchor="end" x="76.6" y="4.199999999999999" style="font-family: 'Open Sans', verdana, arial, sans-serif; font-size: 12px; fill: rgb(42, 63, 95); fill-opacity: 1; white-space: pre; opacity: 1;" transform="translate(0,250.72)">−120</text></g><g class="ytick"><text text-anchor="end" x="76.6" y="4.199999999999999" style="font-family: 'Open Sans', verdana, arial, sans-serif; font-size: 12px; fill: rgb(42, 63, 95); fill-opacity: 1; white-space: pre; opacity: 1;" transform="translate(0,204.67000000000002)">−118</text></g><g class="ytick"><text text-anchor="end" x="76.6" y="4.199999999999999" style="font-family: 'Open Sans', verdana, arial, sans-serif; font-size: 12px; fill: rgb(42, 63, 95); fill-opacity: 1; white-space: pre; opacity: 1;" transform="translate(0,158.62)">−116</text></g><g class="ytick"><text text-anchor="end" x="76.6" y="4.199999999999999" style="font-family: 'Open Sans', verdana, arial, sans-serif; font-size: 12px; fill: rgb(42, 63, 95); fill-opacity: 1; white-space: pre; opacity: 1;" transform="translate(0,112.58)">−114</text></g></g><g class="overaxes-above"/></g></g><g class="polarlayer"/><g class="smithlayer"/><g class="ternarylayer"/><g class="geolayer"/><g class="funnelarealayer"/><g class="pielayer"/><g class="iciclelayer"/><g class="treemaplayer"/><g class="sunburstlayer"/><g class="glimages"/><defs id="topdefs-c18555"><g class="clips"/><clipPath id="legendc18555"><rect width="516" height="48" x="0" y="0"/></clipPath></defs><g class="layer-above"><g class="imagelayer"/><g class="shapelayer"/></g><g class="infolayer"><g class="legend" pointer-events="all" transform="translate(80,440)"><rect class="bg" shape-rendering="crispEdges" width="516" height="48" x="0" y="0" style="stroke: rgb(68, 68, 68); stroke-opacity: 1; fill: rgb(255, 255, 255); fill-opacity: 1; stroke-width: 0px;"/><g class="scrollbox" transform="" clip-path="url(#legendc18555)"><g class="groups"><g class="traces" transform="translate(0,14.5)" style="opacity: 1;"><text class="legendtext" text-anchor="start" x="40" y="4.680000000000001" style="font-family: 'Open Sans', verdana, arial, sans-serif; font-size: 12px; fill: rgb(42, 63, 95); fill-opacity: 1; white-space: pre;">Reference period</text><g class="layers"><g class="legendfill"><path class="js-fill" d="M5,-2h30v6h-30z" style="stroke-width: 0; fill: rgb(0, 200, 229); fill-opacity: 0.2;"/></g><g class="legendlines"><path class="js-line" d="M5,-2h30" style="fill: none; stroke: rgb(0, 200, 229); stroke-opacity: 1; stroke-width: 1px;"/></g><g class="legendsymbols"><g class="legendpoints"/></g></g><rect class="legendtoggle" x="0" y="-9.5" width="144.359375" height="19" style="fill: rgb(0, 0, 0); fill-opacity: 0;"/></g><g class="traces" transform="translate(171.890625,14.5)" style="opacity: 1;"><text class="legendtext" text-anchor="start" x="40" y="4.680000000000001" style="font-family: 'Open Sans', verdana, arial, sans-serif; font-size: 12px; fill: rgb(42, 63, 95); fill-opacity: 1; white-space: pre;">Analysis period</text><g class="layers"><g class="legendfill"><path class="js-fill" d="M5,-2h30v6h-30z" style="stroke-width: 0; fill: rgb(59, 2, 128); fill-opacity: 0.2;"/></g><g class="legendlines"><path class="js-line" d="M5,-2h30" style="fill: none; stroke: rgb(59, 2, 128); stroke-opacity: 1; stroke-width: 1px;"/></g><g class="legendsymbols"><g class="legendpoints"/></g></g><rect class="legendtoggle" x="0" y="-9.5" width="134.53125" height="19" style="fill: rgb(0, 0, 0); fill-opacity: 0;"/></g><g class="traces" transform="translate(343.78125,14.5)" style="opacity: 1;"><text class="legendtext" text-anchor="start" x="40" y="4.680000000000001" style="font-family: 'Open Sans', verdana, arial, sans-serif; font-size: 12px; fill: rgb(42, 63, 95); fill-opacity: 1; white-space: pre;">Period with data drift</text><g class="layers"><g class="legendfill"><path class="js-fill" d="M5,-2h30v6h-30z" style="stroke-width: 0; fill: rgb(221, 64, 64); fill-opacity: 0.2;"/></g><g class="legendlines"><path class="js-line" d="M5,-2h30" style="fill: none; stroke: rgb(0, 0, 0); stroke-opacity: 0; stroke-width: 1px;"/></g><g class="legendsymbols"><g class="legendpoints"/></g></g><rect class="legendtoggle" x="0" y="-9.5" width="169.390625" height="19" style="fill: rgb(0, 0, 0); fill-opacity: 0;"/></g><g class="traces" transform="translate(0,33.5)" style="opacity: 1;"><text class="legendtext" text-anchor="start" x="40" y="4.680000000000001" style="font-family: 'Open Sans', verdana, arial, sans-serif; font-size: 12px; fill: rgb(42, 63, 95); fill-opacity: 1; white-space: pre;">Quartiles</text><g class="layers" style="opacity: 1;"><g class="legendfill"/><g class="legendlines"><path class="js-line" d="M5,0h30" style="fill: none; stroke: rgb(102, 102, 102); stroke-opacity: 1; stroke-dasharray: 3px, 3px; stroke-width: 1px;"/></g><g class="legendsymbols"><g class="legendpoints"/></g></g><rect class="legendtoggle" x="0" y="-9.5" width="96.734375" height="19" style="fill: rgb(0, 0, 0); fill-opacity: 0;"/></g></g></g><rect class="scrollbar" rx="20" ry="3" width="0" height="0" x="0" y="0" style="fill: rgb(128, 139, 164); fill-opacity: 1;"/></g><g class="g-gtitle"><text class="gtitle" x="35" y="50" text-anchor="start" dy="0em" style="font-family: 'Open Sans', verdana, arial, sans-serif; font-size: 17px; fill: rgb(42, 63, 95); opacity: 1; font-weight: normal; white-space: pre;">Distribution over time for Longitude</text></g><g class="g-xtitle"><text class="xtitle" x="350" y="414.6125" text-anchor="middle" style="font-family: 'Open Sans', verdana, arial, sans-serif; font-size: 14px; fill: rgb(42, 63, 95); opacity: 1; font-weight: normal; white-space: pre;">Time</text></g><g class="g-ytitle"><text class="ytitle" transform="rotate(-90,19.090625000000003,236)" x="19.090625000000003" y="236" text-anchor="middle" style="font-family: 'Open Sans', verdana, arial, sans-serif; font-size: 14px; fill: rgb(42, 63, 95); opacity: 1; font-weight: normal; white-space: pre;">Longitude</text></g></g></svg>