<svg class="main-svg" xmlns="http://www.w3.org/2000/svg" xmlns:xlink="http://www.w3.org/1999/xlink" width="700" height="500" style="" viewBox="0 0 700 500"><rect x="0" y="0" width="700" height="500" style="fill: rgb(255, 255, 255); fill-opacity: 1;"/><defs id="defs-0cda9d"><g class="clips"><clipPath id="clip0cda9dxyplot" class="plotclip"><rect width="521" height="272"/></clipPath><clipPath class="axesclip" id="clip0cda9dx"><rect x="99" y="0" width="521" height="500"/></clipPath><clipPath class="axesclip" id="clip0cda9dy"><rect x="0" y="100" width="700" height="272"/></clipPath><clipPath class="axesclip" id="clip0cda9dxy"><rect x="99" y="100" width="521" height="272"/></clipPath></g><g class="gradients"/><g class="patterns"/></defs><g class="bglayer"/><g class="layer-below"><g class="imagelayer"/><g class="shapelayer"/></g><g class="cartesianlayer"><g class="subplot xy"><g class="layer-subplot"><g class="shapelayer"/><g class="imagelayer"/></g><g class="gridlayer"><g class="x"/><g class="y"/></g><g class="zerolinelayer"/><path class="xlines-below"/><path class="ylines-below"/><g class="overlines-below"/><g class="xaxislayer-below"/><g class="yaxislayer-below"/><g class="overaxes-below"/><g class="plot" transform="translate(99,100)" clip-path="url(#clip0cda9dxyplot)"><g class="scatterlayer mlayer"><g class="trace scatter trace17716f" style="stroke-miterlimit: 2;"><g class="fills"><g><path class="js-fill" d="M146.18,33.29L502.33,33.29L502.33,33.29L500.59,33.27L500.25,33.27L495.37,32.9L495.02,32.81L492.24,32.48L491.89,32.54L422.96,33.19L422.61,33.19L414.25,31.51L413.91,31.46L410.77,32.49L410.42,32.67L192.49,33.29L192.14,33.29L177.87,33.2L177.52,33.18L173.69,32.46L173.34,32.32L169.86,29.88L169.51,29.5L166.38,23.67L166.03,22.88L163.24,17.92L162.89,17.49L161.5,16.52L161.15,16.46L159.41,15.62L159.07,15.17L157.67,13.6L157.32,13.63L155.58,18.26L155.24,19.91L153.15,29.2L152.8,30.2L151.41,32.44L151.06,32.7L146.18,33.29Z" style="fill: rgb(221, 64, 64); fill-opacity: 0.2; stroke-width: 0;"/></g></g><g class="errorbars"/><g class="lines"><path class="js-line" d="M146.18,33.29L151.06,32.7L151.41,32.44L152.8,30.2L153.15,29.2L155.24,19.91L155.58,18.26L157.32,13.63L157.67,13.6L159.07,15.17L159.41,15.62L161.15,16.46L161.5,16.52L162.89,17.49L163.24,17.92L166.03,22.88L166.38,23.67L169.51,29.5L169.86,29.88L173.34,32.32L173.69,32.46L177.52,33.18L177.87,33.2L192.14,33.29L192.49,33.29L410.42,32.67L410.77,32.49L413.91,31.46L414.25,31.51L422.61,33.19L422.96,33.19L491.89,32.54L492.24,32.48L495.02,32.81L495.37,32.9L500.25,33.27L500.59,33.27L502.33,33.29" style="vector-effect: non-scaling-stroke; fill: none; stroke: rgb(59, 2, 128); stroke-opacity: 1; stroke-width: 1px; opacity: 1;"/></g><g class="points"/><g class="text"/></g><g class="trace scatter trace61b2a8" style="stroke-miterlimit: 2;"><g class="fills"/><g class="errorbars"/><g class="lines"><path class="js-line" d="M146.18,33.29L502.33,33.29" style="vector-effect: non-scaling-stroke; fill: none; stroke: rgb(0, 0, 0); stroke-opacity: 0; stroke-width: 1px; opacity: 1;"/></g><g class="points"/><g class="text"/></g><g class="trace scatter trace333602" style="stroke-miterlimit: 2; opacity: 1;"><g class="fills"/><g class="errorbars"/><g class="lines"><path class="js-line" d="M157.67,33.29L157.67,13.6" style="vector-effect: non-scaling-stroke; fill: none; stroke: rgb(221, 64, 64); stroke-opacity: 1; stroke-width: 1px; opacity: 1; stroke-dasharray: 3px, 3px;"/></g><g class="points"/><g class="text"/></g><g class="trace scatter traceac69e8" style="stroke-miterlimit: 2; opacity: 1;"><g class="fills"/><g class="errorbars"/><g class="lines"><path class="js-line" d="M161.15,33.29L161.15,16.46" style="vector-effect: non-scaling-stroke; fill: none; stroke: rgb(221, 64, 64); stroke-opacity: 1; stroke-width: 1px; opacity: 1; stroke-dasharray: 3px, 3px;"/></g><g class="points"/><g class="text"/></g><g class="trace scatter trace127d8f" style="stroke-miterlimit: 2; opacity: 1;"><g class="fills"/><g class="errorbars"/><g class="lines"><path class="js-line" d="M164.98,33.29L164.98,20.72" style="vector-effect: non-scaling-stroke; fill: none; stroke: rgb(221, 64, 64); stroke-opacity: 1; stroke-width: 1px; opacity: 1; stroke-dasharray: 3px, 3px;"/></g><g class="points"/><g class="text"/></g><g class="trace scatter trace810d64" style="stroke-miterlimit: 2;"><g class="fills"><g><path class="js-fill" d="M134.09,52.98L387.4,52.98L387.4,52.97L381.21,52.71L380.96,52.67L376.25,51.17L376.01,51.05L371.55,48.08L371.3,47.85L363.87,35.81L363.63,35.4L361.64,33.01L361.4,32.86L359.91,32.76L359.66,32.88L354.22,41.09L353.97,41.48L351.99,43.85L351.74,44.03L350.01,44.44L349.76,44.37L346.79,41.68L346.54,41.38L344.31,39.17L344.06,39.05L342.58,39.15L342.33,39.3L338.86,44.59L338.62,45.08L335.65,49.97L335.4,50.26L332.92,52.16L332.67,52.26L174.21,52.89L173.96,52.89L161.82,50.93L161.58,50.88L151.18,52.21L150.93,52.26L134.09,52.97Z" style="fill: rgb(221, 64, 64); fill-opacity: 0.2; stroke-width: 0;"/></g></g><g class="errorbars"/><g class="lines"><path class="js-line" d="M134.09,52.97L150.93,52.26L151.18,52.21L161.58,50.88L161.82,50.93L173.96,52.89L174.21,52.89L332.67,52.26L332.92,52.16L335.4,50.26L335.65,49.97L338.62,45.08L338.86,44.59L342.33,39.3L342.58,39.15L344.06,39.05L344.31,39.17L346.54,41.38L346.79,41.68L349.76,44.37L350.01,44.44L351.74,44.03L351.99,43.85L353.97,41.48L354.22,41.09L359.66,32.88L359.91,32.76L361.4,32.86L361.64,33.01L363.63,35.4L363.87,35.81L371.3,47.85L371.55,48.08L376.01,51.05L376.25,51.17L380.96,52.67L381.21,52.71L387.4,52.97" style="vector-effect: non-scaling-stroke; fill: none; stroke: rgb(59, 2, 128); stroke-opacity: 1; stroke-width: 1px; opacity: 1;"/></g><g class="points"/><g class="text"/></g><g class="trace scatter trace9d55d4" style="stroke-miterlimit: 2;"><g class="fills"/><g class="errorbars"/><g class="lines"><path class="js-line" d="M134.09,52.98L387.4,52.98" style="vector-effect: non-scaling-stroke; fill: none; stroke: rgb(0, 0, 0); stroke-opacity: 0; stroke-width: 1px; opacity: 1;"/></g><g class="points"/><g class="text"/></g><g class="trace scatter trace79d70a" style="stroke-miterlimit: 2; opacity: 1;"><g class="fills"/><g class="errorbars"/><g class="lines"><path class="js-line" d="M344.31,52.98L344.31,39.17" style="vector-effect: non-scaling-stroke; fill: none; stroke: rgb(221, 64, 64); stroke-opacity: 1; stroke-width: 1px; opacity: 1; stroke-dasharray: 3px, 3px;"/></g><g class="points"/><g class="text"/></g><g class="trace scatter trace23e8ee" style="stroke-miterlimit: 2; opacity: 1;"><g class="fills"/><g class="errorbars"/><g class="lines"><path class="js-line" d="M355.95,52.98L355.95,38.03" style="vector-effect: non-scaling-stroke; fill: none; stroke: rgb(221, 64, 64); stroke-opacity: 1; stroke-width: 1px; opacity: 1; stroke-dasharray: 3px, 3px;"/></g><g class="points"/><g class="text"/></g><g class="trace scatter trace4c6037" style="stroke-miterlimit: 2; opacity: 1;"><g class="fills"/><g class="errorbars"/><g class="lines"><path class="js-line" d="M362.64,52.98L362.64,33.97" style="vector-effect: non-scaling-stroke; fill: none; stroke: rgb(221, 64, 64); stroke-opacity: 1; stroke-width: 1px; opacity: 1; stroke-dasharray: 3px, 3px;"/></g><g class="points"/><g class="text"/></g><g class="trace scatter trace08a6cd" style="stroke-miterlimit: 2;"><g class="fills"><g><path class="js-fill" d="M348.53,73.32L510.56,73.32L510.56,73.32L387.65,72.97L387.5,72.96L384.17,72.88L384.01,72.83L378.15,72.67L377.99,72.67L375.93,71.89L375.77,71.74L370.39,56.26L370.23,55.76L369.12,53.18L368.96,53.04L368.81,52.98L367.7,54.62L367.54,55.08L366.11,58.96L365.96,59.18L364.05,58.64L363.9,58.62L361.36,66.04L361.2,66.67L359.78,70.74L359.62,71.02L358.04,72.5L357.88,72.57L348.53,73.32Z" style="fill: rgb(221, 64, 64); fill-opacity: 0.2; stroke-width: 0;"/></g></g><g class="errorbars"/><g class="lines"><path class="js-line" d="M348.53,73.32L357.88,72.57L358.04,72.5L359.62,71.02L359.78,70.74L361.2,66.67L361.36,66.04L363.9,58.62L364.05,58.64L365.96,59.18L366.11,58.96L367.54,55.08L367.7,54.62L368.81,52.98L368.96,53.04L369.12,53.18L370.23,55.76L370.39,56.26L375.77,71.74L375.93,71.89L377.99,72.67L378.15,72.67L384.01,72.83L384.17,72.88L387.5,72.96L387.65,72.97L510.56,73.32" style="vector-effect: non-scaling-stroke; fill: none; stroke: rgb(59, 2, 128); stroke-opacity: 1; stroke-width: 1px; opacity: 1;"/></g><g class="points"/><g class="text"/></g><g class="trace scatter trace01286a" style="stroke-miterlimit: 2;"><g class="fills"/><g class="errorbars"/><g class="lines"><path class="js-line" d="M348.53,73.32L510.56,73.32" style="vector-effect: non-scaling-stroke; fill: none; stroke: rgb(0, 0, 0); stroke-opacity: 0; stroke-width: 1px; opacity: 1;"/></g><g class="points"/><g class="text"/></g><g class="trace scatter trace945a61" style="stroke-miterlimit: 2; opacity: 1;"><g class="fills"/><g class="errorbars"/><g class="lines"><path class="js-line" d="M364.85,73.32L364.85,59.22" style="vector-effect: non-scaling-stroke; fill: none; stroke: rgb(221, 64, 64); stroke-opacity: 1; stroke-width: 1px; opacity: 1; stroke-dasharray: 3px, 3px;"/></g><g class="points"/><g class="text"/></g><g class="trace scatter tracefc6397" style="stroke-miterlimit: 2; opacity: 1;"><g class="fills"/><g class="errorbars"/><g class="lines"><path class="js-line" d="M368.17,73.32L368.17,53.51" style="vector-effect: non-scaling-stroke; fill: none; stroke: rgb(221, 64, 64); stroke-opacity: 1; stroke-width: 1px; opacity: 1; stroke-dasharray: 3px, 3px;"/></g><g class="points"/><g class="text"/></g><g class="trace scatter trace0e3a1c" style="stroke-miterlimit: 2; opacity: 1;"><g class="fills"/><g class="errorbars"/><g class="lines"><path class="js-line" d="M371.18,73.32L371.18,58.86" style="vector-effect: non-scaling-stroke; fill: none; stroke: rgb(221, 64, 64); stroke-opacity: 1; stroke-width: 1px; opacity: 1; stroke-dasharray: 3px, 3px;"/></g><g class="points"/><g class="text"/></g><g class="trace scatter traceeaab69" style="stroke-miterlimit: 2;"><g class="fills"><g><path class="js-fill" d="M352.8,93.67L387.08,93.67L387.08,93.66L382.66,92.89L382.62,92.88L378.34,87.09L378.3,87.04L372.77,75.42L372.74,75.34L371.8,74L371.77,73.99L371.73,73.98L369.82,79.38L369.79,79.56L368.28,86.43L368.25,86.53L364.5,90.41L364.46,90.43L362.79,89.98L362.75,89.96L359.23,89.75L359.2,89.75L355.48,92.74L355.45,92.77L352.8,93.66Z" style="fill: rgb(221, 64, 64); fill-opacity: 0.2; stroke-width: 0;"/></g></g><g class="errorbars"/><g class="lines"><path class="js-line" d="M352.8,93.66L355.45,92.77L355.48,92.74L359.2,89.75L359.23,89.75L362.75,89.96L362.79,89.98L364.46,90.43L364.5,90.41L368.25,86.53L368.28,86.43L369.79,79.56L369.82,79.38L371.73,73.98L371.77,73.99L371.8,74L372.74,75.34L372.77,75.42L378.3,87.04L378.34,87.09L382.62,92.88L382.66,92.89L387.08,93.66" style="vector-effect: non-scaling-stroke; fill: none; stroke: rgb(59, 2, 128); stroke-opacity: 1; stroke-width: 1px; opacity: 1;"/></g><g class="points"/><g class="text"/></g><g class="trace scatter trace33b4e8" style="stroke-miterlimit: 2;"><g class="fills"/><g class="errorbars"/><g class="lines"><path class="js-line" d="M352.8,93.67L387.08,93.67" style="vector-effect: non-scaling-stroke; fill: none; stroke: rgb(0, 0, 0); stroke-opacity: 0; stroke-width: 1px; opacity: 1;"/></g><g class="points"/><g class="text"/></g><g class="trace scatter trace2f9869" style="stroke-miterlimit: 2; opacity: 1;"><g class="fills"/><g class="errorbars"/><g class="lines"><path class="js-line" d="M368.25,93.67L368.25,86.53" style="vector-effect: non-scaling-stroke; fill: none; stroke: rgb(221, 64, 64); stroke-opacity: 1; stroke-width: 1px; opacity: 1; stroke-dasharray: 3px, 3px;"/></g><g class="points"/><g class="text"/></g><g class="trace scatter trace4a72d2" style="stroke-miterlimit: 2; opacity: 1;"><g class="fills"/><g class="errorbars"/><g class="lines"><path class="js-line" d="M371.7,93.67L371.7,73.98" style="vector-effect: non-scaling-stroke; fill: none; stroke: rgb(221, 64, 64); stroke-opacity: 1; stroke-width: 1px; opacity: 1; stroke-dasharray: 3px, 3px;"/></g><g class="points"/><g class="text"/></g><g class="trace scatter trace054951" style="stroke-miterlimit: 2; opacity: 1;"><g class="fills"/><g class="errorbars"/><g class="lines"><path class="js-line" d="M374.62,93.67L374.62,80.43" style="vector-effect: non-scaling-stroke; fill: none; stroke: rgb(221, 64, 64); stroke-opacity: 1; stroke-width: 1px; opacity: 1; stroke-dasharray: 3px, 3px;"/></g><g class="points"/><g class="text"/></g><g class="trace scatter tracea49c7f" style="stroke-miterlimit: 2;"><g class="fills"><g><path class="js-fill" d="M0,113.36L521,113.36L521,113.18L518.45,113.21L517.94,113.22L470.58,113.03L470.07,113.02L449.19,112.13L448.68,112.1L431.37,110.41L430.86,110.35L402.34,105.52L401.83,105.43L385.53,102.78L385.02,102.71L371.27,101.71L370.76,101.7L355.99,102.4L355.48,102.46L325.43,107.6L324.92,107.69L303.03,111.06L302.52,111.12L284.69,112.54L284.18,112.57L237.84,113.31L237.33,113.31L205.24,112.8L204.73,112.78L187.42,111.47L186.91,111.41L170.1,108.53L169.59,108.41L142.09,99.92L141.58,99.74L127.83,95.5L127.32,95.37L117.14,93.46L116.63,93.4L106.95,93.07L106.44,93.09L95.75,94.49L95.24,94.6L79.96,98.96L79.45,99.13L59.59,105.75L59.08,105.9L44.82,109.45L44.31,109.55L28.01,111.87L27.5,111.92L0,113.17Z" style="fill: rgb(221, 64, 64); fill-opacity: 0.2; stroke-width: 0;"/></g></g><g class="errorbars"/><g class="lines"><path class="js-line" d="M0,113.17L27.5,111.92L28.01,111.87L44.31,109.55L44.82,109.45L59.08,105.9L59.59,105.75L79.45,99.13L79.96,98.96L95.24,94.6L95.75,94.49L106.44,93.09L106.95,93.07L116.63,93.4L117.14,93.46L127.32,95.37L127.83,95.5L141.58,99.74L142.09,99.92L169.59,108.41L170.1,108.53L186.91,111.41L187.42,111.47L204.73,112.78L205.24,112.8L237.33,113.31L237.84,113.31L284.18,112.57L284.69,112.54L302.52,111.12L303.03,111.06L324.92,107.69L325.43,107.6L355.48,102.46L355.99,102.4L370.76,101.7L371.27,101.71L385.02,102.71L385.53,102.78L401.83,105.43L402.34,105.52L430.86,110.35L431.37,110.41L448.68,112.1L449.19,112.13L470.07,113.02L470.58,113.03L517.94,113.22L518.45,113.21L521,113.18" style="vector-effect: non-scaling-stroke; fill: none; stroke: rgb(59, 2, 128); stroke-opacity: 1; stroke-width: 1px; opacity: 1;"/></g><g class="points"/><g class="text"/></g><g class="trace scatter tracea36417" style="stroke-miterlimit: 2;"><g class="fills"/><g class="errorbars"/><g class="lines"><path class="js-line" d="M0,113.36L521,113.36" style="vector-effect: non-scaling-stroke; fill: none; stroke: rgb(0, 0, 0); stroke-opacity: 0; stroke-width: 1px; opacity: 1;"/></g><g class="points"/><g class="text"/></g><g class="trace scatter trace2a475c" style="stroke-miterlimit: 2; opacity: 1;"><g class="fills"/><g class="errorbars"/><g class="lines"><path class="js-line" d="M100.84,113.36L100.84,93.62" style="vector-effect: non-scaling-stroke; fill: none; stroke: rgb(221, 64, 64); stroke-opacity: 1; stroke-width: 1px; opacity: 1; stroke-dasharray: 3px, 3px;"/></g><g class="points"/><g class="text"/></g><g class="trace scatter tracec6916e" style="stroke-miterlimit: 2; opacity: 1;"><g class="fills"/><g class="errorbars"/><g class="lines"><path class="js-line" d="M139.54,113.36L139.54,99.05" style="vector-effect: non-scaling-stroke; fill: none; stroke: rgb(221, 64, 64); stroke-opacity: 1; stroke-width: 1px; opacity: 1; stroke-dasharray: 3px, 3px;"/></g><g class="points"/><g class="text"/></g><g class="trace scatter trace155310" style="stroke-miterlimit: 2; opacity: 1;"><g class="fills"/><g class="errorbars"/><g class="lines"><path class="js-line" d="M353.44,113.36L353.44,102.69" style="vector-effect: non-scaling-stroke; fill: none; stroke: rgb(221, 64, 64); stroke-opacity: 1; stroke-width: 1px; opacity: 1; stroke-dasharray: 3px, 3px;"/></g><g class="points"/><g class="text"/></g><g class="trace scatter trace23e318" style="stroke-miterlimit: 2;"><g class="fills"><g><path class="js-fill" d="M96.73,133.7L239.1,133.7L239.1,133.7L210.71,133.59L210.57,133.58L203.75,132.63L203.61,132.59L198.74,129.27L198.6,129.15L196.65,128.12L196.51,128.11L193.73,129.99L193.59,130.15L191.36,132.04L191.22,132.1L179.54,132.82L179.4,132.81L175.5,131.95L175.36,131.89L172.72,129.82L172.58,129.63L168.26,118.5L168.12,118.08L166.59,114.6L166.45,114.42L165.48,114.08L165.34,114.16L162.56,120.97L162.42,121.43L160.33,127.18L160.19,127.45L157.55,130.66L157.41,130.78L154.21,132.93L154.07,132.99L129.3,133.7L129.16,133.7L116.91,133.57L116.77,133.55L113.85,132.71L113.71,132.62L108.98,124.25L108.84,123.99L107.73,122.71L107.59,122.67L103.14,130.8L103,131.04L101.33,132.93L101.19,133.02L96.73,133.7Z" style="fill: rgb(221, 64, 64); fill-opacity: 0.2; stroke-width: 0;"/></g></g><g class="errorbars"/><g class="lines"><path class="js-line" d="M96.73,133.7L101.19,133.02L101.33,132.93L103,131.04L103.14,130.8L107.59,122.67L107.73,122.71L108.84,123.99L108.98,124.25L113.71,132.62L113.85,132.71L116.77,133.55L116.91,133.57L129.16,133.7L129.3,133.7L154.07,132.99L154.21,132.93L157.41,130.78L157.55,130.66L160.19,127.45L160.33,127.18L162.42,121.43L162.56,120.97L165.34,114.16L165.48,114.08L166.45,114.42L166.59,114.6L168.12,118.08L168.26,118.5L172.58,129.63L172.72,129.82L175.36,131.89L175.5,131.95L179.4,132.81L179.54,132.82L191.22,132.1L191.36,132.04L193.59,130.15L193.73,129.99L196.51,128.11L196.65,128.12L198.6,129.15L198.74,129.27L203.61,132.59L203.75,132.63L210.57,133.58L210.71,133.59L239.1,133.7" style="vector-effect: non-scaling-stroke; fill: none; stroke: rgb(59, 2, 128); stroke-opacity: 1; stroke-width: 1px; opacity: 1;"/></g><g class="points"/><g class="text"/></g><g class="trace scatter tracebeef0a" style="stroke-miterlimit: 2;"><g class="fills"/><g class="errorbars"/><g class="lines"><path class="js-line" d="M96.73,133.7L239.1,133.7" style="vector-effect: non-scaling-stroke; fill: none; stroke: rgb(0, 0, 0); stroke-opacity: 0; stroke-width: 1px; opacity: 1;"/></g><g class="points"/><g class="text"/></g><g class="trace scatter trace04fb3b" style="stroke-miterlimit: 2; opacity: 1;"><g class="fills"/><g class="errorbars"/><g class="lines"><path class="js-line" d="M157.41,133.7L157.41,130.78" style="vector-effect: non-scaling-stroke; fill: none; stroke: rgb(221, 64, 64); stroke-opacity: 1; stroke-width: 1px; opacity: 1; stroke-dasharray: 3px, 3px;"/></g><g class="points"/><g class="text"/></g><g class="trace scatter trace03d41e" style="stroke-miterlimit: 2; opacity: 1;"><g class="fills"/><g class="errorbars"/><g class="lines"><path class="js-line" d="M165.48,133.7L165.48,114.08" style="vector-effect: non-scaling-stroke; fill: none; stroke: rgb(221, 64, 64); stroke-opacity: 1; stroke-width: 1px; opacity: 1; stroke-dasharray: 3px, 3px;"/></g><g class="points"/><g class="text"/></g><g class="trace scatter tracec48f17" style="stroke-miterlimit: 2; opacity: 1;"><g class="fills"/><g class="errorbars"/><g class="lines"><path class="js-line" d="M171.19,133.7L171.19,127.11" style="vector-effect: non-scaling-stroke; fill: none; stroke: rgb(221, 64, 64); stroke-opacity: 1; stroke-width: 1px; opacity: 1; stroke-dasharray: 3px, 3px;"/></g><g class="points"/><g class="text"/></g><g class="trace scatter tracea737f8" style="stroke-miterlimit: 2;"><g class="fills"><g><path class="js-fill" d="M57.3,153.39L300.03,153.39L300.03,153.35L282.95,153.06L282.71,153.05L269.9,151.56L269.66,151.51L253.76,146.99L253.52,146.92L242.61,144.38L242.37,144.36L231.69,144.08L231.46,144.09L209.87,145.23L209.63,145.25L198.71,147.22L198.48,147.28L185.19,150.81L184.95,150.87L172.85,152.6L172.61,152.61L160.99,152.32L160.75,152.29L152.68,150.71L152.44,150.64L144.85,147.65L144.61,147.53L134.17,141.02L133.94,140.86L126.58,136.04L126.34,135.91L121.12,133.66L120.89,133.59L116.38,133.06L116.14,133.07L110.92,134.28L110.68,134.38L103.09,138.88L102.85,139.05L92.65,146.29L92.41,146.44L85.3,150.02L85.06,150.11L74.86,152.57L74.62,152.6L57.3,153.35Z" style="fill: rgb(221, 64, 64); fill-opacity: 0.2; stroke-width: 0;"/></g></g><g class="errorbars"/><g class="lines"><path class="js-line" d="M57.3,153.35L74.62,152.6L74.86,152.57L85.06,150.11L85.3,150.02L92.41,146.44L92.65,146.29L102.85,139.05L103.09,138.88L110.68,134.38L110.92,134.28L116.14,133.07L116.38,133.06L120.89,133.59L121.12,133.66L126.34,135.91L126.58,136.04L133.94,140.86L134.17,141.02L144.61,147.53L144.85,147.65L152.44,150.64L152.68,150.71L160.75,152.29L160.99,152.32L172.61,152.61L172.85,152.6L184.95,150.87L185.19,150.81L198.48,147.28L198.71,147.22L209.63,145.25L209.87,145.23L231.46,144.09L231.69,144.08L242.37,144.36L242.61,144.38L253.52,146.92L253.76,146.99L269.66,151.51L269.9,151.56L282.71,153.05L282.95,153.06L300.03,153.35" style="vector-effect: non-scaling-stroke; fill: none; stroke: rgb(59, 2, 128); stroke-opacity: 1; stroke-width: 1px; opacity: 1;"/></g><g class="points"/><g class="text"/></g><g class="trace scatter tracea4033b" style="stroke-miterlimit: 2;"><g class="fills"/><g class="errorbars"/><g class="lines"><path class="js-line" d="M57.3,153.39L300.03,153.39" style="vector-effect: non-scaling-stroke; fill: none; stroke: rgb(0, 0, 0); stroke-opacity: 0; stroke-width: 1px; opacity: 1;"/></g><g class="points"/><g class="text"/></g><g class="trace scatter trace5bfef9" style="stroke-miterlimit: 2; opacity: 1;"><g class="fills"/><g class="errorbars"/><g class="lines"><path class="js-line" d="M114.24,153.39L114.24,133.3" style="vector-effect: non-scaling-stroke; fill: none; stroke: rgb(221, 64, 64); stroke-opacity: 1; stroke-width: 1px; opacity: 1; stroke-dasharray: 3px, 3px;"/></g><g class="points"/><g class="text"/></g><g class="trace scatter traceb59058" style="stroke-miterlimit: 2; opacity: 1;"><g class="fills"/><g class="errorbars"/><g class="lines"><path class="js-line" d="M135.84,153.39L135.84,142.17" style="vector-effect: non-scaling-stroke; fill: none; stroke: rgb(221, 64, 64); stroke-opacity: 1; stroke-width: 1px; opacity: 1; stroke-dasharray: 3px, 3px;"/></g><g class="points"/><g class="text"/></g><g class="trace scatter trace296ce8" style="stroke-miterlimit: 2; opacity: 1;"><g class="fills"/><g class="errorbars"/><g class="lines"><path class="js-line" d="M219.83,153.39L219.83,144.66" style="vector-effect: non-scaling-stroke; fill: none; stroke: rgb(221, 64, 64); stroke-opacity: 1; stroke-width: 1px; opacity: 1; stroke-dasharray: 3px, 3px;"/></g><g class="points"/><g class="text"/></g><g class="trace scatter trace855d46" style="stroke-miterlimit: 2;"><g class="fills"><g><path class="js-fill" d="M121.8,173.74L147.09,173.74L147.09,173.72L145.66,173.64L145.63,173.63L143.58,172.37L143.56,172.34L141.23,167.38L141.21,167.3L137.53,157.15L137.5,157.1L133.2,153.59L133.17,153.58L131.57,153.86L131.54,153.88L128.95,156.84L128.92,156.88L124.99,169.93L124.97,170.03L123.78,172.95L123.76,172.98L121.8,173.72Z" style="fill: rgb(221, 64, 64); fill-opacity: 0.2; stroke-width: 0;"/></g></g><g class="errorbars"/><g class="lines"><path class="js-line" d="M121.8,173.72L123.76,172.98L123.78,172.95L124.97,170.03L124.99,169.93L128.92,156.88L128.95,156.84L131.54,153.88L131.57,153.86L133.17,153.58L133.2,153.59L137.5,157.1L137.53,157.15L141.21,167.3L141.23,167.38L143.56,172.34L143.58,172.37L145.63,173.63L145.66,173.64L147.09,173.72" style="vector-effect: non-scaling-stroke; fill: none; stroke: rgb(59, 2, 128); stroke-opacity: 1; stroke-width: 1px; opacity: 1;"/></g><g class="points"/><g class="text"/></g><g class="trace scatter traced99990" style="stroke-miterlimit: 2;"><g class="fills"/><g class="errorbars"/><g class="lines"><path class="js-line" d="M121.8,173.74L147.09,173.74" style="vector-effect: non-scaling-stroke; fill: none; stroke: rgb(0, 0, 0); stroke-opacity: 0; stroke-width: 1px; opacity: 1;"/></g><g class="points"/><g class="text"/></g><g class="trace scatter tracec36500" style="stroke-miterlimit: 2; opacity: 1;"><g class="fills"/><g class="errorbars"/><g class="lines"><path class="js-line" d="M129.96,173.74L129.96,155.37" style="vector-effect: non-scaling-stroke; fill: none; stroke: rgb(221, 64, 64); stroke-opacity: 1; stroke-width: 1px; opacity: 1; stroke-dasharray: 3px, 3px;"/></g><g class="points"/><g class="text"/></g><g class="trace scatter trace6c46ed" style="stroke-miterlimit: 2; opacity: 1;"><g class="fills"/><g class="errorbars"/><g class="lines"><path class="js-line" d="M133.32,173.74L133.32,153.68" style="vector-effect: non-scaling-stroke; fill: none; stroke: rgb(221, 64, 64); stroke-opacity: 1; stroke-width: 1px; opacity: 1; stroke-dasharray: 3px, 3px;"/></g><g class="points"/><g class="text"/></g><g class="trace scatter trace83bf4c" style="stroke-miterlimit: 2; opacity: 1;"><g class="fills"/><g class="errorbars"/><g class="lines"><path class="js-line" d="M136.81,173.74L136.81,155.83" style="vector-effect: non-scaling-stroke; fill: none; stroke: rgb(221, 64, 64); stroke-opacity: 1; stroke-width: 1px; opacity: 1; stroke-dasharray: 3px, 3px;"/></g><g class="points"/><g class="text"/></g><g class="trace scatter traceacc7b1" style="stroke-miterlimit: 2;"><g class="fills"><g><path class="js-fill" d="M50,194.08L236.48,194.08L236.48,194.08L171.95,194.08L171.77,194.08L162.29,193.78L162.11,193.77L157.19,192.92L157,192.87L148.62,189.07L148.44,188.96L143.7,184.75L143.52,184.54L140.42,181.59L140.23,181.48L136.59,180.57L136.41,180.56L129.11,176.52L128.93,176.41L126.38,175.71L126.2,175.72L116.54,181.38L116.35,181.5L108.7,188.75L108.52,188.95L105.42,191.53L105.23,191.64L96.48,193.3L96.3,193.33L50,194.08Z" style="fill: rgb(221, 64, 64); fill-opacity: 0.2; stroke-width: 0;"/></g></g><g class="errorbars"/><g class="lines"><path class="js-line" d="M50,194.08L96.3,193.33L96.48,193.3L105.23,191.64L105.42,191.53L108.52,188.95L108.7,188.75L116.35,181.5L116.54,181.38L126.2,175.72L126.38,175.71L128.93,176.41L129.11,176.52L136.41,180.56L136.59,180.57L140.23,181.48L140.42,181.59L143.52,184.54L143.7,184.75L148.44,188.96L148.62,189.07L157,192.87L157.19,192.92L162.11,193.77L162.29,193.78L171.77,194.08L171.95,194.08L236.48,194.08" style="vector-effect: non-scaling-stroke; fill: none; stroke: rgb(59, 2, 128); stroke-opacity: 1; stroke-width: 1px; opacity: 1;"/></g><g class="points"/><g class="text"/></g><g class="trace scatter tracec9718f" style="stroke-miterlimit: 2;"><g class="fills"/><g class="errorbars"/><g class="lines"><path class="js-line" d="M50,194.08L236.48,194.08" style="vector-effect: non-scaling-stroke; fill: none; stroke: rgb(0, 0, 0); stroke-opacity: 0; stroke-width: 1px; opacity: 1;"/></g><g class="points"/><g class="text"/></g><g class="trace scatter trace62b296" style="stroke-miterlimit: 2; opacity: 1;"><g class="fills"/><g class="errorbars"/><g class="lines"><path class="js-line" d="M119.27,194.08L119.27,179.62" style="vector-effect: non-scaling-stroke; fill: none; stroke: rgb(221, 64, 64); stroke-opacity: 1; stroke-width: 1px; opacity: 1; stroke-dasharray: 3px, 3px;"/></g><g class="points"/><g class="text"/></g><g class="trace scatter trace0eedf1" style="stroke-miterlimit: 2; opacity: 1;"><g class="fills"/><g class="errorbars"/><g class="lines"><path class="js-line" d="M127.84,194.08L127.84,175.92" style="vector-effect: non-scaling-stroke; fill: none; stroke: rgb(221, 64, 64); stroke-opacity: 1; stroke-width: 1px; opacity: 1; stroke-dasharray: 3px, 3px;"/></g><g class="points"/><g class="text"/></g><g class="trace scatter trace5a3afb" style="stroke-miterlimit: 2; opacity: 1;"><g class="fills"/><g class="errorbars"/><g class="lines"><path class="js-line" d="M137.5,194.08L137.5,180.64" style="vector-effect: non-scaling-stroke; fill: none; stroke: rgb(221, 64, 64); stroke-opacity: 1; stroke-width: 1px; opacity: 1; stroke-dasharray: 3px, 3px;"/></g><g class="points"/><g class="text"/></g><g class="trace scatter traced663b2" style="stroke-miterlimit: 2;"><g class="fills"><g><path class="js-fill" d="M24.09,212.46L239.92,212.46L239.92,212.46L224.52,212.37L224.31,212.37L215.45,211.86L215.24,211.84L209.54,210.69L209.33,210.63L203.63,208.07L203.42,207.95L190.98,196.99L190.76,196.8L186.12,193.31L185.91,193.2L182.54,192.15L182.32,192.13L178.74,192.74L178.53,192.82L166.92,202.12L166.71,202.3L161.86,205.64L161.65,205.75L156.58,207.39L156.37,207.42L137.17,204.84L136.96,204.82L126.84,205.06L126.62,205.08L120.72,205.24L120.51,205.22L115.86,204.07L115.65,203.99L104.68,196.44L104.47,196.28L99.83,193.5L99.62,193.42L96.24,192.71L96.03,192.7L92.02,193.62L91.81,193.72L79.79,203.2L79.58,203.37L73.25,207.84L73.03,207.96L67.76,210.22L67.55,210.29L60.59,211.7L60.38,211.73L24.09,212.46Z" style="fill: rgb(221, 64, 64); fill-opacity: 0.2; stroke-width: 0;"/></g></g><g class="errorbars"/><g class="lines"><path class="js-line" d="M24.09,212.46L60.38,211.73L60.59,211.7L67.55,210.29L67.76,210.22L73.03,207.96L73.25,207.84L79.58,203.37L79.79,203.2L91.81,193.72L92.02,193.62L96.03,192.7L96.24,192.71L99.62,193.42L99.83,193.5L104.47,196.28L104.68,196.44L115.65,203.99L115.86,204.07L120.51,205.22L120.72,205.24L126.62,205.08L126.84,205.06L136.96,204.82L137.17,204.84L156.37,207.42L156.58,207.39L161.65,205.75L161.86,205.64L166.71,202.3L166.92,202.12L178.53,192.82L178.74,192.74L182.32,192.13L182.54,192.15L185.91,193.2L186.12,193.31L190.76,196.8L190.98,196.99L203.42,207.95L203.63,208.07L209.33,210.63L209.54,210.69L215.24,211.84L215.45,211.86L224.31,212.37L224.52,212.37L239.92,212.46" style="vector-effect: non-scaling-stroke; fill: none; stroke: rgb(59, 2, 128); stroke-opacity: 1; stroke-width: 1px; opacity: 1;"/></g><g class="points"/><g class="text"/></g><g class="trace scatter tracee3836b" style="stroke-miterlimit: 2;"><g class="fills"/><g class="errorbars"/><g class="lines"><path class="js-line" d="M24.09,212.46L239.92,212.46" style="vector-effect: non-scaling-stroke; fill: none; stroke: rgb(0, 0, 0); stroke-opacity: 0; stroke-width: 1px; opacity: 1;"/></g><g class="points"/><g class="text"/></g><g class="trace scatter trace88f090" style="stroke-miterlimit: 2; opacity: 1;"><g class="fills"/><g class="errorbars"/><g class="lines"><path class="js-line" d="M98.77,212.46L98.77,193.12" style="vector-effect: non-scaling-stroke; fill: none; stroke: rgb(221, 64, 64); stroke-opacity: 1; stroke-width: 1px; opacity: 1; stroke-dasharray: 3px, 3px;"/></g><g class="points"/><g class="text"/></g><g class="trace scatter tracede5f54" style="stroke-miterlimit: 2; opacity: 1;"><g class="fills"/><g class="errorbars"/><g class="lines"><path class="js-line" d="M135.06,212.46L135.06,204.68" style="vector-effect: non-scaling-stroke; fill: none; stroke: rgb(221, 64, 64); stroke-opacity: 1; stroke-width: 1px; opacity: 1; stroke-dasharray: 3px, 3px;"/></g><g class="points"/><g class="text"/></g><g class="trace scatter tracef7e1ed" style="stroke-miterlimit: 2; opacity: 1;"><g class="fills"/><g class="errorbars"/><g class="lines"><path class="js-line" d="M178.53,212.46L178.53,192.82" style="vector-effect: non-scaling-stroke; fill: none; stroke: rgb(221, 64, 64); stroke-opacity: 1; stroke-width: 1px; opacity: 1; stroke-dasharray: 3px, 3px;"/></g><g class="points"/><g class="text"/></g><g class="trace scatter trace382643" style="stroke-miterlimit: 2;"><g class="fills"><g><path class="js-fill" d="M46.46,232.8L317.71,232.8L317.71,232.8L296.49,232.6L296.23,232.59L291.19,231.87L290.93,231.77L284.83,226.73L284.56,226.49L281.38,224.72L281.12,224.63L277.14,222.74L276.87,222.55L268.92,215.18L268.65,214.91L266.27,213.28L266,213.2L263.88,213.53L263.62,213.72L257.25,225.84L256.99,226.35L254.34,230.07L254.07,230.32L251.15,232L250.89,232.09L239.22,232.8L238.96,232.8L225.97,232.55L225.7,232.54L218.28,230.95L218.01,230.86L212.71,229.97L212.44,229.97L204.49,232.02L204.22,232.1L181.95,232.8L181.69,232.8L160.21,232.72L159.94,232.7L149.6,231.42L149.34,231.36L140.85,232.05L140.59,232.09L133.43,232.55L133.16,232.55L123.09,230.35L122.82,230.29L113.81,232L113.54,232.05L46.46,232.8Z" style="fill: rgb(221, 64, 64); fill-opacity: 0.2; stroke-width: 0;"/></g></g><g class="errorbars"/><g class="lines"><path class="js-line" d="M46.46,232.8L113.54,232.05L113.81,232L122.82,230.29L123.09,230.35L133.16,232.55L133.43,232.55L140.59,232.09L140.85,232.05L149.34,231.36L149.6,231.42L159.94,232.7L160.21,232.72L181.69,232.8L181.95,232.8L204.22,232.1L204.49,232.02L212.44,229.97L212.71,229.97L218.01,230.86L218.28,230.95L225.7,232.54L225.97,232.55L238.96,232.8L239.22,232.8L250.89,232.09L251.15,232L254.07,230.32L254.34,230.07L256.99,226.35L257.25,225.84L263.62,213.72L263.88,213.53L266,213.2L266.27,213.28L268.65,214.91L268.92,215.18L276.87,222.55L277.14,222.74L281.12,224.63L281.38,224.72L284.56,226.49L284.83,226.73L290.93,231.77L291.19,231.87L296.23,232.59L296.49,232.6L317.71,232.8" style="vector-effect: non-scaling-stroke; fill: none; stroke: rgb(59, 2, 128); stroke-opacity: 1; stroke-width: 1px; opacity: 1;"/></g><g class="points"/><g class="text"/></g><g class="trace scatter traced007f8" style="stroke-miterlimit: 2;"><g class="fills"/><g class="errorbars"/><g class="lines"><path class="js-line" d="M46.46,232.8L317.71,232.8" style="vector-effect: non-scaling-stroke; fill: none; stroke: rgb(0, 0, 0); stroke-opacity: 0; stroke-width: 1px; opacity: 1;"/></g><g class="points"/><g class="text"/></g><g class="trace scatter trace9a672f" style="stroke-miterlimit: 2; opacity: 1;"><g class="fills"/><g class="errorbars"/><g class="lines"><path class="js-line" d="M256.46,232.8L256.46,227.29" style="vector-effect: non-scaling-stroke; fill: none; stroke: rgb(221, 64, 64); stroke-opacity: 1; stroke-width: 1px; opacity: 1; stroke-dasharray: 3px, 3px;"/></g><g class="points"/><g class="text"/></g><g class="trace scatter trace6a0ad9" style="stroke-miterlimit: 2; opacity: 1;"><g class="fills"/><g class="errorbars"/><g class="lines"><path class="js-line" d="M265.47,232.8L265.47,213.12" style="vector-effect: non-scaling-stroke; fill: none; stroke: rgb(221, 64, 64); stroke-opacity: 1; stroke-width: 1px; opacity: 1; stroke-dasharray: 3px, 3px;"/></g><g class="points"/><g class="text"/></g><g class="trace scatter trace702193" style="stroke-miterlimit: 2; opacity: 1;"><g class="fills"/><g class="errorbars"/><g class="lines"><path class="js-line" d="M273.43,232.8L273.43,219.9" style="vector-effect: non-scaling-stroke; fill: none; stroke: rgb(221, 64, 64); stroke-opacity: 1; stroke-width: 1px; opacity: 1; stroke-dasharray: 3px, 3px;"/></g><g class="points"/><g class="text"/></g><g class="trace scatter tracec450e1" style="stroke-miterlimit: 2;"><g class="fills"><g><path class="js-fill" d="M45.25,252.49L370.22,252.49L370.22,252.47L344.14,252.12L343.51,252.09L309.8,249.67L309.17,249.62L292,248.62L291.36,248.61L254.48,250.99L253.84,251.04L234.76,252.08L234.13,252.1L208.05,252L207.42,251.98L187.7,250.54L187.07,250.47L160.36,247.18L159.72,247.13L145.73,246.61L145.09,246.62L117.11,249.46L116.48,249.54L94.22,251.7L93.58,251.74L45.25,252.47Z" style="fill: rgb(221, 64, 64); fill-opacity: 0.2; stroke-width: 0;"/></g></g><g class="errorbars"/><g class="lines"><path class="js-line" d="M45.25,252.47L93.58,251.74L94.22,251.7L116.48,249.54L117.11,249.46L145.09,246.62L145.73,246.61L159.72,247.13L160.36,247.18L187.07,250.47L187.7,250.54L207.42,251.98L208.05,252L234.13,252.1L234.76,252.08L253.84,251.04L254.48,250.99L291.36,248.61L292,248.62L309.17,249.62L309.8,249.67L343.51,252.09L344.14,252.12L370.22,252.47" style="vector-effect: non-scaling-stroke; fill: none; stroke: rgb(59, 2, 128); stroke-opacity: 1; stroke-width: 1px; opacity: 1;"/></g><g class="points"/><g class="text"/></g><g class="trace scatter trace7bc21c" style="stroke-miterlimit: 2;"><g class="fills"/><g class="errorbars"/><g class="lines"><path class="js-line" d="M45.25,252.49L370.22,252.49" style="vector-effect: non-scaling-stroke; fill: none; stroke: rgb(0, 0, 0); stroke-opacity: 0; stroke-width: 1px; opacity: 1;"/></g><g class="points"/><g class="text"/></g><g class="trace scatter tracedb406d" style="stroke-miterlimit: 2; opacity: 1;"><g class="fills"/><g class="errorbars"/><g class="lines"><path class="js-line" d="M141.28,252.49L141.28,246.77" style="vector-effect: non-scaling-stroke; fill: none; stroke: rgb(221, 64, 64); stroke-opacity: 1; stroke-width: 1px; opacity: 1; stroke-dasharray: 3px, 3px;"/></g><g class="points"/><g class="text"/></g><g class="trace scatter tracea799ce" style="stroke-miterlimit: 2; opacity: 1;"><g class="fills"/><g class="errorbars"/><g class="lines"><path class="js-line" d="M171.8,252.49L171.8,248.52" style="vector-effect: non-scaling-stroke; fill: none; stroke: rgb(221, 64, 64); stroke-opacity: 1; stroke-width: 1px; opacity: 1; stroke-dasharray: 3px, 3px;"/></g><g class="points"/><g class="text"/></g><g class="trace scatter traceaa9c4c" style="stroke-miterlimit: 2; opacity: 1;"><g class="fills"/><g class="errorbars"/><g class="lines"><path class="js-line" d="M279.91,252.49L279.91,248.87" style="vector-effect: non-scaling-stroke; fill: none; stroke: rgb(221, 64, 64); stroke-opacity: 1; stroke-width: 1px; opacity: 1; stroke-dasharray: 3px, 3px;"/></g><g class="points"/><g class="text"/></g><g class="trace scatter trace241232" style="stroke-miterlimit: 2;"><g class="fills"><g><path class="js-fill" d="M0,0Z" style="stroke-width: 0; fill: rgb(0, 200, 229); fill-opacity: 0.2;"/></g></g><g class="errorbars"/><g class="lines"/><g class="points"/><g class="text"/></g><g class="trace scatter tracea23baa" style="stroke-miterlimit: 2;"><g class="fills"/><g class="errorbars"/><g class="lines"/><g class="points"/><g class="text"/></g><g class="trace scatter trace18e6db" style="stroke-miterlimit: 2;"><g class="fills"><g><path class="js-fill" d="M0,0Z" style="stroke-width: 0; fill: rgb(59, 2, 128); fill-opacity: 0.2;"/></g></g><g class="errorbars"/><g class="lines"/><g class="points"/><g class="text"/></g><g class="trace scatter tracef5f191" style="stroke-miterlimit: 2;"><g class="fills"/><g class="errorbars"/><g class="lines"/><g class="points"/><g class="text"/></g><g class="trace scatter trace26e87c" style="stroke-miterlimit: 2;"><g class="fills"><g><path class="js-fill" d="M0,0Z" style="stroke-width: 0; fill: rgb(221, 64, 64); fill-opacity: 0.2;"/></g></g><g class="errorbars"/><g class="lines"/><g class="points"/><g class="text"/></g><g class="trace scatter trace48a70a" style="stroke-miterlimit: 2;"><g class="fills"/><g class="errorbars"/><g class="lines"/><g class="points"/><g class="text"/></g><g class="trace scatter trace7dcfcd" style="stroke-miterlimit: 2; opacity: 1;"><g class="fills"/><g class="errorbars"/><g class="lines"/><g class="points"/><g class="text"/></g></g></g><g class="overplot"/><path class="xlines-above crisp" style="fill: none; stroke-width: 1px; stroke: rgb(102, 102, 102); stroke-opacity: 1;" d="M98,372.5H621M98,99.5H621"/><path class="ylines-above crisp" style="fill: none; stroke-width: 1px; stroke: rgb(102, 102, 102); stroke-opacity: 1;" d="M98.5,100V372M620.5,100V372"/><g class="overlines-above"/><g class="xaxislayer-above"><g class="xtick"><text text-anchor="middle" x="0" y="387.4" transform="translate(132.07,0)" style="font-family: 'Open Sans', verdana, arial, sans-serif; font-size: 12px; fill: rgb(42, 63, 95); fill-opacity: 1; white-space: pre; opacity: 1;">−124</text></g><g class="xtick"><text text-anchor="middle" x="0" y="387.4" style="font-family: 'Open Sans', verdana, arial, sans-serif; font-size: 12px; fill: rgb(42, 63, 95); fill-opacity: 1; white-space: pre; opacity: 1;" transform="translate(229.78,0)">−122</text></g><g class="xtick"><text text-anchor="middle" x="0" y="387.4" style="font-family: 'Open Sans', verdana, arial, sans-serif; font-size: 12px; fill: rgb(42, 63, 95); fill-opacity: 1; white-space: pre; opacity: 1;" transform="translate(327.5,0)">−120</text></g><g class="xtick"><text text-anchor="middle" x="0" y="387.4" style="font-family: 'Open Sans', verdana, arial, sans-serif; font-size: 12px; fill: rgb(42, 63, 95); fill-opacity: 1; white-space: pre; opacity: 1;" transform="translate(425.21,0)">−118</text></g><g class="xtick"><text text-anchor="middle" x="0" y="387.4" style="font-family: 'Open Sans', verdana, arial, sans-serif; font-size: 12px; fill: rgb(42, 63, 95); fill-opacity: 1; white-space: pre; opacity: 1;" transform="translate(522.9300000000001,0)">−116</text></g></g><g class="yaxislayer-above"><g class="ytick"><text text-anchor="end" x="95.6" y="4.199999999999999" transform="translate(0,352.49)" style="font-family: 'Open Sans', verdana, arial, sans-serif; font-size: 12px; fill: rgb(42, 63, 95); fill-opacity: 1; white-space: pre; opacity: 1;">May 2022</text></g><g class="ytick"><text text-anchor="end" x="95.6" y="4.199999999999999" style="font-family: 'Open Sans', verdana, arial, sans-serif; font-size: 12px; fill: rgb(42, 63, 95); fill-opacity: 1; white-space: pre; opacity: 1;" transform="translate(0,312.46000000000004)">Mar 2022</text></g><g class="ytick"><text text-anchor="end" x="95.6" y="4.199999999999999" style="font-family: 'Open Sans', verdana, arial, sans-serif; font-size: 12px; fill: rgb(42, 63, 95); fill-opacity: 1; white-space: pre; opacity: 1;" transform="translate(0,273.74)">Jan 2022</text></g><g class="ytick"><text text-anchor="end" x="95.6" y="4.199999999999999" style="font-family: 'Open Sans', verdana, arial, sans-serif; font-size: 12px; fill: rgb(42, 63, 95); fill-opacity: 1; white-space: pre; opacity: 1;" transform="translate(0,233.7)">Nov 2021</text></g><g class="ytick"><text text-anchor="end" x="95.6" y="4.199999999999999" style="font-family: 'Open Sans', verdana, arial, sans-serif; font-size: 12px; fill: rgb(42, 63, 95); fill-opacity: 1; white-space: pre; opacity: 1;" transform="translate(0,193.67000000000002)">Sep 2021</text></g><g class="ytick"><text text-anchor="end" x="95.6" y="4.199999999999999" style="font-family: 'Open Sans', verdana, arial, sans-serif; font-size: 12px; fill: rgb(42, 63, 95); fill-opacity: 1; white-space: pre; opacity: 1;" transform="translate(0,152.98)">Jul 2021</text></g><g class="ytick"><text text-anchor="end" x="95.6" y="4.199999999999999" style="font-family: 'Open Sans', verdana, arial, sans-serif; font-size: 12px; fill: rgb(42, 63, 95); fill-opacity: 1; white-space: pre; opacity: 1;" transform="translate(0,112.94)">May 2021</text></g></g><g class="overaxes-above"/></g></g><g class="polarlayer"/><g class="smithlayer"/><g class="ternarylayer"/><g class="geolayer"/><g class="funnelarealayer"/><g class="pielayer"/><g class="iciclelayer"/><g class="treemaplayer"/><g class="sunburstlayer"/><g class="glimages"/><defs id="topdefs-0cda9d"><g class="clips"/><clipPath id="legend0cda9d"><rect width="366" height="48" x="0" y="0"/></clipPath></defs><g class="layer-above"><g class="imagelayer"/><g class="shapelayer"/></g><g class="infolayer"><g class="legend" pointer-events="all" transform="translate(99,440)"><rect class="bg" shape-rendering="crispEdges" style="stroke: rgb(68, 68, 68); stroke-opacity: 1; fill: rgb(255, 255, 255); fill-opacity: 1; stroke-width: 0px;" width="366" height="48" x="0" y="0"/><g class="scrollbox" transform="" clip-path="url(#legend0cda9d)"><g class="groups"><g class="traces" style="opacity: 1;" transform="translate(0,14.5)"><text class="legendtext" text-anchor="start" x="40" y="4.680000000000001" style="font-family: 'Open Sans', verdana, arial, sans-serif; font-size: 12px; fill: rgb(42, 63, 95); fill-opacity: 1; white-space: pre;">Reference period</text><g class="layers"><g class="legendfill"><path class="js-fill" d="M5,-2h30v6h-30z" style="stroke-width: 0; fill: rgb(0, 200, 229); fill-opacity: 0.2;"/></g><g class="legendlines"><path class="js-line" d="M5,-2h30" style="fill: none; stroke: rgb(0, 200, 229); stroke-opacity: 1; stroke-width: 1px;"/></g><g class="legendsymbols"><g class="legendpoints"/></g></g><rect class="legendtoggle" x="0" y="-9.5" width="144.359375" height="19" style="fill: rgb(0, 0, 0); fill-opacity: 0;"/></g><g class="traces" style="opacity: 1;" transform="translate(228.59375,14.5)"><text class="legendtext" text-anchor="start" x="40" y="4.680000000000001" style="font-family: 'Open Sans', verdana, arial, sans-serif; font-size: 12px; fill: rgb(42, 63, 95); fill-opacity: 1; white-space: pre;">Analysis period</text><g class="layers"><g class="legendfill"><path class="js-fill" d="M5,-2h30v6h-30z" style="stroke-width: 0; fill: rgb(59, 2, 128); fill-opacity: 0.2;"/></g><g class="legendlines"><path class="js-line" d="M5,-2h30" style="fill: none; stroke: rgb(59, 2, 128); stroke-opacity: 1; stroke-width: 1px;"/></g><g class="legendsymbols"><g class="legendpoints"/></g></g><rect class="legendtoggle" x="0" y="-9.5" width="134.53125" height="19" style="fill: rgb(0, 0, 0); fill-opacity: 0;"/></g><g class="traces" style="opacity: 1;" transform="translate(0,33.5)"><text class="legendtext" text-anchor="start" x="40" y="4.680000000000001" style="font-family: 'Open Sans', verdana, arial, sans-serif; font-size: 12px; fill: rgb(42, 63, 95); fill-opacity: 1; white-space: pre;">Period with probable data drift</text><g class="layers"><g class="legendfill"><path class="js-fill" d="M5,-2h30v6h-30z" style="stroke-width: 0; fill: rgb(221, 64, 64); fill-opacity: 0.2;"/></g><g class="legendlines"><path class="js-line" d="M5,-2h30" style="fill: none; stroke: rgb(0, 0, 0); stroke-opacity: 0; stroke-width: 1px;"/></g><g class="legendsymbols"><g class="legendpoints"/></g></g><rect class="legendtoggle" x="0" y="-9.5" width="226.09375" height="19" style="fill: rgb(0, 0, 0); fill-opacity: 0;"/></g><g class="traces" style="opacity: 1;" transform="translate(228.59375,33.5)"><text class="legendtext" text-anchor="start" x="40" y="4.680000000000001" style="font-family: 'Open Sans', verdana, arial, sans-serif; font-size: 12px; fill: rgb(42, 63, 95); fill-opacity: 1; white-space: pre;">Quartiles</text><g class="layers" style="opacity: 1;"><g class="legendfill"/><g class="legendlines"><path class="js-line" d="M5,0h30" style="fill: none; stroke: rgb(102, 102, 102); stroke-opacity: 1; stroke-dasharray: 3px, 3px; stroke-width: 1px;"/></g><g class="legendsymbols"><g class="legendpoints"/></g></g><rect class="legendtoggle" x="0" y="-9.5" width="96.734375" height="19" style="fill: rgb(0, 0, 0); fill-opacity: 0;"/></g></g></g><rect class="scrollbar" rx="20" ry="3" width="0" height="0" style="fill: rgb(128, 139, 164); fill-opacity: 1;" x="0" y="0"/></g><g class="g-gtitle"><text class="gtitle" x="35" y="50" text-anchor="start" dy="0em" style="font-family: 'Open Sans', verdana, arial, sans-serif; font-size: 17px; fill: rgb(42, 63, 95); opacity: 1; font-weight: normal; white-space: pre;">Longitude: distribution over time</text></g><g class="g-xtitle"><text class="xtitle" x="359.5" y="414.6125" text-anchor="middle" style="font-family: 'Open Sans', verdana, arial, sans-serif; font-size: 14px; fill: rgb(42, 63, 95); opacity: 1; font-weight: normal; white-space: pre;">Longitude</text></g><g class="g-ytitle" transform="translate(2.6748046875,0)"><text class="ytitle" transform="rotate(-90,11.731250000000003,236)" x="11.731250000000003" y="236" text-anchor="middle" style="font-family: 'Open Sans', verdana, arial, sans-serif; font-size: 14px; fill: rgb(42, 63, 95); opacity: 1; font-weight: normal; white-space: pre;">Time</text></g></g></svg>
