<?xml version="1.0" encoding="utf-8" standalone="no"?>
<!DOCTYPE svg PUBLIC "-//W3C//DTD SVG 1.1//EN"
  "http://www.w3.org/Graphics/SVG/1.1/DTD/svg11.dtd">
<svg xmlns:xlink="http://www.w3.org/1999/xlink" width="720pt" height="360pt" viewBox="0 0 720 360" xmlns="http://www.w3.org/2000/svg" version="1.1">
 <metadata>
  <rdf:RDF xmlns:dc="http://purl.org/dc/elements/1.1/" xmlns:cc="http://creativecommons.org/ns#" xmlns:rdf="http://www.w3.org/1999/02/22-rdf-syntax-ns#">
   <cc:Work>
    <dc:type rdf:resource="http://purl.org/dc/dcmitype/StillImage"/>
    <dc:date>2023-03-27T19:42:23.418245</dc:date>
    <dc:format>image/svg+xml</dc:format>
    <dc:creator>
     <cc:Agent>
      <dc:title>Matplotlib v3.6.2, https://matplotlib.org/</dc:title>
     </cc:Agent>
    </dc:creator>
   </cc:Work>
  </rdf:RDF>
 </metadata>
 <defs>
  <style type="text/css">*{stroke-linejoin: round; stroke-linecap: butt}</style>
 </defs>
 <g id="figure_1">
  <g id="patch_1">
   <path d="M 0 360
L 720 360
L 720 0
L 0 0
z
" style="fill: #ffffff"/>
  </g>
  <g id="axes_1">
   <g id="patch_2">
    <path d="M 39.94 332.12
L 357.75 332.12
L 357.75 28.32
L 39.94 28.32
z
" style="fill: #ffffff"/>
   </g>
   <g id="matplotlib.axis_1">
    <g id="xtick_1">
     <g id="line2d_1">
      <defs>
       <path id="m756eb45d79" d="M 0 0
L 0 3.5
" style="stroke: #000000; stroke-width: 0.8"/>
      </defs>
      <g>
       <use xlink:href="#m756eb45d79" x="78.462424" y="332.12" style="stroke: #000000; stroke-width: 0.8"/>
      </g>
     </g>
     <g id="text_1">
      <!-- −4 -->
      <g transform="translate(71.09133 346.718437) scale(0.1 -0.1)">
       <defs>
        <path id="DejaVuSans-2212" d="M 678 2272
L 4684 2272
L 4684 1741
L 678 1741
L 678 2272
z
" transform="scale(0.015625)"/>
        <path id="DejaVuSans-34" d="M 2419 4116
L 825 1625
L 2419 1625
L 2419 4116
z
M 2253 4666
L 3047 4666
L 3047 1625
L 3713 1625
L 3713 1100
L 3047 1100
L 3047 0
L 2419 0
L 2419 1100
L 313 1100
L 313 1709
L 2253 4666
z
" transform="scale(0.015625)"/>
       </defs>
       <use xlink:href="#DejaVuSans-2212"/>
       <use xlink:href="#DejaVuSans-34" x="83.789062"/>
      </g>
     </g>
    </g>
    <g id="xtick_2">
     <g id="line2d_2">
      <g>
       <use xlink:href="#m756eb45d79" x="126.615455" y="332.12" style="stroke: #000000; stroke-width: 0.8"/>
      </g>
     </g>
     <g id="text_2">
      <!-- −2 -->
      <g transform="translate(119.244361 346.718437) scale(0.1 -0.1)">
       <defs>
        <path id="DejaVuSans-32" d="M 1228 531
L 3431 531
L 3431 0
L 469 0
L 469 531
Q 828 903 1448 1529
Q 2069 2156 2228 2338
Q 2531 2678 2651 2914
Q 2772 3150 2772 3378
Q 2772 3750 2511 3984
Q 2250 4219 1831 4219
Q 1534 4219 1204 4116
Q 875 4013 500 3803
L 500 4441
Q 881 4594 1212 4672
Q 1544 4750 1819 4750
Q 2544 4750 2975 4387
Q 3406 4025 3406 3419
Q 3406 3131 3298 2873
Q 3191 2616 2906 2266
Q 2828 2175 2409 1742
Q 1991 1309 1228 531
z
" transform="scale(0.015625)"/>
       </defs>
       <use xlink:href="#DejaVuSans-2212"/>
       <use xlink:href="#DejaVuSans-32" x="83.789062"/>
      </g>
     </g>
    </g>
    <g id="xtick_3">
     <g id="line2d_3">
      <g>
       <use xlink:href="#m756eb45d79" x="174.768485" y="332.12" style="stroke: #000000; stroke-width: 0.8"/>
      </g>
     </g>
     <g id="text_3">
      <!-- 0 -->
      <g transform="translate(171.587235 346.718437) scale(0.1 -0.1)">
       <defs>
        <path id="DejaVuSans-30" d="M 2034 4250
Q 1547 4250 1301 3770
Q 1056 3291 1056 2328
Q 1056 1369 1301 889
Q 1547 409 2034 409
Q 2525 409 2770 889
Q 3016 1369 3016 2328
Q 3016 3291 2770 3770
Q 2525 4250 2034 4250
z
M 2034 4750
Q 2819 4750 3233 4129
Q 3647 3509 3647 2328
Q 3647 1150 3233 529
Q 2819 -91 2034 -91
Q 1250 -91 836 529
Q 422 1150 422 2328
Q 422 3509 836 4129
Q 1250 4750 2034 4750
z
" transform="scale(0.015625)"/>
       </defs>
       <use xlink:href="#DejaVuSans-30"/>
      </g>
     </g>
    </g>
    <g id="xtick_4">
     <g id="line2d_4">
      <g>
       <use xlink:href="#m756eb45d79" x="222.921515" y="332.12" style="stroke: #000000; stroke-width: 0.8"/>
      </g>
     </g>
     <g id="text_4">
      <!-- 2 -->
      <g transform="translate(219.740265 346.718437) scale(0.1 -0.1)">
       <use xlink:href="#DejaVuSans-32"/>
      </g>
     </g>
    </g>
    <g id="xtick_5">
     <g id="line2d_5">
      <g>
       <use xlink:href="#m756eb45d79" x="271.074545" y="332.12" style="stroke: #000000; stroke-width: 0.8"/>
      </g>
     </g>
     <g id="text_5">
      <!-- 4 -->
      <g transform="translate(267.893295 346.718437) scale(0.1 -0.1)">
       <use xlink:href="#DejaVuSans-34"/>
      </g>
     </g>
    </g>
    <g id="xtick_6">
     <g id="line2d_6">
      <g>
       <use xlink:href="#m756eb45d79" x="319.227576" y="332.12" style="stroke: #000000; stroke-width: 0.8"/>
      </g>
     </g>
     <g id="text_6">
      <!-- 6 -->
      <g transform="translate(316.046326 346.718437) scale(0.1 -0.1)">
       <defs>
        <path id="DejaVuSans-36" d="M 2113 2584
Q 1688 2584 1439 2293
Q 1191 2003 1191 1497
Q 1191 994 1439 701
Q 1688 409 2113 409
Q 2538 409 2786 701
Q 3034 994 3034 1497
Q 3034 2003 2786 2293
Q 2538 2584 2113 2584
z
M 3366 4563
L 3366 3988
Q 3128 4100 2886 4159
Q 2644 4219 2406 4219
Q 1781 4219 1451 3797
Q 1122 3375 1075 2522
Q 1259 2794 1537 2939
Q 1816 3084 2150 3084
Q 2853 3084 3261 2657
Q 3669 2231 3669 1497
Q 3669 778 3244 343
Q 2819 -91 2113 -91
Q 1303 -91 875 529
Q 447 1150 447 2328
Q 447 3434 972 4092
Q 1497 4750 2381 4750
Q 2619 4750 2861 4703
Q 3103 4656 3366 4563
z
" transform="scale(0.015625)"/>
       </defs>
       <use xlink:href="#DejaVuSans-36"/>
      </g>
     </g>
    </g>
   </g>
   <g id="matplotlib.axis_2">
    <g id="ytick_1">
     <g id="line2d_7">
      <defs>
       <path id="m1309819175" d="M 0 0
L -3.5 0
" style="stroke: #000000; stroke-width: 0.8"/>
      </defs>
      <g>
       <use xlink:href="#m1309819175" x="39.94" y="318.310909" style="stroke: #000000; stroke-width: 0.8"/>
      </g>
     </g>
     <g id="text_7">
      <!-- 0.00 -->
      <g transform="translate(10.674375 322.110128) scale(0.1 -0.1)">
       <defs>
        <path id="DejaVuSans-2e" d="M 684 794
L 1344 794
L 1344 0
L 684 0
L 684 794
z
" transform="scale(0.015625)"/>
       </defs>
       <use xlink:href="#DejaVuSans-30"/>
       <use xlink:href="#DejaVuSans-2e" x="63.623047"/>
       <use xlink:href="#DejaVuSans-30" x="95.410156"/>
       <use xlink:href="#DejaVuSans-30" x="159.033203"/>
      </g>
     </g>
    </g>
    <g id="ytick_2">
     <g id="line2d_8">
      <g>
       <use xlink:href="#m1309819175" x="39.94" y="283.69665" style="stroke: #000000; stroke-width: 0.8"/>
      </g>
     </g>
     <g id="text_8">
      <!-- 0.05 -->
      <g transform="translate(10.674375 287.495869) scale(0.1 -0.1)">
       <defs>
        <path id="DejaVuSans-35" d="M 691 4666
L 3169 4666
L 3169 4134
L 1269 4134
L 1269 2991
Q 1406 3038 1543 3061
Q 1681 3084 1819 3084
Q 2600 3084 3056 2656
Q 3513 2228 3513 1497
Q 3513 744 3044 326
Q 2575 -91 1722 -91
Q 1428 -91 1123 -41
Q 819 9 494 109
L 494 744
Q 775 591 1075 516
Q 1375 441 1709 441
Q 2250 441 2565 725
Q 2881 1009 2881 1497
Q 2881 1984 2565 2268
Q 2250 2553 1709 2553
Q 1456 2553 1204 2497
Q 953 2441 691 2322
L 691 4666
z
" transform="scale(0.015625)"/>
       </defs>
       <use xlink:href="#DejaVuSans-30"/>
       <use xlink:href="#DejaVuSans-2e" x="63.623047"/>
       <use xlink:href="#DejaVuSans-30" x="95.410156"/>
       <use xlink:href="#DejaVuSans-35" x="159.033203"/>
      </g>
     </g>
    </g>
    <g id="ytick_3">
     <g id="line2d_9">
      <g>
       <use xlink:href="#m1309819175" x="39.94" y="249.082391" style="stroke: #000000; stroke-width: 0.8"/>
      </g>
     </g>
     <g id="text_9">
      <!-- 0.10 -->
      <g transform="translate(10.674375 252.881609) scale(0.1 -0.1)">
       <defs>
        <path id="DejaVuSans-31" d="M 794 531
L 1825 531
L 1825 4091
L 703 3866
L 703 4441
L 1819 4666
L 2450 4666
L 2450 531
L 3481 531
L 3481 0
L 794 0
L 794 531
z
" transform="scale(0.015625)"/>
       </defs>
       <use xlink:href="#DejaVuSans-30"/>
       <use xlink:href="#DejaVuSans-2e" x="63.623047"/>
       <use xlink:href="#DejaVuSans-31" x="95.410156"/>
       <use xlink:href="#DejaVuSans-30" x="159.033203"/>
      </g>
     </g>
    </g>
    <g id="ytick_4">
     <g id="line2d_10">
      <g>
       <use xlink:href="#m1309819175" x="39.94" y="214.468131" style="stroke: #000000; stroke-width: 0.8"/>
      </g>
     </g>
     <g id="text_10">
      <!-- 0.15 -->
      <g transform="translate(10.674375 218.26735) scale(0.1 -0.1)">
       <use xlink:href="#DejaVuSans-30"/>
       <use xlink:href="#DejaVuSans-2e" x="63.623047"/>
       <use xlink:href="#DejaVuSans-31" x="95.410156"/>
       <use xlink:href="#DejaVuSans-35" x="159.033203"/>
      </g>
     </g>
    </g>
    <g id="ytick_5">
     <g id="line2d_11">
      <g>
       <use xlink:href="#m1309819175" x="39.94" y="179.853872" style="stroke: #000000; stroke-width: 0.8"/>
      </g>
     </g>
     <g id="text_11">
      <!-- 0.20 -->
      <g transform="translate(10.674375 183.653091) scale(0.1 -0.1)">
       <use xlink:href="#DejaVuSans-30"/>
       <use xlink:href="#DejaVuSans-2e" x="63.623047"/>
       <use xlink:href="#DejaVuSans-32" x="95.410156"/>
       <use xlink:href="#DejaVuSans-30" x="159.033203"/>
      </g>
     </g>
    </g>
    <g id="ytick_6">
     <g id="line2d_12">
      <g>
       <use xlink:href="#m1309819175" x="39.94" y="145.239613" style="stroke: #000000; stroke-width: 0.8"/>
      </g>
     </g>
     <g id="text_12">
      <!-- 0.25 -->
      <g transform="translate(10.674375 149.038831) scale(0.1 -0.1)">
       <use xlink:href="#DejaVuSans-30"/>
       <use xlink:href="#DejaVuSans-2e" x="63.623047"/>
       <use xlink:href="#DejaVuSans-32" x="95.410156"/>
       <use xlink:href="#DejaVuSans-35" x="159.033203"/>
      </g>
     </g>
    </g>
    <g id="ytick_7">
     <g id="line2d_13">
      <g>
       <use xlink:href="#m1309819175" x="39.94" y="110.625353" style="stroke: #000000; stroke-width: 0.8"/>
      </g>
     </g>
     <g id="text_13">
      <!-- 0.30 -->
      <g transform="translate(10.674375 114.424572) scale(0.1 -0.1)">
       <defs>
        <path id="DejaVuSans-33" d="M 2597 2516
Q 3050 2419 3304 2112
Q 3559 1806 3559 1356
Q 3559 666 3084 287
Q 2609 -91 1734 -91
Q 1441 -91 1130 -33
Q 819 25 488 141
L 488 750
Q 750 597 1062 519
Q 1375 441 1716 441
Q 2309 441 2620 675
Q 2931 909 2931 1356
Q 2931 1769 2642 2001
Q 2353 2234 1838 2234
L 1294 2234
L 1294 2753
L 1863 2753
Q 2328 2753 2575 2939
Q 2822 3125 2822 3475
Q 2822 3834 2567 4026
Q 2313 4219 1838 4219
Q 1578 4219 1281 4162
Q 984 4106 628 3988
L 628 4550
Q 988 4650 1302 4700
Q 1616 4750 1894 4750
Q 2613 4750 3031 4423
Q 3450 4097 3450 3541
Q 3450 3153 3228 2886
Q 3006 2619 2597 2516
z
" transform="scale(0.015625)"/>
       </defs>
       <use xlink:href="#DejaVuSans-30"/>
       <use xlink:href="#DejaVuSans-2e" x="63.623047"/>
       <use xlink:href="#DejaVuSans-33" x="95.410156"/>
       <use xlink:href="#DejaVuSans-30" x="159.033203"/>
      </g>
     </g>
    </g>
    <g id="ytick_8">
     <g id="line2d_14">
      <g>
       <use xlink:href="#m1309819175" x="39.94" y="76.011094" style="stroke: #000000; stroke-width: 0.8"/>
      </g>
     </g>
     <g id="text_14">
      <!-- 0.35 -->
      <g transform="translate(10.674375 79.810313) scale(0.1 -0.1)">
       <use xlink:href="#DejaVuSans-30"/>
       <use xlink:href="#DejaVuSans-2e" x="63.623047"/>
       <use xlink:href="#DejaVuSans-33" x="95.410156"/>
       <use xlink:href="#DejaVuSans-35" x="159.033203"/>
      </g>
     </g>
    </g>
    <g id="ytick_9">
     <g id="line2d_15">
      <g>
       <use xlink:href="#m1309819175" x="39.94" y="41.396835" style="stroke: #000000; stroke-width: 0.8"/>
      </g>
     </g>
     <g id="text_15">
      <!-- 0.40 -->
      <g transform="translate(10.674375 45.196054) scale(0.1 -0.1)">
       <use xlink:href="#DejaVuSans-30"/>
       <use xlink:href="#DejaVuSans-2e" x="63.623047"/>
       <use xlink:href="#DejaVuSans-34" x="95.410156"/>
       <use xlink:href="#DejaVuSans-30" x="159.033203"/>
      </g>
     </g>
    </g>
   </g>
   <g id="line2d_16">
    <path d="M 54.385909 318.310909
L 127.691782 318.20023
L 135.088828 317.955017
L 139.972033 317.580241
L 143.728345 317.075322
L 146.820079 316.441392
L 149.507287 315.667065
L 151.905547 314.746479
L 154.101545 313.665522
L 156.153069 312.405887
L 158.089015 310.954615
L 159.938276 309.291021
L 161.758643 307.349727
L 163.550115 305.105677
L 165.312692 302.535397
L 167.075269 299.565569
L 168.837846 296.155708
L 170.629318 292.197543
L 172.449685 287.625035
L 174.298946 282.370388
L 176.205997 276.268073
L 178.170837 269.218576
L 180.222361 261.002435
L 182.360569 251.490702
L 184.614356 240.418779
L 187.012617 227.493665
L 189.642036 212.063736
L 192.618191 193.226357
L 196.374502 167.928001
L 205.678598 104.603344
L 208.336911 88.424223
L 210.532909 76.37379
L 212.43996 67.098845
L 214.115853 59.996409
L 215.618378 54.546897
L 216.976429 50.421685
L 218.190007 47.410985
L 219.288006 45.25631
L 220.270426 43.798288
L 221.137267 42.886421
L 221.917424 42.369147
L 222.639792 42.147985
L 223.333265 42.169463
L 224.026738 42.419915
L 224.749105 42.923608
L 225.529263 43.744314
L 226.396104 44.990128
L 227.349629 46.760859
L 228.418733 49.234928
L 229.603416 52.562873
L 230.903678 56.897698
L 232.348414 62.507811
L 233.966517 69.713299
L 235.786884 78.873353
L 237.867303 90.529445
L 240.323353 105.615833
L 243.443981 126.256414
L 255.926495 210.383129
L 258.758176 227.086777
L 261.300911 240.790072
L 263.670277 252.365097
L 265.895169 262.153207
L 268.033377 270.573885
L 270.084902 277.765486
L 272.078637 283.954744
L 274.014582 289.250424
L 275.892738 293.758857
L 277.741999 297.637266
L 279.591261 301.005409
L 281.411627 303.867966
L 283.231994 306.325728
L 285.081255 308.452529
L 286.959411 310.275307
L 288.895356 311.843454
L 290.889091 313.174034
L 292.998405 314.314927
L 295.252192 315.281252
L 297.737137 316.100763
L 300.511029 316.77609
L 303.718341 317.320618
L 307.561338 317.738637
L 312.473438 318.037333
L 319.494852 318.22229
L 332.439681 318.302034
L 343.304091 318.30988
L 343.304091 318.30988
" clip-path="url(#p207f1b263a)" style="fill: none; stroke: #734ca1; stroke-width: 2; stroke-linecap: square"/>
   </g>
   <g id="line2d_17">
    <path d="M 54.385909 318.30988
L 79.899936 318.193477
L 87.152508 317.943152
L 91.977924 317.56345
L 95.705341 317.053196
L 98.797075 316.409233
L 101.455388 315.633008
L 103.824754 314.714811
L 106.020752 313.625533
L 108.043381 312.376343
L 109.979327 310.918881
L 111.828588 309.248459
L 113.648954 307.299503
L 115.440426 305.046948
L 117.203004 302.467326
L 118.965581 299.487163
L 120.728158 296.065972
L 122.51963 292.095286
L 124.339996 287.509066
L 126.189258 282.239548
L 128.096308 276.121035
L 130.061148 269.054119
L 132.112673 260.819274
L 134.250881 251.287857
L 136.504668 240.195488
L 138.902929 227.249652
L 141.532347 211.799207
L 144.537397 192.753678
L 148.322604 167.231231
L 157.453331 105.06301
L 160.111644 88.842687
L 162.307642 76.748093
L 164.214693 67.427884
L 165.919481 60.166844
L 167.422005 54.691313
L 168.780057 50.541171
L 169.993634 47.507243
L 171.091633 45.330924
L 172.074053 43.853141
L 172.940895 42.923608
L 173.721052 42.39031
L 174.443419 42.154249
L 175.136892 42.161409
L 175.830365 42.397562
L 176.552733 42.886421
L 177.33289 43.691219
L 178.199731 44.919555
L 179.153257 46.671378
L 180.222361 49.124745
L 181.407044 52.430503
L 182.707306 56.742059
L 184.152041 62.327862
L 185.770145 69.508319
L 187.590511 78.643307
L 189.67093 90.27513
L 192.12698 105.339256
L 195.247609 125.961803
L 201.806708 171.303771
L 205.880861 198.474054
L 208.972595 217.630874
L 211.659803 232.926845
L 214.115853 245.661084
L 216.42743 256.496464
L 218.623427 265.740108
L 220.703846 273.563398
L 222.726476 280.324507
L 224.691316 286.130975
L 226.598367 291.090475
L 228.476523 295.368279
L 230.325784 299.037809
L 232.146151 302.169542
L 233.966517 304.869451
L 235.786884 307.181559
L 237.636145 309.177142
L 239.514301 310.882998
L 241.450246 312.346672
L 243.501771 313.617499
L 245.668874 314.695691
L 248.009345 315.608443
L 250.580974 316.369252
L 253.49934 316.995009
L 256.908915 317.491022
L 261.069753 317.862976
L 266.588642 318.119056
L 274.997002 318.263259
L 294.154193 318.309644
L 343.304091 318.310909
L 343.304091 318.310909
" clip-path="url(#p207f1b263a)" style="fill: none; stroke-dasharray: 7.4,3.2; stroke-dashoffset: 0; stroke: #00c8e5; stroke-width: 2"/>
   </g>
   <g id="patch_3">
    <path d="M 39.94 332.12
L 39.94 28.32
" style="fill: none; stroke: #000000; stroke-width: 0.8; stroke-linejoin: miter; stroke-linecap: square"/>
   </g>
   <g id="patch_4">
    <path d="M 357.75 332.12
L 357.75 28.32
" style="fill: none; stroke: #000000; stroke-width: 0.8; stroke-linejoin: miter; stroke-linecap: square"/>
   </g>
   <g id="patch_5">
    <path d="M 39.94 332.12
L 357.75 332.12
" style="fill: none; stroke: #000000; stroke-width: 0.8; stroke-linejoin: miter; stroke-linecap: square"/>
   </g>
   <g id="patch_6">
    <path d="M 39.94 28.32
L 357.75 28.32
" style="fill: none; stroke: #000000; stroke-width: 0.8; stroke-linejoin: miter; stroke-linecap: square"/>
   </g>
   <g id="text_16">
    <!-- PDFs -->
    <g transform="translate(179.0925 22.32) scale(0.16 -0.16)">
     <defs>
      <path id="DejaVuSans-50" d="M 1259 4147
L 1259 2394
L 2053 2394
Q 2494 2394 2734 2622
Q 2975 2850 2975 3272
Q 2975 3691 2734 3919
Q 2494 4147 2053 4147
L 1259 4147
z
M 628 4666
L 2053 4666
Q 2838 4666 3239 4311
Q 3641 3956 3641 3272
Q 3641 2581 3239 2228
Q 2838 1875 2053 1875
L 1259 1875
L 1259 0
L 628 0
L 628 4666
z
" transform="scale(0.015625)"/>
      <path id="DejaVuSans-44" d="M 1259 4147
L 1259 519
L 2022 519
Q 2988 519 3436 956
Q 3884 1394 3884 2338
Q 3884 3275 3436 3711
Q 2988 4147 2022 4147
L 1259 4147
z
M 628 4666
L 1925 4666
Q 3281 4666 3915 4102
Q 4550 3538 4550 2338
Q 4550 1131 3912 565
Q 3275 0 1925 0
L 628 0
L 628 4666
z
" transform="scale(0.015625)"/>
      <path id="DejaVuSans-46" d="M 628 4666
L 3309 4666
L 3309 4134
L 1259 4134
L 1259 2759
L 3109 2759
L 3109 2228
L 1259 2228
L 1259 0
L 628 0
L 628 4666
z
" transform="scale(0.015625)"/>
      <path id="DejaVuSans-73" d="M 2834 3397
L 2834 2853
Q 2591 2978 2328 3040
Q 2066 3103 1784 3103
Q 1356 3103 1142 2972
Q 928 2841 928 2578
Q 928 2378 1081 2264
Q 1234 2150 1697 2047
L 1894 2003
Q 2506 1872 2764 1633
Q 3022 1394 3022 966
Q 3022 478 2636 193
Q 2250 -91 1575 -91
Q 1294 -91 989 -36
Q 684 19 347 128
L 347 722
Q 666 556 975 473
Q 1284 391 1588 391
Q 1994 391 2212 530
Q 2431 669 2431 922
Q 2431 1156 2273 1281
Q 2116 1406 1581 1522
L 1381 1569
Q 847 1681 609 1914
Q 372 2147 372 2553
Q 372 3047 722 3315
Q 1072 3584 1716 3584
Q 2034 3584 2315 3537
Q 2597 3491 2834 3397
z
" transform="scale(0.015625)"/>
     </defs>
     <use xlink:href="#DejaVuSans-50"/>
     <use xlink:href="#DejaVuSans-44" x="60.302734"/>
     <use xlink:href="#DejaVuSans-46" x="137.304688"/>
     <use xlink:href="#DejaVuSans-73" x="194.824219"/>
    </g>
   </g>
   <g id="legend_1">
    <g id="patch_7">
     <path d="M 48.34 73.1475
L 174.355 73.1475
Q 176.755 73.1475 176.755 70.7475
L 176.755 36.72
Q 176.755 34.32 174.355 34.32
L 48.34 34.32
Q 45.94 34.32 45.94 36.72
L 45.94 70.7475
Q 45.94 73.1475 48.34 73.1475
z
" style="fill: #ffffff; opacity: 0.8; stroke: #cccccc; stroke-linejoin: miter"/>
    </g>
    <g id="line2d_18">
     <path d="M 50.74 44.038125
L 62.74 44.038125
L 74.74 44.038125
" style="fill: none; stroke: #734ca1; stroke-width: 2; stroke-linecap: square"/>
    </g>
    <g id="text_17">
     <!-- Analysis PDF -->
     <g transform="translate(84.34 48.238125) scale(0.12 -0.12)">
      <defs>
       <path id="DejaVuSans-41" d="M 2188 4044
L 1331 1722
L 3047 1722
L 2188 4044
z
M 1831 4666
L 2547 4666
L 4325 0
L 3669 0
L 3244 1197
L 1141 1197
L 716 0
L 50 0
L 1831 4666
z
" transform="scale(0.015625)"/>
       <path id="DejaVuSans-6e" d="M 3513 2113
L 3513 0
L 2938 0
L 2938 2094
Q 2938 2591 2744 2837
Q 2550 3084 2163 3084
Q 1697 3084 1428 2787
Q 1159 2491 1159 1978
L 1159 0
L 581 0
L 581 3500
L 1159 3500
L 1159 2956
Q 1366 3272 1645 3428
Q 1925 3584 2291 3584
Q 2894 3584 3203 3211
Q 3513 2838 3513 2113
z
" transform="scale(0.015625)"/>
       <path id="DejaVuSans-61" d="M 2194 1759
Q 1497 1759 1228 1600
Q 959 1441 959 1056
Q 959 750 1161 570
Q 1363 391 1709 391
Q 2188 391 2477 730
Q 2766 1069 2766 1631
L 2766 1759
L 2194 1759
z
M 3341 1997
L 3341 0
L 2766 0
L 2766 531
Q 2569 213 2275 61
Q 1981 -91 1556 -91
Q 1019 -91 701 211
Q 384 513 384 1019
Q 384 1609 779 1909
Q 1175 2209 1959 2209
L 2766 2209
L 2766 2266
Q 2766 2663 2505 2880
Q 2244 3097 1772 3097
Q 1472 3097 1187 3025
Q 903 2953 641 2809
L 641 3341
Q 956 3463 1253 3523
Q 1550 3584 1831 3584
Q 2591 3584 2966 3190
Q 3341 2797 3341 1997
z
" transform="scale(0.015625)"/>
       <path id="DejaVuSans-6c" d="M 603 4863
L 1178 4863
L 1178 0
L 603 0
L 603 4863
z
" transform="scale(0.015625)"/>
       <path id="DejaVuSans-79" d="M 2059 -325
Q 1816 -950 1584 -1140
Q 1353 -1331 966 -1331
L 506 -1331
L 506 -850
L 844 -850
Q 1081 -850 1212 -737
Q 1344 -625 1503 -206
L 1606 56
L 191 3500
L 800 3500
L 1894 763
L 2988 3500
L 3597 3500
L 2059 -325
z
" transform="scale(0.015625)"/>
       <path id="DejaVuSans-69" d="M 603 3500
L 1178 3500
L 1178 0
L 603 0
L 603 3500
z
M 603 4863
L 1178 4863
L 1178 4134
L 603 4134
L 603 4863
z
" transform="scale(0.015625)"/>
       <path id="DejaVuSans-20" transform="scale(0.015625)"/>
      </defs>
      <use xlink:href="#DejaVuSans-41"/>
      <use xlink:href="#DejaVuSans-6e" x="68.408203"/>
      <use xlink:href="#DejaVuSans-61" x="131.787109"/>
      <use xlink:href="#DejaVuSans-6c" x="193.066406"/>
      <use xlink:href="#DejaVuSans-79" x="220.849609"/>
      <use xlink:href="#DejaVuSans-73" x="280.029297"/>
      <use xlink:href="#DejaVuSans-69" x="332.128906"/>
      <use xlink:href="#DejaVuSans-73" x="359.912109"/>
      <use xlink:href="#DejaVuSans-20" x="412.011719"/>
      <use xlink:href="#DejaVuSans-50" x="443.798828"/>
      <use xlink:href="#DejaVuSans-44" x="504.101562"/>
      <use xlink:href="#DejaVuSans-46" x="581.103516"/>
     </g>
    </g>
    <g id="line2d_19">
     <path d="M 50.74 61.651875
L 62.74 61.651875
L 74.74 61.651875
" style="fill: none; stroke-dasharray: 7.4,3.2; stroke-dashoffset: 0; stroke: #00c8e5; stroke-width: 2"/>
    </g>
    <g id="text_18">
     <!-- Reference PDF -->
     <g transform="translate(84.34 65.851875) scale(0.12 -0.12)">
      <defs>
       <path id="DejaVuSans-52" d="M 2841 2188
Q 3044 2119 3236 1894
Q 3428 1669 3622 1275
L 4263 0
L 3584 0
L 2988 1197
Q 2756 1666 2539 1819
Q 2322 1972 1947 1972
L 1259 1972
L 1259 0
L 628 0
L 628 4666
L 2053 4666
Q 2853 4666 3247 4331
Q 3641 3997 3641 3322
Q 3641 2881 3436 2590
Q 3231 2300 2841 2188
z
M 1259 4147
L 1259 2491
L 2053 2491
Q 2509 2491 2742 2702
Q 2975 2913 2975 3322
Q 2975 3731 2742 3939
Q 2509 4147 2053 4147
L 1259 4147
z
" transform="scale(0.015625)"/>
       <path id="DejaVuSans-65" d="M 3597 1894
L 3597 1613
L 953 1613
Q 991 1019 1311 708
Q 1631 397 2203 397
Q 2534 397 2845 478
Q 3156 559 3463 722
L 3463 178
Q 3153 47 2828 -22
Q 2503 -91 2169 -91
Q 1331 -91 842 396
Q 353 884 353 1716
Q 353 2575 817 3079
Q 1281 3584 2069 3584
Q 2775 3584 3186 3129
Q 3597 2675 3597 1894
z
M 3022 2063
Q 3016 2534 2758 2815
Q 2500 3097 2075 3097
Q 1594 3097 1305 2825
Q 1016 2553 972 2059
L 3022 2063
z
" transform="scale(0.015625)"/>
       <path id="DejaVuSans-66" d="M 2375 4863
L 2375 4384
L 1825 4384
Q 1516 4384 1395 4259
Q 1275 4134 1275 3809
L 1275 3500
L 2222 3500
L 2222 3053
L 1275 3053
L 1275 0
L 697 0
L 697 3053
L 147 3053
L 147 3500
L 697 3500
L 697 3744
Q 697 4328 969 4595
Q 1241 4863 1831 4863
L 2375 4863
z
" transform="scale(0.015625)"/>
       <path id="DejaVuSans-72" d="M 2631 2963
Q 2534 3019 2420 3045
Q 2306 3072 2169 3072
Q 1681 3072 1420 2755
Q 1159 2438 1159 1844
L 1159 0
L 581 0
L 581 3500
L 1159 3500
L 1159 2956
Q 1341 3275 1631 3429
Q 1922 3584 2338 3584
Q 2397 3584 2469 3576
Q 2541 3569 2628 3553
L 2631 2963
z
" transform="scale(0.015625)"/>
       <path id="DejaVuSans-63" d="M 3122 3366
L 3122 2828
Q 2878 2963 2633 3030
Q 2388 3097 2138 3097
Q 1578 3097 1268 2742
Q 959 2388 959 1747
Q 959 1106 1268 751
Q 1578 397 2138 397
Q 2388 397 2633 464
Q 2878 531 3122 666
L 3122 134
Q 2881 22 2623 -34
Q 2366 -91 2075 -91
Q 1284 -91 818 406
Q 353 903 353 1747
Q 353 2603 823 3093
Q 1294 3584 2113 3584
Q 2378 3584 2631 3529
Q 2884 3475 3122 3366
z
" transform="scale(0.015625)"/>
      </defs>
      <use xlink:href="#DejaVuSans-52"/>
      <use xlink:href="#DejaVuSans-65" x="64.982422"/>
      <use xlink:href="#DejaVuSans-66" x="126.505859"/>
      <use xlink:href="#DejaVuSans-65" x="161.710938"/>
      <use xlink:href="#DejaVuSans-72" x="223.234375"/>
      <use xlink:href="#DejaVuSans-65" x="262.097656"/>
      <use xlink:href="#DejaVuSans-6e" x="323.621094"/>
      <use xlink:href="#DejaVuSans-63" x="387"/>
      <use xlink:href="#DejaVuSans-65" x="441.980469"/>
      <use xlink:href="#DejaVuSans-20" x="503.503906"/>
      <use xlink:href="#DejaVuSans-50" x="535.291016"/>
      <use xlink:href="#DejaVuSans-44" x="595.59375"/>
      <use xlink:href="#DejaVuSans-46" x="672.595703"/>
     </g>
    </g>
   </g>
  </g>
  <g id="axes_2">
   <g id="patch_8">
    <path d="M 391.39 332.12
L 709.2 332.12
L 709.2 28.32
L 391.39 28.32
z
" style="fill: #ffffff"/>
   </g>
   <g id="matplotlib.axis_3">
    <g id="xtick_7">
     <g id="line2d_20">
      <g>
       <use xlink:href="#m756eb45d79" x="429.912424" y="332.12" style="stroke: #000000; stroke-width: 0.8"/>
      </g>
     </g>
     <g id="text_19">
      <!-- −4 -->
      <g transform="translate(422.54133 346.718437) scale(0.1 -0.1)">
       <use xlink:href="#DejaVuSans-2212"/>
       <use xlink:href="#DejaVuSans-34" x="83.789062"/>
      </g>
     </g>
    </g>
    <g id="xtick_8">
     <g id="line2d_21">
      <g>
       <use xlink:href="#m756eb45d79" x="478.065455" y="332.12" style="stroke: #000000; stroke-width: 0.8"/>
      </g>
     </g>
     <g id="text_20">
      <!-- −2 -->
      <g transform="translate(470.694361 346.718437) scale(0.1 -0.1)">
       <use xlink:href="#DejaVuSans-2212"/>
       <use xlink:href="#DejaVuSans-32" x="83.789062"/>
      </g>
     </g>
    </g>
    <g id="xtick_9">
     <g id="line2d_22">
      <g>
       <use xlink:href="#m756eb45d79" x="526.218485" y="332.12" style="stroke: #000000; stroke-width: 0.8"/>
      </g>
     </g>
     <g id="text_21">
      <!-- 0 -->
      <g transform="translate(523.037235 346.718437) scale(0.1 -0.1)">
       <use xlink:href="#DejaVuSans-30"/>
      </g>
     </g>
    </g>
    <g id="xtick_10">
     <g id="line2d_23">
      <g>
       <use xlink:href="#m756eb45d79" x="574.371515" y="332.12" style="stroke: #000000; stroke-width: 0.8"/>
      </g>
     </g>
     <g id="text_22">
      <!-- 2 -->
      <g transform="translate(571.190265 346.718437) scale(0.1 -0.1)">
       <use xlink:href="#DejaVuSans-32"/>
      </g>
     </g>
    </g>
    <g id="xtick_11">
     <g id="line2d_24">
      <g>
       <use xlink:href="#m756eb45d79" x="622.524545" y="332.12" style="stroke: #000000; stroke-width: 0.8"/>
      </g>
     </g>
     <g id="text_23">
      <!-- 4 -->
      <g transform="translate(619.343295 346.718437) scale(0.1 -0.1)">
       <use xlink:href="#DejaVuSans-34"/>
      </g>
     </g>
    </g>
    <g id="xtick_12">
     <g id="line2d_25">
      <g>
       <use xlink:href="#m756eb45d79" x="670.677576" y="332.12" style="stroke: #000000; stroke-width: 0.8"/>
      </g>
     </g>
     <g id="text_24">
      <!-- 6 -->
      <g transform="translate(667.496326 346.718437) scale(0.1 -0.1)">
       <use xlink:href="#DejaVuSans-36"/>
      </g>
     </g>
    </g>
   </g>
   <g id="matplotlib.axis_4">
    <g id="ytick_10">
     <g id="line2d_26">
      <g>
       <use xlink:href="#m1309819175" x="391.39" y="318.310909" style="stroke: #000000; stroke-width: 0.8"/>
      </g>
     </g>
     <g id="text_25">
      <!-- 0.0 -->
      <g transform="translate(368.486875 322.110128) scale(0.1 -0.1)">
       <use xlink:href="#DejaVuSans-30"/>
       <use xlink:href="#DejaVuSans-2e" x="63.623047"/>
       <use xlink:href="#DejaVuSans-30" x="95.410156"/>
      </g>
     </g>
    </g>
    <g id="ytick_11">
     <g id="line2d_27">
      <g>
       <use xlink:href="#m1309819175" x="391.39" y="290.692727" style="stroke: #000000; stroke-width: 0.8"/>
      </g>
     </g>
     <g id="text_26">
      <!-- 0.1 -->
      <g transform="translate(368.486875 294.491946) scale(0.1 -0.1)">
       <use xlink:href="#DejaVuSans-30"/>
       <use xlink:href="#DejaVuSans-2e" x="63.623047"/>
       <use xlink:href="#DejaVuSans-31" x="95.410156"/>
      </g>
     </g>
    </g>
    <g id="ytick_12">
     <g id="line2d_28">
      <g>
       <use xlink:href="#m1309819175" x="391.39" y="263.074545" style="stroke: #000000; stroke-width: 0.8"/>
      </g>
     </g>
     <g id="text_27">
      <!-- 0.2 -->
      <g transform="translate(368.486875 266.873764) scale(0.1 -0.1)">
       <use xlink:href="#DejaVuSans-30"/>
       <use xlink:href="#DejaVuSans-2e" x="63.623047"/>
       <use xlink:href="#DejaVuSans-32" x="95.410156"/>
      </g>
     </g>
    </g>
    <g id="ytick_13">
     <g id="line2d_29">
      <g>
       <use xlink:href="#m1309819175" x="391.39" y="235.456364" style="stroke: #000000; stroke-width: 0.8"/>
      </g>
     </g>
     <g id="text_28">
      <!-- 0.3 -->
      <g transform="translate(368.486875 239.255582) scale(0.1 -0.1)">
       <use xlink:href="#DejaVuSans-30"/>
       <use xlink:href="#DejaVuSans-2e" x="63.623047"/>
       <use xlink:href="#DejaVuSans-33" x="95.410156"/>
      </g>
     </g>
    </g>
    <g id="ytick_14">
     <g id="line2d_30">
      <g>
       <use xlink:href="#m1309819175" x="391.39" y="207.838182" style="stroke: #000000; stroke-width: 0.8"/>
      </g>
     </g>
     <g id="text_29">
      <!-- 0.4 -->
      <g transform="translate(368.486875 211.637401) scale(0.1 -0.1)">
       <use xlink:href="#DejaVuSans-30"/>
       <use xlink:href="#DejaVuSans-2e" x="63.623047"/>
       <use xlink:href="#DejaVuSans-34" x="95.410156"/>
      </g>
     </g>
    </g>
    <g id="ytick_15">
     <g id="line2d_31">
      <g>
       <use xlink:href="#m1309819175" x="391.39" y="180.22" style="stroke: #000000; stroke-width: 0.8"/>
      </g>
     </g>
     <g id="text_30">
      <!-- 0.5 -->
      <g transform="translate(368.486875 184.019219) scale(0.1 -0.1)">
       <use xlink:href="#DejaVuSans-30"/>
       <use xlink:href="#DejaVuSans-2e" x="63.623047"/>
       <use xlink:href="#DejaVuSans-35" x="95.410156"/>
      </g>
     </g>
    </g>
    <g id="ytick_16">
     <g id="line2d_32">
      <g>
       <use xlink:href="#m1309819175" x="391.39" y="152.601818" style="stroke: #000000; stroke-width: 0.8"/>
      </g>
     </g>
     <g id="text_31">
      <!-- 0.6 -->
      <g transform="translate(368.486875 156.401037) scale(0.1 -0.1)">
       <use xlink:href="#DejaVuSans-30"/>
       <use xlink:href="#DejaVuSans-2e" x="63.623047"/>
       <use xlink:href="#DejaVuSans-36" x="95.410156"/>
      </g>
     </g>
    </g>
    <g id="ytick_17">
     <g id="line2d_33">
      <g>
       <use xlink:href="#m1309819175" x="391.39" y="124.983636" style="stroke: #000000; stroke-width: 0.8"/>
      </g>
     </g>
     <g id="text_32">
      <!-- 0.7 -->
      <g transform="translate(368.486875 128.782855) scale(0.1 -0.1)">
       <defs>
        <path id="DejaVuSans-37" d="M 525 4666
L 3525 4666
L 3525 4397
L 1831 0
L 1172 0
L 2766 4134
L 525 4134
L 525 4666
z
" transform="scale(0.015625)"/>
       </defs>
       <use xlink:href="#DejaVuSans-30"/>
       <use xlink:href="#DejaVuSans-2e" x="63.623047"/>
       <use xlink:href="#DejaVuSans-37" x="95.410156"/>
      </g>
     </g>
    </g>
    <g id="ytick_18">
     <g id="line2d_34">
      <g>
       <use xlink:href="#m1309819175" x="391.39" y="97.365455" style="stroke: #000000; stroke-width: 0.8"/>
      </g>
     </g>
     <g id="text_33">
      <!-- 0.8 -->
      <g transform="translate(368.486875 101.164673) scale(0.1 -0.1)">
       <defs>
        <path id="DejaVuSans-38" d="M 2034 2216
Q 1584 2216 1326 1975
Q 1069 1734 1069 1313
Q 1069 891 1326 650
Q 1584 409 2034 409
Q 2484 409 2743 651
Q 3003 894 3003 1313
Q 3003 1734 2745 1975
Q 2488 2216 2034 2216
z
M 1403 2484
Q 997 2584 770 2862
Q 544 3141 544 3541
Q 544 4100 942 4425
Q 1341 4750 2034 4750
Q 2731 4750 3128 4425
Q 3525 4100 3525 3541
Q 3525 3141 3298 2862
Q 3072 2584 2669 2484
Q 3125 2378 3379 2068
Q 3634 1759 3634 1313
Q 3634 634 3220 271
Q 2806 -91 2034 -91
Q 1263 -91 848 271
Q 434 634 434 1313
Q 434 1759 690 2068
Q 947 2378 1403 2484
z
M 1172 3481
Q 1172 3119 1398 2916
Q 1625 2713 2034 2713
Q 2441 2713 2670 2916
Q 2900 3119 2900 3481
Q 2900 3844 2670 4047
Q 2441 4250 2034 4250
Q 1625 4250 1398 4047
Q 1172 3844 1172 3481
z
" transform="scale(0.015625)"/>
       </defs>
       <use xlink:href="#DejaVuSans-30"/>
       <use xlink:href="#DejaVuSans-2e" x="63.623047"/>
       <use xlink:href="#DejaVuSans-38" x="95.410156"/>
      </g>
     </g>
    </g>
    <g id="ytick_19">
     <g id="line2d_35">
      <g>
       <use xlink:href="#m1309819175" x="391.39" y="69.747273" style="stroke: #000000; stroke-width: 0.8"/>
      </g>
     </g>
     <g id="text_34">
      <!-- 0.9 -->
      <g transform="translate(368.486875 73.546491) scale(0.1 -0.1)">
       <defs>
        <path id="DejaVuSans-39" d="M 703 97
L 703 672
Q 941 559 1184 500
Q 1428 441 1663 441
Q 2288 441 2617 861
Q 2947 1281 2994 2138
Q 2813 1869 2534 1725
Q 2256 1581 1919 1581
Q 1219 1581 811 2004
Q 403 2428 403 3163
Q 403 3881 828 4315
Q 1253 4750 1959 4750
Q 2769 4750 3195 4129
Q 3622 3509 3622 2328
Q 3622 1225 3098 567
Q 2575 -91 1691 -91
Q 1453 -91 1209 -44
Q 966 3 703 97
z
M 1959 2075
Q 2384 2075 2632 2365
Q 2881 2656 2881 3163
Q 2881 3666 2632 3958
Q 2384 4250 1959 4250
Q 1534 4250 1286 3958
Q 1038 3666 1038 3163
Q 1038 2656 1286 2365
Q 1534 2075 1959 2075
z
" transform="scale(0.015625)"/>
       </defs>
       <use xlink:href="#DejaVuSans-30"/>
       <use xlink:href="#DejaVuSans-2e" x="63.623047"/>
       <use xlink:href="#DejaVuSans-39" x="95.410156"/>
      </g>
     </g>
    </g>
    <g id="ytick_20">
     <g id="line2d_36">
      <g>
       <use xlink:href="#m1309819175" x="391.39" y="42.129091" style="stroke: #000000; stroke-width: 0.8"/>
      </g>
     </g>
     <g id="text_35">
      <!-- 1.0 -->
      <g transform="translate(368.486875 45.92831) scale(0.1 -0.1)">
       <use xlink:href="#DejaVuSans-31"/>
       <use xlink:href="#DejaVuSans-2e" x="63.623047"/>
       <use xlink:href="#DejaVuSans-30" x="95.410156"/>
      </g>
     </g>
    </g>
   </g>
   <g id="line2d_37">
    <path d="M 405.835909 318.310909
L 493.646926 318.200213
L 501.824128 317.953228
L 507.256333 317.576238
L 511.47496 317.067026
L 514.97122 316.427032
L 518.034059 315.643247
L 520.779056 314.712316
L 523.292896 313.625595
L 525.633367 312.372892
L 527.85826 310.93039
L 529.996468 309.279163
L 532.076887 307.391301
L 534.128411 305.22708
L 536.151041 302.769514
L 538.17367 299.961711
L 540.225194 296.727935
L 542.305613 293.024759
L 544.414927 288.80946
L 546.58203 283.973508
L 548.806923 278.458385
L 551.118499 272.126894
L 553.545655 264.817843
L 556.117284 256.348814
L 558.862281 246.523232
L 561.86733 234.913123
L 565.248011 220.931986
L 569.35106 202.96481
L 576.372474 171.007678
L 582.18031 145.038826
L 586.023306 128.849667
L 589.288408 116.028535
L 592.206773 105.439099
L 594.922876 96.399063
L 597.46561 88.687463
L 599.892766 82.019198
L 602.233237 76.229079
L 604.487024 71.235737
L 606.683022 66.901203
L 608.82123 63.160709
L 610.930544 59.90814
L 613.039858 57.060621
L 615.120277 54.618269
L 617.22959 52.481006
L 619.367799 50.629212
L 621.563796 49.021749
L 623.817584 47.645211
L 626.18695 46.456928
L 628.729684 45.432885
L 631.474681 44.5699
L 634.508625 43.852013
L 637.97599 43.265907
L 642.050144 42.809781
L 647.135613 42.474855
L 654.070343 42.257463
L 665.541541 42.150044
L 694.754091 42.129091
L 694.754091 42.129091
" clip-path="url(#p039e056fe7)" style="fill: none; stroke: #734ca1; stroke-width: 2; stroke-linecap: square"/>
   </g>
   <g id="line2d_38">
    <path d="M 405.835909 318.310909
L 445.537237 318.19957
L 453.685545 317.952599
L 459.11775 317.574956
L 463.336377 317.06492
L 466.832637 316.423952
L 469.866581 315.647608
L 472.611578 314.71795
L 475.125418 313.632644
L 477.465889 312.381496
L 479.690782 310.940705
L 481.82899 309.291345
L 483.909409 307.405519
L 485.960933 305.243521
L 487.983563 302.788355
L 490.006192 299.983153
L 492.057717 296.752208
L 494.138136 293.052084
L 496.247449 288.840039
L 498.414552 284.007562
L 500.639445 278.496101
L 502.951022 272.168457
L 505.378177 264.863415
L 507.949806 256.398504
L 510.694803 246.577049
L 513.699853 234.970985
L 517.080534 220.993606
L 521.183582 203.029586
L 528.176101 171.205423
L 534.012832 145.101627
L 537.855828 128.908546
L 541.12093 116.083173
L 544.068191 105.388961
L 546.784293 96.353249
L 549.327027 88.645842
L 551.754183 81.981615
L 554.094654 76.195348
L 556.348441 71.205611
L 558.544439 66.874448
L 560.682647 63.137065
L 562.791961 59.887372
L 564.901275 57.042522
L 566.981694 54.602585
L 569.091007 52.467547
L 571.229216 50.617779
L 573.425213 49.012162
L 575.679001 47.63728
L 578.048367 46.450494
L 580.591101 45.427806
L 583.336098 44.566017
L 586.370043 43.849178
L 589.837407 43.263973
L 593.911561 42.808592
L 598.99703 42.474249
L 605.93176 42.257267
L 617.431853 42.149971
L 655.312815 42.129102
L 694.754091 42.129091
L 694.754091 42.129091
" clip-path="url(#p039e056fe7)" style="fill: none; stroke-dasharray: 7.4,3.2; stroke-dashoffset: 0; stroke: #00c8e5; stroke-width: 2"/>
   </g>
   <g id="line2d_39">
    <path d="M 550.280553 85.946796
L 550.280553 274.493204
" clip-path="url(#p039e056fe7)" style="fill: none; stroke-dasharray: 1.5,2.475; stroke-dashoffset: 0; stroke: #dd4040; stroke-width: 1.5"/>
    <defs>
     <path id="m774fdfb667" d="M 0 3
C 0.795609 3 1.55874 2.683901 2.12132 2.12132
C 2.683901 1.55874 3 0.795609 3 0
C 3 -0.795609 2.683901 -1.55874 2.12132 -2.12132
C 1.55874 -2.683901 0.795609 -3 0 -3
C -0.795609 -3 -1.55874 -2.683901 -2.12132 -2.12132
C -2.683901 -1.55874 -3 -0.795609 -3 0
C -3 0.795609 -2.683901 1.55874 -2.12132 2.12132
C -1.55874 2.683901 -0.795609 3 0 3
z
" style="stroke: #dd4040"/>
    </defs>
    <g clip-path="url(#p039e056fe7)">
     <use xlink:href="#m774fdfb667" x="550.280553" y="85.946796" style="fill: #dd4040; stroke: #dd4040"/>
     <use xlink:href="#m774fdfb667" x="550.280553" y="274.493204" style="fill: #dd4040; stroke: #dd4040"/>
    </g>
   </g>
   <g id="patch_9">
    <path d="M 391.39 332.12
L 391.39 28.32
" style="fill: none; stroke: #000000; stroke-width: 0.8; stroke-linejoin: miter; stroke-linecap: square"/>
   </g>
   <g id="patch_10">
    <path d="M 709.2 332.12
L 709.2 28.32
" style="fill: none; stroke: #000000; stroke-width: 0.8; stroke-linejoin: miter; stroke-linecap: square"/>
   </g>
   <g id="patch_11">
    <path d="M 391.39 332.12
L 709.2 332.12
" style="fill: none; stroke: #000000; stroke-width: 0.8; stroke-linejoin: miter; stroke-linecap: square"/>
   </g>
   <g id="patch_12">
    <path d="M 391.39 28.32
L 709.2 28.32
" style="fill: none; stroke: #000000; stroke-width: 0.8; stroke-linejoin: miter; stroke-linecap: square"/>
   </g>
   <g id="text_36">
    <g id="patch_13">
     <path d="M 572.136 284.211563
L 683.315687 284.211563
L 683.315687 250.782188
L 572.136 250.782188
z
" style="fill: #f8dcdc; opacity: 0.8; stroke: #dd4040; stroke-linejoin: miter"/>
    </g>
    <!-- KS Stat: 0.68 -->
    <g transform="translate(582.076 271.36) scale(0.14 -0.14)">
     <defs>
      <path id="DejaVuSans-4b" d="M 628 4666
L 1259 4666
L 1259 2694
L 3353 4666
L 4166 4666
L 1850 2491
L 4331 0
L 3500 0
L 1259 2247
L 1259 0
L 628 0
L 628 4666
z
" transform="scale(0.015625)"/>
      <path id="DejaVuSans-53" d="M 3425 4513
L 3425 3897
Q 3066 4069 2747 4153
Q 2428 4238 2131 4238
Q 1616 4238 1336 4038
Q 1056 3838 1056 3469
Q 1056 3159 1242 3001
Q 1428 2844 1947 2747
L 2328 2669
Q 3034 2534 3370 2195
Q 3706 1856 3706 1288
Q 3706 609 3251 259
Q 2797 -91 1919 -91
Q 1588 -91 1214 -16
Q 841 59 441 206
L 441 856
Q 825 641 1194 531
Q 1563 422 1919 422
Q 2459 422 2753 634
Q 3047 847 3047 1241
Q 3047 1584 2836 1778
Q 2625 1972 2144 2069
L 1759 2144
Q 1053 2284 737 2584
Q 422 2884 422 3419
Q 422 4038 858 4394
Q 1294 4750 2059 4750
Q 2388 4750 2728 4690
Q 3069 4631 3425 4513
z
" transform="scale(0.015625)"/>
      <path id="DejaVuSans-74" d="M 1172 4494
L 1172 3500
L 2356 3500
L 2356 3053
L 1172 3053
L 1172 1153
Q 1172 725 1289 603
Q 1406 481 1766 481
L 2356 481
L 2356 0
L 1766 0
Q 1100 0 847 248
Q 594 497 594 1153
L 594 3053
L 172 3053
L 172 3500
L 594 3500
L 594 4494
L 1172 4494
z
" transform="scale(0.015625)"/>
      <path id="DejaVuSans-3a" d="M 750 794
L 1409 794
L 1409 0
L 750 0
L 750 794
z
M 750 3309
L 1409 3309
L 1409 2516
L 750 2516
L 750 3309
z
" transform="scale(0.015625)"/>
     </defs>
     <use xlink:href="#DejaVuSans-4b"/>
     <use xlink:href="#DejaVuSans-53" x="65.576172"/>
     <use xlink:href="#DejaVuSans-20" x="129.052734"/>
     <use xlink:href="#DejaVuSans-53" x="160.839844"/>
     <use xlink:href="#DejaVuSans-74" x="224.316406"/>
     <use xlink:href="#DejaVuSans-61" x="263.525391"/>
     <use xlink:href="#DejaVuSans-74" x="324.804688"/>
     <use xlink:href="#DejaVuSans-3a" x="364.013672"/>
     <use xlink:href="#DejaVuSans-20" x="397.705078"/>
     <use xlink:href="#DejaVuSans-30" x="429.492188"/>
     <use xlink:href="#DejaVuSans-2e" x="493.115234"/>
     <use xlink:href="#DejaVuSans-36" x="524.902344"/>
     <use xlink:href="#DejaVuSans-38" x="588.525391"/>
    </g>
   </g>
   <g id="text_37">
    <!-- Kolmogorov-Smirnov Statistic -->
    <g transform="translate(432.36875 22.32) scale(0.16 -0.16)">
     <defs>
      <path id="DejaVuSans-6f" d="M 1959 3097
Q 1497 3097 1228 2736
Q 959 2375 959 1747
Q 959 1119 1226 758
Q 1494 397 1959 397
Q 2419 397 2687 759
Q 2956 1122 2956 1747
Q 2956 2369 2687 2733
Q 2419 3097 1959 3097
z
M 1959 3584
Q 2709 3584 3137 3096
Q 3566 2609 3566 1747
Q 3566 888 3137 398
Q 2709 -91 1959 -91
Q 1206 -91 779 398
Q 353 888 353 1747
Q 353 2609 779 3096
Q 1206 3584 1959 3584
z
" transform="scale(0.015625)"/>
      <path id="DejaVuSans-6d" d="M 3328 2828
Q 3544 3216 3844 3400
Q 4144 3584 4550 3584
Q 5097 3584 5394 3201
Q 5691 2819 5691 2113
L 5691 0
L 5113 0
L 5113 2094
Q 5113 2597 4934 2840
Q 4756 3084 4391 3084
Q 3944 3084 3684 2787
Q 3425 2491 3425 1978
L 3425 0
L 2847 0
L 2847 2094
Q 2847 2600 2669 2842
Q 2491 3084 2119 3084
Q 1678 3084 1418 2786
Q 1159 2488 1159 1978
L 1159 0
L 581 0
L 581 3500
L 1159 3500
L 1159 2956
Q 1356 3278 1631 3431
Q 1906 3584 2284 3584
Q 2666 3584 2933 3390
Q 3200 3197 3328 2828
z
" transform="scale(0.015625)"/>
      <path id="DejaVuSans-67" d="M 2906 1791
Q 2906 2416 2648 2759
Q 2391 3103 1925 3103
Q 1463 3103 1205 2759
Q 947 2416 947 1791
Q 947 1169 1205 825
Q 1463 481 1925 481
Q 2391 481 2648 825
Q 2906 1169 2906 1791
z
M 3481 434
Q 3481 -459 3084 -895
Q 2688 -1331 1869 -1331
Q 1566 -1331 1297 -1286
Q 1028 -1241 775 -1147
L 775 -588
Q 1028 -725 1275 -790
Q 1522 -856 1778 -856
Q 2344 -856 2625 -561
Q 2906 -266 2906 331
L 2906 616
Q 2728 306 2450 153
Q 2172 0 1784 0
Q 1141 0 747 490
Q 353 981 353 1791
Q 353 2603 747 3093
Q 1141 3584 1784 3584
Q 2172 3584 2450 3431
Q 2728 3278 2906 2969
L 2906 3500
L 3481 3500
L 3481 434
z
" transform="scale(0.015625)"/>
      <path id="DejaVuSans-76" d="M 191 3500
L 800 3500
L 1894 563
L 2988 3500
L 3597 3500
L 2284 0
L 1503 0
L 191 3500
z
" transform="scale(0.015625)"/>
      <path id="DejaVuSans-2d" d="M 313 2009
L 1997 2009
L 1997 1497
L 313 1497
L 313 2009
z
" transform="scale(0.015625)"/>
     </defs>
     <use xlink:href="#DejaVuSans-4b"/>
     <use xlink:href="#DejaVuSans-6f" x="60.576172"/>
     <use xlink:href="#DejaVuSans-6c" x="121.757812"/>
     <use xlink:href="#DejaVuSans-6d" x="149.541016"/>
     <use xlink:href="#DejaVuSans-6f" x="246.953125"/>
     <use xlink:href="#DejaVuSans-67" x="308.134766"/>
     <use xlink:href="#DejaVuSans-6f" x="371.611328"/>
     <use xlink:href="#DejaVuSans-72" x="432.792969"/>
     <use xlink:href="#DejaVuSans-6f" x="471.65625"/>
     <use xlink:href="#DejaVuSans-76" x="532.837891"/>
     <use xlink:href="#DejaVuSans-2d" x="589.392578"/>
     <use xlink:href="#DejaVuSans-53" x="625.476562"/>
     <use xlink:href="#DejaVuSans-6d" x="688.953125"/>
     <use xlink:href="#DejaVuSans-69" x="786.365234"/>
     <use xlink:href="#DejaVuSans-72" x="814.148438"/>
     <use xlink:href="#DejaVuSans-6e" x="853.511719"/>
     <use xlink:href="#DejaVuSans-6f" x="916.890625"/>
     <use xlink:href="#DejaVuSans-76" x="978.072266"/>
     <use xlink:href="#DejaVuSans-20" x="1037.251953"/>
     <use xlink:href="#DejaVuSans-53" x="1069.039062"/>
     <use xlink:href="#DejaVuSans-74" x="1132.515625"/>
     <use xlink:href="#DejaVuSans-61" x="1171.724609"/>
     <use xlink:href="#DejaVuSans-74" x="1233.003906"/>
     <use xlink:href="#DejaVuSans-69" x="1272.212891"/>
     <use xlink:href="#DejaVuSans-73" x="1299.996094"/>
     <use xlink:href="#DejaVuSans-74" x="1352.095703"/>
     <use xlink:href="#DejaVuSans-69" x="1391.304688"/>
     <use xlink:href="#DejaVuSans-63" x="1419.087891"/>
    </g>
   </g>
   <g id="legend_2">
    <g id="patch_14">
     <path d="M 399.79 90.76125
L 493.50625 90.76125
Q 495.90625 90.76125 495.90625 88.36125
L 495.90625 36.72
Q 495.90625 34.32 493.50625 34.32
L 399.79 34.32
Q 397.39 34.32 397.39 36.72
L 397.39 88.36125
Q 397.39 90.76125 399.79 90.76125
z
" style="fill: #ffffff; opacity: 0.8; stroke: #cccccc; stroke-linejoin: miter"/>
    </g>
    <g id="line2d_40">
     <path d="M 402.19 44.038125
L 414.19 44.038125
L 426.19 44.038125
" style="fill: none; stroke: #734ca1; stroke-width: 2; stroke-linecap: square"/>
    </g>
    <g id="text_38">
     <!-- Ana. CDF -->
     <g transform="translate(435.79 48.238125) scale(0.12 -0.12)">
      <defs>
       <path id="DejaVuSans-43" d="M 4122 4306
L 4122 3641
Q 3803 3938 3442 4084
Q 3081 4231 2675 4231
Q 1875 4231 1450 3742
Q 1025 3253 1025 2328
Q 1025 1406 1450 917
Q 1875 428 2675 428
Q 3081 428 3442 575
Q 3803 722 4122 1019
L 4122 359
Q 3791 134 3420 21
Q 3050 -91 2638 -91
Q 1578 -91 968 557
Q 359 1206 359 2328
Q 359 3453 968 4101
Q 1578 4750 2638 4750
Q 3056 4750 3426 4639
Q 3797 4528 4122 4306
z
" transform="scale(0.015625)"/>
      </defs>
      <use xlink:href="#DejaVuSans-41"/>
      <use xlink:href="#DejaVuSans-6e" x="68.408203"/>
      <use xlink:href="#DejaVuSans-61" x="131.787109"/>
      <use xlink:href="#DejaVuSans-2e" x="193.066406"/>
      <use xlink:href="#DejaVuSans-20" x="224.853516"/>
      <use xlink:href="#DejaVuSans-43" x="256.640625"/>
      <use xlink:href="#DejaVuSans-44" x="326.464844"/>
      <use xlink:href="#DejaVuSans-46" x="403.466797"/>
     </g>
    </g>
    <g id="line2d_41">
     <path d="M 402.19 61.651875
L 414.19 61.651875
L 426.19 61.651875
" style="fill: none; stroke-dasharray: 7.4,3.2; stroke-dashoffset: 0; stroke: #00c8e5; stroke-width: 2"/>
    </g>
    <g id="text_39">
     <!-- Ref. CDF -->
     <g transform="translate(435.79 65.851875) scale(0.12 -0.12)">
      <use xlink:href="#DejaVuSans-52"/>
      <use xlink:href="#DejaVuSans-65" x="64.982422"/>
      <use xlink:href="#DejaVuSans-66" x="126.505859"/>
      <use xlink:href="#DejaVuSans-2e" x="154.460938"/>
      <use xlink:href="#DejaVuSans-20" x="186.248047"/>
      <use xlink:href="#DejaVuSans-43" x="218.035156"/>
      <use xlink:href="#DejaVuSans-44" x="287.859375"/>
      <use xlink:href="#DejaVuSans-46" x="364.861328"/>
     </g>
    </g>
    <g id="line2d_42">
     <path d="M 402.19 79.265625
L 414.19 79.265625
L 426.19 79.265625
" style="fill: none; stroke-dasharray: 1.5,2.475; stroke-dashoffset: 0; stroke: #dd4040; stroke-width: 1.5"/>
     <g>
      <use xlink:href="#m774fdfb667" x="414.19" y="79.265625" style="fill: #dd4040; stroke: #dd4040"/>
     </g>
    </g>
    <g id="text_40">
     <!-- Max Diff. -->
     <g transform="translate(435.79 83.465625) scale(0.12 -0.12)">
      <defs>
       <path id="DejaVuSans-4d" d="M 628 4666
L 1569 4666
L 2759 1491
L 3956 4666
L 4897 4666
L 4897 0
L 4281 0
L 4281 4097
L 3078 897
L 2444 897
L 1241 4097
L 1241 0
L 628 0
L 628 4666
z
" transform="scale(0.015625)"/>
       <path id="DejaVuSans-78" d="M 3513 3500
L 2247 1797
L 3578 0
L 2900 0
L 1881 1375
L 863 0
L 184 0
L 1544 1831
L 300 3500
L 978 3500
L 1906 2253
L 2834 3500
L 3513 3500
z
" transform="scale(0.015625)"/>
      </defs>
      <use xlink:href="#DejaVuSans-4d"/>
      <use xlink:href="#DejaVuSans-61" x="86.279297"/>
      <use xlink:href="#DejaVuSans-78" x="147.558594"/>
      <use xlink:href="#DejaVuSans-20" x="206.738281"/>
      <use xlink:href="#DejaVuSans-44" x="238.525391"/>
      <use xlink:href="#DejaVuSans-69" x="315.527344"/>
      <use xlink:href="#DejaVuSans-66" x="343.310547"/>
      <use xlink:href="#DejaVuSans-66" x="378.515625"/>
      <use xlink:href="#DejaVuSans-2e" x="406.470703"/>
     </g>
    </g>
   </g>
  </g>
 </g>
 <defs>
  <clipPath id="p207f1b263a">
   <rect x="39.94" y="28.32" width="317.81" height="303.8"/>
  </clipPath>
  <clipPath id="p039e056fe7">
   <rect x="391.39" y="28.32" width="317.81" height="303.8"/>
  </clipPath>
 </defs>
</svg>
