<?xml version="1.0" encoding="utf-8" standalone="no"?>
<!DOCTYPE svg PUBLIC "-//W3C//DTD SVG 1.1//EN"
  "http://www.w3.org/Graphics/SVG/1.1/DTD/svg11.dtd">
<svg xmlns:xlink="http://www.w3.org/1999/xlink" width="460.8pt" height="345.6pt" viewBox="0 0 460.8 345.6" xmlns="http://www.w3.org/2000/svg" version="1.1">
 <metadata>
  <rdf:RDF xmlns:dc="http://purl.org/dc/elements/1.1/" xmlns:cc="http://creativecommons.org/ns#" xmlns:rdf="http://www.w3.org/1999/02/22-rdf-syntax-ns#">
   <cc:Work>
    <dc:type rdf:resource="http://purl.org/dc/dcmitype/StillImage"/>
    <dc:date>2023-04-03T19:23:55.833018</dc:date>
    <dc:format>image/svg+xml</dc:format>
    <dc:creator>
     <cc:Agent>
      <dc:title>Matplotlib v3.5.3, https://matplotlib.org/</dc:title>
     </cc:Agent>
    </dc:creator>
   </cc:Work>
  </rdf:RDF>
 </metadata>
 <defs>
  <style type="text/css">*{stroke-linejoin: round; stroke-linecap: butt}</style>
 </defs>
 <g id="figure_1">
  <g id="patch_1">
   <path d="M 0 345.6
L 460.8 345.6
L 460.8 0
L 0 0
z
" style="fill: #ffffff"/>
  </g>
  <g id="axes_1">
   <g id="patch_2">
    <path d="M 57.6 307.584
L 414.72 307.584
L 414.72 41.472
L 57.6 41.472
z
" style="fill: #ffffff"/>
   </g>
   <g id="patch_3">
    <path d="M 73.832727 307.584
L 77.079273 307.584
L 77.079273 307.344906
L 73.832727 307.344906
z
" clip-path="url(#p5929a45f4d)" style="fill: #1f77b4"/>
   </g>
   <g id="patch_4">
    <path d="M 77.079273 307.584
L 80.325818 307.584
L 80.325818 307.105811
L 77.079273 307.105811
z
" clip-path="url(#p5929a45f4d)" style="fill: #1f77b4"/>
   </g>
   <g id="patch_5">
    <path d="M 80.325818 307.584
L 83.572364 307.584
L 83.572364 307.584
L 80.325818 307.584
z
" clip-path="url(#p5929a45f4d)" style="fill: #1f77b4"/>
   </g>
   <g id="patch_6">
    <path d="M 83.572364 307.584
L 86.818909 307.584
L 86.818909 307.584
L 83.572364 307.584
z
" clip-path="url(#p5929a45f4d)" style="fill: #1f77b4"/>
   </g>
   <g id="patch_7">
    <path d="M 86.818909 307.584
L 90.065455 307.584
L 90.065455 307.344906
L 86.818909 307.344906
z
" clip-path="url(#p5929a45f4d)" style="fill: #1f77b4"/>
   </g>
   <g id="patch_8">
    <path d="M 90.065455 307.584
L 93.312 307.584
L 93.312 307.584
L 90.065455 307.584
z
" clip-path="url(#p5929a45f4d)" style="fill: #1f77b4"/>
   </g>
   <g id="patch_9">
    <path d="M 93.312 307.584
L 96.558545 307.584
L 96.558545 307.344906
L 93.312 307.344906
z
" clip-path="url(#p5929a45f4d)" style="fill: #1f77b4"/>
   </g>
   <g id="patch_10">
    <path d="M 96.558545 307.584
L 99.805091 307.584
L 99.805091 307.344906
L 96.558545 307.344906
z
" clip-path="url(#p5929a45f4d)" style="fill: #1f77b4"/>
   </g>
   <g id="patch_11">
    <path d="M 99.805091 307.584
L 103.051636 307.584
L 103.051636 306.388528
L 99.805091 306.388528
z
" clip-path="url(#p5929a45f4d)" style="fill: #1f77b4"/>
   </g>
   <g id="patch_12">
    <path d="M 103.051636 307.584
L 106.298182 307.584
L 106.298182 307.105811
L 103.051636 307.105811
z
" clip-path="url(#p5929a45f4d)" style="fill: #1f77b4"/>
   </g>
   <g id="patch_13">
    <path d="M 106.298182 307.584
L 109.544727 307.584
L 109.544727 307.105811
L 106.298182 307.105811
z
" clip-path="url(#p5929a45f4d)" style="fill: #1f77b4"/>
   </g>
   <g id="patch_14">
    <path d="M 109.544727 307.584
L 112.791273 307.584
L 112.791273 306.627623
L 109.544727 306.627623
z
" clip-path="url(#p5929a45f4d)" style="fill: #1f77b4"/>
   </g>
   <g id="patch_15">
    <path d="M 112.791273 307.584
L 116.037818 307.584
L 116.037818 307.105811
L 112.791273 307.105811
z
" clip-path="url(#p5929a45f4d)" style="fill: #1f77b4"/>
   </g>
   <g id="patch_16">
    <path d="M 116.037818 307.584
L 119.284364 307.584
L 119.284364 305.671245
L 116.037818 305.671245
z
" clip-path="url(#p5929a45f4d)" style="fill: #1f77b4"/>
   </g>
   <g id="patch_17">
    <path d="M 119.284364 307.584
L 122.530909 307.584
L 122.530909 306.388528
L 119.284364 306.388528
z
" clip-path="url(#p5929a45f4d)" style="fill: #1f77b4"/>
   </g>
   <g id="patch_18">
    <path d="M 122.530909 307.584
L 125.777455 307.584
L 125.777455 305.91034
L 122.530909 305.91034
z
" clip-path="url(#p5929a45f4d)" style="fill: #1f77b4"/>
   </g>
   <g id="patch_19">
    <path d="M 125.777455 307.584
L 129.024 307.584
L 129.024 306.149434
L 125.777455 306.149434
z
" clip-path="url(#p5929a45f4d)" style="fill: #1f77b4"/>
   </g>
   <g id="patch_20">
    <path d="M 129.024 307.584
L 132.270545 307.584
L 132.270545 305.432151
L 129.024 305.432151
z
" clip-path="url(#p5929a45f4d)" style="fill: #1f77b4"/>
   </g>
   <g id="patch_21">
    <path d="M 132.270545 307.584
L 135.517091 307.584
L 135.517091 304.953962
L 132.270545 304.953962
z
" clip-path="url(#p5929a45f4d)" style="fill: #1f77b4"/>
   </g>
   <g id="patch_22">
    <path d="M 135.517091 307.584
L 138.763636 307.584
L 138.763636 303.519396
L 135.517091 303.519396
z
" clip-path="url(#p5929a45f4d)" style="fill: #1f77b4"/>
   </g>
   <g id="patch_23">
    <path d="M 138.763636 307.584
L 142.010182 307.584
L 142.010182 304.953962
L 138.763636 304.953962
z
" clip-path="url(#p5929a45f4d)" style="fill: #1f77b4"/>
   </g>
   <g id="patch_24">
    <path d="M 142.010182 307.584
L 145.256727 307.584
L 145.256727 304.714868
L 142.010182 304.714868
z
" clip-path="url(#p5929a45f4d)" style="fill: #1f77b4"/>
   </g>
   <g id="patch_25">
    <path d="M 145.256727 307.584
L 148.503273 307.584
L 148.503273 303.997585
L 145.256727 303.997585
z
" clip-path="url(#p5929a45f4d)" style="fill: #1f77b4"/>
   </g>
   <g id="patch_26">
    <path d="M 148.503273 307.584
L 151.749818 307.584
L 151.749818 303.758491
L 148.503273 303.758491
z
" clip-path="url(#p5929a45f4d)" style="fill: #1f77b4"/>
   </g>
   <g id="patch_27">
    <path d="M 151.749818 307.584
L 154.996364 307.584
L 154.996364 301.128453
L 151.749818 301.128453
z
" clip-path="url(#p5929a45f4d)" style="fill: #1f77b4"/>
   </g>
   <g id="patch_28">
    <path d="M 154.996364 307.584
L 158.242909 307.584
L 158.242909 301.367547
L 154.996364 301.367547
z
" clip-path="url(#p5929a45f4d)" style="fill: #1f77b4"/>
   </g>
   <g id="patch_29">
    <path d="M 158.242909 307.584
L 161.489455 307.584
L 161.489455 300.889358
L 158.242909 300.889358
z
" clip-path="url(#p5929a45f4d)" style="fill: #1f77b4"/>
   </g>
   <g id="patch_30">
    <path d="M 161.489455 307.584
L 164.736 307.584
L 164.736 300.41117
L 161.489455 300.41117
z
" clip-path="url(#p5929a45f4d)" style="fill: #1f77b4"/>
   </g>
   <g id="patch_31">
    <path d="M 164.736 307.584
L 167.982545 307.584
L 167.982545 299.454792
L 164.736 299.454792
z
" clip-path="url(#p5929a45f4d)" style="fill: #1f77b4"/>
   </g>
   <g id="patch_32">
    <path d="M 167.982545 307.584
L 171.229091 307.584
L 171.229091 297.063849
L 167.982545 297.063849
z
" clip-path="url(#p5929a45f4d)" style="fill: #1f77b4"/>
   </g>
   <g id="patch_33">
    <path d="M 171.229091 307.584
L 174.475636 307.584
L 174.475636 293.955623
L 171.229091 293.955623
z
" clip-path="url(#p5929a45f4d)" style="fill: #1f77b4"/>
   </g>
   <g id="patch_34">
    <path d="M 174.475636 307.584
L 177.722182 307.584
L 177.722182 293.716528
L 174.475636 293.716528
z
" clip-path="url(#p5929a45f4d)" style="fill: #1f77b4"/>
   </g>
   <g id="patch_35">
    <path d="M 177.722182 307.584
L 180.968727 307.584
L 180.968727 292.281962
L 177.722182 292.281962
z
" clip-path="url(#p5929a45f4d)" style="fill: #1f77b4"/>
   </g>
   <g id="patch_36">
    <path d="M 180.968727 307.584
L 184.215273 307.584
L 184.215273 286.782792
L 180.968727 286.782792
z
" clip-path="url(#p5929a45f4d)" style="fill: #1f77b4"/>
   </g>
   <g id="patch_37">
    <path d="M 184.215273 307.584
L 187.461818 307.584
L 187.461818 288.217358
L 184.215273 288.217358
z
" clip-path="url(#p5929a45f4d)" style="fill: #1f77b4"/>
   </g>
   <g id="patch_38">
    <path d="M 187.461818 307.584
L 190.708364 307.584
L 190.708364 286.543698
L 187.461818 286.543698
z
" clip-path="url(#p5929a45f4d)" style="fill: #1f77b4"/>
   </g>
   <g id="patch_39">
    <path d="M 190.708364 307.584
L 193.954909 307.584
L 193.954909 282.718189
L 190.708364 282.718189
z
" clip-path="url(#p5929a45f4d)" style="fill: #1f77b4"/>
   </g>
   <g id="patch_40">
    <path d="M 193.954909 307.584
L 197.201455 307.584
L 197.201455 280.327245
L 193.954909 280.327245
z
" clip-path="url(#p5929a45f4d)" style="fill: #1f77b4"/>
   </g>
   <g id="patch_41">
    <path d="M 197.201455 307.584
L 200.448 307.584
L 200.448 269.089811
L 197.201455 269.089811
z
" clip-path="url(#p5929a45f4d)" style="fill: #1f77b4"/>
   </g>
   <g id="patch_42">
    <path d="M 200.448 307.584
L 203.694545 307.584
L 203.694545 267.177057
L 200.448 267.177057
z
" clip-path="url(#p5929a45f4d)" style="fill: #1f77b4"/>
   </g>
   <g id="patch_43">
    <path d="M 203.694545 307.584
L 206.941091 307.584
L 206.941091 265.025208
L 203.694545 265.025208
z
" clip-path="url(#p5929a45f4d)" style="fill: #1f77b4"/>
   </g>
   <g id="patch_44">
    <path d="M 206.941091 307.584
L 210.187636 307.584
L 210.187636 263.351547
L 206.941091 263.351547
z
" clip-path="url(#p5929a45f4d)" style="fill: #1f77b4"/>
   </g>
   <g id="patch_45">
    <path d="M 210.187636 307.584
L 213.434182 307.584
L 213.434182 245.180377
L 210.187636 245.180377
z
" clip-path="url(#p5929a45f4d)" style="fill: #1f77b4"/>
   </g>
   <g id="patch_46">
    <path d="M 213.434182 307.584
L 216.680727 307.584
L 216.680727 245.658566
L 213.434182 245.658566
z
" clip-path="url(#p5929a45f4d)" style="fill: #1f77b4"/>
   </g>
   <g id="patch_47">
    <path d="M 216.680727 307.584
L 219.927273 307.584
L 219.927273 242.072151
L 216.680727 242.072151
z
" clip-path="url(#p5929a45f4d)" style="fill: #1f77b4"/>
   </g>
   <g id="patch_48">
    <path d="M 219.927273 307.584
L 223.173818 307.584
L 223.173818 221.988226
L 219.927273 221.988226
z
" clip-path="url(#p5929a45f4d)" style="fill: #1f77b4"/>
   </g>
   <g id="patch_49">
    <path d="M 223.173818 307.584
L 226.420364 307.584
L 226.420364 210.033509
L 223.173818 210.033509
z
" clip-path="url(#p5929a45f4d)" style="fill: #1f77b4"/>
   </g>
   <g id="patch_50">
    <path d="M 226.420364 307.584
L 229.666909 307.584
L 229.666909 198.078792
L 226.420364 198.078792
z
" clip-path="url(#p5929a45f4d)" style="fill: #1f77b4"/>
   </g>
   <g id="patch_51">
    <path d="M 229.666909 307.584
L 232.913455 307.584
L 232.913455 146.195321
L 229.666909 146.195321
z
" clip-path="url(#p5929a45f4d)" style="fill: #1f77b4"/>
   </g>
   <g id="patch_52">
    <path d="M 232.913455 307.584
L 236.16 307.584
L 236.16 54.144
L 232.913455 54.144
z
" clip-path="url(#p5929a45f4d)" style="fill: #1f77b4"/>
   </g>
   <g id="patch_53">
    <path d="M 236.16 307.584
L 239.406545 307.584
L 239.406545 136.631547
L 236.16 136.631547
z
" clip-path="url(#p5929a45f4d)" style="fill: #1f77b4"/>
   </g>
   <g id="patch_54">
    <path d="M 239.406545 307.584
L 242.653091 307.584
L 242.653091 180.385811
L 239.406545 180.385811
z
" clip-path="url(#p5929a45f4d)" style="fill: #1f77b4"/>
   </g>
   <g id="patch_55">
    <path d="M 242.653091 307.584
L 245.899636 307.584
L 245.899636 209.316226
L 242.653091 209.316226
z
" clip-path="url(#p5929a45f4d)" style="fill: #1f77b4"/>
   </g>
   <g id="patch_56">
    <path d="M 245.899636 307.584
L 249.146182 307.584
L 249.146182 224.857358
L 245.899636 224.857358
z
" clip-path="url(#p5929a45f4d)" style="fill: #1f77b4"/>
   </g>
   <g id="patch_57">
    <path d="M 249.146182 307.584
L 252.392727 307.584
L 252.392727 228.682868
L 249.146182 228.682868
z
" clip-path="url(#p5929a45f4d)" style="fill: #1f77b4"/>
   </g>
   <g id="patch_58">
    <path d="M 252.392727 307.584
L 255.639273 307.584
L 255.639273 246.136755
L 252.392727 246.136755
z
" clip-path="url(#p5929a45f4d)" style="fill: #1f77b4"/>
   </g>
   <g id="patch_59">
    <path d="M 255.639273 307.584
L 258.885818 307.584
L 258.885818 249.72317
L 255.639273 249.72317
z
" clip-path="url(#p5929a45f4d)" style="fill: #1f77b4"/>
   </g>
   <g id="patch_60">
    <path d="M 258.885818 307.584
L 262.132364 307.584
L 262.132364 254.265962
L 258.885818 254.265962
z
" clip-path="url(#p5929a45f4d)" style="fill: #1f77b4"/>
   </g>
   <g id="patch_61">
    <path d="M 262.132364 307.584
L 265.378909 307.584
L 265.378909 264.307925
L 262.132364 264.307925
z
" clip-path="url(#p5929a45f4d)" style="fill: #1f77b4"/>
   </g>
   <g id="patch_62">
    <path d="M 265.378909 307.584
L 268.625455 307.584
L 268.625455 268.133434
L 265.378909 268.133434
z
" clip-path="url(#p5929a45f4d)" style="fill: #1f77b4"/>
   </g>
   <g id="patch_63">
    <path d="M 268.625455 307.584
L 271.872 307.584
L 271.872 275.06717
L 268.625455 275.06717
z
" clip-path="url(#p5929a45f4d)" style="fill: #1f77b4"/>
   </g>
   <g id="patch_64">
    <path d="M 271.872 307.584
L 275.118545 307.584
L 275.118545 282.718189
L 271.872 282.718189
z
" clip-path="url(#p5929a45f4d)" style="fill: #1f77b4"/>
   </g>
   <g id="patch_65">
    <path d="M 275.118545 307.584
L 278.365091 307.584
L 278.365091 280.088151
L 275.118545 280.088151
z
" clip-path="url(#p5929a45f4d)" style="fill: #1f77b4"/>
   </g>
   <g id="patch_66">
    <path d="M 278.365091 307.584
L 281.611636 307.584
L 281.611636 285.826415
L 278.365091 285.826415
z
" clip-path="url(#p5929a45f4d)" style="fill: #1f77b4"/>
   </g>
   <g id="patch_67">
    <path d="M 281.611636 307.584
L 284.858182 307.584
L 284.858182 284.870038
L 281.611636 284.870038
z
" clip-path="url(#p5929a45f4d)" style="fill: #1f77b4"/>
   </g>
   <g id="patch_68">
    <path d="M 284.858182 307.584
L 288.104727 307.584
L 288.104727 285.826415
L 284.858182 285.826415
z
" clip-path="url(#p5929a45f4d)" style="fill: #1f77b4"/>
   </g>
   <g id="patch_69">
    <path d="M 288.104727 307.584
L 291.351273 307.584
L 291.351273 294.433811
L 288.104727 294.433811
z
" clip-path="url(#p5929a45f4d)" style="fill: #1f77b4"/>
   </g>
   <g id="patch_70">
    <path d="M 291.351273 307.584
L 294.597818 307.584
L 294.597818 293.477434
L 291.351273 293.477434
z
" clip-path="url(#p5929a45f4d)" style="fill: #1f77b4"/>
   </g>
   <g id="patch_71">
    <path d="M 294.597818 307.584
L 297.844364 307.584
L 297.844364 294.672906
L 294.597818 294.672906
z
" clip-path="url(#p5929a45f4d)" style="fill: #1f77b4"/>
   </g>
   <g id="patch_72">
    <path d="M 297.844364 307.584
L 301.090909 307.584
L 301.090909 295.151094
L 297.844364 295.151094
z
" clip-path="url(#p5929a45f4d)" style="fill: #1f77b4"/>
   </g>
   <g id="patch_73">
    <path d="M 301.090909 307.584
L 304.337455 307.584
L 304.337455 295.629283
L 301.090909 295.629283
z
" clip-path="url(#p5929a45f4d)" style="fill: #1f77b4"/>
   </g>
   <g id="patch_74">
    <path d="M 304.337455 307.584
L 307.584 307.584
L 307.584 300.889358
L 304.337455 300.889358
z
" clip-path="url(#p5929a45f4d)" style="fill: #1f77b4"/>
   </g>
   <g id="patch_75">
    <path d="M 307.584 307.584
L 310.830545 307.584
L 310.830545 298.976604
L 307.584 298.976604
z
" clip-path="url(#p5929a45f4d)" style="fill: #1f77b4"/>
   </g>
   <g id="patch_76">
    <path d="M 310.830545 307.584
L 314.077091 307.584
L 314.077091 299.454792
L 310.830545 299.454792
z
" clip-path="url(#p5929a45f4d)" style="fill: #1f77b4"/>
   </g>
   <g id="patch_77">
    <path d="M 314.077091 307.584
L 317.323636 307.584
L 317.323636 301.606642
L 314.077091 301.606642
z
" clip-path="url(#p5929a45f4d)" style="fill: #1f77b4"/>
   </g>
   <g id="patch_78">
    <path d="M 317.323636 307.584
L 320.570182 307.584
L 320.570182 300.172075
L 317.323636 300.172075
z
" clip-path="url(#p5929a45f4d)" style="fill: #1f77b4"/>
   </g>
   <g id="patch_79">
    <path d="M 320.570182 307.584
L 323.816727 307.584
L 323.816727 304.236679
L 320.570182 304.236679
z
" clip-path="url(#p5929a45f4d)" style="fill: #1f77b4"/>
   </g>
   <g id="patch_80">
    <path d="M 323.816727 307.584
L 327.063273 307.584
L 327.063273 303.519396
L 323.816727 303.519396
z
" clip-path="url(#p5929a45f4d)" style="fill: #1f77b4"/>
   </g>
   <g id="patch_81">
    <path d="M 327.063273 307.584
L 330.309818 307.584
L 330.309818 305.432151
L 327.063273 305.432151
z
" clip-path="url(#p5929a45f4d)" style="fill: #1f77b4"/>
   </g>
   <g id="patch_82">
    <path d="M 330.309818 307.584
L 333.556364 307.584
L 333.556364 303.997585
L 330.309818 303.997585
z
" clip-path="url(#p5929a45f4d)" style="fill: #1f77b4"/>
   </g>
   <g id="patch_83">
    <path d="M 333.556364 307.584
L 336.802909 307.584
L 336.802909 305.193057
L 333.556364 305.193057
z
" clip-path="url(#p5929a45f4d)" style="fill: #1f77b4"/>
   </g>
   <g id="patch_84">
    <path d="M 336.802909 307.584
L 340.049455 307.584
L 340.049455 306.149434
L 336.802909 306.149434
z
" clip-path="url(#p5929a45f4d)" style="fill: #1f77b4"/>
   </g>
   <g id="patch_85">
    <path d="M 340.049455 307.584
L 343.296 307.584
L 343.296 306.388528
L 340.049455 306.388528
z
" clip-path="url(#p5929a45f4d)" style="fill: #1f77b4"/>
   </g>
   <g id="patch_86">
    <path d="M 343.296 307.584
L 346.542545 307.584
L 346.542545 307.105811
L 343.296 307.105811
z
" clip-path="url(#p5929a45f4d)" style="fill: #1f77b4"/>
   </g>
   <g id="patch_87">
    <path d="M 346.542545 307.584
L 349.789091 307.584
L 349.789091 306.388528
L 346.542545 306.388528
z
" clip-path="url(#p5929a45f4d)" style="fill: #1f77b4"/>
   </g>
   <g id="patch_88">
    <path d="M 349.789091 307.584
L 353.035636 307.584
L 353.035636 306.388528
L 349.789091 306.388528
z
" clip-path="url(#p5929a45f4d)" style="fill: #1f77b4"/>
   </g>
   <g id="patch_89">
    <path d="M 353.035636 307.584
L 356.282182 307.584
L 356.282182 305.432151
L 353.035636 305.432151
z
" clip-path="url(#p5929a45f4d)" style="fill: #1f77b4"/>
   </g>
   <g id="patch_90">
    <path d="M 356.282182 307.584
L 359.528727 307.584
L 359.528727 307.584
L 356.282182 307.584
z
" clip-path="url(#p5929a45f4d)" style="fill: #1f77b4"/>
   </g>
   <g id="patch_91">
    <path d="M 359.528727 307.584
L 362.775273 307.584
L 362.775273 307.105811
L 359.528727 307.105811
z
" clip-path="url(#p5929a45f4d)" style="fill: #1f77b4"/>
   </g>
   <g id="patch_92">
    <path d="M 362.775273 307.584
L 366.021818 307.584
L 366.021818 306.866717
L 362.775273 306.866717
z
" clip-path="url(#p5929a45f4d)" style="fill: #1f77b4"/>
   </g>
   <g id="patch_93">
    <path d="M 366.021818 307.584
L 369.268364 307.584
L 369.268364 307.344906
L 366.021818 307.344906
z
" clip-path="url(#p5929a45f4d)" style="fill: #1f77b4"/>
   </g>
   <g id="patch_94">
    <path d="M 369.268364 307.584
L 372.514909 307.584
L 372.514909 306.627623
L 369.268364 306.627623
z
" clip-path="url(#p5929a45f4d)" style="fill: #1f77b4"/>
   </g>
   <g id="patch_95">
    <path d="M 372.514909 307.584
L 375.761455 307.584
L 375.761455 306.866717
L 372.514909 306.866717
z
" clip-path="url(#p5929a45f4d)" style="fill: #1f77b4"/>
   </g>
   <g id="patch_96">
    <path d="M 375.761455 307.584
L 379.008 307.584
L 379.008 307.584
L 375.761455 307.584
z
" clip-path="url(#p5929a45f4d)" style="fill: #1f77b4"/>
   </g>
   <g id="patch_97">
    <path d="M 379.008 307.584
L 382.254545 307.584
L 382.254545 307.344906
L 379.008 307.344906
z
" clip-path="url(#p5929a45f4d)" style="fill: #1f77b4"/>
   </g>
   <g id="patch_98">
    <path d="M 382.254545 307.584
L 385.501091 307.584
L 385.501091 307.344906
L 382.254545 307.344906
z
" clip-path="url(#p5929a45f4d)" style="fill: #1f77b4"/>
   </g>
   <g id="patch_99">
    <path d="M 385.501091 307.584
L 388.747636 307.584
L 388.747636 307.105811
L 385.501091 307.105811
z
" clip-path="url(#p5929a45f4d)" style="fill: #1f77b4"/>
   </g>
   <g id="patch_100">
    <path d="M 388.747636 307.584
L 391.994182 307.584
L 391.994182 307.344906
L 388.747636 307.344906
z
" clip-path="url(#p5929a45f4d)" style="fill: #1f77b4"/>
   </g>
   <g id="patch_101">
    <path d="M 391.994182 307.584
L 395.240727 307.584
L 395.240727 307.584
L 391.994182 307.584
z
" clip-path="url(#p5929a45f4d)" style="fill: #1f77b4"/>
   </g>
   <g id="patch_102">
    <path d="M 395.240727 307.584
L 398.487273 307.584
L 398.487273 307.344906
L 395.240727 307.344906
z
" clip-path="url(#p5929a45f4d)" style="fill: #1f77b4"/>
   </g>
   <g id="matplotlib.axis_1">
    <g id="xtick_1">
     <g id="line2d_1">
      <defs>
       <path id="mcdb218290a" d="M 0 0
L 0 3.5
" style="stroke: #000000; stroke-width: 0.8"/>
      </defs>
      <g>
       <use xlink:href="#mcdb218290a" x="66.358166" y="307.584" style="stroke: #000000; stroke-width: 0.8"/>
      </g>
     </g>
     <g id="text_1">
      <!-- −3 -->
      <g transform="translate(58.987072 322.182437)scale(0.1 -0.1)">
       <defs>
        <path id="DejaVuSans-2212" d="M 678 2272
L 4684 2272
L 4684 1741
L 678 1741
L 678 2272
z
" transform="scale(0.015625)"/>
        <path id="DejaVuSans-33" d="M 2597 2516
Q 3050 2419 3304 2112
Q 3559 1806 3559 1356
Q 3559 666 3084 287
Q 2609 -91 1734 -91
Q 1441 -91 1130 -33
Q 819 25 488 141
L 488 750
Q 750 597 1062 519
Q 1375 441 1716 441
Q 2309 441 2620 675
Q 2931 909 2931 1356
Q 2931 1769 2642 2001
Q 2353 2234 1838 2234
L 1294 2234
L 1294 2753
L 1863 2753
Q 2328 2753 2575 2939
Q 2822 3125 2822 3475
Q 2822 3834 2567 4026
Q 2313 4219 1838 4219
Q 1578 4219 1281 4162
Q 984 4106 628 3988
L 628 4550
Q 988 4650 1302 4700
Q 1616 4750 1894 4750
Q 2613 4750 3031 4423
Q 3450 4097 3450 3541
Q 3450 3153 3228 2886
Q 3006 2619 2597 2516
z
" transform="scale(0.015625)"/>
       </defs>
       <use xlink:href="#DejaVuSans-2212"/>
       <use xlink:href="#DejaVuSans-33" x="83.789062"/>
      </g>
     </g>
    </g>
    <g id="xtick_2">
     <g id="line2d_2">
      <g>
       <use xlink:href="#mcdb218290a" x="122.582382" y="307.584" style="stroke: #000000; stroke-width: 0.8"/>
      </g>
     </g>
     <g id="text_2">
      <!-- −2 -->
      <g transform="translate(115.211289 322.182437)scale(0.1 -0.1)">
       <defs>
        <path id="DejaVuSans-32" d="M 1228 531
L 3431 531
L 3431 0
L 469 0
L 469 531
Q 828 903 1448 1529
Q 2069 2156 2228 2338
Q 2531 2678 2651 2914
Q 2772 3150 2772 3378
Q 2772 3750 2511 3984
Q 2250 4219 1831 4219
Q 1534 4219 1204 4116
Q 875 4013 500 3803
L 500 4441
Q 881 4594 1212 4672
Q 1544 4750 1819 4750
Q 2544 4750 2975 4387
Q 3406 4025 3406 3419
Q 3406 3131 3298 2873
Q 3191 2616 2906 2266
Q 2828 2175 2409 1742
Q 1991 1309 1228 531
z
" transform="scale(0.015625)"/>
       </defs>
       <use xlink:href="#DejaVuSans-2212"/>
       <use xlink:href="#DejaVuSans-32" x="83.789062"/>
      </g>
     </g>
    </g>
    <g id="xtick_3">
     <g id="line2d_3">
      <g>
       <use xlink:href="#mcdb218290a" x="178.806599" y="307.584" style="stroke: #000000; stroke-width: 0.8"/>
      </g>
     </g>
     <g id="text_3">
      <!-- −1 -->
      <g transform="translate(171.435505 322.182437)scale(0.1 -0.1)">
       <defs>
        <path id="DejaVuSans-31" d="M 794 531
L 1825 531
L 1825 4091
L 703 3866
L 703 4441
L 1819 4666
L 2450 4666
L 2450 531
L 3481 531
L 3481 0
L 794 0
L 794 531
z
" transform="scale(0.015625)"/>
       </defs>
       <use xlink:href="#DejaVuSans-2212"/>
       <use xlink:href="#DejaVuSans-31" x="83.789062"/>
      </g>
     </g>
    </g>
    <g id="xtick_4">
     <g id="line2d_4">
      <g>
       <use xlink:href="#mcdb218290a" x="235.030815" y="307.584" style="stroke: #000000; stroke-width: 0.8"/>
      </g>
     </g>
     <g id="text_4">
      <!-- 0 -->
      <g transform="translate(231.849565 322.182437)scale(0.1 -0.1)">
       <defs>
        <path id="DejaVuSans-30" d="M 2034 4250
Q 1547 4250 1301 3770
Q 1056 3291 1056 2328
Q 1056 1369 1301 889
Q 1547 409 2034 409
Q 2525 409 2770 889
Q 3016 1369 3016 2328
Q 3016 3291 2770 3770
Q 2525 4250 2034 4250
z
M 2034 4750
Q 2819 4750 3233 4129
Q 3647 3509 3647 2328
Q 3647 1150 3233 529
Q 2819 -91 2034 -91
Q 1250 -91 836 529
Q 422 1150 422 2328
Q 422 3509 836 4129
Q 1250 4750 2034 4750
z
" transform="scale(0.015625)"/>
       </defs>
       <use xlink:href="#DejaVuSans-30"/>
      </g>
     </g>
    </g>
    <g id="xtick_5">
     <g id="line2d_5">
      <g>
       <use xlink:href="#mcdb218290a" x="291.255032" y="307.584" style="stroke: #000000; stroke-width: 0.8"/>
      </g>
     </g>
     <g id="text_5">
      <!-- 1 -->
      <g transform="translate(288.073782 322.182437)scale(0.1 -0.1)">
       <use xlink:href="#DejaVuSans-31"/>
      </g>
     </g>
    </g>
    <g id="xtick_6">
     <g id="line2d_6">
      <g>
       <use xlink:href="#mcdb218290a" x="347.479248" y="307.584" style="stroke: #000000; stroke-width: 0.8"/>
      </g>
     </g>
     <g id="text_6">
      <!-- 2 -->
      <g transform="translate(344.297998 322.182437)scale(0.1 -0.1)">
       <use xlink:href="#DejaVuSans-32"/>
      </g>
     </g>
    </g>
    <g id="xtick_7">
     <g id="line2d_7">
      <g>
       <use xlink:href="#mcdb218290a" x="403.703465" y="307.584" style="stroke: #000000; stroke-width: 0.8"/>
      </g>
     </g>
     <g id="text_7">
      <!-- 3 -->
      <g transform="translate(400.522215 322.182437)scale(0.1 -0.1)">
       <use xlink:href="#DejaVuSans-33"/>
      </g>
     </g>
    </g>
   </g>
   <g id="matplotlib.axis_2">
    <g id="ytick_1">
     <g id="line2d_8">
      <defs>
       <path id="m28cbbb1bed" d="M 0 0
L -3.5 0
" style="stroke: #000000; stroke-width: 0.8"/>
      </defs>
      <g>
       <use xlink:href="#m28cbbb1bed" x="57.6" y="307.584" style="stroke: #000000; stroke-width: 0.8"/>
      </g>
     </g>
     <g id="text_8">
      <!-- 0.00 -->
      <g transform="translate(28.334375 311.383219)scale(0.1 -0.1)">
       <defs>
        <path id="DejaVuSans-2e" d="M 684 794
L 1344 794
L 1344 0
L 684 0
L 684 794
z
" transform="scale(0.015625)"/>
       </defs>
       <use xlink:href="#DejaVuSans-30"/>
       <use xlink:href="#DejaVuSans-2e" x="63.623047"/>
       <use xlink:href="#DejaVuSans-30" x="95.410156"/>
       <use xlink:href="#DejaVuSans-30" x="159.033203"/>
      </g>
     </g>
    </g>
    <g id="ytick_2">
     <g id="line2d_9">
      <g>
       <use xlink:href="#m28cbbb1bed" x="57.6" y="273.06904" style="stroke: #000000; stroke-width: 0.8"/>
      </g>
     </g>
     <g id="text_9">
      <!-- 0.25 -->
      <g transform="translate(28.334375 276.868258)scale(0.1 -0.1)">
       <defs>
        <path id="DejaVuSans-35" d="M 691 4666
L 3169 4666
L 3169 4134
L 1269 4134
L 1269 2991
Q 1406 3038 1543 3061
Q 1681 3084 1819 3084
Q 2600 3084 3056 2656
Q 3513 2228 3513 1497
Q 3513 744 3044 326
Q 2575 -91 1722 -91
Q 1428 -91 1123 -41
Q 819 9 494 109
L 494 744
Q 775 591 1075 516
Q 1375 441 1709 441
Q 2250 441 2565 725
Q 2881 1009 2881 1497
Q 2881 1984 2565 2268
Q 2250 2553 1709 2553
Q 1456 2553 1204 2497
Q 953 2441 691 2322
L 691 4666
z
" transform="scale(0.015625)"/>
       </defs>
       <use xlink:href="#DejaVuSans-30"/>
       <use xlink:href="#DejaVuSans-2e" x="63.623047"/>
       <use xlink:href="#DejaVuSans-32" x="95.410156"/>
       <use xlink:href="#DejaVuSans-35" x="159.033203"/>
      </g>
     </g>
    </g>
    <g id="ytick_3">
     <g id="line2d_10">
      <g>
       <use xlink:href="#m28cbbb1bed" x="57.6" y="238.554079" style="stroke: #000000; stroke-width: 0.8"/>
      </g>
     </g>
     <g id="text_10">
      <!-- 0.50 -->
      <g transform="translate(28.334375 242.353298)scale(0.1 -0.1)">
       <use xlink:href="#DejaVuSans-30"/>
       <use xlink:href="#DejaVuSans-2e" x="63.623047"/>
       <use xlink:href="#DejaVuSans-35" x="95.410156"/>
       <use xlink:href="#DejaVuSans-30" x="159.033203"/>
      </g>
     </g>
    </g>
    <g id="ytick_4">
     <g id="line2d_11">
      <g>
       <use xlink:href="#m28cbbb1bed" x="57.6" y="204.039119" style="stroke: #000000; stroke-width: 0.8"/>
      </g>
     </g>
     <g id="text_11">
      <!-- 0.75 -->
      <g transform="translate(28.334375 207.838338)scale(0.1 -0.1)">
       <defs>
        <path id="DejaVuSans-37" d="M 525 4666
L 3525 4666
L 3525 4397
L 1831 0
L 1172 0
L 2766 4134
L 525 4134
L 525 4666
z
" transform="scale(0.015625)"/>
       </defs>
       <use xlink:href="#DejaVuSans-30"/>
       <use xlink:href="#DejaVuSans-2e" x="63.623047"/>
       <use xlink:href="#DejaVuSans-37" x="95.410156"/>
       <use xlink:href="#DejaVuSans-35" x="159.033203"/>
      </g>
     </g>
    </g>
    <g id="ytick_5">
     <g id="line2d_12">
      <g>
       <use xlink:href="#m28cbbb1bed" x="57.6" y="169.524159" style="stroke: #000000; stroke-width: 0.8"/>
      </g>
     </g>
     <g id="text_12">
      <!-- 1.00 -->
      <g transform="translate(28.334375 173.323377)scale(0.1 -0.1)">
       <use xlink:href="#DejaVuSans-31"/>
       <use xlink:href="#DejaVuSans-2e" x="63.623047"/>
       <use xlink:href="#DejaVuSans-30" x="95.410156"/>
       <use xlink:href="#DejaVuSans-30" x="159.033203"/>
      </g>
     </g>
    </g>
    <g id="ytick_6">
     <g id="line2d_13">
      <g>
       <use xlink:href="#m28cbbb1bed" x="57.6" y="135.009198" style="stroke: #000000; stroke-width: 0.8"/>
      </g>
     </g>
     <g id="text_13">
      <!-- 1.25 -->
      <g transform="translate(28.334375 138.808417)scale(0.1 -0.1)">
       <use xlink:href="#DejaVuSans-31"/>
       <use xlink:href="#DejaVuSans-2e" x="63.623047"/>
       <use xlink:href="#DejaVuSans-32" x="95.410156"/>
       <use xlink:href="#DejaVuSans-35" x="159.033203"/>
      </g>
     </g>
    </g>
    <g id="ytick_7">
     <g id="line2d_14">
      <g>
       <use xlink:href="#m28cbbb1bed" x="57.6" y="100.494238" style="stroke: #000000; stroke-width: 0.8"/>
      </g>
     </g>
     <g id="text_14">
      <!-- 1.50 -->
      <g transform="translate(28.334375 104.293457)scale(0.1 -0.1)">
       <use xlink:href="#DejaVuSans-31"/>
       <use xlink:href="#DejaVuSans-2e" x="63.623047"/>
       <use xlink:href="#DejaVuSans-35" x="95.410156"/>
       <use xlink:href="#DejaVuSans-30" x="159.033203"/>
      </g>
     </g>
    </g>
    <g id="ytick_8">
     <g id="line2d_15">
      <g>
       <use xlink:href="#m28cbbb1bed" x="57.6" y="65.979277" style="stroke: #000000; stroke-width: 0.8"/>
      </g>
     </g>
     <g id="text_15">
      <!-- 1.75 -->
      <g transform="translate(28.334375 69.778496)scale(0.1 -0.1)">
       <use xlink:href="#DejaVuSans-31"/>
       <use xlink:href="#DejaVuSans-2e" x="63.623047"/>
       <use xlink:href="#DejaVuSans-37" x="95.410156"/>
       <use xlink:href="#DejaVuSans-35" x="159.033203"/>
      </g>
     </g>
    </g>
   </g>
   <g id="patch_103">
    <path d="M 57.6 307.584
L 57.6 41.472
" style="fill: none; stroke: #000000; stroke-width: 0.8; stroke-linejoin: miter; stroke-linecap: square"/>
   </g>
   <g id="patch_104">
    <path d="M 414.72 307.584
L 414.72 41.472
" style="fill: none; stroke: #000000; stroke-width: 0.8; stroke-linejoin: miter; stroke-linecap: square"/>
   </g>
   <g id="patch_105">
    <path d="M 57.6 307.584
L 414.72 307.584
" style="fill: none; stroke: #000000; stroke-width: 0.8; stroke-linejoin: miter; stroke-linecap: square"/>
   </g>
   <g id="patch_106">
    <path d="M 57.6 41.472
L 414.72 41.472
" style="fill: none; stroke: #000000; stroke-width: 0.8; stroke-linejoin: miter; stroke-linecap: square"/>
   </g>
   <g id="text_16">
    <!-- Errors, mean = 0.0 -->
    <g transform="translate(179.199375 35.472)scale(0.12 -0.12)">
     <defs>
      <path id="DejaVuSans-45" d="M 628 4666
L 3578 4666
L 3578 4134
L 1259 4134
L 1259 2753
L 3481 2753
L 3481 2222
L 1259 2222
L 1259 531
L 3634 531
L 3634 0
L 628 0
L 628 4666
z
" transform="scale(0.015625)"/>
      <path id="DejaVuSans-72" d="M 2631 2963
Q 2534 3019 2420 3045
Q 2306 3072 2169 3072
Q 1681 3072 1420 2755
Q 1159 2438 1159 1844
L 1159 0
L 581 0
L 581 3500
L 1159 3500
L 1159 2956
Q 1341 3275 1631 3429
Q 1922 3584 2338 3584
Q 2397 3584 2469 3576
Q 2541 3569 2628 3553
L 2631 2963
z
" transform="scale(0.015625)"/>
      <path id="DejaVuSans-6f" d="M 1959 3097
Q 1497 3097 1228 2736
Q 959 2375 959 1747
Q 959 1119 1226 758
Q 1494 397 1959 397
Q 2419 397 2687 759
Q 2956 1122 2956 1747
Q 2956 2369 2687 2733
Q 2419 3097 1959 3097
z
M 1959 3584
Q 2709 3584 3137 3096
Q 3566 2609 3566 1747
Q 3566 888 3137 398
Q 2709 -91 1959 -91
Q 1206 -91 779 398
Q 353 888 353 1747
Q 353 2609 779 3096
Q 1206 3584 1959 3584
z
" transform="scale(0.015625)"/>
      <path id="DejaVuSans-73" d="M 2834 3397
L 2834 2853
Q 2591 2978 2328 3040
Q 2066 3103 1784 3103
Q 1356 3103 1142 2972
Q 928 2841 928 2578
Q 928 2378 1081 2264
Q 1234 2150 1697 2047
L 1894 2003
Q 2506 1872 2764 1633
Q 3022 1394 3022 966
Q 3022 478 2636 193
Q 2250 -91 1575 -91
Q 1294 -91 989 -36
Q 684 19 347 128
L 347 722
Q 666 556 975 473
Q 1284 391 1588 391
Q 1994 391 2212 530
Q 2431 669 2431 922
Q 2431 1156 2273 1281
Q 2116 1406 1581 1522
L 1381 1569
Q 847 1681 609 1914
Q 372 2147 372 2553
Q 372 3047 722 3315
Q 1072 3584 1716 3584
Q 2034 3584 2315 3537
Q 2597 3491 2834 3397
z
" transform="scale(0.015625)"/>
      <path id="DejaVuSans-2c" d="M 750 794
L 1409 794
L 1409 256
L 897 -744
L 494 -744
L 750 256
L 750 794
z
" transform="scale(0.015625)"/>
      <path id="DejaVuSans-20" transform="scale(0.015625)"/>
      <path id="DejaVuSans-6d" d="M 3328 2828
Q 3544 3216 3844 3400
Q 4144 3584 4550 3584
Q 5097 3584 5394 3201
Q 5691 2819 5691 2113
L 5691 0
L 5113 0
L 5113 2094
Q 5113 2597 4934 2840
Q 4756 3084 4391 3084
Q 3944 3084 3684 2787
Q 3425 2491 3425 1978
L 3425 0
L 2847 0
L 2847 2094
Q 2847 2600 2669 2842
Q 2491 3084 2119 3084
Q 1678 3084 1418 2786
Q 1159 2488 1159 1978
L 1159 0
L 581 0
L 581 3500
L 1159 3500
L 1159 2956
Q 1356 3278 1631 3431
Q 1906 3584 2284 3584
Q 2666 3584 2933 3390
Q 3200 3197 3328 2828
z
" transform="scale(0.015625)"/>
      <path id="DejaVuSans-65" d="M 3597 1894
L 3597 1613
L 953 1613
Q 991 1019 1311 708
Q 1631 397 2203 397
Q 2534 397 2845 478
Q 3156 559 3463 722
L 3463 178
Q 3153 47 2828 -22
Q 2503 -91 2169 -91
Q 1331 -91 842 396
Q 353 884 353 1716
Q 353 2575 817 3079
Q 1281 3584 2069 3584
Q 2775 3584 3186 3129
Q 3597 2675 3597 1894
z
M 3022 2063
Q 3016 2534 2758 2815
Q 2500 3097 2075 3097
Q 1594 3097 1305 2825
Q 1016 2553 972 2059
L 3022 2063
z
" transform="scale(0.015625)"/>
      <path id="DejaVuSans-61" d="M 2194 1759
Q 1497 1759 1228 1600
Q 959 1441 959 1056
Q 959 750 1161 570
Q 1363 391 1709 391
Q 2188 391 2477 730
Q 2766 1069 2766 1631
L 2766 1759
L 2194 1759
z
M 3341 1997
L 3341 0
L 2766 0
L 2766 531
Q 2569 213 2275 61
Q 1981 -91 1556 -91
Q 1019 -91 701 211
Q 384 513 384 1019
Q 384 1609 779 1909
Q 1175 2209 1959 2209
L 2766 2209
L 2766 2266
Q 2766 2663 2505 2880
Q 2244 3097 1772 3097
Q 1472 3097 1187 3025
Q 903 2953 641 2809
L 641 3341
Q 956 3463 1253 3523
Q 1550 3584 1831 3584
Q 2591 3584 2966 3190
Q 3341 2797 3341 1997
z
" transform="scale(0.015625)"/>
      <path id="DejaVuSans-6e" d="M 3513 2113
L 3513 0
L 2938 0
L 2938 2094
Q 2938 2591 2744 2837
Q 2550 3084 2163 3084
Q 1697 3084 1428 2787
Q 1159 2491 1159 1978
L 1159 0
L 581 0
L 581 3500
L 1159 3500
L 1159 2956
Q 1366 3272 1645 3428
Q 1925 3584 2291 3584
Q 2894 3584 3203 3211
Q 3513 2838 3513 2113
z
" transform="scale(0.015625)"/>
      <path id="DejaVuSans-3d" d="M 678 2906
L 4684 2906
L 4684 2381
L 678 2381
L 678 2906
z
M 678 1631
L 4684 1631
L 4684 1100
L 678 1100
L 678 1631
z
" transform="scale(0.015625)"/>
     </defs>
     <use xlink:href="#DejaVuSans-45"/>
     <use xlink:href="#DejaVuSans-72" x="63.183594"/>
     <use xlink:href="#DejaVuSans-72" x="102.546875"/>
     <use xlink:href="#DejaVuSans-6f" x="141.410156"/>
     <use xlink:href="#DejaVuSans-72" x="202.591797"/>
     <use xlink:href="#DejaVuSans-73" x="243.705078"/>
     <use xlink:href="#DejaVuSans-2c" x="295.804688"/>
     <use xlink:href="#DejaVuSans-20" x="327.591797"/>
     <use xlink:href="#DejaVuSans-6d" x="359.378906"/>
     <use xlink:href="#DejaVuSans-65" x="456.791016"/>
     <use xlink:href="#DejaVuSans-61" x="518.314453"/>
     <use xlink:href="#DejaVuSans-6e" x="579.59375"/>
     <use xlink:href="#DejaVuSans-20" x="642.972656"/>
     <use xlink:href="#DejaVuSans-3d" x="674.759766"/>
     <use xlink:href="#DejaVuSans-20" x="758.548828"/>
     <use xlink:href="#DejaVuSans-30" x="790.335938"/>
     <use xlink:href="#DejaVuSans-2e" x="853.958984"/>
     <use xlink:href="#DejaVuSans-30" x="885.746094"/>
    </g>
   </g>
  </g>
 </g>
 <defs>
  <clipPath id="p5929a45f4d">
   <rect x="57.6" y="41.472" width="357.12" height="266.112"/>
  </clipPath>
 </defs>
</svg>
