<?xml version="1.0" encoding="utf-8" standalone="no"?>
<!DOCTYPE svg PUBLIC "-//W3C//DTD SVG 1.1//EN"
  "http://www.w3.org/Graphics/SVG/1.1/DTD/svg11.dtd">
<svg xmlns:xlink="http://www.w3.org/1999/xlink" width="1152pt" height="864pt" viewBox="0 0 1152 864" xmlns="http://www.w3.org/2000/svg" version="1.1">
 <metadata>
  <rdf:RDF xmlns:dc="http://purl.org/dc/elements/1.1/" xmlns:cc="http://creativecommons.org/ns#" xmlns:rdf="http://www.w3.org/1999/02/22-rdf-syntax-ns#">
   <cc:Work>
    <dc:type rdf:resource="http://purl.org/dc/dcmitype/StillImage"/>
    <dc:date>2022-10-28T12:31:19.203213</dc:date>
    <dc:format>image/svg+xml</dc:format>
    <dc:creator>
     <cc:Agent>
      <dc:title>Matplotlib v3.5.1, https://matplotlib.org/</dc:title>
     </cc:Agent>
    </dc:creator>
   </cc:Work>
  </rdf:RDF>
 </metadata>
 <defs>
  <style type="text/css">*{stroke-linejoin: round; stroke-linecap: butt}</style>
 </defs>
 <g id="figure_1">
  <g id="patch_1">
   <path d="M 0 864
L 1152 864
L 1152 0
L 0 0
L 0 864
z
" style="fill: none"/>
  </g>
  <g id="axes_1">
   <g id="patch_2">
    <path d="M 144 400.189091
L 549.818182 400.189091
L 549.818182 103.68
L 144 103.68
z
" style="fill: #ffffff"/>
   </g>
   <g id="matplotlib.axis_1">
    <g id="xtick_1">
     <g id="line2d_1">
      <defs>
       <path id="m5d38197b16" d="M 0 0
L 0 3.5
" style="stroke: #000000; stroke-width: 0.8"/>
      </defs>
      <g>
       <use xlink:href="#m5d38197b16" x="199.338843" y="400.189091" style="stroke: #000000; stroke-width: 0.8"/>
      </g>
     </g>
     <g id="text_1">
      <!-- −4 -->
      <g transform="translate(191.967749 414.787528)scale(0.1 -0.1)">
       <defs>
        <path id="DejaVuSans-2212" d="M 678 2272
L 4684 2272
L 4684 1741
L 678 1741
L 678 2272
z
" transform="scale(0.015625)"/>
        <path id="DejaVuSans-34" d="M 2419 4116
L 825 1625
L 2419 1625
L 2419 4116
z
M 2253 4666
L 3047 4666
L 3047 1625
L 3713 1625
L 3713 1100
L 3047 1100
L 3047 0
L 2419 0
L 2419 1100
L 313 1100
L 313 1709
L 2253 4666
z
" transform="scale(0.015625)"/>
       </defs>
       <use xlink:href="#DejaVuSans-2212"/>
       <use xlink:href="#DejaVuSans-34" x="83.789062"/>
      </g>
     </g>
    </g>
    <g id="xtick_2">
     <g id="line2d_2">
      <g>
       <use xlink:href="#m5d38197b16" x="273.123967" y="400.189091" style="stroke: #000000; stroke-width: 0.8"/>
      </g>
     </g>
     <g id="text_2">
      <!-- −2 -->
      <g transform="translate(265.752873 414.787528)scale(0.1 -0.1)">
       <defs>
        <path id="DejaVuSans-32" d="M 1228 531
L 3431 531
L 3431 0
L 469 0
L 469 531
Q 828 903 1448 1529
Q 2069 2156 2228 2338
Q 2531 2678 2651 2914
Q 2772 3150 2772 3378
Q 2772 3750 2511 3984
Q 2250 4219 1831 4219
Q 1534 4219 1204 4116
Q 875 4013 500 3803
L 500 4441
Q 881 4594 1212 4672
Q 1544 4750 1819 4750
Q 2544 4750 2975 4387
Q 3406 4025 3406 3419
Q 3406 3131 3298 2873
Q 3191 2616 2906 2266
Q 2828 2175 2409 1742
Q 1991 1309 1228 531
z
" transform="scale(0.015625)"/>
       </defs>
       <use xlink:href="#DejaVuSans-2212"/>
       <use xlink:href="#DejaVuSans-32" x="83.789062"/>
      </g>
     </g>
    </g>
    <g id="xtick_3">
     <g id="line2d_3">
      <g>
       <use xlink:href="#m5d38197b16" x="346.909091" y="400.189091" style="stroke: #000000; stroke-width: 0.8"/>
      </g>
     </g>
     <g id="text_3">
      <!-- 0 -->
      <g transform="translate(343.727841 414.787528)scale(0.1 -0.1)">
       <defs>
        <path id="DejaVuSans-30" d="M 2034 4250
Q 1547 4250 1301 3770
Q 1056 3291 1056 2328
Q 1056 1369 1301 889
Q 1547 409 2034 409
Q 2525 409 2770 889
Q 3016 1369 3016 2328
Q 3016 3291 2770 3770
Q 2525 4250 2034 4250
z
M 2034 4750
Q 2819 4750 3233 4129
Q 3647 3509 3647 2328
Q 3647 1150 3233 529
Q 2819 -91 2034 -91
Q 1250 -91 836 529
Q 422 1150 422 2328
Q 422 3509 836 4129
Q 1250 4750 2034 4750
z
" transform="scale(0.015625)"/>
       </defs>
       <use xlink:href="#DejaVuSans-30"/>
      </g>
     </g>
    </g>
    <g id="xtick_4">
     <g id="line2d_4">
      <g>
       <use xlink:href="#m5d38197b16" x="420.694215" y="400.189091" style="stroke: #000000; stroke-width: 0.8"/>
      </g>
     </g>
     <g id="text_4">
      <!-- 2 -->
      <g transform="translate(417.512965 414.787528)scale(0.1 -0.1)">
       <use xlink:href="#DejaVuSans-32"/>
      </g>
     </g>
    </g>
    <g id="xtick_5">
     <g id="line2d_5">
      <g>
       <use xlink:href="#m5d38197b16" x="494.479339" y="400.189091" style="stroke: #000000; stroke-width: 0.8"/>
      </g>
     </g>
     <g id="text_5">
      <!-- 4 -->
      <g transform="translate(491.298089 414.787528)scale(0.1 -0.1)">
       <use xlink:href="#DejaVuSans-34"/>
      </g>
     </g>
    </g>
   </g>
   <g id="matplotlib.axis_2">
    <g id="ytick_1">
     <g id="line2d_6">
      <defs>
       <path id="m13e6eae5ec" d="M 0 0
L -3.5 0
" style="stroke: #000000; stroke-width: 0.8"/>
      </defs>
      <g>
       <use xlink:href="#m13e6eae5ec" x="144" y="386.71141" style="stroke: #000000; stroke-width: 0.8"/>
      </g>
     </g>
     <g id="text_6">
      <!-- 0.0 -->
      <g transform="translate(121.096875 390.510629)scale(0.1 -0.1)">
       <defs>
        <path id="DejaVuSans-2e" d="M 684 794
L 1344 794
L 1344 0
L 684 0
L 684 794
z
" transform="scale(0.015625)"/>
       </defs>
       <use xlink:href="#DejaVuSans-30"/>
       <use xlink:href="#DejaVuSans-2e" x="63.623047"/>
       <use xlink:href="#DejaVuSans-30" x="95.410156"/>
      </g>
     </g>
    </g>
    <g id="ytick_2">
     <g id="line2d_7">
      <g>
       <use xlink:href="#m13e6eae5ec" x="144" y="332.80065" style="stroke: #000000; stroke-width: 0.8"/>
      </g>
     </g>
     <g id="text_7">
      <!-- 0.2 -->
      <g transform="translate(121.096875 336.599869)scale(0.1 -0.1)">
       <use xlink:href="#DejaVuSans-30"/>
       <use xlink:href="#DejaVuSans-2e" x="63.623047"/>
       <use xlink:href="#DejaVuSans-32" x="95.410156"/>
      </g>
     </g>
    </g>
    <g id="ytick_3">
     <g id="line2d_8">
      <g>
       <use xlink:href="#m13e6eae5ec" x="144" y="278.88989" style="stroke: #000000; stroke-width: 0.8"/>
      </g>
     </g>
     <g id="text_8">
      <!-- 0.4 -->
      <g transform="translate(121.096875 282.689108)scale(0.1 -0.1)">
       <use xlink:href="#DejaVuSans-30"/>
       <use xlink:href="#DejaVuSans-2e" x="63.623047"/>
       <use xlink:href="#DejaVuSans-34" x="95.410156"/>
      </g>
     </g>
    </g>
    <g id="ytick_4">
     <g id="line2d_9">
      <g>
       <use xlink:href="#m13e6eae5ec" x="144" y="224.979129" style="stroke: #000000; stroke-width: 0.8"/>
      </g>
     </g>
     <g id="text_9">
      <!-- 0.6 -->
      <g transform="translate(121.096875 228.778348)scale(0.1 -0.1)">
       <defs>
        <path id="DejaVuSans-36" d="M 2113 2584
Q 1688 2584 1439 2293
Q 1191 2003 1191 1497
Q 1191 994 1439 701
Q 1688 409 2113 409
Q 2538 409 2786 701
Q 3034 994 3034 1497
Q 3034 2003 2786 2293
Q 2538 2584 2113 2584
z
M 3366 4563
L 3366 3988
Q 3128 4100 2886 4159
Q 2644 4219 2406 4219
Q 1781 4219 1451 3797
Q 1122 3375 1075 2522
Q 1259 2794 1537 2939
Q 1816 3084 2150 3084
Q 2853 3084 3261 2657
Q 3669 2231 3669 1497
Q 3669 778 3244 343
Q 2819 -91 2113 -91
Q 1303 -91 875 529
Q 447 1150 447 2328
Q 447 3434 972 4092
Q 1497 4750 2381 4750
Q 2619 4750 2861 4703
Q 3103 4656 3366 4563
z
" transform="scale(0.015625)"/>
       </defs>
       <use xlink:href="#DejaVuSans-30"/>
       <use xlink:href="#DejaVuSans-2e" x="63.623047"/>
       <use xlink:href="#DejaVuSans-36" x="95.410156"/>
      </g>
     </g>
    </g>
    <g id="ytick_5">
     <g id="line2d_10">
      <g>
       <use xlink:href="#m13e6eae5ec" x="144" y="171.068369" style="stroke: #000000; stroke-width: 0.8"/>
      </g>
     </g>
     <g id="text_10">
      <!-- 0.8 -->
      <g transform="translate(121.096875 174.867588)scale(0.1 -0.1)">
       <defs>
        <path id="DejaVuSans-38" d="M 2034 2216
Q 1584 2216 1326 1975
Q 1069 1734 1069 1313
Q 1069 891 1326 650
Q 1584 409 2034 409
Q 2484 409 2743 651
Q 3003 894 3003 1313
Q 3003 1734 2745 1975
Q 2488 2216 2034 2216
z
M 1403 2484
Q 997 2584 770 2862
Q 544 3141 544 3541
Q 544 4100 942 4425
Q 1341 4750 2034 4750
Q 2731 4750 3128 4425
Q 3525 4100 3525 3541
Q 3525 3141 3298 2862
Q 3072 2584 2669 2484
Q 3125 2378 3379 2068
Q 3634 1759 3634 1313
Q 3634 634 3220 271
Q 2806 -91 2034 -91
Q 1263 -91 848 271
Q 434 634 434 1313
Q 434 1759 690 2068
Q 947 2378 1403 2484
z
M 1172 3481
Q 1172 3119 1398 2916
Q 1625 2713 2034 2713
Q 2441 2713 2670 2916
Q 2900 3119 2900 3481
Q 2900 3844 2670 4047
Q 2441 4250 2034 4250
Q 1625 4250 1398 4047
Q 1172 3844 1172 3481
z
" transform="scale(0.015625)"/>
       </defs>
       <use xlink:href="#DejaVuSans-30"/>
       <use xlink:href="#DejaVuSans-2e" x="63.623047"/>
       <use xlink:href="#DejaVuSans-38" x="95.410156"/>
      </g>
     </g>
    </g>
    <g id="ytick_6">
     <g id="line2d_11">
      <g>
       <use xlink:href="#m13e6eae5ec" x="144" y="117.157609" style="stroke: #000000; stroke-width: 0.8"/>
      </g>
     </g>
     <g id="text_11">
      <!-- 1.0 -->
      <g transform="translate(121.096875 120.956827)scale(0.1 -0.1)">
       <defs>
        <path id="DejaVuSans-31" d="M 794 531
L 1825 531
L 1825 4091
L 703 3866
L 703 4441
L 1819 4666
L 2450 4666
L 2450 531
L 3481 531
L 3481 0
L 794 0
L 794 531
z
" transform="scale(0.015625)"/>
       </defs>
       <use xlink:href="#DejaVuSans-31"/>
       <use xlink:href="#DejaVuSans-2e" x="63.623047"/>
       <use xlink:href="#DejaVuSans-30" x="95.410156"/>
      </g>
     </g>
    </g>
   </g>
   <g id="line2d_12">
    <path d="M 162.446281 386.711333
L 223.588935 386.599582
L 236.095639 386.351912
L 244.426063 385.973976
L 250.882326 385.46546
L 256.250247 384.825117
L 260.909824 384.049634
L 265.071347 383.134933
L 268.86763 382.07531
L 272.387215 380.863915
L 275.696511 379.490943
L 278.843478 377.945234
L 281.868698 376.211488
L 284.801686 374.273557
L 287.668267 372.111659
L 290.490576 369.702742
L 293.28706 367.021203
L 296.076166 364.035823
L 298.87265 360.713641
L 301.694959 357.011507
L 304.557851 352.884502
L 307.476082 348.282142
L 310.468098 343.142046
L 313.556037 337.387903
L 316.762032 330.935601
L 320.119289 323.670543
L 323.675768 315.434101
L 327.501565 306.000288
L 331.711048 295.012839
L 336.547711 281.74402
L 342.730966 264.087146
L 358.971235 217.391625
L 363.859548 204.211054
L 368.098546 193.404553
L 371.950168 184.18108
L 375.536161 176.159422
L 378.926621 169.11029
L 382.16582 162.879899
L 385.286962 157.350633
L 388.315872 152.429921
L 391.274685 148.041176
L 394.178159 144.126651
L 397.044739 140.630101
L 399.892874 137.502934
L 402.733629 134.710645
L 405.589142 132.213173
L 408.474169 129.983467
L 411.410847 127.993727
L 414.42131 126.221986
L 417.535073 124.647566
L 420.78534 123.254134
L 424.212694 122.02818
L 427.868783 120.958519
L 431.827395 120.034823
L 436.18445 119.250138
L 441.083831 118.598361
L 446.757964 118.074109
L 453.601602 117.673567
L 462.415324 117.392501
L 475.242996 117.225546
L 500.702807 117.161738
L 531.371901 117.157686
L 531.371901 117.157686
" clip-path="url(#p60ad80bfa2)" style="fill: none; stroke: #808080; stroke-width: 3; stroke-linecap: square"/>
   </g>
   <g id="line2d_13">
    <path d="M 162.446281 386.711405
L 241.972683 386.600263
L 254.505211 386.353086
L 262.846703 385.975551
L 269.306655 385.467621
L 274.678266 384.827715
L 279.341533 384.05244
L 283.503055 383.138559
L 287.299338 382.079842
L 290.818923 380.869435
L 294.128219 379.497533
L 297.275186 377.952976
L 300.300407 376.220464
L 303.233395 374.283851
L 306.099975 372.123357
L 308.922285 369.71593
L 311.718769 367.03597
L 314.507874 364.052259
L 317.304358 360.731834
L 320.126668 357.031547
L 322.989559 352.906475
L 325.90779 348.30613
L 328.899807 343.16812
L 331.984056 337.42327
L 335.190051 330.973715
L 338.547308 323.71143
L 342.103787 315.477751
L 345.925894 306.055996
L 350.135378 295.071611
L 354.968352 281.815861
L 361.140539 264.193456
L 377.458282 217.279001
L 382.339217 204.123499
L 386.574526 193.331166
L 390.422458 184.120879
L 394.004762 176.111286
L 397.391533 169.073033
L 400.630732 162.845509
L 403.751874 157.319028
L 406.780784 152.401002
L 409.739597 148.014832
L 412.643071 144.10276
L 415.509651 140.60854
L 418.357786 137.483578
L 421.198541 134.693367
L 424.054054 132.197851
L 426.939081 129.969979
L 429.875759 127.981954
L 432.886222 126.211812
L 435.999985 124.63888
L 439.250252 123.246825
L 442.677606 122.022138
L 446.337384 120.952667
L 450.299685 120.029466
L 454.66043 119.245511
L 459.567189 118.594209
L 465.245011 118.071063
L 472.096029 117.671427
L 480.924507 117.391141
L 493.789072 117.224863
L 519.407523 117.161613
L 531.371901 117.158525
L 531.371901 117.158525
" clip-path="url(#p60ad80bfa2)" style="fill: none; stroke: #1f77b4; stroke-width: 1.5; stroke-linecap: square"/>
   </g>
   <g id="line2d_14">
    <path d="M 356.130479 225.332795
L 356.130479 278.546126
" clip-path="url(#p60ad80bfa2)" style="fill: none; stroke: #ff0000; stroke-width: 1.5; stroke-linecap: square"/>
   </g>
   <g id="patch_3">
    <path d="M 144 400.189091
L 144 103.68
" style="fill: none; stroke: #000000; stroke-width: 0.8; stroke-linejoin: miter; stroke-linecap: square"/>
   </g>
   <g id="patch_4">
    <path d="M 549.818182 400.189091
L 549.818182 103.68
" style="fill: none; stroke: #000000; stroke-width: 0.8; stroke-linejoin: miter; stroke-linecap: square"/>
   </g>
   <g id="patch_5">
    <path d="M 144 400.189091
L 549.818182 400.189091
" style="fill: none; stroke: #000000; stroke-width: 0.8; stroke-linejoin: miter; stroke-linecap: square"/>
   </g>
   <g id="patch_6">
    <path d="M 144 103.68
L 549.818182 103.68
" style="fill: none; stroke: #000000; stroke-width: 0.8; stroke-linejoin: miter; stroke-linecap: square"/>
   </g>
   <g id="text_12">
    <g id="patch_7">
     <path d="M 370.61676 150.568614
L 474.486135 150.568614
L 474.486135 131.034864
L 370.61676 131.034864
z
" style="fill: #ffffff; opacity: 0.9; stroke: #ff0000; stroke-linejoin: miter"/>
    </g>
    <!-- d-statistic = 0.2 -->
    <g transform="translate(374.57676 144.112989)scale(0.12 -0.12)">
     <defs>
      <path id="DejaVuSans-64" d="M 2906 2969
L 2906 4863
L 3481 4863
L 3481 0
L 2906 0
L 2906 525
Q 2725 213 2448 61
Q 2172 -91 1784 -91
Q 1150 -91 751 415
Q 353 922 353 1747
Q 353 2572 751 3078
Q 1150 3584 1784 3584
Q 2172 3584 2448 3432
Q 2725 3281 2906 2969
z
M 947 1747
Q 947 1113 1208 752
Q 1469 391 1925 391
Q 2381 391 2643 752
Q 2906 1113 2906 1747
Q 2906 2381 2643 2742
Q 2381 3103 1925 3103
Q 1469 3103 1208 2742
Q 947 2381 947 1747
z
" transform="scale(0.015625)"/>
      <path id="DejaVuSans-2d" d="M 313 2009
L 1997 2009
L 1997 1497
L 313 1497
L 313 2009
z
" transform="scale(0.015625)"/>
      <path id="DejaVuSans-73" d="M 2834 3397
L 2834 2853
Q 2591 2978 2328 3040
Q 2066 3103 1784 3103
Q 1356 3103 1142 2972
Q 928 2841 928 2578
Q 928 2378 1081 2264
Q 1234 2150 1697 2047
L 1894 2003
Q 2506 1872 2764 1633
Q 3022 1394 3022 966
Q 3022 478 2636 193
Q 2250 -91 1575 -91
Q 1294 -91 989 -36
Q 684 19 347 128
L 347 722
Q 666 556 975 473
Q 1284 391 1588 391
Q 1994 391 2212 530
Q 2431 669 2431 922
Q 2431 1156 2273 1281
Q 2116 1406 1581 1522
L 1381 1569
Q 847 1681 609 1914
Q 372 2147 372 2553
Q 372 3047 722 3315
Q 1072 3584 1716 3584
Q 2034 3584 2315 3537
Q 2597 3491 2834 3397
z
" transform="scale(0.015625)"/>
      <path id="DejaVuSans-74" d="M 1172 4494
L 1172 3500
L 2356 3500
L 2356 3053
L 1172 3053
L 1172 1153
Q 1172 725 1289 603
Q 1406 481 1766 481
L 2356 481
L 2356 0
L 1766 0
Q 1100 0 847 248
Q 594 497 594 1153
L 594 3053
L 172 3053
L 172 3500
L 594 3500
L 594 4494
L 1172 4494
z
" transform="scale(0.015625)"/>
      <path id="DejaVuSans-61" d="M 2194 1759
Q 1497 1759 1228 1600
Q 959 1441 959 1056
Q 959 750 1161 570
Q 1363 391 1709 391
Q 2188 391 2477 730
Q 2766 1069 2766 1631
L 2766 1759
L 2194 1759
z
M 3341 1997
L 3341 0
L 2766 0
L 2766 531
Q 2569 213 2275 61
Q 1981 -91 1556 -91
Q 1019 -91 701 211
Q 384 513 384 1019
Q 384 1609 779 1909
Q 1175 2209 1959 2209
L 2766 2209
L 2766 2266
Q 2766 2663 2505 2880
Q 2244 3097 1772 3097
Q 1472 3097 1187 3025
Q 903 2953 641 2809
L 641 3341
Q 956 3463 1253 3523
Q 1550 3584 1831 3584
Q 2591 3584 2966 3190
Q 3341 2797 3341 1997
z
" transform="scale(0.015625)"/>
      <path id="DejaVuSans-69" d="M 603 3500
L 1178 3500
L 1178 0
L 603 0
L 603 3500
z
M 603 4863
L 1178 4863
L 1178 4134
L 603 4134
L 603 4863
z
" transform="scale(0.015625)"/>
      <path id="DejaVuSans-63" d="M 3122 3366
L 3122 2828
Q 2878 2963 2633 3030
Q 2388 3097 2138 3097
Q 1578 3097 1268 2742
Q 959 2388 959 1747
Q 959 1106 1268 751
Q 1578 397 2138 397
Q 2388 397 2633 464
Q 2878 531 3122 666
L 3122 134
Q 2881 22 2623 -34
Q 2366 -91 2075 -91
Q 1284 -91 818 406
Q 353 903 353 1747
Q 353 2603 823 3093
Q 1294 3584 2113 3584
Q 2378 3584 2631 3529
Q 2884 3475 3122 3366
z
" transform="scale(0.015625)"/>
      <path id="DejaVuSans-20" transform="scale(0.015625)"/>
      <path id="DejaVuSans-3d" d="M 678 2906
L 4684 2906
L 4684 2381
L 678 2381
L 678 2906
z
M 678 1631
L 4684 1631
L 4684 1100
L 678 1100
L 678 1631
z
" transform="scale(0.015625)"/>
     </defs>
     <use xlink:href="#DejaVuSans-64"/>
     <use xlink:href="#DejaVuSans-2d" x="63.476562"/>
     <use xlink:href="#DejaVuSans-73" x="99.560547"/>
     <use xlink:href="#DejaVuSans-74" x="151.660156"/>
     <use xlink:href="#DejaVuSans-61" x="190.869141"/>
     <use xlink:href="#DejaVuSans-74" x="252.148438"/>
     <use xlink:href="#DejaVuSans-69" x="291.357422"/>
     <use xlink:href="#DejaVuSans-73" x="319.140625"/>
     <use xlink:href="#DejaVuSans-74" x="371.240234"/>
     <use xlink:href="#DejaVuSans-69" x="410.449219"/>
     <use xlink:href="#DejaVuSans-63" x="438.232422"/>
     <use xlink:href="#DejaVuSans-20" x="493.212891"/>
     <use xlink:href="#DejaVuSans-3d" x="525"/>
     <use xlink:href="#DejaVuSans-20" x="608.789062"/>
     <use xlink:href="#DejaVuSans-30" x="640.576172"/>
     <use xlink:href="#DejaVuSans-2e" x="704.199219"/>
     <use xlink:href="#DejaVuSans-32" x="735.986328"/>
    </g>
   </g>
   <g id="legend_1">
    <g id="patch_8">
     <path d="M 151 141.03625
L 249.285937 141.03625
Q 251.285937 141.03625 251.285937 139.03625
L 251.285937 110.68
Q 251.285937 108.68 249.285937 108.68
L 151 108.68
Q 149 108.68 149 110.68
L 149 139.03625
Q 149 141.03625 151 141.03625
z
" style="fill: #ffffff; opacity: 0.8; stroke: #cccccc; stroke-linejoin: miter"/>
    </g>
    <g id="line2d_15">
     <path d="M 153 116.778437
L 163 116.778437
L 173 116.778437
" style="fill: none; stroke: #808080; stroke-width: 3; stroke-linecap: square"/>
    </g>
    <g id="text_13">
     <!-- cdf reference -->
     <g transform="translate(181 120.278437)scale(0.1 -0.1)">
      <defs>
       <path id="DejaVuSans-66" d="M 2375 4863
L 2375 4384
L 1825 4384
Q 1516 4384 1395 4259
Q 1275 4134 1275 3809
L 1275 3500
L 2222 3500
L 2222 3053
L 1275 3053
L 1275 0
L 697 0
L 697 3053
L 147 3053
L 147 3500
L 697 3500
L 697 3744
Q 697 4328 969 4595
Q 1241 4863 1831 4863
L 2375 4863
z
" transform="scale(0.015625)"/>
       <path id="DejaVuSans-72" d="M 2631 2963
Q 2534 3019 2420 3045
Q 2306 3072 2169 3072
Q 1681 3072 1420 2755
Q 1159 2438 1159 1844
L 1159 0
L 581 0
L 581 3500
L 1159 3500
L 1159 2956
Q 1341 3275 1631 3429
Q 1922 3584 2338 3584
Q 2397 3584 2469 3576
Q 2541 3569 2628 3553
L 2631 2963
z
" transform="scale(0.015625)"/>
       <path id="DejaVuSans-65" d="M 3597 1894
L 3597 1613
L 953 1613
Q 991 1019 1311 708
Q 1631 397 2203 397
Q 2534 397 2845 478
Q 3156 559 3463 722
L 3463 178
Q 3153 47 2828 -22
Q 2503 -91 2169 -91
Q 1331 -91 842 396
Q 353 884 353 1716
Q 353 2575 817 3079
Q 1281 3584 2069 3584
Q 2775 3584 3186 3129
Q 3597 2675 3597 1894
z
M 3022 2063
Q 3016 2534 2758 2815
Q 2500 3097 2075 3097
Q 1594 3097 1305 2825
Q 1016 2553 972 2059
L 3022 2063
z
" transform="scale(0.015625)"/>
       <path id="DejaVuSans-6e" d="M 3513 2113
L 3513 0
L 2938 0
L 2938 2094
Q 2938 2591 2744 2837
Q 2550 3084 2163 3084
Q 1697 3084 1428 2787
Q 1159 2491 1159 1978
L 1159 0
L 581 0
L 581 3500
L 1159 3500
L 1159 2956
Q 1366 3272 1645 3428
Q 1925 3584 2291 3584
Q 2894 3584 3203 3211
Q 3513 2838 3513 2113
z
" transform="scale(0.015625)"/>
      </defs>
      <use xlink:href="#DejaVuSans-63"/>
      <use xlink:href="#DejaVuSans-64" x="54.980469"/>
      <use xlink:href="#DejaVuSans-66" x="118.457031"/>
      <use xlink:href="#DejaVuSans-20" x="153.662109"/>
      <use xlink:href="#DejaVuSans-72" x="185.449219"/>
      <use xlink:href="#DejaVuSans-65" x="224.3125"/>
      <use xlink:href="#DejaVuSans-66" x="285.835938"/>
      <use xlink:href="#DejaVuSans-65" x="321.041016"/>
      <use xlink:href="#DejaVuSans-72" x="382.564453"/>
      <use xlink:href="#DejaVuSans-65" x="421.427734"/>
      <use xlink:href="#DejaVuSans-6e" x="482.951172"/>
      <use xlink:href="#DejaVuSans-63" x="546.330078"/>
      <use xlink:href="#DejaVuSans-65" x="601.310547"/>
     </g>
    </g>
    <g id="line2d_16">
     <path d="M 153 131.456562
L 163 131.456562
L 173 131.456562
" style="fill: none; stroke: #1f77b4; stroke-width: 1.5; stroke-linecap: square"/>
    </g>
    <g id="text_14">
     <!-- cdf drifted 1 -->
     <g transform="translate(181 134.956562)scale(0.1 -0.1)">
      <use xlink:href="#DejaVuSans-63"/>
      <use xlink:href="#DejaVuSans-64" x="54.980469"/>
      <use xlink:href="#DejaVuSans-66" x="118.457031"/>
      <use xlink:href="#DejaVuSans-20" x="153.662109"/>
      <use xlink:href="#DejaVuSans-64" x="185.449219"/>
      <use xlink:href="#DejaVuSans-72" x="248.925781"/>
      <use xlink:href="#DejaVuSans-69" x="290.039062"/>
      <use xlink:href="#DejaVuSans-66" x="317.822266"/>
      <use xlink:href="#DejaVuSans-74" x="351.277344"/>
      <use xlink:href="#DejaVuSans-65" x="390.486328"/>
      <use xlink:href="#DejaVuSans-64" x="452.009766"/>
      <use xlink:href="#DejaVuSans-20" x="515.486328"/>
      <use xlink:href="#DejaVuSans-31" x="547.273438"/>
     </g>
    </g>
   </g>
  </g>
  <g id="axes_2">
   <g id="patch_9">
    <path d="M 630.981818 400.189091
L 1036.8 400.189091
L 1036.8 103.68
L 630.981818 103.68
z
" style="fill: #ffffff"/>
   </g>
   <g id="matplotlib.axis_3">
    <g id="xtick_6">
     <g id="line2d_17">
      <g>
       <use xlink:href="#m5d38197b16" x="686.320661" y="400.189091" style="stroke: #000000; stroke-width: 0.8"/>
      </g>
     </g>
     <g id="text_15">
      <!-- −4 -->
      <g transform="translate(678.949567 414.787528)scale(0.1 -0.1)">
       <use xlink:href="#DejaVuSans-2212"/>
       <use xlink:href="#DejaVuSans-34" x="83.789062"/>
      </g>
     </g>
    </g>
    <g id="xtick_7">
     <g id="line2d_18">
      <g>
       <use xlink:href="#m5d38197b16" x="760.105785" y="400.189091" style="stroke: #000000; stroke-width: 0.8"/>
      </g>
     </g>
     <g id="text_16">
      <!-- −2 -->
      <g transform="translate(752.734691 414.787528)scale(0.1 -0.1)">
       <use xlink:href="#DejaVuSans-2212"/>
       <use xlink:href="#DejaVuSans-32" x="83.789062"/>
      </g>
     </g>
    </g>
    <g id="xtick_8">
     <g id="line2d_19">
      <g>
       <use xlink:href="#m5d38197b16" x="833.890909" y="400.189091" style="stroke: #000000; stroke-width: 0.8"/>
      </g>
     </g>
     <g id="text_17">
      <!-- 0 -->
      <g transform="translate(830.709659 414.787528)scale(0.1 -0.1)">
       <use xlink:href="#DejaVuSans-30"/>
      </g>
     </g>
    </g>
    <g id="xtick_9">
     <g id="line2d_20">
      <g>
       <use xlink:href="#m5d38197b16" x="907.676033" y="400.189091" style="stroke: #000000; stroke-width: 0.8"/>
      </g>
     </g>
     <g id="text_18">
      <!-- 2 -->
      <g transform="translate(904.494783 414.787528)scale(0.1 -0.1)">
       <use xlink:href="#DejaVuSans-32"/>
      </g>
     </g>
    </g>
    <g id="xtick_10">
     <g id="line2d_21">
      <g>
       <use xlink:href="#m5d38197b16" x="981.461157" y="400.189091" style="stroke: #000000; stroke-width: 0.8"/>
      </g>
     </g>
     <g id="text_19">
      <!-- 4 -->
      <g transform="translate(978.279907 414.787528)scale(0.1 -0.1)">
       <use xlink:href="#DejaVuSans-34"/>
      </g>
     </g>
    </g>
   </g>
   <g id="matplotlib.axis_4">
    <g id="ytick_7">
     <g id="line2d_22">
      <g>
       <use xlink:href="#m13e6eae5ec" x="630.981818" y="400.189091" style="stroke: #000000; stroke-width: 0.8"/>
      </g>
     </g>
     <g id="text_20">
      <!-- 0.00 -->
      <g transform="translate(601.716193 403.98831)scale(0.1 -0.1)">
       <use xlink:href="#DejaVuSans-30"/>
       <use xlink:href="#DejaVuSans-2e" x="63.623047"/>
       <use xlink:href="#DejaVuSans-30" x="95.410156"/>
       <use xlink:href="#DejaVuSans-30" x="159.033203"/>
      </g>
     </g>
    </g>
    <g id="ytick_8">
     <g id="line2d_23">
      <g>
       <use xlink:href="#m13e6eae5ec" x="630.981818" y="367.243636" style="stroke: #000000; stroke-width: 0.8"/>
      </g>
     </g>
     <g id="text_21">
      <!-- 0.05 -->
      <g transform="translate(601.716193 371.042855)scale(0.1 -0.1)">
       <defs>
        <path id="DejaVuSans-35" d="M 691 4666
L 3169 4666
L 3169 4134
L 1269 4134
L 1269 2991
Q 1406 3038 1543 3061
Q 1681 3084 1819 3084
Q 2600 3084 3056 2656
Q 3513 2228 3513 1497
Q 3513 744 3044 326
Q 2575 -91 1722 -91
Q 1428 -91 1123 -41
Q 819 9 494 109
L 494 744
Q 775 591 1075 516
Q 1375 441 1709 441
Q 2250 441 2565 725
Q 2881 1009 2881 1497
Q 2881 1984 2565 2268
Q 2250 2553 1709 2553
Q 1456 2553 1204 2497
Q 953 2441 691 2322
L 691 4666
z
" transform="scale(0.015625)"/>
       </defs>
       <use xlink:href="#DejaVuSans-30"/>
       <use xlink:href="#DejaVuSans-2e" x="63.623047"/>
       <use xlink:href="#DejaVuSans-30" x="95.410156"/>
       <use xlink:href="#DejaVuSans-35" x="159.033203"/>
      </g>
     </g>
    </g>
    <g id="ytick_9">
     <g id="line2d_24">
      <g>
       <use xlink:href="#m13e6eae5ec" x="630.981818" y="334.298182" style="stroke: #000000; stroke-width: 0.8"/>
      </g>
     </g>
     <g id="text_22">
      <!-- 0.10 -->
      <g transform="translate(601.716193 338.097401)scale(0.1 -0.1)">
       <use xlink:href="#DejaVuSans-30"/>
       <use xlink:href="#DejaVuSans-2e" x="63.623047"/>
       <use xlink:href="#DejaVuSans-31" x="95.410156"/>
       <use xlink:href="#DejaVuSans-30" x="159.033203"/>
      </g>
     </g>
    </g>
    <g id="ytick_10">
     <g id="line2d_25">
      <g>
       <use xlink:href="#m13e6eae5ec" x="630.981818" y="301.352727" style="stroke: #000000; stroke-width: 0.8"/>
      </g>
     </g>
     <g id="text_23">
      <!-- 0.15 -->
      <g transform="translate(601.716193 305.151946)scale(0.1 -0.1)">
       <use xlink:href="#DejaVuSans-30"/>
       <use xlink:href="#DejaVuSans-2e" x="63.623047"/>
       <use xlink:href="#DejaVuSans-31" x="95.410156"/>
       <use xlink:href="#DejaVuSans-35" x="159.033203"/>
      </g>
     </g>
    </g>
    <g id="ytick_11">
     <g id="line2d_26">
      <g>
       <use xlink:href="#m13e6eae5ec" x="630.981818" y="268.407273" style="stroke: #000000; stroke-width: 0.8"/>
      </g>
     </g>
     <g id="text_24">
      <!-- 0.20 -->
      <g transform="translate(601.716193 272.206491)scale(0.1 -0.1)">
       <use xlink:href="#DejaVuSans-30"/>
       <use xlink:href="#DejaVuSans-2e" x="63.623047"/>
       <use xlink:href="#DejaVuSans-32" x="95.410156"/>
       <use xlink:href="#DejaVuSans-30" x="159.033203"/>
      </g>
     </g>
    </g>
    <g id="ytick_12">
     <g id="line2d_27">
      <g>
       <use xlink:href="#m13e6eae5ec" x="630.981818" y="235.461818" style="stroke: #000000; stroke-width: 0.8"/>
      </g>
     </g>
     <g id="text_25">
      <!-- 0.25 -->
      <g transform="translate(601.716193 239.261037)scale(0.1 -0.1)">
       <use xlink:href="#DejaVuSans-30"/>
       <use xlink:href="#DejaVuSans-2e" x="63.623047"/>
       <use xlink:href="#DejaVuSans-32" x="95.410156"/>
       <use xlink:href="#DejaVuSans-35" x="159.033203"/>
      </g>
     </g>
    </g>
    <g id="ytick_13">
     <g id="line2d_28">
      <g>
       <use xlink:href="#m13e6eae5ec" x="630.981818" y="202.516364" style="stroke: #000000; stroke-width: 0.8"/>
      </g>
     </g>
     <g id="text_26">
      <!-- 0.30 -->
      <g transform="translate(601.716193 206.315582)scale(0.1 -0.1)">
       <defs>
        <path id="DejaVuSans-33" d="M 2597 2516
Q 3050 2419 3304 2112
Q 3559 1806 3559 1356
Q 3559 666 3084 287
Q 2609 -91 1734 -91
Q 1441 -91 1130 -33
Q 819 25 488 141
L 488 750
Q 750 597 1062 519
Q 1375 441 1716 441
Q 2309 441 2620 675
Q 2931 909 2931 1356
Q 2931 1769 2642 2001
Q 2353 2234 1838 2234
L 1294 2234
L 1294 2753
L 1863 2753
Q 2328 2753 2575 2939
Q 2822 3125 2822 3475
Q 2822 3834 2567 4026
Q 2313 4219 1838 4219
Q 1578 4219 1281 4162
Q 984 4106 628 3988
L 628 4550
Q 988 4650 1302 4700
Q 1616 4750 1894 4750
Q 2613 4750 3031 4423
Q 3450 4097 3450 3541
Q 3450 3153 3228 2886
Q 3006 2619 2597 2516
z
" transform="scale(0.015625)"/>
       </defs>
       <use xlink:href="#DejaVuSans-30"/>
       <use xlink:href="#DejaVuSans-2e" x="63.623047"/>
       <use xlink:href="#DejaVuSans-33" x="95.410156"/>
       <use xlink:href="#DejaVuSans-30" x="159.033203"/>
      </g>
     </g>
    </g>
    <g id="ytick_14">
     <g id="line2d_29">
      <g>
       <use xlink:href="#m13e6eae5ec" x="630.981818" y="169.570909" style="stroke: #000000; stroke-width: 0.8"/>
      </g>
     </g>
     <g id="text_27">
      <!-- 0.35 -->
      <g transform="translate(601.716193 173.370128)scale(0.1 -0.1)">
       <use xlink:href="#DejaVuSans-30"/>
       <use xlink:href="#DejaVuSans-2e" x="63.623047"/>
       <use xlink:href="#DejaVuSans-33" x="95.410156"/>
       <use xlink:href="#DejaVuSans-35" x="159.033203"/>
      </g>
     </g>
    </g>
    <g id="ytick_15">
     <g id="line2d_30">
      <g>
       <use xlink:href="#m13e6eae5ec" x="630.981818" y="136.625455" style="stroke: #000000; stroke-width: 0.8"/>
      </g>
     </g>
     <g id="text_28">
      <!-- 0.40 -->
      <g transform="translate(601.716193 140.424673)scale(0.1 -0.1)">
       <use xlink:href="#DejaVuSans-30"/>
       <use xlink:href="#DejaVuSans-2e" x="63.623047"/>
       <use xlink:href="#DejaVuSans-34" x="95.410156"/>
       <use xlink:href="#DejaVuSans-30" x="159.033203"/>
      </g>
     </g>
    </g>
    <g id="ytick_16">
     <g id="line2d_31">
      <g>
       <use xlink:href="#m13e6eae5ec" x="630.981818" y="103.68" style="stroke: #000000; stroke-width: 0.8"/>
      </g>
     </g>
     <g id="text_29">
      <!-- 0.45 -->
      <g transform="translate(601.716193 107.479219)scale(0.1 -0.1)">
       <use xlink:href="#DejaVuSans-30"/>
       <use xlink:href="#DejaVuSans-2e" x="63.623047"/>
       <use xlink:href="#DejaVuSans-34" x="95.410156"/>
       <use xlink:href="#DejaVuSans-35" x="159.033203"/>
      </g>
     </g>
    </g>
   </g>
   <g id="line2d_32">
    <path d="M 649.428099 400.188111
L 688.977321 400.071777
L 700.141122 399.821236
L 707.556601 399.441991
L 713.271316 398.934401
L 718.00099 398.296735
L 722.085037 397.52613
L 725.715302 396.618221
L 729.00984 395.567827
L 732.053507 394.366154
L 734.90902 393.000719
L 737.616961 391.459632
L 740.210534 389.727743
L 742.722943 387.781669
L 745.172633 385.601402
L 747.581742 383.157342
L 749.965025 380.419913
L 752.337241 377.353221
L 754.713145 373.914008
L 757.103807 370.056878
L 759.520294 365.729726
L 761.973674 360.873297
L 764.475015 355.420964
L 767.039074 349.289667
L 769.680607 342.386497
L 772.418063 334.598992
L 775.277265 325.781459
L 778.291418 315.750505
L 781.519549 304.216198
L 785.050203 290.753069
L 789.086289 274.452661
L 794.262367 252.555068
L 805.702865 203.86732
L 809.377401 189.392061
L 812.428447 178.244641
L 815.092116 169.326233
L 817.475399 162.097649
L 819.637325 156.227112
L 821.614786 151.479814
L 823.429919 147.680332
L 825.104858 144.672137
L 826.654361 142.331039
L 828.089496 140.552477
L 829.421331 139.244462
L 830.664622 138.325633
L 831.834128 137.73059
L 832.948295 137.408183
L 834.029258 137.324244
L 835.102842 137.464193
L 836.191183 137.83286
L 837.316418 138.453083
L 838.500681 139.366451
L 839.75873 140.626379
L 841.101632 142.295694
L 842.544146 144.454631
L 844.097338 147.191829
L 845.775967 150.615034
L 847.591099 154.836763
L 849.564871 160.00721
L 851.723107 166.303728
L 854.102701 173.954103
L 856.758992 183.26745
L 859.79897 194.767465
L 863.436613 209.43974
L 868.395023 230.44499
L 879.62892 278.296331
L 883.801511 294.919228
L 887.413329 308.418837
L 890.704178 319.878595
L 893.777359 329.792108
L 896.691901 338.457826
L 899.481006 346.067125
L 902.17419 352.781142
L 904.789899 358.715843
L 907.34289 363.967099
L 909.84792 368.620174
L 912.319746 372.749614
L 914.765748 376.409251
L 917.200681 379.657282
L 919.635614 382.538727
L 922.081616 385.09257
L 924.557131 387.358777
L 927.080608 389.369359
L 929.670492 391.149786
L 932.352608 392.724313
L 935.16016 394.114003
L 938.126351 395.332844
L 941.302833 396.395581
L 944.752322 397.312245
L 948.563362 398.091181
L 952.868767 398.73934
L 957.875137 399.261765
L 963.940335 399.662571
L 971.780083 399.945711
L 983.202134 400.116159
L 1005.555561 400.183864
L 1018.353719 400.188111
L 1018.353719 400.188111
" clip-path="url(#p7570ce1ce8)" style="fill: none; stroke: #808080; stroke-width: 3; stroke-linecap: square"/>
   </g>
   <g id="line2d_33">
    <path d="M 649.428099 400.18902
L 706.970004 400.077317
L 718.321958 399.830716
L 725.807534 399.455426
L 731.562831 398.951503
L 736.31833 398.317409
L 740.417135 397.551004
L 744.058467 396.64738
L 747.364074 395.600505
L 750.415119 394.402942
L 753.274321 393.042946
L 755.985952 391.507246
L 758.583214 389.780626
L 761.095622 387.842712
L 763.549002 385.667755
L 765.958111 383.232713
L 768.341394 380.504989
L 770.71361 377.448723
L 773.089514 374.0207
L 775.480176 370.175546
L 777.896663 365.861175
L 780.350043 361.018335
L 782.851384 355.580385
L 785.415443 349.464242
L 788.053287 342.58697
L 790.787053 334.827703
L 793.642566 326.040673
L 796.653029 316.042274
L 799.873782 304.555816
L 803.397057 291.14322
L 807.414697 274.940243
L 812.539125 253.283518
L 824.293213 203.282186
L 827.938235 188.957723
L 830.974523 177.895913
L 833.627125 169.043808
L 836.003029 161.864514
L 838.157577 156.038545
L 840.127659 151.330793
L 841.939102 147.558591
L 843.610352 144.574779
L 845.152476 142.260219
L 846.580233 140.503463
L 847.908378 139.209686
L 849.147981 138.30275
L 850.313797 137.717454
L 851.427964 137.402215
L 852.508927 137.325244
L 853.582511 137.472111
L 854.670852 137.847771
L 855.799776 138.477638
L 856.984039 139.399334
L 858.242088 140.667998
L 859.58868 142.351545
L 861.034883 144.527087
L 862.591765 147.283369
L 864.274082 150.728219
L 866.096593 154.983272
L 868.077744 160.191718
L 870.243359 166.530754
L 872.630331 174.227787
L 875.29769 183.604694
L 878.352425 195.186979
L 882.019582 210.0062
L 887.055467 231.366918
L 897.905678 277.601249
L 902.107783 294.378127
L 905.734358 307.966249
L 909.032586 319.482886
L 912.113146 329.44934
L 915.031377 338.153116
L 917.824172 345.797726
L 920.521045 352.544246
L 923.140443 358.508638
L 925.697123 363.786831
L 928.205842 368.464213
L 930.677669 372.609628
L 933.12367 376.284139
L 935.558603 379.545997
L 937.993537 382.440254
L 940.439538 385.005935
L 942.915054 387.283073
L 945.434841 389.300987
L 948.021036 391.088712
L 950.699462 392.670455
L 953.499636 394.065559
L 956.458449 395.290215
L 959.623862 396.35792
L 963.062283 397.280144
L 966.858566 398.064325
L 971.141835 398.717238
L 976.115002 399.244178
L 982.12855 399.64944
L 989.879755 399.937024
L 1001.098895 400.111636
L 1018.353719 400.178559
L 1018.353719 400.178559
" clip-path="url(#p7570ce1ce8)" style="fill: none; stroke: #1f77b4; stroke-width: 1.5; stroke-linecap: square"/>
   </g>
   <g id="patch_10">
    <path d="M 630.981818 400.189091
L 630.981818 103.68
" style="fill: none; stroke: #000000; stroke-width: 0.8; stroke-linejoin: miter; stroke-linecap: square"/>
   </g>
   <g id="patch_11">
    <path d="M 1036.8 400.189091
L 1036.8 103.68
" style="fill: none; stroke: #000000; stroke-width: 0.8; stroke-linejoin: miter; stroke-linecap: square"/>
   </g>
   <g id="patch_12">
    <path d="M 630.981818 400.189091
L 1036.8 400.189091
" style="fill: none; stroke: #000000; stroke-width: 0.8; stroke-linejoin: miter; stroke-linecap: square"/>
   </g>
   <g id="patch_13">
    <path d="M 630.981818 103.68
L 1036.8 103.68
" style="fill: none; stroke: #000000; stroke-width: 0.8; stroke-linejoin: miter; stroke-linecap: square"/>
   </g>
   <g id="legend_2">
    <g id="patch_14">
     <path d="M 637.981818 141.03625
L 737.117756 141.03625
Q 739.117756 141.03625 739.117756 139.03625
L 739.117756 110.68
Q 739.117756 108.68 737.117756 108.68
L 637.981818 108.68
Q 635.981818 108.68 635.981818 110.68
L 635.981818 139.03625
Q 635.981818 141.03625 637.981818 141.03625
z
" style="fill: #ffffff; opacity: 0.8; stroke: #cccccc; stroke-linejoin: miter"/>
    </g>
    <g id="line2d_34">
     <path d="M 639.981818 116.778437
L 649.981818 116.778437
L 659.981818 116.778437
" style="fill: none; stroke: #808080; stroke-width: 3; stroke-linecap: square"/>
    </g>
    <g id="text_30">
     <!-- pdf reference -->
     <g transform="translate(667.981818 120.278437)scale(0.1 -0.1)">
      <defs>
       <path id="DejaVuSans-70" d="M 1159 525
L 1159 -1331
L 581 -1331
L 581 3500
L 1159 3500
L 1159 2969
Q 1341 3281 1617 3432
Q 1894 3584 2278 3584
Q 2916 3584 3314 3078
Q 3713 2572 3713 1747
Q 3713 922 3314 415
Q 2916 -91 2278 -91
Q 1894 -91 1617 61
Q 1341 213 1159 525
z
M 3116 1747
Q 3116 2381 2855 2742
Q 2594 3103 2138 3103
Q 1681 3103 1420 2742
Q 1159 2381 1159 1747
Q 1159 1113 1420 752
Q 1681 391 2138 391
Q 2594 391 2855 752
Q 3116 1113 3116 1747
z
" transform="scale(0.015625)"/>
      </defs>
      <use xlink:href="#DejaVuSans-70"/>
      <use xlink:href="#DejaVuSans-64" x="63.476562"/>
      <use xlink:href="#DejaVuSans-66" x="126.953125"/>
      <use xlink:href="#DejaVuSans-20" x="162.158203"/>
      <use xlink:href="#DejaVuSans-72" x="193.945312"/>
      <use xlink:href="#DejaVuSans-65" x="232.808594"/>
      <use xlink:href="#DejaVuSans-66" x="294.332031"/>
      <use xlink:href="#DejaVuSans-65" x="329.537109"/>
      <use xlink:href="#DejaVuSans-72" x="391.060547"/>
      <use xlink:href="#DejaVuSans-65" x="429.923828"/>
      <use xlink:href="#DejaVuSans-6e" x="491.447266"/>
      <use xlink:href="#DejaVuSans-63" x="554.826172"/>
      <use xlink:href="#DejaVuSans-65" x="609.806641"/>
     </g>
    </g>
    <g id="line2d_35">
     <path d="M 639.981818 131.456562
L 649.981818 131.456562
L 659.981818 131.456562
" style="fill: none; stroke: #1f77b4; stroke-width: 1.5; stroke-linecap: square"/>
    </g>
    <g id="text_31">
     <!-- pdf drifted 1 -->
     <g transform="translate(667.981818 134.956562)scale(0.1 -0.1)">
      <use xlink:href="#DejaVuSans-70"/>
      <use xlink:href="#DejaVuSans-64" x="63.476562"/>
      <use xlink:href="#DejaVuSans-66" x="126.953125"/>
      <use xlink:href="#DejaVuSans-20" x="162.158203"/>
      <use xlink:href="#DejaVuSans-64" x="193.945312"/>
      <use xlink:href="#DejaVuSans-72" x="257.421875"/>
      <use xlink:href="#DejaVuSans-69" x="298.535156"/>
      <use xlink:href="#DejaVuSans-66" x="326.318359"/>
      <use xlink:href="#DejaVuSans-74" x="359.773438"/>
      <use xlink:href="#DejaVuSans-65" x="398.982422"/>
      <use xlink:href="#DejaVuSans-64" x="460.505859"/>
      <use xlink:href="#DejaVuSans-20" x="523.982422"/>
      <use xlink:href="#DejaVuSans-31" x="555.769531"/>
     </g>
    </g>
   </g>
  </g>
  <g id="axes_3">
   <g id="patch_15">
    <path d="M 144 756
L 549.818182 756
L 549.818182 459.490909
L 144 459.490909
z
" style="fill: #ffffff"/>
   </g>
   <g id="matplotlib.axis_5">
    <g id="xtick_11">
     <g id="line2d_36">
      <g>
       <use xlink:href="#m5d38197b16" x="199.338843" y="756" style="stroke: #000000; stroke-width: 0.8"/>
      </g>
     </g>
     <g id="text_32">
      <!-- −4 -->
      <g transform="translate(191.967749 770.598437)scale(0.1 -0.1)">
       <use xlink:href="#DejaVuSans-2212"/>
       <use xlink:href="#DejaVuSans-34" x="83.789062"/>
      </g>
     </g>
    </g>
    <g id="xtick_12">
     <g id="line2d_37">
      <g>
       <use xlink:href="#m5d38197b16" x="273.123967" y="756" style="stroke: #000000; stroke-width: 0.8"/>
      </g>
     </g>
     <g id="text_33">
      <!-- −2 -->
      <g transform="translate(265.752873 770.598437)scale(0.1 -0.1)">
       <use xlink:href="#DejaVuSans-2212"/>
       <use xlink:href="#DejaVuSans-32" x="83.789062"/>
      </g>
     </g>
    </g>
    <g id="xtick_13">
     <g id="line2d_38">
      <g>
       <use xlink:href="#m5d38197b16" x="346.909091" y="756" style="stroke: #000000; stroke-width: 0.8"/>
      </g>
     </g>
     <g id="text_34">
      <!-- 0 -->
      <g transform="translate(343.727841 770.598437)scale(0.1 -0.1)">
       <use xlink:href="#DejaVuSans-30"/>
      </g>
     </g>
    </g>
    <g id="xtick_14">
     <g id="line2d_39">
      <g>
       <use xlink:href="#m5d38197b16" x="420.694215" y="756" style="stroke: #000000; stroke-width: 0.8"/>
      </g>
     </g>
     <g id="text_35">
      <!-- 2 -->
      <g transform="translate(417.512965 770.598437)scale(0.1 -0.1)">
       <use xlink:href="#DejaVuSans-32"/>
      </g>
     </g>
    </g>
    <g id="xtick_15">
     <g id="line2d_40">
      <g>
       <use xlink:href="#m5d38197b16" x="494.479339" y="756" style="stroke: #000000; stroke-width: 0.8"/>
      </g>
     </g>
     <g id="text_36">
      <!-- 4 -->
      <g transform="translate(491.298089 770.598437)scale(0.1 -0.1)">
       <use xlink:href="#DejaVuSans-34"/>
      </g>
     </g>
    </g>
   </g>
   <g id="matplotlib.axis_6">
    <g id="ytick_17">
     <g id="line2d_41">
      <g>
       <use xlink:href="#m13e6eae5ec" x="144" y="742.522391" style="stroke: #000000; stroke-width: 0.8"/>
      </g>
     </g>
     <g id="text_37">
      <!-- 0.0 -->
      <g transform="translate(121.096875 746.32161)scale(0.1 -0.1)">
       <use xlink:href="#DejaVuSans-30"/>
       <use xlink:href="#DejaVuSans-2e" x="63.623047"/>
       <use xlink:href="#DejaVuSans-30" x="95.410156"/>
      </g>
     </g>
    </g>
    <g id="ytick_18">
     <g id="line2d_42">
      <g>
       <use xlink:href="#m13e6eae5ec" x="144" y="688.611617" style="stroke: #000000; stroke-width: 0.8"/>
      </g>
     </g>
     <g id="text_38">
      <!-- 0.2 -->
      <g transform="translate(121.096875 692.410835)scale(0.1 -0.1)">
       <use xlink:href="#DejaVuSans-30"/>
       <use xlink:href="#DejaVuSans-2e" x="63.623047"/>
       <use xlink:href="#DejaVuSans-32" x="95.410156"/>
      </g>
     </g>
    </g>
    <g id="ytick_19">
     <g id="line2d_43">
      <g>
       <use xlink:href="#m13e6eae5ec" x="144" y="634.700842" style="stroke: #000000; stroke-width: 0.8"/>
      </g>
     </g>
     <g id="text_39">
      <!-- 0.4 -->
      <g transform="translate(121.096875 638.500061)scale(0.1 -0.1)">
       <use xlink:href="#DejaVuSans-30"/>
       <use xlink:href="#DejaVuSans-2e" x="63.623047"/>
       <use xlink:href="#DejaVuSans-34" x="95.410156"/>
      </g>
     </g>
    </g>
    <g id="ytick_20">
     <g id="line2d_44">
      <g>
       <use xlink:href="#m13e6eae5ec" x="144" y="580.790067" style="stroke: #000000; stroke-width: 0.8"/>
      </g>
     </g>
     <g id="text_40">
      <!-- 0.6 -->
      <g transform="translate(121.096875 584.589286)scale(0.1 -0.1)">
       <use xlink:href="#DejaVuSans-30"/>
       <use xlink:href="#DejaVuSans-2e" x="63.623047"/>
       <use xlink:href="#DejaVuSans-36" x="95.410156"/>
      </g>
     </g>
    </g>
    <g id="ytick_21">
     <g id="line2d_45">
      <g>
       <use xlink:href="#m13e6eae5ec" x="144" y="526.879292" style="stroke: #000000; stroke-width: 0.8"/>
      </g>
     </g>
     <g id="text_41">
      <!-- 0.8 -->
      <g transform="translate(121.096875 530.678511)scale(0.1 -0.1)">
       <use xlink:href="#DejaVuSans-30"/>
       <use xlink:href="#DejaVuSans-2e" x="63.623047"/>
       <use xlink:href="#DejaVuSans-38" x="95.410156"/>
      </g>
     </g>
    </g>
    <g id="ytick_22">
     <g id="line2d_46">
      <g>
       <use xlink:href="#m13e6eae5ec" x="144" y="472.968518" style="stroke: #000000; stroke-width: 0.8"/>
      </g>
     </g>
     <g id="text_42">
      <!-- 1.0 -->
      <g transform="translate(121.096875 476.767737)scale(0.1 -0.1)">
       <use xlink:href="#DejaVuSans-31"/>
       <use xlink:href="#DejaVuSans-2e" x="63.623047"/>
       <use xlink:href="#DejaVuSans-30" x="95.410156"/>
      </g>
     </g>
    </g>
   </g>
   <g id="line2d_47">
    <path d="M 162.446281 742.522314
L 223.588935 742.410564
L 236.095639 742.162893
L 244.426063 741.784957
L 250.882326 741.276441
L 256.250247 740.636098
L 260.909824 739.860615
L 265.071347 738.945913
L 268.86763 737.88629
L 272.387215 736.674895
L 275.696511 735.301922
L 278.843478 733.756213
L 281.868698 732.022466
L 284.801686 730.084535
L 287.668267 727.922636
L 290.490576 725.513718
L 293.28706 722.832179
L 296.076166 719.846798
L 298.87265 716.524615
L 301.694959 712.822481
L 304.557851 708.695474
L 307.476082 704.093113
L 310.468098 698.953016
L 313.556037 693.198872
L 316.762032 686.746568
L 320.119289 679.481508
L 323.675768 671.245063
L 327.501565 661.811248
L 331.711048 650.823795
L 336.547711 637.554973
L 342.730966 619.898094
L 358.971235 573.202561
L 363.859548 560.021986
L 368.098546 549.215483
L 371.950168 539.992007
L 375.536161 531.970347
L 378.926621 524.921213
L 382.16582 518.69082
L 385.286962 513.161552
L 388.315872 508.24084
L 391.274685 503.852094
L 394.178159 499.937567
L 397.044739 496.441017
L 399.892874 493.313848
L 402.733629 490.521559
L 405.589142 488.024086
L 408.474169 485.79438
L 411.410847 483.804639
L 414.42131 482.032897
L 417.535073 480.458477
L 420.78534 479.065045
L 424.212694 477.839091
L 427.868783 476.769429
L 431.827395 475.845733
L 436.18445 475.061048
L 441.083831 474.40927
L 446.757964 473.885018
L 453.601602 473.484476
L 462.415324 473.20341
L 475.242996 473.036455
L 500.702807 472.972647
L 531.371901 472.968595
L 531.371901 472.968595
" clip-path="url(#p638af081d4)" style="fill: none; stroke: #808080; stroke-width: 3; stroke-linecap: square"/>
   </g>
   <g id="line2d_48">
    <path d="M 162.446281 742.406736
L 180.996047 742.156281
L 193.410518 741.775637
L 203.046951 741.264702
L 211.063785 740.622489
L 218.018103 739.846727
L 224.219805 738.934724
L 229.860734 737.88342
L 235.073705 736.688164
L 239.95095 735.343826
L 244.566256 733.842458
L 248.967583 732.177997
L 253.202891 730.339209
L 257.305385 728.315834
L 261.304579 726.095289
L 265.226297 723.662922
L 269.092676 721.002495
L 272.925852 718.093948
L 276.74427 714.916148
L 280.570067 711.44094
L 284.418 707.642841
L 288.306515 703.489624
L 292.257748 698.94091
L 296.290145 693.956285
L 300.433221 688.477226
L 304.71649 682.439255
L 309.176846 675.761979
L 313.869627 668.33023
L 318.872308 659.983842
L 324.314015 650.462945
L 330.430863 639.299568
L 337.816828 625.334695
L 350.231299 601.293495
L 360.841706 580.954425
L 367.773888 568.140717
L 373.654621 557.726945
L 378.948757 548.795068
L 383.855517 540.945073
L 388.485579 533.950716
L 392.905353 527.671078
L 397.162797 522.003143
L 401.294805 516.867718
L 405.330892 512.202148
L 409.293192 507.958079
L 413.203843 504.091926
L 417.084979 500.565135
L 420.951359 497.350062
L 424.825116 494.416484
L 428.72101 491.743714
L 432.661175 489.309121
L 436.671436 487.092162
L 440.77393 485.078375
L 444.994482 483.254655
L 449.369983 481.607045
L 453.937328 480.12607
L 458.744477 478.802745
L 463.854148 477.628969
L 469.343816 476.598763
L 475.320471 475.706672
L 481.939063 474.947706
L 489.424638 474.318251
L 498.146127 473.814569
L 508.760223 473.433169
L 522.624587 473.170278
L 531.371901 473.084173
L 531.371901 473.084173
" clip-path="url(#p638af081d4)" style="fill: none; stroke: #1f77b4; stroke-width: 1.5; stroke-linecap: square"/>
   </g>
   <g id="line2d_49">
    <path d="M 391.481285 503.560851
L 391.481285 529.650982
" clip-path="url(#p638af081d4)" style="fill: none; stroke: #ff0000; stroke-width: 1.5; stroke-linecap: square"/>
   </g>
   <g id="patch_16">
    <path d="M 144 756
L 144 459.490909
" style="fill: none; stroke: #000000; stroke-width: 0.8; stroke-linejoin: miter; stroke-linecap: square"/>
   </g>
   <g id="patch_17">
    <path d="M 549.818182 756
L 549.818182 459.490909
" style="fill: none; stroke: #000000; stroke-width: 0.8; stroke-linejoin: miter; stroke-linecap: square"/>
   </g>
   <g id="patch_18">
    <path d="M 144 756
L 549.818182 756
" style="fill: none; stroke: #000000; stroke-width: 0.8; stroke-linejoin: miter; stroke-linecap: square"/>
   </g>
   <g id="patch_19">
    <path d="M 144 459.490909
L 549.818182 459.490909
" style="fill: none; stroke: #000000; stroke-width: 0.8; stroke-linejoin: miter; stroke-linecap: square"/>
   </g>
   <g id="text_43">
    <g id="patch_20">
     <path d="M 405.967566 506.37953
L 509.836941 506.37953
L 509.836941 486.84578
L 405.967566 486.84578
z
" style="fill: #ffffff; opacity: 0.9; stroke: #ff0000; stroke-linejoin: miter"/>
    </g>
    <!-- d-statistic = 0.1 -->
    <g transform="translate(409.927566 499.923905)scale(0.12 -0.12)">
     <use xlink:href="#DejaVuSans-64"/>
     <use xlink:href="#DejaVuSans-2d" x="63.476562"/>
     <use xlink:href="#DejaVuSans-73" x="99.560547"/>
     <use xlink:href="#DejaVuSans-74" x="151.660156"/>
     <use xlink:href="#DejaVuSans-61" x="190.869141"/>
     <use xlink:href="#DejaVuSans-74" x="252.148438"/>
     <use xlink:href="#DejaVuSans-69" x="291.357422"/>
     <use xlink:href="#DejaVuSans-73" x="319.140625"/>
     <use xlink:href="#DejaVuSans-74" x="371.240234"/>
     <use xlink:href="#DejaVuSans-69" x="410.449219"/>
     <use xlink:href="#DejaVuSans-63" x="438.232422"/>
     <use xlink:href="#DejaVuSans-20" x="493.212891"/>
     <use xlink:href="#DejaVuSans-3d" x="525"/>
     <use xlink:href="#DejaVuSans-20" x="608.789062"/>
     <use xlink:href="#DejaVuSans-30" x="640.576172"/>
     <use xlink:href="#DejaVuSans-2e" x="704.199219"/>
     <use xlink:href="#DejaVuSans-31" x="735.986328"/>
    </g>
   </g>
   <g id="legend_3">
    <g id="patch_21">
     <path d="M 151 496.847159
L 249.285937 496.847159
Q 251.285937 496.847159 251.285937 494.847159
L 251.285937 466.490909
Q 251.285937 464.490909 249.285937 464.490909
L 151 464.490909
Q 149 464.490909 149 466.490909
L 149 494.847159
Q 149 496.847159 151 496.847159
z
" style="fill: #ffffff; opacity: 0.8; stroke: #cccccc; stroke-linejoin: miter"/>
    </g>
    <g id="line2d_50">
     <path d="M 153 472.589347
L 163 472.589347
L 173 472.589347
" style="fill: none; stroke: #808080; stroke-width: 3; stroke-linecap: square"/>
    </g>
    <g id="text_44">
     <!-- cdf reference -->
     <g transform="translate(181 476.089347)scale(0.1 -0.1)">
      <use xlink:href="#DejaVuSans-63"/>
      <use xlink:href="#DejaVuSans-64" x="54.980469"/>
      <use xlink:href="#DejaVuSans-66" x="118.457031"/>
      <use xlink:href="#DejaVuSans-20" x="153.662109"/>
      <use xlink:href="#DejaVuSans-72" x="185.449219"/>
      <use xlink:href="#DejaVuSans-65" x="224.3125"/>
      <use xlink:href="#DejaVuSans-66" x="285.835938"/>
      <use xlink:href="#DejaVuSans-65" x="321.041016"/>
      <use xlink:href="#DejaVuSans-72" x="382.564453"/>
      <use xlink:href="#DejaVuSans-65" x="421.427734"/>
      <use xlink:href="#DejaVuSans-6e" x="482.951172"/>
      <use xlink:href="#DejaVuSans-63" x="546.330078"/>
      <use xlink:href="#DejaVuSans-65" x="601.310547"/>
     </g>
    </g>
    <g id="line2d_51">
     <path d="M 153 487.267472
L 163 487.267472
L 173 487.267472
" style="fill: none; stroke: #1f77b4; stroke-width: 1.5; stroke-linecap: square"/>
    </g>
    <g id="text_45">
     <!-- cdf drifted 2 -->
     <g transform="translate(181 490.767472)scale(0.1 -0.1)">
      <use xlink:href="#DejaVuSans-63"/>
      <use xlink:href="#DejaVuSans-64" x="54.980469"/>
      <use xlink:href="#DejaVuSans-66" x="118.457031"/>
      <use xlink:href="#DejaVuSans-20" x="153.662109"/>
      <use xlink:href="#DejaVuSans-64" x="185.449219"/>
      <use xlink:href="#DejaVuSans-72" x="248.925781"/>
      <use xlink:href="#DejaVuSans-69" x="290.039062"/>
      <use xlink:href="#DejaVuSans-66" x="317.822266"/>
      <use xlink:href="#DejaVuSans-74" x="351.277344"/>
      <use xlink:href="#DejaVuSans-65" x="390.486328"/>
      <use xlink:href="#DejaVuSans-64" x="452.009766"/>
      <use xlink:href="#DejaVuSans-20" x="515.486328"/>
      <use xlink:href="#DejaVuSans-32" x="547.273438"/>
     </g>
    </g>
   </g>
  </g>
  <g id="axes_4">
   <g id="patch_22">
    <path d="M 630.981818 756
L 1036.8 756
L 1036.8 459.490909
L 630.981818 459.490909
z
" style="fill: #ffffff"/>
   </g>
   <g id="matplotlib.axis_7">
    <g id="xtick_16">
     <g id="line2d_52">
      <g>
       <use xlink:href="#m5d38197b16" x="686.320661" y="756" style="stroke: #000000; stroke-width: 0.8"/>
      </g>
     </g>
     <g id="text_46">
      <!-- −4 -->
      <g transform="translate(678.949567 770.598437)scale(0.1 -0.1)">
       <use xlink:href="#DejaVuSans-2212"/>
       <use xlink:href="#DejaVuSans-34" x="83.789062"/>
      </g>
     </g>
    </g>
    <g id="xtick_17">
     <g id="line2d_53">
      <g>
       <use xlink:href="#m5d38197b16" x="760.105785" y="756" style="stroke: #000000; stroke-width: 0.8"/>
      </g>
     </g>
     <g id="text_47">
      <!-- −2 -->
      <g transform="translate(752.734691 770.598437)scale(0.1 -0.1)">
       <use xlink:href="#DejaVuSans-2212"/>
       <use xlink:href="#DejaVuSans-32" x="83.789062"/>
      </g>
     </g>
    </g>
    <g id="xtick_18">
     <g id="line2d_54">
      <g>
       <use xlink:href="#m5d38197b16" x="833.890909" y="756" style="stroke: #000000; stroke-width: 0.8"/>
      </g>
     </g>
     <g id="text_48">
      <!-- 0 -->
      <g transform="translate(830.709659 770.598437)scale(0.1 -0.1)">
       <use xlink:href="#DejaVuSans-30"/>
      </g>
     </g>
    </g>
    <g id="xtick_19">
     <g id="line2d_55">
      <g>
       <use xlink:href="#m5d38197b16" x="907.676033" y="756" style="stroke: #000000; stroke-width: 0.8"/>
      </g>
     </g>
     <g id="text_49">
      <!-- 2 -->
      <g transform="translate(904.494783 770.598437)scale(0.1 -0.1)">
       <use xlink:href="#DejaVuSans-32"/>
      </g>
     </g>
    </g>
    <g id="xtick_20">
     <g id="line2d_56">
      <g>
       <use xlink:href="#m5d38197b16" x="981.461157" y="756" style="stroke: #000000; stroke-width: 0.8"/>
      </g>
     </g>
     <g id="text_50">
      <!-- 4 -->
      <g transform="translate(978.279907 770.598437)scale(0.1 -0.1)">
       <use xlink:href="#DejaVuSans-34"/>
      </g>
     </g>
    </g>
   </g>
   <g id="matplotlib.axis_8">
    <g id="ytick_23">
     <g id="line2d_57">
      <g>
       <use xlink:href="#m13e6eae5ec" x="630.981818" y="756" style="stroke: #000000; stroke-width: 0.8"/>
      </g>
     </g>
     <g id="text_51">
      <!-- 0.00 -->
      <g transform="translate(601.716193 759.799219)scale(0.1 -0.1)">
       <use xlink:href="#DejaVuSans-30"/>
       <use xlink:href="#DejaVuSans-2e" x="63.623047"/>
       <use xlink:href="#DejaVuSans-30" x="95.410156"/>
       <use xlink:href="#DejaVuSans-30" x="159.033203"/>
      </g>
     </g>
    </g>
    <g id="ytick_24">
     <g id="line2d_58">
      <g>
       <use xlink:href="#m13e6eae5ec" x="630.981818" y="723.054545" style="stroke: #000000; stroke-width: 0.8"/>
      </g>
     </g>
     <g id="text_52">
      <!-- 0.05 -->
      <g transform="translate(601.716193 726.853764)scale(0.1 -0.1)">
       <use xlink:href="#DejaVuSans-30"/>
       <use xlink:href="#DejaVuSans-2e" x="63.623047"/>
       <use xlink:href="#DejaVuSans-30" x="95.410156"/>
       <use xlink:href="#DejaVuSans-35" x="159.033203"/>
      </g>
     </g>
    </g>
    <g id="ytick_25">
     <g id="line2d_59">
      <g>
       <use xlink:href="#m13e6eae5ec" x="630.981818" y="690.109091" style="stroke: #000000; stroke-width: 0.8"/>
      </g>
     </g>
     <g id="text_53">
      <!-- 0.10 -->
      <g transform="translate(601.716193 693.90831)scale(0.1 -0.1)">
       <use xlink:href="#DejaVuSans-30"/>
       <use xlink:href="#DejaVuSans-2e" x="63.623047"/>
       <use xlink:href="#DejaVuSans-31" x="95.410156"/>
       <use xlink:href="#DejaVuSans-30" x="159.033203"/>
      </g>
     </g>
    </g>
    <g id="ytick_26">
     <g id="line2d_60">
      <g>
       <use xlink:href="#m13e6eae5ec" x="630.981818" y="657.163636" style="stroke: #000000; stroke-width: 0.8"/>
      </g>
     </g>
     <g id="text_54">
      <!-- 0.15 -->
      <g transform="translate(601.716193 660.962855)scale(0.1 -0.1)">
       <use xlink:href="#DejaVuSans-30"/>
       <use xlink:href="#DejaVuSans-2e" x="63.623047"/>
       <use xlink:href="#DejaVuSans-31" x="95.410156"/>
       <use xlink:href="#DejaVuSans-35" x="159.033203"/>
      </g>
     </g>
    </g>
    <g id="ytick_27">
     <g id="line2d_61">
      <g>
       <use xlink:href="#m13e6eae5ec" x="630.981818" y="624.218182" style="stroke: #000000; stroke-width: 0.8"/>
      </g>
     </g>
     <g id="text_55">
      <!-- 0.20 -->
      <g transform="translate(601.716193 628.017401)scale(0.1 -0.1)">
       <use xlink:href="#DejaVuSans-30"/>
       <use xlink:href="#DejaVuSans-2e" x="63.623047"/>
       <use xlink:href="#DejaVuSans-32" x="95.410156"/>
       <use xlink:href="#DejaVuSans-30" x="159.033203"/>
      </g>
     </g>
    </g>
    <g id="ytick_28">
     <g id="line2d_62">
      <g>
       <use xlink:href="#m13e6eae5ec" x="630.981818" y="591.272727" style="stroke: #000000; stroke-width: 0.8"/>
      </g>
     </g>
     <g id="text_56">
      <!-- 0.25 -->
      <g transform="translate(601.716193 595.071946)scale(0.1 -0.1)">
       <use xlink:href="#DejaVuSans-30"/>
       <use xlink:href="#DejaVuSans-2e" x="63.623047"/>
       <use xlink:href="#DejaVuSans-32" x="95.410156"/>
       <use xlink:href="#DejaVuSans-35" x="159.033203"/>
      </g>
     </g>
    </g>
    <g id="ytick_29">
     <g id="line2d_63">
      <g>
       <use xlink:href="#m13e6eae5ec" x="630.981818" y="558.327273" style="stroke: #000000; stroke-width: 0.8"/>
      </g>
     </g>
     <g id="text_57">
      <!-- 0.30 -->
      <g transform="translate(601.716193 562.126491)scale(0.1 -0.1)">
       <use xlink:href="#DejaVuSans-30"/>
       <use xlink:href="#DejaVuSans-2e" x="63.623047"/>
       <use xlink:href="#DejaVuSans-33" x="95.410156"/>
       <use xlink:href="#DejaVuSans-30" x="159.033203"/>
      </g>
     </g>
    </g>
    <g id="ytick_30">
     <g id="line2d_64">
      <g>
       <use xlink:href="#m13e6eae5ec" x="630.981818" y="525.381818" style="stroke: #000000; stroke-width: 0.8"/>
      </g>
     </g>
     <g id="text_58">
      <!-- 0.35 -->
      <g transform="translate(601.716193 529.181037)scale(0.1 -0.1)">
       <use xlink:href="#DejaVuSans-30"/>
       <use xlink:href="#DejaVuSans-2e" x="63.623047"/>
       <use xlink:href="#DejaVuSans-33" x="95.410156"/>
       <use xlink:href="#DejaVuSans-35" x="159.033203"/>
      </g>
     </g>
    </g>
    <g id="ytick_31">
     <g id="line2d_65">
      <g>
       <use xlink:href="#m13e6eae5ec" x="630.981818" y="492.436364" style="stroke: #000000; stroke-width: 0.8"/>
      </g>
     </g>
     <g id="text_59">
      <!-- 0.40 -->
      <g transform="translate(601.716193 496.235582)scale(0.1 -0.1)">
       <use xlink:href="#DejaVuSans-30"/>
       <use xlink:href="#DejaVuSans-2e" x="63.623047"/>
       <use xlink:href="#DejaVuSans-34" x="95.410156"/>
       <use xlink:href="#DejaVuSans-30" x="159.033203"/>
      </g>
     </g>
    </g>
    <g id="ytick_32">
     <g id="line2d_66">
      <g>
       <use xlink:href="#m13e6eae5ec" x="630.981818" y="459.490909" style="stroke: #000000; stroke-width: 0.8"/>
      </g>
     </g>
     <g id="text_60">
      <!-- 0.45 -->
      <g transform="translate(601.716193 463.290128)scale(0.1 -0.1)">
       <use xlink:href="#DejaVuSans-30"/>
       <use xlink:href="#DejaVuSans-2e" x="63.623047"/>
       <use xlink:href="#DejaVuSans-34" x="95.410156"/>
       <use xlink:href="#DejaVuSans-35" x="159.033203"/>
      </g>
     </g>
    </g>
   </g>
   <g id="line2d_67">
    <path d="M 649.428099 755.99902
L 688.977321 755.882686
L 700.141122 755.632145
L 707.556601 755.2529
L 713.271316 754.74531
L 718.00099 754.107644
L 722.085037 753.337039
L 725.715302 752.42913
L 729.00984 751.378736
L 732.053507 750.177063
L 734.90902 748.811628
L 737.616961 747.270541
L 740.210534 745.538652
L 742.722943 743.592578
L 745.172633 741.412311
L 747.581742 738.968252
L 749.965025 736.230823
L 752.337241 733.16413
L 754.713145 729.724917
L 757.103807 725.867787
L 759.520294 721.540635
L 761.973674 716.684206
L 764.475015 711.231873
L 767.039074 705.100576
L 769.680607 698.197406
L 772.418063 690.409902
L 775.277265 681.592368
L 778.291418 671.561414
L 781.519549 660.027107
L 785.050203 646.563978
L 789.086289 630.26357
L 794.262367 608.365977
L 805.702865 559.678229
L 809.377401 545.20297
L 812.428447 534.05555
L 815.092116 525.137142
L 817.475399 517.908558
L 819.637325 512.038021
L 821.614786 507.290723
L 823.429919 503.491241
L 825.104858 500.483046
L 826.654361 498.141948
L 828.089496 496.363386
L 829.421331 495.055371
L 830.664622 494.136542
L 831.834128 493.541499
L 832.948295 493.219092
L 834.029258 493.135153
L 835.102842 493.275102
L 836.191183 493.643769
L 837.316418 494.263992
L 838.500681 495.17736
L 839.75873 496.437288
L 841.101632 498.106603
L 842.544146 500.26554
L 844.097338 503.002738
L 845.775967 506.425943
L 847.591099 510.647672
L 849.564871 515.818119
L 851.723107 522.114637
L 854.102701 529.765012
L 856.758992 539.078359
L 859.79897 550.578374
L 863.436613 565.250649
L 868.395023 586.255899
L 879.62892 634.10724
L 883.801511 650.730137
L 887.413329 664.229746
L 890.704178 675.689504
L 893.777359 685.603017
L 896.691901 694.268735
L 899.481006 701.878034
L 902.17419 708.592051
L 904.789899 714.526753
L 907.34289 719.778008
L 909.84792 724.431083
L 912.319746 728.560523
L 914.765748 732.22016
L 917.200681 735.468191
L 919.635614 738.349636
L 922.081616 740.903479
L 924.557131 743.169686
L 927.080608 745.180268
L 929.670492 746.960696
L 932.352608 748.535222
L 935.16016 749.924912
L 938.126351 751.143753
L 941.302833 752.20649
L 944.752322 753.123154
L 948.563362 753.90209
L 952.868767 754.550249
L 957.875137 755.072674
L 963.940335 755.47348
L 971.780083 755.75662
L 983.202134 755.927068
L 1005.555561 755.994773
L 1018.353719 755.99902
L 1018.353719 755.99902
" clip-path="url(#pe0e0255f7a)" style="fill: none; stroke: #808080; stroke-width: 3; stroke-linecap: square"/>
   </g>
   <g id="line2d_68">
    <path d="M 649.428099 755.322519
L 658.673468 754.834017
L 666.277101 754.215435
L 672.821907 753.464482
L 678.621475 752.578976
L 683.875029 751.554912
L 688.711692 750.387974
L 693.223697 749.072566
L 697.481142 747.601183
L 701.535675 745.965689
L 705.431568 744.154936
L 709.202026 742.157395
L 712.876562 739.958808
L 716.481001 737.542461
L 720.03748 734.889706
L 723.568133 731.977566
L 727.095097 728.778248
L 730.633129 725.266425
L 734.204365 721.405713
L 737.83094 717.154466
L 741.53499 712.466077
L 745.34603 707.279348
L 749.304642 701.510804
L 753.458786 695.057757
L 757.885937 687.761869
L 762.722601 679.351922
L 768.252851 669.274214
L 775.443283 655.673811
L 789.905312 628.221844
L 795.014983 619.076295
L 799.265049 611.911489
L 803.005992 606.029139
L 806.389074 601.113664
L 809.499148 596.978031
L 812.387864 593.498311
L 815.095805 590.577074
L 817.648796 588.143416
L 820.068973 586.137444
L 822.37847 584.50698
L 824.592046 583.212235
L 826.724457 582.218869
L 828.794151 581.497225
L 830.815883 581.02588
L 832.804412 580.789309
L 834.778184 580.77806
L 836.751956 580.989589
L 838.740485 581.427163
L 840.762217 582.101273
L 842.831911 583.027992
L 844.968012 584.231406
L 847.181587 585.737504
L 849.491085 587.582278
L 851.911261 589.80491
L 854.464252 592.457103
L 857.172193 595.597558
L 860.06091 599.295402
L 863.167294 603.640783
L 866.546687 608.759185
L 870.283941 614.833957
L 874.522939 622.162383
L 879.57727 631.364316
L 886.51683 644.502286
L 900.76857 671.56929
L 906.464838 681.839175
L 911.382666 690.257718
L 915.868846 697.505286
L 920.07464 703.88451
L 924.081213 709.563505
L 927.940213 714.652874
L 931.692224 719.237583
L 935.36676 723.380167
L 938.985957 727.128485
L 942.57195 730.525148
L 946.146875 733.607308
L 949.729178 736.404005
L 953.337307 738.940314
L 956.997086 741.242019
L 960.726961 743.325732
L 964.556447 745.210514
L 968.515059 746.910607
L 972.639688 748.438954
L 976.970918 749.805202
L 981.560399 751.017945
L 986.481916 752.085959
L 991.824012 753.014617
L 997.715813 753.809327
L 1004.345473 754.474421
L 1012.011824 755.01384
L 1018.353719 755.322519
L 1018.353719 755.322519
" clip-path="url(#pe0e0255f7a)" style="fill: none; stroke: #1f77b4; stroke-width: 1.5; stroke-linecap: square"/>
   </g>
   <g id="patch_23">
    <path d="M 630.981818 756
L 630.981818 459.490909
" style="fill: none; stroke: #000000; stroke-width: 0.8; stroke-linejoin: miter; stroke-linecap: square"/>
   </g>
   <g id="patch_24">
    <path d="M 1036.8 756
L 1036.8 459.490909
" style="fill: none; stroke: #000000; stroke-width: 0.8; stroke-linejoin: miter; stroke-linecap: square"/>
   </g>
   <g id="patch_25">
    <path d="M 630.981818 756
L 1036.8 756
" style="fill: none; stroke: #000000; stroke-width: 0.8; stroke-linejoin: miter; stroke-linecap: square"/>
   </g>
   <g id="patch_26">
    <path d="M 630.981818 459.490909
L 1036.8 459.490909
" style="fill: none; stroke: #000000; stroke-width: 0.8; stroke-linejoin: miter; stroke-linecap: square"/>
   </g>
   <g id="legend_4">
    <g id="patch_27">
     <path d="M 637.981818 496.847159
L 737.117756 496.847159
Q 739.117756 496.847159 739.117756 494.847159
L 739.117756 466.490909
Q 739.117756 464.490909 737.117756 464.490909
L 637.981818 464.490909
Q 635.981818 464.490909 635.981818 466.490909
L 635.981818 494.847159
Q 635.981818 496.847159 637.981818 496.847159
z
" style="fill: #ffffff; opacity: 0.8; stroke: #cccccc; stroke-linejoin: miter"/>
    </g>
    <g id="line2d_69">
     <path d="M 639.981818 472.589347
L 649.981818 472.589347
L 659.981818 472.589347
" style="fill: none; stroke: #808080; stroke-width: 3; stroke-linecap: square"/>
    </g>
    <g id="text_61">
     <!-- pdf reference -->
     <g transform="translate(667.981818 476.089347)scale(0.1 -0.1)">
      <use xlink:href="#DejaVuSans-70"/>
      <use xlink:href="#DejaVuSans-64" x="63.476562"/>
      <use xlink:href="#DejaVuSans-66" x="126.953125"/>
      <use xlink:href="#DejaVuSans-20" x="162.158203"/>
      <use xlink:href="#DejaVuSans-72" x="193.945312"/>
      <use xlink:href="#DejaVuSans-65" x="232.808594"/>
      <use xlink:href="#DejaVuSans-66" x="294.332031"/>
      <use xlink:href="#DejaVuSans-65" x="329.537109"/>
      <use xlink:href="#DejaVuSans-72" x="391.060547"/>
      <use xlink:href="#DejaVuSans-65" x="429.923828"/>
      <use xlink:href="#DejaVuSans-6e" x="491.447266"/>
      <use xlink:href="#DejaVuSans-63" x="554.826172"/>
      <use xlink:href="#DejaVuSans-65" x="609.806641"/>
     </g>
    </g>
    <g id="line2d_70">
     <path d="M 639.981818 487.267472
L 649.981818 487.267472
L 659.981818 487.267472
" style="fill: none; stroke: #1f77b4; stroke-width: 1.5; stroke-linecap: square"/>
    </g>
    <g id="text_62">
     <!-- pdf drifted 2 -->
     <g transform="translate(667.981818 490.767472)scale(0.1 -0.1)">
      <use xlink:href="#DejaVuSans-70"/>
      <use xlink:href="#DejaVuSans-64" x="63.476562"/>
      <use xlink:href="#DejaVuSans-66" x="126.953125"/>
      <use xlink:href="#DejaVuSans-20" x="162.158203"/>
      <use xlink:href="#DejaVuSans-64" x="193.945312"/>
      <use xlink:href="#DejaVuSans-72" x="257.421875"/>
      <use xlink:href="#DejaVuSans-69" x="298.535156"/>
      <use xlink:href="#DejaVuSans-66" x="326.318359"/>
      <use xlink:href="#DejaVuSans-74" x="359.773438"/>
      <use xlink:href="#DejaVuSans-65" x="398.982422"/>
      <use xlink:href="#DejaVuSans-64" x="460.505859"/>
      <use xlink:href="#DejaVuSans-20" x="523.982422"/>
      <use xlink:href="#DejaVuSans-32" x="555.769531"/>
     </g>
    </g>
   </g>
  </g>
 </g>
 <defs>
  <clipPath id="p60ad80bfa2">
   <rect x="144" y="103.68" width="405.818182" height="296.509091"/>
  </clipPath>
  <clipPath id="p7570ce1ce8">
   <rect x="630.981818" y="103.68" width="405.818182" height="296.509091"/>
  </clipPath>
  <clipPath id="p638af081d4">
   <rect x="144" y="459.490909" width="405.818182" height="296.509091"/>
  </clipPath>
  <clipPath id="pe0e0255f7a">
   <rect x="630.981818" y="459.490909" width="405.818182" height="296.509091"/>
  </clipPath>
 </defs>
</svg>
