<svg class="main-svg" xmlns="http://www.w3.org/2000/svg" xmlns:xlink="http://www.w3.org/1999/xlink" width="700" height="500" style="" viewBox="0 0 700 500"><rect x="0" y="0" width="700" height="500" style="fill: rgb(255, 255, 255); fill-opacity: 1;"/><defs id="defs-08c16d"><g class="clips"><clipPath id="clip08c16dxyplot" class="plotclip"><rect width="540" height="257"/></clipPath><clipPath class="axesclip" id="clip08c16dx"><rect x="80" y="0" width="540" height="500"/></clipPath><clipPath class="axesclip" id="clip08c16dy"><rect x="0" y="100" width="700" height="257"/></clipPath><clipPath class="axesclip" id="clip08c16dxy"><rect x="80" y="100" width="540" height="257"/></clipPath></g><g class="gradients"/><g class="patterns"/></defs><g class="bglayer"/><g class="layer-below"><g class="imagelayer"/><g class="shapelayer"><path data-index="0" fill-rule="evenodd" d="M80,305.15999999999997L620,305.15999999999997" clip-path="url(#clip08c16dy)" style="opacity: 1; stroke: rgb(221, 64, 64); stroke-opacity: 1; fill: rgb(0, 0, 0); fill-opacity: 0; stroke-dasharray: 9px, 9px; stroke-width: 1px;"/><path data-index="1" fill-rule="evenodd" d="M80,118L620,118" clip-path="url(#clip08c16dy)" style="opacity: 1; stroke: rgb(221, 64, 64); stroke-opacity: 1; fill: rgb(0, 0, 0); fill-opacity: 0; stroke-dasharray: 9px, 9px; stroke-width: 1px;"/><path data-index="2" fill-rule="evenodd" d="M336.1,357L336.1,100" clip-path="url(#clip08c16dx)" style="opacity: 1; stroke: rgb(59, 2, 128); stroke-opacity: 1; fill: rgb(0, 0, 0); fill-opacity: 0; stroke-dasharray: 9px, 9px; stroke-width: 1px;"/><path data-index="3" fill-rule="evenodd" d="M462.05,357H487.99V100H462.05Z" clip-path="url(#clip08c16dx)" style="opacity: 0.2; stroke: rgb(0, 0, 0); stroke-opacity: 0; fill: rgb(221, 64, 64); fill-opacity: 1; stroke-width: 0px;"/><path data-index="4" fill-rule="evenodd" d="M487.78,357H513.1V100H487.78Z" clip-path="url(#clip08c16dx)" style="opacity: 0.2; stroke: rgb(0, 0, 0); stroke-opacity: 0; fill: rgb(221, 64, 64); fill-opacity: 1; stroke-width: 0px;"/><path data-index="5" fill-rule="evenodd" d="M512.89,357H538.2V100H512.89Z" clip-path="url(#clip08c16dx)" style="opacity: 0.2; stroke: rgb(0, 0, 0); stroke-opacity: 0; fill: rgb(221, 64, 64); fill-opacity: 1; stroke-width: 0px;"/><path data-index="6" fill-rule="evenodd" d="M538,357H563.9300000000001V100H538Z" clip-path="url(#clip08c16dx)" style="opacity: 0.2; stroke: rgb(0, 0, 0); stroke-opacity: 0; fill: rgb(221, 64, 64); fill-opacity: 1; stroke-width: 0px;"/><path data-index="7" fill-rule="evenodd" d="M563.73,357H589.25V100H563.73Z" clip-path="url(#clip08c16dx)" style="opacity: 0.2; stroke: rgb(0, 0, 0); stroke-opacity: 0; fill: rgb(221, 64, 64); fill-opacity: 1; stroke-width: 0px;"/></g></g><g class="cartesianlayer"><g class="subplot xy"><g class="layer-subplot"><g class="shapelayer"/><g class="imagelayer"/></g><g class="gridlayer"><g class="x"/><g class="y"/></g><g class="zerolinelayer"/><path class="xlines-below"/><path class="ylines-below"/><g class="overlines-below"/><g class="xaxislayer-below"/><g class="yaxislayer-below"/><g class="overaxes-below"/><g class="plot" transform="translate(80,100)" clip-path="url(#clip08c16dxyplot)"><g class="scatterlayer mlayer"><g class="trace scatter tracec81b63" style="stroke-miterlimit: 2;"><g class="fills"><g><path class="js-fill" d="M256.3,140.17L282.04,144.7L306.73,139.66L332.25,134.78L357.36,139.62L382.26,141.75L407.99,244.15L433.1,236.15L458.2,243.44L483.93,227.18L509.25,243.43L509.25,234.71L483.93,218.46L458.2,234.72L433.1,227.43L407.99,235.43L382.26,133.03L357.36,130.9L332.25,126.06L306.73,130.94L282.04,135.98L256.3,131.45Z" style="fill: rgb(59, 2, 128); fill-opacity: 0.2; stroke-width: 0;"/></g></g><g class="errorbars"/><g class="lines"><path class="js-line" d="M256.3,131.45L282.04,135.98L306.73,130.94L332.25,126.06L357.36,130.9L382.26,133.03L407.99,235.43L433.1,227.43L458.2,234.72L483.93,218.46L509.25,234.71" style="vector-effect: non-scaling-stroke; fill: none; stroke: rgb(0, 0, 0); stroke-opacity: 0; stroke-width: 2px; opacity: 1;"/></g><g class="points"/><g class="text"/></g><g class="trace scatter trace1f93b9" style="stroke-miterlimit: 2;"><g class="fills"/><g class="errorbars"/><g class="lines"><path class="js-line" d="M256.3,140.17L282.04,144.7L306.73,139.66L332.25,134.78L357.36,139.62L382.26,141.75L407.99,244.15L433.1,236.15L458.2,243.44L483.93,227.18L509.25,243.43" style="vector-effect: non-scaling-stroke; fill: none; stroke: rgb(0, 0, 0); stroke-opacity: 0; stroke-width: 2px; opacity: 1;"/></g><g class="points"/><g class="text"/></g><g class="trace scatter tracea8f4a9" style="stroke-miterlimit: 2; opacity: 1;"><g class="fills"/><g class="errorbars"/><g class="lines"><path class="js-line" d="M5.02,135.21L30.75,135.21L56.07,136.95L80.97,140.01L106.07,136.17L131.6,136.3L156.91,134.87L181.4,139.19L206.5,137.24L231.4,133.06L256.3,135.81" style="vector-effect: non-scaling-stroke; fill: none; stroke: rgb(0, 200, 229); stroke-opacity: 1; stroke-width: 2px; opacity: 1;"/></g><g class="points"/><g class="text"/></g><g class="trace scatter trace1c9161" style="stroke-miterlimit: 2; opacity: 1;"><g class="fills"/><g class="errorbars"/><g class="lines"><path class="js-line" d="M256.3,135.81L282.04,140.34L306.73,135.3L332.25,130.42L357.36,135.26L382.26,137.39L407.99,239.79L433.1,231.79L458.2,239.08L483.93,222.82L509.25,239.07" style="vector-effect: non-scaling-stroke; fill: none; stroke: rgb(59, 2, 128); stroke-opacity: 1; stroke-width: 2px; opacity: 1; stroke-dasharray: 9px, 9px;"/></g><g class="points"/><g class="text"/></g><g class="trace scatter tracea694e5" style="stroke-miterlimit: 2; opacity: 1;"><g class="fills"/><g class="errorbars"/><g class="lines"/><g class="points"><path class="point plotly-customdata" transform="translate(30.75,135.21)" d="M3,3H-3V-3H3Z" style="opacity: 1; stroke-width: 0px; fill: rgb(0, 200, 229); fill-opacity: 1;"/><path class="point plotly-customdata" transform="translate(56.07,136.95)" d="M3,3H-3V-3H3Z" style="opacity: 1; stroke-width: 0px; fill: rgb(0, 200, 229); fill-opacity: 1;"/><path class="point plotly-customdata" transform="translate(80.97,140.01)" d="M3,3H-3V-3H3Z" style="opacity: 1; stroke-width: 0px; fill: rgb(0, 200, 229); fill-opacity: 1;"/><path class="point plotly-customdata" transform="translate(106.07,136.17)" d="M3,3H-3V-3H3Z" style="opacity: 1; stroke-width: 0px; fill: rgb(0, 200, 229); fill-opacity: 1;"/><path class="point plotly-customdata" transform="translate(131.6,136.3)" d="M3,3H-3V-3H3Z" style="opacity: 1; stroke-width: 0px; fill: rgb(0, 200, 229); fill-opacity: 1;"/><path class="point plotly-customdata" transform="translate(156.91,134.87)" d="M3,3H-3V-3H3Z" style="opacity: 1; stroke-width: 0px; fill: rgb(0, 200, 229); fill-opacity: 1;"/><path class="point plotly-customdata" transform="translate(181.4,139.19)" d="M3,3H-3V-3H3Z" style="opacity: 1; stroke-width: 0px; fill: rgb(0, 200, 229); fill-opacity: 1;"/><path class="point plotly-customdata" transform="translate(206.5,137.24)" d="M3,3H-3V-3H3Z" style="opacity: 1; stroke-width: 0px; fill: rgb(0, 200, 229); fill-opacity: 1;"/><path class="point plotly-customdata" transform="translate(231.4,133.06)" d="M3,3H-3V-3H3Z" style="opacity: 1; stroke-width: 0px; fill: rgb(0, 200, 229); fill-opacity: 1;"/><path class="point plotly-customdata" transform="translate(256.3,135.81)" d="M3,3H-3V-3H3Z" style="opacity: 1; stroke-width: 0px; fill: rgb(0, 200, 229); fill-opacity: 1;"/></g><g class="text"/></g><g class="trace scatter tracea61342" style="stroke-miterlimit: 2; opacity: 1;"><g class="fills"/><g class="errorbars"/><g class="lines"/><g class="points"><path class="point plotly-customdata" transform="translate(282.04,140.34)" d="M3,3H-3V-3H3Z" style="opacity: 1; stroke-width: 0px; fill: rgb(59, 2, 128); fill-opacity: 1;"/><path class="point plotly-customdata" transform="translate(306.73,135.3)" d="M3,3H-3V-3H3Z" style="opacity: 1; stroke-width: 0px; fill: rgb(59, 2, 128); fill-opacity: 1;"/><path class="point plotly-customdata" transform="translate(332.25,130.42)" d="M3,3H-3V-3H3Z" style="opacity: 1; stroke-width: 0px; fill: rgb(59, 2, 128); fill-opacity: 1;"/><path class="point plotly-customdata" transform="translate(357.36,135.26)" d="M3,3H-3V-3H3Z" style="opacity: 1; stroke-width: 0px; fill: rgb(59, 2, 128); fill-opacity: 1;"/><path class="point plotly-customdata" transform="translate(382.26,137.39)" d="M3,3H-3V-3H3Z" style="opacity: 1; stroke-width: 0px; fill: rgb(59, 2, 128); fill-opacity: 1;"/></g><g class="text"/></g><g class="trace scatter trace9d4e0b" style="stroke-miterlimit: 2; opacity: 1;"><g class="fills"/><g class="errorbars"/><g class="lines"/><g class="points"><path class="point plotly-customdata" transform="translate(407.99,239.79)" d="M3.9,0L0,3.9L-3.9,0L0,-3.9Z" style="opacity: 1; stroke-width: 0px; fill: rgb(221, 64, 64); fill-opacity: 1;"/><path class="point plotly-customdata" transform="translate(433.1,231.79)" d="M3.9,0L0,3.9L-3.9,0L0,-3.9Z" style="opacity: 1; stroke-width: 0px; fill: rgb(221, 64, 64); fill-opacity: 1;"/><path class="point plotly-customdata" transform="translate(458.2,239.08)" d="M3.9,0L0,3.9L-3.9,0L0,-3.9Z" style="opacity: 1; stroke-width: 0px; fill: rgb(221, 64, 64); fill-opacity: 1;"/><path class="point plotly-customdata" transform="translate(483.93,222.82)" d="M3.9,0L0,3.9L-3.9,0L0,-3.9Z" style="opacity: 1; stroke-width: 0px; fill: rgb(221, 64, 64); fill-opacity: 1;"/><path class="point plotly-customdata" transform="translate(509.25,239.07)" d="M3.9,0L0,3.9L-3.9,0L0,-3.9Z" style="opacity: 1; stroke-width: 0px; fill: rgb(221, 64, 64); fill-opacity: 1;"/></g><g class="text"/></g><g class="trace scatter trace897393" style="stroke-miterlimit: 2;"><g class="fills"><g><path class="js-fill" d="M0,0Z" style="stroke-width: 0; fill: rgb(59, 2, 128); fill-opacity: 0.2;"/></g></g><g class="errorbars"/><g class="lines"/><g class="points"/><g class="text"/></g><g class="trace scatter trace2da17d" style="stroke-miterlimit: 2;"><g class="fills"/><g class="errorbars"/><g class="lines"/><g class="points"/><g class="text"/></g><g class="trace scatter trace844520" style="stroke-miterlimit: 2; opacity: 1;"><g class="fills"/><g class="errorbars"/><g class="lines"/><g class="points"/><g class="text"/></g><g class="trace scatter trace7d4040" style="stroke-miterlimit: 2;"><g class="fills"><g><path class="js-fill" d="M0,0Z" style="stroke-width: 0; fill: rgb(221, 64, 64); fill-opacity: 0.2;"/></g></g><g class="errorbars"/><g class="lines"/><g class="points"/><g class="text"/></g><g class="trace scatter trace84a4ac" style="stroke-miterlimit: 2;"><g class="fills"/><g class="errorbars"/><g class="lines"/><g class="points"/><g class="text"/></g></g></g><g class="overplot"/><path class="xlines-above crisp" style="fill: none; stroke-width: 1px; stroke: rgb(102, 102, 102); stroke-opacity: 1;" d="M79,357.5H621M79,99.5H621"/><path class="ylines-above crisp" style="fill: none; stroke-width: 1px; stroke: rgb(102, 102, 102); stroke-opacity: 1;" d="M79.5,100V357M620.5,100V357"/><g class="overlines-above"/><g class="xaxislayer-above"><g class="xtick"><text text-anchor="middle" x="0" y="372.4" transform="translate(134.2,0)" style="font-family: 'Open Sans', verdana, arial, sans-serif; font-size: 12px; fill: rgb(42, 63, 95); fill-opacity: 1; white-space: pre; opacity: 1;">2015</text></g><g class="xtick"><text text-anchor="middle" x="0" y="372.4" style="font-family: 'Open Sans', verdana, arial, sans-serif; font-size: 12px; fill: rgb(42, 63, 95); fill-opacity: 1; white-space: pre; opacity: 1;" transform="translate(209.94,0)">2016</text></g><g class="xtick"><text text-anchor="middle" x="0" y="372.4" style="font-family: 'Open Sans', verdana, arial, sans-serif; font-size: 12px; fill: rgb(42, 63, 95); fill-opacity: 1; white-space: pre; opacity: 1;" transform="translate(285.88,0)">2017</text></g><g class="xtick"><text text-anchor="middle" x="0" y="372.4" style="font-family: 'Open Sans', verdana, arial, sans-serif; font-size: 12px; fill: rgb(42, 63, 95); fill-opacity: 1; white-space: pre; opacity: 1;" transform="translate(361.62,0)">2018</text></g><g class="xtick"><text text-anchor="middle" x="0" y="372.4" style="font-family: 'Open Sans', verdana, arial, sans-serif; font-size: 12px; fill: rgb(42, 63, 95); fill-opacity: 1; white-space: pre; opacity: 1;" transform="translate(437.36,0)">2019</text></g><g class="xtick"><text text-anchor="middle" x="0" y="372.4" style="font-family: 'Open Sans', verdana, arial, sans-serif; font-size: 12px; fill: rgb(42, 63, 95); fill-opacity: 1; white-space: pre; opacity: 1;" transform="translate(513.1,0)">2020</text></g><g class="xtick"><text text-anchor="middle" x="0" y="372.4" style="font-family: 'Open Sans', verdana, arial, sans-serif; font-size: 12px; fill: rgb(42, 63, 95); fill-opacity: 1; white-space: pre; opacity: 1;" transform="translate(589.04,0)">2021</text></g></g><g class="yaxislayer-above"><g class="ytick"><text text-anchor="end" x="76.6" y="4.199999999999999" transform="translate(0,345.62)" style="font-family: 'Open Sans', verdana, arial, sans-serif; font-size: 12px; fill: rgb(42, 63, 95); fill-opacity: 1; white-space: pre; opacity: 1;">0.96</text></g><g class="ytick"><text text-anchor="end" x="76.6" y="4.199999999999999" style="font-family: 'Open Sans', verdana, arial, sans-serif; font-size: 12px; fill: rgb(42, 63, 95); fill-opacity: 1; white-space: pre; opacity: 1;" transform="translate(0,284.63)">0.965</text></g><g class="ytick"><text text-anchor="end" x="76.6" y="4.199999999999999" style="font-family: 'Open Sans', verdana, arial, sans-serif; font-size: 12px; fill: rgb(42, 63, 95); fill-opacity: 1; white-space: pre; opacity: 1;" transform="translate(0,223.64)">0.97</text></g><g class="ytick"><text text-anchor="end" x="76.6" y="4.199999999999999" style="font-family: 'Open Sans', verdana, arial, sans-serif; font-size: 12px; fill: rgb(42, 63, 95); fill-opacity: 1; white-space: pre; opacity: 1;" transform="translate(0,162.64)">0.975</text></g><g class="ytick"><text text-anchor="end" x="76.6" y="4.199999999999999" style="font-family: 'Open Sans', verdana, arial, sans-serif; font-size: 12px; fill: rgb(42, 63, 95); fill-opacity: 1; white-space: pre; opacity: 1;" transform="translate(0,101.65)">0.98</text></g></g><g class="overaxes-above"/></g></g><g class="polarlayer"/><g class="smithlayer"/><g class="ternarylayer"/><g class="geolayer"/><g class="funnelarealayer"/><g class="pielayer"/><g class="iciclelayer"/><g class="treemaplayer"/><g class="sunburstlayer"/><g class="glimages"/><defs id="topdefs-08c16d"><g class="clips"/><clipPath id="legend08c16d"><rect width="366" height="67" x="0" y="0"/></clipPath></defs><g class="layer-above"><g class="imagelayer"/><g class="shapelayer"/></g><g class="infolayer"><g class="legend" pointer-events="all" transform="translate(80,421.25)"><rect class="bg" shape-rendering="crispEdges" style="stroke: rgb(68, 68, 68); stroke-opacity: 1; fill: rgb(255, 255, 255); fill-opacity: 1; stroke-width: 0px;" width="366" height="67" x="0" y="0"/><g class="scrollbox" transform="" clip-path="url(#legend08c16d)"><g class="groups"><g class="traces" style="opacity: 1;" transform="translate(0,14.5)"><text class="legendtext" text-anchor="start" x="40" y="4.680000000000001" style="font-family: 'Open Sans', verdana, arial, sans-serif; font-size: 12px; fill: rgb(42, 63, 95); fill-opacity: 1; white-space: pre;">Reference period</text><g class="layers" style="opacity: 1;"><g class="legendfill"/><g class="legendlines"><path class="js-line" d="M5,0h30" style="fill: none; stroke: rgb(0, 200, 229); stroke-opacity: 1; stroke-width: 2px;"/></g><g class="legendsymbols"><g class="legendpoints"/></g></g><rect class="legendtoggle" x="0" y="-9.5" width="144.359375" height="19" style="fill: rgb(0, 0, 0); fill-opacity: 0;"/></g><g class="traces" style="opacity: 1;" transform="translate(183.609375,14.5)"><text class="legendtext" text-anchor="start" x="40" y="4.680000000000001" style="font-family: 'Open Sans', verdana, arial, sans-serif; font-size: 12px; fill: rgb(42, 63, 95); fill-opacity: 1; white-space: pre;">Analysis period</text><g class="layers" style="opacity: 1;"><g class="legendfill"/><g class="legendlines"><path class="js-line" d="M5,0h30" style="fill: none; stroke: rgb(59, 2, 128); stroke-opacity: 1; stroke-dasharray: 9px, 9px; stroke-width: 2px;"/></g><g class="legendsymbols"><g class="legendpoints"/></g></g><rect class="legendtoggle" x="0" y="-9.5" width="134.53125" height="19" style="fill: rgb(0, 0, 0); fill-opacity: 0;"/></g><g class="traces" style="opacity: 1;" transform="translate(0,33.5)"><text class="legendtext" text-anchor="start" x="40" y="4.680000000000001" style="font-family: 'Open Sans', verdana, arial, sans-serif; font-size: 12px; fill: rgb(42, 63, 95); fill-opacity: 1; white-space: pre;">Confidence band</text><g class="layers"><g class="legendfill"><path class="js-fill" d="M5,-2h30v6h-30z" style="stroke-width: 0; fill: rgb(59, 2, 128); fill-opacity: 0.2;"/></g><g class="legendlines"><path class="js-line" d="M5,-2h30" style="fill: none; stroke: rgb(0, 0, 0); stroke-opacity: 0; stroke-width: 2px;"/></g><g class="legendsymbols"><g class="legendpoints"/></g></g><rect class="legendtoggle" x="0" y="-9.5" width="142.859375" height="19" style="fill: rgb(0, 0, 0); fill-opacity: 0;"/></g><g class="traces" style="opacity: 1;" transform="translate(183.609375,33.5)"><text class="legendtext" text-anchor="start" x="40" y="4.680000000000001" style="font-family: 'Open Sans', verdana, arial, sans-serif; font-size: 12px; fill: rgb(42, 63, 95); fill-opacity: 1; white-space: pre;">Performance threshold</text><g class="layers" style="opacity: 1;"><g class="legendfill"/><g class="legendlines"><path class="js-line" d="M5,0h30" style="fill: none; stroke: rgb(221, 64, 64); stroke-opacity: 1; stroke-dasharray: 9px, 9px; stroke-width: 1px;"/></g><g class="legendsymbols"><g class="legendpoints"/></g></g><rect class="legendtoggle" x="0" y="-9.5" width="178.921875" height="19" style="fill: rgb(0, 0, 0); fill-opacity: 0;"/></g><g class="traces" style="opacity: 1;" transform="translate(0,52.5)"><text class="legendtext" text-anchor="start" x="40" y="4.680000000000001" style="font-family: 'Open Sans', verdana, arial, sans-serif; font-size: 12px; fill: rgb(42, 63, 95); fill-opacity: 1; white-space: pre;">Degraded performance</text><g class="layers"><g class="legendfill"><path class="js-fill" d="M5,0h30v6h-30z" style="stroke-width: 0; fill: rgb(221, 64, 64); fill-opacity: 0.2;"/></g><g class="legendlines"><path class="js-line" d="M5,0h30" style="fill: none; stroke: rgb(0, 0, 0); stroke-opacity: 0; stroke-width: 2px;"/></g><g class="legendsymbols"><g class="legendpoints"><path class="scatterpts" transform="translate(20,0)" d="M3.9,0L0,3.9L-3.9,0L0,-3.9Z" style="opacity: 1; stroke-width: 0px; fill: rgb(221, 64, 64); fill-opacity: 1;"/></g></g></g><rect class="legendtoggle" x="0" y="-9.5" width="181.109375" height="19" style="fill: rgb(0, 0, 0); fill-opacity: 0;"/></g></g></g><rect class="scrollbar" rx="20" ry="3" width="0" height="0" style="fill: rgb(128, 139, 164); fill-opacity: 1;" x="0" y="0"/></g><g class="g-gtitle"><text class="gtitle" x="35" y="50" text-anchor="start" dy="0em" style="font-family: 'Open Sans', verdana, arial, sans-serif; font-size: 17px; fill: rgb(42, 63, 95); opacity: 1; font-weight: normal; white-space: pre;">CBPE - estimated performance</text></g><g class="g-xtitle"><text class="xtitle" x="350" y="399.6125" text-anchor="middle" style="font-family: 'Open Sans', verdana, arial, sans-serif; font-size: 14px; fill: rgb(42, 63, 95); opacity: 1; font-weight: normal; white-space: pre;">Time</text></g><g class="g-ytitle"><text class="ytitle" transform="rotate(-90,16.918750000000003,228.5)" x="16.918750000000003" y="228.5" text-anchor="middle" style="font-family: 'Open Sans', verdana, arial, sans-serif; font-size: 14px; fill: rgb(42, 63, 95); opacity: 1; font-weight: normal; white-space: pre;">estimated performance</text></g><g class="annotation" data-index="0" style="opacity: 1;"><g class="annotation-text-g" transform="rotate(0,604,296.15999999999997)"><g class="cursor-pointer" transform="translate(588,287)"><rect class="bg" x="0.5" y="0.5" width="31" height="17" style="stroke-width: 1px; stroke: rgb(0, 0, 0); stroke-opacity: 0; fill: rgb(0, 0, 0); fill-opacity: 0;"/><text class="annotation-text" text-anchor="middle" x="15.640625" y="14" style="font-family: 'Open Sans', verdana, arial, sans-serif; font-size: 12px; fill: rgb(221, 64, 64); fill-opacity: 1; white-space: pre;">0.96</text></g></g></g><g class="annotation" data-index="1" style="opacity: 1;"><g class="annotation-text-g" transform="rotate(0,604.5,109)"><g class="cursor-pointer" transform="translate(589,100)"><rect class="bg" x="0.5" y="0.5" width="30" height="17" style="stroke-width: 1px; stroke: rgb(0, 0, 0); stroke-opacity: 0; fill: rgb(0, 0, 0); fill-opacity: 0;"/><text class="annotation-text" text-anchor="middle" x="15.640625" y="14" style="font-family: 'Open Sans', verdana, arial, sans-serif; font-size: 12px; fill: rgb(221, 64, 64); fill-opacity: 1; white-space: pre;">0.98</text></g></g></g></g></svg>
