<svg class="main-svg" xmlns="http://www.w3.org/2000/svg" xmlns:xlink="http://www.w3.org/1999/xlink" width="700" height="500" style="" viewBox="0 0 700 500"><rect x="0" y="0" width="700" height="500" style="fill: rgb(255, 255, 255); fill-opacity: 1;"/><defs id="defs-00811a"><g class="clips"><clipPath id="clip00811axyplot" class="plotclip"><rect width="540" height="272"/></clipPath><clipPath class="axesclip" id="clip00811ax"><rect x="80" y="0" width="540" height="500"/></clipPath><clipPath class="axesclip" id="clip00811ay"><rect x="0" y="100" width="700" height="272"/></clipPath><clipPath class="axesclip" id="clip00811axy"><rect x="80" y="100" width="540" height="272"/></clipPath></g><g class="gradients"/><g class="patterns"/></defs><g class="bglayer"/><g class="layer-below"><g class="imagelayer"/><g class="shapelayer"><path data-index="0" fill-rule="evenodd" d="M80,342.7L620,342.7" clip-path="url(#clip00811ay)" style="opacity: 1; stroke: rgb(221, 64, 64); stroke-opacity: 1; fill: rgb(0, 0, 0); fill-opacity: 0; stroke-dasharray: 9px, 9px; stroke-width: 1px;"/><path data-index="1" fill-rule="evenodd" d="M80,302.02L620,302.02" clip-path="url(#clip00811ay)" style="opacity: 1; stroke: rgb(221, 64, 64); stroke-opacity: 1; fill: rgb(0, 0, 0); fill-opacity: 0; stroke-dasharray: 9px, 9px; stroke-width: 1px;"/><path data-index="2" fill-rule="evenodd" d="M350,372L350,100" clip-path="url(#clip00811ax)" style="opacity: 1; stroke: rgb(59, 2, 128); stroke-opacity: 1; fill: rgb(0, 0, 0); fill-opacity: 0; stroke-dasharray: 9px, 9px; stroke-width: 1px;"/><path data-index="3" fill-rule="evenodd" d="M475.92,372H501.11V100H475.92Z" clip-path="url(#clip00811ax)" style="opacity: 0.2; stroke: rgb(0, 0, 0); stroke-opacity: 0; fill: rgb(221, 64, 64); fill-opacity: 1; stroke-width: 0px;"/><path data-index="4" fill-rule="evenodd" d="M501.11,372H526.29V100H501.11Z" clip-path="url(#clip00811ax)" style="opacity: 0.2; stroke: rgb(0, 0, 0); stroke-opacity: 0; fill: rgb(221, 64, 64); fill-opacity: 1; stroke-width: 0px;"/><path data-index="5" fill-rule="evenodd" d="M526.29,372H551.47V100H526.29Z" clip-path="url(#clip00811ax)" style="opacity: 0.2; stroke: rgb(0, 0, 0); stroke-opacity: 0; fill: rgb(221, 64, 64); fill-opacity: 1; stroke-width: 0px;"/><path data-index="6" fill-rule="evenodd" d="M551.47,372H576.6600000000001V100H551.47Z" clip-path="url(#clip00811ax)" style="opacity: 0.2; stroke: rgb(0, 0, 0); stroke-opacity: 0; fill: rgb(221, 64, 64); fill-opacity: 1; stroke-width: 0px;"/><path data-index="7" fill-rule="evenodd" d="M576.6600000000001,372H601.84V100H576.6600000000001Z" clip-path="url(#clip00811ax)" style="opacity: 0.2; stroke: rgb(0, 0, 0); stroke-opacity: 0; fill: rgb(221, 64, 64); fill-opacity: 1; stroke-width: 0px;"/></g></g><g class="cartesianlayer"><g class="subplot xy"><g class="layer-subplot"><g class="shapelayer"/><g class="imagelayer"/></g><g class="minor-gridlayer"><g class="x"/><g class="y"/></g><g class="gridlayer"><g class="x"/><g class="y"/></g><g class="zerolinelayer"/><path class="xlines-below"/><path class="ylines-below"/><g class="overlines-below"/><g class="xaxislayer-below"/><g class="yaxislayer-below"/><g class="overaxes-below"/><g class="plot" transform="translate(80,100)" clip-path="url(#clip00811axyplot)"><g class="scatterlayer mlayer"><g class="trace scatter trace462faf" style="stroke-miterlimit: 2;"><g class="fills"><g><path class="js-fill" d="M18.16,247.13H43.34V246.91H68.53V248.36H93.71V242.1H118.89V255.37H144.08V239.05H169.26V242.56H194.45V234.51H219.63V256.52H244.82V245.12H270V245.12L270,198.32V198.32H244.82V209.72H219.63V187.71H194.45V195.76H169.26V192.24H144.08V208.57H118.89V195.3H93.71V201.56H68.53V200.11H43.34V200.33H18.16Z" style="fill: rgb(0, 200, 229); fill-opacity: 0.2; stroke-width: 0;"/></g></g><g class="errorbars"/><g class="lines"><path class="js-line" d="M18.16,200.33H43.34V200.11H68.53V201.56H93.71V195.3H118.89V208.57H144.08V192.24H169.26V195.76H194.45V187.71H219.63V209.72H244.82V198.32H270V198.32" style="vector-effect: non-scaling-stroke; fill: none; stroke: rgb(0, 0, 0); stroke-opacity: 0; stroke-width: 2px; opacity: 1;"/></g><g class="points"/><g class="text"/></g><g class="trace scatter trace856b14" style="stroke-miterlimit: 2;"><g class="fills"/><g class="errorbars"/><g class="lines"><path class="js-line" d="M18.16,247.13H43.34V246.91H68.53V248.36H93.71V242.1H118.89V255.37H144.08V239.05H169.26V242.56H194.45V234.51H219.63V256.52H244.82V245.12H270V245.12" style="vector-effect: non-scaling-stroke; fill: none; stroke: rgb(0, 0, 0); stroke-opacity: 0; stroke-width: 2px; opacity: 1;"/></g><g class="points"/><g class="text"/></g><g class="trace scatter tracefdee81" style="stroke-miterlimit: 2;"><g class="fills"><g><path class="js-fill" d="M270,233.31H295.18V247.01H320.37V240.12H345.55V236.08H370.74V258.4H395.92V75.2H421.11V60.4H446.29V66.33H471.47V63.79H496.66V83.44H521.84V83.44L521.84,36.64V36.64H496.66V16.99H471.47V19.53H446.29V13.6H421.11V28.39H395.92V211.6H370.74V189.28H345.55V193.32H320.37V200.21H295.18V186.5H270Z" style="fill: rgb(59, 2, 128); fill-opacity: 0.2; stroke-width: 0;"/></g></g><g class="errorbars"/><g class="lines"><path class="js-line" d="M270,186.5H295.18V200.21H320.37V193.32H345.55V189.28H370.74V211.6H395.92V28.39H421.11V13.6H446.29V19.53H471.47V16.99H496.66V36.64H521.84V36.64" style="vector-effect: non-scaling-stroke; fill: none; stroke: rgb(0, 0, 0); stroke-opacity: 0; stroke-width: 2px; opacity: 1;"/></g><g class="points"/><g class="text"/></g><g class="trace scatter tracee1445b" style="stroke-miterlimit: 2;"><g class="fills"/><g class="errorbars"/><g class="lines"><path class="js-line" d="M270,233.31H295.18V247.01H320.37V240.12H345.55V236.08H370.74V258.4H395.92V75.2H421.11V60.4H446.29V66.33H471.47V63.79H496.66V83.44H521.84V83.44" style="vector-effect: non-scaling-stroke; fill: none; stroke: rgb(0, 0, 0); stroke-opacity: 0; stroke-width: 2px; opacity: 1;"/></g><g class="points"/><g class="text"/></g><g class="trace scatter trace5c13a3" style="stroke-miterlimit: 2; opacity: 1;"><g class="fills"/><g class="errorbars"/><g class="lines"><path class="js-line" d="M18.16,223.73H43.34V223.51H68.53V224.96H93.71V218.7H118.89V231.97H144.08V215.65H169.26V219.16H194.45V211.11H219.63V233.12H244.82V221.72H270V221.72" style="vector-effect: non-scaling-stroke; fill: none; stroke: rgb(0, 200, 229); stroke-opacity: 1; stroke-width: 2px; opacity: 1;"/></g><g class="points"/><g class="text"/></g><g class="trace scatter tracea37930" style="stroke-miterlimit: 2; opacity: 1;"><g class="fills"/><g class="errorbars"/><g class="lines"><path class="js-line" d="M270,209.9H295.18V223.61H320.37V216.72H345.55V212.68H370.74V235H395.92V51.79H421.11V37H446.29V42.93H471.47V40.39H496.66V60.04H521.84V60.04" style="vector-effect: non-scaling-stroke; fill: none; stroke: rgb(59, 2, 128); stroke-opacity: 1; stroke-width: 2px; opacity: 1;"/></g><g class="points"/><g class="text"/></g><g class="trace scatter trace8fe238" style="stroke-miterlimit: 2; opacity: 1;"><g class="fills"/><g class="errorbars"/><g class="lines"/><g class="points"><path class="point plotly-customdata" transform="translate(30.75,223.73)" d="M3,3H-3V-3H3Z" style="opacity: 1; stroke-width: 0px; fill: rgb(0, 200, 229); fill-opacity: 1;"/><path class="point plotly-customdata" transform="translate(55.93,223.51)" d="M3,3H-3V-3H3Z" style="opacity: 1; stroke-width: 0px; fill: rgb(0, 200, 229); fill-opacity: 1;"/><path class="point plotly-customdata" transform="translate(81.12,224.96)" d="M3,3H-3V-3H3Z" style="opacity: 1; stroke-width: 0px; fill: rgb(0, 200, 229); fill-opacity: 1;"/><path class="point plotly-customdata" transform="translate(106.3,218.7)" d="M3,3H-3V-3H3Z" style="opacity: 1; stroke-width: 0px; fill: rgb(0, 200, 229); fill-opacity: 1;"/><path class="point plotly-customdata" transform="translate(131.49,231.97)" d="M3,3H-3V-3H3Z" style="opacity: 1; stroke-width: 0px; fill: rgb(0, 200, 229); fill-opacity: 1;"/><path class="point plotly-customdata" transform="translate(156.67,215.65)" d="M3,3H-3V-3H3Z" style="opacity: 1; stroke-width: 0px; fill: rgb(0, 200, 229); fill-opacity: 1;"/><path class="point plotly-customdata" transform="translate(181.86,219.16)" d="M3,3H-3V-3H3Z" style="opacity: 1; stroke-width: 0px; fill: rgb(0, 200, 229); fill-opacity: 1;"/><path class="point plotly-customdata" transform="translate(207.04,211.11)" d="M3,3H-3V-3H3Z" style="opacity: 1; stroke-width: 0px; fill: rgb(0, 200, 229); fill-opacity: 1;"/><path class="point plotly-customdata" transform="translate(232.22,233.12)" d="M3,3H-3V-3H3Z" style="opacity: 1; stroke-width: 0px; fill: rgb(0, 200, 229); fill-opacity: 1;"/><path class="point plotly-customdata" transform="translate(257.41,221.72)" d="M3,3H-3V-3H3Z" style="opacity: 1; stroke-width: 0px; fill: rgb(0, 200, 229); fill-opacity: 1;"/></g><g class="text"/></g><g class="trace scatter tracee1922c" style="stroke-miterlimit: 2; opacity: 1;"><g class="fills"/><g class="errorbars"/><g class="lines"/><g class="points"><path class="point plotly-customdata" transform="translate(282.59,209.9)" d="M3,3H-3V-3H3Z" style="opacity: 1; stroke-width: 0px; fill: rgb(59, 2, 128); fill-opacity: 1;"/><path class="point plotly-customdata" transform="translate(307.78,223.61)" d="M3,3H-3V-3H3Z" style="opacity: 1; stroke-width: 0px; fill: rgb(59, 2, 128); fill-opacity: 1;"/><path class="point plotly-customdata" transform="translate(332.96,216.72)" d="M3,3H-3V-3H3Z" style="opacity: 1; stroke-width: 0px; fill: rgb(59, 2, 128); fill-opacity: 1;"/><path class="point plotly-customdata" transform="translate(358.14,212.68)" d="M3,3H-3V-3H3Z" style="opacity: 1; stroke-width: 0px; fill: rgb(59, 2, 128); fill-opacity: 1;"/><path class="point plotly-customdata" transform="translate(383.33,235)" d="M3,3H-3V-3H3Z" style="opacity: 1; stroke-width: 0px; fill: rgb(59, 2, 128); fill-opacity: 1;"/></g><g class="text"/></g><g class="trace scatter tracebeddec" style="stroke-miterlimit: 2; opacity: 1;"><g class="fills"/><g class="errorbars"/><g class="lines"/><g class="points"><path class="point plotly-customdata" transform="translate(408.51,51.79)" d="M3.9,0L0,3.9L-3.9,0L0,-3.9Z" style="opacity: 1; stroke-width: 0px; fill: rgb(221, 64, 64); fill-opacity: 1;"/><path class="point plotly-customdata" transform="translate(433.7,37)" d="M3.9,0L0,3.9L-3.9,0L0,-3.9Z" style="opacity: 1; stroke-width: 0px; fill: rgb(221, 64, 64); fill-opacity: 1;"/><path class="point plotly-customdata" transform="translate(458.88,42.93)" d="M3.9,0L0,3.9L-3.9,0L0,-3.9Z" style="opacity: 1; stroke-width: 0px; fill: rgb(221, 64, 64); fill-opacity: 1;"/><path class="point plotly-customdata" transform="translate(484.07,40.39)" d="M3.9,0L0,3.9L-3.9,0L0,-3.9Z" style="opacity: 1; stroke-width: 0px; fill: rgb(221, 64, 64); fill-opacity: 1;"/><path class="point plotly-customdata" transform="translate(509.25,60.04)" d="M3.9,0L0,3.9L-3.9,0L0,-3.9Z" style="opacity: 1; stroke-width: 0px; fill: rgb(221, 64, 64); fill-opacity: 1;"/></g><g class="text"/></g><g class="trace scatter trace617ae6" style="stroke-miterlimit: 2;"><g class="fills"><g><path class="js-fill" d="M0,0Z" style="stroke-width: 0; fill: rgb(59, 2, 128); fill-opacity: 0.2;"/></g></g><g class="errorbars"/><g class="lines"/><g class="points"/><g class="text"/></g><g class="trace scatter tracef81073" style="stroke-miterlimit: 2;"><g class="fills"/><g class="errorbars"/><g class="lines"/><g class="points"/><g class="text"/></g><g class="trace scatter tracee43857" style="stroke-miterlimit: 2; opacity: 1;"><g class="fills"/><g class="errorbars"/><g class="lines"/><g class="points"/><g class="text"/></g><g class="trace scatter trace57e98f" style="stroke-miterlimit: 2;"><g class="fills"><g><path class="js-fill" d="M0,0Z" style="stroke-width: 0; fill: rgb(221, 64, 64); fill-opacity: 0.2;"/></g></g><g class="errorbars"/><g class="lines"/><g class="points"/><g class="text"/></g><g class="trace scatter trace566539" style="stroke-miterlimit: 2;"><g class="fills"/><g class="errorbars"/><g class="lines"/><g class="points"/><g class="text"/></g></g></g><g class="overplot"/><path class="xlines-above crisp" d="M79,372.5H621M79,99.5H621" style="fill: none; stroke-width: 1px; stroke: rgb(102, 102, 102); stroke-opacity: 1;"/><path class="ylines-above crisp" d="M79.5,100V372M620.5,100V372" style="fill: none; stroke-width: 1px; stroke: rgb(102, 102, 102); stroke-opacity: 1;"/><g class="overlines-above"/><g class="xaxislayer-above"><g class="xtick"><text text-anchor="middle" x="0" y="387.4" transform="translate(98.16,0)" style="font-family: 'Open Sans', verdana, arial, sans-serif; font-size: 12px; fill: rgb(42, 63, 95); fill-opacity: 1; white-space: pre; opacity: 1;">0</text></g><g class="xtick"><text text-anchor="middle" x="0" y="387.4" style="font-family: 'Open Sans', verdana, arial, sans-serif; font-size: 12px; fill: rgb(42, 63, 95); fill-opacity: 1; white-space: pre; opacity: 1;" transform="translate(224.08,0)">5</text></g><g class="xtick"><text text-anchor="middle" x="0" y="387.4" style="font-family: 'Open Sans', verdana, arial, sans-serif; font-size: 12px; fill: rgb(42, 63, 95); fill-opacity: 1; white-space: pre; opacity: 1;" transform="translate(350,0)">10</text></g><g class="xtick"><text text-anchor="middle" x="0" y="387.4" style="font-family: 'Open Sans', verdana, arial, sans-serif; font-size: 12px; fill: rgb(42, 63, 95); fill-opacity: 1; white-space: pre; opacity: 1;" transform="translate(475.92,0)">15</text></g><g class="xtick"><text text-anchor="middle" x="0" y="387.4" style="font-family: 'Open Sans', verdana, arial, sans-serif; font-size: 12px; fill: rgb(42, 63, 95); fill-opacity: 1; white-space: pre; opacity: 1;" transform="translate(601.84,0)">20</text></g></g><g class="yaxislayer-above"><g class="ytick"><text text-anchor="end" x="76.6" y="4.199999999999999" transform="translate(0,364.93)" style="font-family: 'Open Sans', verdana, arial, sans-serif; font-size: 12px; fill: rgb(42, 63, 95); fill-opacity: 1; white-space: pre; opacity: 1;">1.6</text></g><g class="ytick"><text text-anchor="end" x="76.6" y="4.199999999999999" style="font-family: 'Open Sans', verdana, arial, sans-serif; font-size: 12px; fill: rgb(42, 63, 95); fill-opacity: 1; white-space: pre; opacity: 1;" transform="translate(0,316.59000000000003)">1.65</text></g><g class="ytick"><text text-anchor="end" x="76.6" y="4.199999999999999" style="font-family: 'Open Sans', verdana, arial, sans-serif; font-size: 12px; fill: rgb(42, 63, 95); fill-opacity: 1; white-space: pre; opacity: 1;" transform="translate(0,268.25)">1.7</text></g><g class="ytick"><text text-anchor="end" x="76.6" y="4.199999999999999" style="font-family: 'Open Sans', verdana, arial, sans-serif; font-size: 12px; fill: rgb(42, 63, 95); fill-opacity: 1; white-space: pre; opacity: 1;" transform="translate(0,219.91)">1.75</text></g><g class="ytick"><text text-anchor="end" x="76.6" y="4.199999999999999" style="font-family: 'Open Sans', verdana, arial, sans-serif; font-size: 12px; fill: rgb(42, 63, 95); fill-opacity: 1; white-space: pre; opacity: 1;" transform="translate(0,171.57999999999998)">1.8</text></g><g class="ytick"><text text-anchor="end" x="76.6" y="4.199999999999999" style="font-family: 'Open Sans', verdana, arial, sans-serif; font-size: 12px; fill: rgb(42, 63, 95); fill-opacity: 1; white-space: pre; opacity: 1;" transform="translate(0,123.24)">1.85</text></g></g><g class="overaxes-above"/></g></g><g class="polarlayer"/><g class="smithlayer"/><g class="ternarylayer"/><g class="geolayer"/><g class="funnelarealayer"/><g class="pielayer"/><g class="iciclelayer"/><g class="treemaplayer"/><g class="sunburstlayer"/><g class="glimages"/><defs id="topdefs-00811a"><g class="clips"/><clipPath id="legend00811a"><rect width="429" height="48" x="0" y="0"/></clipPath></defs><g class="layer-above"><g class="imagelayer"/><g class="shapelayer"/></g><g class="infolayer"><g class="legend" pointer-events="all" transform="translate(80,440)"><rect class="bg" shape-rendering="crispEdges" width="429" height="48" x="0" y="0" style="stroke: rgb(68, 68, 68); stroke-opacity: 1; fill: rgb(255, 255, 255); fill-opacity: 1; stroke-width: 0px;"/><g class="scrollbox" transform="" clip-path="url(#legend00811a)"><g class="groups"><g class="traces" transform="translate(0,14.5)" style="opacity: 1;"><text class="legendtext" text-anchor="start" x="40" y="4.680000000000001" style="font-family: 'Open Sans', verdana, arial, sans-serif; font-size: 12px; fill: rgb(42, 63, 95); fill-opacity: 1; white-space: pre;">Reference period</text><g class="layers" style="opacity: 1;"><g class="legendfill"/><g class="legendlines"><path class="js-line" d="M5,0h30" style="fill: none; stroke: rgb(0, 200, 229); stroke-opacity: 1; stroke-width: 2px;"/></g><g class="legendsymbols"><g class="legendpoints"/></g></g><rect class="legendtoggle" x="0" y="-9.5" width="134.5625" height="19" style="fill: rgb(0, 0, 0); fill-opacity: 0;"/></g><g class="traces" transform="translate(146.390625,14.5)" style="opacity: 1;"><text class="legendtext" text-anchor="start" x="40" y="4.680000000000001" style="font-family: 'Open Sans', verdana, arial, sans-serif; font-size: 12px; fill: rgb(42, 63, 95); fill-opacity: 1; white-space: pre;">Analysis period</text><g class="layers" style="opacity: 1;"><g class="legendfill"/><g class="legendlines"><path class="js-line" d="M5,0h30" style="fill: none; stroke: rgb(59, 2, 128); stroke-opacity: 1; stroke-width: 2px;"/></g><g class="legendsymbols"><g class="legendpoints"/></g></g><rect class="legendtoggle" x="0" y="-9.5" width="123.875" height="19" style="fill: rgb(0, 0, 0); fill-opacity: 0;"/></g><g class="traces" transform="translate(292.78125,14.5)" style="opacity: 1;"><text class="legendtext" text-anchor="start" x="40" y="4.680000000000001" style="font-family: 'Open Sans', verdana, arial, sans-serif; font-size: 12px; fill: rgb(42, 63, 95); fill-opacity: 1; white-space: pre;">Confidence band</text><g class="layers"><g class="legendfill"><path class="js-fill" d="M5,-2h30v6h-30z" style="stroke-width: 0; fill: rgb(59, 2, 128); fill-opacity: 0.2;"/></g><g class="legendlines"><path class="js-line" d="M5,-2h30" style="fill: none; stroke: rgb(0, 0, 0); stroke-opacity: 0; stroke-width: 2px;"/></g><g class="legendsymbols"><g class="legendpoints"/></g></g><rect class="legendtoggle" x="0" y="-9.5" width="133.25" height="19" style="fill: rgb(0, 0, 0); fill-opacity: 0;"/></g><g class="traces" transform="translate(0,33.5)" style="opacity: 1;"><text class="legendtext" text-anchor="start" x="40" y="4.680000000000001" style="font-family: 'Open Sans', verdana, arial, sans-serif; font-size: 12px; fill: rgb(42, 63, 95); fill-opacity: 1; white-space: pre;">Data drift threshold</text><g class="layers" style="opacity: 1;"><g class="legendfill"/><g class="legendlines"><path class="js-line" d="M5,0h30" style="fill: none; stroke: rgb(221, 64, 64); stroke-opacity: 1; stroke-dasharray: 9px, 9px; stroke-width: 1px;"/></g><g class="legendsymbols"><g class="legendpoints"/></g></g><rect class="legendtoggle" x="0" y="-9.5" width="143.890625" height="19" style="fill: rgb(0, 0, 0); fill-opacity: 0;"/></g><g class="traces" transform="translate(146.390625,33.5)" style="opacity: 1;"><text class="legendtext" text-anchor="start" x="40" y="4.680000000000001" style="font-family: 'Open Sans', verdana, arial, sans-serif; font-size: 12px; fill: rgb(42, 63, 95); fill-opacity: 1; white-space: pre;">Data drift</text><g class="layers"><g class="legendfill"><path class="js-fill" d="M5,0h30v6h-30z" style="stroke-width: 0; fill: rgb(221, 64, 64); fill-opacity: 0.2;"/></g><g class="legendlines"><path class="js-line" d="M5,0h30" style="fill: none; stroke: rgb(0, 0, 0); stroke-opacity: 0; stroke-width: 2px;"/></g><g class="legendsymbols"><g class="legendpoints"><path class="scatterpts" transform="translate(20,0)" d="M3.9,0L0,3.9L-3.9,0L0,-3.9Z" style="opacity: 1; stroke-width: 0px; fill: rgb(221, 64, 64); fill-opacity: 1;"/></g></g></g><rect class="legendtoggle" x="0" y="-9.5" width="91.859375" height="19" style="fill: rgb(0, 0, 0); fill-opacity: 0;"/></g></g></g><rect class="scrollbar" rx="20" ry="3" width="0" height="0" x="0" y="0" style="fill: rgb(128, 139, 164); fill-opacity: 1;"/></g><g class="g-gtitle"><text class="gtitle" x="35" y="50" text-anchor="start" dy="0em" style="font-family: 'Open Sans', verdana, arial, sans-serif; font-size: 17px; fill: rgb(42, 63, 95); opacity: 1; font-weight: normal; white-space: pre;">Data Reconstruction Drift</text></g><g class="g-xtitle"><text class="xtitle" x="350" y="415.20625" text-anchor="middle" style="font-family: 'Open Sans', verdana, arial, sans-serif; font-size: 14px; fill: rgb(42, 63, 95); opacity: 1; font-weight: normal; white-space: pre;">Chunk</text></g><g class="g-ytitle"><text class="ytitle" transform="rotate(-90,28.434375000000003,236)" x="28.434375000000003" y="236" text-anchor="middle" style="font-family: 'Open Sans', verdana, arial, sans-serif; font-size: 14px; fill: rgb(42, 63, 95); opacity: 1; font-weight: normal; white-space: pre;">Reconstruction Error</text></g><g class="annotation" data-index="0" style="opacity: 1;"><g class="annotation-text-g" transform="rotate(0,606,333.7)"><g class="cursor-pointer" transform="translate(592,325)"><rect class="bg" x="0.5" y="0.5" width="27" height="17" style="stroke-width: 1px; stroke: rgb(0, 0, 0); stroke-opacity: 0; fill: rgb(0, 0, 0); fill-opacity: 0;"/><text class="annotation-text" text-anchor="middle" x="13.6875" y="13" style="font-family: 'Open Sans', verdana, arial, sans-serif; font-size: 12px; fill: rgb(221, 64, 64); fill-opacity: 1; white-space: pre;">1.62</text></g></g></g><g class="annotation" data-index="1" style="opacity: 1;"><g class="annotation-text-g" transform="rotate(0,606,293.02)"><g class="cursor-pointer" transform="translate(592,284)"><rect class="bg" x="0.5" y="0.5" width="27" height="17" style="stroke-width: 1px; stroke: rgb(0, 0, 0); stroke-opacity: 0; fill: rgb(0, 0, 0); fill-opacity: 0;"/><text class="annotation-text" text-anchor="middle" x="13.6875" y="13" style="font-family: 'Open Sans', verdana, arial, sans-serif; font-size: 12px; fill: rgb(221, 64, 64); fill-opacity: 1; white-space: pre;">1.67</text></g></g></g></g></svg>