<svg class="main-svg" xmlns="http://www.w3.org/2000/svg" xmlns:xlink="http://www.w3.org/1999/xlink" width="700" height="500" style="" viewBox="0 0 700 500"><rect x="0" y="0" width="700" height="500" style="fill: rgb(255, 255, 255); fill-opacity: 1;"/><defs id="defs-7580eb"><g class="clips"><clipPath id="clip7580ebxyplot" class="plotclip"><rect width="445" height="320"/></clipPath><clipPath class="axesclip" id="clip7580ebx"><rect x="80" y="0" width="445" height="500"/></clipPath><clipPath class="axesclip" id="clip7580eby"><rect x="0" y="100" width="700" height="320"/></clipPath><clipPath class="axesclip" id="clip7580ebxy"><rect x="80" y="100" width="445" height="320"/></clipPath></g><g class="gradients"/><g class="patterns"/></defs><g class="bglayer"/><g class="layer-below"><g class="imagelayer"/><g class="shapelayer"><path data-index="0" fill-rule="evenodd" d="M301.56,420L301.56,100" clip-path="url(#clip7580ebx)" style="opacity: 1; stroke: rgb(102, 102, 102); stroke-opacity: 1; fill: rgb(0, 0, 0); fill-opacity: 0; stroke-width: 1px;"/></g></g><g class="cartesianlayer"><g class="subplot xy"><g class="layer-subplot"><g class="shapelayer"/><g class="imagelayer"/></g><g class="minor-gridlayer"><g class="x"/><g class="y"/></g><g class="gridlayer"><g class="x"/><g class="y"/></g><g class="zerolinelayer"/><path class="xlines-below"/><path class="ylines-below"/><g class="overlines-below"/><g class="xaxislayer-below"/><g class="yaxislayer-below"/><g class="overaxes-below"/><g class="plot" transform="translate(80,100)" clip-path="url(#clip7580ebxyplot)"><g class="scatterlayer mlayer"><g class="trace scatter trace2ebf4d" style="stroke-miterlimit: 2; opacity: 1;"><g class="fills"/><g class="errorbars"/><g class="lines"><path class="js-line" d="M15.05,277.9H35.7V277.59H56.35V279.59H77V270.98H97.65V289.23H118.31V266.78H138.96V271.61H159.61V260.54H180.26V290.82H200.91V275.13H221.56V275.13" style="vector-effect: non-scaling-stroke; fill: none; stroke: rgb(0, 200, 229); stroke-opacity: 1; stroke-width: 2px; opacity: 1;"/></g><g class="points"/><g class="text"/></g><g class="trace scatter trace3d37b3" style="stroke-miterlimit: 2; opacity: 1;"><g class="fills"/><g class="errorbars"/><g class="lines"/><g class="points"><path class="point plotly-customdata" transform="translate(25.38,277.9)" d="M2.5,0A2.5,2.5 0 1,1 0,-2.5A2.5,2.5 0 0,1 2.5,0Z" style="opacity: 1; stroke-width: 0px; fill: rgb(0, 200, 229); fill-opacity: 1;"/><path class="point plotly-customdata" transform="translate(46.03,277.59)" d="M2.5,0A2.5,2.5 0 1,1 0,-2.5A2.5,2.5 0 0,1 2.5,0Z" style="opacity: 1; stroke-width: 0px; fill: rgb(0, 200, 229); fill-opacity: 1;"/><path class="point plotly-customdata" transform="translate(66.68,279.59)" d="M2.5,0A2.5,2.5 0 1,1 0,-2.5A2.5,2.5 0 0,1 2.5,0Z" style="opacity: 1; stroke-width: 0px; fill: rgb(0, 200, 229); fill-opacity: 1;"/><path class="point plotly-customdata" transform="translate(87.33,270.98)" d="M2.5,0A2.5,2.5 0 1,1 0,-2.5A2.5,2.5 0 0,1 2.5,0Z" style="opacity: 1; stroke-width: 0px; fill: rgb(0, 200, 229); fill-opacity: 1;"/><path class="point plotly-customdata" transform="translate(107.98,289.23)" d="M2.5,0A2.5,2.5 0 1,1 0,-2.5A2.5,2.5 0 0,1 2.5,0Z" style="opacity: 1; stroke-width: 0px; fill: rgb(0, 200, 229); fill-opacity: 1;"/><path class="point plotly-customdata" transform="translate(128.63,266.78)" d="M2.5,0A2.5,2.5 0 1,1 0,-2.5A2.5,2.5 0 0,1 2.5,0Z" style="opacity: 1; stroke-width: 0px; fill: rgb(0, 200, 229); fill-opacity: 1;"/><path class="point plotly-customdata" transform="translate(149.28,271.61)" d="M2.5,0A2.5,2.5 0 1,1 0,-2.5A2.5,2.5 0 0,1 2.5,0Z" style="opacity: 1; stroke-width: 0px; fill: rgb(0, 200, 229); fill-opacity: 1;"/><path class="point plotly-customdata" transform="translate(169.93,260.54)" d="M2.5,0A2.5,2.5 0 1,1 0,-2.5A2.5,2.5 0 0,1 2.5,0Z" style="opacity: 1; stroke-width: 0px; fill: rgb(0, 200, 229); fill-opacity: 1;"/><path class="point plotly-customdata" transform="translate(190.59,290.82)" d="M2.5,0A2.5,2.5 0 1,1 0,-2.5A2.5,2.5 0 0,1 2.5,0Z" style="opacity: 1; stroke-width: 0px; fill: rgb(0, 200, 229); fill-opacity: 1;"/><path class="point plotly-customdata" transform="translate(211.24,275.13)" d="M2.5,0A2.5,2.5 0 1,1 0,-2.5A2.5,2.5 0 0,1 2.5,0Z" style="opacity: 1; stroke-width: 0px; fill: rgb(0, 200, 229); fill-opacity: 1;"/></g><g class="text"/></g><g class="trace scatter trace5fff15" style="stroke-miterlimit: 2; opacity: 1;"><g class="fills"/><g class="errorbars"/><g class="lines"><path class="js-line" d="M221.56,258.88H242.21V277.73H262.87V268.25H283.52V262.7H304.17V293.4H324.82V41.35H345.47V21H366.12V29.16H386.77V25.66H407.42V52.7H428.08V52.7" style="vector-effect: non-scaling-stroke; fill: none; stroke: rgb(59, 2, 128); stroke-opacity: 1; stroke-width: 2px; opacity: 1;"/></g><g class="points"/><g class="text"/></g><g class="trace scatter tracec1dead" style="stroke-miterlimit: 2; opacity: 1;"><g class="fills"/><g class="errorbars"/><g class="lines"/><g class="points"><path class="point plotly-customdata" transform="translate(231.89,258.88)" d="M2.5,0A2.5,2.5 0 1,1 0,-2.5A2.5,2.5 0 0,1 2.5,0Z" style="opacity: 1; stroke-width: 0px; fill: rgb(59, 2, 128); fill-opacity: 1;"/><path class="point plotly-customdata" transform="translate(252.54,277.73)" d="M2.5,0A2.5,2.5 0 1,1 0,-2.5A2.5,2.5 0 0,1 2.5,0Z" style="opacity: 1; stroke-width: 0px; fill: rgb(59, 2, 128); fill-opacity: 1;"/><path class="point plotly-customdata" transform="translate(273.19,268.25)" d="M2.5,0A2.5,2.5 0 1,1 0,-2.5A2.5,2.5 0 0,1 2.5,0Z" style="opacity: 1; stroke-width: 0px; fill: rgb(59, 2, 128); fill-opacity: 1;"/><path class="point plotly-customdata" transform="translate(293.84,262.7)" d="M2.5,0A2.5,2.5 0 1,1 0,-2.5A2.5,2.5 0 0,1 2.5,0Z" style="opacity: 1; stroke-width: 0px; fill: rgb(59, 2, 128); fill-opacity: 1;"/><path class="point plotly-customdata" transform="translate(314.49,293.4)" d="M2.5,0A2.5,2.5 0 1,1 0,-2.5A2.5,2.5 0 0,1 2.5,0Z" style="opacity: 1; stroke-width: 0px; fill: rgb(59, 2, 128); fill-opacity: 1;"/><path class="point plotly-customdata" transform="translate(335.14,41.35)" d="M2.5,0A2.5,2.5 0 1,1 0,-2.5A2.5,2.5 0 0,1 2.5,0Z" style="opacity: 1; stroke-width: 0px; fill: rgb(59, 2, 128); fill-opacity: 1;"/><path class="point plotly-customdata" transform="translate(355.8,21)" d="M2.5,0A2.5,2.5 0 1,1 0,-2.5A2.5,2.5 0 0,1 2.5,0Z" style="opacity: 1; stroke-width: 0px; fill: rgb(59, 2, 128); fill-opacity: 1;"/><path class="point plotly-customdata" transform="translate(376.45,29.16)" d="M2.5,0A2.5,2.5 0 1,1 0,-2.5A2.5,2.5 0 0,1 2.5,0Z" style="opacity: 1; stroke-width: 0px; fill: rgb(59, 2, 128); fill-opacity: 1;"/><path class="point plotly-customdata" transform="translate(397.1,25.66)" d="M2.5,0A2.5,2.5 0 1,1 0,-2.5A2.5,2.5 0 0,1 2.5,0Z" style="opacity: 1; stroke-width: 0px; fill: rgb(59, 2, 128); fill-opacity: 1;"/><path class="point plotly-customdata" transform="translate(417.75,52.7)" d="M2.5,0A2.5,2.5 0 1,1 0,-2.5A2.5,2.5 0 0,1 2.5,0Z" style="opacity: 1; stroke-width: 0px; fill: rgb(59, 2, 128); fill-opacity: 1;"/></g><g class="text"/></g><g class="trace scatter trace4bbffa" style="stroke-miterlimit: 2; opacity: 1;"><g class="fills"/><g class="errorbars"/><g class="lines"/><g class="points"><path class="point" transform="translate(335.14,41.35)" d="M5.2,0L0,5.2L-5.2,0L0,-5.2Z" style="opacity: 1; stroke-width: 0px; fill: rgb(221, 64, 64); fill-opacity: 1;"/><path class="point" transform="translate(355.8,21)" d="M5.2,0L0,5.2L-5.2,0L0,-5.2Z" style="opacity: 1; stroke-width: 0px; fill: rgb(221, 64, 64); fill-opacity: 1;"/><path class="point" transform="translate(376.45,29.16)" d="M5.2,0L0,5.2L-5.2,0L0,-5.2Z" style="opacity: 1; stroke-width: 0px; fill: rgb(221, 64, 64); fill-opacity: 1;"/><path class="point" transform="translate(397.1,25.66)" d="M5.2,0L0,5.2L-5.2,0L0,-5.2Z" style="opacity: 1; stroke-width: 0px; fill: rgb(221, 64, 64); fill-opacity: 1;"/><path class="point" transform="translate(417.75,52.7)" d="M5.2,0L0,5.2L-5.2,0L0,-5.2Z" style="opacity: 1; stroke-width: 0px; fill: rgb(221, 64, 64); fill-opacity: 1;"/></g><g class="text"/></g><g class="trace scatter trace643c80" style="stroke-miterlimit: 2; opacity: 1;"><g class="fills"/><g class="errorbars"/><g class="lines"><path class="js-line" d="M15.05,248.04L221.56,248.04" style="vector-effect: non-scaling-stroke; fill: none; stroke: rgb(221, 64, 64); stroke-opacity: 1; stroke-width: 2px; opacity: 1; stroke-dasharray: 9px, 9px;"/></g><g class="points"/><g class="text"/></g><g class="trace scatter trace0d36e2" style="stroke-miterlimit: 2; opacity: 1;"><g class="fills"/><g class="errorbars"/><g class="lines"><path class="js-line" d="M15.05,304L221.56,304" style="vector-effect: non-scaling-stroke; fill: none; stroke: rgb(221, 64, 64); stroke-opacity: 1; stroke-width: 2px; opacity: 1; stroke-dasharray: 9px, 9px;"/></g><g class="points"/><g class="text"/></g><g class="trace scatter trace3c7dca" style="stroke-miterlimit: 2; opacity: 1;"><g class="fills"/><g class="errorbars"/><g class="lines"><path class="js-line" d="M221.56,248.04L428.08,248.04" style="vector-effect: non-scaling-stroke; fill: none; stroke: rgb(221, 64, 64); stroke-opacity: 1; stroke-width: 2px; opacity: 1; stroke-dasharray: 9px, 9px;"/></g><g class="points"/><g class="text"/></g><g class="trace scatter trace2a4ff8" style="stroke-miterlimit: 2; opacity: 1;"><g class="fills"/><g class="errorbars"/><g class="lines"><path class="js-line" d="M221.56,304L428.08,304" style="vector-effect: non-scaling-stroke; fill: none; stroke: rgb(221, 64, 64); stroke-opacity: 1; stroke-width: 2px; opacity: 1; stroke-dasharray: 9px, 9px;"/></g><g class="points"/><g class="text"/></g></g></g><g class="overplot"/><path class="xlines-above crisp" d="M79,420.5H526M79,99.5H526" style="fill: none; stroke-width: 1px; stroke: rgb(59, 2, 128); stroke-opacity: 1;"/><path class="ylines-above crisp" d="M79.5,100V420M525.5,100V420" style="fill: none; stroke-width: 1px; stroke: rgb(59, 2, 128); stroke-opacity: 1;"/><g class="overlines-above"/><g class="xaxislayer-above"/><g class="yaxislayer-above"><g class="ytick"><text text-anchor="end" x="76.6" y="4.199999999999999" transform="translate(0,368.08)" style="font-family: 'Open Sans', verdana, arial, sans-serif; font-size: 12px; fill: rgb(42, 63, 95); fill-opacity: 1; white-space: pre; opacity: 1;">1.65</text></g><g class="ytick"><text text-anchor="end" x="76.6" y="4.199999999999999" style="font-family: 'Open Sans', verdana, arial, sans-serif; font-size: 12px; fill: rgb(42, 63, 95); fill-opacity: 1; white-space: pre; opacity: 1;" transform="translate(0,301.57)">1.7</text></g><g class="ytick"><text text-anchor="end" x="76.6" y="4.199999999999999" style="font-family: 'Open Sans', verdana, arial, sans-serif; font-size: 12px; fill: rgb(42, 63, 95); fill-opacity: 1; white-space: pre; opacity: 1;" transform="translate(0,235.07)">1.75</text></g><g class="ytick"><text text-anchor="end" x="76.6" y="4.199999999999999" style="font-family: 'Open Sans', verdana, arial, sans-serif; font-size: 12px; fill: rgb(42, 63, 95); fill-opacity: 1; white-space: pre; opacity: 1;" transform="translate(0,168.57)">1.8</text></g><g class="ytick"><text text-anchor="end" x="76.6" y="4.199999999999999" style="font-family: 'Open Sans', verdana, arial, sans-serif; font-size: 12px; fill: rgb(42, 63, 95); fill-opacity: 1; white-space: pre; opacity: 1;" transform="translate(0,102.07)">1.85</text></g></g><g class="overaxes-above"/></g></g><g class="polarlayer"/><g class="smithlayer"/><g class="ternarylayer"/><g class="geolayer"/><g class="funnelarealayer"/><g class="pielayer"/><g class="iciclelayer"/><g class="treemaplayer"/><g class="sunburstlayer"/><g class="glimages"/><defs id="topdefs-7580eb"><g class="clips"/><clipPath id="legend7580eb"><rect width="154" height="87" x="0" y="0"/></clipPath></defs><g class="layer-above"><g class="imagelayer"/><g class="shapelayer"/></g><g class="infolayer"><g class="legend" pointer-events="all" transform="translate(533.9000000000001,100)"><rect class="bg" shape-rendering="crispEdges" width="154" height="87" x="0" y="0" style="stroke: rgb(68, 68, 68); stroke-opacity: 1; fill: rgb(255, 255, 255); fill-opacity: 1; stroke-width: 0px;"/><g class="scrollbox" transform="" clip-path="url(#legend7580eb)"><g class="groups" transform=""><g class="traces" transform="translate(0,14.5)" style="opacity: 1;"><text class="legendtext" text-anchor="start" x="40" y="4.680000000000001" style="font-family: 'Open Sans', verdana, arial, sans-serif; font-size: 12px; fill: rgb(42, 63, 95); fill-opacity: 1; white-space: pre;">Metric (reference)</text><g class="layers" style="opacity: 1;"><g class="legendfill"/><g class="legendlines"><path class="js-line" d="M5,0h30" style="fill: none; stroke: rgb(0, 200, 229); stroke-opacity: 1; stroke-width: 2px;"/></g><g class="legendsymbols"><g class="legendpoints"/></g></g><rect class="legendtoggle" x="0" y="-9.5" width="148.6875" height="19" style="fill: rgb(0, 0, 0); fill-opacity: 0;"/></g></g><g class="groups" transform="translate(0,10)"><g class="traces" transform="translate(0,33.5)" style="opacity: 1;"><text class="legendtext" text-anchor="start" x="40" y="4.680000000000001" style="font-family: 'Open Sans', verdana, arial, sans-serif; font-size: 12px; fill: rgb(42, 63, 95); fill-opacity: 1; white-space: pre;">Metric (analysis)</text><g class="layers" style="opacity: 1;"><g class="legendfill"/><g class="legendlines"><path class="js-line" d="M5,0h30" style="fill: none; stroke: rgb(59, 2, 128); stroke-opacity: 1; stroke-width: 2px;"/></g><g class="legendsymbols"><g class="legendpoints"/></g></g><rect class="legendtoggle" x="0" y="-9.5" width="148.6875" height="19" style="fill: rgb(0, 0, 0); fill-opacity: 0;"/></g></g><g class="groups" transform="translate(0,20)"><g class="traces" transform="translate(0,52.5)" style="opacity: 1;"><text class="legendtext" text-anchor="start" x="40" y="4.680000000000001" style="font-family: 'Open Sans', verdana, arial, sans-serif; font-size: 12px; fill: rgb(42, 63, 95); fill-opacity: 1; white-space: pre;">Alert</text><g class="layers" style="opacity: 1;"><g class="legendfill"/><g class="legendlines"/><g class="legendsymbols"><g class="legendpoints"><path class="scatterpts" transform="translate(20,0)" d="M5.2,0L0,5.2L-5.2,0L0,-5.2Z" style="opacity: 1; stroke-width: 0px; fill: rgb(221, 64, 64); fill-opacity: 1;"/></g></g></g><rect class="legendtoggle" x="0" y="-9.5" width="148.6875" height="19" style="fill: rgb(0, 0, 0); fill-opacity: 0;"/></g></g></g><rect class="scrollbar" rx="20" ry="3" width="0" height="0" x="0" y="0" style="fill: rgb(128, 139, 164); fill-opacity: 1;"/></g><g class="g-gtitle"><text class="gtitle" x="35" y="50" text-anchor="start" dy="0em" style="font-family: 'Open Sans', verdana, arial, sans-serif; font-size: 17px; fill: rgb(42, 63, 95); opacity: 1; font-weight: normal; white-space: pre;">Multivariate drift (PCA reconstruction error)</text></g><g class="g-xtitle"><text class="xtitle" x="302.5" y="444.8" text-anchor="middle" style="font-family: 'Open Sans', verdana, arial, sans-serif; font-size: 14px; fill: rgb(42, 63, 95); opacity: 1; font-weight: normal; white-space: pre;">Chunk</text></g><g class="g-ytitle"><text class="ytitle" transform="rotate(-90,24.543750000000003,260)" x="24.543750000000003" y="260" text-anchor="middle" style="font-family: 'Open Sans', verdana, arial, sans-serif; font-size: 14px; fill: rgb(42, 63, 95); opacity: 1; font-weight: normal; white-space: pre;">Data reconstruction drift</text></g></g></svg>